<svg xmlns="http://www.w3.org/2000/svg" viewBox="0 0 59.05 30.73"><g id="Layer_2" data-name="Layer 2"><g id="design"><path d="M58.53,18.88c-.06-.23-.15-.44-.22-.66s-.1-.47-.2-.68-.23-.41-.35-.61-.27-.38-.41-.57-.23-.41-.38-.59-.28-.39-.44-.56-.43-.24-.6-.39l-.53-.46c-.19-.14-.3-.39-.49-.52s-.46-.17-.65-.3-.38-.29-.58-.41-.44-.18-.64-.29-.38-.32-.58-.41-.46-.17-.67-.25l-.65-.28-.65-.27c-.42-.14-.37,0-.7-.1s-.44-.23-.66-.31-.49-.11-.71-.2l-.67-.29c-.23-.1-.44-.23-.65-.33s-.47-.17-.68-.28-.38-.31-.59-.43-.49-.13-.69-.26-.41-.26-.61-.41-.35-.32-.55-.48-.35-.31-.54-.47l-.57-.45-.55-.48c-.17-.16-.29-.39-.47-.56s-.43-.24-.61-.41l-.53-.5c-.17-.16-.32-.36-.5-.53s-.31-.37-.49-.55-.41-.27-.59-.45-.3-.38-.48-.54-.42-.25-.6-.4-.35-.34-.54-.47-.44-.23-.64-.36-.35-.35-.55-.47-.46-.18-.67-.29-.46-.15-.67-.25-.43-.22-.65-.31S33.9.81,33.68.73,33.19.65,33,.59s-.49-.07-.71-.12-.47-.17-.69-.2-.49,0-.72-.07c0,0,0-.08,0-.09-.32-.09-.24,0-.66,0-.18,0-.4-.13-.65-.13H28.9a1.56,1.56,0,0,0-.65.08s0,.09,0,.09c-.23,0-.47,0-.72.08s-.45.16-.69.21-.47.05-.71.12-.47.06-.71.14S25,.91,24.77,1s-.44.17-.66.27l-.66.3c-.21.11-.37.32-.58.44s-.42.22-.62.36-.47.16-.67.3-.3.39-.49.54-.46.2-.65.36-.36.31-.54.48-.32.38-.49.54-.31.39-.48.56l-.53.5c-.18.17-.34.36-.51.52s-.46.24-.63.4-.35.35-.52.51-.31.4-.48.55-.4.3-.58.45-.35.36-.53.5-.4.3-.59.43-.46.2-.66.33-.34.36-.55.48-.48.13-.7.24-.4.25-.63.36-.46.12-.69.22-.39.29-.63.38l-.68.27c-.22.08-.49,0-.72.13s-.21.2-.63.34c-.19.07-.46,0-.71.12s-.4.19-.63.29-.38.27-.61.37-.43.16-.65.27-.42.2-.62.32-.44.18-.64.31-.39.26-.59.4-.33.34-.51.49a5.93,5.93,0,0,0-.56.43c-.18.15-.32.34-.49.51s-.3.36-.45.54-.31.35-.45.54-.26.39-.38.59-.2.42-.3.63-.26.4-.34.62-.07.46-.13.7-.26.45-.31.69-.09.49-.12.73,0,.51,0,.75-.08.49-.1.74,0,.5,0,.74,0,.5,0,.74A7.22,7.22,0,0,0,.18,24c0,.26.13.49.18.72s.07.5.15.73a6.82,6.82,0,0,0,.34.66,7.39,7.39,0,0,0,.24.71,6.65,6.65,0,0,0,.41.62c.15.21.42.3.58.48a6.9,6.9,0,0,0,.46.58,5.17,5.17,0,0,0,.55.5,6,6,0,0,0,.61.42c.2.12.46.15.66.25s.38.31.6.4.47.08.69.16.44.18.66.24.48,0,.71,0,.46.09.69.11.46.07.7.08l.7,0c.23,0,.46,0,.7-.07l.7-.08c.22,0,.46,0,.7,0s.45-.11.69-.16.45-.08.69-.14S13,30,13.25,30s.47,0,.71-.09.43-.18.67-.25.47-.12.7-.18l.7-.23c.24-.07.48-.11.71-.18s.48-.12.71-.2l.69-.22.71-.19c.23-.08.45-.17.69-.24s.44-.19.68-.25l.69-.23c.23-.06.49,0,.73-.1s.44-.2.68-.25.5,0,.74,0,.46-.17.7-.22l.72-.13c.23,0,.48,0,.73,0s.47,0,.72-.06.47-.14.71-.16.49,0,.74,0,.47-.07.72-.09.48,0,.73,0,.48-.14.73-.14.49,0,.73,0,.5,0,.74,0,.49.06.73.07l.73,0c.25,0,.48.2.71.22s.51-.06.74,0,.48.13.71.17l.72.12c.25.05.48.13.71.18l.72.15c.24.06.48.07.72.13s.48.08.71.14.45.2.69.27l.69.22.7.19c.23.07.47.1.7.17l.7.22c.22.08.47.1.7.17s.43.25.66.32.48.09.72.16.44.2.68.27.48.06.7.12l.69.15.69.16.69.13c.23,0,.44.19.67.23s.48,0,.71,0l.69.09c.24,0,.48.07.71.08s.47,0,.7,0,.47,0,.7-.05.48,0,.71,0,.45-.14.67-.2.46-.08.69-.15.45-.12.67-.21.4-.24.61-.35.38-.27.58-.39A5.91,5.91,0,0,0,56,28.9a6,6,0,0,0,.65-.37c.18-.16.32-.37.49-.55s.35-.35.5-.55.29-.4.42-.61a7,7,0,0,0,.33-.67,7.13,7.13,0,0,0,.29-.69,7.35,7.35,0,0,0,.2-.71,5.74,5.74,0,0,0,.1-.74c0-.23,0-.48.05-.73s0-.49,0-.74.08-.49.06-.74,0-.49,0-.74-.09-.48-.13-.73-.06-.49-.11-.74S58.59,19.13,58.53,18.88Z" fill="#425a37"/></g></g></svg>