<svg id="Layer_1" data-name="Layer 1" xmlns="http://www.w3.org/2000/svg" viewBox="0 0 50.15 48.83"><defs><style>.cls-1{fill:#496e43;}</style></defs><path class="cls-1" d="M21.42,27.67a10.57,10.57,0,0,1-3.83.75,9.06,9.06,0,0,1-4.35-1.11,1.24,1.24,0,1,1,1.18-2.19,7.3,7.3,0,0,0,6.55,0A14.14,14.14,0,0,1,11.06,9.78,11.63,11.63,0,1,0,21.42,27.67Z"/><path class="cls-1" d="M22.14,22.88A9.57,9.57,0,0,1,20,15a1.25,1.25,0,0,1,2.45.45,7.31,7.31,0,0,0,2,6.24A14.1,14.1,0,0,1,36,7.5,11.63,11.63,0,1,0,22.14,22.88Z"/><path class="cls-1" d="M25.75,29.83a9.52,9.52,0,0,1-2.86,7.67,1.24,1.24,0,0,1-.86.35,1.25,1.25,0,0,1-.86-2.15,7.25,7.25,0,0,0,2-6.22,14.15,14.15,0,0,1-16,5.36,13.53,13.53,0,0,1-1.71-.68,11.62,11.62,0,1,0,20.2-4.33Z"/><path class="cls-1" d="M29.15,26.38a9.53,9.53,0,0,1,6.41,5.1A1.24,1.24,0,0,1,35,33.14a1.32,1.32,0,0,1-.54.12,1.26,1.26,0,0,1-1.13-.71A7.25,7.25,0,0,0,28,28.68a14.17,14.17,0,0,1,.17,16.84A16.26,16.26,0,0,1,27,46.94a11.63,11.63,0,1,0,2.13-20.56Z"/><path class="cls-1" d="M49.58,17.8a11.63,11.63,0,0,0-22.66,4.28,9.51,9.51,0,0,1,6.83-4.52A1.25,1.25,0,1,1,34.08,20a7.22,7.22,0,0,0-5.31,3.82,14.15,14.15,0,0,1,16.06,5,13.65,13.65,0,0,1,1,1.57A11.63,11.63,0,0,0,49.58,17.8Z"/><path class="cls-1" d="M29.75,25.38a4.68,4.68,0,1,1-4.67-4.67A4.67,4.67,0,0,1,29.75,25.38Z"/></svg>