<svg id="Layer_1" data-name="Layer 1" xmlns="http://www.w3.org/2000/svg" viewBox="0 0 124.85 87"><defs><style>.cls-1{fill:#496f44;}</style></defs><path class="cls-1" d="M124.12,40.33l-3.36-1.87,2.73-1.13a1.43,1.43,0,1,0-1.09-2.64l-4.86,2-4.72-2.27a15.48,15.48,0,0,1-1,2.66l4.46,2.14,1.13,5.95a1.43,1.43,0,0,0,1.4,1.16,1.15,1.15,0,0,0,.26,0,1.41,1.41,0,0,0,1.14-1.66L119.47,41l3.26,1.83a1.46,1.46,0,0,0,.7.18,1.43,1.43,0,0,0,.69-2.68Z"/><path class="cls-1" d="M115.42,47l-5.26.13-3.81-4a16.87,16.87,0,0,1-2,1.08l-.54.25a1.42,1.42,0,0,0,.29.46L108,49,107,55a1.42,1.42,0,0,0,1.15,1.66,1.07,1.07,0,0,0,.25,0,1.44,1.44,0,0,0,1.41-1.18l.66-3.65,2.39,2.87a1.43,1.43,0,0,0,1.1.51,1.43,1.43,0,0,0,1.1-2.34l-2.47-3,3-.08a1.43,1.43,0,1,0-.08-2.85Z"/><path class="cls-1" d="M122,5h0a22.4,22.4,0,0,0-11.1-2,20.81,20.81,0,0,0-2.82.4c-.47.09-.93.22-1.39.34l-1.33.38c-1.76.53-3.49,1.11-5.21,1.55A19.51,19.51,0,0,1,95,6.45c-.43,0-.85,0-1.27-.08s-.84-.1-1.25-.21A12.78,12.78,0,0,1,90,5.39,44.57,44.57,0,0,1,85.26,3c-.81-.45-1.61-.89-2.5-1.3A16.59,16.59,0,0,0,80,.67,22.31,22.31,0,0,0,68.63.82,51.08,51.08,0,0,0,58.26,5L57,5.6c-.41.21-.83.42-1.25.65a12.51,12.51,0,0,0-2.5,1.69A4.59,4.59,0,0,0,52.16,9.4a2.89,2.89,0,0,0-.27,1.13,2.75,2.75,0,0,0,.23,1.19,4,4,0,0,0,1.22,1.5,6.42,6.42,0,0,0,.66.48q.31.21.63.39c1.7,1,3.43,1.62,4.91,2.46a14,14,0,0,1,3.88,3.19A13.21,13.21,0,0,1,66.2,25a19.25,19.25,0,0,1,.53,3c0,.52.09,1,.12,1.57s.05,1.11.09,1.67A31.73,31.73,0,0,0,68.1,38a27.67,27.67,0,0,0,2.72,6.2,34.49,34.49,0,0,0,9,10,36.25,36.25,0,0,0,5.71,3.5,22.58,22.58,0,0,0,6.4,2.21H92a.79.79,0,0,0,.81-.77v0h0a54,54,0,0,1,.52-8,15.75,15.75,0,0,1,2.8-7,10,10,0,0,1,2.64-2.5,31.39,31.39,0,0,1,3.56-1.7,12.53,12.53,0,0,0,2-1.14A11,11,0,0,0,106,37.1a10.45,10.45,0,0,0,2.17-4,11.64,11.64,0,0,0,.37-2.24,19.42,19.42,0,0,0,0-2.16c-.08-1.42-.27-2.77-.31-4.08a10.5,10.5,0,0,1,.42-3.78,10,10,0,0,1,1.84-3.29,37.79,37.79,0,0,1,6-5.26,23.29,23.29,0,0,0,5.9-6,.2.2,0,0,0,0-.08A.85.85,0,0,0,122,5ZM71.44,14.49a3.09,3.09,0,1,1,3.09-3.09A3.09,3.09,0,0,1,71.44,14.49Z"/><path class="cls-1" d="M53.35,66.86l-2.59-.43,1.49-1.35a1,1,0,0,0,.07-1.38A1,1,0,0,0,51,63.63l-2.67,2.42-3.55-.38a10.6,10.6,0,0,1-.06,2L48,68l2.1,3.56a1,1,0,0,0,1.16.42l.17-.08a1,1,0,0,0,.34-1.33l-1.28-2.19,2.52.43a1,1,0,0,0,.49-.05,1,1,0,0,0,.63-.75A1,1,0,0,0,53.35,66.86Z"/><path class="cls-1" d="M49.29,73.15l-3.35,1.3-3.38-1.73a10.78,10.78,0,0,1-1,1.15,3.83,3.83,0,0,1-.29.28,1,1,0,0,0,.29.24L45,76.15l.67,4.08a1,1,0,0,0,1.12.8L47,81a1,1,0,0,0,.63-1.07l-.41-2.5,2.2,1.29a1,1,0,0,0,1.33-.34A1,1,0,0,0,50.37,77l-2.26-1.34L50,75a1,1,0,0,0,.56-1.25A1,1,0,0,0,49.29,73.15Z"/><path class="cls-1" d="M43.86,44.67h0A15.34,15.34,0,0,0,36.27,46a12.86,12.86,0,0,0-1.72.91c-.28.16-.54.35-.81.53L33,48c-1,.74-2,1.5-3,2.19a13.09,13.09,0,0,1-3.14,1.64A7.93,7.93,0,0,1,26,52a9.3,9.3,0,0,1-2.59.21,29,29,0,0,1-3.62-.47c-.63-.1-1.24-.2-1.91-.26a10.91,10.91,0,0,0-2,0,15.28,15.28,0,0,0-7.29,2.7,35.43,35.43,0,0,0-5.7,5.06L2.27,60l-.65.7A9,9,0,0,0,.4,62.31,3.26,3.26,0,0,0,0,63.51a2,2,0,0,0,.08.79A1.88,1.88,0,0,0,.52,65a2.76,2.76,0,0,0,1.13.69,3.87,3.87,0,0,0,.53.15l.5.11c1.31.24,2.57.26,3.71.45a9.63,9.63,0,0,1,3.23,1.16,9.11,9.11,0,0,1,3,2.76,13.68,13.68,0,0,1,1,1.84c.15.32.3.65.44,1s.28.7.44,1a21.19,21.19,0,0,0,2.27,4A18.82,18.82,0,0,0,20,81.58a23.63,23.63,0,0,0,8,4.33,24.52,24.52,0,0,0,4.47.94,15.24,15.24,0,0,0,4.62,0l.08,0a.54.54,0,0,0,.34-.68v0h0A37.14,37.14,0,0,1,36,80.81a10.68,10.68,0,0,1,.19-5.16,6.55,6.55,0,0,1,1.12-2.22,21.06,21.06,0,0,1,1.89-1.91,8.89,8.89,0,0,0,1-1.18A8,8,0,0,0,41,69a7.15,7.15,0,0,0,.48-3.07,7.44,7.44,0,0,0-.29-1.52,12.18,12.18,0,0,0-.5-1.4c-.37-.88-.8-1.71-1.14-2.54a7.45,7.45,0,0,1-.59-2.53,6.71,6.71,0,0,1,.43-2.53A24.92,24.92,0,0,1,42,50.6a16,16,0,0,0,2.4-5.24s0,0,0-.06A.58.58,0,0,0,43.86,44.67ZM13.56,62.36a2.11,2.11,0,1,1,1.28-2.7A2.11,2.11,0,0,1,13.56,62.36Z"/></svg>