<svg id="Layer_1" data-name="Layer 1" xmlns="http://www.w3.org/2000/svg" viewBox="0 0 40.04 32.4"><defs><style>.cls-1{fill:#496e43;}</style></defs><path class="cls-1" d="M18.18,24c-1.06,2.34-3.59,5.59-5.88,6A2.3,2.3,0,0,1,10.08,29a2.76,2.76,0,0,1-.59-1.12A6.64,6.64,0,0,1,7,27.67a5.72,5.72,0,0,0,1.34,3,4.86,4.86,0,0,0,3.62,1.73,4.18,4.18,0,0,0,.74-.06c2.89-.47,5.37-3.54,6.79-5.84A9.59,9.59,0,0,1,18.18,24Z"/><path class="cls-1" d="M16.39,21.7c-.51.46-1,.9-1.57,1.3l-.08.06a8.34,8.34,0,0,1-9.36,0,8,8,0,0,1-2.65-8.49,4.79,4.79,0,0,1,3.5-3c1.68-.42,3.53.29,5.81,2.22.71.6,1.49,1.28,2.21,2a21.07,21.07,0,0,1,2.12-1.39c-.88-.9-1.85-1.64-2.78-2.43C10.71,9.53,8.11,8.64,5.65,9.26A7.08,7.08,0,0,0,.44,13.88,10.37,10.37,0,0,0,4,25,10.49,10.49,0,0,0,10,26.92,10.39,10.39,0,0,0,16.14,25l.1-.07c.47-.35.92-.72,1.36-1.1A16.14,16.14,0,0,0,16.39,21.7Z"/><path class="cls-1" d="M30.54,27.94A2.73,2.73,0,0,1,30,29a2.31,2.31,0,0,1-2.22.93c-2.3-.37-4.94-4-6-6.33a.59.59,0,0,0,0-.08,8.1,8.1,0,0,1-2.44.4l.29.67c.88,1.93,4,7.09,7.8,7.71a4.35,4.35,0,0,0,.74.06,4.86,4.86,0,0,0,3.63-1.73,5.75,5.75,0,0,0,1.34-3A7.89,7.89,0,0,1,30.54,27.94Z"/><path class="cls-1" d="M39.6,13.88a7.1,7.1,0,0,0-5.21-4.62c-2.46-.62-5.06.27-7.94,2.71a22.62,22.62,0,0,0-2.71,2.46c.11-.13-.37.39-.25.26l.4.54a3.41,3.41,0,0,0,.76.71l.57.42h0A34.92,34.92,0,0,1,28,13.8c2.28-1.93,4.12-2.64,5.8-2.22a4.78,4.78,0,0,1,3.51,3,8,8,0,0,1-2.65,8.49,8.34,8.34,0,0,1-9.35,0L25.22,23c-.52-.39-1-.82-1.53-1.27A5.93,5.93,0,0,0,22,23.47c.57.51,1.16,1,1.77,1.47l.1.07a10.69,10.69,0,0,0,12.15,0A10.36,10.36,0,0,0,39.6,13.88Z"/><path class="cls-1" d="M16.74,13.14a3.47,3.47,0,0,0,2.09-1.2l-.09-.44A33.71,33.71,0,0,0,17.86,8c-.2-.69-.42-1.37-.66-2s-.51-1.35-.81-2a20.66,20.66,0,0,0-1-2A14,14,0,0,0,14,0L11.69,2.11A13.5,13.5,0,0,1,13.8,5.16c.31.57.59,1.16.85,1.76s.51,1.23.74,1.85c.46,1.26.86,2.55,1.22,3.85.05.17.09.35.14.52Z"/><path class="cls-1" d="M25.36,0A14.9,14.9,0,0,0,24,1.91a20.66,20.66,0,0,0-1,2c-.3.67-.57,1.34-.81,2S21.75,7.28,21.55,8l-.89,3.57a5.75,5.75,0,0,0,2,1.52l.12-.44c.35-1.3.75-2.59,1.22-3.85.22-.62.47-1.24.74-1.85s.54-1.19.85-1.76a13.5,13.5,0,0,1,2.11-3.05Z"/><path class="cls-1" d="M19.12,17.14a9.12,9.12,0,0,0-1-1.3c-.21-.2-.41-.35-.63-.55a4.25,4.25,0,0,0-.44-.36c-.24.19-.66.49-.9.69l-.57.45c-.24.2-.5.37-.73.59a1.75,1.75,0,0,0-.54,1.23,2.18,2.18,0,0,0,.58,1.32l.21.26c.28.34.64.72,1.06.37.21-.16.37-.38.58-.54s.32-.24.78-.61l.57-.46,1.14-.91Z"/><path class="cls-1" d="M20.29,17.83c.48-.32.85-.68,1.34-1a7,7,0,0,1,1.24-.72,1.47,1.47,0,0,0-.17-.3c-.86-1.4-1.47-2.93-3.29-2.7-.77.09-2.35.55-1.56,1.53.58.71,1.17,1.4,1.69,2.16.17.24.39.67.64,1.1Z"/><path class="cls-1" d="M24.9,18.05a4,4,0,0,0-.84-1.28c-.75-.64-1.44,0-2,.51s-1.19,1-1.81,1.46c.27.36.53.82.79,1.19s.6.85.89,1.28l.16.23c.73-.56,1.44-1.14,2.14-1.74.28-.24.63-.3.76-.66A1.35,1.35,0,0,0,24.9,18.05Z"/><path class="cls-1" d="M21.62,21.79l-.1-.21c-.08-.14-.17-.28-.26-.42s-.41-.55-.62-.81c-.51-.62-1-1.28-1.44-1.94a.05.05,0,0,1,0,0c-.14.09-.31.17-.44.24a8.34,8.34,0,0,0-1.21.74c-.32.24-.67.57-1,.84l.1.15c.37.53.75,1.06,1.14,1.57a12.53,12.53,0,0,0,.9,1.14,1.28,1.28,0,0,0,.43.3,2.91,2.91,0,0,0,1.06-.17,3.19,3.19,0,0,0,1.09-.77,2.18,2.18,0,0,0,.25-.28A.36.36,0,0,0,21.62,21.79Z"/><path class="cls-1" d="M15.33,22l.08-.09a3.35,3.35,0,0,1-1.48-1.76,11.25,11.25,0,0,0-2.2.62,11.49,11.49,0,0,0-3.62,2.06,9.79,9.79,0,0,0,3.12.84,6.66,6.66,0,0,1,1.28-.63A9.35,9.35,0,0,1,15.33,22Z"/><path class="cls-1" d="M28.31,20.8a11.52,11.52,0,0,0-2-.57c-.24.64-1.09,1-1.63,1.17a3.44,3.44,0,0,0,.44,1.06,9.35,9.35,0,0,1,2.26.56,16.36,16.36,0,0,1,1.69.77,10.49,10.49,0,0,0,3-.73A10.7,10.7,0,0,0,28.31,20.8Z"/></svg>