<svg id="Layer_1" data-name="Layer 1" xmlns="http://www.w3.org/2000/svg" viewBox="0 0 37.24 36.78"><defs><style>.cls-1{fill:#496e43;}</style></defs><path class="cls-1" d="M35.7,21.4a3.71,3.71,0,0,0,0-6A3.71,3.71,0,0,0,36.11,12h0a3.71,3.71,0,0,0-1.61-1.93,1.23,1.23,0,0,1-.81,1,1.25,1.25,0,0,1-1.41-.42,1.24,1.24,0,0,1,1.46-1.89,3.66,3.66,0,0,0-.86-2.37,3.71,3.71,0,0,0-3.11-1.31,3.72,3.72,0,0,0-5.22-3A3.71,3.71,0,0,0,19.37.49a1.22,1.22,0,0,1,.47,1.2,1.24,1.24,0,0,1-2.46-.22,1.23,1.23,0,0,1,.49-1A3.71,3.71,0,0,0,12.69,2.1a3.71,3.71,0,0,0-3.38.17h0A3.72,3.72,0,0,0,7.47,5.11,3.69,3.69,0,0,0,4.36,6.42a3.73,3.73,0,0,0-.87,2.37,1.24,1.24,0,0,1,1.67,1.49,1.24,1.24,0,0,1-2.42-.19,3.7,3.7,0,0,0-1.2,5.29,3.72,3.72,0,0,0-1.54,3H0a3.71,3.71,0,0,0,1.54,3,3.75,3.75,0,0,0-.42,3.36,3.69,3.69,0,0,0,1.62,1.93,1.23,1.23,0,0,1,.81-1A1.27,1.27,0,0,1,5,26.1a1.25,1.25,0,0,1-.38,1.83A1.2,1.2,0,0,1,3.49,28a3.73,3.73,0,0,0,.87,2.37h0a3.7,3.7,0,0,0,3.11,1.32,3.72,3.72,0,0,0,5.22,3,3.72,3.72,0,0,0,2.7,2h0a3.67,3.67,0,0,0,2.47-.44,1.24,1.24,0,0,1,.61-2.21,1.24,1.24,0,0,1,1.39,1.23,1.21,1.21,0,0,1-.49,1,3.7,3.7,0,0,0,2.48.44,3.75,3.75,0,0,0,2.7-2,3.72,3.72,0,0,0,5.22-3,3.72,3.72,0,0,0,3.11-1.32A3.66,3.66,0,0,0,33.74,28a1.21,1.21,0,0,1-1.32-.23,1.24,1.24,0,0,1,1.47-2,1.23,1.23,0,0,1,.61.91,3.63,3.63,0,0,0,1.61-1.93h0A3.71,3.71,0,0,0,35.7,21.4Z"/></svg>