<svg xmlns="http://www.w3.org/2000/svg" viewBox="0 0 32.73 32.73"><defs><style>.cls-1{fill:#fff;}</style></defs><g id="Layer_2" data-name="Layer 2"><g id="design"><path class="cls-1" d="M16.36,0A16.37,16.37,0,1,0,32.73,16.36,16.37,16.37,0,0,0,16.36,0ZM13.9,26.34V17.25H10.85V13.69H13.9V11.08a5.44,5.44,0,0,1,.51-2.42l.05-.08c0-.1.1-.2.16-.3l.09-.13a1.66,1.66,0,0,1,.16-.21A.69.69,0,0,1,15,7.81a1.62,1.62,0,0,1,.18-.2l.08-.08.24-.21,0,0a4.72,4.72,0,0,1,3-.91,22.64,22.64,0,0,1,2.73.15V9.71H19.32c-1.47,0-1.75.7-1.75,1.72v2.25h3.5l-.45,3.54H17.57v9.1H13.9Z"/></g></g></svg>