<svg xmlns="http://www.w3.org/2000/svg" viewBox="0 0 30.97 31.5"><defs><style>.cls-1{fill:#fff;}</style></defs><g id="Layer_2" data-name="Layer 2"><g id="design"><path class="cls-1" d="M22.07,0H8.9A8.91,8.91,0,0,0,0,8.9V22.6a8.9,8.9,0,0,0,8.9,8.9H22.07A8.89,8.89,0,0,0,31,22.6V8.9A8.9,8.9,0,0,0,22.07,0ZM3.16,8.9A5.75,5.75,0,0,1,8.9,3.16H22.07A5.75,5.75,0,0,1,27.81,8.9V22.6a5.75,5.75,0,0,1-5.74,5.74H8.9A5.75,5.75,0,0,1,3.16,22.6Z"/><path class="cls-1" d="M15.49,23.86a8.11,8.11,0,1,0-8.12-8.11A8.12,8.12,0,0,0,15.49,23.86Zm0-13.69A5.58,5.58,0,1,1,9.9,15.75,5.58,5.58,0,0,1,15.49,10.17Z"/><path class="cls-1" d="M23.84,9.22A1.82,1.82,0,1,0,22,7.4,1.82,1.82,0,0,0,23.84,9.22Z"/></g></g></svg>