<svg xmlns="http://www.w3.org/2000/svg" viewBox="0 0 32.73 32.73"><defs><style>.cls-1{fill:#fff;}</style></defs><g id="Layer_2" data-name="Layer 2"><g id="design"><path class="cls-1" d="M16.36,0A16.37,16.37,0,1,0,32.73,16.36,16.36,16.36,0,0,0,16.36,0Zm.38,14.24h0a3.5,3.5,0,0,1,6-3.19,7,7,0,0,0,1.85-.66l.37-.19a3.47,3.47,0,0,1-1.13,1.63,3,3,0,0,1-.41.29h0a7.42,7.42,0,0,0,1.64-.4l.36-.14a6.93,6.93,0,0,1-1.74,1.8c0,.16,0,.3,0,.46A10,10,0,0,1,8.34,22.24a7.55,7.55,0,0,0,.83.05,7,7,0,0,0,3.31-.83l.06,0a1.18,1.18,0,0,0,.19-.11,8.28,8.28,0,0,0,.79-.52h0a3.51,3.51,0,0,1-3.06-1.92,4.55,4.55,0,0,1-.21-.51,3.6,3.6,0,0,0,.66.06,3.71,3.71,0,0,0,.67-.07l.25,0h0A3.52,3.52,0,0,1,9,14.86v0a3.63,3.63,0,0,0,1.23.4,2,2,0,0,0,.36,0h0a3.48,3.48,0,0,1-1.56-2.91,3.55,3.55,0,0,1,.36-1.53l.12-.23a9.91,9.91,0,0,0,7.11,3.65Z"/></g></g></svg>