<svg xmlns="http://www.w3.org/2000/svg" viewBox="0 0 140.22 98.94"><g id="Layer_2" data-name="Layer 2"><g id="design"><path d="M138.87,44.74c-.07-.31-.19-.59-.28-.89s0-.67-.1-1-.16-.62-.29-.91-.43-.5-.58-.78-.37-.5-.53-.78-.24-.58-.41-.84-.19-.64-.37-.9-.28-.59-.48-.83-.53-.39-.74-.63-.61-.29-.82-.52-.34-.55-.57-.77-.43-.46-.66-.67-.5-.39-.74-.59-.36-.56-.61-.75-.43-.49-.68-.68-.76,0-1-.21l-.77-.55c-.26-.17-.41-.52-.68-.69s-.65-.15-.92-.31-.44-.5-.71-.65-.53-.37-.8-.51-.72,0-1-.13-.42-.6-.7-.73-.7,0-1-.12-.55-.36-.83-.48-.55-.36-.83-.47-.52-.45-.8-.55-.71,0-1-.09-.65-.2-.9-.28c-.57-.19-.47-.09-.92-.23-.3-.1-.66,0-1-.15s-.57-.29-.86-.4-.51-.46-.8-.57-.6-.21-.88-.33-.66-.06-1-.17-.55-.33-.83-.45-.48-.5-.76-.63-.74.1-1,0-.51-.39-.79-.53-.65-.12-.93-.27-.5-.4-.77-.55-.4-.57-.67-.73-.7-.07-1-.24-.49-.4-.75-.58-.36-.57-.62-.75-.64-.19-.89-.38L104,19.9c-.24-.19-.54-.33-.78-.53s-.42-.47-.66-.68-.37-.53-.61-.74-.42-.45-.66-.67-.49-.39-.72-.6l-.71-.62c-.23-.21-.56-.32-.79-.54s-.3-.59-.53-.81-.71-.15-1-.37-.26-.62-.5-.84-.36-.52-.6-.74-.48-.39-.71-.61-.39-.5-.62-.73-.65-.22-.88-.45-.57-.3-.8-.52-.16-.75-.39-1-.65-.26-.88-.47-.47-.45-.71-.66-.36-.59-.6-.79-.62-.27-.87-.47-.49-.43-.75-.62-.63-.22-.9-.4-.48-.45-.75-.62-.44-.51-.71-.68-.57-.32-.85-.48-.76,0-1-.11-.52-.39-.81-.53-.43-.6-.72-.73-.64-.17-.94-.29-.73.08-1,0-.54-.37-.84-.48l-.91-.33c-.31-.1-.52-.51-.83-.59s-.69,0-1,0-.66,0-1-.08-.6-.3-.91-.36-.64-.12-1-.17-.62-.27-.93-.32L73.25.1s0,.07,0,.06c-.48-.17-.38.09-1,0-.29,0-.63-.2-1-.2s-.66,0-1,0-.72,0-1,0S68.32,0,68,0c-.66,0-.45.25-.94.43,0,0-.09-.29-.13-.28-.31,0-.61,0-.94,0s-.58.4-.91.46-.64,0-1,.1-.67-.07-1,0-.6.25-.92.33-.52.51-.83.61-.75-.27-1.06-.16-.61.2-.92.31-.62.18-.93.3-.52.42-.82.55-.56.32-.86.45-.59.25-.88.4-.65.14-.94.29-.35.69-.63.85-.6.24-.88.41-.53.36-.8.54-.52.35-.79.54-.68.14-.94.33-.46.47-.72.67-.52.37-.78.57-.6.28-.85.5-.4.51-.65.72-.43.48-.67.71l-.68.65c-.23.22-.62.27-.84.48s-.23.68-.46.9-.38.52-.6.73-.73.16-.95.37-.31.6-.54.81-.41.49-.63.71-.59.3-.81.51-.55.34-.78.55-.43.47-.65.68-.54.35-.77.56-.28.63-.51.84-.53.36-.77.56-.39.52-.62.72-.63.25-.86.44-.5.4-.74.59-.26.7-.51.89-.76,0-1,.21-.39.54-.65.72-.59.25-.85.42-.6.21-.87.37-.49.39-.77.55-.52.33-.8.48-.5.39-.78.53-.46.49-.75.63-.69,0-1,.12-.6.17-.9.29-.49.43-.79.55-.67,0-1,.11-.46.54-.76.66-.62.12-.92.23-.5.43-.81.54-.61.15-.92.26-.42-.22-1,0c-.25.09-.48.41-.82.53s-.6.13-.92.25-.5.4-.81.52-.72-.12-1,0-.42.58-.72.72-.64.08-.93.22-.59.23-.87.38-.64.13-.92.28-.52.38-.8.53-.48.43-.76.59-.44.48-.71.65-.61.21-.88.38-.68.13-.94.31l-.76.57c-.26.19-.27.69-.52.88s-.55.33-.79.53-.65.22-.89.43-.35.56-.57.78-.34.55-.56.78-.38.5-.58.74-.59.33-.79.58-.47.44-.65.7-.25.6-.43.86-.17.63-.33.91-.26.56-.4.84-.68.38-.81.67-.1.65-.21.95-.14.62-.24.92,0,.64-.1,1-.3.6-.38.91-.38.59-.44.9.22.71.17,1-.23.62-.27.94,0,.66,0,1-.19.63-.22.95.18.66.16,1-.09.64-.1,1S0,53,0,53.34s.17.65.18,1,.14.64.16,1S0,56,0,56.28s.14.64.19,1,.42.58.49.89,0,.68,0,1,.45.54.55.84-.18.75-.06,1,.31.58.43.88.35.56.5.84.5.46.66.74.06.72.24,1,.45.48.64.74.36.55.56.79.58.36.8.59.31.61.54.83.55.36.79.56.44.5.7.69.64.21.91.39.42.55.69.71.55.34.83.49.74,0,1,.11.48.46.77.59.55.36.84.47.66.06,1,.16.61.15.92.24.61.13.92.21.6.21.92.27.63,0,.95.06.6.29.91.32.65-.18,1-.16.62.33.94.34.63.1,1,.1l.95,0c.32,0,.62-.24.94-.26s.63-.07.95-.11.66.25,1,.22l1-.11c.31-.05.59-.31.91-.36s.59-.31.91-.37.67.15,1,.08.59-.29.9-.36.58-.29.9-.36.68.15,1,.08.56-.35.87-.43.67,0,1,0l.93-.22c.31-.09.56-.37.87-.46s.71.14,1,0,.53-.49.83-.58.58-.3.88-.39.69.07,1,0,.53-.44.83-.53.65-.06,1-.15l.92-.27c.3-.1.69.07,1,0s.61-.17.92-.27.56-.33.87-.43.58-.26.89-.35.59-.25.89-.34.66-.06,1-.15.55-.37.86-.46.69.09,1,0,.64-.1.94-.18.51-.57.82-.66.67.07,1,0,.6-.26.91-.33.63-.12.94-.19l.93-.22c.31-.07.67.13,1,.07s.63-.1.94-.16.6-.26.91-.32.66.07,1,0,.58-.32.9-.37.66.1,1,.06.57-.47.89-.51.62-.17.94-.21.67.29,1,.26.63-.1,1-.13.64,0,1,0,.62-.2.94-.22.65.14,1,.13.62-.25.94-.26.64.07,1,.06.63-.21,1-.22.64.29,1,.28.63,0,1,0S71.7,63,72,63s.66-.23,1-.22.64.18,1,.2.65-.06,1,0,.61.44.92.47.64.09,1,.11.65-.06,1,0,.66-.19,1-.16.61.36.92.4.63.16.94.2l.94.16c.32.05.64.07,1,.13s.68-.17,1-.12l.94.17c.32.06.62.17.93.23s.58.36.89.43.68-.08,1,0,.62.19.92.27.67,0,1,.07.52.53.83.61.68-.09,1,0,.65,0,1,.14.61.22.91.31.6.23.91.32.53.43.84.52.73-.2,1-.11.53.46.83.56.63.12.93.21.62.15.93.25.64.06,1,.16.6.21.9.31.59.25.89.35.63.11.94.21.51.51.82.6.72-.21,1-.12.58.29.89.38.52.47.83.56.71-.16,1-.08.55.43.85.51.66,0,1,.07.59.27.9.34.63.12.94.19.66,0,1,0,.61.21.91.27.58.44.88.5.67-.08,1,0,.62.22.93.27.64.12,1,.16.66-.09,1-.06.63.14,1,.16.64.14,1,.15.65-.26,1-.25.65.11,1,.1.65.17,1,.15.64-.13,1-.16.64-.09.95-.14.66,0,1-.06.63-.15.94-.23.53-.47.84-.56.59-.21.89-.31.62-.16.91-.28.72.07,1-.06.52-.39.81-.54.61-.2.89-.35.55-.33.83-.49.44-.52.71-.7.64-.22.9-.42.57-.33.82-.54.28-.66.52-.88.42-.48.64-.72.67-.26.89-.51.32-.57.52-.83.31-.57.49-.85.43-.49.59-.77,0-.71.17-1,.34-.53.47-.83.25-.58.36-.89.52-.5.62-.81-.07-.69,0-1,.08-.63.15-.95.51-.55.56-.87-.18-.68-.14-1,.28-.62.3-.94.06-.65.08-1-.28-.65-.28-1,.1-.64.09-1,.12-.65.1-1-.23-.62-.26-.95-.09-.63-.13-1,0-.65,0-1,.17-.68.11-1-.18-.63-.24-1-.47-.56-.54-.88S139,45.06,138.87,44.74ZM5.55,52.25a3.38,3.38,0,0,1,.14-1c.13-.33.52-.51.78-.72a2.44,2.44,0,0,1,.9-.37,4.09,4.09,0,0,1,.94-.37,8.2,8.2,0,0,1,1-.12c.33,0,.66.14,1,.18s.63.29.95.35.64.25,1,.32.71,0,1,.07.78-.07,1,0,.7.32,1,.4.75.25,1,.33c.93.31,1.4.22,1,.58s-.43,0-1,.23c-.24.11-.58.12-.9.25s-.41.63-.72.75-.58.19-.89.3-.65,0-.95.1-.54.39-.84.48-.67,0-1,0-.62.07-.92.13-.59.44-.89.47-.67-.3-1-.3-.69.25-1,.19A2.92,2.92,0,0,1,6.4,54a1.75,1.75,0,0,1-.5-.81A2.25,2.25,0,0,1,5.55,52.25Zm6.28,13.9a3.43,3.43,0,0,1-.66-.83,2.12,2.12,0,0,1,0-1.06,2.38,2.38,0,0,1,.35-.91,4.58,4.58,0,0,1,.37-.94,9.17,9.17,0,0,1,.62-.81c.23-.23.56-.39.81-.6s.65-.26.92-.45.61-.29.88-.47.48-.52.74-.68.48-.61.7-.75.71-.29,1-.44.69-.38.93-.51c.86-.46,1.12-.86,1.11-.33s-.29.31-.49.85c-.09.25-.31.5-.44.83s.18.73.05,1-.26.56-.39.86-.45.47-.59.76-.09.66-.23.93-.49.46-.64.73-.38.5-.55.76-.08.73-.27,1-.67.28-.88.5-.29.68-.54.84a2.82,2.82,0,0,1-.95.29,1.89,1.89,0,0,1-.94-.19A2.46,2.46,0,0,1,11.83,66.15ZM16.6,45.07c-.22-.14-.52-.29-.86-.5s-.43-.52-.72-.72-.49-.43-.77-.63-.65-.24-.91-.46-.58-.36-.82-.59a9.17,9.17,0,0,1-.62-.81,4.41,4.41,0,0,1-.38-.94,2.52,2.52,0,0,1-.15-.93,1.76,1.76,0,0,1,0-.94c.13-.27.14-.71.41-1a2.51,2.51,0,0,1,.91-.43,1.75,1.75,0,0,1,1,0,2.73,2.73,0,0,1,.91.34c.24.16.36.52.59.75a8.1,8.1,0,0,1,.51.78c.19.24.72.24.9.51s.32.55.48.82.12.65.26.93.48.47.61.74.07.67.2,1,.19.61.31.88.55.48.66.75-.08.75,0,1c.19.54.59.38.6.85s-.38.17-1.24-.3c-.24-.13-.48-.41-.86-.63S16.94,45.29,16.6,45.07ZM65.31,21.13c0,.49,0,.49,0,1s-.21.5-.22,1-.09.49-.1,1,.19.5.18,1,.1.5.09,1-.1.5-.11,1-.21.5-.21,1-.13.5-.13,1,.16.5.15,1,.26.51.25,1-.14.5-.15,1,0,.47,0,.94,0,.48,0,1-.21.47-.22.94-.13.47-.15.94.43.48.41,1,0,.47,0,.94-.23.47-.24.94.2.48.18,1-.22.47-.23.94-.08.47-.1,1,.33.48.31.95-.37.47-.36.94.32.46.34.92-.1.47-.08.94-.1.47-.08.93-.21.48-.19.94.27.46.29.92a7.4,7.4,0,0,1,0,.94c0,.39,0,.39,0,.79s.15.54.13,1.07-.09.52-.11,1.05-.27.53-.29,1.06,0,.53,0,1.06.17.71.15,1a6.11,6.11,0,0,1-.17,1c0,.39-.38.53-.55.8s0,.7-.33,1a5.16,5.16,0,0,1-.88.58c-.25.17-.51.52-.88.62a4.7,4.7,0,0,1-1.08,0c-.28,0-.51-.37-.83-.54s-.69-.07-1-.3a6.59,6.59,0,0,1-.65-.72c-.21-.23-.21-.64-.4-.9s-.56-.39-.73-.66-.32-.57-.45-.85a6.36,6.36,0,0,1-.42-.88,3.82,3.82,0,0,1-.07-1c0-.15.22-.46.3-.86s.18-.55.25-.85.11-.6.18-.85a3.15,3.15,0,0,0,.13-.91c0-.38-.09-.75,0-.87s-.05-.34-.15-.32c-.44.09-.32.52-.75.67s-.52-.08-.94.08-.47,0-.9.2-.41.21-.84.37-.46.07-.88.23-.34.43-.76.59-.37.31-.79.48c-.59.23-.76-.17-1.33.09s-.31.43-.72.63-.43.17-.84.37-.51,0-.93.19-.34.35-.75.55-.44.15-.85.35-.33.37-.75.57a7.58,7.58,0,0,0-.85.32c-.26.14-.64.11-.9.25l-.79.45c-.31.18-.44.7-.75.84a7.26,7.26,0,0,1-1.05.23c-.33.07-.7-.23-1.06-.23a3.6,3.6,0,0,1-1,0c-.37-.1-.85,0-1.11-.18a3.35,3.35,0,0,1-.61-.92,4.52,4.52,0,0,1-.39-1c-.1-.38.18-.76.18-1.05a1.63,1.63,0,0,1-.13-.9,6,6,0,0,1,0-.92c.07-.28.33-.52.44-.82a7.51,7.51,0,0,1,.38-.82c.14-.26.44-.41.63-.65a4,4,0,0,1,.6-.63c.22-.19.37-.47.65-.62a4.75,4.75,0,0,1,.79-.48,7.29,7.29,0,0,1,.93,0c.32,0,.62-.09.92-.12l.92-.12c.31,0,.63,0,.93,0s.56-.43.86-.48.67.28,1,.22.62,0,.93-.08.53-.43.83-.5.61,0,.92-.13.64.06.95,0,.56-.25.87-.33.49-.5.8-.58.71.29,1,.21l.9-.25c.28-.08.59-.13.9-.21s.44-.31.81-.4.54-.2.85-.28.58-.1.88-.17.61,0,.91-.05.5-.57.79-.64.33.13.33,0c0-.43,0-.43,0-.86s0-.43,0-.86.29-.42.3-.85-.09-.44-.07-.87,0-.43.06-.86c0-.24.17-.54.19-.88s-.1-.58-.09-.89,0-.6,0-.89,0-.61,0-.89.18-.74.15-1c0-.07-.27.18-.36.17a4.7,4.7,0,0,0-.84,0c-.49,0-.48-.37-1-.36s-.48.23-1,.25-.49.08-1,.09-.49-.17-1-.15-.49-.12-1-.11-.49.07-1,.08-.49-.1-1-.08-.48.29-1,.3-.49-.07-1-.06-.49.15-1,.16a3.39,3.39,0,0,0-.9-.13l-.88.13c-.28.05-.51.47-.81.53s-.66-.33-.95-.28-.56.32-.84.37-.64,0-.89,0a2.85,2.85,0,0,1-.87,0,2.86,2.86,0,0,1-.9-.05,2.29,2.29,0,0,1-.81-.41,3,3,0,0,1-.68-.65,6.32,6.32,0,0,1-.54-.9c0-.11.38-.41.52-.84.08-.25.27-.5.4-.8s0-.62.19-.9.51-.39.68-.63.1-.7.3-.9a8,8,0,0,1,.77-.49c.24-.17.38-.53.64-.69s.6-.25.85-.37.74,0,.91,0a3.27,3.27,0,0,1,1.11-.05c.33.07.68.23,1.07.32s.76,0,1.13.05c.19,0,.53.48,1,.53s.77-.28,1.11-.24.85.26,1.05.26c.46,0,.46,0,.93,0s.46.17.93.17.46-.09.93-.09.46-.13.93-.13.47-.18.93-.18.47.14.93.14.47.28.94.28.47,0,.94,0c.16,0,.07-.3.2-.4s.06-.41.07-.84.28-.61.28-1-.17-.63-.17-1-.15-.64-.17-1-.08-.64-.1-1,.19-.67.16-1,0-.68,0-1a7.67,7.67,0,0,0-.33-.93,1.72,1.72,0,0,0-.53-.76c-.22-.24-.45-.42-.61-.62s-.06-.75-.21-.94-.52-.4-.63-.58a1.33,1.33,0,0,1-.3-.77,2.89,2.89,0,0,1,0-1,6.12,6.12,0,0,1,.57-.82c.16-.26.54-.38.75-.64s.15-.71.39-.94a7,7,0,0,1,.83-.54,6.5,6.5,0,0,1,.75-.64,6,6,0,0,1,.93-.31c.3-.12.57-.44.89-.51a5.62,5.62,0,0,1,1,0,9.39,9.39,0,0,1,1,.37,5.33,5.33,0,0,1,1,.23,3.71,3.71,0,0,1,.91.52c.25.23,0,.75.16,1.06s.22.64.28,1,.4.67.42,1a6.62,6.62,0,0,1-.15,1c0,.48.27.5.25,1s-.44.45-.46.93,0,.49,0,1a5.18,5.18,0,0,0,0,1C65.18,20.65,65.32,20.65,65.31,21.13Zm35.08,35.22a6.64,6.64,0,0,1-.58.42,1.92,1.92,0,0,1-.75.15s-.4,0-.86,0c-.26,0-.53.27-.83.3s-.58.17-.84.2a4.74,4.74,0,0,1-.88,0c-.52,0-.52-.2-1-.2s-.51-.12-1-.12-.52.17-1,.17-.51.26-1,.26-.52-.13-1-.13-.52,0-1,0c-.33,0-.67,0-1,0s-.65-.23-1-.27-.63-.19-1-.24-.73.32-1,.26-.66-.16-1-.23-.59-.38-.9-.46-.7,0-1-.1-.56-.42-.86-.53-.59-.31-.88-.44-.76,0-1-.1-.45-.62-.72-.76-.76-.1-1-.25a2.81,2.81,0,0,1-.73-.73c-.2-.25-.3-.58-.49-.85s-.15-.65-.31-1-.51-.45-.65-.76a9.37,9.37,0,0,1-.36-.9c-.1-.3-.24-.6-.33-.93s-.32-.6-.38-.93,0-.65-.08-1,.17-.67.14-1-.06-.63-.08-1-.21-.64-.22-1,.08-.65.08-1,.28-.63.29-1-.39-.49-.38-1,.14-.48.16-.95-.19-.49-.17-1,.11-.48.13-1,.3-.47.31-1-.3-.49-.28-1,.07-.48.08-1,.27-.47.28-.95-.21-.49-.21-1,0-.45,0-.91-.08-.46-.08-.92.08-.45.08-.91.17-.46.17-.92.06-.45.06-.91,0-.46,0-.92,0-.45,0-.91-.15-.46-.15-.92.23-.46.23-.92-.37-.45-.37-.91.27-.46.27-.92a4.22,4.22,0,0,0,0-.93c0-.27-.13-.58-.17-.91s0-.62,0-.92-.37-.57-.42-.87-.29-.59-.35-.86.2-.93.11-1.05-.61-.3-.76-.48A6.22,6.22,0,0,1,73,17c-.18-.28,0-.49,0-.83a3.59,3.59,0,0,1,0-.93,4.33,4.33,0,0,1,.36-.87,5.93,5.93,0,0,1,.3-.93,8.68,8.68,0,0,1,.66-.71c.21-.24.56-.32.8-.53a6.53,6.53,0,0,1,.73-.57c.27-.18.36-.69.64-.82a5.44,5.44,0,0,1,1-.22c.31-.07.66.23,1,.23a2.14,2.14,0,0,1,.86,0c.26.05.68-.18,1,0s.45.43.69.65a3,3,0,0,1,.57.71c.14.23,0,.61.07.92s.37.47.41.79a5.52,5.52,0,0,1,.22.89,9.76,9.76,0,0,0-.19,1c0,.28,0,.6,0,1s-.2.61-.22,1,0,.62-.06,1,.1.64.07,1,.11.64.09,1-.22.62-.24,1,0,.64,0,1,0,.64-.07,1-.14.69-.16,1,.29.71.27,1-.41.65-.42,1-.1.63-.09,1,.31.61.32,1-.07.62-.06,1a1.65,1.65,0,0,0,1,0c.46-.12.43-.22.88-.34s.37-.47.82-.59.58.33,1,.21l.91-.24c.46-.12.47-.08.92-.21s.41-.3.87-.43.63-.25.91-.34.66-.19.92-.29.72-.11,1-.23.38-.72.61-.88.61-.25.86-.37a3.86,3.86,0,0,1,.89-.36,4.43,4.43,0,0,1,1-.11c.32,0,.64.3,1,.36a9,9,0,0,1,1,.13,8.89,8.89,0,0,1,.93.36c.31.12.54.41.84.55s.65.2.93.37.61.3.87.48.56.41.8.61.34.63.52.86.71.5.71.75a1.47,1.47,0,0,1-.35,1c-.19.19-.69.06-1,.23s-.46.45-.79.57-.57.26-.9.36-.64,0-1,.07-.63,0-1,.09-.59.18-.92.25-.63,0-1,.07-.56.39-.89.45-.63,0-1,.08-.6.24-.92.29-.66-.11-1-.06-.46.06-.91.14-.39.44-.83.52-.53-.36-1-.29-.41.28-.86.35-.48,0-.93,0-.47-.08-.93,0-.44.16-.89.23-.45.09-.9.17a2.23,2.23,0,0,1-.71.13c-.31,0-.62.21-.74.21a1.8,1.8,0,0,0-1,0c-.23.44-.13.52-.16,1s.17.5.14,1-.28.48-.31,1,.3.51.27,1c0,.33-.13.64-.15.94s.2.65.2,1S81,41,81,41.25s-.33.65-.32,1,.25.64.26.94,0,.65,0,.94a9.39,9.39,0,0,0,.34.9c.06.33-.23.73-.14,1s.56.47.69.74.16.63.36.87a4.71,4.71,0,0,0,.65.69c.25.18.45.49.75.63a7.31,7.31,0,0,0,.93.27c.29.09.63,0,1,.11s.63-.07,1,0,.59.22.91.25.6.32.93.34l1,0c.3,0,.63-.36,1-.36s.62.1.95.1.55.26.94.25.58-.19.92-.2.6-.18.93-.19.6-.11.92-.14.64.19,1,.15.64,0,1,0c.5-.08.48-.21,1-.28s.47-.26,1-.33.5-.12,1-.2.57.37,1.08.3.48-.23,1-.31c.17,0,.55-.18,1-.28s.65-.31,1-.38a3.64,3.64,0,0,1,1,0c.24,0,.47.26.74.4s.7.13.7.45a4.09,4.09,0,0,1-.35.92,8.82,8.82,0,0,1-.29.93c-.15.26-.41.49-.59.77s-.14.67-.33.94-.42.49-.62.74-.55.38-.76.62-.31.59-.54.81-.41.54-.64.74-.79,0-1,.21S100.66,56.23,100.39,56.35ZM128,37.62a3.25,3.25,0,0,1,.66.83,2.12,2.12,0,0,1,0,1.06,2.51,2.51,0,0,1-.35.91,4.12,4.12,0,0,1-.38.94,7.46,7.46,0,0,1-.61.81c-.23.23-.56.39-.82.6s-.64.26-.91.45-.62.29-.88.47-.48.52-.74.68-.48.61-.7.75-.71.29-1,.44-.69.38-.93.51c-.86.46-1.12.86-1.11.33s.29-.31.49-.85c.09-.25.31-.51.44-.83s-.18-.73-.05-1,.26-.56.39-.86.45-.47.59-.76.08-.66.23-.94.49-.45.64-.72.38-.5.55-.76.08-.73.27-1,.67-.27.88-.49.29-.68.53-.84a2.66,2.66,0,0,1,1-.29,1.89,1.89,0,0,1,.94.19A2.53,2.53,0,0,1,128,37.62Zm0,28.53a2.75,2.75,0,0,1-.83.57c-.31.12-.69-.06-1-.12a2.59,2.59,0,0,1-.81-.44,4.91,4.91,0,0,1-.84-.45,8.49,8.49,0,0,1-.69-.66c-.19-.24-.3-.56-.48-.83s-.16-.62-.32-.9-.2-.59-.35-.87-.43-.48-.57-.76-.51-.46-.63-.74-.13-.64-.25-.92-.21-.61-.32-.88-.28-.61-.37-.86a1.58,1.58,0,0,1-.12-.93c0-.53-.07.11.79.58.24.13.76-.08,1.13.15l.9.58c.22.14.39.5.72.71s.66.17,1,.36.42.55.69.75.49.44.75.65.74.19,1,.42.23.72.43,1,.66.4.8.68a3,3,0,0,1,.19,1,2.12,2.12,0,0,1-.31,1A2.78,2.78,0,0,1,128,66.15Zm-5.47-14.27c-.39-.36.07-.44,1-.75.26-.08.65,0,1.07-.1s.66-.09,1-.19.53-.34.91-.43.6-.26,1-.34.66,0,1-.11.68.08,1,0,.67,0,1,0a9.66,9.66,0,0,1,1-.16c.35,0,.75-.16,1-.07a2.94,2.94,0,0,1,.87.6,2,2,0,0,1,.57.85,2.77,2.77,0,0,1,.22,1,2.22,2.22,0,0,1-.35.89c-.13.3-.37.41-.63.59s-.36.67-.69.75a5.82,5.82,0,0,1-1,.09c-.3,0-.62-.23-.94-.26s-.65.13-1,.07-.57-.33-.88-.4-.59-.22-.89-.3-.7.14-1,0-.49-.53-.78-.63-.7.06-1,0-.56-.35-.83-.46-.57-.36-.82-.47C123,51.9,122.88,52.2,122.54,51.88Z" fill="#425a37"/><path d="M128.64,92.52l-.94-.24c-.3-.08-.67,0-1-.06l-.94-.25-.93-.29c-.3-.09-.51-.53-.83-.62s-.66,0-1-.11-.59-.29-.9-.39-.71.1-1,0-.51-.54-.82-.65-.71.09-1,0-.6-.27-.9-.38-.51-.5-.82-.62-.67-.07-1-.19-.56-.35-.86-.47-.68-.07-1-.2-.53-.43-.81-.58-.56-.34-.83-.49-.51-.42-.78-.58-.55-.34-.83-.5-.67-.12-.95-.28-.51-.4-.78-.57l-.83-.48c-.28-.17-.69-.11-1-.27s-.5-.42-.78-.58-.5-.42-.77-.58-.68-.13-1-.29-.55-.34-.82-.5-.62-.23-.89-.39-.47-.48-.75-.64-.45-.51-.73-.66-.53-.36-.81-.52-.75,0-1-.13-.6-.25-.88-.4-.48-.45-.77-.6-.43-.57-.71-.72-.71,0-1-.16-.49-.46-.78-.6-.72,0-1-.11-.54-.36-.84-.49-.45-.55-.75-.68-.72.06-1-.07-.42-.65-.72-.77-.7,0-1-.1-.5-.47-.8-.58-.73.11-1,0-.63-.1-.94-.2-.48-.57-.79-.67-.68,0-1-.07-.56-.36-.87-.45-.67,0-1-.08-.54-.47-.85-.55-.67,0-1,0-.58-.35-.89-.42-.66,0-1,0-.65,0-1-.07-.61-.22-.93-.28-.67.17-1,.13-.57-.51-.9-.56l-1-.1c-.31,0-.66.17-1,.13s-.65.11-1,.08-.61-.31-.93-.34-.65.09-1,.07-.62-.34-1-.36-.66.32-1,.3c0,0,0-.18-.08-.18-.32,0-.65-.14-1-.13s-.64.21-1,.24-.66-.16-1-.14l-1,.09c-.33,0-.61.43-.93.46s-.63.16-.94.19l-.95.13c-.32.05-.7-.3-1-.26s-.59.4-.91.46-.7-.24-1-.18-.6.28-.92.35-.62.15-.93.22-.62.2-.93.27l-.94.22c-.31.08-.62.15-.93.24s-.69-.07-1,0-.55.4-.86.49-.62.17-.92.26-.6.25-.9.36-.59.27-.89.38-.68,0-1,.12-.57.3-.87.42-.59.28-.88.4-.63.16-.92.29-.54.38-.83.51-.52.39-.82.53-.65.11-.94.25-.7,0-1,.18-.55.34-.83.48-.46.52-.75.67-.65.14-.93.29-.44.54-.72.69-.64.17-.92.33-.48.45-.76.61-.68.1-1,.25-.52.38-.8.54-.57.29-.85.45-.47.46-.75.62-.64.17-.92.34-.6.25-.87.41-.58.29-.86.45-.39.61-.66.77-.76,0-1,.13-.46.49-.74.65l-.84.48c-.27.16-.56.3-.84.46s-.45.51-.73.67-.5.42-.78.57-.59.29-.87.44-.7.07-1,.22l-.86.45c-.29.15-.61.23-.89.37s-.56.33-.85.47-.45.57-.74.7-.77-.13-1.06,0l-.88.39c-.31.13-.51.48-.8.59s-.7,0-1,.12-.59.28-.89.39-.57.33-.87.42-.56.43-.86.51-.68,0-1,.06-.63.19-.94.24-.66,0-1,.07-.63.27-.95.29-.65.08-1,.08-.65-.21-1-.23a.93.93,0,0,0-.61.31.72.72,0,0,0-.28.57.82.82,0,0,0,.11.66,1,1,0,0,0,.58.46,4.09,4.09,0,0,1,1-.14c.26,0,.59.31,1,.3s.59-.29,1-.32.59-.22.93-.27.64.12,1,.07.64,0,1,0,.58-.33.91-.4.69.26,1,.18.54-.48.87-.56.65,0,1-.05.67,0,1-.07.62-.13.94-.22.57-.34.88-.43.6-.23.92-.33.56-.32.87-.42.72.14,1,0,.46-.64.78-.75.7.11,1,0,.5-.5.81-.61l.94-.35.92-.06c.3,0,.63.39.92.37s.59-.17.9-.19.61.11.91.09.58-.36.87-.38.63.29.93.27.58-.28.88-.31.57.06.87,0c.13.15.35-.06.63-.09s.68.3,1,.28.64-.06,1-.07.63-.25,1-.25.64.16,1,.17.63.18,1,.2.65-.16,1-.14.65-.12,1-.09.63.22,1,.26.66-.11,1-.06.62.21.94.26.62.17.94.22.68-.2,1-.15.58.47.9.52.68-.2,1-.15.58.42.9.47.69-.26,1-.21.63.14.95.19.61.27.93.31.69,0,1,.06.68.12,1,.15.67.24,1,.27l1,0c.35,0,.7-.28,1-.26s.44.25.78.26c-.31.09-.31.35-.63.44s-.66,0-1,.14-.73-.21-1-.12-.62.22-.93.3-.6.3-.92.38-.66,0-1,.1-.62.19-.94.27-.59.31-.91.38-.65.1-1,.17-.68-.08-1,0-.59.37-.91.44-.64.08-1,.14-.61.29-.93.34-.63.2-.95.25-.65.07-1,.11-.66,0-1,0-.63.22-1,.26-.67-.07-1,0-.7.19-1.06.21-.6,0-.89,0-.61-.34-.9-.33-.26.4-.38.48-.43-.11-.63-.1c-.41,0-.9.15-1,.44s.12.78.27,1.08.36.64.79.62.68,0,1,0l1-.06c.33,0,.62-.47,1-.5l1-.11c.33,0,.67,0,1,0s.66,0,1,0,.67.25,1,.22.63-.11.94-.11.65-.13,1-.13.64,0,1,0,.63.26,1,.27.65-.29,1-.28.64-.12,1-.1.63.25.95.26.63,0,1,.06.63.26,1,.28.65-.33,1-.32.63.23.94.24.64.16,1,.18.64,0,1,0,.66-.3,1-.28.63.27.95.29.64,0,1,0,.63.3.94.32.66-.22,1-.2l1,0c.32,0,.64-.08,1-.06s.63.16,1,.18.64-.06,1,0,.63.1,1,.12.64-.1,1-.09.63.32.95.33.65-.37,1-.36.62.39.93.39.63,0,.94,0,.64.08,1,.07.61-.45.93-.46.65.39,1,.37l.94-.06c.32,0,.64,0,1-.05s.62-.16.93-.19.59-.39.9-.43.65.17,1,.12.63-.07.94-.12l.93-.14.93-.16c.31-.06.58-.31.89-.37s.68.2,1,.14.53-.51.84-.58.64,0,1-.07.58-.28.88-.36.64,0,.94-.11.64,0,.94-.13.62-.1.93-.18.57-.31.87-.39.66,0,1,0,.55-.37.85-.46.64-.05.94-.14.58-.25.88-.34.6-.21.9-.3.63-.09.93-.19.61-.13.91-.23.5-.52.8-.61.64,0,.94-.15.62-.11.92-.21.27-.43.32-.7.09-.45-.1-.66-.39-.59-.74-.48-.55.33-.85.43-.62.13-.92.23-.59.24-.89.33-.66,0-1,.1-.55.34-.85.43-.59.24-.89.33-.53.41-.84.5-.71-.18-1-.09-.63.07-.93.16-.53.46-.83.55l-.92.24c-.3.08-.63.07-.93.15s-.6.23-.9.31-.67-.08-1,0-.61.18-.92.25-.59.23-.9.3-.64,0-.95,0-.6.22-.91.27-.61.17-.92.22-.63.06-.94.11-.56.51-.87.56-.68-.31-1-.26-.6.24-.92.28-.62.13-.93.16-.64-.11-1-.09-.61.26-.92.28-.65-.16-1-.14-.62.26-.93.27-.63.11-1,.12-.63-.21-1-.21-.63.1-1,.09-.62-.17-.94-.18-.62-.06-.94-.07-.62-.06-.94-.07-.62-.08-.93-.1-.64.18-1,.17-.62-.12-.93-.13-.64.2-1,.18-.62-.36-.93-.38-.63.14-1,.13-.63,0-.94,0-.62-.19-.93-.21-.64.22-1,.2-.6-.49-.91-.51-.64.15-.95.14-.43,0-.74,0c.32-.05.45,0,.78-.06s.58-.44.9-.5.68.14,1,.09.63-.18,1-.23.67,0,1,0,.56-.5.88-.56.71.27,1,.21l1-.2c.31-.06.55-.51.86-.59s.65-.08,1-.15.69.07,1,0,.59-.33.9-.41.65,0,1-.13l.93-.25c.31-.09.69,0,1-.06s.45-.66.76-.76l.89-.35c.31-.11.7,0,1-.06s.53-.42.83-.53.64-.14.93-.26.69,0,1-.13.45-.58.75-.71.63-.16.92-.29.63-.15.93-.28.53-.39.83-.51.55-.35.84-.47.74.08,1,0,.56-.32.85-.44.51-.46.81-.58.63-.16.93-.29.67,0,1-.16.53-.41.83-.53.68,0,1-.11.62-.18.92-.29.56-.33.87-.44.63-.12.93-.22.59-.25.9-.35.51-.54.82-.63.72.21,1,.12.63-.1,1-.17.58-.3.89-.37.66,0,1,0,.48-.22.74-.26c.29.12.62.11.91.24s.5.45.78.57l.89.36c.29.13.73-.08,1,0s.41.65.7.78.65.08,1,.2.48.48.77.61.6.21.89.33.64.12.93.24l.88.37c.29.12.66.06,1,.18s.63.11.93.23.55.32.85.44l.89.34c.29.11.48.52.78.63s.67,0,1,.1l.9.31c.3.1.64.07,1,.17s.57.28.87.38.61.17.92.26.57.28.88.37.59.22.9.31.62.13.93.22.56.31.87.4.58.28.89.36.65,0,1,.1.6.23.9.31.65,0,1,.11.64,0,1,.1.6.24.91.31.65,0,1,.06.55.45.86.52.72-.37,1-.32.57.36.89.42.6.2.92.26.64,0,1,0,.68.35,1,.35c.51,0,.68-.42.81-1s.36-.87,0-1.08a6.12,6.12,0,0,0-1.11-.26C129.41,92.65,129.05,92.63,128.64,92.52Zm-82.2-9.43.86-.41c.29-.13.49-.45.78-.58l.88-.39.89-.34c.3-.12.73.11,1,0s.53-.38.83-.49.63-.12.93-.22.51-.49.81-.59.71.15,1,.06.52-.48.82-.57.63-.12.94-.2.68.13,1,.05.58-.32.89-.39.64,0,.95-.1.58-.33.89-.39.65,0,1,0,.63-.06.94-.11.64,0,.95,0,.64-.06,1-.1.6-.3.92-.33.64,0,1,0l.95-.07c.32,0,.62-.3.93-.31s.64.07,1,.06.64.09,1,.09.64-.24,1-.24.64,0,1,0,.64-.1,1-.09.63.21,1,.23.62.25.93.28.63.09.94.12.67-.32,1-.29.64,0,1,0,.67.31,1,.35c-.31.06-.73-.12-1,0s-.56.42-.87.48-.66-.06-1,0-.55.47-.86.54-.63,0-.94.12-.69-.16-1-.09-.53.48-.84.55-.72-.27-1-.2-.54.43-.85.51-.68-.09-1,0-.53.5-.83.58-.58.28-.89.36-.71-.21-1-.13-.55.38-.85.47-.66,0-1,.07-.56.35-.86.43-.7-.13-1,0-.56.36-.86.45-.67,0-1,0-.57.34-.87.42-.58.28-.89.37-.63.06-.94.15-.53.44-.84.52-.72-.23-1-.14-.61.19-.91.27-.55.41-.85.49-.57.34-.87.42-.68-.08-1,0-.57.29-.88.37-.69-.13-1,0-.53.5-.83.58-.66,0-1,.06-.66,0-1,.06-.58.32-.88.39-.67,0-1,0l-.93.22c-.31.07-.54.49-.84.56s-.61.22-.92.28l-.93.2c-.31.06-.7-.27-1-.2s-.56.41-.87.47-.69-.23-1-.17-.59.27-.9.33l-.93.17c-.32,0-.62.17-.94.21l-.93.13-1,.1c.29-.12.69-.06,1-.18s.48-.45.77-.57.58-.22.87-.34.54-.29.83-.41.54-.32.82-.44.66,0,.94-.17.54-.33.82-.46.55-.29.84-.42.59-.17.88-.3.5-.39.79-.52.5-.39.78-.53.63-.1.92-.24.67,0,.95-.16S46.16,83.23,46.44,83.09Zm4.83,6.78-1-.15c-.33-.06-.69.1-1,0l-1-.14c-.33-.05-.65-.13-1-.18s-.48-.33-.81-.38c.32,0,.49-.1.81-.14s.66,0,1,0,.59-.4.91-.44.69.25,1,.2.59-.41.91-.46.65,0,1-.1.68.18,1,.12.61-.28.93-.34.65,0,1-.08.57-.33.88-.39.65,0,.95-.05.63-.11.93-.18.64-.06.94-.14.62-.15.92-.24.53-.4.83-.49.63-.1.93-.19l.9-.3c.29-.1.51-.44.81-.54s.62-.11.92-.21.63-.11.92-.22.51-.43.8-.54l.9-.31c.29-.11.54-.33.84-.44s.65,0,.94-.16.67,0,1-.12.61-.18.9-.29.46-.58.75-.69.57-.28.86-.39.65-.05,1-.16.69.08,1,0,.5-.5.8-.6.65,0,1-.11.5-.52.8-.61.62-.1.93-.19.68.13,1,0,.52-.49.82-.57.71.27,1,.2.55-.41.86-.47.66.12,1,.06.58-.47.89-.51.65,0,.94.11.49.53.78.62.66-.06.94,0,.53.35.82.45.64,0,.92.11.47.51.75.61.64,0,.92.15.49.43.78.54.65.09.94.21.61.14.9.26.53.35.82.48.82.23,1.11.35c-.32.06-.89-.1-1.21,0s-.62.16-.93.22-.58.38-.89.44-.58.31-.9.38-.67-.1-1,0-.59.28-.9.35-.7-.13-1,0-.53.5-.84.58-.66,0-1,.07-.66,0-1,.09-.57.33-.88.42-.67,0-1,.06l-.92.27c-.31.09-.51.53-.82.63s-.58.26-.89.35l-.92.28c-.3.1-.72-.19-1-.1s-.52.48-.83.58-.71-.14-1,0-.56.36-.86.45-.6.22-.91.31-.58.26-.89.36l-.92.28L71,89c-.31.1-.69,0-1,.06s-.54.42-.84.51-.62.17-.92.27-.6.24-.91.34-.62.17-.93.22-.66-.14-1-.1-.62.14-.94.17-.63.09-.94.11-.64,0-1,0-.63.16-1,.17-.63.15-.95.15-.63-.18-1-.19-.62-.29-.94-.3-.63,0-1,0-.65.21-1,.18-.61-.22-.93-.25-.66.21-1,.17-.62-.22-.93-.26-.65.08-1,0-.59-.33-.91-.38S51.58,89.92,51.27,89.87Z" fill="#425a37"/></g></g></svg>