<svg xmlns="http://www.w3.org/2000/svg" viewBox="0 0 199.15 34.95"><g id="Layer_2" data-name="Layer 2"><g id="design"><path d="M0,33.27c1.85-.21,3.05-.68,3.57-1.4s.79-2.4.79-5v-22l-.61-.8a5.26,5.26,0,0,0-1.68-1.6A5.92,5.92,0,0,0,0,2.12V1.19H7.66L25,25.06V8.48c0-2.72-.37-4.5-1.1-5.32-.48-.53-1.55-.88-3.2-1V1.19H31.23v.93c-1.71.19-2.85.66-3.42,1.39s-.85,2.4-.85,5V34.78h-.77L6.33,7.43V26.84q0,4.1,1.08,5.33c.47.54,1.51.9,3.13,1.1v.92H0Z" fill="#fff"/><path d="M36,14.7a8.86,8.86,0,0,1,7.14-3.35,9.24,9.24,0,0,1,7.19,3.17,12.16,12.16,0,0,1,2.84,8.42,13.42,13.42,0,0,1-2.76,8.43A8.63,8.63,0,0,1,43.31,35a9,9,0,0,1-7.13-3.44,12.87,12.87,0,0,1-2.91-8.62A12.4,12.4,0,0,1,36,14.7Zm3.5-.62q-2.19,2.21-2.19,7.64a18.72,18.72,0,0,0,1.76,8.09q1.77,3.75,4.91,3.75a4.14,4.14,0,0,0,3.79-2.51,14.09,14.09,0,0,0,1.33-6.57,19.09,19.09,0,0,0-1.69-7.94q-1.7-3.73-4.9-3.73A4.11,4.11,0,0,0,39.54,14.08Z" fill="#fff"/><path d="M55.49,33.39a4.92,4.92,0,0,0,2.68-.79,3.57,3.57,0,0,0,.65-2.55v-11a10.43,10.43,0,0,0-.4-3.45,1.48,1.48,0,0,0-1.48-1,3.66,3.66,0,0,0-.58.06c-.24,0-.49.09-.76.16V14c.83-.32,1.69-.65,2.56-1L60,12.28q1.1-.46,2.25-1a.17.17,0,0,1,.19.12,2.66,2.66,0,0,1,0,.51v4a18.11,18.11,0,0,1,2.71-3.39,4,4,0,0,1,2.72-1.22,2.39,2.39,0,0,1,1.82.74,2.62,2.62,0,0,1,.71,1.87,2.64,2.64,0,0,1-.54,1.68,1.67,1.67,0,0,1-1.35.68,2.39,2.39,0,0,1-1.67-.85c-.57-.57-1-.85-1.33-.85-.51,0-1.14.45-1.89,1.37a4.5,4.5,0,0,0-1.11,2.84v11a3.89,3.89,0,0,0,.87,2.91,4.07,4.07,0,0,0,2.92.77v.8H55.49Z" fill="#fff"/><path d="M84,11.74v1.75H79.56l0,14a10.41,10.41,0,0,0,.28,2.8A2.06,2.06,0,0,0,81.86,32a2.31,2.31,0,0,0,1.37-.41,7.74,7.74,0,0,0,1.33-1.32l.57.54-.48.73A7.34,7.34,0,0,1,82.24,34a5.09,5.09,0,0,1-2.46.71,3.49,3.49,0,0,1-3.51-2.56,11.88,11.88,0,0,1-.5-3.85V13.49H73.38a.79.79,0,0,1-.16-.14.32.32,0,0,1-.06-.2.61.61,0,0,1,.1-.38c.07-.08.27-.29.63-.62A20.22,20.22,0,0,0,76.07,9.9q.66-.87,3.14-4.57a.7.7,0,0,1,.34,0s.06.16.06.37v6Z" fill="#fff"/><path d="M87.15,33.51a3.64,3.64,0,0,0,2.36-1c.37-.47.56-1.61.56-3.39V5.75a4.81,4.81,0,0,0-.32-2c-.21-.43-.72-.65-1.54-.65a3.57,3.57,0,0,0-.47,0l-.52.09V2.34l2.38-.77,2-.64L93.66.2l0,.17v15a15.18,15.18,0,0,1,2.45-2.58,6.75,6.75,0,0,1,4.17-1.46,4.78,4.78,0,0,1,4.84,3.31,12.53,12.53,0,0,1,.7,4.6v9.94a6.75,6.75,0,0,0,.54,3.36,3.1,3.1,0,0,0,2.2,1v.68H99.12v-.68a3.88,3.88,0,0,0,2.46-1c.36-.47.55-1.6.55-3.38V19.26a8.67,8.67,0,0,0-.72-3.82A2.7,2.7,0,0,0,98.73,14a5.06,5.06,0,0,0-3.31,1.36c-1.07.91-1.6,1.51-1.6,1.78v12c0,1.82.19,2.95.57,3.41a4,4,0,0,0,2.43,1v.68H87.15Z" fill="#fff"/><path d="M111.74,21.38h11.1V24.5h-11.1Z" fill="#fff"/><path d="M126.19,33.27c1.75-.21,2.85-.57,3.28-1.08s.66-1.84.66-4V6.6c0-1.79-.24-2.95-.73-3.48s-1.56-.87-3.21-1V1.19h12.45v.93c-1.65.13-2.71.46-3.21,1s-.74,1.69-.74,3.48v9.72h13.63V6.6q0-2.68-.72-3.48c-.48-.54-1.55-.87-3.22-1V1.19h12.45v.93c-1.65.13-2.72.46-3.21,1s-.74,1.69-.74,3.48V28.79c0,1.81.25,3,.74,3.47a5.4,5.4,0,0,0,3.21,1v.92H144.38v-.92c1.77-.19,2.87-.55,3.3-1.07s.64-1.85.64-4V18.51H134.69V28.79c0,1.81.25,3,.74,3.48s1.56.85,3.21,1v.92H126.19Z" fill="#fff"/><path d="M160.41,33.51a5.12,5.12,0,0,0,3-.89c.41-.43.62-1.59.62-3.49V17.51a8.19,8.19,0,0,0-.2-2.19,1.33,1.33,0,0,0-1.38-1,2.42,2.42,0,0,0-.47,0c-.15,0-.6.16-1.33.39V14l1-.34c2.55-.92,4.34-1.62,5.34-2.09a2.54,2.54,0,0,1,.79-.29,1.36,1.36,0,0,1,0,.36V29.13q0,2.78.6,3.48a4.2,4.2,0,0,0,2.73.9v.68H160.41ZM163.89,1a2.12,2.12,0,0,1,3.23,0,2.56,2.56,0,0,1,.67,1.8,2.54,2.54,0,0,1-.67,1.78,2.13,2.13,0,0,1-3.23,0,2.58,2.58,0,0,1-.66-1.78A2.62,2.62,0,0,1,163.89,1Z" fill="#fff"/><path d="M174.5,33.51a4.8,4.8,0,0,0,2.76-.91,3.81,3.81,0,0,0,.72-2.72V6.09a6.94,6.94,0,0,0-.24-2.22,1.73,1.73,0,0,0-1.77-1,3.25,3.25,0,0,0-.67.07l-.91.22v-.8c2-.59,4.35-1.37,7.12-2.34a.18.18,0,0,1,.19.15,4,4,0,0,1,0,.63V30c0,1.41.22,2.33.66,2.74a4.74,4.74,0,0,0,2.72.79v.68H174.5Z" fill="#fff"/><path d="M188.54,33.51a4.87,4.87,0,0,0,2.77-.91,3.81,3.81,0,0,0,.72-2.72V6.09a6.94,6.94,0,0,0-.24-2.22,1.74,1.74,0,0,0-1.78-1,3.39,3.39,0,0,0-.67.07l-.9.22v-.8q3-.88,7.12-2.34a.17.17,0,0,1,.18.15,2.78,2.78,0,0,1,0,.63V30c0,1.41.22,2.33.66,2.74a4.71,4.71,0,0,0,2.71.79v.68H188.54Z" fill="#fff"/></g></g></svg>