<svg xmlns="http://www.w3.org/2000/svg" viewBox="0 0 155.6 46.66"><g id="Layer_2" data-name="Layer 2"><g id="_1" data-name="1"><path d="M0,45.34a4,4,0,0,0,2.79-1.09c.41-.56.62-1.87.62-3.93V23.15l-.48-.62a4.12,4.12,0,0,0-1.31-1.25A4.49,4.49,0,0,0,0,21v-.73H6L19.52,38.93V26c0-2.13-.28-3.52-.85-4.16a4,4,0,0,0-2.5-.81v-.73H24.4V21a3.87,3.87,0,0,0-2.67,1.08c-.44.57-.67,1.88-.67,3.92V46.52h-.6L5,25.15V40.32q0,3.2.84,4.17a4,4,0,0,0,2.45.85v.73H0Z"/><path d="M28.16,30.83a6.9,6.9,0,0,1,5.57-2.61,7.23,7.23,0,0,1,5.62,2.47,9.51,9.51,0,0,1,2.23,6.59,10.47,10.47,0,0,1-2.16,6.58,6.75,6.75,0,0,1-5.58,2.8A7.06,7.06,0,0,1,28.27,44,10,10,0,0,1,26,37.24a9.7,9.7,0,0,1,2.17-6.41m2.73-.48c-1.14,1.15-1.71,3.15-1.71,6a14.63,14.63,0,0,0,1.38,6.32c.92,2,2.2,2.93,3.83,2.93a3.21,3.21,0,0,0,3-2,10.87,10.87,0,0,0,1-5.14,14.84,14.84,0,0,0-1.32-6.2q-1.32-2.91-3.83-2.91a3.24,3.24,0,0,0-2.35,1"/><path d="M43.36,45.44a3.86,3.86,0,0,0,2.09-.62,2.75,2.75,0,0,0,.51-2V34.25a8.09,8.09,0,0,0-.32-2.69,1.15,1.15,0,0,0-1.15-.81,2.19,2.19,0,0,0-.46.05l-.59.12v-.63l2-.78c.68-.26,1.15-.45,1.42-.57.57-.24,1.15-.51,1.76-.82l.14.1a1.6,1.6,0,0,1,0,.4v3.12a13.91,13.91,0,0,1,2.12-2.65A3.1,3.1,0,0,1,53,28.14a1.88,1.88,0,0,1,1.42.58,2.23,2.23,0,0,1,.13,2.77,1.27,1.27,0,0,1-1,.53,1.9,1.9,0,0,1-1.31-.66c-.44-.45-.79-.67-1-.67s-.89.36-1.47,1.08A3.47,3.47,0,0,0,48.84,34v8.58a3.07,3.07,0,0,0,.68,2.28,3.25,3.25,0,0,0,2.28.6v.63H43.36Z"/><path d="M65.66,28.52v1.37h-3.5l0,11A8,8,0,0,0,62.35,43,1.6,1.6,0,0,0,64,44.35,1.76,1.76,0,0,0,65,44a6.18,6.18,0,0,0,1-1l.44.42-.37.57a5.84,5.84,0,0,1-1.89,1.89,4,4,0,0,1-1.92.55,2.72,2.72,0,0,1-2.74-2,9.22,9.22,0,0,1-.39-3V29.89H57.33l-.12-.11-.05-.15.08-.3a4.37,4.37,0,0,1,.49-.48,17,17,0,0,0,1.7-1.76q.52-.68,2.46-3.57c.15,0,.23,0,.26,0s.05.12.05.28v4.68Z"/><path d="M68.09,45.53a2.86,2.86,0,0,0,1.85-.77,5.06,5.06,0,0,0,.43-2.65V23.84a3.68,3.68,0,0,0-.25-1.57c-.16-.33-.56-.5-1.2-.5l-.37,0-.4.06v-.68l1.85-.6c.74-.24,1.25-.4,1.54-.51l1.64-.57,0,.14V31.32a11.54,11.54,0,0,1,1.91-2,5.3,5.3,0,0,1,3.26-1.14,3.73,3.73,0,0,1,3.78,2.59,9.73,9.73,0,0,1,.55,3.6v7.76a5.26,5.26,0,0,0,.42,2.62,2.38,2.38,0,0,0,1.72.8v.54H77.45v-.54a3,3,0,0,0,1.91-.78,5,5,0,0,0,.43-2.64V34.4a6.91,6.91,0,0,0-.55-3,2.13,2.13,0,0,0-2.1-1.14,4,4,0,0,0-2.59,1.07c-.83.71-1.25,1.17-1.25,1.39v9.38a4.82,4.82,0,0,0,.45,2.66,3.08,3.08,0,0,0,1.9.76v.54H68.09Z"/><rect x="87.31" y="36.06" width="8.67" height="2.44"/><path d="M98.59,45.34a4.28,4.28,0,0,0,2.57-.84c.34-.4.51-1.44.51-3.11V24.51a4.34,4.34,0,0,0-.57-2.72A3.92,3.92,0,0,0,98.59,21v-.73h9.73V21a3.89,3.89,0,0,0-2.5.78,4.26,4.26,0,0,0-.58,2.72V32.1h10.65V24.51a4.34,4.34,0,0,0-.57-2.72,3.88,3.88,0,0,0-2.51-.78v-.73h9.72V21a4,4,0,0,0-2.51.78,4.34,4.34,0,0,0-.57,2.72V41.84a4.3,4.3,0,0,0,.57,2.72,4.21,4.21,0,0,0,2.51.78v.73h-9.72v-.73a4.17,4.17,0,0,0,2.57-.83c.34-.4.51-1.45.51-3.12V33.81H105.24v8a4.27,4.27,0,0,0,.58,2.73,4.09,4.09,0,0,0,2.5.77v.73H98.59Z"/><path d="M125.33,45.53a4,4,0,0,0,2.31-.69q.48-.51.48-2.73V33a6,6,0,0,0-.16-1.71,1,1,0,0,0-1.08-.78l-.36,0c-.12,0-.47.12-1,.3v-.59l.74-.26c2-.73,3.39-1.27,4.18-1.64a2.07,2.07,0,0,1,.61-.23l0,.29V42.11a4.81,4.81,0,0,0,.47,2.72,3.25,3.25,0,0,0,2.13.7v.54h-8.32Zm2.72-25.44a1.62,1.62,0,0,1,1.27-.59,1.66,1.66,0,0,1,1.26.58,2.08,2.08,0,0,1,.52,1.41,2,2,0,0,1-.52,1.39,1.63,1.63,0,0,1-1.26.58,1.61,1.61,0,0,1-1.27-.58,2,2,0,0,1-.52-1.39,2.07,2.07,0,0,1,.52-1.4"/><path d="M136.34,45.53a3.72,3.72,0,0,0,2.15-.71,2.94,2.94,0,0,0,.57-2.12V24.11a5.17,5.17,0,0,0-.19-1.73,1.35,1.35,0,0,0-1.39-.8,3.37,3.37,0,0,0-.52.05l-.71.18v-.63q2.31-.69,5.57-1.83l.14.12a2.41,2.41,0,0,1,0,.49V42.77a3.07,3.07,0,0,0,.51,2.14,3.58,3.58,0,0,0,2.12.62v.54h-8.28Z"/><path d="M147.31,45.53a3.79,3.79,0,0,0,2.16-.71A3,3,0,0,0,150,42.7V24.11a5.54,5.54,0,0,0-.18-1.73,1.35,1.35,0,0,0-1.39-.8,3.26,3.26,0,0,0-.52.05l-.71.18v-.63q2.31-.69,5.56-1.83l.15.12a4.28,4.28,0,0,1,0,.49V42.77a3,3,0,0,0,.52,2.14,3.58,3.58,0,0,0,2.12.62v.54h-8.29Z"/><path d="M4.64.27c.53,0,4,0,4,2.66C8.66,4.4,7.53,5.68,5,5.68H3.65c-.38,0-.38.11-.38,1.19,0,2.58,0,2.59.16,2.83a1,1,0,0,0,.94.39c.31,0,.48,0,.48.23s-.2.23-.39.23H1c-.21,0-.41,0-.41-.23s.22-.23.36-.23c.48,0,1.08,0,1.22-.73a31.59,31.59,0,0,0,0-4c0-.66,0-3.68,0-3.92A.94.94,0,0,0,1.07.73C.72.73.56.73.56.51S.76.27,1,.27Zm.08,4.95c1.86,0,2.6-1,2.6-2.23A2.2,2.2,0,0,0,4.89.73h-.6c-1,0-1,.62-1,1.85,0,.2,0,2.2,0,2.33a.33.33,0,0,0,.36.31Z"/><path d="M11.83,10.55c-.08,0-.34,0-.34-.22s.23-.24.41-.24a.66.66,0,0,0,.67-.52c.08-.29.08-5.3.08-6.06A24.07,24.07,0,0,0,12.57,1a.39.39,0,0,0-.4-.24l-.46,0a.12.12,0,0,1-.13-.12c0-.12.46-.27.69-.34L13.57,0c.08,0,.08,0,.08.32,0,1.12,0,6.55,0,7.77,0,1.5,0,2,.74,2,.31,0,.45,0,.45.24s-.19.22-.36.22Z"/><path d="M22.9,5.54c0,.48,0,2.78,0,3.3s0,1.25.56,1.25a.89.89,0,0,0,.45-.15L24,9.86a.07.07,0,0,1,.08.08,1.36,1.36,0,0,1-1.19.87,1,1,0,0,1-.93-.63c0-.1-.07-.23-.2-.23a.84.84,0,0,0-.34.2,3.17,3.17,0,0,1-1.86.66,1.6,1.6,0,0,1-1.79-1.49c0-1.68,2.37-2.4,3.19-2.64s.93-.28.93-1C21.9,4.46,21.22,4,20.57,4a1,1,0,0,0-1.12.86c-.1.43-.2.93-.75.93A.66.66,0,0,1,18,5.1c0-.83,1.36-1.48,2.55-1.48S22.87,4.13,22.9,5.54ZM21.8,9.32c.07-.17.1-.23.1-1.89,0-.28,0-.52-.3-.52-.5,0-2.62.94-2.62,2.27a1.06,1.06,0,0,0,1.21,1A2.2,2.2,0,0,0,21.8,9.32Z"/><path d="M31.05,10.55a.22.22,0,0,1-.25-.23.23.23,0,0,1,.25-.23c.37,0,.51-.05.68-.29s.14-.47.14-2.74c0-1.34,0-1.86-.3-2.31a1.09,1.09,0,0,0-.93-.52,2.2,2.2,0,0,0-1.43.63c-.43.44-.43.65-.43,2.27,0,.37,0,2.09,0,2.34a.65.65,0,0,0,.7.62c.14,0,.38,0,.38.23,0,0,0,.23-.29.23H27c-.28,0-.28-.2-.28-.22,0-.24.17-.24.38-.24a.65.65,0,0,0,.63-.42A19,19,0,0,0,27.84,7c0-2.29,0-2.64-.64-2.64l-.41.06a.13.13,0,0,1-.14-.13c0-.11.06-.13.57-.24.22-.05,1.41-.41,1.45-.41s.14.06.14.62c0,.2,0,.31.1.31s.49-.36.58-.42a2.73,2.73,0,0,1,1.58-.51,1.53,1.53,0,0,1,1.58,1c.19.55.19.79.19,3a14,14,0,0,0,.1,2.13.63.63,0,0,0,.64.42c.22,0,.39,0,.39.24s-.17.22-.28.22Z"/><path d="M41.08,10.55c-.26,0-.26-.2-.26-.23a.24.24,0,0,1,.26-.23c.37,0,.51-.05.68-.29s.14-.47.14-2.74c0-1.34,0-1.86-.3-2.31a1.09,1.09,0,0,0-.93-.52,2.25,2.25,0,0,0-1.44.63c-.42.44-.42.65-.42,2.27,0,.37,0,2.09,0,2.34a.65.65,0,0,0,.69.62c.14,0,.38,0,.38.23,0,0,0,.23-.28.23H37c-.28,0-.28-.2-.28-.22,0-.24.17-.24.38-.24a.65.65,0,0,0,.63-.42A20.65,20.65,0,0,0,37.86,7c0-2.29,0-2.64-.63-2.64l-.41.06a.12.12,0,0,1-.14-.13c0-.11.06-.13.56-.24.23-.05,1.41-.41,1.46-.41s.14.06.14.62c0,.2,0,.31.1.31a3.09,3.09,0,0,0,.57-.42,2.78,2.78,0,0,1,1.58-.51,1.52,1.52,0,0,1,1.58,1c.2.55.2.79.2,3A14,14,0,0,0,43,9.67a.62.62,0,0,0,.63.42c.23,0,.4,0,.4.24s-.17.22-.28.22Z"/><path d="M47,10.55c-.13,0-.32,0-.32-.23s.17-.23.43-.24a.59.59,0,0,0,.57-.39,21.79,21.79,0,0,0,.11-2.81,21.55,21.55,0,0,0-.08-2.23.4.4,0,0,0-.4-.24l-.44,0a.12.12,0,0,1-.12-.13c0-.1.07-.13.7-.33.19,0,1.06-.38,1.17-.38s.14.13.14.27c0,.64,0,3.81,0,4.53,0,1,0,1.62.65,1.66.28,0,.45,0,.45.24s-.24.23-.34.23ZM47.48.82a.82.82,0,1,1,.82.81A.8.8,0,0,1,47.48.82Z"/><path d="M56.94,10.55a.22.22,0,0,1-.25-.23.23.23,0,0,1,.25-.23c.37,0,.51-.05.68-.29s.14-.47.14-2.74c0-1.34,0-1.86-.29-2.31a1.1,1.1,0,0,0-.94-.52,2.2,2.2,0,0,0-1.43.63c-.43.44-.43.65-.43,2.27,0,.37,0,2.09,0,2.34a.64.64,0,0,0,.69.62c.14,0,.38,0,.38.23,0,0,0,.23-.28.23H52.88c-.28,0-.28-.2-.28-.22,0-.24.17-.24.38-.24a.66.66,0,0,0,.64-.42A20.65,20.65,0,0,0,53.73,7c0-2.29,0-2.64-.64-2.64l-.4.06a.12.12,0,0,1-.14-.13c0-.11.05-.13.56-.24.22-.05,1.41-.41,1.45-.41s.14.06.14.62c0,.2,0,.31.1.31s.49-.36.58-.42A2.76,2.76,0,0,1,57,3.62a1.52,1.52,0,0,1,1.58,1c.19.55.19.79.19,3a14,14,0,0,0,.1,2.13.63.63,0,0,0,.64.42c.22,0,.39,0,.39.24s-.17.22-.28.22Z"/><path d="M67.39,3.89a4.22,4.22,0,0,0,.67.34,1.85,1.85,0,0,0,.45-.3,1.37,1.37,0,0,1,.84-.31.81.81,0,0,1,.82.78.65.65,0,0,1-.58.66c-.36,0-.52-.27-.66-.49s-.14-.14-.2-.14-.29,0-.29.22a2.81,2.81,0,0,0,.24.5,2.2,2.2,0,0,1,.21.93,2.64,2.64,0,0,1-2.71,2.45c-.13,0-.79-.11-.94-.11a.78.78,0,0,0-.67.56.34.34,0,0,0,.23.3,4.61,4.61,0,0,0,1.56.14c.92,0,3.25.08,3.25,1.68,0,1.76-3.25,1.76-3.65,1.76-1.08,0-3.08-.13-3.08-1.27,0-.73.78-1.06,1.23-1.18.08,0,.27-.09.27-.16s-.37-.18-.44-.23a.65.65,0,0,1-.37-.59c0-.49.37-.77.86-1,.17-.09.33-.16.33-.21s-.21-.23-.3-.29a2.41,2.41,0,0,1-.94-1.84A2.63,2.63,0,0,1,66.2,3.62,2.79,2.79,0,0,1,67.39,3.89Zm-1.22,8.59c.88,0,2.25-.24,2.25-1.19,0-.67-.52-1-2.83-1a1.61,1.61,0,0,0-1,.23,1,1,0,0,0-.49.87C64.08,12.44,65.8,12.48,66.17,12.48Zm0-4.33c1.49,0,1.49-1.86,1.49-2.12,0-.87-.34-2-1.49-2-.85,0-1.49.68-1.49,2.08C64.71,7.13,65.12,8.15,66.2,8.15Z"/><path d="M89.62,4.57c.12,0,.34,0,.34.22s-.22.23-.41.23a1.13,1.13,0,0,0-1.33,1,6.73,6.73,0,0,1-.66,2.16A5.57,5.57,0,0,0,87,9.25c0,.25.67.8,1.39.8a2.25,2.25,0,0,0,1.43-.63s.31-.31.38-.31a.17.17,0,0,1,.15.17c0,.11,0,.17-.42.58a2.73,2.73,0,0,1-2,1,2.45,2.45,0,0,1-1.32-.4c-.34-.22-.41-.26-.58-.26a12.81,12.81,0,0,0-1.21.45,4.44,4.44,0,0,1-1.4.21c-2,0-3.4-1.12-3.4-2.7,0-.58.16-1.57,1.85-2.67.73-.48.82-.53.82-.73a1.38,1.38,0,0,0-.16-.52,5.11,5.11,0,0,1-.53-2A2.24,2.24,0,0,1,84.4,0a2,2,0,0,1,2.24,1.93c0,1-.93,1.81-1.87,2.37-.45.28-.65.41-.65.61,0,.43,2,3.86,2.4,3.86S87.73,7.37,87.73,6c0-1-.51-1-1.3-1-.27,0-.27-.2-.27-.23,0-.22.21-.22.34-.22ZM85.16,9a19.29,19.29,0,0,1-1.66-2.7c-.4-.77-.44-.84-.61-.84A2.8,2.8,0,0,0,81.2,7.73a2.59,2.59,0,0,0,2.71,2.48c.76,0,1.62-.33,1.62-.57S85.32,9.22,85.16,9ZM83.33,3.09c.11.35.34,1,.53,1S85.75,3.4,85.75,2A1.34,1.34,0,0,0,84.46.46,1.44,1.44,0,0,0,83,1.92,5.18,5.18,0,0,0,83.33,3.09Z"/><path d="M104.41.27c4.78,0,5.35,3.38,5.35,5,0,3.05-1.74,5.28-5.22,5.28h-3.88c-.21,0-.41,0-.41-.23s.21-.23.3-.23c.55,0,1.15,0,1.28-.73a39.46,39.46,0,0,0,0-4c0-.66,0-3.68,0-3.92a.94.94,0,0,0-1.07-.72c-.35,0-.51,0-.51-.22s.2-.24.41-.24ZM104,.73a.88.88,0,0,0-1,.74c0,.24,0,3.27,0,3.9a39.46,39.46,0,0,0,0,4,.88.88,0,0,0,1,.73h.68c2.4,0,3.84-2.05,3.84-4.87,0-1.78-.74-4.49-3.78-4.49Z"/><path d="M115,6.85c-.19,0-.46,0-.46.45a2.69,2.69,0,0,0,2.35,2.91,2.65,2.65,0,0,0,1.7-.79c.09-.07.41-.55.54-.55a.16.16,0,0,1,.14.18,3,3,0,0,1-2.85,1.76c-2,0-3.09-1.56-3.09-3.61,0-2.34,1.45-3.58,3-3.58,2.19,0,2.81,2.32,2.81,2.91,0,.25-.14.32-.43.32Zm2.59-.46c.31,0,.47-.07.47-.41,0-.54-.51-2-1.7-2s-1.72,1.77-1.72,2.08.24.31.37.31Z"/><path d="M125.66,3.89a.77.77,0,0,0,.27.07.51.51,0,0,0,.41-.2c.1-.09.14-.14.2-.14s.11.07.15.19c.13.32.76,1.86.76,2s0,.14-.12.14-.17,0-.51-.56c-.17-.27-1.18-1.4-2.09-1.4a1.18,1.18,0,0,0-1.21,1.15c0,.57.38.9,1.81,1.39,1.63.58,2.46,1.1,2.46,2.23a2,2,0,0,1-2.15,2,3.31,3.31,0,0,1-1.15-.22.78.78,0,0,0-.26,0,1.26,1.26,0,0,0-.43.08,2.37,2.37,0,0,1-.5.18c-.13,0-.17-.11-.24-.29a19,19,0,0,1-.68-1.92c0-.08,0-.24.17-.24s.27.17.49.56a3.31,3.31,0,0,0,2.6,1.51,1.25,1.25,0,0,0,1.22-1.28c0-.65-.41-1-2-1.54-1.48-.52-2.23-1-2.23-2.1a1.83,1.83,0,0,1,1.86-1.89A2.81,2.81,0,0,1,125.66,3.89Z"/><path d="M130.94,10.55c-.13,0-.33,0-.33-.23s.17-.23.44-.24a.6.6,0,0,0,.57-.39,21.79,21.79,0,0,0,.11-2.81,21.32,21.32,0,0,0-.09-2.23.39.39,0,0,0-.39-.24l-.44,0a.12.12,0,0,1-.13-.13c0-.1.08-.13.71-.33.18,0,1.06-.38,1.17-.38s.14.13.14.27c0,.64,0,3.81,0,4.53,0,1,0,1.62.65,1.66.28,0,.45,0,.45.24s-.24.23-.34.23Zm.45-9.73a.82.82,0,1,1,.82.81A.8.8,0,0,1,131.39.82Z"/><path d="M141.27,3.89a4.22,4.22,0,0,0,.67.34,1.85,1.85,0,0,0,.45-.3,1.37,1.37,0,0,1,.84-.31.81.81,0,0,1,.82.78.65.65,0,0,1-.58.66c-.36,0-.52-.27-.66-.49s-.14-.14-.2-.14-.29,0-.29.22a2.81,2.81,0,0,0,.24.5,2.2,2.2,0,0,1,.21.93,2.64,2.64,0,0,1-2.71,2.45c-.13,0-.79-.11-.94-.11a.78.78,0,0,0-.67.56.34.34,0,0,0,.23.3,4.61,4.61,0,0,0,1.56.14c.92,0,3.25.08,3.25,1.68,0,1.76-3.25,1.76-3.65,1.76-1.08,0-3.08-.13-3.08-1.27,0-.73.78-1.06,1.23-1.18.08,0,.27-.09.27-.16s-.37-.18-.44-.23a.65.65,0,0,1-.37-.59c0-.49.37-.77.86-1,.17-.09.33-.16.33-.21s-.21-.23-.3-.29a2.41,2.41,0,0,1-.94-1.84,2.63,2.63,0,0,1,2.68-2.46A2.79,2.79,0,0,1,141.27,3.89Zm-1.22,8.59c.89,0,2.25-.24,2.25-1.19,0-.67-.52-1-2.83-1a1.61,1.61,0,0,0-1,.23,1,1,0,0,0-.49.87C138,12.44,139.68,12.48,140.05,12.48Zm0-4.33c1.49,0,1.49-1.86,1.49-2.12,0-.87-.34-2-1.49-2-.85,0-1.48.68-1.48,2.08C138.6,7.13,139,8.15,140.08,8.15Z"/><path d="M150.88,10.55c-.26,0-.26-.2-.26-.23a.24.24,0,0,1,.26-.23c.36,0,.51-.05.67-.29s.15-.47.15-2.74c0-1.34,0-1.86-.3-2.31a1.09,1.09,0,0,0-.93-.52,2.25,2.25,0,0,0-1.44.63c-.42.44-.42.65-.42,2.27,0,.37,0,2.09,0,2.34a.65.65,0,0,0,.69.62c.14,0,.38,0,.38.23,0,0,0,.23-.28.23h-2.62c-.28,0-.28-.2-.28-.22,0-.24.16-.24.38-.24a.65.65,0,0,0,.63-.42A20.65,20.65,0,0,0,147.66,7c0-2.29,0-2.64-.63-2.64l-.41.06a.12.12,0,0,1-.14-.13c0-.11.06-.13.56-.24.23-.05,1.41-.41,1.46-.41s.14.06.14.62c0,.2,0,.31.1.31a3.09,3.09,0,0,0,.57-.42,2.78,2.78,0,0,1,1.58-.51,1.52,1.52,0,0,1,1.58,1c.2.55.2.79.2,3a14,14,0,0,0,.1,2.13.62.62,0,0,0,.63.42c.23,0,.4,0,.4.24s-.17.22-.29.22Z"/></g></g></svg>