<svg xmlns="http://www.w3.org/2000/svg" viewBox="0 0 156.27 48.52"><defs><style>.cls-1{font-size:14.1px;font-family:A1MinchoStd-Bold-90ms-RKSJ-H, A-OTF A1 Mincho Std;letter-spacing:0.16em;fill: #ffffff;}</style></defs><g id="Layer_2" data-name="Layer 2"><g id="design" fill="#ffffff"><path d="M0,47.21c1.45-.17,2.38-.53,2.79-1.09s.62-1.88.62-3.93V25l-.48-.63a4.06,4.06,0,0,0-1.31-1.24A4.68,4.68,0,0,0,0,22.87v-.72H6L19.52,40.79V27.84c0-2.13-.28-3.51-.85-4.16a4.14,4.14,0,0,0-2.5-.81v-.72H24.4v.72A3.87,3.87,0,0,0,21.73,24c-.44.57-.67,1.87-.67,3.92V48.39h-.6L5,27V42.19c0,2.13.28,3.52.84,4.16a4,4,0,0,0,2.45.86v.72H0Z"/><path d="M28.16,32.7a6.88,6.88,0,0,1,5.57-2.62,7.24,7.24,0,0,1,5.62,2.48,9.48,9.48,0,0,1,2.23,6.58,10.45,10.45,0,0,1-2.16,6.58,6.73,6.73,0,0,1-5.58,2.8,7,7,0,0,1-5.57-2.68A10.06,10.06,0,0,1,26,39.1a9.67,9.67,0,0,1,2.17-6.4m2.73-.49q-1.71,1.74-1.71,6a14.67,14.67,0,0,0,1.38,6.32q1.38,2.93,3.83,2.93a3.23,3.23,0,0,0,3-2,10.89,10.89,0,0,0,1-5.14,14.81,14.81,0,0,0-1.32-6.2q-1.32-2.93-3.83-2.92a3.24,3.24,0,0,0-2.35,1"/><path d="M43.36,47.3a3.78,3.78,0,0,0,2.09-.62,2.74,2.74,0,0,0,.51-2V36.11a8.13,8.13,0,0,0-.32-2.69,1.15,1.15,0,0,0-1.15-.81,3.17,3.17,0,0,0-.46,0l-.59.12v-.62l2-.78,1.42-.57c.57-.24,1.15-.52,1.76-.82l.14.09a1.71,1.71,0,0,1,0,.4V33.6A13.5,13.5,0,0,1,50.91,31,3.06,3.06,0,0,1,53,30a1.85,1.85,0,0,1,1.42.58A2,2,0,0,1,55,32a2.08,2.08,0,0,1-.42,1.32,1.3,1.3,0,0,1-1,.53,1.88,1.88,0,0,1-1.31-.67c-.44-.44-.79-.66-1-.66s-.89.35-1.47,1.07a3.51,3.51,0,0,0-.87,2.22v8.58a3,3,0,0,0,.68,2.27,3.15,3.15,0,0,0,2.28.6v.63H43.36Z"/><path d="M65.66,30.39v1.37h-3.5l0,11a8,8,0,0,0,.22,2.18A1.61,1.61,0,0,0,64,46.22,1.83,1.83,0,0,0,65,45.9a6.18,6.18,0,0,0,1-1l.44.42-.37.57a5.9,5.9,0,0,1-1.89,1.88,3.91,3.91,0,0,1-1.92.55,2.71,2.71,0,0,1-2.74-2,9.15,9.15,0,0,1-.39-3V31.76H57.33l-.12-.12-.05-.15.08-.3a5.57,5.57,0,0,1,.49-.48A16,16,0,0,0,59.43,29q.52-.68,2.46-3.57a.55.55,0,0,1,.26,0s.05.12.05.29v4.68Z"/><path d="M68.09,47.4a2.91,2.91,0,0,0,1.85-.77A5.1,5.1,0,0,0,70.37,44V25.71a3.65,3.65,0,0,0-.25-1.57q-.24-.51-1.2-.51l-.37,0-.4.07V23l1.85-.6c.74-.23,1.25-.4,1.54-.5l1.64-.57,0,.13V33.18a11.42,11.42,0,0,1,1.91-2A5.32,5.32,0,0,1,78.39,30a3.75,3.75,0,0,1,3.78,2.59,9.76,9.76,0,0,1,.55,3.6V44a5.31,5.31,0,0,0,.42,2.63,2.46,2.46,0,0,0,1.72.8v.53H77.45V47.4a3,3,0,0,0,1.91-.78A5,5,0,0,0,79.79,44v-7.7a6.88,6.88,0,0,0-.55-3,2.13,2.13,0,0,0-2.1-1.14,4,4,0,0,0-2.59,1.06c-.83.71-1.25,1.18-1.25,1.39V44a4.89,4.89,0,0,0,.45,2.67,3.14,3.14,0,0,0,1.9.76v.53H68.09Z"/><rect x="87.31" y="37.92" width="8.67" height="2.44"/><path d="M98.59,47.21a4.42,4.42,0,0,0,2.57-.84q.51-.6.51-3.12V26.37a4.38,4.38,0,0,0-.57-2.72,3.92,3.92,0,0,0-2.51-.78v-.72h9.73v.72a3.89,3.89,0,0,0-2.5.78,4.3,4.3,0,0,0-.58,2.72V34h10.65V26.37a4.38,4.38,0,0,0-.57-2.72,3.88,3.88,0,0,0-2.51-.78v-.72h9.72v.72a4,4,0,0,0-2.51.78,4.38,4.38,0,0,0-.57,2.72V43.71a4.26,4.26,0,0,0,.57,2.71,4.27,4.27,0,0,0,2.51.79v.72h-9.72v-.72a4.1,4.1,0,0,0,2.57-.84q.51-.6.51-3.12V35.68H105.24v8a4.22,4.22,0,0,0,.58,2.72,4.08,4.08,0,0,0,2.5.78v.72H98.59Z"/><path d="M125.33,47.4a4,4,0,0,0,2.31-.7q.48-.5.48-2.73V34.9a6.08,6.08,0,0,0-.16-1.72,1,1,0,0,0-1.08-.78l-.36,0c-.12,0-.47.13-1,.31v-.59l.74-.27c2-.72,3.39-1.27,4.18-1.64A2.07,2.07,0,0,1,131,30l0,.29V44a4.79,4.79,0,0,0,.47,2.72,3.24,3.24,0,0,0,2.13.71v.53h-8.32ZM128.05,22a1.61,1.61,0,0,1,1.27-.58,1.63,1.63,0,0,1,1.26.58,2.14,2.14,0,0,1,0,2.8,1.66,1.66,0,0,1-1.26.58,1.64,1.64,0,0,1-1.27-.58,2,2,0,0,1-.52-1.39,2.1,2.1,0,0,1,.52-1.41"/><path d="M136.34,47.4a3.71,3.71,0,0,0,2.15-.72,2.92,2.92,0,0,0,.57-2.12V26a5.25,5.25,0,0,0-.19-1.73,1.36,1.36,0,0,0-1.39-.8,2.52,2.52,0,0,0-.52.06c-.19,0-.42.09-.71.17V23q2.31-.67,5.57-1.82l.14.11a2.53,2.53,0,0,1,0,.5V44.64a3.09,3.09,0,0,0,.51,2.14,3.74,3.74,0,0,0,2.13.62v.53h-8.29Z"/><path d="M147.31,47.4a3.78,3.78,0,0,0,2.16-.72,2.93,2.93,0,0,0,.56-2.12V26a5.63,5.63,0,0,0-.18-1.73,1.37,1.37,0,0,0-1.39-.8,2.44,2.44,0,0,0-.52.06c-.19,0-.43.09-.71.17V23q2.31-.67,5.56-1.82l.15.11a4.51,4.51,0,0,1,0,.5V44.64a3,3,0,0,0,.52,2.14,3.73,3.73,0,0,0,2.12.62v.53h-8.29Z"/><text class="cls-1" transform="translate(0.27 12.41)">Planning &amp; Design</text></g></g></svg>