<svg xmlns="http://www.w3.org/2000/svg" viewBox="0 0 37.41 340.05"><g id="Layer_2" data-name="Layer 2"><g id="design"><path d="M5.52,23.26c0,.45-.59,2.32-.59,2.71s.15,1.19.15,1.38c0,.5-.45,2.76-.45,3.26s0,3.5,0,4.09c0,.15-.14.34-.14.49s.14.2.29.25a.84.84,0,0,0-.2.34,1.24,1.24,0,0,0,.45.79c.1,0,.34.3.34.44,0,.89-1.13,3.8-1.87,3.8-1.68,0-1.68-1.38-1.68-3.6,0,0,.1-.74.1-.89s-.15-.14-.29-.14a.42.42,0,0,1-.1-.3c0-.44.39-2.46.39-2.86,0-.2-.15-1.13-.15-1.33,0-.54.35-3.4.35-3.5s-.15-1.33-.15-1.43.35-1.48.35-1.62c.24-1.19.15-3.26.79-4.29a1,1,0,0,1,.78-.35c.55,0,1,.2.84.69A4.06,4.06,0,0,1,5.52,23.26ZM19,5.82a1.33,1.33,0,0,0-.09.44.46.46,0,0,0,.19.34c.79-.09,4.24-.83,5-.93s3.45-.2,4-.35c.2,0,3-.79,3.16-.79s1.23.2,1.43.2.39-.15.44-.15a12.15,12.15,0,0,1,1.28,2.27c0,.94-2,1.13-2.51,1.13l-1,0a9.08,9.08,0,0,0-1,.39c-.15,0-.35-.2-.6-.39a1.83,1.83,0,0,0-1.08-.25c-.44,0-2.37.39-2.76.39h-.89c-.1.15-.05.2.5.35a5.2,5.2,0,0,1,1.52,2.22c0,1.33-.69,2-1.67,2.9A20.85,20.85,0,0,1,23.36,15c-1.53.64-1.67.74-1.67,1.14s.09.74.44.74,1.63-.5,1.92-.55c.94-.14,5-.29,5.82-.49a5.82,5.82,0,0,1,1.18-.2c.94,0,4.34,2,4.34,2.47,0,.24-.35,1.67-.35,2s.2.89.2,1c0,.94-.54,5.28-.54,5.77,0,.25.29,1.82.29,2.17a56.57,56.57,0,0,1-.79,10.3,10,10,0,0,1-1,2.22,3.65,3.65,0,0,1-.89.64,14.63,14.63,0,0,1-2.51-.79c-.4-.69-.49-.79-1.68-1.48a3.43,3.43,0,0,1-1.08-1.82c0-.15.1-.4.34-.4S28.78,38,29,38s2.22-.05,2.51-1.48c.15-.59.3-4.39.3-5.27,0-1.14.05-5.92.05-6.9,0-1.28-.05-3.75-.05-4.63a2.33,2.33,0,0,0-1.73-1.48c-.44,0-2.51-.3-2.9-.3-.69,0-4.05.49-4.79.49s-.88-.14-2-.88c-.05-.05-.1-.05-.19-.05-.25,0-.25.1-.35.29-.05,0-.2.05-.2.1a3.17,3.17,0,0,1,0,.69c.94.3,1.88,1,1.88,1.83,0,.09-.4,1.57-.4,1.92,0,1.43.25,1.92,2,1.92a18.18,18.18,0,0,0,4.05-.49,3,3,0,0,0,.93-1.09c.1-.15,0-1,.2-1s.74.05.84.2,1,3.05,1,3.2-1,1-1.08,1.23a6.66,6.66,0,0,1-1.43.2c-1.23,0-5.67-.3-6.75-1-.69-.44-2.07-1.33-2.22-1.82a16.51,16.51,0,0,1-.4-2.37,2.43,2.43,0,0,1,.1-.59,2.61,2.61,0,0,0,.25-.54c0-.49,0-1.09-.35-1.09-.09,0-.93-.64-1-.64s-1.63.45-2,.45c-.84.05-.89.05-.89.79,0,.24.64,1.28.64,1.52a15.2,15.2,0,0,1-1,1.93,9,9,0,0,1-2.67,3.45c-2.07,1.77-2.76,2.36-4.92,2.36-.2,0-.2-.2-.2-.64,0-.24,2-1.67,2.12-2a16.34,16.34,0,0,1,1.77-2.22,3.14,3.14,0,0,0,.74-1.23,4.25,4.25,0,0,1,.59-.74c.25,0,.69-1.63.69-1.77S10.6,20,10.35,20a.56.56,0,0,0-.39.1c0,.1.14.15.14.2s-.83.14-1,.14c-.64,0-2.22-.78-2.22-1.28,0-1,.84-1,2.07-1.08.3,0,4.73-.69,5.17-.79a22.57,22.57,0,0,1,2.32-.54c.1,0,.49.1.59.1s.15-.25.2-.25a1.77,1.77,0,0,0,.3.05l0-.1c.7.15,1.38-.59,2-1.18.1-.1.88-.15,1-.25.25-.3,1-1.77,1.23-2s.25-.3.15-.49a4,4,0,0,0,1.09-2,14.65,14.65,0,0,1,.05-1.53c.09-.15.29-.49.39-.69a2,2,0,0,0-.59-.05c-.69,0-3.6.34-4.19.34H16.07c-.3,0-1.73-.34-2-.34s-.5.05-1.63.69a35.89,35.89,0,0,1-3.8.59,11.45,11.45,0,0,0-2.26.15c-.35.1-1.19.44-1.53.54-.1,0-1.68-.25-1.77-.25s-.1-.19-.2-.34A2.15,2.15,0,0,1,1.72,8c0-.34.55-.59.84-.78C3,7.2,4.63,7.05,5,7.05s2,0,2.22,0,3.3-.35,3.49-.35c4.44,0,5.67-.19,5.67-2.36a1.85,1.85,0,0,0-.44-1.28c-.69-.84-.79-.94-.79-1.29,0-1.33,0-1.77.79-1.77a26.28,26.28,0,0,1,3.6,1,1.64,1.64,0,0,1,.64,1.13,10.53,10.53,0,0,1-1,3.65ZM10,10.5c.49,0,.54.1.93.89.1.29.2.44,1.23,1a2.29,2.29,0,0,1,1.58,2.42c0,.24.35,1.18.35,1.38,0,.59-1,.64-1.43.64-1.33,0-2.91-2.52-3.16-2.91A4.69,4.69,0,0,1,9,11.73C9,10.5,9.22,10.5,10,10.5Zm.39,20.6c.05,0,.05-.2.05-.35,0-.54,0-1.13.59-1.13.94,0,1.87,1.63,1.87,2,0,1.92,0,3.3.4,3.3.2,0,6.85-.54,7.44-1.08s.84-3.8.84-4.09a1.35,1.35,0,0,0-1-.59c-.2,0-2.26.15-2.76.24a29.7,29.7,0,0,1-3,.74c-.45,0-1-1-1-1.28s.2-.29,1.78-.64a48.62,48.62,0,0,1,6-1s2.41.64,2.71.79c.64.29.89.68.89.93s-.55,1.48-.59,1.78C23.56,35,23.21,36.52,22,36.52c-.15,0-.69-.34-.79-.34a6.11,6.11,0,0,0-1.48-.2c-.78,0-4.09.54-4.78.54a5.8,5.8,0,0,1-.83-.34c-.15.14-.35.39-.45.49a1.53,1.53,0,0,1-.44.15c-1.09,0-1.18,0-1.28,0-1.33-.94-1.63-3.16-1.88-5.47C10.05,31.15,10.15,31.15,10.35,31.1Z"/><path d="M2.17,72.55a1.26,1.26,0,0,0,.15.59s.24.1.29.1.45,2.32.59,2.76.69,3.35.89,4,.79,3,.89,3.45c.24,0,.24,0,.34.78,0,.35.1.94.1,1.14,0,.54-.25.79-.79.79a1.48,1.48,0,0,1-1.67-1A3.41,3.41,0,0,0,2,84.33a12.62,12.62,0,0,1-.44-1.72C1.53,82.31.89,81.28.84,81,.64,79.8.2,76.89,0,75.36a2.54,2.54,0,0,1,.15-.84,6.79,6.79,0,0,0,.39-.93,5.37,5.37,0,0,1-.49-.94c0-.29.2-.69.54-.69a3.47,3.47,0,0,1,1.13.2S2.17,72.46,2.17,72.55Zm8.52.89a.77.77,0,0,0-.09-.2s-.55.25-.64.25-.84-.15-.94-.15-.49.25-1,.45a2.68,2.68,0,0,1-.83.14c-.1,0-.55-.1-.55-.1s-.74.3-.83.3c-.74,0-1.53-.74-1.53-1.13,0,0,0-.1.44-.45,0,0,0-.24.1-.29.3-.15,1.77-.54,2.07-.69s2.86-.49,3.35-.59,3-.69,3.21-.69,3.05.29,3.05.29a1.75,1.75,0,0,1,1,1.38.3.3,0,0,1-.05.2c-.64.79-.74.89-.74,1.53a11.09,11.09,0,0,1-.45,3.79c-.09.49-.34,2.71-.44,3.16a19.73,19.73,0,0,1-.49,2.46c-.05.1-.54.3-.64.4s-.2.29-.25.34c-.3,0-1.08-.2-1.33-.2a8,8,0,0,0-2.42.25,5.17,5.17,0,0,1-1.57.25c-.2,0-.59.19-1,.29-1-.34-2.12-1-2.12-2,0-.54.64-.69,1.24-.69s3.79,0,4.63-.49c0,0,0,0,.2-.3s.54-.2.59-.29a39.87,39.87,0,0,0,.93-6.76,1,1,0,0,0-.29-.79c-1.28.15-1.88.15-2.57.2Zm.25-13.9c.1.25.1,1.58.25,1.78s.29.39,1.57.39c.35,0,1.73-.44,2-.44a24.39,24.39,0,0,0,3.1-.15c.35,0,2.17-.3,2.32-.3l2,0c.89,0,1.13-1.08,1.18-1.33.2-.89.84-4.93.84-5.57s-.64-.49-1.13-.49c-1.09,0-5.43.64-6.26.79a20.38,20.38,0,0,1-2.22.79c-.1,0-2-.79-2-1.28,0-.94.49-1,2.9-1.43.69-.1,3.9-.69,4.54-.79.94-.15,5.42-.4,5.47-.4a19.67,19.67,0,0,1,2.32.3,1,1,0,0,1,.83,1.13,14.57,14.57,0,0,1-.44,1.58c-.15.64-.84,3.79-.94,4.39-.09.34-.64,1.82-.69,2.12-.64,2.76-2.16,3.2-2.66,3.2a.8.8,0,0,1-.49-.25c-.59-.79-.64-.88-1.08-.88-.65,0-3.6.49-4.19.49a1.54,1.54,0,0,0-.5-.05c-.24.05-1.33.29-1.52.29-3.31,0-3.65,0-4.54.84-.39.35-.49.45-.84.45-1.18,0-1.48-.69-1.87-1.63-.15-.35-.94-2-1-2.17a19.09,19.09,0,0,1-.54-4.63c0-2.27.1-3.45,1-3.45A1.41,1.41,0,0,1,9.71,54a19,19,0,0,0,.69,2.66c0,.25.1.84.1,1.24,0,.59,0,1,.24,1C10.79,59.05,10.79,59.1,10.94,59.54ZM34.55,82.61a11.42,11.42,0,0,1-1.09,1.13s-.88.4-.93.4a10.83,10.83,0,0,1-1.82-.69,2.71,2.71,0,0,0-1-.2c-.35,0-2,.29-2.07.29s-.4.15-.44.15a16.5,16.5,0,0,0-2.27.1,14.18,14.18,0,0,0-1.38.49c-1.38,0-2.42-4.48-2.42-4.78s.05-1.57,0-1.82S21,76.59,21,76.45s.29-.4.29-.45c0-.24-.2-1.33-.2-1.52a2.64,2.64,0,0,1,.15-1c0-.1.25-.44.25-.49s-.54-1.33-.54-1.58.05-.3.24-.3c1.63,0,2.22.35,2.22,1.48,0,.79.59,4.19.59,4.88a2.32,2.32,0,0,1-.15.45c0,.09.25.74.25.83.25,1.78.4,2.62,1.09,2.62s3.49-.4,4.09-.4c.88,0,2.16-.2,2.21-.79a13.61,13.61,0,0,1,.64-1.33A37.93,37.93,0,0,0,32.92,75a8.44,8.44,0,0,0,.5-2.71c0-.69-.74-.89-1-.89s-1.63.3-1.82.34-4.68.5-5.08.5-.74-.25-.74-.64a1.43,1.43,0,0,1,.54-1.24c.2-.09,5.18-1,5.23-1,.29,0,1.28,0,1.57,0s1.48-.3,1.73-.3a14.82,14.82,0,0,1,2.22.74,1.86,1.86,0,0,1,1.28,1.83,1.19,1.19,0,0,1-.1.44s-.2.25-.2.3a5,5,0,0,1-.19.83c-.2.1-.25.1-.25.25s0,.39,0,.44l.1.2c0,.05-.25.15-.25.2s-.29,1.18-.29,1.38a12.28,12.28,0,0,1-1,3.89,8.29,8.29,0,0,0-.69,2.91C34.45,82.51,34.55,82.61,34.55,82.61Z"/><path d="M1.48,107.3a7.58,7.58,0,0,0,2.61-1.92c0-.1.49-.3.54-.35,1-1.13,1.09-1.23,1.58-1.52a4.74,4.74,0,0,0,1.13-1s.3-.44.35-.49.54-.2.64-.25.59-.64.69-.74.54-.34.59-.39l.69-.69c1.33-.4,1.48-.4,1.82-.74,1.09-.94,1.43-.94,1.73-.94,2.76,0,3.2.35,4.53,1.38a11.94,11.94,0,0,1,1.78,1.23c.19.3,1.72.84,2,1s3.3,2.86,3.35,3c.2.49.25.54.64.69a7.83,7.83,0,0,1,1.13.93c1.09.74,3.16,2.12,3.26,2.22a32.06,32.06,0,0,1,4.73,6.16c.15.25.94,1.33,1.08,1.58a1.65,1.65,0,0,1,.2.79c0,.59-.05,2.12-.84,2.12-.19,0-1.77-.5-2-.5s-.29.1-.44.1a2.38,2.38,0,0,1-.15-.74.73.73,0,0,1,.1-.39c.2-.2.29-.35.29-.45,0-.44-1.87-2.21-2.16-2.46s-.94-1.13-1.34-1.48c-1.18-1-2.31-2-3.4-3l-.34,0-.39-.45c-.05-.05,0-.54-.05-.59-1.14-1-3.41-3.1-4.39-4.19a35.52,35.52,0,0,0-4.78-4,3,3,0,0,0-1.14-.3c-.29,0-1.62.25-1.87.25s-1.43-.1-1.67,0c-.69.15-.94.79-1.14,1.23-.05.25-.93,1.09-1,1.29s-.45,1.47-.69,1.57a4.51,4.51,0,0,0-.5.45,22.14,22.14,0,0,0-2.07,1.42A5.22,5.22,0,0,1,5,109c-1.09.44-1.53.69-1.53,1.18-.2,0-.79.49-.94.49-.93,0-2.36-.24-2.36-1.77a4.33,4.33,0,0,1,.1-.74c-.15-.2-.15-.25-.15-.35,0-.29.19-.64.39-.64Z"/><path d="M13.65,150.08c-.15.15-1.18,2.22-1.48,2.57-.14.19-2.41,2.76-2.76,2.76-.05.2-.88.64-1,.69-.3.15-1.63,1-1.78,1.08a7.26,7.26,0,0,1-2,.3,3.46,3.46,0,0,1-.93-.1,12.65,12.65,0,0,1-1.33-1.63,15.87,15.87,0,0,1-.89-3.35c0-.15.19-1,.19-1.08,0-3.11,0-3.5.74-5A27.6,27.6,0,0,1,4,142.4c1-.84,1.14-.94,1.18-1.19.15-.88.15-1,.35-1A16.88,16.88,0,0,1,6.6,138.7c.3-.3,1.63-1.73,2-2,.54-.35,2.9-2.12,3.45-2.42a5.85,5.85,0,0,1,2.07-.78c.88-.05,1.52-.05,1.57-.5,0-.15.69-.15.79-.2s1.53-1,1.63-1,.2,0,.74.34a2.41,2.41,0,0,0,1.18.25c.2,0,1.28,0,2.32.1.19,0,1,.39,1.18.39s.84-.1,1-.1a28.28,28.28,0,0,1,3.2,1c.93.35,1.08.54,2,1.68.1.14.94.59,1,.69,2.47,2.31,2.71,3.2,3.26,5.07.1.35.69,1.73.74,2a19.26,19.26,0,0,1,.19,2.57,7.4,7.4,0,0,1-1,4.38c-.2.45-.54,2.47-.69,2.86-1.83,4.09-7.1,7.35-9.42,7.35-.05,0-.19-.15-.24-.15s-.54.79-.69.79-1,.69-1.19.74a4,4,0,0,1-.69.09c-.78,0-1-.24-1-.93,0-.94,0-1.28,2.17-1.58a1.27,1.27,0,0,0,1.08-.49A9.53,9.53,0,0,1,25,158c.05-.1.19-.59.24-.69,1.09-.3,2.47-2,3.21-3,.05-.29.05-.29.19-.29.25-.45.35-.59.94-1.58a18.73,18.73,0,0,0,1.33-3.6c0-.29.2-1.43.2-1.67,0-4.44,0-4.54-.69-5.38a12.06,12.06,0,0,1-.2-1.23,31.23,31.23,0,0,0-2.31-3.1,1.07,1.07,0,0,1-.2-.35c-.05-.19-1.19-.49-1.38-.59s-1.09-.89-1.28-1a14.25,14.25,0,0,1-1.38-.5,7.33,7.33,0,0,0-3.06-.84c-1.18,0-1.28,1.24-1.28,1.93-.05.34-.4,2.51-1,2.61a18.91,18.91,0,0,0-.24,2.12,15.87,15.87,0,0,1-2,4.78,27.15,27.15,0,0,1-1.63,3.5Zm-2.86-.24c.05-.1.2-.54.25-.54.25,0,.3-.05.39-.5a4.81,4.81,0,0,1,1.14-1.52c0-.15.29-.79.34-.89s.45-.69.5-.79a6.67,6.67,0,0,1,.09-.94,11.89,11.89,0,0,0,1.38-4.24,5.27,5.27,0,0,1,.4-.49c.05-.1.74-3.25.74-3.55,0-.59-.35-1.23-.89-1.23a4.54,4.54,0,0,0-2,.64c-.15.2-.94,1.14-1,1.23s-.39.1-1.47,1.24c-.05.05-.6.14-.6.24s-.29.25-.29.35a1.1,1.1,0,0,1-.4.74,3.33,3.33,0,0,0-.74.83c0,.05-.29.05-.29.1a.6.6,0,0,1-.1.4,8.77,8.77,0,0,0-.89,1c-.09.15-.19.89-.29,1a5.93,5.93,0,0,0-1,2s-.1.15-.19.2l-.2,0,.1.2c0,.1-.3.45-.35.54A24.69,24.69,0,0,0,5,149.2c-.05.2-.35,1.67-.35,1.77,0,.84,0,3.3,1,3.3a2.47,2.47,0,0,0,2-1.13c.1,0,.44-.1.54-.25l0-.09A19.31,19.31,0,0,0,10.79,149.84Z"/><path d="M7.69,195c.15.1.49.25.54.29-.05.4,0,.45.49.64a9.47,9.47,0,0,0,1.63,1c.25.05,1.33.59,1.58.64s1,.1,1.13.15.69.44.84.49,1.77.25,2.12.35a5.43,5.43,0,0,0,.79.19c.1,0,.59-.39.74-.39s1,.3,1.18.3,3.89-.4,3.94-.45a7.8,7.8,0,0,1,1-.24c.05,0,.74.19.79.19a4.11,4.11,0,0,0,1.57-.64,11.6,11.6,0,0,1,2.07-1.23c.1,0,.79.79,1,.79,2.17.49,2.36.54,2.36,1.72a1.6,1.6,0,0,1-.83,1.53c-.3.1-2,.4-2.27.44-.49.15-3.11.7-3.6.84h-.1a5.32,5.32,0,0,0-.89-.05,3.9,3.9,0,0,1-1.18.25c-.39,0-2.27-.34-2.46-.34s-1,.34-1.19.34-1.23-.2-1.42-.2l-2.07,0a17.62,17.62,0,0,1-4.83-1,34.59,34.59,0,0,1-3.45-1.68,3.54,3.54,0,0,1-1.33-2.27c0-.24-1-.88-1.09-1.08a13.55,13.55,0,0,1-.59-2.86c0-.15.64-3.4.74-3.55a3.88,3.88,0,0,0,.74-.84,1.33,1.33,0,0,1,1.33-1,.84.84,0,0,1,.74.79,4.45,4.45,0,0,1-.35,1.33,10.47,10.47,0,0,0-.1,1.67,8.22,8.22,0,0,0-.34.84c0,.3.15,1.78.1,2A9.47,9.47,0,0,0,7.69,195Zm9.81-20.16a9.72,9.72,0,0,0-1.29.35H12.76c-.88,0-3.49,0-3.49-2.17a.83.83,0,0,1,.29-.64c0-.1.1-.79.25-.79a5,5,0,0,1,2.46.54,11.59,11.59,0,0,0,3.7.49c.89-.05,3.65-.24,4-.24s1.48.29,1.73.29a5.17,5.17,0,0,0,1-.54,3,3,0,0,1,1.38-.44,18.65,18.65,0,0,1,1.78.64c.14.1.88.44.88,1A2.07,2.07,0,0,1,25.68,175c-.3.1-1.88.54-2.17.64s-1.68,1-2,1.13-1.78.59-1.78,1v.15c0,.49-1.77.34-2,.49a6.32,6.32,0,0,0-.59.54,4.89,4.89,0,0,1-.84.2,2.82,2.82,0,0,1-.69,0,1.92,1.92,0,0,0,.1-.79c0-.3,1.53-1.58,1.83-1.92a1.2,1.2,0,0,1,.93-.59c0-.25.05-.3.74-.45.25-.05.4-.44.4-.64s-.69-.34-.94-.39Z"/><path d="M11,217.62a2.12,2.12,0,0,0-.69-1.68c-.94-1-.94-1-.94-1.77s.3-2,.6-2a2.19,2.19,0,0,1,1.57.35c.4.25.45.3.74.34a2.85,2.85,0,0,1,.74.2,5.17,5.17,0,0,1,.3.94,6.3,6.3,0,0,1,.69,1,17.12,17.12,0,0,1-.45,3.45,6.48,6.48,0,0,0-.24.94c0,.2.34.34.64.34a8.33,8.33,0,0,0,1.48-1.13c.14-.15.54-1.13.69-1.18a.9.9,0,0,1,.39-.05c.15,0,.74.54.94.54.59.1,1.72.25,1.72,1.58,0,.49-1,1.13-1.77,1.38-.45.15-2.47.93-2.86,1.08-.15,0-.74.45-.84.45s-.49-.2-.59-.2c-1.08,0-1.18.74-1.28,1.58a2.06,2.06,0,0,0-.25.49c0,.15.15.89.15,1s-.59,1.43-.59,1.68a8.85,8.85,0,0,1-.79,4c-.1.25-.39,1.48-.44,1.73s-.64,1.82-.69,2.12a3.74,3.74,0,0,1-.74,1.67,4.75,4.75,0,0,0-.1,1.18,6.9,6.9,0,0,0-.3,1.19c.2.1.69.34.69.49s-.49.3-.54.4c-.2.59-1,3.35-1.23,3.79a9.29,9.29,0,0,0-.89,2.81,1,1,0,0,1-.89.69,3.07,3.07,0,0,1-2.46-3c0-.19.39-1.62.44-1.87.15,0,.25,0,.25-.15s.1-.2.64-1a11,11,0,0,0,.39-1.28,6.51,6.51,0,0,0,.4-.74c0-.69,0-.79.25-.89.69-.25.88-1.53.88-1.77.3-1.88.4-2,1.09-2.67.05-.05.44-1.87.54-2.21a48.93,48.93,0,0,0,1.67-6c0-.54-1-.93-1.33-.93a14.48,14.48,0,0,0-1.57.34,13.3,13.3,0,0,1-2.32.3c-3,0-3.4-.45-3.4-1.63a3.07,3.07,0,0,1,.59-2,6.82,6.82,0,0,1,.94-.3s.88.69,1,.79a3.45,3.45,0,0,0,1.14.1,14.86,14.86,0,0,0,4.53-.84c1.38-.54,1.68-1.33,1.68-2.81C10.89,218.35,11,217.71,11,217.62Zm5.92,19.76c.14-.3.24-.44.49-.44.79,0,.89.24,1.33,2.06a4.64,4.64,0,0,0,2.66,3.11,6.25,6.25,0,0,0,2.17.49c.69.1,2,.3,2.17.3a12.9,12.9,0,0,0,1.87-.15,7.48,7.48,0,0,0,.94-.39c.19-.05,1.28-.2,1.47-.25.45-.1,2.17-.89,2.57-.89a3,3,0,0,1,2.66,2.57c0,.69-1.18,1.42-3.6,1.82-.2,0-1.08.39-1.38.39s-1-.69-1.23-.69a12.43,12.43,0,0,0-2.12.45,2,2,0,0,1-.64.15c-.2,0-1.09-.25-1.28-.25a9.5,9.5,0,0,1-6.61-2.27,2.85,2.85,0,0,1-1.18-2,4.81,4.81,0,0,0-.25-.54s0-.35-.09-.4-.3,0-.35-.1A11.54,11.54,0,0,1,16.91,237.38Zm5.81-15.82c1.18-.4,3.4-1.14,4.49-1.53a3.73,3.73,0,0,1,1.47-.39c.5,0,.65.09,1.24.64.09.1,1.62.54,1.82.74a1.85,1.85,0,0,1,.74,1.38c0,.14,0,.24-.25.24,0,0-1.72,1.43-1.87,1.58s-.74.79-1,1a4.07,4.07,0,0,1-.69.35c-.19.1-.73.84-.93.94a4.8,4.8,0,0,1-.84.09c-.35,0-1.08,0-1.08-.39s.54-.79.78-1.08a3.33,3.33,0,0,0,.89-1.83c0-.34-.44-.64-.94-.64a19.57,19.57,0,0,0-2.8.79c-.05.1-.15.59-.25.64a27,27,0,0,1-2.76.84,1.35,1.35,0,0,1-1.28-1,2.15,2.15,0,0,1,1.72-1.67c.4,0,.59,0,.54-.3C22.08,222,22.18,221.9,22.72,221.56Zm4.09-9.27c-.34-.24-.93-.64-.93-1.08s.24-.64.34-.64c2.51,0,6,2.26,6,4.48,0,.49,0,1.63-1.13,1.63-.49,0-1.63-1-1.87-1.28A6.86,6.86,0,0,0,26.81,212.29Zm5-3.79a5.07,5.07,0,0,1,2.76,1c.2.2,1.33.69,1.53.84a2.8,2.8,0,0,1,1.28,2.32c0,1-.4,1.67-1.53,1.67s-1.28-.44-1.33-1.13a13.43,13.43,0,0,0-2-2.27c-.2-.24-1.38-1-1.38-1.33S31.49,208.5,31.84,208.5Z"/><path d="M.74,268.73c.15,0,.64,0,.74,0a5.17,5.17,0,0,0,2.46-1.08c.69-.79,1-1.24,1.78-1.24.19,0,2.71.5,2.71,1.88s-1.33,3.49-1.88,3.49a.62.62,0,0,1-.54-.69c0-.19.25-1.08.25-1.23s-.35-.39-.49-.39-1.38,1.23-1.53,1.33a2.29,2.29,0,0,1-1.68.59,2,2,0,0,1-2.17-2.17C.39,269.12.39,268.73.74,268.73Zm11.78-7.44,0,.24c0,.6-.15,3.36-.15,3.65a13.35,13.35,0,0,0-.39,1.33c0,.25.24,1.28.24,1.48a12,12,0,0,1-.34,1.43,11.88,11.88,0,0,0-.1,2.12,1.82,1.82,0,0,0,.84.2c.39,0,.39-.05.93-.74.1-.1.64-.45.74-.54l1.43-1.29a7.88,7.88,0,0,1,.74-.49c1-1,1.09-1.13,1.78-1.18.39,0,.44-.05.93-.59.15-.15,2.57-1.24,3-1.48a20.81,20.81,0,0,1,5-1,29.81,29.81,0,0,1,3.45.64,7.32,7.32,0,0,1,4.33,3.75A8.16,8.16,0,0,1,36.37,274a17.86,17.86,0,0,1-1,5.82c-.05.1-.2.05-.2.1a.93.93,0,0,1,0,.39c-.29.54-1.43,3.06-1.72,3.55-.1.15-1.58,2.07-1.63,2.17s-.94.69-1.08.89a20,20,0,0,1-2,1.62c-.09.05-.69.15-.78.2s-1,.59-1.29.79a1.2,1.2,0,0,1-1.18,1,6,6,0,0,1-1-.44c-1-.2-1.33-.29-1.33-1.08,0-.45.19-.5.59-.5a5.6,5.6,0,0,0,3-1A7.53,7.53,0,0,0,28,286c0-.1.25-.15.45-.2a1.47,1.47,0,0,0,.54-.54c.1-.05.15-.44.2-.54A14.17,14.17,0,0,0,31.35,281a2.78,2.78,0,0,0,.24-.34c.1-.4.74-2.22.74-2.32s-.1-.49,0-.49a6.54,6.54,0,0,0,.54-1.83c0-3.15,0-3.5-.49-4.63a12.92,12.92,0,0,0-.44-1.28c-1.63-2.61-6.16-2.71-6.85-2.71S20.7,268,19.86,269c-.15.14-1.33.64-1.38.69a6.62,6.62,0,0,1-2.41,1.57,6.28,6.28,0,0,1-.59.59,5.45,5.45,0,0,1-.79.35c-.35.29-.69,1-1,1.28-1.38,1.33-2.17,2-2.17,3.2,0,.4.55,2.07.55,2.42a7.3,7.3,0,0,1-.3,1.58,3.15,3.15,0,0,1,.44,1.52c0,.4-.19,2.12-.19,2.47,0,1,.1,5.52.1,6.46a1.2,1.2,0,0,1-1.24,1,3.88,3.88,0,0,1-1.87-1A6.79,6.79,0,0,0,8,289c-.54-.79-.59-.89-.59-1.19,0-.05.2-.34.2-.44s0-.3.3-.3c.14,0,.64.25.78.25a.66.66,0,0,0,.64-.69v-4.09c0-.3.3-1.38.3-1.63s-.2-1-.2-1.23.2-.79.2-1-.39-.44-.89-.44-1,.15-1.52,1.18a1.86,1.86,0,0,0-.1.6c-.5,0-1,1.08-1.23,1.67-.15.3-.25.4-1.19,1.38-.49.59-1,1.78-1.62,2.12a5.92,5.92,0,0,1-1.34.39c-.54,0-1.08-.78-1.08-1.42,0-1.43,0-2.86.59-2.86a3.85,3.85,0,0,0,.64.15c.3,0,.35,0,2.91-2.86.25-.25,1.38-1.38,1.58-1.63.89-1.13,1-1.28,1.62-1.38a9.68,9.68,0,0,0,1.58-3.35c0-.25-.25-1.38-.25-1.48s.3-1.72.3-2a1.81,1.81,0,0,0-.2-.69,3.19,3.19,0,0,1,.1-.35c0-.93,0-1-.15-1.13s-.09-.2,0-.3-.09-.24-.09-.39v-1.48c0-.39.14-2.36.14-2.51s-.19-1-.19-1.19.19-.69.19-.83a1.27,1.27,0,0,0-.69-1.19c-.44-.14-.88-.34-.88-1.43,0-.49.24-.93.49-.93.49,0,.49,0,1.28.44.3.2,2.07.49,2.37.74a3,3,0,0,1,.74,3.7Z"/><path d="M26.76,328.52a3.63,3.63,0,0,0-.64,1.08,23.47,23.47,0,0,1-1.62,3.06c-.45.19-.94,1.13-1.14,1.57-.15,0-.2,0-.24.3-.1.54-1.39,1.68-1.78,2-.15.1-.49.89-.64.94a7.1,7.1,0,0,0-1,.74c-1.53,1.18-2.42,1.87-3.55,1.87a.9.9,0,0,1-.94-.94c0-.54,1-1.28,1.48-1.43.2-.05,1.13-.34,1.13-.34a8,8,0,0,1,2-2.32c.25-.24,1.58-2.81,2-3.25s.55-.54.55-1.18c0-.45,0-.59.14-.74s.4-.2.4-.25-.15-.39-.15-.49.64-1.09.69-1.33c.15-.74.89-3.95,1-4.64.1-.24.64-4.48.64-4.73a45.57,45.57,0,0,0-.59-7.64c-.15-.88-1.63-3-2.81-3-1.83,0-3.21,1.82-3.45,2.22-.1.09-.1.09-.3.14s-1.28,2.32-1.33,2.42-.69.49-.79.59a15.66,15.66,0,0,0-2.12,3.94c-.14.3-1.08,1.38-1.08,1.63a5.33,5.33,0,0,1,.05.84c-.05.15-.3.79-.35.93a1.46,1.46,0,0,1-.14.6,10,10,0,0,0-.55,1.08c0,.1.15.84.15.94,0,.44-.44,2.31-.44,2.71s-.69.44-.84.44c0,.15-.05.2-.15.1s-1.48-.35-1.72-.44a7.91,7.91,0,0,0-.55-.74,11.55,11.55,0,0,1-.88-4.88c0-.05.24-1.33.24-1.58s-.14-1-.14-1.18c0-.45.83-7.15,1.82-9.57a13.15,13.15,0,0,0,.54-2.66c0-.64.35-2.36.64-2.46s.3,0,.3-.35c0-.59,0-1.08.34-1.18.1,0,.2-.25.25-.29a2.45,2.45,0,0,1,.64-.1c.35,0,.94.14.94.49,0,1.13,0,1.23.19,1.63a5.86,5.86,0,0,1,.3,1.47c0,1.43-1,3.85-1.48,4.93a2.45,2.45,0,0,0,0,.84,15,15,0,0,1-1.18,2.37c-.4,1.62-.89,3.94-1.09,4.88,0,.14.1.69.1.83s-.05.25-.05.4a3,3,0,0,0,.35.69c.05.2.05,1.08.2,1.13a.16.16,0,0,0,.14.05c.25,0,.3-.2.35-.59,0-.2,2.46-5.42,2.51-5.47a4.05,4.05,0,0,0,.89-1.68,22,22,0,0,0,1.48-2.41c.15-.4,1.38-2.66,1.92-2.81.1,0,.1-.2.15-.3.79-.59.89-.69,1.08-1.13a10.28,10.28,0,0,1,2.76-1.33h.49c1.14,0,2.67.44,2.86.89.05.09.59.19.64.29a1,1,0,0,0,.45.64A8.39,8.39,0,0,1,27,309a1.84,1.84,0,0,0,.2.79c.09.2.34.59.39.69a4.08,4.08,0,0,0-.2.49c0,.2.15.25.35.35.1.44.49,3.64.49,3.89s-.15,1.82-.15,2.17c0,.54.15,3,.15,3.55-.15-.05-.29-.05-.2.19.2.4-.44,3.85-.44,4.19,0,.15-.3,1.43-.35,1.68,0,.1-.54.94-.64,1.13Z"/></g></g></svg>