<svg xmlns="http://www.w3.org/2000/svg" viewBox="0 0 112.2 244.19"><g id="Layer_2" data-name="Layer 2"><g id="design"><path d="M71.57,29.74c0,.56-.76,3-.76,3.46,0,.32.19,1.51.19,1.77,0,.63-.57,3.53-.57,4.15,0,.82-.06,4.48-.06,5.23,0,.19-.19.45-.19.63s.19.26.38.32a1.07,1.07,0,0,0-.25.44,1.59,1.59,0,0,0,.56,1c.13.06.44.38.44.57,0,1.13-1.45,4.85-2.39,4.85-2.14,0-2.14-1.77-2.14-4.6,0,0,.12-1,.12-1.14s-.19-.19-.37-.19a.47.47,0,0,1-.13-.37c0-.57.5-3.15.5-3.66,0-.25-.19-1.45-.19-1.7,0-.69.45-4.35.45-4.47,0-.32-.19-1.7-.19-1.83,0-.31.44-1.89.44-2.08.31-1.51.19-4.16,1-5.48a1.36,1.36,0,0,1,1-.44c.7,0,1.26.25,1.07.88A5.14,5.14,0,0,1,71.57,29.74ZM88.83,7.43A2,2,0,0,0,88.7,8a.64.64,0,0,0,.25.44c1-.12,5.42-1.07,6.37-1.19s4.41-.26,5.16-.45c.26,0,3.78-1,4-1s1.57.25,1.82.25a5.4,5.4,0,0,0,.57-.19,15.44,15.44,0,0,1,1.64,2.9c0,1.19-2.58,1.45-3.21,1.45l-1.26-.07a12.58,12.58,0,0,0-1.26.51c-.19,0-.45-.25-.76-.51a2.41,2.41,0,0,0-1.39-.31c-.56,0-3,.5-3.53.5H96c-.12.19-.06.25.63.44.25.07,2,2.08,2,2.84,0,1.7-.88,2.52-2.14,3.72-.19.18-1.89,1.76-2.08,1.82-2,.82-2.14,1-2.14,1.45s.13.95.57.95,2.08-.63,2.46-.7c1.19-.18,6.42-.37,7.43-.63A7.89,7.89,0,0,1,104.2,20c1.2,0,5.55,2.52,5.55,3.15,0,.32-.45,2.14-.45,2.52s.26,1.14.26,1.33c0,1.19-.7,6.74-.7,7.37,0,.31.38,2.33.38,2.77,0,6.49-.75,12.66-1,13.17s-.88,2.58-1.26,2.83a4.47,4.47,0,0,1-1.13.82,18.7,18.7,0,0,1-3.21-1c-.51-.88-.63-1-2.15-1.89A4.38,4.38,0,0,1,99.1,48.7a.47.47,0,0,1,.44-.5c.38,0,1.76.31,2.08.31s2.83-.06,3.21-1.89c.19-.75.38-5.6.38-6.74,0-1.45.06-7.56.06-8.82,0-1.64-.06-4.79-.06-5.92A3,3,0,0,0,103,23.25c-.56,0-3.21-.38-3.71-.38-.88,0-5.17.63-6.11.63s-1.14-.19-2.52-1.13c-.07-.07-.13-.07-.26-.07-.31,0-.31.13-.44.38-.06,0-.25.06-.25.13a4.3,4.3,0,0,1,0,.88c1.2.38,2.39,1.32,2.39,2.33,0,.13-.5,2-.5,2.46,0,1.82.32,2.45,2.52,2.45.69,0,4.66-.25,5.17-.63a3.66,3.66,0,0,0,1.19-1.38c.13-.19,0-1.32.26-1.32s.94.06,1.07.25,1.26,3.9,1.32,4.09c0,.38-1.32,1.33-1.39,1.58a8.88,8.88,0,0,1-1.82.25c-1.58,0-7.25-.38-8.63-1.26-.89-.57-2.65-1.7-2.84-2.33a21.12,21.12,0,0,1-.5-3,3.26,3.26,0,0,1,.12-.75,3.26,3.26,0,0,0,.32-.69c0-.63,0-1.39-.44-1.39-.13-.06-1.2-.82-1.33-.82s-2.08.57-2.52.57c-1.07.06-1.13.06-1.13,1,0,.31.82,1.63.82,2a19,19,0,0,1-1.26,2.46,11.5,11.5,0,0,1-3.4,4.41c-2.65,2.26-3.53,3-6.3,3-.26,0-.26-.25-.26-.82,0-.31,2.52-2.14,2.71-2.52a21.46,21.46,0,0,1,2.27-2.83,4.46,4.46,0,0,0,1-1.58,4.75,4.75,0,0,1,.75-.94c.32,0,.88-2.08.88-2.27s-2.08-.38-2.39-.38a.73.73,0,0,0-.5.13c.06.12.19.18.19.25s-1.08.19-1.26.19c-.82,0-2.84-1-2.84-1.64,0-1.32,1.07-1.32,2.65-1.39.37,0,6-.88,6.61-1a29.83,29.83,0,0,1,3-.69c.13,0,.63.13.76.13s.19-.32.25-.32a2.29,2.29,0,0,0,.38.06l.06-.12c.88.19,1.77-.76,2.52-1.51.13-.13,1.14-.19,1.26-.32.32-.38,1.32-2.27,1.58-2.58s.31-.38.19-.63a5.16,5.16,0,0,0,1.38-2.58c0-.19,0-1.89.06-2s.38-.63.51-.88a2.74,2.74,0,0,0-.76-.06c-.88,0-4.6.44-5.35.44H85.05c-.38,0-2.21-.44-2.58-.44s-.63.06-2.08.88a45.69,45.69,0,0,1-4.86.76,15.59,15.59,0,0,0-2.89.18c-.44.13-1.52.57-2,.7-.12,0-2.14-.32-2.26-.32s-.13-.25-.26-.44a2.72,2.72,0,0,1-1.45-2.2c0-.44.7-.76,1.08-1,.5,0,2.64-.19,3.08-.19s2.52.06,2.84,0,4.22-.44,4.47-.44c5.67,0,7.25-.25,7.25-3a2.35,2.35,0,0,0-.57-1.63c-.88-1.08-1-1.2-1-1.64,0-1.7,0-2.27,1-2.27a34.15,34.15,0,0,1,4.6,1.32,2.14,2.14,0,0,1,.82,1.45C90.28,4,90,4.85,89,7.43Zm-11.59,6c.63,0,.69.13,1.19,1.13.13.38.25.57,1.58,1.26,1.83,1,1.89,1.58,2,3.09,0,.32.45,1.51.45,1.77,0,.75-1.33.81-1.83.81-1.7,0-3.72-3.21-4-3.71A6,6,0,0,1,76,15C76,13.42,76.29,13.42,77.24,13.42Zm.5,26.33c.06,0,.06-.25.06-.44,0-.69,0-1.45.76-1.45,1.2,0,2.39,2.08,2.39,2.59,0,2.46,0,4.22.51,4.22.25,0,8.76-.69,9.51-1.39S92,38.43,92,38.05a1.72,1.72,0,0,0-1.26-.75c-.25,0-2.9.19-3.53.31a38.42,38.42,0,0,1-3.9,1c-.57,0-1.33-1.26-1.33-1.64s.26-.38,2.27-.82A65.31,65.31,0,0,1,92,34.78s3.09.82,3.46,1c.82.37,1.14.88,1.14,1.19s-.69,1.89-.76,2.27c-1.19,5.48-1.64,7.44-3.21,7.44-.19,0-.88-.45-1-.45A8,8,0,0,0,89.71,46c-1,0-5.23.7-6.11.7a7,7,0,0,1-1.07-.45c-.19.19-.44.51-.57.63a1.74,1.74,0,0,1-.57.19c-1.38,0-1.51,0-1.63-.06-1.71-1.2-2.08-4-2.4-7C77.36,39.82,77.49,39.82,77.74,39.75Z"/><path d="M67.28,91.48a1.61,1.61,0,0,0,.19.75c0,.07.32.13.38.13s.57,3,.75,3.53.89,4.28,1.14,5.1,1,3.78,1.13,4.41c.32,0,.32.06.44,1a13.27,13.27,0,0,1,.13,1.45c.06.69-.32,1-1,1a1.9,1.9,0,0,1-2.14-1.33,4,4,0,0,0-1.2-1,16.5,16.5,0,0,1-.56-2.21c-.07-.38-.89-1.7-1-2-.25-1.57-.82-5.29-1.07-7.24A3.19,3.19,0,0,1,64.7,94a10.18,10.18,0,0,0,.5-1.2,6.89,6.89,0,0,1-.63-1.2c0-.37.25-.88.69-.88a4.73,4.73,0,0,1,1.45.25C66.65,91,67.28,91.35,67.28,91.48Zm10.9,1.13a.94.94,0,0,0-.13-.25c-.06,0-.69.31-.81.31s-1.07-.18-1.2-.18-.63.31-1.26.56a3.14,3.14,0,0,1-1.07.19c-.13,0-.7-.12-.7-.12-.18,0-.94.37-1.07.37-.94,0-2-.94-2-1.45,0-.06.06-.12.57-.56.06,0,.06-.32.12-.38.38-.19,2.27-.69,2.65-.88s3.65-.63,4.28-.76,3.78-.88,4.1-.88,3.91.38,3.91.38a2.23,2.23,0,0,1,1.26,1.76.35.35,0,0,1-.07.25c-.82,1-.94,1.14-.94,2a14.35,14.35,0,0,1-.57,4.85c-.13.63-.44,3.46-.57,4A24.23,24.23,0,0,1,84.1,105c-.06.13-.69.38-.82.5s-.25.38-.31.45a16.81,16.81,0,0,0-1.7-.26,10.35,10.35,0,0,0-3.09.32,6.67,6.67,0,0,1-2,.31c-.26.07-.76.26-1.27.38-1.32-.44-2.7-1.26-2.7-2.52,0-.69.81-.88,1.57-.88s4.85-.06,5.92-.63c0-.06.07-.06.25-.38.07-.12.7-.25.76-.38a49.22,49.22,0,0,0,1.2-8.63,1.26,1.26,0,0,0-.38-1c-1.64.19-2.39.19-3.28.26Zm.32-17.77a22.2,22.2,0,0,0,.31,2.27c.13.19.38.51,2,.51.44,0,2.2-.57,2.58-.57a31.48,31.48,0,0,0,4-.19c.44-.06,2.77-.38,3-.38.44,0,2.14.07,2.52.07,1.13,0,1.45-1.39,1.51-1.71.26-1.13,1.07-6.3,1.07-7.11,0-.63-.81-.63-1.45-.63-1.38,0-6.93.81-8,1a24.6,24.6,0,0,1-2.83,1c-.13,0-2.52-1-2.52-1.64,0-1.19.63-1.32,3.72-1.82.88-.13,5-.89,5.79-1,1.2-.19,6.93-.51,7-.51a26.83,26.83,0,0,1,3,.38A1.3,1.3,0,0,1,101.18,66a19.14,19.14,0,0,1-.57,2c-.19.82-1.07,4.85-1.2,5.6-.12.45-.82,2.34-.88,2.71-.82,3.53-2.77,4.1-3.4,4.1a1,1,0,0,1-.63-.32c-.76-1-.82-1.13-1.39-1.13-.82,0-4.6.63-5.35.63a2,2,0,0,0-.63-.06c-.32.06-1.7.38-2,.38-4.22,0-4.66,0-5.79,1.07-.51.44-.63.56-1.07.56-1.51,0-1.89-.88-2.4-2.08-.19-.44-1.19-2.52-1.26-2.77A24.07,24.07,0,0,1,74,70.75c0-2.9.13-4.41,1.32-4.41a1.79,1.79,0,0,1,1.64,1.39,24.72,24.72,0,0,0,.88,3.4c0,.31.13,1.07.13,1.57,0,.76,0,1.26.31,1.33C78.31,74.21,78.31,74.28,78.5,74.84Zm30.18,29.49a15.53,15.53,0,0,1-1.39,1.45c-.06,0-1.14.5-1.2.5a13.22,13.22,0,0,1-2.33-.88,3.55,3.55,0,0,0-1.26-.25c-.44,0-2.58.38-2.65.38s-.5.19-.56.19a22.42,22.42,0,0,0-2.9.12,17.2,17.2,0,0,0-1.76.63c-1.77,0-3.09-5.73-3.09-6.11s.06-2,0-2.33-.25-1.39-.25-1.57.37-.51.37-.57c0-.32-.25-1.7-.25-2a3.42,3.42,0,0,1,.19-1.27c0-.12.32-.56.32-.63s-.7-1.7-.7-2,.07-.38.32-.38c2.08,0,2.83.44,2.83,1.89,0,1,.76,5.36.76,6.24a3.11,3.11,0,0,1-.19.57c0,.12.32.94.32,1.07.31,2.26.5,3.34,1.38,3.34s4.47-.51,5.23-.51c1.13-.06,2.77-.25,2.84-1a14.79,14.79,0,0,1,.81-1.7,48.81,48.81,0,0,0,1.08-4.91,11,11,0,0,0,.63-3.47c0-.88-1-1.13-1.33-1.13s-2.08.38-2.33.44-6,.63-6.49.63-.94-.32-.94-.82a1.76,1.76,0,0,1,.69-1.57c.25-.13,6.62-1.26,6.68-1.26.38,0,1.64.06,2,0s1.89-.38,2.21-.38a19.16,19.16,0,0,1,2.83.94,2.36,2.36,0,0,1,1.64,2.33,1.6,1.6,0,0,1-.12.57c0,.06-.26.32-.26.38a5.92,5.92,0,0,1-.25,1.07c-.25.13-.31.13-.31.31s-.07.51-.07.57l.13.25c0,.07-.31.19-.31.26,0,.25-.38,1.51-.38,1.76a15.73,15.73,0,0,1-1.26,5,10.37,10.37,0,0,0-.88,3.71C108.55,104.2,108.68,104.33,108.68,104.33Z"/><path d="M66.4,138.41A9.55,9.55,0,0,0,69.74,136c.06-.12.63-.37.69-.44,1.26-1.45,1.39-1.57,2-1.95a6.32,6.32,0,0,0,1.45-1.26c.06-.06.37-.57.44-.63s.69-.25.82-.32.75-.81.88-.94.69-.44.76-.5l.88-.89c1.7-.5,1.89-.5,2.33-.94,1.38-1.2,1.83-1.2,2.2-1.2,3.53,0,4.1.44,5.8,1.77a14.53,14.53,0,0,1,2.27,1.57c.25.38,2.2,1.07,2.52,1.32s4.22,3.66,4.28,3.85c.25.63.32.69.82.88a11.8,11.8,0,0,1,1.45,1.2c1.39.94,4,2.71,4.16,2.83a40.65,40.65,0,0,1,6,7.88c.19.31,1.19,1.7,1.38,2a2.17,2.17,0,0,1,.25,1c0,.76-.06,2.71-1.07,2.71-.25,0-2.26-.63-2.52-.63s-.37.13-.56.13a2.92,2.92,0,0,1-.19-.95,1,1,0,0,1,.12-.5c.26-.25.38-.44.38-.57,0-.57-2.39-2.83-2.77-3.15-.5-.5-1.2-1.45-1.7-1.89-1.51-1.26-3-2.52-4.35-3.84l-.44-.07-.5-.56c-.07-.07,0-.7-.07-.76-1.45-1.32-4.34-4-5.6-5.35a44.48,44.48,0,0,0-6.12-5.17,3.75,3.75,0,0,0-1.44-.38c-.38,0-2.08.32-2.4.32s-1.83-.13-2.14-.07c-.88.19-1.2,1-1.45,1.58-.06.31-1.2,1.38-1.32,1.64s-.57,1.89-.88,2a7.54,7.54,0,0,0-.64.57,24.27,24.27,0,0,0-2.64,1.83,6.79,6.79,0,0,1-2,2.52c-1.39.56-2,.88-2,1.51-.25,0-1,.63-1.19.63-1.2,0-3-.32-3-2.27a4.91,4.91,0,0,1,.13-.94c-.19-.26-.19-.32-.19-.45,0-.37.25-.81.5-.81Z"/><path d="M82,192.65c-.19.19-1.51,2.84-1.89,3.28-.19.25-3.09,3.53-3.53,3.53-.06.25-1.13.82-1.26.88-.38.19-2.08,1.32-2.27,1.39a9.46,9.46,0,0,1-2.52.38A4.35,4.35,0,0,1,69.3,202a17.38,17.38,0,0,1-1.7-2.08,21,21,0,0,1-1.14-4.28c0-.19.25-1.26.25-1.39,0-4,0-4.47,1-6.43a35,35,0,0,1,2-5c1.33-1.08,1.45-1.2,1.51-1.52.19-1.13.19-1.26.45-1.26a20,20,0,0,1,1.38-2c.38-.38,2.08-2.2,2.52-2.52.7-.44,3.72-2.71,4.41-3.09a7.55,7.55,0,0,1,2.65-1c1.13-.07,2-.07,2-.63,0-.19.89-.19,1-.26s2-1.26,2.08-1.26.25,0,1,.44a3.07,3.07,0,0,0,1.51.32c.25,0,1.64,0,3,.13.25,0,1.32.5,1.51.5s1.07-.13,1.26-.13a37,37,0,0,1,4.1,1.26c1.19.44,1.38.7,2.58,2.15.13.18,1.2.75,1.32.88,3.15,3,3.47,4.09,4.16,6.49.13.44.88,2.2,1,2.58a22.9,22.9,0,0,1,.25,3.28,9.52,9.52,0,0,1-1.26,5.6c-.25.57-.69,3.15-.88,3.66-2.33,5.23-9.08,9.39-12,9.39-.06,0-.25-.19-.31-.19-.25,0-.7,1-.88,1s-1.26.89-1.52,1a4.45,4.45,0,0,1-.88.13c-1,0-1.26-.32-1.26-1.2,0-1.2,0-1.64,2.77-2a1.6,1.6,0,0,0,1.39-.63,12.48,12.48,0,0,1,2.2-1.13c.07-.13.26-.76.32-.88,1.39-.38,3.15-2.52,4.1-3.85.06-.38.06-.38.25-.38.31-.56.44-.75,1.19-2a24.22,24.22,0,0,0,1.71-4.6c0-.38.25-1.83.25-2.14,0-5.67-.07-5.8-.88-6.87-.13-.25-.19-1.39-.26-1.57a39,39,0,0,0-3-4,1.49,1.49,0,0,1-.25-.45c-.06-.25-1.51-.63-1.76-.75s-1.39-1.14-1.64-1.26-1.51-.44-1.77-.63c-.94-.82-3.78-1.07-3.9-1.07-1.51,0-1.64,1.57-1.64,2.45-.06.45-.5,3.22-1.32,3.34a20.23,20.23,0,0,0-.32,2.71A19.57,19.57,0,0,1,85.05,187,35.23,35.23,0,0,1,83,191.46Zm-3.65-.31a3.54,3.54,0,0,1,.31-.69c.32,0,.38-.07.51-.63a6.23,6.23,0,0,1,1.45-2c.06-.19.37-1,.44-1.13s.56-.88.63-1a7.39,7.39,0,0,1,.12-1.2,15.51,15.51,0,0,0,1.77-5.41,5,5,0,0,1,.5-.63c.06-.13.95-4.16.95-4.54,0-.76-.45-1.58-1.14-1.58a5.72,5.72,0,0,0-2.52.82c-.19.26-1.2,1.45-1.32,1.58-.32,0-.51.12-1.89,1.57-.07.07-.76.19-.76.32s-.38.31-.38.44a1.33,1.33,0,0,1-.5.94,4.28,4.28,0,0,0-1,1.08c0,.06-.37.06-.37.12a.77.77,0,0,1-.13.51,11.06,11.06,0,0,0-1.13,1.32c-.13.19-.26,1.13-.38,1.32a7.58,7.58,0,0,0-1.26,2.59c-.06,0-.13.18-.25.25l-.26.06.13.25c0,.13-.38.57-.44.7a31.62,31.62,0,0,0-.57,4.09c-.06.25-.44,2.14-.44,2.27,0,1.07.06,4.22,1.32,4.22a3.15,3.15,0,0,0,2.59-1.45c.12-.06.56-.12.69-.31l.06-.13A24.83,24.83,0,0,0,78.31,192.34Z"/><path d="M9.34,63.32c.19.12.63.31.69.37-.06.51,0,.57.63.82a12.55,12.55,0,0,0,2.08,1.26c.31.07,1.7.76,2,.82s1.26.13,1.45.19.88.57,1.07.63,2.26.32,2.7.44a6.2,6.2,0,0,0,1,.25c.13,0,.76-.5,1-.5s1.26.38,1.51.38,5-.51,5-.57a10.93,10.93,0,0,1,1.32-.31c.07,0,1,.25,1,.25a5.43,5.43,0,0,0,2-.82A14.73,14.73,0,0,1,35.48,65c.13,0,1,1,1.26,1,2.78.63,3,.69,3,2.21a2,2,0,0,1-1.07,2c-.38.13-2.52.5-2.9.57-.63.19-4,.88-4.6,1.07h-.13a7.07,7.07,0,0,0-1.13-.07,4.94,4.94,0,0,1-1.51.32c-.51,0-2.9-.44-3.15-.44S24,72,23.77,72s-1.58-.25-1.83-.25l-2.65.06a22.7,22.7,0,0,1-6.17-1.32,47.07,47.07,0,0,1-4.41-2.14c-1.07-1-1.14-1.14-1.7-2.9-.07-.32-1.33-1.14-1.39-1.39a17.06,17.06,0,0,1-.76-3.65c0-.19.82-4.35.95-4.54a5,5,0,0,0,.94-1.07,1.7,1.7,0,0,1,1.71-1.32,1.08,1.08,0,0,1,.94,1A5.68,5.68,0,0,1,9,56.2a12.81,12.81,0,0,0-.13,2.14,8,8,0,0,0-.44,1.07c0,.38.19,2.27.13,2.58A12.9,12.9,0,0,0,9.34,63.32ZM21.88,37.55a11.22,11.22,0,0,0-1.64.44H15.83c-1.14,0-4.48,0-4.48-2.77,0-.38.13-.51.38-.82.07-.13.13-1,.32-1a6.37,6.37,0,0,1,3.15.69,14.64,14.64,0,0,0,4.72.63c1.14-.06,4.66-.31,5.11-.31s1.89.37,2.2.37a6.24,6.24,0,0,0,1.32-.69,3.92,3.92,0,0,1,1.77-.57c.12,0,2.2.76,2.27.82s1.13.57,1.13,1.33a2.61,2.61,0,0,1-1.39,2.14c-.37.12-2.39.69-2.77.82S27.42,39.94,27,40.07s-2.27.75-2.27,1.26v.19c0,.63-2.27.44-2.58.63a7.46,7.46,0,0,0-.76.69,6.9,6.9,0,0,1-1.07.25,3.74,3.74,0,0,1-.88-.06,2.6,2.6,0,0,0,.12-1c0-.38,2-2,2.34-2.46a1.5,1.5,0,0,1,1.19-.75c0-.32.07-.38.95-.57.31-.06.5-.57.5-.82s-.88-.44-1.2-.5Z"/><path d="M13.56,87.32a2.76,2.76,0,0,0-.88-2.15c-1.2-1.26-1.2-1.26-1.2-2.26s.38-2.59.76-2.59a2.83,2.83,0,0,1,2,.44,2.14,2.14,0,0,0,.95.45,3.36,3.36,0,0,1,.94.25,6.14,6.14,0,0,1,.38,1.19,7.81,7.81,0,0,1,.88,1.26,22.3,22.3,0,0,1-.56,4.41,7.61,7.61,0,0,0-.32,1.2c0,.25.44.44.82.44a10.76,10.76,0,0,0,1.89-1.45c.19-.19.69-1.45.88-1.51a1.32,1.32,0,0,1,.51-.06c.18,0,.94.69,1.19.69.76.13,2.21.32,2.21,2,0,.63-1.33,1.45-2.27,1.76-.57.19-3.15,1.2-3.66,1.39-.18.06-.94.57-1.07.57s-.63-.26-.75-.26c-1.39,0-1.51,1-1.64,2a3.12,3.12,0,0,0-.32.63c0,.19.19,1.13.19,1.32s-.75,1.83-.75,2.14c0,2.27-.13,2.52-1,5.11-.13.31-.5,1.89-.57,2.2s-.82,2.33-.88,2.71a4.62,4.62,0,0,1-.94,2.14,6,6,0,0,0-.13,1.52,8.33,8.33,0,0,0-.38,1.51c.25.12.88.44.88.63s-.63.38-.69.5c-.25.76-1.26,4.29-1.57,4.85A12.1,12.1,0,0,0,7.32,124a1.28,1.28,0,0,1-1.13.89A3.93,3.93,0,0,1,3,121c0-.25.5-2.08.56-2.39.19.06.32,0,.32-.19s.13-.25.82-1.32a14.65,14.65,0,0,0,.5-1.64,8.64,8.64,0,0,0,.51-1c0-.88,0-1,.31-1.13.88-.31,1.14-2,1.14-2.27.37-2.39.5-2.52,1.38-3.4.06-.06.57-2.39.69-2.84a60.67,60.67,0,0,0,2.15-7.68c0-.69-1.26-1.2-1.7-1.2a19.38,19.38,0,0,0-2,.44,16.76,16.76,0,0,1-3,.38C1,96.83.39,96.26.39,94.75a3.86,3.86,0,0,1,.76-2.58,8.18,8.18,0,0,1,1.19-.38c.07,0,1.14.88,1.33,1a4.6,4.6,0,0,0,1.45.12,19.18,19.18,0,0,0,5.79-1.07c1.77-.69,2.14-1.7,2.14-3.59C13.43,88.26,13.56,87.44,13.56,87.32Zm7.56,25.26c.19-.38.31-.57.63-.57,1,0,1.13.32,1.7,2.65a6,6,0,0,0,3.4,4,8.24,8.24,0,0,0,2.78.63c.88.13,2.51.38,2.77.38a17.51,17.51,0,0,0,2.39-.19,8.81,8.81,0,0,0,1.2-.51c.25-.06,1.64-.25,1.89-.31.57-.13,2.77-1.13,3.27-1.13a3.88,3.88,0,0,1,3.41,3.27c0,.88-1.51,1.83-4.6,2.33-.25,0-1.39.51-1.77.51s-1.32-.89-1.57-.89a15.86,15.86,0,0,0-2.71.57,2.75,2.75,0,0,1-.82.19c-.25,0-1.39-.31-1.64-.31-3.65,0-6.74-1.2-8.44-2.9a3.61,3.61,0,0,1-1.51-2.52,5.07,5.07,0,0,0-.32-.7c-.06-.06-.06-.44-.12-.5s-.38-.06-.44-.13A14.94,14.94,0,0,1,21.12,112.58Zm7.43-20.22c1.52-.51,4.35-1.45,5.74-2a5,5,0,0,1,1.89-.5c.63,0,.82.13,1.57.82.13.12,2.08.69,2.33.94a2.44,2.44,0,0,1,1,1.77c0,.19,0,.31-.32.31-.06,0-2.2,1.83-2.39,2s-1,1-1.26,1.32a5.56,5.56,0,0,1-.88.44c-.25.13-1,1.07-1.2,1.2a5.12,5.12,0,0,1-1.07.13c-.44,0-1.39,0-1.39-.51,0-.31.7-1,1-1.38a4.28,4.28,0,0,0,1.14-2.34c0-.44-.57-.81-1.2-.81a25,25,0,0,0-3.59,1c-.07.13-.19.76-.32.82A34.94,34.94,0,0,1,26,96.7c-.81,0-1.63-.75-1.63-1.26a2.76,2.76,0,0,1,2.2-2.14c.5,0,.76,0,.69-.38C27.73,92.92,27.86,92.8,28.55,92.36Zm5.23-11.85c-.44-.31-1.19-.82-1.19-1.38s.31-.82.44-.82c3.21,0,7.62,2.9,7.62,5.73,0,.63,0,2.08-1.45,2.08-.63,0-2.08-1.32-2.39-1.64A8.81,8.81,0,0,0,33.78,80.51Zm6.43-4.85a6.45,6.45,0,0,1,3.53,1.26c.25.25,1.7.88,1.95,1.07a3.58,3.58,0,0,1,1.64,3c0,1.26-.51,2.15-1.95,2.15s-1.64-.57-1.71-1.45a16.37,16.37,0,0,0-2.52-2.9c-.25-.32-1.76-1.32-1.76-1.7S39.77,75.66,40.21,75.66Z"/><path d="M.45,154.22c.19,0,.82.07,1,.07a6.49,6.49,0,0,0,3.15-1.39c.88-1,1.32-1.57,2.27-1.57.25,0,3.46.63,3.46,2.39,0,1.58-1.7,4.47-2.39,4.47a.79.79,0,0,1-.69-.88c0-.25.31-1.38.31-1.57s-.44-.51-.63-.51-1.76,1.58-1.95,1.7a2.91,2.91,0,0,1-2.14.76A2.59,2.59,0,0,1,0,154.92C0,154.73,0,154.22.45,154.22Zm15.06-9.51-.06.32c0,.75-.19,4.28-.19,4.66s-.5,1.45-.5,1.7.31,1.64.31,1.89a16.87,16.87,0,0,1-.44,1.83,14.85,14.85,0,0,0-.13,2.71,2.38,2.38,0,0,0,1.07.25c.51,0,.51-.07,1.2-.95.13-.12.82-.56.95-.69l1.82-1.64a8.67,8.67,0,0,1,.95-.63c1.26-1.32,1.39-1.45,2.27-1.51.5,0,.56-.06,1.19-.76.19-.19,3.28-1.57,3.85-1.89.94-.56,5.6-1.26,6.42-1.26a37.48,37.48,0,0,1,4.42.82c3.77,1.58,4.72,3.28,5.54,4.79A10.51,10.51,0,0,1,46,160.9a22.85,22.85,0,0,1-1.33,7.44c-.06.12-.25.06-.25.12a1.32,1.32,0,0,1-.06.51c-.38.69-1.83,3.9-2.21,4.53-.12.19-2,2.65-2.08,2.78s-1.19.88-1.38,1.13a27.24,27.24,0,0,1-2.52,2.08c-.13.06-.88.19-1,.25s-1.26.76-1.64,1A1.55,1.55,0,0,1,32,182.07a7.84,7.84,0,0,1-1.32-.57c-1.26-.25-1.71-.37-1.71-1.38,0-.57.26-.63.76-.63,1.39,0,2.08-.38,3.84-1.32a10,10,0,0,0,1.71-1.83c0-.13.31-.19.56-.25a1.79,1.79,0,0,0,.69-.7c.13-.06.19-.56.26-.69,1.95-2.83,2.14-3.15,2.77-4.79a2.39,2.39,0,0,0,.31-.44c.13-.5,1-2.83,1-3s-.13-.63-.06-.63a8.37,8.37,0,0,0,.69-2.33c0-4,0-4.47-.63-5.92a14.49,14.49,0,0,0-.57-1.64c-2.08-3.34-7.87-3.47-8.76-3.47-1.07,0-5.54.76-6.61,2.08-.19.19-1.7.82-1.76.88a8.55,8.55,0,0,1-3.09,2,10.36,10.36,0,0,1-.76.76,8.13,8.13,0,0,1-1,.44c-.44.38-.88,1.26-1.32,1.64-1.76,1.7-2.77,2.58-2.77,4.09,0,.5.69,2.65.69,3.09a8.8,8.8,0,0,1-.38,2,4,4,0,0,1,.57,2c0,.5-.25,2.71-.25,3.15,0,1.32.13,7.05.13,8.25a1.52,1.52,0,0,1-1.58,1.32A4.9,4.9,0,0,1,11,182.89a9.32,9.32,0,0,0-1.26-2.71c-.7-1-.76-1.13-.76-1.51,0-.06.25-.44.25-.57s0-.38.38-.38c.19,0,.82.32,1,.32a.85.85,0,0,0,.82-.88v-5.23c0-.38.38-1.77.38-2.08s-.26-1.32-.26-1.58.26-1,.26-1.26-.51-.56-1.14-.56-1.32.19-1.95,1.51a2.11,2.11,0,0,0-.13.75c-.63,0-1.26,1.39-1.57,2.15-.19.38-.32.5-1.52,1.76-.63.76-1.26,2.27-2.07,2.71a7.5,7.5,0,0,1-1.71.5c-.69,0-1.38-1-1.38-1.82,0-1.83,0-3.66.75-3.66a4.49,4.49,0,0,0,.82.19c.38,0,.44,0,3.72-3.65.32-.32,1.77-1.77,2-2.08,1.13-1.45,1.26-1.64,2.08-1.77.82-1.26,2-3.33,2-4.28,0-.31-.31-1.76-.31-1.89s.38-2.2.38-2.52a2.27,2.27,0,0,0-.26-.88,3.5,3.5,0,0,1,.13-.44c0-1.2,0-1.33-.19-1.45s-.13-.25,0-.38-.13-.31-.13-.5v-1.89c0-.51.19-3,.19-3.22s-.25-1.26-.25-1.51.25-.88.25-1.07a1.62,1.62,0,0,0-.88-1.51c-.57-.19-1.13-.44-1.13-1.83,0-.63.31-1.2.63-1.2.63,0,.63,0,1.64.57.37.25,2.64.63,3,1a4.16,4.16,0,0,1,1.39,3,4,4,0,0,1-.45,1.76Z"/><path d="M33.72,229.45c-.32.19-.69,1.13-.82,1.38a28.62,28.62,0,0,1-2.08,3.91c-.56.25-1.19,1.45-1.45,2-.19,0-.25,0-.31.37-.13.7-1.77,2.15-2.27,2.52-.19.13-.63,1.14-.82,1.2a9,9,0,0,0-1.32,1c-2,1.51-3.09,2.39-4.54,2.39a1.17,1.17,0,0,1-1.2-1.2c0-.69,1.33-1.63,1.89-1.82l1.45-.44a10.11,10.11,0,0,1,2.52-3c.32-.31,2-3.59,2.52-4.15s.7-.7.7-1.52c0-.56,0-.75.19-.94s.5-.25.5-.32-.19-.5-.19-.63.82-1.38.88-1.7c.19-.94,1.14-5,1.26-5.92.13-.31.82-5.73.82-6.05a58.34,58.34,0,0,0-.75-9.76c-.19-1.14-2.08-3.85-3.6-3.85-2.33,0-4.09,2.33-4.41,2.84-.12.12-.12.12-.37.19a34.6,34.6,0,0,0-1.7,3.08c-.13.13-.89.64-1,.76a20,20,0,0,0-2.71,5,17.5,17.5,0,0,0-1.39,2.08,6.07,6.07,0,0,1,.06,1.07c-.06.19-.37,1-.44,1.2a1.72,1.72,0,0,1-.18.75c-.19.32-.57,1.08-.7,1.39,0,.13.19,1.07.19,1.2,0,.56-.57,3-.57,3.46s-.88.57-1.07.57c0,.19-.06.25-.19.13s-1.89-.45-2.2-.57c-.06-.19-.63-.82-.69-1a14.55,14.55,0,0,1-1.14-6.23c0-.07.32-1.7.32-2s-.19-1.32-.19-1.51c0-.57,1.07-9.14,2.33-12.22a17,17,0,0,0,.69-3.41c0-.82.44-3,.82-3.15s.38-.06.38-.44c0-.75,0-1.38.44-1.51.13,0,.25-.32.31-.38a3.44,3.44,0,0,1,.82-.12c.45,0,1.2.18,1.2.63,0,1.45,0,1.57.25,2.08a7.42,7.42,0,0,1,.38,1.89c0,1.82-1.32,4.91-1.89,6.3a3.23,3.23,0,0,0-.06,1.07,20.27,20.27,0,0,1-1.51,3c-.51,2.08-1.14,5-1.39,6.24,0,.19.13.88.13,1.07s-.07.31-.07.5a4.1,4.1,0,0,0,.44.89c.07.25.07,1.38.26,1.44a.21.21,0,0,0,.19.07c.31,0,.37-.25.44-.76,0-.25,3.15-6.93,3.21-7a5,5,0,0,0,1.13-2.14,27.54,27.54,0,0,0,1.89-3.09c.19-.51,1.77-3.4,2.46-3.59.13,0,.13-.25.19-.38,1-.76,1.13-.88,1.39-1.45a13,13,0,0,1,3.52-1.7h.63c1.45,0,3.41.57,3.66,1.13.06.13.75.26.82.38a1.29,1.29,0,0,0,.56.82A10.33,10.33,0,0,1,34,204.5a2.35,2.35,0,0,0,.25,1c.12.25.44.75.5.88-.12.31-.25.57-.25.63,0,.25.19.31.44.44.13.57.63,4.66.63,5s-.19,2.33-.19,2.77c0,.69.19,3.84.19,4.54-.19-.07-.38-.07-.25.25.25.5-.57,4.91-.57,5.35,0,.19-.38,1.83-.44,2.15,0,.12-.69,1.19-.82,1.44Z"/></g></g></svg>