<svg xmlns="http://www.w3.org/2000/svg" viewBox="0 0 364.11 256.93"><defs><style>.cls-1{isolation:isolate;}.cls-2{opacity:0.5;}.cls-3{opacity:0.3;mix-blend-mode:multiply;}.cls-4{fill:#55835c;}</style></defs><g class="cls-1"><g id="Layer_2" data-name="Layer 2"><g id="design"><g class="cls-2"><g class="cls-3"><path class="cls-4" d="M360.61,116.19c-.2-.8-.49-1.54-.73-2.32s0-1.73-.27-2.5-.4-1.62-.73-2.36-1.14-1.28-1.51-2-1-1.32-1.39-2-.62-1.51-1.06-2.2-.48-1.66-1-2.33-.74-1.52-1.25-2.16-1.38-1-1.92-1.62-1.59-.77-2.15-1.36-.87-1.42-1.45-2-1.13-1.19-1.73-1.74-1.29-1-1.92-1.54-.94-1.43-1.58-1.94-1.11-1.28-1.77-1.76-2-.07-2.65-.54-1.31-1-2-1.43-1.07-1.36-1.77-1.79-1.68-.4-2.38-.81-1.14-1.31-1.85-1.7-1.37-1-2.08-1.33-1.87,0-2.59-.34-1.09-1.53-1.82-1.87-1.83,0-2.56-.32-1.41-.94-2.14-1.25-1.43-.93-2.16-1.22-1.36-1.17-2.09-1.44-1.83,0-2.53-.23c-.89-.31-1.68-.52-2.34-.73-1.49-.48-1.22-.21-2.39-.57-.78-.28-1.71-.14-2.47-.41s-1.49-.75-2.24-1-1.31-1.19-2.06-1.48-1.55-.56-2.29-.85-1.72-.16-2.46-.46-1.44-.85-2.17-1.17-1.23-1.29-2-1.62-1.94.26-2.67-.08-1.33-1-2-1.39-1.71-.3-2.42-.69-1.31-1-2-1.43-1-1.47-1.72-1.89-1.81-.18-2.5-.63-1.27-1-1.95-1.5-.94-1.48-1.6-2-1.67-.48-2.32-1-1.29-1-1.94-1.49-1.39-.86-2-1.39-1.09-1.21-1.72-1.75-.94-1.37-1.57-1.92-1.1-1.19-1.72-1.74-1.26-1-1.87-1.57-1.23-1.05-1.84-1.61-1.45-.82-2.06-1.39-.78-1.53-1.38-2.1-1.84-.41-2.44-1-.7-1.61-1.31-2.18-.95-1.34-1.55-1.92-1.27-1-1.87-1.59-1-1.3-1.6-1.87-1.68-.6-2.28-1.17-1.49-.79-2.09-1.37-.39-1.94-1-2.51S240,24,239.38,23.4s-1.21-1.17-1.84-1.71-.92-1.53-1.56-2.06-1.6-.71-2.25-1.21-1.27-1.13-1.94-1.61-1.66-.58-2.34-1-1.25-1.16-1.94-1.61-1.16-1.34-1.87-1.77-1.47-.84-2.19-1.25-2,.1-2.7-.29-1.36-1-2.1-1.38-1.13-1.54-1.89-1.89-1.66-.43-2.42-.75-1.9.2-2.67-.1-1.42-1-2.2-1.25-1.57-.59-2.36-.85S205.75,3.31,205,3.08s-1.8.12-2.59-.09-1.73,0-2.54-.2-1.55-.79-2.35-1-1.66-.3-2.47-.44S193.4.69,192.6.57s-1.58-.2-2.39-.3c-.09,0,0,.18-.12.15-1.26-.46-1,.24-2.72.14-.75-.05-1.62-.52-2.65-.54-.81,0-1.71.07-2.68.08s-1.86,0-2.68,0c-1,0-1.94-.17-2.69-.12-1.71.1-1.16.65-2.42,1.1-.1,0-.24-.75-.33-.72-.81.1-1.6,0-2.46.08s-1.51,1-2.35,1.18-1.67.09-2.51.26-1.74-.18-2.57,0-1.56.64-2.38.86-1.35,1.32-2.16,1.56-2-.67-2.76-.41-1.59.53-2.39.82-1.61.47-2.4.78S150.58,6.63,149.8,7s-1.46.83-2.22,1.18-1.54.64-2.3,1-1.68.37-2.43.77-.91,1.79-1.65,2.21-1.54.62-2.27,1.06-1.37.93-2.08,1.38-1.36.93-2.06,1.41-1.76.38-2.45.87-1.18,1.21-1.85,1.72-1.36,1-2,1.5-1.56.73-2.2,1.28-1.07,1.32-1.69,1.89-1.13,1.24-1.74,1.82l-1.77,1.7c-.6.58-1.63.69-2.21,1.25s-.59,1.77-1.17,2.33-1,1.35-1.57,1.9-1.89.41-2.47,1-.8,1.56-1.38,2.11-1.07,1.28-1.65,1.83-1.52.79-2.11,1.33-1.42.89-2,1.43-1.11,1.23-1.7,1.77-1.41.9-2,1.44-.73,1.66-1.33,2.19-1.38.93-2,1.46-1,1.36-1.62,1.88-1.63.63-2.24,1.14-1.29,1-1.91,1.53-.68,1.8-1.32,2.29-2,.09-2.64.57-1,1.4-1.67,1.86-1.53.65-2.21,1.1-1.58.54-2.27,1-1.27,1-2,1.42-1.37.86-2.1,1.25-1.3,1-2,1.37-1.19,1.28-1.93,1.63-1.8,0-2.55.32-1.57.43-2.33.76-1.28,1.11-2,1.42-1.74,0-2.51.29-1.19,1.4-2,1.7-1.6.32-2.38.61-1.31,1.12-2.1,1.41-1.6.38-2.39.66c-1.17.37-1.1-.57-2.6-.09-.66.21-1.25,1.05-2.14,1.36-.71.25-1.55.33-2.38.64s-1.3,1.06-2.1,1.37-1.86-.31-2.65,0-1.1,1.52-1.87,1.86-1.67.23-2.43.59-1.51.6-2.26,1-1.65.36-2.39.75-1.33,1-2.06,1.38-1.25,1.1-2,1.52S31.29,82.54,30.58,83s-1.57.55-2.26,1-1.77.32-2.45.79-1.32,1-2,1.49-.7,1.77-1.34,2.29-1.42.84-2.05,1.37-1.7.56-2.31,1.12-.9,1.44-1.48,2-.89,1.42-1.46,2-1,1.31-1.51,1.93-1.53.85-2,1.49-1.21,1.16-1.69,1.83-.66,1.55-1.11,2.24-.45,1.63-.86,2.34-.67,1.47-1,2.21-1.78,1-2.11,1.73-.26,1.68-.55,2.46-.36,1.61-.61,2.4-.06,1.66-.25,2.47-.81,1.54-1,2.35-1,1.53-1.15,2.34.58,1.84.44,2.65-.59,1.62-.71,2.44.08,1.71,0,2.53S.54,130.14.47,131s.46,1.72.41,2.54S.64,135.18.62,136s-.55,1.68-.54,2.5.44,1.68.48,2.5.35,1.66.41,2.49-1.07,1.81-1,2.63.36,1.68.49,2.5,1.09,1.52,1.27,2.33-.09,1.76.12,2.55,1.19,1.41,1.44,2.19-.47,2-.17,2.73S4,160,4.3,160.7s.9,1.45,1.27,2.19,1.3,1.2,1.72,1.92.17,1.88.63,2.57,1.17,1.25,1.66,1.92.93,1.43,1.47,2.06,1.48.93,2.06,1.53.8,1.58,1.41,2.15,1.43.94,2.06,1.47,1.13,1.3,1.8,1.79,1.68.54,2.37,1,1.09,1.43,1.8,1.85,1.42.89,2.14,1.28,1.92-.1,2.66.27,1.24,1.21,2,1.54,1.41.93,2.17,1.23,1.71.15,2.49.41,1.6.4,2.39.63,1.6.33,2.41.53,1.55.54,2.36.7,1.65,0,2.48.16,1.55.76,2.38.84,1.68-.47,2.51-.42,1.6.85,2.43.87,1.65.26,2.49.26,1.65-.08,2.48-.12,1.61-.62,2.45-.68,1.62-.19,2.45-.27,1.73.65,2.56.55,1.64-.17,2.47-.29,1.55-.78,2.38-.92,1.52-.82,2.34-1,1.75.39,2.57.23,1.51-.77,2.33-.95,1.51-.75,2.33-.94,1.78.41,2.59.21,1.47-.9,2.28-1.1,1.73.11,2.54-.1,1.61-.35,2.42-.57,1.44-1,2.25-1.19,1.84.37,2.63.14,1.36-1.29,2.15-1.52,1.5-.76,2.29-1,1.79.17,2.58-.07,1.38-1.16,2.17-1.4,1.69-.13,2.48-.38,1.6-.46,2.39-.7,1.8.19,2.59-.06,1.6-.45,2.39-.69,1.47-.87,2.26-1.11,1.52-.69,2.31-.93,1.54-.64,2.33-.88,1.69-.14,2.48-.37,1.44-1,2.24-1.21,1.78.23,2.58,0,1.64-.25,2.44-.47,1.32-1.48,2.12-1.7,1.75.17,2.56,0,1.53-.67,2.34-.86,1.63-.31,2.44-.5,1.61-.39,2.42-.57,1.76.35,2.58.18,1.62-.26,2.44-.42,1.54-.67,2.37-.82,1.69.18,2.52,0,1.53-.82,2.36-.94,1.7.26,2.52.15,1.5-1.22,2.33-1.32,1.61-.44,2.44-.54,1.75.76,2.58.67,1.63-.26,2.46-.34,1.66.07,2.49,0,1.61-.52,2.44-.58,1.68.38,2.51.33,1.62-.63,2.45-.67,1.66.2,2.5.16,1.63-.54,2.47-.56,1.65.73,2.49.72,1.65,0,2.47,0,1.69-.53,2.51-.49,1.7-.6,2.52-.56,1.65.47,2.47.52,1.68-.16,2.5-.11,1.58,1.15,2.4,1.22,1.65.22,2.47.3,1.68-.16,2.5-.08,1.73-.49,2.55-.39,1.56.92,2.38,1,1.61.42,2.43.54,1.63.27,2.44.39,1.65.2,2.46.34,1.77-.44,2.58-.3,1.64.27,2.45.43,1.61.45,2.42.62,1.5.92,2.3,1.09,1.75-.21,2.56,0,1.59.51,2.39.7,1.72,0,2.51.19,1.37,1.37,2.16,1.58,1.78-.23,2.58,0,1.69.12,2.48.35,1.56.58,2.36.81,1.56.58,2.35.82,1.39,1.13,2.18,1.37,1.89-.53,2.69-.28,1.36,1.18,2.15,1.43,1.63.31,2.42.55,1.61.4,2.4.64,1.68.17,2.47.42,1.55.56,2.35.81,1.52.66,2.31.9,1.63.3,2.43.55,1.33,1.32,2.12,1.56,1.89-.55,2.69-.32,1.5.76,2.3,1,1.37,1.24,2.17,1.46,1.84-.41,2.63-.2,1.43,1.1,2.22,1.31,1.72,0,2.51.2,1.55.68,2.34.87,1.64.31,2.44.49,1.72-.09,2.52.08,1.58.55,2.38.71,1.48,1.15,2.29,1.3,1.73-.21,2.54-.08,1.6.58,2.41.7,1.65.31,2.46.41,1.71-.23,2.52-.15,1.64.35,2.46.41,1.66.35,2.47.39,1.69-.67,2.5-.66,1.67.3,2.49.28,1.69.43,2.51.38,1.66-.33,2.48-.42,1.66-.23,2.47-.35,1.7,0,2.51-.16,1.63-.4,2.43-.6,1.39-1.23,2.18-1.46,1.55-.55,2.33-.81,1.59-.41,2.36-.71,1.87.18,2.63-.16,1.36-1,2.1-1.39,1.6-.53,2.33-.93,1.44-.84,2.15-1.26,1.14-1.35,1.85-1.82,1.64-.58,2.32-1.09,1.49-.85,2.14-1.4.73-1.71,1.35-2.29,1.09-1.25,1.67-1.86,1.75-.68,2.3-1.33.84-1.49,1.35-2.16.8-1.49,1.27-2.19,1.11-1.28,1.54-2,.06-1.85.45-2.61.87-1.39,1.22-2.17.63-1.51.94-2.31,1.34-1.28,1.6-2.1-.2-1.79,0-2.61.21-1.64.39-2.47,1.33-1.43,1.47-2.27-.48-1.76-.37-2.6.71-1.6.78-2.44.16-1.67.2-2.52-.73-1.68-.72-2.53.25-1.66.23-2.51.31-1.68.26-2.53-.6-1.62-.68-2.47-.25-1.63-.35-2.48.14-1.69,0-2.53.44-1.77.3-2.61-.48-1.62-.64-2.45-1.22-1.45-1.41-2.29S360.82,117,360.61,116.19Zm-346.2,19.5a8.12,8.12,0,0,1,.38-2.73c.33-.86,1.35-1.34,2-1.88a6.76,6.76,0,0,1,2.34-1,11.78,11.78,0,0,1,2.45-1,20,20,0,0,1,2.62-.29c.85,0,1.73.35,2.59.46s1.64.76,2.48.92,1.65.64,2.46.82,1.85,0,2.61.17c1,.26,2-.18,2.66,0,1,.25,1.82.83,2.58,1,1.1.3,2,.64,2.62.86,2.42.8,3.63.56,2.62,1.49s-1.11,0-2.49.6c-.64.28-1.51.31-2.35.66s-1,1.63-1.85,1.94-1.52.5-2.31.78-1.7,0-2.49.26-1.39,1-2.17,1.23-1.73-.1-2.51.09-1.63.19-2.41.33-1.53,1.14-2.31,1.22-1.72-.76-2.49-.78-1.81.66-2.55.49a6.94,6.94,0,0,1-2.26-1.27,4.73,4.73,0,0,1-1.3-2.11A5.92,5.92,0,0,1,14.41,135.69Zm16.31,36.08A8.18,8.18,0,0,1,29,169.61c-.4-.83-.05-1.9,0-2.74a6.63,6.63,0,0,1,.91-2.37,11.39,11.39,0,0,1,1-2.43A20.45,20.45,0,0,1,32.51,160c.61-.59,1.45-1,2.12-1.56s1.68-.67,2.37-1.17,1.6-.75,2.29-1.21,1.25-1.36,1.92-1.78c.86-.54,1.25-1.57,1.82-1.94.88-.56,1.85-.74,2.53-1.15,1-.59,1.8-1,2.43-1.31,2.24-1.21,2.9-2.24,2.88-.88s-.76.81-1.27,2.23c-.24.65-.82,1.3-1.15,2.15s.47,1.88.14,2.68-.68,1.45-1,2.22-1.17,1.24-1.52,2-.23,1.7-.61,2.42-1.26,1.18-1.66,1.88-1,1.31-1.42,2-.22,1.89-.7,2.51-1.75.72-2.29,1.27-.76,1.77-1.39,2.19a7.1,7.1,0,0,1-2.48.76,4.65,4.65,0,0,1-2.43-.5A6.26,6.26,0,0,1,30.72,171.77ZM43.12,117c-.58-.36-1.38-.75-2.24-1.29-.67-.42-1.11-1.36-1.88-1.87s-1.28-1.12-2-1.64-1.69-.63-2.36-1.18-1.53-1-2.14-1.55a19.54,19.54,0,0,1-1.61-2.1,11.22,11.22,0,0,1-1-2.44,5.94,5.94,0,0,1-.38-2.41,4.4,4.4,0,0,1,0-2.44c.33-.69.35-1.85,1.06-2.52A6.59,6.59,0,0,1,33,96.46a4.67,4.67,0,0,1,2.51-.12,6.72,6.72,0,0,1,2.35.89c.63.42.94,1.33,1.55,2a21.2,21.2,0,0,1,1.32,2c.48.62,1.87.63,2.33,1.33s.82,1.42,1.23,2.13.32,1.69.69,2.41,1.23,1.21,1.58,1.94.2,1.72.52,2.45.5,1.58.8,2.3,1.45,1.23,1.72,1.94-.22,1.94,0,2.59c.51,1.42,1.55,1,1.57,2.21,0,1.37-1,.43-3.22-.78-.63-.33-1.26-1-2.23-1.64C45,117.66,44,117.59,43.12,117ZM169.58,54.86c0,1.3.07,1.29,0,2.59s-.57,1.28-.58,2.58-.24,1.29-.26,2.59.49,1.3.47,2.6.24,1.29.22,2.59-.25,1.29-.27,2.58-.54,1.29-.56,2.59-.32,1.29-.34,2.59.43,1.3.41,2.6.67,1.31.65,2.61-.36,1.3-.39,2.59-.11,1.23-.15,2.46.09,1.23.06,2.46-.53,1.21-.57,2.44-.34,1.21-.38,2.44S169,94.43,169,95.66s-.1,1.22-.13,2.45-.59,1.21-.62,2.43.51,1.25.48,2.48-.59,1.21-.63,2.44-.2,1.22-.24,2.45.85,1.26.81,2.49-1,1.21-1,2.44.84,1.18.89,2.39-.25,1.22-.2,2.42-.26,1.22-.21,2.43-.54,1.23-.49,2.44.69,1.19.74,2.4a21.83,21.83,0,0,1,.15,2.42c0,1,0,1-.06,2.06-.09,1.37.4,1.39.35,2.76s-.24,1.38-.29,2.75-.72,1.36-.77,2.74,0,1.38-.06,2.76c0,1,.42,1.85.39,2.59a19,19,0,0,1-.45,2.56c-.15,1-1,1.37-1.43,2.06s-.11,1.83-.87,2.56a16.11,16.11,0,0,1-2.26,1.5c-.67.45-1.35,1.34-2.3,1.6a12.67,12.67,0,0,1-2.8.07c-.73,0-1.33-.95-2.15-1.39-.66-.37-1.8-.19-2.48-.77a24.1,24.1,0,0,1-1.69-1.87c-.54-.6-.54-1.66-1-2.34s-1.45-1-1.87-1.72a23.72,23.72,0,0,1-1.19-2.2,18.13,18.13,0,0,1-1.08-2.3,9,9,0,0,1-.17-2.55c0-.39.55-1.21.76-2.23.14-.71.47-1.45.65-2.21s.28-1.57.46-2.22a8.58,8.58,0,0,0,.35-2.37c.07-1-.24-1.94-.14-2.26-.11-.23-.13-.87-.38-.82-1.16.23-.84,1.33-1.94,1.75s-1.35-.23-2.46.19-1.22.11-2.33.53-1.06.54-2.17,1-1.2.18-2.31.6-.85,1.1-2,1.52-1,.81-2.05,1.25c-1.53.61-2-.44-3.47.22-1.08.48-.79,1.13-1.87,1.64s-1.1.46-2.17,1-1.33,0-2.4.5-.89.92-2,1.43-1.13.39-2.21.91-.86,1-1.94,1.47a18.5,18.5,0,0,0-2.21.84c-.68.35-1.66.29-2.33.65-1,.51-1.76,1-2.06,1.17-.8.47-1.14,1.81-2,2.16a15.85,15.85,0,0,1-2.73.61c-.86.19-1.82-.6-2.75-.6a9.18,9.18,0,0,1-2.6-.07c-.94-.28-2.2.06-2.87-.46a8.66,8.66,0,0,1-1.58-2.41,10.28,10.28,0,0,1-1-2.57c-.27-1,.47-2,.47-2.73a4.25,4.25,0,0,1-.35-2.32,18.81,18.81,0,0,1,.11-2.4c.19-.71.85-1.35,1.15-2.11a16.32,16.32,0,0,1,1-2.14c.37-.68,1.13-1.07,1.63-1.7a12,12,0,0,1,1.56-1.63c.59-.5,1-1.22,1.69-1.6a10.06,10.06,0,0,1,2.06-1.24,13.88,13.88,0,0,1,2.41,0c.82-.08,1.61-.24,2.38-.32s1.62-.2,2.39-.29,1.64,0,2.42-.08,1.46-1.13,2.24-1.25,1.74.71,2.53.57,1.62-.06,2.41-.22,1.39-1.11,2.18-1.28,1.59-.15,2.38-.34,1.67.14,2.46-.06,1.47-.64,2.27-.85,1.27-1.3,2.07-1.52,1.84.76,2.64.54l2.31-.64c.75-.21,1.55-.32,2.35-.55.52-.13,1.16-.81,2.11-1,.67-.16,1.39-.53,2.21-.72s1.49-.28,2.28-.46,1.59.06,2.35-.12,1.3-1.48,2.06-1.66c.4,0,.86.34.86-.13,0-1.12,0-1.12,0-2.24s0-1.12.06-2.24.73-1.09.77-2.21-.23-1.13-.19-2.25.13-1.11.17-2.23c0-.61.45-1.39.48-2.29,0-.72-.25-1.51-.23-2.31s-.11-1.54-.1-2.31,0-1.57,0-2.3.47-1.91.39-2.58c-.11-.18-.72.48-.94.44a12.31,12.31,0,0,0-2.19,0c-1.27-.07-1.25-1-2.51-1s-1.26.61-2.53.65-1.26.22-2.53.25-1.28-.44-2.55-.41-1.28-.3-2.55-.27-1.26.17-2.53.2-1.28-.25-2.55-.22-1.25.77-2.53.8-1.27-.2-2.55-.16-1.26.39-2.54.42a7.88,7.88,0,0,0-2.33-.33c-.68.09-1.46.19-2.28.32s-1.33,1.23-2.11,1.37-1.72-.85-2.47-.71-1.45.82-2.17,1-1.66,0-2.33.07a6.76,6.76,0,0,1-2.24-.07,8,8,0,0,1-2.35-.13,5.85,5.85,0,0,1-2.1-1.07A6.75,6.75,0,0,1,102,87.58a14.38,14.38,0,0,1-1.41-2.32c0-.3,1-1.07,1.34-2.19.22-.66.71-1.29,1-2.08s.14-1.62.51-2.32,1.31-1,1.74-1.65.26-1.83.78-2.35,1.31-.76,2-1.26,1-1.38,1.66-1.78,1.55-.67,2.19-1c.94-.45,1.92.07,2.38.07a8.51,8.51,0,0,1,2.88-.14c.84.18,1.76.6,2.77.83s2-.09,2.92.12c.52.12,1.39,1.25,2.58,1.4.89.11,2-.74,2.87-.64,1.2.12,2.2.68,2.71.68,1.21,0,1.21.11,2.42.11s1.21.43,2.41.43,1.21-.23,2.42-.23,1.21-.35,2.42-.35,1.21-.46,2.42-.46,1.21.38,2.42.38,1.21.72,2.42.72,1.25,0,2.46,0c.41,0,.18-.8.5-1.06,0-.52.16-1.06.19-2.18,0-.74.72-1.59.73-2.51s-.44-1.65-.45-2.52S151,63.6,151,62.74s-.23-1.67-.28-2.5.51-1.74.44-2.56.07-1.76-.05-2.55a19.94,19.94,0,0,0-.84-2.42,4.65,4.65,0,0,0-1.4-2c-.55-.62-1.14-1.09-1.57-1.59s-.15-2-.54-2.44c-.62-.76-1.35-1.05-1.64-1.51a3.52,3.52,0,0,1-.78-2,7.69,7.69,0,0,1,.07-2.61,15.62,15.62,0,0,1,1.49-2.13c.41-.69,1.39-1,1.94-1.66s.41-1.86,1-2.46a23,23,0,0,1,2.13-1.4,20.37,20.37,0,0,1,1.95-1.66,17.31,17.31,0,0,1,2.43-.81c.79-.31,1.48-1.14,2.3-1.3a13.46,13.46,0,0,1,2.62-.13,23.13,23.13,0,0,1,2.52,1,13.23,13.23,0,0,1,2.58.58,10.69,10.69,0,0,1,2.38,1.35c.63.6.12,1.94.39,2.77a22.69,22.69,0,0,1,.73,2.48c.16,1,1,1.74,1.11,2.54a17.93,17.93,0,0,1-.41,2.66c-.05,1.24.7,1.28.64,2.52s-1.13,1.2-1.19,2.44.13,1.25.07,2.5a14.09,14.09,0,0,0,.09,2.51C169.25,53.63,169.62,53.61,169.58,54.86Zm91.1,91.47a15.72,15.72,0,0,1-1.51,1.09,5.11,5.11,0,0,1-1.93.39c-.14.05-1.06,0-2.24.13-.67.09-1.38.69-2.15.79s-1.52.44-2.2.52a12.14,12.14,0,0,1-2.28,0c-1.35,0-1.35-.51-2.69-.51s-1.34-.31-2.68-.31-1.35.45-2.69.45-1.34.68-2.69.68-1.34-.35-2.69-.35-1.35-.08-2.69-.08c-.86,0-1.73.1-2.57.05s-1.67-.6-2.51-.68-1.64-.5-2.47-.63-1.89.84-2.71.67-1.69-.41-2.5-.61-1.54-1-2.34-1.19-1.82,0-2.6-.25-1.46-1.1-2.23-1.39-1.54-.8-2.29-1.13-2,.08-2.7-.27-1.17-1.6-1.86-2c-.84-.47-2-.25-2.59-.65a7.05,7.05,0,0,1-1.9-1.87c-.54-.65-.8-1.52-1.28-2.22s-.39-1.69-.81-2.45-1.34-1.17-1.68-2-.67-1.52-.95-2.36-.63-1.55-.84-2.41-.83-1.54-1-2.41-.1-1.7-.22-2.57.46-1.73.38-2.61-.16-1.65-.21-2.53-.56-1.65-.58-2.52.21-1.68.22-2.56.71-1.66.73-2.53c0-1.24-1-1.27-1-2.51s.38-1.24.41-2.48-.47-1.25-.44-2.49.31-1.24.34-2.48.78-1.22.81-2.47-.77-1.26-.74-2.51.19-1.24.22-2.48.7-1.23.73-2.47-.55-1.26-.54-2.51,0-1.18,0-2.37-.21-1.19-.21-2.38.23-1.19.23-2.38.42-1.18.42-2.37.17-1.19.17-2.38-.1-1.18-.1-2.37,0-1.19,0-2.38-.38-1.19-.38-2.38.59-1.19.59-2.38-1-1.19-1-2.38.69-1.19.69-2.38A9.84,9.84,0,0,0,195,59c-.08-.7-.31-1.49-.43-2.35s0-1.6-.09-2.4-1-1.48-1.1-2.24-.75-1.54-.9-2.23c-.24-1.11.5-2.42.27-2.74-.58-.66-1.58-.78-2-1.25a15.72,15.72,0,0,1-1.35-1.78c-.47-.72,0-1.26,0-2.13a9.38,9.38,0,0,1-.13-2.43,14.44,14.44,0,0,1,.94-2.26,16.5,16.5,0,0,1,.78-2.41A19.52,19.52,0,0,1,192.72,33c.54-.62,1.47-.83,2.09-1.38a17,17,0,0,1,1.89-1.5c.7-.46.93-1.77,1.67-2.11a13.63,13.63,0,0,1,2.51-.58c.81-.19,1.7.59,2.53.59a5.94,5.94,0,0,1,2.23-.05c.67.15,1.75-.47,2.51-.1s1.18,1.13,1.79,1.68a8.64,8.64,0,0,1,1.48,1.84c.38.61-.08,1.6.18,2.4s1,1.23,1.08,2.06a16.13,16.13,0,0,1,.56,2.3c0,.56-.45,1.4-.5,2.52,0,.72-.05,1.56-.1,2.52,0,.77-.51,1.58-.57,2.5s-.1,1.62-.16,2.51.26,1.66.2,2.55.27,1.67.21,2.54-.56,1.62-.62,2.5,0,1.65-.1,2.52-.11,1.66-.17,2.53-.37,1.77-.44,2.53c-.07,1,.77,1.85.72,2.6-.05.92-1.07,1.68-1.09,2.5s-.26,1.64-.25,2.57c0,.75.83,1.57.85,2.53,0,.76-.18,1.6-.15,2.56a4.4,4.4,0,0,0,2.49-.12c1.18-.31,1.11-.56,2.29-.88s.94-1.21,2.12-1.52,1.5.86,2.68.54l2.36-.63c1.18-.32,1.21-.21,2.4-.53s1.05-.8,2.23-1.12c.89-.25,1.64-.66,2.37-.89.9-.29,1.71-.49,2.4-.75.93-.34,1.87-.3,2.5-.61.9-.44,1-1.85,1.6-2.27.76-.42,1.58-.64,2.24-1a10.33,10.33,0,0,1,2.3-.92,11.3,11.3,0,0,1,2.48-.28c.82,0,1.66.77,2.55.92a19.64,19.64,0,0,1,2.58.34c.81.24,1.61.6,2.42.93s1.41,1,2.18,1.43,1.68.53,2.41.95,1.58.79,2.27,1.27A24.09,24.09,0,0,1,260,72.58c.73.62.88,1.64,1.36,2.23.7.85,1.85,1.29,1.85,1.94a3.88,3.88,0,0,1-.91,2.63c-.5.49-1.79.15-2.66.59-.66.33-1.18,1.18-2.05,1.49-.72.25-1.46.69-2.33.94s-1.67,0-2.52.17-1.64.05-2.49.24-1.55.47-2.4.64-1.64,0-2.48.19-1.47,1-2.32,1.17-1.64.06-2.48.2-1.56.63-2.4.77-1.71-.3-2.55-.16c-1.17.19-1.17.16-2.34.35s-1,1.16-2.19,1.35-1.35-.93-2.52-.75-1.08.74-2.25.92-1.23-.14-2.4.05-1.23-.21-2.41,0-1.14.4-2.31.58-1.17.25-2.34.45a6.21,6.21,0,0,1-1.86.33c-.81,0-1.61.56-1.92.56a4.62,4.62,0,0,0-2.62,0c-.59,1.14-.34,1.36-.41,2.64s.44,1.31.37,2.59-.75,1.24-.82,2.52.79,1.33.72,2.61c0,.84-.36,1.65-.4,2.44s.53,1.68.51,2.47-.23,1.66-.24,2.45-.84,1.67-.83,2.45.65,1.66.7,2.44-.09,1.68,0,2.46.73,1.57.88,2.33-.6,1.89-.37,2.62,1.46,1.22,1.81,1.91.4,1.65.91,2.27a10.67,10.67,0,0,0,1.71,1.78c.63.47,1.16,1.28,1.93,1.65a19.22,19.22,0,0,0,2.42.69c.74.24,1.63.11,2.48.28s1.62-.17,2.48,0,1.52.57,2.38.64,1.55.85,2.4.89,1.62,0,2.46.07,1.63-.95,2.48-.94,1.61.26,2.45.26c.6,0,1.44.68,2.44.65.73,0,1.53-.49,2.41-.53s1.55-.45,2.4-.5,1.57-.28,2.39-.35,1.66.48,2.48.39,1.65.07,2.45,0c1.31-.19,1.26-.54,2.57-.73s1.24-.67,2.55-.86,1.29-.31,2.6-.5,1.48,1,2.79.77,1.25-.61,2.57-.79c.44-.06,1.42-.48,2.59-.74.84-.2,1.68-.82,2.53-1a9.74,9.74,0,0,1,2.72,0c.61,0,1.21.69,1.92,1s1.8.34,1.8,1.19a9.78,9.78,0,0,1-.91,2.39,18.62,18.62,0,0,1-.76,2.4c-.36.69-1.05,1.27-1.5,2s-.38,1.72-.87,2.42-1.09,1.28-1.6,1.95-1.44,1-2,1.6-.82,1.53-1.4,2.11-1.05,1.39-1.67,1.92-2.06.08-2.72.53S261.39,146,260.68,146.33ZM332.4,97.7a8,8,0,0,1,1.72,2.15c.39.83,0,1.9,0,2.74a6.79,6.79,0,0,1-.9,2.37,12,12,0,0,1-1,2.43,19.11,19.11,0,0,1-1.59,2.11c-.61.59-1.44,1-2.12,1.56s-1.68.67-2.37,1.17-1.6.75-2.29,1.21-1.25,1.36-1.92,1.78c-.86.54-1.25,1.58-1.82,1.94-.88.56-1.85.75-2.53,1.16-1,.58-1.8,1-2.43,1.3-2.24,1.21-2.9,2.25-2.88.88,0-1.22.76-.81,1.28-2.22.23-.66.81-1.31,1.14-2.16s-.47-1.88-.14-2.68.68-1.45,1-2.22,1.17-1.23,1.53-2,.22-1.7.6-2.42,1.26-1.18,1.66-1.88,1-1.31,1.42-2,.23-1.89.71-2.51,1.74-.72,2.28-1.27.77-1.77,1.4-2.19a7,7,0,0,1,2.47-.76,4.69,4.69,0,0,1,2.44.5A6.15,6.15,0,0,1,332.4,97.7Zm0,74.07a7.21,7.21,0,0,1-2.15,1.49c-.8.3-1.78-.16-2.58-.32a6.46,6.46,0,0,1-2.09-1.14c-.63-.42-1.57-.57-2.18-1.18a20.33,20.33,0,0,1-1.81-1.7c-.48-.62-.78-1.45-1.24-2.15s-.42-1.63-.83-2.34-.51-1.55-.89-2.27-1.14-1.24-1.49-2-1.32-1.21-1.64-1.93-.34-1.67-.64-2.39-.56-1.59-.83-2.29c-.33-.85-.73-1.58-1-2.24a4.28,4.28,0,0,1-.32-2.39c0-1.37-.17.28,2.07,1.49.62.33,2-.2,2.93.39.68.41,1.43.95,2.32,1.51.57.37,1,1.29,1.89,1.83.67.43,1.71.44,2.47.95s1.1,1.42,1.82,1.94,1.27,1.16,1.94,1.7,1.92.49,2.53,1.08.6,1.87,1.12,2.52,1.72,1,2.08,1.78a7.34,7.34,0,0,1,.48,2.7,5.34,5.34,0,0,1-.79,2.52A7,7,0,0,1,332.4,171.77Zm-14.21-37c-1-.93.2-1.16,2.62-1.95.68-.23,1.71,0,2.8-.27.77-.21,1.7-.23,2.71-.49.66-.16,1.39-.88,2.38-1.13.76-.19,1.56-.66,2.46-.86s1.72-.14,2.59-.3,1.78.22,2.64.11,1.72.12,2.57.08a25.5,25.5,0,0,1,2.55-.42c.91.08,1.95-.42,2.73-.18a7.53,7.53,0,0,1,2.26,1.56,5.41,5.41,0,0,1,1.49,2.21,7.17,7.17,0,0,1,.56,2.6,5.85,5.85,0,0,1-.91,2.3c-.33.79-1,1.06-1.62,1.52s-.94,1.76-1.79,2a13.5,13.5,0,0,1-2.54.22c-.76,0-1.59-.57-2.43-.66s-1.68.34-2.5.19-1.48-.86-2.28-1.05-1.52-.56-2.3-.78-1.83.37-2.6.13-1.27-1.37-2-1.63-1.83.16-2.56-.11-1.46-.89-2.16-1.18-1.48-1-2.12-1.24C319.34,134.76,319.08,135.55,318.19,134.73Z"/></g><g class="cls-3"><path class="cls-4" d="M334,240.26l-2.44-.64c-.77-.21-1.72.09-2.58-.15s-1.6-.41-2.44-.65-1.59-.51-2.42-.75-1.34-1.37-2.16-1.62-1.73,0-2.55-.29-1.53-.74-2.34-1-1.84.24-2.65,0-1.31-1.4-2.12-1.67-1.86.24-2.66,0-1.55-.7-2.34-1-1.33-1.29-2.11-1.59-1.75-.2-2.52-.51-1.47-.89-2.23-1.22-1.79-.18-2.54-.52-1.36-1.12-2.1-1.49-1.45-.89-2.16-1.29-1.31-1.08-2-1.49-1.42-.88-2.14-1.3-1.75-.31-2.47-.73-1.32-1.06-2-1.47l-2.16-1.27c-.72-.42-1.77-.27-2.49-.69s-1.3-1.09-2-1.5-1.3-1.09-2-1.51-1.74-.33-2.46-.75-1.41-.89-2.13-1.31-1.59-.59-2.31-1-1.21-1.25-1.93-1.66-1.17-1.33-1.9-1.73-1.39-.94-2.12-1.34-1.94.06-2.67-.34-1.55-.64-2.28-1-1.26-1.18-2-1.57-1.11-1.47-1.85-1.85-1.85-.05-2.59-.43-1.27-1.19-2-1.56-1.89.08-2.64-.28-1.4-.92-2.16-1.27-1.19-1.42-2-1.76-1.88.15-2.65-.18-1.09-1.69-1.86-2-1.82.05-2.6-.26-1.32-1.21-2.1-1.51-1.89.3-2.68,0-1.66-.26-2.45-.53-1.26-1.49-2-1.75-1.77.07-2.57-.18-1.46-.93-2.27-1.16-1.73,0-2.54-.2-1.4-1.23-2.21-1.43-1.74.1-2.56-.09-1.5-.91-2.32-1.09-1.72.09-2.55-.07-1.68,0-2.51-.19-1.58-.58-2.41-.72-1.75.45-2.58.32-1.49-1.32-2.32-1.43-1.66-.16-2.5-.26-1.72.43-2.56.34-1.69.27-2.53.19-1.59-.8-2.43-.86-1.68.21-2.52.15-1.61-.88-2.45-.93-1.71.83-2.55.79c-.08,0-.13-.48-.2-.47-.84,0-1.7-.37-2.53-.32s-1.65.54-2.47.6-1.72-.41-2.54-.35l-2.5.23c-.84.08-1.58,1.11-2.4,1.2s-1.63.39-2.45.5-1.65.21-2.47.33-1.81-.8-2.63-.67-1.53,1-2.35,1.17-1.81-.61-2.62-.46-1.57.74-2.38.9-1.63.4-2.44.57-1.59.53-2.4.72-1.63.36-2.43.56-1.63.41-2.43.63-1.79-.18-2.58,0-1.44,1-2.24,1.28-1.62.43-2.4.68-1.55.64-2.34.91-1.51.72-2.3,1-1.77,0-2.55.32-1.49.79-2.26,1.09-1.51.72-2.28,1-1.64.43-2.4.75-1.39,1-2.15,1.34-1.36,1-2.12,1.37-1.7.28-2.45.64-1.81.1-2.56.47-1.43.88-2.17,1.26-1.19,1.34-1.93,1.72-1.69.36-2.43.75-1.13,1.41-1.87,1.81-1.65.44-2.38.84-1.25,1.18-2,1.58-1.76.26-2.49.67-1.36,1-2.09,1.39-1.48.76-2.2,1.17-1.22,1.21-2,1.63-1.66.44-2.39.86-1.54.65-2.26,1.07-1.5.76-2.23,1.18-1,1.58-1.72,2-2-.08-2.69.34S80.7,220.53,80,221l-2.17,1.25c-.72.41-1.46.79-2.19,1.2s-1.17,1.32-1.9,1.73-1.3,1.09-2,1.5-1.53.74-2.25,1.13-1.83.18-2.56.57l-2.22,1.17c-.75.4-1.59.6-2.32,1s-1.46.85-2.2,1.21-1.17,1.48-1.91,1.83-2-.36-2.77,0-1.53.69-2.29,1-1.31,1.23-2.08,1.54-1.79,0-2.56.31-1.52.73-2.3,1-1.49.87-2.27,1.11-1.45,1.12-2.24,1.33-1.76,0-2.56.15-1.64.47-2.44.62-1.71.07-2.52.18-1.64.69-2.45.76-1.71.19-2.53.21-1.7-.57-2.52-.6a2.4,2.4,0,0,0-1.59.8,2,2,0,0,0-.73,1.48,2.18,2.18,0,0,0,.28,1.72,2.66,2.66,0,0,0,1.5,1.2,9.17,9.17,0,0,1,2.53-.38c.69,0,1.54.81,2.52.77.75,0,1.54-.74,2.46-.82.77-.07,1.54-.59,2.43-.7s1.67.31,2.54.18,1.66,0,2.52-.13,1.5-.87,2.36-1,1.81.66,2.66.48,1.39-1.27,2.24-1.46,1.7.07,2.54-.14,1.72,0,2.55-.18,1.62-.35,2.45-.58,1.47-.86,2.3-1.1,1.54-.6,2.36-.85,1.47-.84,2.28-1.1,1.86.36,2.67.1,1.2-1.66,2-1.94,1.83.27,2.64,0,1.3-1.31,2.11-1.59,1.63-.62,2.43-.91l2.4-.15c.77-.05,1.62,1,2.39,1s1.53-.43,2.31-.48,1.59.28,2.37.22,1.5-.93,2.28-1,1.63.78,2.41.72,1.51-.74,2.29-.8,1.46.15,2.24.08c.35.41.92-.15,1.65-.23s1.76.79,2.59.73,1.65-.16,2.49-.19,1.65-.65,2.48-.65,1.67.42,2.51.44,1.64.48,2.48.52,1.69-.41,2.52-.35,1.71-.32,2.54-.24,1.62.57,2.45.67,1.72-.27,2.55-.16,1.61.57,2.44.68,1.62.45,2.45.58,1.77-.51,2.59-.38,1.5,1.22,2.33,1.35,1.77-.52,2.6-.39,1.52,1.09,2.34,1.22,1.8-.69,2.63-.56,1.63.38,2.45.5,1.59.69,2.42.8,1.8.05,2.68.15,1.77.32,2.65.41,1.75.61,2.64.68,1.8.05,2.69.1,1.82-.7,2.71-.67,1.15.66,2,.68c-.82.23-.83.92-1.65,1.15s-1.72.14-2.53.36-1.91-.54-2.72-.32-1.6.58-2.42.79-1.55.77-2.37,1-1.72.07-2.55.27-1.61.51-2.44.7-1.55.8-2.38,1-1.67.26-2.5.44-1.77-.2-2.6,0-1.53.95-2.36,1.12-1.68.21-2.52.36-1.59.75-2.42.9-1.64.51-2.47.64-1.7.17-2.53.3-1.72,0-2.56.09-1.64.57-2.48.67-1.73-.19-2.58-.1-1.83.49-2.75.56c-.77,0-1.56-.14-2.33-.13s-1.56-.87-2.33-.84c-.43,0-.67,1.05-1,1.23-.51,0-1.12-.28-1.63-.24-1.07.07-2.35.38-2.74,1.13s.29,2,.68,2.82.94,1.64,2.07,1.59c.87,0,1.75.11,2.62.05s1.74-.08,2.61-.15,1.64-1.22,2.5-1.3,1.73-.17,2.59-.27,1.73.05,2.58,0,1.72,0,2.57-.05,1.75.66,2.6.58,1.63-.29,2.46-.28,1.66-.34,2.49-.33,1.65-.07,2.48,0,1.64.67,2.47.69,1.68-.75,2.51-.73,1.67-.3,2.49-.27,1.64.66,2.47.7,1.65.11,2.48.15,1.62.68,2.45.71,1.7-.85,2.52-.81,1.63.58,2.46.62,1.64.42,2.46.46,1.66-.07,2.49,0,1.7-.78,2.53-.73,1.62.7,2.44.75,1.66,0,2.49,0,1.62.79,2.44.84,1.69-.57,2.52-.52l2.48.1c.83,0,1.67-.19,2.49-.15s1.64.41,2.47.45,1.66-.14,2.49-.11,1.64.26,2.47.3,1.67-.25,2.5-.22,1.63.81,2.45.84,1.69-.94,2.52-.92,1.61,1,2.43,1,1.63-.13,2.45-.13,1.64.21,2.46.18,1.59-1.17,2.4-1.2,1.69,1,2.5,1l2.45-.17c.81-.07,1.64,0,2.45-.12s1.61-.41,2.42-.5,1.52-1,2.33-1.1,1.7.43,2.51.31,1.62-.2,2.42-.32l2.43-.37c.8-.14,1.61-.26,2.41-.41s1.51-.81,2.31-1,1.77.54,2.57.37,1.39-1.32,2.18-1.49,1.67,0,2.46-.19,1.5-.74,2.3-.93,1.65-.1,2.44-.3,1.65-.13,2.44-.33,1.62-.26,2.41-.47,1.47-.8,2.26-1,1.72.11,2.51-.11,1.41-1,2.2-1.2,1.66-.14,2.44-.37,1.51-.65,2.29-.89,1.54-.53,2.32-.77,1.64-.24,2.41-.48,1.6-.36,2.38-.61,1.29-1.34,2.06-1.59,1.67-.13,2.45-.38,1.62-.29,2.39-.54.69-1.13.84-1.82.23-1.17-.27-1.72-1-1.53-1.91-1.24-1.44.86-2.22,1.11-1.61.34-2.39.59-1.52.62-2.3.86-1.71,0-2.49.25-1.44.9-2.22,1.14-1.52.6-2.31.84-1.39,1.07-2.17,1.31-1.84-.47-2.63-.24-1.64.2-2.43.42-1.36,1.2-2.15,1.41l-2.37.63c-.8.21-1.65.19-2.44.4s-1.53.6-2.33.8-1.73-.21-2.52,0-1.57.46-2.37.64-1.54.6-2.34.77-1.68,0-2.48.12-1.55.56-2.35.71-1.59.42-2.39.56-1.63.16-2.44.29-1.45,1.32-2.26,1.44-1.77-.79-2.58-.68-1.56.64-2.37.74-1.62.33-2.43.42-1.67-.3-2.49-.22-1.58.66-2.4.72-1.67-.42-2.48-.38-1.61.68-2.43.71-1.64.28-2.45.3-1.65-.53-2.47-.53-1.64.25-2.46.23-1.62-.44-2.44-.47-1.63-.15-2.44-.19-1.63-.14-2.44-.18-1.62-.2-2.44-.24-1.65.46-2.47.42-1.62-.29-2.43-.33-1.66.51-2.47.47-1.59-.93-2.4-1-1.65.37-2.47.32-1.64.12-2.45.08-1.6-.5-2.42-.54-1.66.57-2.47.53-1.57-1.28-2.38-1.33-1.65.39-2.46.35-1.11.15-1.93.11c.84-.13,1.19,0,2-.16s1.52-1.15,2.35-1.28,1.77.36,2.6.22,1.63-.45,2.46-.6,1.74.12,2.56,0,1.47-1.31,2.29-1.47,1.86.71,2.69.54l2.48-.5c.82-.18,1.43-1.35,2.25-1.53s1.67-.21,2.49-.4,1.78.18,2.59,0,1.52-.88,2.34-1.09,1.68-.11,2.49-.33,1.62-.4,2.42-.64,1.78.1,2.58-.16,1.18-1.71,2-2,1.53-.62,2.32-.9,1.82.13,2.6-.16,1.37-1.08,2.15-1.38,1.65-.35,2.42-.66,1.79,0,2.56-.35,1.18-1.51,1.95-1.83,1.62-.43,2.39-.75,1.64-.41,2.41-.74,1.38-1,2.15-1.33,1.43-.89,2.2-1.22,1.91.23,2.68-.1,1.46-.82,2.23-1.15,1.31-1.18,2.08-1.5,1.64-.42,2.41-.74,1.76-.11,2.53-.42,1.37-1.08,2.15-1.38,1.79,0,2.56-.29,1.6-.47,2.39-.75,1.45-.86,2.24-1.14,1.65-.32,2.44-.58,1.53-.65,2.33-.89,1.32-1.42,2.12-1.65,1.88.54,2.68.32,1.64-.26,2.45-.45,1.53-.79,2.34-1,1.7.08,2.52-.06,1.24-.57,1.93-.67c.75.33,1.61.3,2.36.64s1.29,1.14,2.05,1.48,1.53.6,2.28.93,1.9-.23,2.65.1,1.06,1.69,1.82,2,1.7.2,2.46.52,1.26,1.26,2,1.58,1.55.55,2.32.87,1.64.31,2.41.63,1.51.65,2.27,1,1.71.15,2.48.45,1.64.3,2.41.6,1.43.84,2.2,1.14,1.53.6,2.3.89,1.25,1.35,2,1.63,1.76,0,2.54.25l2.33.82c.77.27,1.67.18,2.45.44s1.49.73,2.28,1,1.58.44,2.37.69,1.5.72,2.29,1,1.55.56,2.34.79,1.61.35,2.41.58,1.47.81,2.27,1,1.51.73,2.31.94,1.68.07,2.49.27,1.54.59,2.35.79,1.67.09,2.48.28,1.66.09,2.47.27,1.55.63,2.36.8,1.68,0,2.49.16,1.44,1.18,2.25,1.34,1.86-1,2.67-.81,1.5.93,2.32,1.08,1.58.53,2.39.67,1.68,0,2.5.1,1.76.92,2.52.92c1.33,0,1.76-1.08,2.09-2.65.26-1.21,1-2.25.08-2.82a18.4,18.4,0,0,0-2.88-.67C336.05,240.59,335.1,240.54,334,240.26ZM120.6,215.77l2.23-1.07c.75-.35,1.28-1.18,2-1.51s1.51-.69,2.27-1,1.56-.58,2.32-.89,1.88.28,2.65,0,1.38-1,2.16-1.28,1.64-.31,2.41-.57,1.32-1.28,2.1-1.53,1.85.39,2.64.15,1.35-1.26,2.14-1.48,1.64-.3,2.43-.51,1.79.32,2.58.12,1.5-.82,2.3-1,1.67-.09,2.47-.26,1.51-.88,2.32-1,1.7.12,2.51,0,1.64-.15,2.45-.28,1.67,0,2.48-.06,1.63-.16,2.45-.26,1.56-.78,2.38-.87,1.66.1,2.48,0l2.46-.18c.82-.06,1.61-.76,2.43-.81s1.66.2,2.48.18,1.66.23,2.48.21,1.64-.61,2.46-.61,1.66.06,2.48.08,1.66-.25,2.48-.23,1.64.54,2.46.59,1.61.66,2.42.72,1.63.25,2.45.32,1.73-.84,2.55-.76,1.67,0,2.48.11,1.73.8,2.53.91c-.8.16-1.89-.3-2.7-.14s-1.45,1.1-2.26,1.27-1.71-.16-2.52,0-1.41,1.22-2.22,1.4-1.65.12-2.45.31-1.78-.41-2.58-.23-1.39,1.25-2.19,1.44-1.87-.71-2.67-.52-1.42,1.11-2.21,1.31-1.76-.23-2.55,0-1.36,1.32-2.16,1.53-1.51.71-2.3.92-1.85-.56-2.64-.34-1.43,1-2.23,1.22-1.7,0-2.5.19-1.45.9-2.25,1.12-1.8-.35-2.59-.13-1.45.93-2.24,1.15-1.73-.08-2.52.15-1.46.87-2.25,1.09-1.51.73-2.3.95-1.66.17-2.45.39-1.38,1.14-2.18,1.36-1.87-.6-2.66-.38-1.57.5-2.36.72-1.42,1.05-2.21,1.27-1.47.87-2.26,1.08-1.76-.19-2.55,0-1.5.76-2.29,1-1.79-.33-2.58-.12-1.37,1.3-2.16,1.51-1.71-.06-2.51.14-1.7,0-2.5.16-1.49.82-2.29,1-1.72-.14-2.52,0l-2.4.56c-.8.18-1.39,1.28-2.19,1.46s-1.57.56-2.37.73-1.61.35-2.42.51-1.81-.69-2.62-.53-1.46,1.09-2.27,1.24-1.78-.59-2.59-.45-1.54.72-2.35.85-1.61.33-2.42.46-1.6.42-2.41.55-1.63.21-2.45.32-1.73.15-2.55.26c.74-.3,1.78-.15,2.54-.46s1.24-1.17,2-1.49,1.51-.56,2.25-.88,1.43-.75,2.17-1.07,1.4-.81,2.14-1.14,1.7-.11,2.45-.45,1.38-.83,2.12-1.17,1.42-.75,2.16-1.09,1.56-.46,2.3-.8,1.3-1,2-1.34,1.3-1,2-1.37,1.65-.27,2.38-.62,1.76-.06,2.49-.42S119.87,216.13,120.6,215.77Zm12.53,17.6-2.57-.4c-.85-.13-1.79.26-2.64.12l-2.57-.38c-.85-.13-1.69-.33-2.55-.46s-1.25-.86-2.11-1c.84-.11,1.28-.26,2.12-.37s1.7,0,2.53-.09,1.54-1,2.37-1.14,1.8.66,2.63.53,1.53-1.06,2.36-1.2,1.68-.12,2.5-.26,1.79.46,2.62.32,1.57-.74,2.39-.89,1.71,0,2.53-.2,1.49-.86,2.28-1,1.69.07,2.48-.12,1.62-.27,2.41-.47,1.66-.14,2.44-.36,1.6-.38,2.38-.61,1.39-1,2.17-1.29,1.64-.24,2.41-.49l2.33-.77c.77-.26,1.33-1.14,2.1-1.41s1.63-.28,2.39-.55,1.63-.29,2.4-.57,1.32-1.12,2.09-1.4,1.55-.52,2.31-.8,1.42-.84,2.19-1.13,1.69-.13,2.45-.42,1.73,0,2.49-.33,1.57-.45,2.34-.74,1.18-1.5,1.94-1.78,1.48-.74,2.24-1,1.69-.14,2.45-.41,1.8.19,2.57-.07,1.28-1.29,2.05-1.55,1.71,0,2.48-.28,1.29-1.36,2.07-1.59,1.63-.26,2.41-.49,1.78.32,2.57.11,1.35-1.29,2.14-1.49,1.84.71,2.64.52,1.42-1.07,2.22-1.23,1.72.32,2.52.17,1.51-1.22,2.31-1.34c.77.19,1.69.09,2.45.29s1.27,1.39,2,1.6,1.69-.14,2.44.09,1.38.92,2.12,1.16,1.66,0,2.4.3,1.21,1.31,1.94,1.58,1.66.09,2.38.38,1.29,1.11,2,1.43,1.67.21,2.42.52,1.61.37,2.36.69,1.37.9,2.12,1.23,2.13.6,2.88.92c-.82.16-2.31-.25-3.13-.09s-1.62.39-2.43.56-1.49,1-2.3,1.15-1.52.8-2.33,1-1.76-.26-2.57-.06-1.53.72-2.34.92-1.8-.35-2.6-.15-1.38,1.3-2.18,1.51-1.73,0-2.53.19-1.72,0-2.52.22-1.48.87-2.28,1.1-1.75-.06-2.54.17l-2.4.7c-.79.23-1.32,1.38-2.11,1.62s-1.53.68-2.32.92l-2.38.73c-.8.24-1.89-.5-2.69-.26s-1.35,1.24-2.14,1.49-1.86-.36-2.65-.11-1.45.91-2.24,1.16-1.57.56-2.36.81-1.53.67-2.32.92-1.59.49-2.38.74l-2.37.76c-.79.25-1.78-.1-2.57.15s-1.4,1.07-2.19,1.33-1.6.44-2.39.69-1.55.63-2.34.88-1.61.45-2.43.57-1.71-.36-2.52-.26-1.62.37-2.44.45-1.63.24-2.45.29-1.66-.14-2.48-.11-1.63.42-2.46.44-1.65.39-2.47.38-1.65-.47-2.47-.49-1.62-.74-2.44-.78-1.65.09-2.47,0-1.69.54-2.51.47-1.6-.59-2.42-.67-1.71.55-2.53.46-1.59-.59-2.41-.69-1.69.22-2.51.1-1.54-.85-2.36-1S133.94,233.5,133.13,233.37Z"/></g></g></g></g></g></svg>