<svg xmlns="http://www.w3.org/2000/svg" viewBox="0 0 287.23 43.09"><g id="Layer_2" data-name="Layer 2"><g id="design"><path d="M0,33.21a.6.6,0,0,1,.59-.59c.33,0,1.84.59,2.16.59A13.47,13.47,0,0,0,4,32.67c0-.32,1.18-.81,1.56-1S7,30.56,7.24,30.4a15.1,15.1,0,0,0,3-2.16,3.8,3.8,0,0,1,.75-.7c.11-.05,1.35-.22,1.35-.43,0-.06-.16-.16-.11-.16s.11-.49.11-.54a24.64,24.64,0,0,1,.22-4.05c.05-.38,0-2.43.11-2.81s.43-1.3.43-1.51-.16-.6-.7-.6c-.11,0-3,.7-3,1s-2.49.92-2.92,1.14a2.24,2.24,0,0,1-1.08.38,3.73,3.73,0,0,1-3.13-3.41A.72.72,0,0,1,3,15.71c.33,0,1.57.44,1.84.44,1,0,5.56-1.25,6.05-1.25.27,0,1.24.65,1.46.65s.43-1.19.43-1.29-.38-.81-.38-1,0-.21.05-1.51c0-.27-.21-1.73-.21-2a13.63,13.63,0,0,0-.11-2.11c-1-1.24-1.35-1.56-1.35-2,0-.76.92-2.22,1.78-2.22a9.55,9.55,0,0,1,1.68.87,3.77,3.77,0,0,1,2.37,3.34c0,.44-.65,2.54-.65,2.7,0,.65-.16,2.81-.16,3.35,0,.22.11,1.24.11,1.35a4.16,4.16,0,0,0-.43.81c0,.7.05,3.89,0,4.54-.06.92-.16,3.13-.22,3.94a9.39,9.39,0,0,0,.33.92c0,.16-.27.86-.27,1,0,.54.16,2.86.16,3.35,0,.75-.22,3.94-.22,4.59,0,.21.16,1.24.16,1.29s-.32,2.16-.32,2.33v2.53c-.16.71-.65,1.35-1.24,1.35-.16,0-3-2-3-3a2.58,2.58,0,0,1,.11-.91,1.37,1.37,0,0,0,.43-.17c.65-1.13.65-1.4.65-3.72,0-.22.54-3.3.54-3.94,0-.33-.06-.54-.17-.54a11.35,11.35,0,0,0-1.13,1l.05.43c-.05.11-.54.22-.81.27-.05.16-3,3.67-4.69,4.21-.44.16-.87,1.46-.87,1.57a8,8,0,0,1-2.16.92C1.57,37.75.05,35.1.05,33.86.05,33.75,0,33.32,0,33.21Zm34.45,3.62c.11,0,2-.43,2.22-.49A8.83,8.83,0,0,0,38.83,36c.21-.22,1.62-.65,1.72-.81,1.14-1.51,1.19-4.38,1.25-6.32,0-.38.16-.92.75-.92s.6.06,1,1.57c.05.21.65,1.13.7,1.35s.11,1.46.16,1.73a9,9,0,0,0,.81,1.56c.54.22.54,1.14.54,1.41,0,1.83-.48,2.1-1.73,2.8-1.56.92-1.72,1-2.59,1-.32,0-2.1.54-2.16.54-.7,0-7.5-.22-7.56-.22a31,31,0,0,1-4.21-.86,8.35,8.35,0,0,1-2.32-1.19c-.81-1-1.89-2.48-1.95-2.54a9,9,0,0,0-.75-2.43c.05-.43.16-2.48.16-2.8,0-.11-.27-3.62-.27-4.22a11.74,11.74,0,0,1,.05-1.35,4.67,4.67,0,0,0,.22-.75c0-.11-.22-.43-.22-.54,0-.49.17-4.27.17-5.08,0-.54.48-2.91.48-3.4,0-.32-.43-1.73-.43-2,0-.05.16-1.73.16-2.1a41.88,41.88,0,0,0-.11-4.32,7.61,7.61,0,0,0-.86-1.52c-.16,0-.16,0-.16-.1,0-.54.11-2.43.81-2.43s1,.1,2.86,1.13c.11.11.86.38,1,.49a3,3,0,0,1,1.08,2.53,3.33,3.33,0,0,1-.27,1.46c0,.06-.38.76-.43.87a7.85,7.85,0,0,0,.11,1.18,39.47,39.47,0,0,1-1.14,3.89c0,.43.54,1.62.54,2.05a26.16,26.16,0,0,1-.16,3c0,.32-.54,1.62-.54,1.94,0,.16.16,1,.16,1.19,0,.49-.48,6.64-.48,7.94v1.13c0,.22.27,1.46.32,1.68A18.2,18.2,0,0,0,27,35.32a1.29,1.29,0,0,0,.65.27c.11,0,.65-.11.65-.06.05.38.05.43.43.49a4.55,4.55,0,0,0,.48.21,5,5,0,0,0,2.43.54c.71,0,1.62-.1,2.33-.16A.93.93,0,0,0,34.45,36.83Zm-7-19a2.52,2.52,0,0,0,1.84-1c.27-.22,1.46-1.08,1.67-1.3a16.48,16.48,0,0,0,3.19-3.4,21,21,0,0,0,1.4-2.21c.16-.44.11-2.7.49-3a5,5,0,0,1,.48-.6,2,2,0,0,1,1.3-.48,1.32,1.32,0,0,1,1,.37C39,6.86,40,9.72,40,10a5,5,0,0,1-1.73,3.13s0,.16-.11.27-.7.92-.86,1c-.32.27-2.11,1.56-2.11,1.67v.22c.06.16-.54.11-.59.16a1.86,1.86,0,0,1-.32.32l-.11.27a2.56,2.56,0,0,0-2.22,1.19c-.48.7-3.24,1.35-4.48,1.46a.38.38,0,0,1-.38-.27S27.05,17.93,27.43,17.82Z" fill="#fff"/><path d="M75.28,33.05a.36.36,0,0,1,.37.32c0,.11-.16.7-.16.81s.27,1.14.27,1.3c0,.54-.59.81-1.13.81s-.65-.11-1.51-1.14c-.11-.1-.6-.27-.65-.37a4.58,4.58,0,0,1-.6-1.79c-.48-3-1-10.09-1-12V19.22c0-.21-.22-1.08-.22-1.24s.22-2.75.22-3.08-.38-1.67-.38-2a9.25,9.25,0,0,1,.65-2.06.33.33,0,0,1,.21,0c.11,0,.38.38.44.43A10.59,10.59,0,0,1,73,12.37a17.85,17.85,0,0,0,1.35,1.4,2,2,0,0,1,.27,1.13c0,.38-.48,1.89-.48,2.22,0,.16.27.81.27,1v2.05h.11c.21-.59.21-.75,5.67-1.19.43-.05,3.72-.81,3.94-.86a56.82,56.82,0,0,0,11.23-2c.32-.05,1.67-.92,2-.92s4,1,4,2.54c0,1.19-.81,2.16-1.51,2.16-.17,0-2.6-.59-3.14-.59-.27,0-1.67.27-1.94.27-.11,0-.49-.54-.54-.54a.79.79,0,0,1-.43.21,1.52,1.52,0,0,1-.54.06c-.38,0-2,0-2,.59a3.56,3.56,0,0,0,.32,1,4,4,0,0,1,.27,1.41,59.92,59.92,0,0,1-1.56,9.34,16.29,16.29,0,0,1-.49,2c-.38.43-.81,1.08-1,1.29-.7,0-2.43.76-2.43,1.3a.3.3,0,0,0,.27.32A22.49,22.49,0,0,1,88.88,36c1.35-.21,2.33-.32,10.86-1.29.38-.06,1.94-.33,2.27-.33a5.5,5.5,0,0,1,2.43,1.25c.27.21,1.72.86,1.94,1.08a1,1,0,0,1,.32.75A1.66,1.66,0,0,1,105.57,39c-.16.11-.54.54-.65.6a1,1,0,0,1-.38,0,25,25,0,0,1-3.67-1.13c-.27-.11-1.35-.11-1.56-.22-.38-.32-.44-.38-.6-.38-.54,0-4.21.06-4.75.11-.92.11-2.65.22-3.19.27a9.09,9.09,0,0,1-1.89-.22,3.07,3.07,0,0,0-.86-.37c-.27,0-4.27.37-4.86.43-1.08.16-1.51.27-1.94.32-.17.06-1.41.33-1.46.33a12,12,0,0,0-1.89.1,60.37,60.37,0,0,1-6.7,1c-.21,0-1.24.11-1.46.11-.43.11-2.37.75-2.86.81s-1.51.21-1.94.21c-1.3,0-1.95-.59-3.13-1.62a10.06,10.06,0,0,1-.92-.7,1.91,1.91,0,0,1-.33-1.08c0-.7.49-.81.6-.81s1.73.7,2,.7,1.35-.37,1.57-.37c2,0,2.26,0,3.29-.06.22,0,1.3.27,1.57.27l1.51-.11A10,10,0,0,1,72.31,37s.86.22.86.22.81-.17,1-.17c1.35,0,4.86-.48,5.89-.64,3.89-.54,4.37-.65,5.07-1.14,1.68-1.13,2-3.67,2.16-5.29,0-.32.54-1.73.54-2,0-.81.22-4.43.22-5.19a1.38,1.38,0,0,0-.38-1.18c-.16-.17-.32-1.19-.43-1.35s-.22-.11-.27-.11-1.19.21-1.35.21-1,.44-1.19.44-.75-.22-.81-.22-.32.43-.43.49c-.76.54-1.13.59-2.65.7-.21,0-1.45.59-1.72.59a15.78,15.78,0,0,1-3-.92c-1-.05-1.08-.05-1.14-.1s-.21-.81-.32-.81,0,.81-.06.86a2.71,2.71,0,0,0-.1.86,3.21,3.21,0,0,0,.37,1.68.53.53,0,0,1,.11.32c0,.11-.11,1.68-.11,2,0,.59.17,3.19.17,3.67s-.11,2.86-.06,3.35A1.89,1.89,0,0,1,75.28,33.05ZM73.93,9.83c1.18,0,4.91-1.68,5.5-1.95.76-.37,4-2.21,4.76-2.48A5.89,5.89,0,0,0,85,5c.16-.11.81-.81,1-.86.49-.06.54-.06.54-.16V3.78c0-.11.43-.43.43-.54C87,2.38,87,1,87.48,1c0,0,3.35,1.24,3.4,1.24.27.44,1.19,1.52,1.19,1.84,0,.86-.38,1.08-1.78,2.11a13.35,13.35,0,0,1-1.46.91,12.73,12.73,0,0,1-1.62.54C86.67,7.78,84.46,9,84,9.13A34.73,34.73,0,0,1,76,10.91c-.32,0-2.1.43-2.27.43s-.64-1.19-.59-1.24C73.28,9.83,73.71,9.83,73.93,9.83Z" fill="#fff"/><path d="M137.38,26.57c-.17.16-1.3,2.43-1.62,2.81-.17.21-2.65,3-3,3,0,.22-1,.7-1.08.76-.32.16-1.78,1.13-1.94,1.18a7.94,7.94,0,0,1-2.16.33,3.83,3.83,0,0,1-1-.11,16.22,16.22,0,0,1-1.46-1.78,18.33,18.33,0,0,1-1-3.67c0-.17.22-1.08.22-1.19,0-3.4,0-3.84.81-5.51a29.87,29.87,0,0,1,1.67-4.27c1.14-.91,1.24-1,1.3-1.29.16-1,.16-1.08.38-1.08a15.83,15.83,0,0,1,1.18-1.68c.33-.32,1.79-1.89,2.16-2.16.6-.37,3.19-2.32,3.78-2.64a6.42,6.42,0,0,1,2.27-.87c1-.05,1.68-.05,1.73-.54,0-.16.76-.16.86-.21s1.68-1.08,1.79-1.08.21,0,.81.38a2.76,2.76,0,0,0,1.29.27c.22,0,1.41,0,2.54.1.22,0,1.13.44,1.3.44s.91-.11,1.08-.11a30.81,30.81,0,0,1,3.51,1.08c1,.38,1.18.59,2.21,1.83.11.17,1,.65,1.13.76,2.7,2.54,3,3.51,3.57,5.56.11.38.75,1.89.81,2.22a19.85,19.85,0,0,1,.21,2.8,8.14,8.14,0,0,1-1.08,4.81c-.21.49-.59,2.7-.75,3.13-2,4.48-7.78,8-10.32,8-.05,0-.21-.16-.27-.16-.21,0-.59.86-.75.86s-1.08.76-1.3.81a3.88,3.88,0,0,1-.75.11c-.87,0-1.08-.27-1.08-1,0-1,0-1.4,2.37-1.73a1.36,1.36,0,0,0,1.19-.54,11,11,0,0,1,1.89-1c.05-.11.22-.65.27-.75,1.19-.33,2.7-2.16,3.51-3.3.05-.32.05-.32.22-.32.27-.49.37-.65,1-1.73a21.12,21.12,0,0,0,1.46-3.94c0-.33.22-1.57.22-1.84,0-4.86-.06-5-.76-5.88-.11-.22-.16-1.19-.22-1.35A35.64,35.64,0,0,0,153,12.74a.94.94,0,0,1-.22-.37c0-.22-1.3-.54-1.51-.65s-1.19-1-1.41-1.08-1.29-.38-1.51-.54c-.81-.7-3.24-.92-3.35-.92-1.29,0-1.4,1.35-1.4,2.11,0,.37-.43,2.75-1.13,2.86a17.34,17.34,0,0,0-.27,2.32A17.19,17.19,0,0,1,140,21.71a29.42,29.42,0,0,1-1.78,3.83Zm-3.14-.27a4,4,0,0,1,.27-.6c.27,0,.33-.05.44-.54a5.25,5.25,0,0,1,1.24-1.67c.05-.16.32-.86.38-1s.48-.76.54-.87a6.41,6.41,0,0,1,.1-1A13.46,13.46,0,0,0,138.73,16a4.85,4.85,0,0,1,.43-.54c.05-.1.81-3.56.81-3.88,0-.65-.38-1.35-1-1.35a4.83,4.83,0,0,0-2.16.7c-.17.21-1,1.24-1.14,1.35-.27,0-.43.11-1.62,1.35-.05.05-.65.16-.65.27s-.32.27-.32.38a1.21,1.21,0,0,1-.43.81,3.43,3.43,0,0,0-.81.91c0,.06-.33.06-.33.11a.67.67,0,0,1-.1.43,10.7,10.7,0,0,0-1,1.14c-.1.16-.21,1-.32,1.13A6.61,6.61,0,0,0,129.06,21c-.05,0-.11.16-.22.21l-.21.06.11.21c0,.11-.33.49-.38.6a27.65,27.65,0,0,0-.49,3.51c-.05.21-.38,1.83-.38,1.94,0,.92.06,3.62,1.14,3.62a2.67,2.67,0,0,0,2.21-1.24c.11-.06.49-.11.6-.27l.05-.11A22.13,22.13,0,0,0,134.24,26.3Z" fill="#fff"/><path d="M183.92,27.32a1.43,1.43,0,0,0,.17.65c0,.06.27.11.32.11s.49,2.54.65,3,.75,3.68,1,4.38.87,3.24,1,3.78c.27,0,.27.05.38.86a11.43,11.43,0,0,1,.11,1.24c0,.6-.27.87-.87.87a1.63,1.63,0,0,1-1.83-1.14,3.45,3.45,0,0,0-1-.86,13,13,0,0,1-.48-1.89c-.06-.32-.76-1.46-.81-1.73-.22-1.35-.7-4.53-.92-6.21a2.84,2.84,0,0,1,.16-.92,7.4,7.4,0,0,0,.43-1,6,6,0,0,1-.54-1c0-.32.22-.75.6-.75a4,4,0,0,1,1.24.21C183.38,27,183.92,27.22,183.92,27.32Zm9.35,1a.74.74,0,0,0-.11-.22c-.06,0-.6.27-.7.27s-.92-.16-1-.16-.54.27-1.08.48a2.72,2.72,0,0,1-.92.17,5.85,5.85,0,0,1-.59-.11c-.16,0-.81.32-.92.32-.81,0-1.67-.81-1.67-1.24,0,0,.05-.11.48-.49.06,0,.06-.27.11-.32.32-.16,1.94-.59,2.27-.76s3.13-.54,3.67-.64,3.24-.76,3.51-.76,3.35.32,3.35.32a1.91,1.91,0,0,1,1.08,1.52.29.29,0,0,1-.06.21c-.7.87-.81,1-.81,1.68a12.43,12.43,0,0,1-.48,4.15c-.11.54-.38,3-.49,3.46a20.67,20.67,0,0,1-.54,2.7c-.05.11-.59.33-.7.43a3.58,3.58,0,0,1-.27.38c-.32,0-1.19-.22-1.46-.22a9,9,0,0,0-2.64.27,5.6,5.6,0,0,1-1.73.27c-.22.06-.65.22-1.08.33-1.14-.38-2.32-1.08-2.32-2.16,0-.6.7-.76,1.35-.76s4.16-.05,5.07-.54c0-.05.06-.05.22-.32.05-.11.59-.22.65-.33a42.64,42.64,0,0,0,1-7.39,1.09,1.09,0,0,0-.32-.87c-1.4.16-2,.16-2.81.22Zm.27-15.23c.11.27.11,1.73.27,1.94s.32.43,1.72.43c.38,0,1.9-.48,2.22-.48a27.51,27.51,0,0,0,3.4-.16c.38-.06,2.38-.33,2.54-.33.38,0,1.83.06,2.16.06,1,0,1.24-1.19,1.3-1.46.21-1,.91-5.4.91-6.1,0-.54-.7-.54-1.24-.54-1.19,0-5.94.7-6.86.86a20.71,20.71,0,0,1-2.43.86c-.1,0-2.16-.86-2.16-1.4,0-1,.54-1.13,3.19-1.57.75-.1,4.26-.75,5-.86,1-.16,5.94-.43,6-.43a21.25,21.25,0,0,1,2.54.32A1.12,1.12,0,0,1,213,5.45a14.56,14.56,0,0,1-.49,1.73c-.16.7-.92,4.16-1,4.81-.11.38-.71,2-.76,2.32-.7,3-2.38,3.51-2.92,3.51a.87.87,0,0,1-.54-.27c-.65-.86-.7-1-1.19-1-.7,0-3.94.54-4.58.54a1.55,1.55,0,0,0-.54-.06c-.28.06-1.46.33-1.68.33-3.62,0-4,0-5,.92-.43.37-.54.48-.92.48-1.29,0-1.62-.75-2.05-1.78-.16-.38-1-2.16-1.08-2.38a20.83,20.83,0,0,1-.59-5.07c0-2.49.11-3.78,1.13-3.78A1.55,1.55,0,0,1,192.19,7a21.52,21.52,0,0,0,.75,2.91c0,.27.11.92.11,1.35,0,.65,0,1.08.27,1.14C193.37,12.53,193.37,12.58,193.54,13.07ZM219.4,38.34a13.48,13.48,0,0,1-1.18,1.24c-.06,0-1,.43-1,.43a11.82,11.82,0,0,1-2-.75,2.9,2.9,0,0,0-1.08-.22c-.38,0-2.21.33-2.27.33s-.43.16-.48.16a18,18,0,0,0-2.49.11,15.84,15.84,0,0,0-1.51.54c-1.51,0-2.64-4.92-2.64-5.24s.05-1.73,0-2-.22-1.19-.22-1.35.32-.43.32-.49c0-.27-.21-1.45-.21-1.67a2.93,2.93,0,0,1,.16-1.08c0-.11.27-.49.27-.54s-.6-1.46-.6-1.73.06-.32.28-.32c1.78,0,2.43.38,2.43,1.62,0,.86.64,4.59.64,5.34a2.54,2.54,0,0,1-.16.49c0,.11.27.81.27.92.27,1.94.43,2.86,1.19,2.86s3.83-.43,4.48-.43c1-.06,2.38-.22,2.43-.87a12.16,12.16,0,0,1,.7-1.45,40,40,0,0,0,.92-4.22,9.33,9.33,0,0,0,.54-3c0-.75-.81-1-1.13-1s-1.78.33-2,.38-5.13.54-5.56.54-.81-.27-.81-.7a1.54,1.54,0,0,1,.59-1.35c.22-.11,5.67-1.08,5.73-1.08.32,0,1.4.05,1.72,0s1.62-.33,1.89-.33a16.88,16.88,0,0,1,2.43.81,2,2,0,0,1,1.41,2,1.41,1.41,0,0,1-.11.49c0,.05-.22.27-.22.32a6.1,6.1,0,0,1-.21.92c-.22.11-.27.11-.27.27s-.06.43-.06.49l.11.21c0,.06-.27.16-.27.22,0,.21-.32,1.29-.32,1.51A13.49,13.49,0,0,1,220,35.05a8.85,8.85,0,0,0-.76,3.18C219.3,38.23,219.4,38.34,219.4,38.34Z" fill="#fff"/><path d="M254.39,13.07a12.63,12.63,0,0,0-2.75.7,1.51,1.51,0,0,0-.38,1.08c0,.11.33.76.33.86a5.75,5.75,0,0,0,.1,1.25c.17.16.33.37.65.64-.11.17-.38.71-.54.92,0,.16-.05.22-.05.43,0,.38-.16,1.95-.16,2.16,0,.76.32,4.16.32,4.76,0,.16-.16,1.78-.16,2-.06.44.21,2.49.21,2.87s-.32,1.62-.32,1.89c0,.05.16.37.16.43a3.94,3.94,0,0,1,.11,1.46c0,.37,0,2.48.05,3,0,.32-.27,1.67-.27,1.94,0,1.84,0,3.67-1.13,3.67s-3.29-1.46-3.29-2.64c0-.27,0-.44.54-1a2.25,2.25,0,0,0,.59-1.51c0-3.35.22-8,.27-8.21,0-.7.22-4,.27-4.59.05-.22.32-1.24.32-1.46,0,0-.16-.48-.54-.48s-.59.37-1.56,1.89a8.61,8.61,0,0,0-1,1.51c-.38,1.08-.44,1.19-1.08,1.35-.27,0-.92,1.78-1.08,1.89S243.16,31,243,31.1s-1.14.65-1.25.87a.45.45,0,0,1-.37.32,2.81,2.81,0,0,1-.17.38c-1.29,1-1.62,1.08-2.48,1.08-.16,0-.49,0-.54-.16a.76.76,0,0,1,0-.33c-.49-.59-.54-.64-.54-.81s.75-.48.91-.59a26.81,26.81,0,0,0,3.73-4.32,8.08,8.08,0,0,1,1.67-2.27c.11-.11.44-.92.49-1a2.65,2.65,0,0,0,.86-1.46c.17-.7,2.22-4.16,2.22-4.32,0-1.46,0-1.67.54-2.05.16-.11,1-.16,1.19-.32a2.79,2.79,0,0,0,.21-1.14c0-.38-.16-1-.81-1-.27,0-.38.11-1.83.76-.22.1-1.46.27-1.68.37a7.66,7.66,0,0,1-1.56.65A9.48,9.48,0,0,1,241,14.63a5.83,5.83,0,0,0-.76-.81c-.11-.81-.16-1.51.6-1.51.32,0,1.83.16,2.16.16s1.83-.48,2.16-.48c3.29,0,3.94-.38,3.94-2.11,0-.75-.33-4-.33-4.7V3.73c-.16-.17-.75-1-.86-1.14a2.3,2.3,0,0,1-.32-1A1.51,1.51,0,0,1,248.72,0c.11,0,.27.11,1.41.86.27.17,1.78.54,2,.76A2.69,2.69,0,0,1,253,3.56c-.22,1.52-.54,3.84-.7,4.92a1,1,0,0,1-.43.7c0,.38-.06,2.16.64,2.16.44,0,2.38-.81,2.81-.81s2.22.27,2.22,1.4c0,.11-.11.54-.11.6V13s-.33.16-.49.22Zm-.91,4.7c.1,0,2.7.7,2.91.75a3.74,3.74,0,0,1,2.27,3c0,.43-.32,1.13-1,1.13a14.59,14.59,0,0,1-2.05-.7,4.17,4.17,0,0,1-1.79-2.49l-.32-.32a1.29,1.29,0,0,1-.22-.65C253.31,18.41,253.31,17.77,253.48,17.77ZM265,22.19c.43-.37,3.72-3.4,3.72-3.72,0-.76-.59-.87-1.78-1.19-.27-.11-.92-.86-1.08-.92-1-.43-1.35-.54-1.35-1.19a2.33,2.33,0,0,1,.43-1.13,5.16,5.16,0,0,1,1.57,0c.59.11,3,1.51,3.57,1.51,2.32,0,4.91-6.15,4.91-6.48a1,1,0,0,0-.81-1,13.12,13.12,0,0,0-2.32.43,4.51,4.51,0,0,1-1.57.54c-.21.05-1.19.38-1.4.38s-1.57-.33-1.79-.33c-1.29,0-1.35.38-1.51,1.3a13.94,13.94,0,0,1-2.27,3.18c-.27.27-1.56,1.84-1.72,1.89a26.71,26.71,0,0,1-2.43,1.25c-.17,0-.71.37-.81.37s-.6-.75-.6-1.13c.06-.11.16-.16.16-.32a.63.63,0,0,1,.38-.71c2.27-1.4,2.87-2.53,4.59-6.1.27-.48,1.51-2.37,1.68-2.81a10,10,0,0,0,.91-2.7c0-.16.06-1.83.06-2.16.21-.27.59-.86,1-.86.65,0,3.73.65,3.73,2.16,0,.27-.81,1.3-.87,1.57a12.9,12.9,0,0,1-1,2.1,4.91,4.91,0,0,0-.71,1,.52.52,0,0,0,.49.48,55.77,55.77,0,0,0,5.78-1.67,8.14,8.14,0,0,1,3.18-.76c.11,0,.38.33.65.65s1.62.49,1.84.65a1.46,1.46,0,0,1,.7,1.3c0,.7-.59,1-1.4,1.45a3.21,3.21,0,0,0-1.35,2.43c-.06.11-.54.54-.54.65v.16c-.16.06-.27.06-.44.6-.32,1.29-1.18,2.81-1.94,3.08a.84.84,0,0,0-.16.32c-.22.05-.92.86-1,.92a1.25,1.25,0,0,0-.06,1,13.26,13.26,0,0,1,3.84,2,5.63,5.63,0,0,0,2.37,1.3c.27.16,3.95,2.1,4.54,2.86.16.22.54,1.35.7,1.46,1.3.65,2.38,1.19,2.38,2.54A.49.49,0,0,1,287,29a9.63,9.63,0,0,1-1.51.75c-.92,0-1.3-.64-1.68-1.29-.21-.33-.48-.43-2.59-1.3-.21-.11-1.29-1.29-1.62-1.46a6.83,6.83,0,0,1-1.51-.86c-.7-.65-4.37-3-5.08-3.51-.21-.16-.91-1.24-1.08-1.24-1.62,0-2.05.92-2.8,2.59-.27.65-4.16,3.67-5.73,4.86a.94.94,0,0,0-.38.7,2.73,2.73,0,0,0,.71,1.51,6.42,6.42,0,0,1,1.08,1.57,10.88,10.88,0,0,1-.44,1.08c0,.16.38,1,.38,1.13a8.56,8.56,0,0,0,.33,2.76,5.49,5.49,0,0,0,.43.86,11.23,11.23,0,0,0-.38,1.62.8.8,0,0,0,.11.49c.32.32.75.81.81.86a5.66,5.66,0,0,0,.48-.38,1.32,1.32,0,0,1,.44-.05,6,6,0,0,1,.75-.22,23.9,23.9,0,0,0,4.86-.37c.33-.06,1.84-.17,2.16-.27,1.62-.54,1.62-2.87,1.62-3s.06-1.67.11-2.21c.11-.11.27-.27.27-.33s-.22-.32-.22-.37c0-.38.17-1.79.22-2.06a7.61,7.61,0,0,1,.43-.86,2,2,0,0,0-1.51-1.19,6.27,6.27,0,0,0-3.4.65c-.87.22-2.81.7-4.21,1.08-.71,0-1.52-1-1.52-1.62,0-.05.33-.16.33-.22,0-.21,0-.21.16-.21a8.58,8.58,0,0,0,1.24-.38,47.25,47.25,0,0,1,7.89-1.62c1.45,0,3.67.59,3.67,1.57,0,.1-.27,1.13-.27,1.29a20,20,0,0,1,.92,2.11c0,.11-.33,1.35-.38,1.56a17.72,17.72,0,0,1-.76,3.68c-.11.32-.32,2-.37,2.32-.28,1.4-.76,3.29-1.46,3.83-.7.11-1,.06-1.24-.21-1-1.25-1.14-1.41-1.52-1.41s-2.59.43-3,.49c-4.32.32-5,.48-6.05,1.19a.91.91,0,0,1-.59.16c-3.19,0-3.46-6.81-3.46-8.64,0-.27-.11-1.68-.11-1.95,0-.1.43-.81.49-1a4.41,4.41,0,0,0,.05-.81c0-.7-.27-1.73-1-1.73-.32,0-1.35,1.14-1.62,1.19a4.28,4.28,0,0,1-.81.27c-.22.11-1.24.7-1.46.81l-2,.65a2.34,2.34,0,0,1-.7.16c-.49,0-.76-1.08-.76-1.35a1.62,1.62,0,0,1,.43-.43c.27-.7.38-.7,1.3-.81s4.91-2.86,5.13-3.08c1.08-1.08,3-2.64,4.05-3.83C264.87,22.46,264.87,22.46,265,22.19Z" fill="#fff"/></g></g></svg>