<svg xmlns="http://www.w3.org/2000/svg" viewBox="0 0 40.49 205.88"><g id="Layer_2" data-name="Layer 2"><g id="design"><path d="M2.6,25.35a.49.49,0,0,1,.48-.49c.26,0,1.5.49,1.76.49,0,0,1-.4,1-.44.05-.27,1-.66,1.28-.79a15.92,15.92,0,0,0,1.36-1.06,11.63,11.63,0,0,0,2.42-1.76,3.35,3.35,0,0,1,.62-.57c.09-.05,1.1-.18,1.1-.35s-.13-.14-.09-.14.09-.39.09-.44a20,20,0,0,1,.18-3.3c0-.31,0-2,.08-2.29s.36-1.05.36-1.23-.14-.48-.58-.48a9.28,9.28,0,0,0-2.42.79c0,.31-2,.75-2.37.92a1.77,1.77,0,0,1-.88.31,3,3,0,0,1-2.56-2.77.59.59,0,0,1,.62-.66c.27,0,1.28.35,1.5.35.79,0,4.53-1,4.93-1,.22,0,1,.53,1.18.53S13,10,13,9.9s-.31-.66-.31-.79,0-.18,0-1.23c0-.22-.17-1.41-.17-1.67a11,11,0,0,0-.09-1.72c-.84-1-1.1-1.28-1.1-1.63,0-.61.75-1.8,1.45-1.8a8,8,0,0,1,1.36.7,3.1,3.1,0,0,1,1.94,2.73c0,.35-.53,2.07-.53,2.2,0,.53-.13,2.29-.13,2.73,0,.17.09,1,.09,1.1a3,3,0,0,0-.35.66c0,.57,0,3.17,0,3.7-.05.74-.14,2.55-.18,3.21a6.83,6.83,0,0,0,.26.74c0,.14-.22.71-.22.8,0,.44.14,2.33.14,2.73,0,.61-.18,3.21-.18,3.74,0,.17.13,1,.13,1s-.26,1.76-.26,1.89v2.07c-.13.57-.53,1.1-1,1.1-.14,0-2.42-1.63-2.42-2.42a2.43,2.43,0,0,1,.08-.75,1,1,0,0,0,.36-.13c.52-.92.52-1.14.52-3,0-.18.44-2.69.44-3.22,0-.26,0-.44-.13-.44a8.39,8.39,0,0,0-.92.8l0,.35c0,.09-.44.17-.66.22,0,.13-2.46,3-3.83,3.43-.35.13-.7,1.19-.7,1.28A7,7,0,0,1,4.93,29c-1.06,0-2.29-2.15-2.29-3.16C2.64,25.79,2.6,25.44,2.6,25.35ZM30.67,28.3c.09,0,1.63-.36,1.81-.4a7.16,7.16,0,0,0,1.76-.26c.17-.18,1.32-.53,1.41-.66.92-1.24,1-3.57,1-5.15,0-.31.13-.75.61-.75s.49,0,.84,1.28c0,.17.53.92.57,1.1s.09,1.18.13,1.4a7.83,7.83,0,0,0,.66,1.28c.44.18.44.92.44,1.14,0,1.5-.39,1.72-1.4,2.29-1.28.75-1.41.84-2.12.84-.26,0-1.71.44-1.76.44-.57,0-6.11-.18-6.16-.18A26.65,26.65,0,0,1,25,30a7.06,7.06,0,0,1-1.89-1c-.66-.84-1.54-2-1.59-2.07A7.22,7.22,0,0,0,21,25c0-.35.13-2,.13-2.29,0-.08-.22-2.95-.22-3.43a9.75,9.75,0,0,1,0-1.1,3.76,3.76,0,0,0,.18-.62c0-.08-.18-.35-.18-.43,0-.4.14-3.48.14-4.14,0-.44.39-2.38.39-2.77s-.35-1.41-.35-1.63c0,0,.13-1.41.13-1.72a34.07,34.07,0,0,0-.09-3.52,6,6,0,0,0-.7-1.23c-.13,0-.13,0-.13-.09,0-.44.09-2,.66-2s.79.09,2.33.92c.09.09.7.31.79.4A2.47,2.47,0,0,1,25,3.39a2.73,2.73,0,0,1-.22,1.19s-.31.61-.35.7a6.36,6.36,0,0,0,.09,1,32.92,32.92,0,0,1-.93,3.17c0,.35.44,1.32.44,1.67a21.16,21.16,0,0,1-.13,2.46c0,.27-.44,1.33-.44,1.59s.13.83.13,1c0,.39-.39,5.41-.39,6.47v.92c0,.18.22,1.19.26,1.36a14.9,14.9,0,0,0,1.19,2.2,1,1,0,0,0,.53.22c.09,0,.53-.08.53,0,0,.31,0,.35.35.4a3.76,3.76,0,0,0,.39.17,4,4,0,0,0,2,.44c.58,0,1.32-.09,1.9-.13A.83.83,0,0,0,30.67,28.3ZM25,12.81a2.07,2.07,0,0,0,1.5-.8c.22-.17,1.19-.88,1.36-1a13.43,13.43,0,0,0,2.6-2.77,18.29,18.29,0,0,0,1.14-1.81c.13-.35.09-2.2.4-2.42a4.11,4.11,0,0,1,.39-.48,1.65,1.65,0,0,1,1.06-.4,1,1,0,0,1,.84.31c.13.48.92,2.82.92,3A4,4,0,0,1,33.75,9s0,.13-.08.22S33.09,10,33,10s-1.72,1.28-1.72,1.37v.17c.05.14-.44.09-.48.14a1.53,1.53,0,0,1-.26.26l-.09.22a2.07,2.07,0,0,0-1.81,1c-.39.57-2.64,1.1-3.65,1.19a.32.32,0,0,1-.31-.22S24.64,12.89,25,12.81Z" fill="#fff"/><path d="M13.77,68.34a.29.29,0,0,1,.31.26c0,.09-.13.57-.13.66s.22.92.22,1.06c0,.44-.48.66-.92.66s-.53-.09-1.24-.93c-.08-.09-.48-.22-.52-.31A3.38,3.38,0,0,1,11,68.29c-.39-2.46-.83-8.23-.83-9.81V57.07c0-.18-.18-.88-.18-1s.18-2.25.18-2.51-.31-1.36-.31-1.63a6.84,6.84,0,0,1,.53-1.67.27.27,0,0,1,.17,0c.09,0,.31.3.35.35a9.4,9.4,0,0,1,1,.92A14.94,14.94,0,0,0,13,52.63a1.65,1.65,0,0,1,.22.92c0,.31-.39,1.54-.39,1.8s.22.66.22.8v1.67h.08c.18-.49.18-.62,4.62-1,.36,0,3-.66,3.22-.7a46.32,46.32,0,0,0,9.15-1.63c.26-.05,1.36-.75,1.63-.75s3.3.84,3.3,2.07c0,1-.66,1.76-1.23,1.76-.13,0-2.12-.49-2.56-.49-.22,0-1.36.22-1.58.22s-.4-.44-.44-.44a.65.65,0,0,1-.35.18,1.5,1.5,0,0,1-.44,0c-.31,0-1.63,0-1.63.49a3.17,3.17,0,0,0,.26.79,3.28,3.28,0,0,1,.22,1.15A48.85,48.85,0,0,1,26,67.15a13.9,13.9,0,0,1-.4,1.63c-.31.35-.66.88-.79,1-.57,0-2,.62-2,1.06a.25.25,0,0,0,.22.26,18.36,18.36,0,0,1,1.8-.44c1.1-.17,1.9-.26,8.85-1,.31,0,1.58-.27,1.85-.27a4.56,4.56,0,0,1,2,1c.22.18,1.41.71,1.58.88a.87.87,0,0,1,.27.62,1.35,1.35,0,0,1-.93,1.32c-.13.09-.44.44-.53.49a.8.8,0,0,1-.31,0,20.47,20.47,0,0,1-3-.92c-.22-.09-1.1-.09-1.27-.18-.31-.27-.36-.31-.49-.31-.44,0-3.43,0-3.87.09-.75.09-2.16.17-2.6.22a8.06,8.06,0,0,1-1.54-.18,2.25,2.25,0,0,0-.7-.3c-.22,0-3.48.3-4,.35-.88.13-1.23.22-1.58.26-.14,0-1.15.26-1.19.26a8.79,8.79,0,0,0-1.54.09,49.63,49.63,0,0,1-5.46.84c-.18,0-1,.09-1.19.09-.35.09-1.94.61-2.33.66s-1.23.17-1.58.17c-1.06,0-1.59-.48-2.56-1.32A9.2,9.2,0,0,1,2,73a1.62,1.62,0,0,1-.26-.88c0-.57.4-.66.48-.66S3.65,72,3.92,72s1.1-.31,1.27-.31c1.68,0,1.85,0,2.69,0,.17,0,1,.22,1.27.22l1.24-.09a8.55,8.55,0,0,1,1-.26c.05,0,.71.17.71.17s.66-.13.79-.13a46.32,46.32,0,0,0,4.8-.53c3.17-.44,3.56-.52,4.13-.92,1.37-.92,1.63-3,1.76-4.31,0-.27.44-1.41.44-1.67,0-.66.18-3.61.18-4.23a1.13,1.13,0,0,0-.31-1,10.8,10.8,0,0,1-.35-1.1c0-.09-.18-.09-.22-.09s-1,.18-1.1.18-.84.35-1,.35-.62-.17-.66-.17-.26.35-.35.39a3.31,3.31,0,0,1-2.16.57c-.17,0-1.19.49-1.41.49a13,13,0,0,1-2.42-.75c-.79,0-.88,0-.92-.09s-.18-.66-.26-.66,0,.66,0,.71a2,2,0,0,0-.09.7,2.64,2.64,0,0,0,.31,1.37.41.41,0,0,1,.09.26c0,.09-.09,1.36-.09,1.63,0,.48.13,2.59.13,3s-.08,2.33,0,2.73A1.56,1.56,0,0,1,13.77,68.34Zm-1.1-18.93c1,0,4-1.36,4.49-1.58s3.3-1.8,3.88-2a5,5,0,0,0,.66-.3,7.06,7.06,0,0,1,.83-.71c.4,0,.44,0,.44-.13v-.18c0-.08.35-.35.35-.44,0-.7,0-1.84.4-1.84,0,0,2.73,1,2.77,1,.22.35,1,1.23,1,1.5,0,.7-.31.87-1.45,1.71a10,10,0,0,1-1.19.75,11.92,11.92,0,0,1-1.32.44c-.44.13-2.25,1.1-2.64,1.23a28,28,0,0,1-6.47,1.45c-.26,0-1.72.36-1.85.36s-.53-1-.48-1C12.15,49.41,12.5,49.41,12.67,49.41Z" fill="#fff"/><path d="M16.72,106.17c-.13.14-1,2-1.32,2.29a16,16,0,0,1-2.46,2.47c0,.17-.79.57-.88.61-.27.14-1.45.93-1.59,1a6.39,6.39,0,0,1-1.76.27,3,3,0,0,1-.83-.09,12.37,12.37,0,0,1-1.19-1.45,14.45,14.45,0,0,1-.79-3c0-.13.17-.88.17-1,0-2.77,0-3.12.66-4.48A24,24,0,0,1,8.1,99.31c.92-.75,1-.84,1.05-1.06.14-.79.14-.88.31-.88a16.15,16.15,0,0,1,1-1.36c.26-.26,1.45-1.54,1.76-1.76.48-.31,2.6-1.89,3.08-2.16a5.23,5.23,0,0,1,1.85-.7c.79,0,1.36,0,1.41-.44,0-.13.61-.13.7-.18s1.36-.88,1.45-.88.18,0,.66.31a2.22,2.22,0,0,0,1.06.22c.18,0,1.14,0,2.07.09.17,0,.92.35,1.05.35s.75-.09.88-.09a26.48,26.48,0,0,1,2.86.88c.84.31,1,.49,1.81,1.5a9.75,9.75,0,0,0,.92.61c2.2,2.07,2.42,2.86,2.91,4.54.09.31.61,1.54.66,1.8a16.32,16.32,0,0,1,.17,2.29,6.65,6.65,0,0,1-.88,3.92c-.17.39-.48,2.2-.61,2.55-1.63,3.65-6.34,6.56-8.41,6.56,0,0-.17-.14-.22-.14s-.48.71-.61.71-.88.61-1.06.66a3.2,3.2,0,0,1-.62.09c-.7,0-.88-.22-.88-.84,0-.84,0-1.14,1.94-1.41a1.14,1.14,0,0,0,1-.44,8.06,8.06,0,0,1,1.54-.79c0-.09.17-.53.22-.62,1-.26,2.2-1.76,2.86-2.68,0-.26,0-.26.17-.26.22-.4.31-.53.84-1.41a17.12,17.12,0,0,0,1.19-3.22c0-.26.17-1.27.17-1.49,0-4,0-4-.61-4.8-.09-.17-.13-1-.18-1.1a27.3,27.3,0,0,0-2.07-2.77.94.94,0,0,1-.17-.31c0-.18-1.06-.44-1.23-.53s-1-.79-1.15-.88-1.05-.31-1.23-.44A6.55,6.55,0,0,0,23,92c-1,0-1.14,1.1-1.14,1.72,0,.31-.35,2.24-.93,2.33a18.38,18.38,0,0,0-.22,1.9,13.72,13.72,0,0,1-1.8,4.26,24.69,24.69,0,0,1-1.45,3.13ZM14.17,106a2.76,2.76,0,0,1,.22-.48c.22,0,.26,0,.35-.44a4.41,4.41,0,0,1,1-1.36c.05-.14.27-.71.31-.8s.4-.61.44-.7a5.41,5.41,0,0,1,.09-.84,10.91,10.91,0,0,0,1.23-3.78,4.51,4.51,0,0,1,.35-.44c0-.09.66-2.9.66-3.17,0-.53-.3-1.1-.79-1.1a4,4,0,0,0-1.76.57c-.13.18-.83,1-.92,1.1S15,94.6,14,95.61c0,0-.53.14-.53.22s-.26.22-.26.31a1,1,0,0,1-.36.66,3.49,3.49,0,0,0-.66.75s-.26,0-.26.09a.53.53,0,0,1-.09.35,8.7,8.7,0,0,0-.79.92c-.09.14-.18.8-.26.93a4.94,4.94,0,0,0-.88,1.8s-.09.13-.18.18l-.18,0,.09.18c0,.09-.26.39-.31.48A22.77,22.77,0,0,0,9,105.38c-.05.18-.31,1.5-.31,1.59,0,.74,0,3,.92,3a2.2,2.2,0,0,0,1.81-1c.09,0,.39-.08.48-.22l0-.09A17.14,17.14,0,0,0,14.17,106Z" fill="#fff"/><path d="M6.47,149.91a1.15,1.15,0,0,0,.13.53s.22.09.27.09.39,2.07.52,2.46.62,3,.8,3.57.7,2.64.79,3.08c.22,0,.22,0,.31.7,0,.31.08.84.08,1,.05.49-.22.71-.7.71a1.34,1.34,0,0,1-1.5-.93,2.76,2.76,0,0,0-.83-.7,11.8,11.8,0,0,1-.4-1.54c0-.27-.61-1.19-.66-1.41-.18-1.1-.57-3.7-.75-5.06a2.17,2.17,0,0,1,.14-.75,7.34,7.34,0,0,0,.35-.83,4.94,4.94,0,0,1-.44-.84c0-.26.17-.62.48-.62a3.1,3.1,0,0,1,1,.18S6.47,149.82,6.47,149.91Zm7.61.79a.65.65,0,0,0-.09-.17s-.48.22-.57.22-.75-.13-.83-.13-.44.22-.88.39a2.19,2.19,0,0,1-.75.13c-.09,0-.49-.08-.49-.08s-.66.26-.74.26c-.66,0-1.37-.66-1.37-1,0-.05.05-.09.4-.4,0,0,0-.22.09-.26.26-.13,1.58-.49,1.84-.62s2.56-.44,3-.53,2.64-.61,2.86-.61,2.72.26,2.72.26a1.57,1.57,0,0,1,.89,1.23c0,.05,0,.14-.05.18-.57.7-.66.79-.66,1.36a10,10,0,0,1-.4,3.39c-.08.44-.3,2.42-.39,2.82a18.49,18.49,0,0,1-.44,2.2c0,.09-.49.26-.57.35s-.18.27-.22.31c-.27,0-1-.18-1.19-.18a7.41,7.41,0,0,0-2.16.22,4.48,4.48,0,0,1-1.41.22c-.17.05-.52.18-.88.27-.92-.31-1.89-.88-1.89-1.76,0-.49.57-.62,1.1-.62a15.3,15.3,0,0,0,4.14-.44s0,0,.17-.26.49-.18.53-.27a34.73,34.73,0,0,0,.84-6,.85.85,0,0,0-.27-.7c-1.14.13-1.67.13-2.28.18Zm.22-12.41c.09.22.09,1.41.22,1.59s.27.35,1.41.35c.31,0,1.54-.4,1.8-.4a22.56,22.56,0,0,0,2.78-.13c.31,0,1.93-.26,2.07-.26l1.76,0c.79,0,1-1,1.05-1.19.18-.79.75-4.4.75-5s-.57-.44-1-.44c-1,0-4.84.57-5.59.7a17.42,17.42,0,0,1-2,.71c-.09,0-1.76-.71-1.76-1.14,0-.84.44-.93,2.59-1.28.62-.09,3.48-.62,4.05-.7.84-.14,4.84-.36,4.89-.36a17.56,17.56,0,0,1,2.07.27.9.9,0,0,1,.74,1,14.5,14.5,0,0,1-.39,1.41c-.13.57-.75,3.39-.84,3.91-.09.31-.57,1.63-.61,1.9-.58,2.46-1.94,2.86-2.38,2.86a.74.74,0,0,1-.44-.22c-.53-.71-.57-.8-1-.8-.57,0-3.21.44-3.74.44a1.47,1.47,0,0,0-.44,0c-.22,0-1.19.26-1.36.26-2.95,0-3.26,0-4,.75-.35.31-.44.4-.75.4-1.06,0-1.32-.62-1.67-1.45-.13-.31-.84-1.76-.88-1.94a16.49,16.49,0,0,1-.49-4.14c0-2,.09-3.08.93-3.08a1.26,1.26,0,0,1,1.14,1,17.44,17.44,0,0,0,.62,2.38c0,.22.09.75.09,1.1,0,.53,0,.88.22.92C14.17,137.85,14.17,137.9,14.3,138.29Zm21.08,20.6a10.07,10.07,0,0,1-1,1s-.79.35-.83.35a9.38,9.38,0,0,1-1.63-.61,2.36,2.36,0,0,0-.88-.18c-.31,0-1.81.27-1.85.27s-.35.13-.4.13a14.51,14.51,0,0,0-2,.09,12.94,12.94,0,0,0-1.23.44c-1.23,0-2.16-4-2.16-4.27s.05-1.41,0-1.63-.17-1-.17-1.1.26-.35.26-.4c0-.22-.18-1.19-.18-1.36a2.23,2.23,0,0,1,.14-.88c0-.09.22-.4.22-.44s-.49-1.19-.49-1.41,0-.26.22-.26c1.45,0,2,.3,2,1.32,0,.7.53,3.74.53,4.35a2.08,2.08,0,0,1-.13.4c0,.09.22.66.22.75.22,1.58.35,2.33,1,2.33s3.12-.35,3.65-.35c.79-.05,1.93-.18,2-.71a10.89,10.89,0,0,1,.57-1.19,31.54,31.54,0,0,0,.75-3.43,7.65,7.65,0,0,0,.44-2.42c0-.61-.66-.79-.92-.79a15.21,15.21,0,0,0-1.63.31c-.22.09-4.18.44-4.54.44s-.66-.22-.66-.57a1.23,1.23,0,0,1,.49-1.1c.17-.09,4.62-.88,4.66-.88.27,0,1.15,0,1.41,0s1.32-.27,1.54-.27a12.77,12.77,0,0,1,2,.66,1.66,1.66,0,0,1,1.15,1.63,1.18,1.18,0,0,1-.09.4s-.18.22-.18.26a5.06,5.06,0,0,1-.17.75c-.18.09-.22.09-.22.22s0,.35,0,.39l.09.18s-.22.13-.22.18-.26,1.05-.26,1.23a11.37,11.37,0,0,1-.88,3.48,7.19,7.19,0,0,0-.62,2.59S35.38,158.89,35.38,158.89Z" fill="#fff"/><path d="M13.73,181.41a10.27,10.27,0,0,0-2.24.58,1.21,1.21,0,0,0-.31.88c0,.08.26.61.26.7a4.19,4.19,0,0,0,.09,1,5.16,5.16,0,0,0,.53.53c-.09.13-.31.57-.44.75s0,.18,0,.35-.13,1.58-.13,1.76c0,.62.27,3.39.27,3.87,0,.14-.14,1.46-.14,1.63,0,.35.18,2,.18,2.33s-.26,1.32-.26,1.54c0,0,.13.31.13.36a3.16,3.16,0,0,1,.09,1.18c0,.31,0,2,0,2.42s-.22,1.37-.22,1.59c0,1.5,0,3-.92,3s-2.69-1.19-2.69-2.15c0-.23,0-.36.44-.84a1.8,1.8,0,0,0,.49-1.23c0-2.73.17-6.52.22-6.69,0-.57.17-3.26.22-3.74,0-.18.26-1,.26-1.19s-.13-.4-.44-.4-.49.31-1.28,1.54A7.42,7.42,0,0,0,7,192.42c-.31.88-.35,1-.88,1.1-.22,0-.75,1.45-.88,1.54s-.7,1-.88,1.05-.92.53-1,.71-.13.22-.31.26a2.42,2.42,0,0,1-.13.31c-1.06.79-1.32.88-2,.88-.13,0-.39-.05-.44-.13a.63.63,0,0,1,0-.27c-.4-.48-.44-.53-.44-.66s.62-.39.75-.48a21.54,21.54,0,0,0,3-3.52,6.75,6.75,0,0,1,1.37-1.85c.09-.09.35-.75.39-.79a2.2,2.2,0,0,0,.71-1.19c.13-.57,1.8-3.39,1.8-3.52,0-1.19,0-1.36.44-1.67.13-.09.84-.14,1-.27a2.07,2.07,0,0,0,.18-.92c0-.31-.13-.79-.66-.79-.22,0-.31.08-1.5.61-.18.09-1.19.22-1.36.31a6.52,6.52,0,0,1-1.28.53,7.71,7.71,0,0,1-2.07-1,4.77,4.77,0,0,0-.61-.66c-.09-.66-.14-1.23.48-1.23.26,0,1.5.13,1.76.13s1.5-.4,1.76-.4c2.69,0,3.21-.3,3.21-1.71,0-.62-.26-3.26-.26-3.83V173.8a11.2,11.2,0,0,1-.7-.92,1.81,1.81,0,0,1-.27-.84,1.24,1.24,0,0,1,1-1.28c.09,0,.22.09,1.14.71.22.13,1.46.44,1.63.61a2.17,2.17,0,0,1,.71,1.59c-.18,1.23-.44,3.12-.58,4a.72.72,0,0,1-.35.58c0,.3,0,1.76.53,1.76.35,0,1.94-.66,2.29-.66s1.8.22,1.8,1.14c0,.09-.09.44-.09.48v.36s-.26.13-.39.17ZM13,185.24c.09,0,2.2.57,2.38.62a3.06,3.06,0,0,1,1.85,2.46c0,.35-.27.93-.8.93a12.76,12.76,0,0,1-1.67-.58,3.34,3.34,0,0,1-1.45-2l-.26-.26a1.08,1.08,0,0,1-.18-.53C12.85,185.77,12.85,185.24,13,185.24Zm9.38,3.61a27.93,27.93,0,0,0,3-3c0-.61-.48-.7-1.45-1-.22-.09-.75-.71-.88-.75-.84-.35-1.1-.44-1.1-1a1.75,1.75,0,0,1,.35-.92,3.92,3.92,0,0,1,1.28,0c.48.08,2.46,1.23,2.9,1.23,1.89,0,4-5,4-5.28a.84.84,0,0,0-.66-.84,11.92,11.92,0,0,0-1.9.35,3.44,3.44,0,0,1-1.27.44,9.8,9.8,0,0,1-1.15.31c-.22,0-1.27-.26-1.45-.26-1.05,0-1.1.31-1.23,1.05a12,12,0,0,1-1.85,2.6c-.22.22-1.28,1.5-1.41,1.54a20.55,20.55,0,0,1-2,1,6.26,6.26,0,0,1-.66.31c-.17,0-.48-.62-.48-.92,0-.09.13-.14.13-.27a.51.51,0,0,1,.31-.57c1.85-1.14,2.33-2.07,3.74-5,.22-.4,1.23-1.94,1.36-2.29a8,8,0,0,0,.75-2.2c0-.13,0-1.5,0-1.76.18-.22.49-.71.8-.71.53,0,3,.53,3,1.77,0,.21-.66,1.05-.7,1.27a9.81,9.81,0,0,1-.84,1.72,4,4,0,0,0-.57.83.43.43,0,0,0,.4.4,48.76,48.76,0,0,0,4.71-1.36,6.63,6.63,0,0,1,2.59-.62c.09,0,.31.26.53.53s1.32.39,1.5.53a1.17,1.17,0,0,1,.57,1c0,.57-.48.84-1.14,1.19a2.65,2.65,0,0,0-1.11,2c0,.09-.44.44-.44.53v.13c-.13,0-.22,0-.35.48a4,4,0,0,1-1.58,2.51.61.61,0,0,0-.13.27c-.18,0-.75.7-.8.74a1.08,1.08,0,0,0,0,.84,10.79,10.79,0,0,1,3.12,1.63,4.79,4.79,0,0,0,1.94,1.06,23.42,23.42,0,0,1,3.7,2.33c.13.17.44,1.1.57,1.19,1.06.52,1.94,1,1.94,2.06a.41.41,0,0,1-.18.36,8.78,8.78,0,0,1-1.23.61c-.75,0-1.06-.53-1.37-1-.17-.27-.39-.36-2.11-1.06-.18-.09-1.06-1.06-1.32-1.19a5.92,5.92,0,0,1-1.23-.7c-.57-.53-3.57-2.47-4.14-2.86-.17-.14-.75-1-.88-1-1.32,0-1.67.75-2.29,2.12-.22.53-3.38,3-4.66,4a.74.74,0,0,0-.31.57,2.28,2.28,0,0,0,.57,1.23,5.25,5.25,0,0,1,.88,1.28c0,.17-.35.79-.35.88s.31.79.31.92a6.78,6.78,0,0,0,.26,2.25,7.29,7.29,0,0,0,.35.7,10.49,10.49,0,0,0-.3,1.32.65.65,0,0,0,.09.4c.26.26.61.66.66.7a4.3,4.3,0,0,0,.39-.31,1.08,1.08,0,0,1,.35,0,5.65,5.65,0,0,1,.62-.18,18.82,18.82,0,0,0,4-.31c.26,0,1.5-.13,1.76-.21,1.32-.45,1.32-2.34,1.32-2.47s0-1.36.09-1.8c.09-.09.22-.22.22-.27s-.18-.26-.18-.31a16.13,16.13,0,0,1,.18-1.67,5.05,5.05,0,0,1,.35-.7,1.6,1.6,0,0,0-1.23-1,5.1,5.1,0,0,0-2.77.53c-.71.17-2.29.57-3.44.88-.57,0-1.23-.84-1.23-1.32,0-.05.27-.13.27-.18s0-.17.13-.17a7.45,7.45,0,0,0,1-.31,38.6,38.6,0,0,1,6.42-1.32c1.19,0,3,.48,3,1.27,0,.09-.22.93-.22,1.06a16.26,16.26,0,0,1,.75,1.72c0,.08-.27,1.1-.31,1.27a14.15,14.15,0,0,1-.62,3c-.09.27-.26,1.63-.31,1.9-.22,1.14-.61,2.68-1.19,3.12-.57.09-.83.05-1-.17-.83-1-.92-1.15-1.23-1.15s-2.11.35-2.46.4c-3.52.26-4.1.39-4.93,1a.78.78,0,0,1-.49.13c-2.59,0-2.81-5.55-2.81-7,0-.22-.09-1.37-.09-1.59s.35-.66.39-.79a2.94,2.94,0,0,0,.05-.66c0-.57-.22-1.41-.79-1.41-.27,0-1.1.93-1.32,1a4.64,4.64,0,0,1-.66.22L16,196.2l-1.67.53a2.08,2.08,0,0,1-.58.13c-.39,0-.61-.88-.61-1.1a1.19,1.19,0,0,1,.35-.35c.22-.57.31-.57,1.06-.66s4-2.33,4.18-2.51c.88-.88,2.46-2.16,3.3-3.12C22.27,189.07,22.27,189.07,22.36,188.85Z" fill="#fff"/></g></g></svg>