<svg xmlns="http://www.w3.org/2000/svg" viewBox="0 0 28.69 129.81"><g id="Layer_2" data-name="Layer 2"><g id="design"><path d="M1.16,8.8A8,8,0,0,1,2.55,7.55c.14-.14.2-.17.24-.34.1,0,.1,0,.2-.17s.34-.21.38-.28C3.64,6.53,4.73,5.2,5,5a4.83,4.83,0,0,1,.68-.54,6.18,6.18,0,0,1,.75-1.26,2.27,2.27,0,0,0,.24-.88c0-.1-.27-.58-.27-.68A.77.77,0,0,1,6.77.92S6.9.48,7,.44A.47.47,0,0,1,7.38.27c.3,0,.41.1,1.39.92.07.1.58.31.61.41a.72.72,0,0,1,.11.34c0,.44-.11.58-.82,1.87a.59.59,0,0,0-.1.3.1.1,0,0,0,.1.1c.3,0,4.15-1.15,4.38-1.15.07,0,.31.31.38.41s.41.13.47.17a1.58,1.58,0,0,1,.24.71c0,.44-.78.55-1.87.55-.27,0-1.94.3-1.94.54s1.3.68,1.5.81a1.63,1.63,0,0,1,.71,1c0,.06-.06.78-.06.91a1.27,1.27,0,0,0-.24.14c-.24-.1-1.06-.41-1.29-.48-.07,0-.58-.06-.58-.17a5,5,0,0,0-.75-.92c-.07-.17-.1-1.08-.24-1.08l-.64,0c-.14,0-.75-.34-.92-.34-.58,0-1.26.85-1.74,1.43,0,0-.2.1-.2.14-.24.47-.81.88-1.94,1.66-.13.07-.61.61-.74.68a6.39,6.39,0,0,0-2,1,.23.23,0,0,1-.2.07c-.48,0-.92-.65-1-.82s.75-.54.88-.64S1.12,8.84,1.16,8.8ZM4.28,20.3c0-.45.14-1.33.14-1.5s-.07-.54-.07-.65.1-.81.1-.95S4.28,16,4.28,15.77s.24-1.56.24-1.83S4,12.41,4,12.14c0-.11.31-.17.44-.17.55,0,.62.06,1.13.51a1.62,1.62,0,0,0,.88.34c.34,0,2.14-.72,2.51-.72a1.38,1.38,0,0,1,1.16.92.49.49,0,0,1-.37.44c-.58.1-2.28.44-2.59.44-.13,0-.61-.2-.71-.2a.44.44,0,0,0-.41.41c0,.17.31.78.31.92a2.48,2.48,0,0,1-.11.64,7.71,7.71,0,0,0-.13,1.6c0,1.6,0,4.28,0,5.92,0,.3-.06,1.73-.06,2s.17.58.17.72a2.13,2.13,0,0,1-.14.37,8.15,8.15,0,0,0-.13.92c0,.3,0,1.53,0,1.83,0,.07-.14.48-.24.48l-1,0c-.68,0-.89-.78-.89-1.42,0-.79.17-3.68.41-6.53C4.28,21.32,4.25,20.77,4.28,20.3Zm3.84-11,3.27-.44c.17,0,.92.17,1.09.17,1,0,1.25,0,1.25.48a2.48,2.48,0,0,1-.1.71c-.24.41-.27.44-.27.51a34.45,34.45,0,0,1-.48,4.8c-.06.17-.3.64-.5.68a15.18,15.18,0,0,0-2.52.57,14.63,14.63,0,0,1-1.43.51,9.72,9.72,0,0,1-1.63-.64,1.11,1.11,0,0,1-.1-.41c0-.2.13-.24.47-.24.51,0,2.62-.68,3.06-.68.17,0,1,0,1-.37,0,0-.1-.31-.1-.34,0-.24.24-1.23.24-1.4a3.09,3.09,0,0,0-.1-.37c0-.1.17-.61.17-.75s-.07-.64-.07-.75.13-.13.13-.23a2.07,2.07,0,0,0-.37-.82,1,1,0,0,0-.58-.2c-.34,0-2.34.54-2.48.57a8.79,8.79,0,0,1-1,.41c-.48,0-1.43-.47-1.43-.75s.1-.3.24-.3C6.12,9.65,7.75,9.35,8.12,9.31Zm6.06,16.36c.51-.14,3.12-.17,3.29-.61a10.65,10.65,0,0,0,.31-1.87c0-.55.07-2.86.07-3.34a.75.75,0,0,0-.78-.47c-.28,0-.48,0-1.26.1a11.85,11.85,0,0,1-1.26.37A1,1,0,0,1,13.5,19c0-.24,1.25-.68,1.49-.72s.78-.1.92-.13S16.86,18,17,18l1.15,0a3.72,3.72,0,0,1,1.7.17.77.77,0,0,1,.38.58c0,.17-.31,1-.31,1.19s0,.89,0,1-.21,1.09-.21,1.26a20.7,20.7,0,0,1-.61,4.52.81.81,0,0,1-.85.51c-.24,0-.27,0-.68-.44-.1-.14-.75-.27-.88-.31s-2.21.44-2.31.48a2.23,2.23,0,0,1-.68.2c-.14,0-.72-.24-.82-.24s-.92.65-1.09.65c-.85,0-.95-.95-1-2.28,0-.27-.24-1.42-.24-1.66a8.36,8.36,0,0,0-.13-2.11,1.08,1.08,0,0,1,0-.17,3.33,3.33,0,0,1,.24-.88c0-.07,0-.48,0-.55s-.07-.88-.07-.92.17-.17.41-.17.17,0,.23.34l.82.58c.31.21.34.27.34.44s-.07.75-.07.89c0,1,.21,1.15.61,1.15s2.21-.51,2.59-.51c.07,0,.81.72.81,1.06s-.17.41-1.15.47c-.21,0-1.12.28-1.33.28s-1.42-.34-1.46-.34-.17.06-.17.17.27,2.44.34,2.65A5.19,5.19,0,0,0,14.18,25.67Zm13-20.81c-.11.21-.34.21-.68.21A2.08,2.08,0,0,1,26,5a5,5,0,0,1-1.22-.1,3,3,0,0,0-.55-.44.51.51,0,0,0-.23,0c-.24,0-.92.1-.92.4s.41,1,.41,1.19c0,.82-.89,1.16-2,1.57-.13.07-1.42.54-1.49.54s-.21,0-.21-.17a1.41,1.41,0,0,1,.24-.51c0-.13,0-.24.1-.24s.07-.13.14-.2,1.29-1,1.29-1.7c0-.24-.41-.37-.68-.37s-1.46.34-1.7.34-.81-.14-.95-.14-1.67,1.84-1.87,2c-.44.27-.61.41-.88.41A.71.71,0,0,1,15,7.17a13.27,13.27,0,0,1-.41-1.59c.07,0,.92-.38,1-.45a8.18,8.18,0,0,0,2.17-3.91c0-.13-.2-.68-.2-.78A.55.55,0,0,1,17.92,0c.17,0,.68.65.81.71.82.51,1.06.68,1.06,1.13a.71.71,0,0,1-.07.27c-.07.17-.58,1-.61,1s.06.51.13.51,5.71-1,6.12-1c.24,0,.65,0,.68.34,0,0,1.22.27,1.33.31a.64.64,0,0,1,.34.44c0,.2-.1.78-.14,1A.56.56,0,0,0,27.2,4.86Zm-9.15,6.19c0,.17-.13.75-.13.88s.06.72.37.72c.14,0,2.86-.72,3.13-.72s.41.07.81.55a4.06,4.06,0,0,1,.41.54c0,.27-.2.31-.37.34a19,19,0,0,1-2.14.34h-1c-.13,0-.85-.31-1-.31-.37,0-.4.38-.4.58,0,1.6,0,1.77.51,1.77.2,0,1.08-.31,1.29-.31A5.9,5.9,0,0,0,21,15.3c.21,0,1.09-.27,1.26-.27l.41,0c.27,0,.41,0,.41.14s0,.27.17.4a1.11,1.11,0,0,1,.44.68c0,.17-.41.31-.48.31s-.91-.17-1.08-.17a4.75,4.75,0,0,0-1.13.31c-.23.06-2.51.27-2.65.27s-1.46-.68-1.66-.75-.24-.31-.31-.31-.27-.44-.27-.74S16,12.92,16,12.54A8.06,8.06,0,0,1,16.56,10c.06-.11.13-.11.81-.24A5.17,5.17,0,0,1,18.05,11.05Zm8.87,2.79c0,.1-.1.61-.1.71,0,.51-.1,1.67-.1,2.14,0,.27.14,1.77.14,1.84s-.24,1-.24,1.19a3.1,3.1,0,0,0,.17.88,13.1,13.1,0,0,1,.17,2s0,.07-.07.14,0,.27,0,.37a.56.56,0,0,1-.06.21.45.45,0,0,1,.13.3c0,.07-.24,1.12-.24,1.36s.14,1,.14,1.13a7.82,7.82,0,0,1-.58,3.09c-.06.1-.3.44-.51.47,0,0-.06.21-.1.21s-.13,0-.13.17-.34.24-.45.24c-1.08,0-3.91-2.28-3.91-2.55,0-.07,0-.07.24-.07,0,0,.17-.17.21-.17s1,.14,1.19.14c.34,0,1.19,0,1.42-.28a3.13,3.13,0,0,0,.41-1.19,3.38,3.38,0,0,1,.07-.78v-.1c0-.07-.1-.82-.1-1,0-.47.17-2.48.17-2.92s.1-2.48.1-2.89-.14-1.9-.14-2c0-.65,0-1.63,0-1.94s.1-1.19.1-1.39-.2-1.43-.2-1.67.13-.71.13-.81a1.25,1.25,0,0,0-1.36-1.09c-.23,0-.23.07-.23.2-.21,0-3.23.68-3.47.68s-.89-.4-.89-.71.41-.44.75-.51C20.13,9.11,24.65,8,25.29,8A7.66,7.66,0,0,1,27,8.91a.69.69,0,0,1,.27.61c0,.27-.51,1.43-.51,1.56s.2.68.2.82-.13,1.26-.13,1.32Z" fill="#fff"/><path d="M.41,58.89c.07,0,.81.23.88.23A11.44,11.44,0,0,0,2.45,58a2.59,2.59,0,0,1,1-1.53c.1-.11,1.9-2.83,2.24-3.57.17-.34.61-1.06,1.06-1.06.17,0,.17.21.17.34s-.07.82-.07.89a2,2,0,0,1-.45,1.42,2.45,2.45,0,0,0-.5,1.74A3.21,3.21,0,0,1,4.86,58s-.54,1.5-.71,1.74a9.17,9.17,0,0,0-.82.84c-.44.92-.54,1.16-1.09,1.16a1.82,1.82,0,0,1-1.8-1.12,1.84,1.84,0,0,1-.37-.85A1.54,1.54,0,0,1,.41,58.89ZM3,43.89a2.31,2.31,0,0,1,2.52,2.18c0,.17,0,1.46-.85,1.46-.1,0-.21-.1-1-.85-.21-.2-1.53-.41-1.67-.61a20.91,20.91,0,0,1-1.5-1.84.94.94,0,0,1-.06-.37c0-.17,0-.51.27-.51s1,.2,1.19.2c.58,0,.64,0,1,.21C2.92,43.86,2.92,43.89,3,43.89Zm1.4-8.7c.54.1,1.42.24,1.9.31.2.1,1.16.44,1.33.57a1.72,1.72,0,0,1,.3,1c0,1-.47,1.67-1,1.67-.24,0-.89-1-1.09-1.12a4.38,4.38,0,0,1-1.23-1.5c0-.07-.34-.3-.37-.37a.36.36,0,0,1-.07-.27C4.18,35.22,4.25,35.19,4.39,35.19Zm10,10.33a10,10,0,0,1-2.07,1c-.07,0-.41.27-.51.3s-.78.24-.92.31-.58.54-.68.58a.87.87,0,0,1-.37.06A7.77,7.77,0,0,1,7.58,47l.1-.17c0-.1-.13-1.05-.13-1.15s.1-.21.13-.21.82.07,1,.07.54.17.61.17a15.31,15.31,0,0,0,1.46-.58c2-.41,2.25-.78,2.25-1.73,0-.21,0-1.23-.55-1.23-.27,0-1.63.48-1.94.48-.06,0-1.18-.24-1.18-1,0-.21.06-.21.74-.34.14,0,2.08-.41,2.21-.44s.68-.55.68-.72c0-.47,0-1.36-.57-1.36-.17,0-2.18.44-2.42.44-.71,0-1.19-.91-1.19-1.22,0-.1,0-.48.24-.48s.54-.1.61-.1c.27,0,3,0,3-.51s-.07-1.43-.1-1.66c0-.07-.21-.79-.21-1s.34-.47.92-.47c1.67,0,1.67,1.12,1.67,2.55,0,.07,0,.37,0,.41s0,.17.21.17,2.14-.48,2.41-.51c.31.13,1,.57,1,.91,0,.62-1,.79-1.19.79s-.75-.17-.85-.17c-.85,0-1.94.06-1.94,1,0,.41.1,1.16.61,1.16.2,0,1-.17,1.22-.17a.36.36,0,0,1,.41.37c0,.38-.34.44-.58.48s-.47.37-.54.41c-.82.23-1.19.47-1.19,1.49,0,.51.1.72.48.72a16.94,16.94,0,0,0,1.9-.89c0-.2,1.19-.54,1.39-.54a.27.27,0,0,1,.28.27c0,.13-.07.2-.82.78a3.61,3.61,0,0,0-.75,1.06s-.13,0-.24,0a5.91,5.91,0,0,0-.64.44A2.87,2.87,0,0,0,14.41,45.52ZM11.76,62c-1.09,0-1.7-1.53-1.8-2.38A2.37,2.37,0,0,0,9.79,59c0-.1-.37-.68-.37-.75a1.55,1.55,0,0,1,0-.4c1.16,0,1.22,0,3.13,2a.31.31,0,0,0,.27.13c.48.07.78.1.78.34a4.32,4.32,0,0,1-1,1.36A2.2,2.2,0,0,1,11.76,62Zm6.36-11.63c.2-.68.34-.82.88-.89l0-.1a1.78,1.78,0,0,0,1-1.7c0-.24,0-.44.14-.44a10.83,10.83,0,0,1,1.66.61.82.82,0,0,1,.34.72c0,.57-.1.71-.85,1.42a29.27,29.27,0,0,1-3.5,3c-1.36.71-1.53.85-1.53,1.19,0,.17.17.23.38.23s.61-.17.71-.17.82.14.95.14,1.87-.51,2.21-.54c2.45-.31,2.72-.34,3.27-1,.2-.24.23-.31.85-.38a.9.9,0,0,0-.11.38c0,.1.28.57.28.71,0,1.19-.92,1.26-2.86,1.43-.27,0-1.5.34-1.63.34s-1.16-.38-1.33-.38a1.53,1.53,0,0,0-.51.31c0,.2.72.78.75,1a8.2,8.2,0,0,1,.14,1.33c0,.27-.07,1.8-.07,1.87,0,2.55,0,2.82-.38,3.46a1,1,0,0,1-.85.58c-.47,0-1.32-.85-1.53-1.87.79-.06.89-1.7.89-2.14,0-.2-.21-3.47-.24-3.7,0-.07-.1-.28-.24-.28a5.74,5.74,0,0,0-2.21.34c-.17.07-1.05.11-1.22.21a9,9,0,0,1-1,.54c-.13,0-.71-.24-.81-.24-.48,0-1.8-.06-1.8-1.08,0-.38.71-.92,1-.92s1.16.17,1.33.17a11.79,11.79,0,0,0,2.75-.55c.37-.23.71-.44.82-.74S17.92,50.9,18,50.32Zm-4.15-2a13.08,13.08,0,0,0,.89-1.74c.13-.37.27-.71.71-.71.14,0,.48.55.54.61.58.44.65.48.65.82a.72.72,0,0,1-.27.61s0,.07,0,.1-.2.07-.23.1-.17.34-.21.38a5.37,5.37,0,0,0-.88.71c-.17.17-.44.51-.48.55s-.78.61-.85.71a.71.71,0,0,0-.07.27c0,.38.55.44.82.48a1.19,1.19,0,0,1,.58.1,1.25,1.25,0,0,0,.41.24c.13,0,.17.27.17.37a1.31,1.31,0,0,1-.28.61c-.06,0,0-.1-.13-.1s-.38.1-.44.1c-.24,0-1.23-.3-1.43-.3s-.51.13-.61.13c-.48,0-1.13-1-1.13-1,0-.65,2-2.65,2.28-2.92ZM21,40.87c0-.14.28-.75.31-.89s.34-.2.34-.27.07-1.05.07-1.12a.51.51,0,0,0-.41-.41c-.14,0-.71.21-.85.21-.82,0-1.7-.79-1.7-1.13,0-.68.37-.71,1.6-.78.41,0,2.17-.37,2.58-.37a2.35,2.35,0,0,1,.72.13,11.25,11.25,0,0,1,2.44-.68c.21,0,2.35.45,2.35,1.36,0,.24-.61,1.09-.65,1.3-.06.37-.06,2.1-.13,2.48A24,24,0,0,1,27,44.33c-.14.24-.45,1.4-.55,1.6-.17.41-.95,1.6-1.49,1.6s-.48-.1-1.29-1a5.82,5.82,0,0,1-.48-.54,1.3,1.3,0,0,0-.51-.68c.14-.24.1-.31.07-.41a.66.66,0,0,1,.3-.1c.14,0,.75.2.89.2,1,0,1.19-1.18,1.39-2.58.07-.34.48-1.87.48-2.21,0-.07-.07-1.12-.07-1.19a1.25,1.25,0,0,1,.24-.75.29.29,0,0,0,.1-.17A1.45,1.45,0,0,0,25,36.89a14.11,14.11,0,0,0-1.91.71A.47.47,0,0,0,23,38c0,.07,0,.17.51,1.12,0,.17.07.71.07.85s-.24.41-.28.51c-.17.37-.91,2.24-1.12,2.58a24.7,24.7,0,0,1-2.51,2.52,16.85,16.85,0,0,1-2.21.85.26.26,0,0,1-.28-.24c0-.2.68-.92.79-1.09s.57-.54.61-.68C19.17,44.4,21,41,21,40.87Zm4.25,18.9c-.1-.17-.91-.68-1-.78a5,5,0,0,0-1.6-1.87,4.33,4.33,0,0,0-.34-.38s-.2,0-.2,0c0-.27.13-.65.47-.65a13,13,0,0,1,2.72,1.16,17.38,17.38,0,0,1,2.48,2,1.22,1.22,0,0,0,.38.54,1,1,0,0,1,.3.85c0,.24-.06.72-.06.79s-.41.1-.48.1-.48.3-.65.3-.71-.44-.81-.71C26.14,61.06,26.08,61,25.29,59.77Zm2.79-6.43s.14.21.14.24S28,53.92,28,54s0,.34-.17.34c-1.46,0-1.49-.24-1.56-.65-.2-.2-2.52-2.85-2.52-3.4,0-.23.41-.3.58-.3.55.17,1.36.44,1.74.58A8,8,0,0,1,27.64,52a.78.78,0,0,0,.34.2A2.78,2.78,0,0,0,28.08,53.34Z" fill="#fff"/><path d="M12.21,84.59c-.11.1-.82,1.53-1,1.77a12.64,12.64,0,0,1-1.9,1.9c0,.14-.61.44-.68.48s-1.12.71-1.22.74A5,5,0,0,1,6,89.69a2.39,2.39,0,0,1-.65-.07,10.72,10.72,0,0,1-.92-1.12,11.74,11.74,0,0,1-.61-2.31c0-.11.14-.68.14-.75C4,83.3,4,83,4.49,82a18.28,18.28,0,0,1,1-2.68c.71-.58.78-.65.82-.82.1-.61.1-.68.23-.68a10.31,10.31,0,0,1,.75-1.05c.21-.21,1.12-1.19,1.36-1.36s2-1.47,2.38-1.67a4,4,0,0,1,1.43-.54c.61,0,1.05,0,1.09-.34,0-.11.47-.11.54-.14S15.2,72,15.26,72s.14,0,.51.24a1.72,1.72,0,0,0,.82.17c.14,0,.88,0,1.6.07.13,0,.71.27.81.27s.58-.07.68-.07a18.61,18.61,0,0,1,2.21.68c.65.24.75.37,1.4,1.16.07.1.64.4.71.47a6.12,6.12,0,0,1,2.25,3.5c.06.24.47,1.19.5,1.4a11.38,11.38,0,0,1,.14,1.77,5.11,5.11,0,0,1-.68,3c-.13.31-.37,1.7-.47,2-1.26,2.82-4.9,5.07-6.5,5.07,0,0-.13-.1-.17-.1s-.37.54-.47.54-.68.48-.82.51a2.53,2.53,0,0,1-.48.07c-.54,0-.68-.17-.68-.65,0-.64,0-.88,1.5-1.09a.86.86,0,0,0,.75-.34,6.74,6.74,0,0,1,1.19-.61c0-.07.13-.41.17-.47a5.82,5.82,0,0,0,2.21-2.08c0-.2,0-.2.13-.2.17-.31.24-.41.65-1.09a13.42,13.42,0,0,0,.92-2.48c0-.2.13-1,.13-1.16,0-3.06,0-3.12-.47-3.7-.07-.14-.1-.75-.14-.85a19.81,19.81,0,0,0-1.6-2.14.86.86,0,0,1-.13-.24c0-.14-.82-.34-.95-.41s-.75-.61-.89-.68-.81-.24-.95-.34A5.07,5.07,0,0,0,17,73.64c-.81,0-.88.85-.88,1.33,0,.24-.27,1.73-.72,1.8-.06,0-.13,1.22-.17,1.46a10.62,10.62,0,0,1-1.39,3.3,18.56,18.56,0,0,1-1.12,2.41Zm-2-.17A2.93,2.93,0,0,1,10.4,84c.17,0,.21,0,.27-.33a3.32,3.32,0,0,1,.79-1.06c0-.1.2-.54.23-.61s.31-.48.34-.54a4.18,4.18,0,0,1,.07-.65,8.29,8.29,0,0,0,1-2.92,3.57,3.57,0,0,1,.28-.35c0-.06.51-2.24.51-2.44,0-.41-.24-.85-.62-.85a3.12,3.12,0,0,0-1.36.44c-.1.14-.64.78-.71.85s-.27.07-1,.85c0,0-.41.1-.41.17s-.2.17-.2.24a.77.77,0,0,1-.27.51,2,2,0,0,0-.51.58s-.21,0-.21.06a.42.42,0,0,1-.07.28,6,6,0,0,0-.61.71c-.06.1-.13.61-.2.71A4.22,4.22,0,0,0,7,81.09s-.07.1-.14.13l-.13,0,.07.13c0,.07-.21.31-.24.38A15.86,15.86,0,0,0,6.22,84c0,.13-.24,1.15-.24,1.22,0,.58,0,2.28.72,2.28a1.67,1.67,0,0,0,1.39-.78c.07,0,.31-.07.37-.17l0-.07A14.17,14.17,0,0,0,10.23,84.42Z" fill="#fff"/><path d="M3.84,128.14a1.14,1.14,0,0,0,.27-.17A7.45,7.45,0,0,0,5,127.7a7.62,7.62,0,0,0,2.72-1.43,29.21,29.21,0,0,0,2.55-1.9c.68-.71,2.28-2.69,2.28-3.37,0-.37-.51-.37-.61-.37-.55,0-2.83.65-3.3.71-.68.11-4.11.72-4.32.72-.68,0-2.28-1.77-2.28-2.14,0-.11.28-.28.34-.28s.62.24.72.24a8.46,8.46,0,0,0,1.15.1,9,9,0,0,0,2.49-.3,3.46,3.46,0,0,1,.61-.07H8.74a16.13,16.13,0,0,1,2.31-.31c1.66,0,2.62,0,2.62-3,0-.34-.11-.64-.55-.64a6.92,6.92,0,0,0-2.89.51,3.69,3.69,0,0,1-.81.06c-.17,0-.85.31-1,.34-.31,0-1.73,0-1.84,0s-.67.1-.78.1a2.71,2.71,0,0,1-1.8-1,.34.34,0,0,0-.13-.1c-.14,0-.14-.11-.14-.24a3,3,0,0,1,0-.55,1.89,1.89,0,0,0,.72-.13,1.16,1.16,0,0,1,.37-.14.35.35,0,0,1,.24.14,8.46,8.46,0,0,0,1.22.24,3.84,3.84,0,0,0,.58-.28c.58-.13,4.08-.13,4.86-.23a4.47,4.47,0,0,1,1.4-.11c.1-.06.64-.23.71-.3a2.09,2.09,0,0,0,.34-1.26c0-1-.27-1.26-.82-1.26-.17,0-.81.17-1,.17l-.71,0c-.21,0-1.12.37-1.29.37-.44,0-1.43-.61-1.43-1,0-.68.78-.75,1.36-.78a28.7,28.7,0,0,0,3.64-.51c.2-.1.23-.65.23-.92a1.29,1.29,0,0,0-.2-.78,1.1,1.1,0,0,0,.1-.37c0-.41-.61-.41-.71-.41a8.34,8.34,0,0,0-3,.71,1.09,1.09,0,0,1-.31,0c-.2,0-1-.16-1.16-.16s-1.15.5-1.35.5a1.3,1.3,0,0,1-1.3-.67c-.07-.07-.51-.28-.57-.38s-.07-.54-.07-.61,0-.24.13-.31a2.88,2.88,0,0,1,.61-.17c.38,0,1.94-.1,2.25-.1a13.61,13.61,0,0,0,3.16-.27c.1,0,1.36,0,2,0,.24,0,1.22-.31,1.46-.31a4.69,4.69,0,0,1,.65.07c.07,0,.27.13.3.13s.28-1,.41-1a9.63,9.63,0,0,0,2.62-3.81c0-.07-.1-.47-.1-.51,0-.2.27-.44.58-.44.06,0,1.63.58,1.73.65a.93.93,0,0,1,.44.64,2.91,2.91,0,0,1-.64,1.33c-.07,0-.07.07-.11.24s-.27.1-.3.13a3.16,3.16,0,0,1-1,.92,18.49,18.49,0,0,0-1.87,1.36c0,.34.21.34.34.34s.75-.27.85-.27l.51,0c.41-.07,2.28-.34,2.65-.47a3.63,3.63,0,0,0,.38-.14c.07-.07.13-.17.17-.17h.34c.07,0,.2-.14.24-.14l1.39-.06c.24,0,1.36,1.22,1.36,1.32,0,.54-.2,1-1.56,1l-1.09-.07c-.21,0-5.1.51-5.24.51s-1.49-.27-1.77-.27-.27,0-.27.24.07.74.07.85-.1,1-.1,1.22c0,.44.51.54.75.54.57,0,3.12-.44,3.63-.44,1.4,0,1.4.88,1.4,1.36,0,0,0,.1,0,.1l-.88.31c-.1,0-.48.27-.58.3a.87.87,0,0,1-.3.07c-.07,0,0-.27-.07-.3a1.63,1.63,0,0,0-.72-.21,10.81,10.81,0,0,1-1.25.41c-.24,0-1.16-.24-1.33-.24-.71,0-.75.55-.82,1.63a1.16,1.16,0,0,1-.13.51c-.07.11-.48.38-.48.45s.34.61.44.61.58-.07.68-.07.65.07.79.07.37-.24.47-.27a7.19,7.19,0,0,1,.95-.07c.51,0,4.63-.58,4.8-.61s1.63-.34,1.9-.34,2.11.57,2.11,1.36c0,.23-.27,1-.51,1s-.58-.17-.71-.17c-.34,0-2.28.17-2.38.17s-.48-.27-.58-.27c-.27,0-2.42.2-2.93.27-.2,0-1.05.27-1.25.27l-1.13-.07-1.25.07c-.24,0-1.26-.58-1.4-.58s-.3.21-.3.44,0,.21.47.65A1.41,1.41,0,0,1,16,117c0,.17-.44,1.91-.44,2s.34.31.48.31.88,0,.91-.31c.48,0,4.63-.37,6.09-.61.58-.1,2.75-.48,3.06-.48l1.33.58c.54.17,1.25.41,1.25,1.16s-1.19.85-1.29.85-.92-.1-1.09-.1a7.48,7.48,0,0,1-2.1-.21l-1.64,0-.54-.07c-.17,0-4.49.44-4.69.44s-.78-.2-.89-.2c-1.29,0-1.29,0-1.53.44-.06.2-.74,1.12-.74,1.16a1.79,1.79,0,0,1-.41,1.29,17.35,17.35,0,0,1-2.28,3c-.31.23-1.43,1.18-1.63,1.29a4.47,4.47,0,0,0-1.9,1,18.07,18.07,0,0,1-2.38.64c-.17,0-1.5,0-1.74-.07a2.53,2.53,0,0,1-.61-.88.56.56,0,0,1,.14-.2Zm8.74-22.88c0,.21-.07.34-.27.34a2.74,2.74,0,0,1-1.47-.44c-.1-.1-.54-.2-.61-.27a3.84,3.84,0,0,1-1-1.8A3.61,3.61,0,0,0,9,101.93c-.17,0-.2,0-.2-.24s0-.4.27-.4a4,4,0,0,1,2.28,1c.89.61.89.85.85,1.73C12.58,104.07,12.58,104.72,12.58,105.26Zm4.35,16.63a1,1,0,0,1,.34,0,7,7,0,0,1,1.29.38.39.39,0,0,0,.24.27,3.46,3.46,0,0,1,.37.24,14.72,14.72,0,0,1,3,1.39,24.1,24.1,0,0,1,2.69,1.19,6.67,6.67,0,0,1,1.93,1.77,3.93,3.93,0,0,0,1.23.85,3.2,3.2,0,0,1,.58,1.26c0,.47-1.12.57-1.36.61s-.51-.61-.62-.68a2.74,2.74,0,0,0-1-.55,1.92,1.92,0,0,1-1.26-.33c-.3-.14-1.56-1.23-1.66-1.26a3.1,3.1,0,0,1-1.16-.89.22.22,0,0,0-.14,0,12.69,12.69,0,0,1-1.7-1.22c-.13-.11-.81-.41-.95-.52s-.51-.57-.61-.64c-.54-.17-1.53-.48-1.53-1.39a.4.4,0,0,1,.07-.24A.35.35,0,0,0,16.93,121.89Z" fill="#fff"/></g></g></svg>