<svg xmlns="http://www.w3.org/2000/svg" viewBox="0 0 91.05 66.23"><defs><style>.cls-1{fill:#425a37;}.cls-2{fill:none;stroke:#333;stroke-miterlimit:10;stroke-width:1.17px;}</style></defs><g id="Layer_2" data-name="Layer 2"><g id="design"><path class="cls-1" d="M90,19.22a7.26,7.26,0,0,0-.27-.7c-.09-.23-.16-.47-.26-.69s-.2-.46-.33-.67-.28-.41-.43-.61-.34-.36-.5-.54-.36-.34-.54-.51-.3-.41-.48-.57-.41-.29-.61-.44-.39-.3-.6-.44-.45-.22-.66-.34-.4-.3-.62-.41-.45-.23-.66-.33-.49-.16-.7-.26-.45-.27-.66-.36-.51-.13-.71-.2c-.44-.15-.35-.09-.7-.2s-.46-.2-.67-.28-.45-.21-.66-.3l-.68-.25c-.23-.1-.47-.14-.68-.24s-.41-.28-.62-.39-.46-.15-.67-.27-.42-.24-.62-.37-.39-.28-.59-.42-.36-.31-.55-.47-.39-.26-.58-.42l-.55-.47-.53-.47-.53-.5c-.17-.15-.3-.36-.48-.53s-.38-.29-.56-.46l-.52-.51c-.16-.16-.31-.36-.49-.53l-.54-.49c-.17-.17-.37-.31-.54-.46s-.38-.29-.57-.44-.35-.33-.54-.46-.41-.26-.61-.38l-.6-.38c-.21-.12-.41-.26-.62-.36l-.65-.3L66,1.52c-.23-.08-.47-.11-.69-.18s-.44-.22-.66-.28L64,.89c-.24-.05-.48-.05-.7-.09s-.49,0-.71-.07c0,0,0-.08,0-.09-.31-.09-.23,0-.64,0h-.65c-.25,0-.46,0-.65,0-.4,0-.34-.1-.65,0,0,0,0,0,0,0-.23,0-.45.09-.7.13s-.46.06-.7.12-.46.1-.69.17-.46.11-.69.19-.43.2-.65.29l-.66.28c-.21.09-.43.18-.65.29s-.43.2-.64.32-.4.24-.61.37-.41.24-.6.38-.34.34-.53.49-.38.28-.56.44-.37.29-.55.46l-.53.49c-.18.17-.38.32-.54.48s-.33.37-.5.53l-.54.48-.53.49c-.19.17-.31.39-.48.55s-.42.26-.6.41-.31.39-.49.54-.4.29-.58.43a7,7,0,0,1-.59.41c-.2.15-.41.25-.61.38l-.61.37c-.21.12-.39.28-.61.39s-.41.24-.63.34l-.66.3-.66.27c-.22.08-.46.12-.7.21l-.67.26c-.36.11-.26.09-.7.24-.2.07-.46.1-.72.2s-.43.21-.67.31-.42.23-.65.34-.47.16-.69.28-.42.25-.64.38-.42.25-.63.39-.42.25-.62.4-.36.35-.55.51-.4.3-.58.47-.3.39-.47.58-.34.35-.49.55-.3.4-.43.61-.24.43-.35.65a7,7,0,0,0-.31.68,5.78,5.78,0,0,0-.24.7c-.06.25-.06.5-.11.73s-.09.49-.13.72-.08.49-.11.73-.07.49-.08.73,0,.5,0,.74,0,.49,0,.73.11.49.15.72,0,.5.1.73.18.46.25.69a7,7,0,0,0,.24.69c.11.23.22.44.34.65a6.49,6.49,0,0,0,.39.62,6.28,6.28,0,0,0,.49.54c.17.18.28.41.46.57a6.15,6.15,0,0,0,.58.46c.2.14.43.24.63.36s.42.29.64.4.47.15.7.24a6,6,0,0,0,.68.32c.23.07.48.1.73.15s.48.11.73.14.49.07.74.08.49-.05.74-.05l.74,0c.24,0,.49,0,.74,0l.74-.1.73-.11c.24,0,.47-.17.72-.23s.49-.05.73-.11.47-.17.71-.24.5-.05.75-.12.44-.21.67-.27.48-.1.71-.17.45-.17.68-.25.49-.07.72-.14l.68-.26c.23-.07.45-.17.68-.24l.69-.2c.23-.07.45-.16.68-.22s.48-.08.71-.14l.69-.21.71-.16c.23-.05.46-.13.69-.18s.47-.11.71-.15.48,0,.72-.06l.71-.12c.24,0,.47-.1.71-.12l.72-.08q.35,0,.72-.06c.23,0,.48,0,.72,0s.48-.05.73-.06l.72,0H62l.73,0c.24,0,.48.05.72.07s.49,0,.73,0l.72.11.71.1.71.12c.24,0,.49,0,.72.08s.47.14.7.19.49,0,.72.09.48.08.72.14l.69.2.69.23c.23.06.45.16.68.23s.48.07.71.14.44.18.67.25l.69.23c.22.07.46.1.69.18l.69.21c.22.07.46.11.7.18s.44.18.68.25.49.11.73.17l.72.2.72.17c.25.06.5.07.73.12s.49.16.72.2.51,0,.75.07.5.08.74.1.5,0,.74,0,.5,0,.74,0,.51,0,.75,0,.48-.13.72-.18.5-.07.73-.14a5.89,5.89,0,0,0,.7-.26,6,6,0,0,0,.64-.38c.22-.1.47-.16.69-.28s.4-.28.6-.42a6.36,6.36,0,0,0,.57-.46,6.53,6.53,0,0,0,.52-.53,6.43,6.43,0,0,0,.49-.54c.14-.19.22-.43.35-.65a5.75,5.75,0,0,0,.31-.66,6.71,6.71,0,0,0,.35-.65,5.3,5.3,0,0,0,.12-.73,7.17,7.17,0,0,0,.23-.7c0-.23,0-.48,0-.73s0-.48,0-.73,0-.48,0-.73,0-.49,0-.74-.09-.47-.13-.72,0-.49-.08-.73S90.1,19.46,90,19.22Z"/><path class="cls-2" d="M90,19.22a7.26,7.26,0,0,0-.27-.7c-.09-.23-.16-.47-.26-.69s-.2-.46-.33-.67-.28-.41-.43-.61-.34-.36-.5-.54-.36-.34-.54-.51-.3-.41-.48-.57-.41-.29-.61-.44-.39-.3-.6-.44-.45-.22-.66-.34-.4-.3-.62-.41-.45-.23-.66-.33-.49-.16-.7-.26-.45-.27-.66-.36-.51-.13-.71-.2c-.44-.15-.35-.09-.7-.2s-.46-.2-.67-.28-.45-.21-.66-.3l-.68-.25c-.23-.1-.47-.14-.68-.24s-.41-.28-.62-.39-.46-.15-.67-.27-.42-.24-.62-.37-.39-.28-.59-.42-.36-.31-.55-.47-.39-.26-.58-.42l-.55-.47-.53-.47-.53-.5c-.17-.15-.3-.36-.48-.53s-.38-.29-.56-.46l-.52-.51c-.16-.16-.31-.36-.49-.53l-.54-.49c-.17-.17-.37-.31-.54-.46s-.38-.29-.57-.44-.35-.33-.54-.46-.41-.26-.61-.38l-.6-.38c-.21-.12-.41-.26-.62-.36l-.65-.3L66,1.52c-.23-.08-.47-.11-.69-.18s-.44-.22-.66-.28L64,.89c-.24-.05-.48-.05-.7-.09s-.49,0-.71-.07c0,0,0-.08,0-.09-.31-.09-.23,0-.64,0h-.65c-.25,0-.46,0-.65,0-.4,0-.34-.1-.65,0,0,0,0,0,0,0-.23,0-.45.09-.7.13s-.46.06-.7.12-.46.1-.69.17-.46.11-.69.19-.43.2-.65.29l-.66.28c-.21.09-.43.18-.65.29s-.43.2-.64.32-.4.24-.61.37-.41.24-.6.38-.34.34-.53.49-.38.28-.56.44-.37.29-.55.46l-.53.49c-.18.17-.38.32-.54.48s-.33.37-.5.53l-.54.48-.53.49c-.19.17-.31.39-.48.55s-.42.26-.6.41-.31.39-.49.54-.4.29-.58.43a7,7,0,0,1-.59.41c-.2.15-.41.25-.61.38l-.61.37c-.21.12-.39.28-.61.39s-.41.24-.63.34l-.66.3-.66.27c-.22.08-.46.12-.7.21l-.67.26c-.36.11-.26.09-.7.24-.2.07-.46.1-.72.2s-.43.21-.67.31-.42.23-.65.34-.47.16-.69.28-.42.25-.64.38-.42.25-.63.39-.42.25-.62.4-.36.35-.55.51-.4.3-.58.47-.3.39-.47.58-.34.35-.49.55-.3.4-.43.61-.24.43-.35.65a7,7,0,0,0-.31.68,5.78,5.78,0,0,0-.24.7c-.06.25-.06.5-.11.73s-.09.49-.13.72-.08.49-.11.73-.07.49-.08.73,0,.5,0,.74,0,.49,0,.73.11.49.15.72,0,.5.1.73.18.46.25.69a7,7,0,0,0,.24.69c.11.23.22.44.34.65a6.49,6.49,0,0,0,.39.62,6.28,6.28,0,0,0,.49.54c.17.18.28.41.46.57a6.15,6.15,0,0,0,.58.46c.2.14.43.24.63.36s.42.29.64.4.47.15.7.24a6,6,0,0,0,.68.32c.23.07.48.1.73.15s.48.11.73.14.49.07.74.08.49-.05.74-.05l.74,0c.24,0,.49,0,.74,0l.74-.1.73-.11c.24,0,.47-.17.72-.23s.49-.05.73-.11.47-.17.71-.24.5-.05.75-.12.44-.21.67-.27.48-.1.71-.17.45-.17.68-.25.49-.07.72-.14l.68-.26c.23-.07.45-.17.68-.24l.69-.2c.23-.07.45-.16.68-.22s.48-.08.71-.14l.69-.21.71-.16c.23-.05.46-.13.69-.18s.47-.11.71-.15.48,0,.72-.06l.71-.12c.24,0,.47-.1.71-.12l.72-.08q.35,0,.72-.06c.23,0,.48,0,.72,0s.48-.05.73-.06l.72,0H62l.73,0c.24,0,.48.05.72.07s.49,0,.73,0l.72.11.71.1.71.12c.24,0,.49,0,.72.08s.47.14.7.19.49,0,.72.09.48.08.72.14l.69.2.69.23c.23.06.45.16.68.23s.48.07.71.14.44.18.67.25l.69.23c.22.07.46.1.69.18l.69.21c.22.07.46.11.7.18s.44.18.68.25.49.11.73.17l.72.2.72.17c.25.06.5.07.73.12s.49.16.72.2.51,0,.75.07.5.08.74.1.5,0,.74,0,.5,0,.74,0,.51,0,.75,0,.48-.13.72-.18.5-.07.73-.14a5.89,5.89,0,0,0,.7-.26,6,6,0,0,0,.64-.38c.22-.1.47-.16.69-.28s.4-.28.6-.42a6.36,6.36,0,0,0,.57-.46,6.53,6.53,0,0,0,.52-.53,6.43,6.43,0,0,0,.49-.54c.14-.19.22-.43.35-.65a5.75,5.75,0,0,0,.31-.66,6.71,6.71,0,0,0,.35-.65,5.3,5.3,0,0,0,.12-.73,7.17,7.17,0,0,0,.23-.7c0-.23,0-.48,0-.73s0-.48,0-.73,0-.48,0-.73,0-.49,0-.74-.09-.47-.13-.72,0-.49-.08-.73S90.1,19.46,90,19.22Z"/><path class="cls-1" d="M58.64,35.8a5.86,5.86,0,0,0-.28-.69,5.24,5.24,0,0,0-.28-.69c-.11-.22-.25-.42-.38-.63s-.25-.43-.4-.63-.27-.41-.44-.6-.39-.31-.57-.48-.33-.37-.51-.53-.39-.31-.59-.46-.43-.25-.63-.39-.37-.34-.58-.46l-.65-.37c-.23-.12-.49-.16-.7-.26s-.43-.27-.65-.37-.47-.22-.68-.3-.51-.14-.71-.21c-.44-.15-.33-.16-.68-.26s-.48-.13-.7-.21-.47-.15-.68-.23-.43-.25-.64-.34-.47-.15-.68-.25-.45-.2-.66-.31-.44-.2-.64-.32-.41-.26-.61-.39-.38-.3-.57-.44l-.59-.42c-.18-.14-.4-.26-.59-.42s-.33-.32-.52-.49l-.53-.48L42,23.69c-.17-.16-.3-.37-.48-.54s-.38-.28-.56-.46l-.52-.49c-.17-.16-.33-.35-.51-.52s-.36-.32-.54-.49-.35-.32-.53-.47l-.55-.46c-.19-.15-.38-.3-.57-.43s-.39-.29-.58-.41-.43-.22-.63-.34-.4-.28-.6-.39-.45-.18-.66-.27-.45-.17-.67-.26-.43-.22-.65-.29-.48-.08-.71-.14-.45-.17-.68-.22-.47-.07-.7-.11-.47-.1-.7-.12c0,0,0-.06,0-.06-.31-.09-.24,0-.65,0-.18,0-.4,0-.64,0s-.47,0-.65,0a1.68,1.68,0,0,0-.63.06s0,0,0,0c-.23,0-.47,0-.71.08s-.46.06-.7.11l-.69.17c-.23.06-.45.16-.68.24s-.45.11-.68.2l-.65.29c-.22.1-.45.17-.66.28s-.43.2-.64.32-.39.27-.6.4-.36.31-.55.45-.43.21-.62.36-.36.32-.54.47-.36.31-.54.48-.32.37-.49.53-.38.32-.55.48l-.54.48c-.18.17-.3.4-.47.56s-.41.27-.58.43-.33.37-.5.53l-.54.48c-.18.16-.35.34-.53.49s-.41.26-.6.41-.35.34-.54.47-.41.26-.61.39-.42.23-.63.35-.41.22-.63.34-.4.25-.63.35l-.65.31-.67.26c-.21.08-.45.13-.69.22s-.42.21-.66.29-.27.07-.71.22L8.39,29l-.68.27c-.21.09-.47.13-.7.24s-.42.25-.65.37-.42.24-.64.37-.4.29-.61.43-.42.24-.62.39-.39.31-.58.47-.4.3-.58.47-.33.37-.49.55-.29.41-.44.61-.36.35-.49.56a6.88,6.88,0,0,0-.35.66,5.19,5.19,0,0,0-.3.68,5.55,5.55,0,0,0-.17.73c-.06.24-.16.47-.21.7s-.09.49-.12.73,0,.5-.05.74,0,.49,0,.73-.08.49-.08.73.05.49.06.73,0,.5,0,.74.18.47.23.7.06.5.14.72.24.44.33.65.16.48.28.69a6.26,6.26,0,0,0,.45.57c.15.2.29.4.45.58A6.47,6.47,0,0,0,3,45.4a6.49,6.49,0,0,0,.62.39,5.79,5.79,0,0,0,.59.42,5.89,5.89,0,0,0,.66.34,5.94,5.94,0,0,0,.67.33c.23.09.46.19.69.26s.48.11.73.17.48.11.72.14.49.09.74.1a6.51,6.51,0,0,0,.75,0c.24,0,.49.05.74,0s.48-.11.73-.13.49,0,.74-.07.47-.14.72-.18.5,0,.75-.07l.72-.18c.24-.06.47-.16.71-.23s.48-.1.73-.17l.7-.2.69-.19.7-.21.69-.22c.24-.07.46-.18.69-.25s.47-.1.7-.17.44-.21.67-.28.48-.06.71-.13.44-.2.67-.26.48-.06.72-.12.45-.15.69-.2l.71-.14c.23,0,.46-.14.7-.18s.47,0,.72-.08.46-.12.7-.15l.71-.1c.24,0,.49,0,.73,0s.47-.1.72-.12.47-.06.71-.07.48,0,.73,0,.48,0,.73,0h1.45c.24,0,.48.11.72.12l.72,0c.25,0,.49,0,.72,0l.72.11c.24,0,.49,0,.72.06s.47.14.7.18l.71.14c.24.05.49,0,.73.09s.46.16.69.21.48.08.71.15.44.2.68.27.47.09.7.16l.69.19c.23.07.45.17.68.24s.47.11.7.18.43.19.66.26.45.17.68.24l.7.21.7.18c.24.07.5.07.74.13s.47.19.7.25.51.06.74.11.48.16.72.21.5.07.73.11.51,0,.75.07.49.08.73.1.5,0,.75,0,.5,0,.74,0,.49-.07.73-.1.51,0,.75-.06.46-.18.69-.25.49-.12.72-.21.42-.24.65-.35.47-.16.69-.29.38-.29.58-.44.36-.32.55-.48.36-.32.53-.5.3-.38.45-.58a5.2,5.2,0,0,0,.46-.57c.12-.2.21-.44.32-.66s.16-.46.24-.69a7.36,7.36,0,0,0,.21-.71c.05-.23.13-.46.17-.71s.06-.48.08-.73,0-.48,0-.73,0-.48,0-.73,0-.49,0-.74-.1-.47-.14-.72-.09-.47-.14-.72S58.7,36.05,58.64,35.8Z"/><path class="cls-2" d="M58.64,35.8a5.86,5.86,0,0,0-.28-.69,5.24,5.24,0,0,0-.28-.69c-.11-.22-.25-.42-.38-.63s-.25-.43-.4-.63-.27-.41-.44-.6-.39-.31-.57-.48-.33-.37-.51-.53-.39-.31-.59-.46-.43-.25-.63-.39-.37-.34-.58-.46l-.65-.37c-.23-.12-.49-.16-.7-.26s-.43-.27-.65-.37-.47-.22-.68-.3-.51-.14-.71-.21c-.44-.15-.33-.16-.68-.26s-.48-.13-.7-.21-.47-.15-.68-.23-.43-.25-.64-.34-.47-.15-.68-.25-.45-.2-.66-.31-.44-.2-.64-.32-.41-.26-.61-.39-.38-.3-.57-.44l-.59-.42c-.18-.14-.4-.26-.59-.42s-.33-.32-.52-.49l-.53-.48L42,23.69c-.17-.16-.3-.37-.48-.54s-.38-.28-.56-.46l-.52-.49c-.17-.16-.33-.35-.51-.52s-.36-.32-.54-.49-.35-.32-.53-.47l-.55-.46c-.19-.15-.38-.3-.57-.43s-.39-.29-.58-.41-.43-.22-.63-.34-.4-.28-.6-.39-.45-.18-.66-.27-.45-.17-.67-.26-.43-.22-.65-.29-.48-.08-.71-.14-.45-.17-.68-.22-.47-.07-.7-.11-.47-.1-.7-.12c0,0,0-.06,0-.06-.31-.09-.24,0-.65,0-.18,0-.4,0-.64,0s-.47,0-.65,0a1.68,1.68,0,0,0-.63.06s0,0,0,0c-.23,0-.47,0-.71.08s-.46.06-.7.11l-.69.17c-.23.06-.45.16-.68.24s-.45.11-.68.2l-.65.29c-.22.1-.45.17-.66.28s-.43.2-.64.32-.39.27-.6.4-.36.31-.55.45-.43.21-.62.36-.36.32-.54.47-.36.31-.54.48-.32.37-.49.53-.38.32-.55.48l-.54.48c-.18.17-.3.4-.47.56s-.41.27-.58.43-.33.37-.5.53l-.54.48c-.18.16-.35.34-.53.49s-.41.26-.6.41-.35.34-.54.47-.41.26-.61.39-.42.23-.63.35-.41.22-.63.34-.4.25-.63.35l-.65.31-.67.26c-.21.08-.45.13-.69.22s-.42.21-.66.29-.27.07-.71.22L8.39,29l-.68.27c-.21.09-.47.13-.7.24s-.42.25-.65.37-.42.24-.64.37-.4.29-.61.43-.42.24-.62.39-.39.31-.58.47-.4.3-.58.47-.33.37-.49.55-.29.41-.44.61-.36.35-.49.56a6.88,6.88,0,0,0-.35.66,5.19,5.19,0,0,0-.3.68,5.55,5.55,0,0,0-.17.73c-.06.24-.16.47-.21.7s-.09.49-.12.73,0,.5-.05.74,0,.49,0,.73-.08.49-.08.73.05.49.06.73,0,.5,0,.74.18.47.23.7.06.5.14.72.24.44.33.65.16.48.28.69a6.26,6.26,0,0,0,.45.57c.15.2.29.4.45.58A6.47,6.47,0,0,0,3,45.4a6.49,6.49,0,0,0,.62.39,5.79,5.79,0,0,0,.59.42,5.89,5.89,0,0,0,.66.34,5.94,5.94,0,0,0,.67.33c.23.09.46.19.69.26s.48.11.73.17.48.11.72.14.49.09.74.1a6.51,6.51,0,0,0,.75,0c.24,0,.49.05.74,0s.48-.11.73-.13.49,0,.74-.07.47-.14.72-.18.5,0,.75-.07l.72-.18c.24-.06.47-.16.71-.23s.48-.1.73-.17l.7-.2.69-.19.7-.21.69-.22c.24-.07.46-.18.69-.25s.47-.1.7-.17.44-.21.67-.28.48-.06.71-.13.44-.2.67-.26.48-.06.72-.12.45-.15.69-.2l.71-.14c.23,0,.46-.14.7-.18s.47,0,.72-.08.46-.12.7-.15l.71-.1c.24,0,.49,0,.73,0s.47-.1.72-.12.47-.06.71-.07.48,0,.73,0,.48,0,.73,0h1.45c.24,0,.48.11.72.12l.72,0c.25,0,.49,0,.72,0l.72.11c.24,0,.49,0,.72.06s.47.14.7.18l.71.14c.24.05.49,0,.73.09s.46.16.69.21.48.08.71.15.44.2.68.27.47.09.7.16l.69.19c.23.07.45.17.68.24s.47.11.7.18.43.19.66.26.45.17.68.24l.7.21.7.18c.24.07.5.07.74.13s.47.19.7.25.51.06.74.11.48.16.72.21.5.07.73.11.51,0,.75.07.49.08.73.1.5,0,.75,0,.5,0,.74,0,.49-.07.73-.1.51,0,.75-.06.46-.18.69-.25.49-.12.72-.21.42-.24.65-.35.47-.16.69-.29.38-.29.58-.44.36-.32.55-.48.36-.32.53-.5.3-.38.45-.58a5.2,5.2,0,0,0,.46-.57c.12-.2.21-.44.32-.66s.16-.46.24-.69a7.36,7.36,0,0,0,.21-.71c.05-.23.13-.46.17-.71s.06-.48.08-.73,0-.48,0-.73,0-.48,0-.73,0-.49,0-.74-.1-.47-.14-.72-.09-.47-.14-.72S58.7,36.05,58.64,35.8Z"/><path class="cls-1" d="M83.44,53.93c-.06-.25-.07-.5-.15-.73a7.29,7.29,0,0,0-.28-.7c-.11-.22-.26-.42-.39-.63a6.58,6.58,0,0,0-.42-.61c-.15-.2-.32-.38-.48-.57s-.33-.37-.51-.54-.37-.33-.55-.49-.41-.28-.61-.43-.38-.32-.59-.45-.4-.3-.6-.43L78.21,48c-.23-.12-.47-.18-.69-.28s-.44-.25-.66-.35-.49-.15-.7-.23-.48-.24-.68-.31c-.43-.15-.34-.13-.69-.23s-.48-.13-.69-.21l-.68-.26c-.23-.09-.47-.15-.68-.24s-.43-.24-.64-.34-.46-.16-.67-.27-.41-.28-.61-.39-.44-.21-.64-.34-.37-.3-.57-.44L69,43.66l-.56-.45c-.17-.15-.34-.32-.53-.48s-.39-.27-.58-.43-.32-.35-.5-.52-.31-.36-.49-.53-.38-.29-.56-.46-.33-.34-.51-.51l-.53-.5c-.17-.16-.36-.31-.54-.48s-.32-.37-.49-.52-.39-.29-.57-.44-.4-.26-.59-.39-.39-.29-.59-.42-.38-.29-.58-.41-.45-.17-.66-.28-.4-.27-.62-.37-.46-.14-.68-.22S59,36,58.8,36s-.47-.11-.7-.17-.46-.13-.69-.18-.48,0-.71-.09L56,35.4s0-.06,0-.06a1.51,1.51,0,0,0-.64-.07c-.18,0-.4,0-.65,0a5.56,5.56,0,0,0-.64.05c-.41,0-.33-.05-.63,0,0,0,0,0,0,0-.22,0-.46,0-.71.08l-.69.15c-.23,0-.47,0-.71.12s-.42.21-.66.28-.46.09-.69.18-.44.16-.67.26-.39.26-.61.37-.43.18-.64.3l-.62.37-.59.4c-.19.14-.4.26-.59.41s-.31.36-.49.52-.39.27-.57.44-.34.35-.51.52l-.52.5-.51.51c-.19.17-.38.31-.55.47l-.54.49c-.18.17-.34.35-.51.5s-.35.36-.52.51-.4.29-.58.44-.4.28-.58.42-.35.34-.54.48-.42.24-.62.37-.37.3-.58.42-.43.21-.65.32-.44.18-.66.28-.43.2-.66.29l-.66.28-.67.25c-.22.08-.44.18-.68.26s-.27,0-.71.2l-.7.25c-.21.08-.41.24-.66.34s-.46.15-.69.27-.44.2-.66.32l-.65.37c-.21.12-.39.29-.6.43s-.4.29-.6.44-.43.25-.62.41a6.68,6.68,0,0,0-.49.57c-.18.17-.42.29-.58.47s-.33.38-.48.57a7,7,0,0,0-.36.66,5.58,5.58,0,0,0-.39.63,7,7,0,0,0-.3.68,7.37,7.37,0,0,0-.23.71c-.06.24-.05.49-.1.73s-.14.48-.18.71,0,.5-.05.74,0,.49-.05.73-.06.49-.06.73.05.49.07.73.06.49.1.72,0,.5.09.73.16.47.23.7.16.46.26.68a7,7,0,0,0,.29.68,6.36,6.36,0,0,0,.43.59c.15.2.28.41.44.59s.36.34.54.5.38.3.58.45l.6.4c.22.12.42.27.64.38s.48.16.7.26.45.23.68.3a6.38,6.38,0,0,0,.72.19c.24,0,.49.08.74.11s.49,0,.74,0a6.15,6.15,0,0,0,.74.06c.24,0,.49,0,.74,0l.74-.09.73-.1.73-.12c.24,0,.49,0,.74-.09s.47-.15.72-.21.49-.06.74-.13.47-.15.71-.21l.69-.22c.24-.07.46-.18.69-.25L42,64c.23-.07.47-.1.7-.17s.45-.21.68-.28.47-.1.7-.17l.69-.19.69-.22.7-.18c.23-.06.44-.18.68-.24s.48-.06.71-.11.46-.14.7-.19.47-.08.71-.12.47-.08.71-.12.47-.1.71-.13.47-.1.71-.13.48,0,.73,0,.47-.09.71-.11l.72,0c.24,0,.48-.06.72-.07s.49,0,.73,0l.73,0c.24,0,.49,0,.72,0s.49,0,.73.06l.73,0,.72.09.72.08c.24,0,.47.12.7.15s.49.06.72.11.47.12.7.17l.71.15.71.17c.23.06.47.1.7.17s.46.16.69.23.47.1.7.17l.69.19c.23.07.44.18.67.25s.48.09.71.16.43.2.66.27l.7.19.69.21.69.2.73.19L71,65c.24.06.47.17.71.22s.49.12.72.16.51,0,.75.06l.73.12c.26,0,.5.06.74.07l.74,0c.26,0,.51,0,.75,0s.49-.1.73-.13.49-.08.73-.13.49-.08.73-.15.46-.18.69-.27.45-.19.67-.3.46-.18.68-.31a6,6,0,0,0,.59-.44,5.9,5.9,0,0,0,.59-.43A6.38,6.38,0,0,0,82,63a6.47,6.47,0,0,0,.47-.57,5.49,5.49,0,0,0,.4-.62c.12-.2.17-.45.28-.68a6.8,6.8,0,0,0,.3-.67c.08-.22.11-.47.17-.71s.08-.47.12-.72.13-.47.15-.72,0-.48,0-.73,0-.48,0-.73,0-.48-.07-.73,0-.48-.08-.73-.07-.48-.12-.72S83.5,54.17,83.44,53.93Z"/><path class="cls-2" d="M83.44,53.93c-.06-.25-.07-.5-.15-.73a7.29,7.29,0,0,0-.28-.7c-.11-.22-.26-.42-.39-.63a6.58,6.58,0,0,0-.42-.61c-.15-.2-.32-.38-.48-.57s-.33-.37-.51-.54-.37-.33-.55-.49-.41-.28-.61-.43-.38-.32-.59-.45-.4-.3-.6-.43L78.21,48c-.23-.12-.47-.18-.69-.28s-.44-.25-.66-.35-.49-.15-.7-.23-.48-.24-.68-.31c-.43-.15-.34-.13-.69-.23s-.48-.13-.69-.21l-.68-.26c-.23-.09-.47-.15-.68-.24s-.43-.24-.64-.34-.46-.16-.67-.27-.41-.28-.61-.39-.44-.21-.64-.34-.37-.3-.57-.44L69,43.66l-.56-.45c-.17-.15-.34-.32-.53-.48s-.39-.27-.58-.43-.32-.35-.5-.52-.31-.36-.49-.53-.38-.29-.56-.46-.33-.34-.51-.51l-.53-.5c-.17-.16-.36-.31-.54-.48s-.32-.37-.49-.52-.39-.29-.57-.44-.4-.26-.59-.39-.39-.29-.59-.42-.38-.29-.58-.41-.45-.17-.66-.28-.4-.27-.62-.37-.46-.14-.68-.22S59,36,58.8,36s-.47-.11-.7-.17-.46-.13-.69-.18-.48,0-.71-.09L56,35.4s0-.06,0-.06a1.51,1.51,0,0,0-.64-.07c-.18,0-.4,0-.65,0a5.56,5.56,0,0,0-.64.05c-.41,0-.33-.05-.63,0,0,0,0,0,0,0-.22,0-.46,0-.71.08l-.69.15c-.23,0-.47,0-.71.12s-.42.21-.66.28-.46.09-.69.18-.44.16-.67.26-.39.26-.61.37-.43.18-.64.3l-.62.37-.59.4c-.19.14-.4.26-.59.41s-.31.36-.49.52-.39.27-.57.44-.34.35-.51.52l-.52.5-.51.51c-.19.17-.38.31-.55.47l-.54.49c-.18.17-.34.35-.51.5s-.35.36-.52.51-.4.29-.58.44-.4.28-.58.42-.35.34-.54.48-.42.24-.62.37-.37.3-.58.42-.43.21-.65.32-.44.18-.66.28-.43.2-.66.29l-.66.28-.67.25c-.22.08-.44.18-.68.26s-.27,0-.71.2l-.7.25c-.21.08-.41.24-.66.34s-.46.15-.69.27-.44.2-.66.32l-.65.37c-.21.12-.39.29-.6.43s-.4.29-.6.44-.43.25-.62.41a6.68,6.68,0,0,0-.49.57c-.18.17-.42.29-.58.47s-.33.38-.48.57a7,7,0,0,0-.36.66,5.58,5.58,0,0,0-.39.63,7,7,0,0,0-.3.68,7.37,7.37,0,0,0-.23.71c-.06.24-.05.49-.1.73s-.14.48-.18.71,0,.5-.05.74,0,.49-.05.73-.06.49-.06.73.05.49.07.73.06.49.1.72,0,.5.09.73.16.47.23.7.16.46.26.68a7,7,0,0,0,.29.68,6.36,6.36,0,0,0,.43.59c.15.2.28.41.44.59s.36.34.54.5.38.3.58.45l.6.4c.22.12.42.27.64.38s.48.16.7.26.45.23.68.3a6.38,6.38,0,0,0,.72.19c.24,0,.49.08.74.11s.49,0,.74,0a6.15,6.15,0,0,0,.74.06c.24,0,.49,0,.74,0l.74-.09.73-.1.73-.12c.24,0,.49,0,.74-.09s.47-.15.72-.21.49-.06.74-.13.47-.15.71-.21l.69-.22c.24-.07.46-.18.69-.25L42,64c.23-.07.47-.1.7-.17s.45-.21.68-.28.47-.1.7-.17l.69-.19.69-.22.7-.18c.23-.06.44-.18.68-.24s.48-.06.71-.11.46-.14.7-.19.47-.08.71-.12.47-.08.71-.12.47-.1.71-.13.47-.1.71-.13.48,0,.73,0,.47-.09.71-.11l.72,0c.24,0,.48-.06.72-.07s.49,0,.73,0l.73,0c.24,0,.49,0,.72,0s.49,0,.73.06l.73,0,.72.09.72.08c.24,0,.47.12.7.15s.49.06.72.11.47.12.7.17l.71.15.71.17c.23.06.47.1.7.17s.46.16.69.23.47.1.7.17l.69.19c.23.07.44.18.67.25s.48.09.71.16.43.2.66.27l.7.19.69.21.69.2.73.19L71,65c.24.06.47.17.71.22s.49.12.72.16.51,0,.75.06l.73.12c.26,0,.5.06.74.07l.74,0c.26,0,.51,0,.75,0s.49-.1.73-.13.49-.08.73-.13.49-.08.73-.15.46-.18.69-.27.45-.19.67-.3.46-.18.68-.31a6,6,0,0,0,.59-.44,5.9,5.9,0,0,0,.59-.43A6.38,6.38,0,0,0,82,63a6.47,6.47,0,0,0,.47-.57,5.49,5.49,0,0,0,.4-.62c.12-.2.17-.45.28-.68a6.8,6.8,0,0,0,.3-.67c.08-.22.11-.47.17-.71s.08-.47.12-.72.13-.47.15-.72,0-.48,0-.73,0-.48,0-.73,0-.48-.07-.73,0-.48-.08-.73-.07-.48-.12-.72S83.5,54.17,83.44,53.93Z"/></g></g></svg>