<svg xmlns="http://www.w3.org/2000/svg" viewBox="0 0 97.05 50.39"><defs><style>.cls-1{fill:#425a37;}</style></defs><g id="Layer_2" data-name="Layer 2"><g id="design"><path class="cls-1" d="M96.26,30.89c-.06-.24-.17-.46-.24-.69s-.11-.49-.19-.71-.24-.43-.34-.65-.19-.46-.3-.67-.31-.38-.44-.59-.22-.44-.35-.64-.25-.43-.39-.62-.3-.39-.46-.57-.33-.37-.49-.54-.43-.26-.6-.43-.34-.36-.52-.52l-.54-.48c-.19-.16-.34-.36-.54-.5l-.56-.47c-.2-.14-.47-.18-.67-.32s-.39-.29-.6-.42-.37-.33-.57-.45-.48-.15-.69-.27-.39-.31-.6-.42-.46-.17-.68-.28-.46-.18-.67-.28-.43-.25-.64-.35-.44-.25-.65-.33-.5-.11-.72-.19-.48-.15-.69-.22-.45-.3-.64-.36c-.44-.14-.37,0-.71-.14s-.45-.19-.67-.27-.47-.12-.69-.2-.44-.21-.65-.3-.44-.23-.65-.31-.5-.07-.72-.16-.43-.23-.64-.33-.41-.26-.63-.36-.45-.17-.66-.28-.44-.19-.65-.3-.45-.19-.65-.31l-.62-.36c-.2-.13-.36-.34-.56-.47l-.6-.38c-.19-.14-.42-.23-.61-.38l-.57-.43-.55-.46c-.18-.14-.32-.35-.51-.5l-.55-.46c-.18-.15-.32-.35-.5-.51s-.44-.22-.62-.38-.32-.35-.5-.52-.33-.34-.51-.51-.38-.29-.56-.46-.35-.3-.53-.47l-.51-.49c-.17-.17-.25-.43-.43-.6s-.44-.23-.62-.39-.31-.36-.49-.53l-.53-.5c-.17-.16-.33-.35-.51-.52s-.37-.31-.55-.48l-.56-.48c-.19-.16-.34-.35-.53-.51s-.42-.26-.61-.41-.35-.36-.54-.5l-.61-.41c-.21-.14-.44-.24-.64-.37s-.44-.22-.65-.34L59,2.78c-.22-.11-.42-.25-.63-.36s-.48-.15-.7-.25S57.19,2,57,1.85l-.67-.29c-.23-.09-.43-.25-.66-.33L54.93,1c-.24-.07-.48-.1-.71-.17S53.73.76,53.49.7,53,.5,52.8.45s-.49,0-.73-.09-.5,0-.73,0L50.61.22s.06-.16,0-.17c-.34-.12-.28.07-.73,0-.2,0-.44-.08-.71-.09s-.45,0-.71,0h-.72c-.28,0-.52,0-.72,0a1.38,1.38,0,0,0-.67.15s0,0,0,0c-.24,0-.47.12-.72.15l-.72.1-.71.16c-.24,0-.5,0-.74.06s-.44.23-.68.29-.47.13-.7.21-.49,0-.73.13-.42.25-.65.34L40,1.84c-.22.09-.43.22-.65.33s-.49.1-.71.21-.37.34-.59.46-.44.21-.65.33-.43.23-.64.36l-.62.39c-.2.13-.42.23-.63.37s-.36.33-.56.48-.43.23-.63.39-.34.35-.53.51-.33.35-.52.52-.44.24-.62.41l-.53.5c-.17.17-.29.4-.46.56s-.33.36-.5.52-.44.24-.61.41-.32.37-.49.53-.37.31-.54.47-.34.34-.51.5-.34.35-.51.51-.37.31-.54.47-.39.3-.56.45-.3.4-.48.56l-.54.48-.55.46-.55.46c-.19.15-.35.33-.53.48s-.45.2-.64.34-.31.4-.5.53-.44.21-.64.35-.36.31-.57.44l-.61.37c-.2.12-.42.22-.64.33s-.47.11-.69.22-.39.28-.61.38-.41.22-.63.32-.42.23-.64.32-.49.06-.72.15-.41.24-.64.32-.42.22-.65.31-.47.09-.7.18-.43.21-.66.29-.24.1-.68.24c-.19.07-.47,0-.73.09s-.39.3-.64.39-.48.06-.72.16-.45.16-.68.26-.41.24-.64.35l-.66.31c-.21.1-.42.24-.64.35l-.65.33-.62.38c-.21.12-.38.31-.59.44s-.43.21-.64.35-.43.22-.63.37l-.59.43c-.19.15-.32.37-.51.53s-.41.27-.59.43-.29.39-.47.56-.4.28-.57.46-.36.34-.51.52-.26.42-.41.61-.3.38-.44.58-.22.44-.35.64-.32.38-.44.59-.15.47-.25.69a5.76,5.76,0,0,0-.37.63c-.09.23-.11.48-.18.71s-.2.45-.26.69-.11.47-.16.71-.09.47-.13.71-.12.47-.16.7,0,.5,0,.73-.12.47-.15.71-.13.47-.15.71,0,.49,0,.72,0,.49,0,.72,0,.49,0,.73.07.48.09.71,0,.5,0,.73.1.48.14.71.15.47.2.7.08.48.14.7.06.49.14.72S1,42,1,42.25s.08.49.18.71.28.39.4.6.16.47.28.67.32.37.46.56.27.4.42.59.37.31.53.49.3.37.47.54.31.37.49.52.36.34.54.48.42.25.61.39.45.19.65.31.4.26.61.37l.63.33c.21.11.41.24.63.33s.45.16.67.24.41.25.64.33.49,0,.72.07.43.22.67.27.46.12.69.16.49-.06.73,0,.46.12.7.14l.71,0h.71c.23,0,.47,0,.71,0s.46-.16.69-.18.48,0,.72,0,.46-.08.7-.11l.7-.11.7-.14c.23,0,.48,0,.71-.07s.47-.07.7-.12.45-.13.69-.18.44-.16.68-.22.47,0,.71-.1.47,0,.71-.1.43-.22.67-.28.47-.06.71-.13.44-.22.67-.29.48-.09.7-.15.49-.08.71-.15.46-.16.69-.23l.69-.22.69-.2c.23-.08.45-.18.68-.25s.47-.1.7-.17.46-.13.69-.2.42-.25.65-.33.48-.05.71-.12l.7-.19.68-.2c.23-.07.44-.2.67-.27l.68-.2c.23-.06.49,0,.72-.09s.42-.26.66-.32.49,0,.72,0l.7-.15c.23-.05.44-.21.68-.26s.48,0,.71-.08l.71-.13c.23,0,.47-.06.71-.09s.45-.19.69-.23.48,0,.72,0,.47-.14.71-.17l.71-.1c.24,0,.48,0,.72,0s.47-.1.71-.12.47-.07.72-.09.48.05.72,0,.48-.09.72-.1.48,0,.72,0,.49.06.73.06.48-.08.73-.09.48.06.72.07.48,0,.72,0h.72l.72,0c.24,0,.48.08.71.1s.49-.06.73,0,.47.15.71.17l.71.08c.24,0,.48,0,.72,0s.49,0,.73,0,.47.14.7.18.49,0,.72.08.49,0,.72.09l.71.14.7.16c.24,0,.45.19.69.24s.48,0,.71.1.45.19.68.25.48.09.71.15l.7.16c.23.06.49,0,.71.12s.46.16.69.23.44.21.67.27.48,0,.71.11.44.21.66.28.45.18.68.25.46.11.69.19l.67.23c.23.07.49,0,.72.11s.42.23.65.3.47.09.7.16.44.17.67.24.45.15.69.21.46.1.69.16.49.07.72.14.43.26.65.32.49,0,.71.1l.69.18c.23.06.48.07.7.12s.46.18.69.24l.69.17c.24.05.49,0,.72.05s.47.11.7.15.48,0,.71.08l.7.11.71.07c.24,0,.47.12.7.13s.48,0,.71,0,.47.07.71.07h.71l.71,0c.24,0,.47-.07.7-.1s.49,0,.72,0,.45-.14.68-.19.46-.12.69-.18.47-.07.69-.15.42-.23.64-.32.47-.08.69-.17.42-.22.63-.32l.63-.33.62-.35c.2-.12.4-.26.6-.4s.36-.3.56-.45.43-.21.62-.37.37-.3.55-.47.25-.42.41-.6.34-.34.49-.53.3-.37.44-.57.27-.39.39-.6.32-.37.44-.58.13-.47.23-.69.19-.43.28-.66.22-.43.29-.66.12-.46.18-.69.12-.46.17-.7.19-.45.23-.69,0-.48,0-.72.12-.47.14-.71l0-.73c0-.23,0-.48,0-.72s0-.48,0-.73-.14-.47-.15-.71,0-.48,0-.72-.11-.47-.15-.71-.1-.47-.14-.71,0-.48,0-.72-.13-.47-.19-.71S96.32,31.13,96.26,30.89Z"/></g></g></svg>