<svg xmlns="http://www.w3.org/2000/svg" viewBox="0 0 108.42 67.73"><defs><style>.cls-1{fill:#425a37;}.cls-2{fill:none;stroke:#333;stroke-miterlimit:10;stroke-width:1.5px;}</style></defs><g id="Layer_2" data-name="Layer 2"><g id="design"><path class="cls-1" d="M107,24.72c0-.24-.07-.49-.14-.71a7,7,0,0,0-.24-.69,6.49,6.49,0,0,0-.39-.62c-.11-.22-.22-.43-.35-.64a6.25,6.25,0,0,0-.38-.61c-.15-.2-.28-.4-.44-.59s-.3-.38-.47-.55-.34-.35-.51-.52-.41-.27-.59-.43-.32-.38-.51-.53-.4-.28-.59-.42-.44-.21-.64-.35-.39-.29-.59-.42l-.64-.36c-.21-.12-.4-.29-.61-.39l-.65-.34c-.23-.11-.49-.11-.7-.2s-.45-.24-.66-.33-.45-.24-.65-.32-.51-.12-.71-.19l-.68-.21-.68-.24-.69-.24c-.24-.09-.45-.2-.67-.28l-.68-.27c-.23-.1-.43-.24-.64-.33s-.48-.14-.69-.25-.42-.24-.63-.36-.4-.28-.61-.41-.46-.17-.66-.3-.35-.33-.55-.47-.44-.22-.63-.37-.32-.36-.51-.52-.44-.22-.63-.38-.32-.35-.51-.52-.4-.26-.59-.42-.33-.35-.51-.51-.37-.31-.55-.48-.3-.37-.48-.54-.37-.3-.55-.48-.3-.37-.48-.55l-.53-.48c-.17-.16-.34-.35-.52-.52s-.42-.26-.6-.43-.3-.37-.48-.52-.38-.28-.56-.43l-.55-.43c-.19-.14-.33-.35-.52-.48s-.41-.23-.61-.35-.36-.31-.56-.43-.43-.2-.63-.31l-.62-.34c-.21-.1-.44-.17-.65-.27s-.42-.21-.63-.3l-.65-.26c-.22-.08-.46-.12-.68-.19s-.46-.1-.68-.17-.43-.22-.65-.27-.48,0-.71-.05-.46-.1-.68-.13-.46-.1-.69-.13c0,0,0-.1,0-.1-.39-.12-.31.06-.84,0-.23,0-.51,0-.83,0s-.6,0-.83,0c-.52,0-.42-.09-.82,0,0,0,0,.06,0,.07-.22,0-.47,0-.71,0s-.44.11-.68.16l-.69.13c-.22.06-.45.08-.68.14s-.44.15-.67.22-.43.18-.65.26-.42.19-.64.28-.44.16-.65.26-.41.22-.62.33S62,2.9,61.78,3s-.39.26-.59.38-.46.15-.66.28-.36.3-.55.44-.34.32-.53.46-.38.28-.56.43-.4.24-.58.4-.28.38-.45.55-.44.25-.61.42-.27.42-.44.58-.42.28-.59.45-.3.39-.47.55-.37.33-.54.49-.4.3-.57.46l-.53.5c-.18.17-.32.38-.5.54l-.54.48c-.19.16-.4.29-.58.44s-.36.33-.55.48-.37.32-.56.46-.42.25-.62.39-.37.32-.57.45-.42.24-.63.36l-.62.36c-.21.11-.46.16-.68.27l-.65.3c-.21.1-.4.27-.63.36s-.46.13-.69.22-.41.26-.64.35-.48.09-.71.17l-.68.25c-.35.11-.25.1-.69.25-.19.06-.43.12-.69.22s-.42.19-.66.29-.42.2-.65.3-.45.16-.67.27l-.66.3c-.21.11-.45.19-.67.31s-.39.28-.6.41l-.62.38c-.2.13-.41.25-.61.39s-.37.32-.56.47-.34.34-.53.5-.4.27-.57.44-.36.33-.53.51a6.31,6.31,0,0,0-.44.58c-.16.18-.38.31-.53.51s-.19.46-.32.66-.31.38-.42.59-.17.46-.27.68-.22.43-.3.67-.08.48-.14.71-.15.46-.2.69-.06.48-.1.71-.08.48-.11.71-.12.48-.15.71,0,.48,0,.72,0,.48,0,.72,0,.48,0,.72.06.48.08.71.05.48.08.71.05.48.1.71.14.46.2.69.08.48.16.7a6.42,6.42,0,0,0,.33.64c.1.22.11.48.22.69s.31.37.44.57.22.43.36.62.3.38.46.56.32.36.49.52.37.31.55.46.36.32.56.46.45.18.65.3.36.34.57.45l.64.32c.22.1.46.15.68.24l.68.23c.23.07.46.16.69.22s.46.11.7.15l.71.1.72,0c.23,0,.47,0,.72,0s.47,0,.71,0,.47-.07.72-.09.46-.1.7-.13.48,0,.73,0,.45-.13.69-.18.48,0,.71-.07l.71-.15c.23,0,.44-.18.68-.23l.69-.16.71-.18c.22-.06.48-.06.71-.12l.7-.22c.23-.07.46-.16.69-.22l.69-.23c.23-.07.45-.18.67-.25s.5,0,.73-.12.43-.25.66-.32.49,0,.72-.13.44-.18.67-.25l.69-.22c.23-.07.44-.18.68-.25s.46-.1.69-.17.49,0,.72-.09.44-.21.68-.27.47-.08.7-.14.48,0,.72-.1l.7-.15.71-.12c.24,0,.45-.19.7-.23s.48,0,.73,0,.46-.17.7-.2l.71-.1c.23,0,.48,0,.72,0s.48-.08.72-.1.48,0,.73,0,.47-.08.71-.09l.73,0,.73,0c.25,0,.49,0,.72,0h.73c.24,0,.48.06.72.08s.48,0,.72,0l.72,0c.25,0,.48.12.72.14s.49,0,.73.06.49,0,.72,0,.48.12.71.16.48.1.71.15.47.1.71.15.49,0,.72.05.46.18.7.23l.7.16c.24,0,.48.08.72.14l.7.16c.23.07.44.22.67.29s.47.11.7.18.47.1.7.17l.69.19c.23.07.44.22.66.29s.48.07.71.14.44.21.67.29l.68.21c.23.07.48.07.71.14l.69.19.7.19c.24.07.44.22.67.28s.49,0,.72.11.45.2.68.25.49,0,.72.1.46.17.69.22l.7.13c.24,0,.49,0,.72.06s.48.05.71.08.47.14.71.16l.71,0c.25,0,.49,0,.72,0s.49,0,.72,0,.47-.09.71-.12.48,0,.72,0l.7-.15c.23-.06.44-.19.67-.26s.47-.08.7-.16.42-.22.64-.31.42-.23.63-.34.45-.17.66-.29.38-.29.58-.43a7,7,0,0,0,.59-.41c.18-.14.38-.29.56-.45s.32-.35.49-.53.26-.4.4-.6.32-.36.45-.56.26-.4.38-.61.22-.42.32-.64.14-.46.22-.69.15-.45.22-.68.13-.45.18-.69,0-.48.07-.72.08-.47.1-.71.11-.47.12-.71,0-.48,0-.72-.12-.47-.13-.71.06-.49,0-.73l-.09-.71c0-.24-.09-.47-.13-.71s-.15-.46-.2-.7S107,25,107,24.72Z" transform="translate(0)"/><path class="cls-2" d="M107,24.72c0-.24-.07-.49-.14-.71a7,7,0,0,0-.24-.69,6.49,6.49,0,0,0-.39-.62c-.11-.22-.22-.43-.35-.64a6.25,6.25,0,0,0-.38-.61c-.15-.2-.28-.4-.44-.59s-.3-.38-.47-.55-.34-.35-.51-.52-.41-.27-.59-.43-.32-.38-.51-.53-.4-.28-.59-.42-.44-.21-.64-.35-.39-.29-.59-.42l-.64-.36c-.21-.12-.4-.29-.61-.39l-.65-.34c-.23-.11-.49-.11-.7-.2s-.45-.24-.66-.33-.45-.24-.65-.32-.51-.12-.71-.19l-.68-.21-.68-.24-.69-.24c-.24-.09-.45-.2-.67-.28l-.68-.27c-.23-.1-.43-.24-.64-.33s-.48-.14-.69-.25-.42-.24-.63-.36-.4-.28-.61-.41-.46-.17-.66-.3-.35-.33-.55-.47-.44-.22-.63-.37-.32-.36-.51-.52-.44-.22-.63-.38-.32-.35-.51-.52-.4-.26-.59-.42-.33-.35-.51-.51-.37-.31-.55-.48-.3-.37-.48-.54-.37-.3-.55-.48-.3-.37-.48-.55l-.53-.48c-.17-.16-.34-.35-.52-.52s-.42-.26-.6-.43-.3-.37-.48-.52-.38-.28-.56-.43l-.55-.43c-.19-.14-.33-.35-.52-.48s-.41-.23-.61-.35-.36-.31-.56-.43-.43-.2-.63-.31l-.62-.34c-.21-.1-.44-.17-.65-.27s-.42-.21-.63-.3l-.65-.26c-.22-.08-.46-.12-.68-.19s-.46-.1-.68-.17-.43-.22-.65-.27-.48,0-.71-.05-.46-.1-.68-.13-.46-.1-.69-.13c0,0,0-.1,0-.1-.39-.12-.31.06-.84,0-.23,0-.51,0-.83,0s-.6,0-.83,0c-.52,0-.42-.09-.82,0,0,0,0,.06,0,.07-.22,0-.47,0-.71,0s-.44.11-.68.16l-.69.13c-.22.06-.45.08-.68.14s-.44.15-.67.22-.43.18-.65.26-.42.19-.64.28-.44.16-.65.26-.41.22-.62.33S62,2.9,61.78,3s-.39.26-.59.38-.46.15-.66.28-.36.3-.55.44-.34.32-.53.46-.38.28-.56.43-.4.24-.58.4-.28.38-.45.55-.44.25-.61.42-.27.42-.44.58-.42.28-.59.45-.3.39-.47.55-.37.33-.54.49-.4.3-.57.46l-.53.5c-.18.17-.32.38-.5.54l-.54.48c-.19.16-.4.29-.58.44s-.36.33-.55.48-.37.32-.56.46-.42.25-.62.39-.37.32-.57.45-.42.24-.63.36l-.62.36c-.21.11-.46.16-.68.27l-.65.3c-.21.1-.4.27-.63.36s-.46.13-.69.22-.41.26-.64.35-.48.09-.71.17l-.68.25c-.35.11-.25.1-.69.25-.19.06-.43.12-.69.22s-.42.19-.66.29-.42.2-.65.3-.45.16-.67.27l-.66.3c-.21.11-.45.19-.67.31s-.39.28-.6.41l-.62.38c-.2.13-.41.25-.61.39s-.37.32-.56.47-.34.34-.53.5-.4.27-.57.44-.36.33-.53.51a6.31,6.31,0,0,0-.44.58c-.16.18-.38.31-.53.51s-.19.46-.32.66-.31.38-.42.59-.17.46-.27.68-.22.43-.3.67-.08.48-.14.71-.15.46-.2.69-.06.48-.1.71-.08.48-.11.71-.12.48-.15.71,0,.48,0,.72,0,.48,0,.72,0,.48,0,.72.06.48.08.71.05.48.08.71.05.48.1.71.14.46.2.69.08.48.16.7a6.42,6.42,0,0,0,.33.64c.1.22.11.48.22.69s.31.37.44.57.22.43.36.62.3.38.46.56.32.36.49.52.37.31.55.46.36.32.56.46.45.18.65.3.36.34.57.45l.64.32c.22.1.46.15.68.24l.68.23c.23.07.46.16.69.22s.46.11.7.15l.71.1.72,0c.23,0,.47,0,.72,0s.47,0,.71,0,.47-.07.72-.09.46-.1.7-.13.48,0,.73,0,.45-.13.69-.18.48,0,.71-.07l.71-.15c.23,0,.44-.18.68-.23l.69-.16.71-.18c.22-.06.48-.06.71-.12l.7-.22c.23-.07.46-.16.69-.22l.69-.23c.23-.07.45-.18.67-.25s.5,0,.73-.12.43-.25.66-.32.49,0,.72-.13.44-.18.67-.25l.69-.22c.23-.07.44-.18.68-.25s.46-.1.69-.17.49,0,.72-.09.44-.21.68-.27.47-.08.7-.14.48,0,.72-.1l.7-.15.71-.12c.24,0,.45-.19.7-.23s.48,0,.73,0,.46-.17.7-.2l.71-.1c.23,0,.48,0,.72,0s.48-.08.72-.1.48,0,.73,0,.47-.08.71-.09l.73,0,.73,0c.25,0,.49,0,.72,0h.73c.24,0,.48.06.72.08s.48,0,.72,0l.72,0c.25,0,.48.12.72.14s.49,0,.73.06.49,0,.72,0,.48.12.71.16.48.1.71.15.47.1.71.15.49,0,.72.05.46.18.7.23l.7.16c.24,0,.48.08.72.14l.7.16c.23.07.44.22.67.29s.47.11.7.18.47.1.7.17l.69.19c.23.07.44.22.66.29s.48.07.71.14.44.21.67.29l.68.21c.23.07.48.07.71.14l.69.19.7.19c.24.07.44.22.67.28s.49,0,.72.11.45.2.68.25.49,0,.72.1.46.17.69.22l.7.13c.24,0,.49,0,.72.06s.48.05.71.08.47.14.71.16l.71,0c.25,0,.49,0,.72,0s.49,0,.72,0,.47-.09.71-.12.48,0,.72,0l.7-.15c.23-.06.44-.19.67-.26s.47-.08.7-.16.42-.22.64-.31.42-.23.63-.34.45-.17.66-.29.38-.29.58-.43a7,7,0,0,0,.59-.41c.18-.14.38-.29.56-.45s.32-.35.49-.53.26-.4.4-.6.32-.36.45-.56.26-.4.38-.61.22-.42.32-.64.14-.46.22-.69.15-.45.22-.68.13-.45.18-.69,0-.48.07-.72.08-.47.1-.71.11-.47.12-.71,0-.48,0-.72-.12-.47-.13-.71.06-.49,0-.73l-.09-.71c0-.24-.09-.47-.13-.71s-.15-.46-.2-.7S107,25,107,24.72Z" transform="translate(0)"/><path class="cls-1" d="M75.32,51.87c-.06-.24-.07-.49-.14-.72s-.16-.46-.25-.68a6.77,6.77,0,0,0-.33-.66c-.11-.21-.25-.41-.38-.62s-.3-.38-.44-.58-.3-.37-.46-.56-.31-.37-.47-.55l-.52-.5c-.18-.17-.29-.4-.48-.56s-.41-.26-.6-.41-.37-.32-.57-.46-.42-.23-.62-.36-.37-.33-.58-.46l-.64-.34c-.21-.13-.44-.21-.65-.32l-.65-.34c-.23-.1-.44-.22-.65-.31s-.46-.22-.67-.3-.46-.21-.67-.29-.51-.13-.7-.19c-.43-.15-.33-.13-.67-.24s-.5-.08-.72-.16S63,42,62.8,41.94s-.44-.21-.66-.29l-.68-.27-.66-.3c-.22-.1-.48-.12-.69-.23s-.45-.2-.66-.31-.4-.29-.6-.41-.39-.3-.59-.43-.39-.27-.59-.42-.43-.21-.63-.36-.35-.31-.55-.47-.39-.27-.58-.43l-.55-.47c-.18-.16-.3-.38-.49-.54s-.41-.26-.59-.43-.33-.34-.52-.51l-.52-.49-.52-.51c-.17-.16-.37-.31-.55-.48s-.28-.39-.45-.56-.43-.26-.61-.43-.32-.36-.5-.54l-.53-.46c-.18-.16-.32-.36-.5-.5s-.39-.27-.57-.41-.41-.24-.6-.38-.34-.32-.53-.45-.38-.28-.58-.4l-.62-.34c-.21-.11-.44-.18-.64-.29s-.42-.21-.64-.3-.41-.22-.63-.31-.44-.15-.66-.23-.46-.12-.68-.19-.43-.2-.65-.26-.46-.09-.69-.14-.45-.13-.68-.18-.47,0-.69-.07-.48,0-.7-.06c0,0,0,0,0,0a2,2,0,0,0-.8-.11c-.23,0-.51,0-.83,0s-.6,0-.84,0c-.52,0-.43-.13-.83,0,0,0,0,0,0,0-.22,0-.45.07-.68.11l-.7.1c-.22.05-.43.18-.66.24s-.47,0-.7.08-.44.17-.66.24-.46.11-.68.19-.39.26-.61.35-.44.16-.65.26-.44.17-.65.27-.42.2-.63.32l-.61.34c-.2.12-.38.26-.58.39s-.4.25-.59.39-.41.23-.6.37-.36.3-.54.45l-.53.47c-.17.15-.31.35-.48.52l-.52.51c-.18.17-.41.28-.58.44s-.37.32-.54.49L24,35l-.52.51c-.19.17-.29.42-.46.58s-.4.29-.58.45l-.52.51c-.19.17-.34.36-.52.51s-.43.25-.61.4-.33.38-.51.52-.39.3-.58.44-.44.22-.64.36l-.59.41c-.21.13-.36.34-.57.46s-.43.21-.65.32-.41.25-.63.36-.45.15-.68.25-.42.21-.65.31l-.66.28-.68.25c-.22.08-.43.21-.67.3l-.69.22c-.35.11-.25.1-.68.25-.19.06-.44.1-.7.19s-.41.22-.65.32l-.67.27c-.21.09-.42.21-.65.32s-.44.17-.66.28l-.65.33c-.21.12-.44.2-.65.33s-.41.25-.62.39-.41.24-.61.39-.39.29-.58.44-.39.3-.57.46-.31.38-.49.54-.37.31-.54.49-.29.39-.44.58-.32.36-.46.56-.34.36-.47.57-.23.42-.35.64-.24.42-.34.65-.18.45-.26.68-.12.47-.18.71,0,.49-.07.72-.2.46-.25.69S1,53.74,1,54s0,.49,0,.72,0,.48-.07.72-.12.48-.12.71,0,.49.05.73,0,.48,0,.72.05.48.09.71.1.48.15.71.16.45.23.68.06.49.14.71.19.44.29.66.16.45.27.66.28.4.41.59a6.22,6.22,0,0,0,.43.58c.14.19.32.36.47.53s.27.41.44.57.4.28.58.43.36.32.55.45.39.3.59.42.45.17.66.28l.64.32c.22.1.45.17.67.25s.44.18.67.25a7,7,0,0,0,.69.18c.23.06.45.17.68.21s.48,0,.72,0,.46.15.7.16l.72,0c.23,0,.47-.07.72-.08s.47-.05.71-.07.48,0,.72,0,.46-.13.7-.16l.71-.13c.23,0,.47,0,.71-.06l.7-.15c.23,0,.45-.19.68-.24l.7-.17.69-.19.7-.21c.23-.06.49,0,.72-.11s.45-.19.68-.26.48-.08.71-.15.45-.2.68-.27.45-.18.68-.25.48-.08.71-.15.45-.17.68-.24.48-.08.71-.15l.69-.22c.23-.06.45-.17.68-.23s.47-.11.7-.17.45-.18.68-.24.45-.15.69-.21l.7-.17c.23,0,.48,0,.72-.06l.7-.16.71-.17.71-.12.71-.11c.24,0,.48,0,.72,0s.47-.1.71-.13l.72-.07c.23,0,.47-.09.72-.11s.48,0,.72,0,.48,0,.72,0,.48,0,.73,0,.48-.12.73-.13.48.09.72.1.49,0,.72,0,.49,0,.73,0,.48.11.71.13l.73.05c.24,0,.48.1.71.12s.49,0,.73,0,.48.11.71.15l.72.11c.24,0,.49,0,.72,0s.47.13.71.18.48.06.71.11.46.17.69.23.48.09.71.15.49,0,.72.11.45.18.68.25.47.11.7.18.48.07.71.14.43.22.66.29.49.06.72.13.44.18.67.25.45.16.68.24l.69.21.68.22c.23.07.47.09.7.16s.45.17.68.24l.7.21c.23.06.45.16.68.22s.49.06.72.12l.7.16c.24.06.45.2.68.25s.48.07.72.11.47.12.7.16l.7.13c.24,0,.49,0,.72,0l.71.08c.25,0,.49-.05.72,0s.48,0,.72,0,.48,0,.71,0l.72,0c.24,0,.47-.1.7-.14s.47-.1.7-.16.47-.08.69-.15.44-.19.66-.27.43-.2.65-.3l.64-.31c.21-.11.43-.2.64-.32s.42-.22.62-.36.37-.3.56-.45.33-.34.51-.5.34-.32.51-.5.34-.33.48-.53a6.13,6.13,0,0,0,.42-.58,6.37,6.37,0,0,0,.35-.63c.11-.2.25-.4.35-.63s.2-.43.28-.66.08-.47.15-.7.19-.44.24-.68,0-.49,0-.73.1-.46.12-.71,0-.47,0-.71,0-.48,0-.72,0-.48,0-.72-.13-.46-.15-.71-.06-.47-.1-.71,0-.47-.07-.71-.1-.47-.15-.71S75.38,52.11,75.32,51.87Z" transform="translate(0)"/><path class="cls-2" d="M75.32,51.87c-.06-.24-.07-.49-.14-.72s-.16-.46-.25-.68a6.77,6.77,0,0,0-.33-.66c-.11-.21-.25-.41-.38-.62s-.3-.38-.44-.58-.3-.37-.46-.56-.31-.37-.47-.55l-.52-.5c-.18-.17-.29-.4-.48-.56s-.41-.26-.6-.41-.37-.32-.57-.46-.42-.23-.62-.36-.37-.33-.58-.46l-.64-.34c-.21-.13-.44-.21-.65-.32l-.65-.34c-.23-.1-.44-.22-.65-.31s-.46-.22-.67-.3-.46-.21-.67-.29-.51-.13-.7-.19c-.43-.15-.33-.13-.67-.24s-.5-.08-.72-.16S63,42,62.8,41.94s-.44-.21-.66-.29l-.68-.27-.66-.3c-.22-.1-.48-.12-.69-.23s-.45-.2-.66-.31-.4-.29-.6-.41-.39-.3-.59-.43-.39-.27-.59-.42-.43-.21-.63-.36-.35-.31-.55-.47-.39-.27-.58-.43l-.55-.47c-.18-.16-.3-.38-.49-.54s-.41-.26-.59-.43-.33-.34-.52-.51l-.52-.49-.52-.51c-.17-.16-.37-.31-.55-.48s-.28-.39-.45-.56-.43-.26-.61-.43-.32-.36-.5-.54l-.53-.46c-.18-.16-.32-.36-.5-.5s-.39-.27-.57-.41-.41-.24-.6-.38-.34-.32-.53-.45-.38-.28-.58-.4l-.62-.34c-.21-.11-.44-.18-.64-.29s-.42-.21-.64-.3-.41-.22-.63-.31-.44-.15-.66-.23-.46-.12-.68-.19-.43-.2-.65-.26-.46-.09-.69-.14-.45-.13-.68-.18-.47,0-.69-.07-.48,0-.7-.06c0,0,0,0,0,0a2,2,0,0,0-.8-.11c-.23,0-.51,0-.83,0s-.6,0-.84,0c-.52,0-.43-.13-.83,0,0,0,0,0,0,0-.22,0-.45.07-.68.11l-.7.1c-.22.05-.43.18-.66.24s-.47,0-.7.08-.44.17-.66.24-.46.11-.68.19-.39.26-.61.35-.44.16-.65.26-.44.17-.65.27-.42.2-.63.32l-.61.34c-.2.12-.38.26-.58.39s-.4.25-.59.39-.41.23-.6.37-.36.3-.54.45l-.53.47c-.17.15-.31.35-.48.52l-.52.51c-.18.17-.41.28-.58.44s-.37.32-.54.49L24,35l-.52.51c-.19.17-.29.42-.46.58s-.4.29-.58.45l-.52.51c-.19.17-.34.36-.52.51s-.43.25-.61.4-.33.38-.51.52-.39.3-.58.44-.44.22-.64.36l-.59.41c-.21.13-.36.34-.57.46s-.43.21-.65.32-.41.25-.63.36-.45.15-.68.25-.42.21-.65.31l-.66.28-.68.25c-.22.08-.43.21-.67.3l-.69.22c-.35.11-.25.1-.68.25-.19.06-.44.1-.7.19s-.41.22-.65.32l-.67.27c-.21.09-.42.21-.65.32s-.44.17-.66.28l-.65.33c-.21.12-.44.2-.65.33s-.41.25-.62.39-.41.24-.61.39-.39.29-.58.44-.39.3-.57.46-.31.38-.49.54-.37.31-.54.49-.29.39-.44.58-.32.36-.46.56-.34.36-.47.57-.23.42-.35.64-.24.42-.34.65-.18.45-.26.68-.12.47-.18.71,0,.49-.07.72-.2.46-.25.69S1,53.74,1,54s0,.49,0,.72,0,.48-.07.72-.12.48-.12.71,0,.49.05.73,0,.48,0,.72.05.48.09.71.1.48.15.71.16.45.23.68.06.49.14.71.19.44.29.66.16.45.27.66.28.4.41.59a6.22,6.22,0,0,0,.43.58c.14.19.32.36.47.53s.27.41.44.57.4.28.58.43.36.32.55.45.39.3.59.42.45.17.66.28l.64.32c.22.1.45.17.67.25s.44.18.67.25a7,7,0,0,0,.69.18c.23.06.45.17.68.21s.48,0,.72,0,.46.15.7.16l.72,0c.23,0,.47-.07.72-.08s.47-.05.71-.07.48,0,.72,0,.46-.13.7-.16l.71-.13c.23,0,.47,0,.71-.06l.7-.15c.23,0,.45-.19.68-.24l.7-.17.69-.19.7-.21c.23-.06.49,0,.72-.11s.45-.19.68-.26.48-.08.71-.15.45-.2.68-.27.45-.18.68-.25.48-.08.71-.15.45-.17.68-.24.48-.08.71-.15l.69-.22c.23-.06.45-.17.68-.23s.47-.11.7-.17.45-.18.68-.24.45-.15.69-.21l.7-.17c.23,0,.48,0,.72-.06l.7-.16.71-.17.71-.12.71-.11c.24,0,.48,0,.72,0s.47-.1.71-.13l.72-.07c.23,0,.47-.09.72-.11s.48,0,.72,0,.48,0,.72,0,.48,0,.73,0,.48-.12.73-.13.48.09.72.1.49,0,.72,0,.49,0,.73,0,.48.11.71.13l.73.05c.24,0,.48.1.71.12s.49,0,.73,0,.48.11.71.15l.72.11c.24,0,.49,0,.72,0s.47.13.71.18.48.06.71.11.46.17.69.23.48.09.71.15.49,0,.72.11.45.18.68.25.47.11.7.18.48.07.71.14.43.22.66.29.49.06.72.13.44.18.67.25.45.16.68.24l.69.21.68.22c.23.07.47.09.7.16s.45.17.68.24l.7.21c.23.06.45.16.68.22s.49.06.72.12l.7.16c.24.06.45.2.68.25s.48.07.72.11.47.12.7.16l.7.13c.24,0,.49,0,.72,0l.71.08c.25,0,.49-.05.72,0s.48,0,.72,0,.48,0,.71,0l.72,0c.24,0,.47-.1.7-.14s.47-.1.7-.16.47-.08.69-.15.44-.19.66-.27.43-.2.65-.3l.64-.31c.21-.11.43-.2.64-.32s.42-.22.62-.36.37-.3.56-.45.33-.34.51-.5.34-.32.51-.5.34-.33.48-.53a6.13,6.13,0,0,0,.42-.58,6.37,6.37,0,0,0,.35-.63c.11-.2.25-.4.35-.63s.2-.43.28-.66.08-.47.15-.7.19-.44.24-.68,0-.49,0-.73.1-.46.12-.71,0-.47,0-.71,0-.48,0-.72,0-.48,0-.72-.13-.46-.15-.71-.06-.47-.1-.71,0-.47-.07-.71-.1-.47-.15-.71S75.38,52.11,75.32,51.87Z" transform="translate(0)"/></g></g></svg>