<svg xmlns="http://www.w3.org/2000/svg" viewBox="0 0 31.38 163.09"><g id="Layer_2" data-name="Layer 2"><g id="design"><path d="M8.5,15.4c-.14.1-.54.68-.65.78s-.74.68-.85.82c-.47.71-.51.75-.51,1.22,0,.27,0,.48,1,1.26.75.61,1,.88,1,1.63a1.7,1.7,0,0,1-1.19,1.77c0,.2,0,.24-.37.34a.22.22,0,0,0-.14.17c0,.24.61.51.85.51s.85-.14,1-.14c1.6,0,5,1.23,6.4,1.81.1.06,3.43,1,3.5,1,.47,0,2.48.31,2.89.34S24.89,27,25,27s1.94-.31,2-.34a3.24,3.24,0,0,0,.85-.34c2.28.91,2.55,1,2.55,1.59,0,.85-.88.89-2.24,1a12.72,12.72,0,0,1-1.36.34c-.37,0-.37,0-.37-.45s-.17-.3-.21-.3-1.77.3-2.11.3h-3c-.24,0-1.4-.3-1.63-.3s-.82.13-.89.13a25.23,25.23,0,0,1-5-1.46c-.51-.24-2.48-1.63-3-1.83a5.26,5.26,0,0,0-2-.34,5.79,5.79,0,0,0-3.19,1.09,2.31,2.31,0,0,1-.28.3c-.1.1-.78.17-.85.24a2.62,2.62,0,0,0-.37.41c-.17,0-.88.13-1,.13a3.51,3.51,0,0,1-1.8-.88c-.1-.07-.1-.07-.3-.1,0,0,0-.14,0-.21,0-.27,0-1.09.34-1.09.07,0,.72.24.82.24A15.36,15.36,0,0,0,5,23.93c.27.11.27-.4.41-.54.54-.48,1.42-1.26,1.42-2.14,0-.34-.2-.55-1.25-1.53a1.8,1.8,0,0,1-.82-1.33A8.47,8.47,0,0,1,6.08,15.2c.07,0,.14-.17.14-.21.1-.34.65-.68.65-1s-.34-.34-.51-.34-1.4.55-1.43.75-.48.27-.54.34a6.72,6.72,0,0,1-2.11.92,1.4,1.4,0,0,1-.72-.27c0-.14,0-.17-.37-.31,0,0-.61-.51-.61-.88a.63.63,0,0,1,.54-.65c.21,0,1,.24,1.12.24s.31-.21.34-.21c1.23-.23,1.36-.27,1.77-.37.58-.2,1.7-.68,2.24-.85l.21.07c0-.21.27-.31.48-.34s.71-.27.84-.27a4.24,4.24,0,0,1,2.18,1.59.7.7,0,0,1-.44.65C9.83,14.11,8.7,15.16,8.5,15.4ZM3.71,2a7.19,7.19,0,0,1,2.48.27c1,.41,1.63.75,1.63,1.84,0,.17-.2.92-.2,1,0,.31,0,.61-.38.61a3.63,3.63,0,0,1-.61-.2A4.42,4.42,0,0,1,6.22,5a5.7,5.7,0,0,1-1-.89,1.66,1.66,0,0,0-1-.61c-.34-.1-.75-1.19-.75-1.36S3.57,2,3.71,2Zm7.61,6.22a5.66,5.66,0,0,1-1,.14A1.88,1.88,0,0,1,8.77,7c0-.48.71-.48,1.7-.51.24,0,1.43-.31,1.67-.34,1.36,0,1.56-.14,1.56-.75A8.16,8.16,0,0,0,13.39,3c-.54-.81-.54-.85-.54-1.39s.07-.82.37-.82A10.06,10.06,0,0,1,15,1.43c.61.13,1.06.27,1.06,1.12,0,.17-.31,1-.31,1.22,0,.38,0,.41-.34.89,0,0-.07.34-.14.37s-.3.14-.34.21v.1c0,.3.28.37.45.37a2.58,2.58,0,0,0,.54-.07,3.51,3.51,0,0,1,1.56-.51,1,1,0,0,1,1,.65c0,.47-.48.58-1,.71a28.14,28.14,0,0,0-3.19.82c0,.07.51.48.58.58a1,1,0,0,1,.17.47,7.88,7.88,0,0,1-.21,1.46s-.54,1.19-.54,1.23.51.2.78.2c.07,0,.17,0,.2,0s0-.21.14-.21c.31,0,.34,0,.51-.13a5.8,5.8,0,0,1,1.77-.72c.34,0,1.05.65,1.15.85a1.29,1.29,0,0,0,.45.58s0,0,0,.07c0,.2,0,.2-.07.27s-.54.75-.54.82.07.3.07.37c0,.48-.51,3-.51,3a.33.33,0,0,0,.34.3c.37,0,3.4-.47,4-.61a1,1,0,0,0,.81-1c0-.07-.2-1.56-.24-1.63s-.51-.68-.51-.82,0-.37.14-.37a7,7,0,0,1,1.09.17.21.21,0,0,0,.13,0A3.85,3.85,0,0,0,26,9.82c0-.2-.07-.37-.34-.37s-.31,0-1.13.51a4.72,4.72,0,0,1-.64.1c-.48.1-2.55.75-2.92.75a1,1,0,0,1-1-1c0-.3.13-.3,1.39-.47.37,0,2.31-.65,2.35-.65a6.51,6.51,0,0,0,2.38-.44,8.24,8.24,0,0,1,1-.37,2.12,2.12,0,0,1,1.56,2c0,.34-.13.38-.54.55s-.47.68-.78.68l-.07.17h-.1a3,3,0,0,1-1.26,1,8.66,8.66,0,0,0-1.05.38,6.77,6.77,0,0,0-.14.95,10.55,10.55,0,0,0,.38,1.66c.06.07.17.11.4.11a7.67,7.67,0,0,0,2.66-.51,3.89,3.89,0,0,1,1.18-.28c.14,0,.17,0,.68.45A10.28,10.28,0,0,1,31,15.5a.46.46,0,0,1,.07.31c0,.61-.38,1-.58,1a4.82,4.82,0,0,0-.89-.07c-.06,0-.37.14-.44.14s-.17,0-.47-.45a.42.42,0,0,0-.24-.06c-.27,0-3.16.4-3.54.51A1.77,1.77,0,0,1,25.29,18v.1a8,8,0,0,0-.2,2c0,.13,0,.78,0,.91s-.1.34-.1.38.13.47.13.54-.17.31-.17.37c-.06.24-.3,1.33-.37,1.54s-.14.27-.31.3-.06.21-.1.21-.17,0-.17.16-.54.48-.64.48c-.34,0-.48-.1-1.13-.75A13.38,13.38,0,0,1,21,23.46c-.79-.85-.79-1-.79-1.16s0-.13.11-.13l.95,0c.07,0,.54.13.64.13a2.09,2.09,0,0,0,1.06-.5,11.91,11.91,0,0,0,.27-2.32s-.07-.1-.07-.13a3.39,3.39,0,0,1,0-.78c0-.14.17-.82.17-1,0-.51-.58-.71-.92-.71s-.51.1-1.32.58c-.14,0-.48.1-.92.17-.17,0-.75.27-.85.27s-1-.24-1.19-.24-.27,0-.41.72a8.22,8.22,0,0,1-1.32,3.5c-.07.1-.11.2-.17.3a3.87,3.87,0,0,0-.41.21c-.85.92-1,1-1.06,1-1,0-2.44-2.69-2.44-2.72s.1-.17.2-.17a2.38,2.38,0,0,1,.68.07c.41.27.48.3.61.3.65,0,1.12-.2,1.6-1.26A20.51,20.51,0,0,0,17,12.82a1,1,0,0,0-.64-1.06c-.24,0-1.09.58-1.26.58s-.72-.17-.82-.17-.2.07-.2.1,0,.78,0,.92-.61.78-.65,1a8,8,0,0,1-1.08,3c-.17.27-.52,1.87-.72,2.17s-1.05,1.06-1.19,1.26a1.93,1.93,0,0,1-1.05.68c-.62-.34-.68-.37-.68-.51s.68-1.15.78-1.36c.2-.44,1.26-2.31,1.46-2.72a8,8,0,0,0,.34-1.05.59.59,0,0,0,.31-.55.77.77,0,0,1,0-.27s.2-.1.2-.13,0-.21.07-.31a6.24,6.24,0,0,0,.51-2.14,3.33,3.33,0,0,0,.41-.65,9.44,9.44,0,0,0,.1-1.43c.07-.54.14-1.39.17-1.73a2.77,2.77,0,0,0-.24-.68c-.17,0-.44,0-.5,0Zm8.53-3.64s.14,0,.17,0A9.29,9.29,0,0,0,21,2a3.09,3.09,0,0,0,0-.51c0-.07-.24-.47-.24-.58,0-.71.1-.88.81-.88a.83.83,0,0,1,.85.34c.75.82.79.85.79,1.39s-.07.58-.45,1.23c-.06.1-.23.64-.27.75a6.35,6.35,0,0,0-.61.84.78.78,0,0,0,0,.24c0,.24.1.38.34.38,0,0,3-.58,3.36-.68a18.58,18.58,0,0,1,2.14-.72c.34,0,1.4.75,1.4,1.13s-.65.61-1.23.71a42.44,42.44,0,0,1-4.31.75c-.31,0-1.64-.41-1.94-.41-.51,0-.55.1-.78.58a11.81,11.81,0,0,1-1,.85A6.29,6.29,0,0,1,18.22,9c-.37,0-.58-.44-.58-.68,0-.47,1.87-2.51,2-3.09a1.55,1.55,0,0,1,.17-.44s.07,0,.07-.07Z" fill="#fff"/><path d="M3.81,42.09,4,42a.71.71,0,0,1,.54-.4c.14,0,.58.34.68.34a1.49,1.49,0,0,0,.44-.21,6,6,0,0,0,2.59-1.19,5.89,5.89,0,0,0,1.08-.78,2.35,2.35,0,0,1,1-.51c.1,0,1,.2,1.12.2l.65-.06a1.75,1.75,0,0,1,1,1.22c0,.1,0,.17-.47.54-.07.07-.31.62-.41.72-.65.85-.75,1-.85,1.39-.07.14-.14.24-.89.85A20.17,20.17,0,0,0,9.08,47.7c0,.27,0,.27-.17.27s-.24.68-.28.78-.47,1.7-.47,1.74A8.91,8.91,0,0,1,8,51.92a1,1,0,0,0,0,.34c0,.17.1,1,.1,1.05a7.8,7.8,0,0,0,.44,2.38,6.36,6.36,0,0,0,.51.44c0,.65.17.72,1.16,1.29,0,0,.07.24.1.24a6.47,6.47,0,0,0,3,.82,6.72,6.72,0,0,0,4.15-1.33,3.77,3.77,0,0,0,1.29-1.36c0-.1.41-.47.48-.58a15.24,15.24,0,0,0,1.67-5.16c.23-1.74.3-2.28.44-4.15,0-.17.27-1.33.44-1.33.48,0,.48,0,.65.78a5.68,5.68,0,0,1,.44.89c0,.1-.24.81-.24,1s.17,1.06.17,1.23-.1,1.46-.1,1.7a5.83,5.83,0,0,1-.21,1.46c-.06.34-.23,1.36-.37,2.07,0,.07-.2.41-.24.48s-.2.85-.24,1-.37.61-.4.71a4.71,4.71,0,0,1-.92,1.6l-.38.41-.2.1c-.31.64-1,1-2.62,1.83-.37.21-.51.21-1.83.31a3.56,3.56,0,0,0-.51.27,5.09,5.09,0,0,1-1.87.27,9.21,9.21,0,0,1-3.13-.85c-.58-.3-2.28-1.22-2.58-2.24-.07-.24-.75-1.36-.75-1.43a10,10,0,0,1-.28-2.21c0-.1,0-.51,0-.61S6,52.9,6,52.83s.1-.71.1-.78a7.65,7.65,0,0,1,.72-2.72A3.49,3.49,0,0,0,7,48.18c0-.28.68-1.53.75-1.77a2.14,2.14,0,0,1,.34-1c.17-.31.68-1.91.81-2.14s.27-.38.27-.48a.33.33,0,0,0-.3-.34c-.34,0-1.6.68-1.87.71a7.19,7.19,0,0,0-1.77.52.25.25,0,0,1-.13.06c-.14,0-1.33-.88-1.33-1.19a2.05,2.05,0,0,1,.1-.34Zm18.76-4.38-.06.54a1.35,1.35,0,0,0,.17.34c0,.14.06.82.1.95a8.39,8.39,0,0,0,3.33,3c.27.1.27.13.34.27s.37.13.44.17a10.64,10.64,0,0,1,1.23.75c.1.07.71.24.71.34s.41.37.44.44c.41.64.44.71.44.85,0,.68-.51,1.49-1,1.49-.17,0-1.05-.13-1.22-.13s-.72.27-.85.27c-.31,0-.48-.37-.48-.61s.41-.89.41-1.06-.13-.27-.41-.37a30.54,30.54,0,0,1-3.53-2.89,11.21,11.21,0,0,1-1.33-1.63c0-.14,0-.14-.13-.21-.38-.13-1-2.07-1-2.37a2.86,2.86,0,0,1,.24-.79A11.33,11.33,0,0,1,21.86,37a1.53,1.53,0,0,1,.51.13A4.05,4.05,0,0,1,22.57,37.71Zm.72-1.77c0-.27.17-.27.34-.27a4.27,4.27,0,0,1,3.09,1.39,2.38,2.38,0,0,1,.85,1.8.86.86,0,0,1-.85.85,7.78,7.78,0,0,1-1.19-.85c-.13-.24-.78-1.36-1-1.56s-.95-.75-1-.92C23.36,36.45,23.29,36,23.29,35.94Zm3.84-2a4.08,4.08,0,0,1,1.7.68,11,11,0,0,1,1.5,1,1.47,1.47,0,0,1,.4,1.09c0,.85-.4,1.12-1,1.12-.92,0-.92-.17-1-.68a1,1,0,0,0-.51-.72,7.31,7.31,0,0,1-.68-.78c-.13-.17-.92-.68-1-.85a.51.51,0,0,1-.1-.3C26.48,34,26.79,33.9,27.13,33.9Z" fill="#fff"/><path d="M12.92,84.56c-.1.1-.82,1.52-1,1.76A12.71,12.71,0,0,1,10,88.23c0,.13-.62.44-.69.47s-1.12.72-1.22.75a5,5,0,0,1-1.36.21,2.43,2.43,0,0,1-.65-.07,9.78,9.78,0,0,1-.91-1.13,10.92,10.92,0,0,1-.61-2.31c0-.1.13-.68.13-.74,0-2.15,0-2.42.51-3.47a19.57,19.57,0,0,1,1-2.69c.72-.58.79-.64.82-.81.1-.62.1-.68.24-.68a9.87,9.87,0,0,1,.75-1.06c.2-.2,1.12-1.19,1.36-1.36s2-1.46,2.38-1.66a4,4,0,0,1,1.42-.55c.62,0,1.06,0,1.09-.34,0-.1.48-.1.55-.13A12.92,12.92,0,0,1,16,72c.1,0,.13,0,.51.23a1.67,1.67,0,0,0,.81.17c.14,0,.89,0,1.6.07.14,0,.72.27.82.27l.68-.06a19.19,19.19,0,0,1,2.21.68c.64.23.75.37,1.39,1.15.07.1.65.41.71.48A6.07,6.07,0,0,1,27,78.47c.07.24.48,1.19.51,1.39a12.88,12.88,0,0,1,.14,1.77,5.07,5.07,0,0,1-.69,3c-.13.3-.37,1.7-.47,2-1.26,2.82-4.9,5.06-6.49,5.06,0,0-.14-.1-.17-.1s-.38.55-.48.55-.68.47-.82.51a2.52,2.52,0,0,1-.47.06c-.55,0-.68-.17-.68-.64,0-.65,0-.89,1.49-1.09a.87.87,0,0,0,.75-.34A6.42,6.42,0,0,1,20.77,90c0-.07.14-.41.17-.48.75-.2,1.7-1.36,2.21-2.07,0-.2,0-.2.14-.2.17-.31.24-.41.64-1.09a12.74,12.74,0,0,0,.92-2.48c0-.21.14-1,.14-1.16,0-3.06,0-3.13-.48-3.71a6.75,6.75,0,0,1-.13-.85,23.79,23.79,0,0,0-1.6-2.14.62.62,0,0,1-.14-.24c0-.13-.81-.34-.95-.4s-.75-.62-.88-.68-.82-.24-1-.34a4.92,4.92,0,0,0-2.1-.58c-.82,0-.89.85-.89,1.32,0,.24-.27,1.74-.71,1.81A10.53,10.53,0,0,0,16,78.2a10.76,10.76,0,0,1-1.4,3.3,17.87,17.87,0,0,1-1.12,2.41Zm-2-.17c0-.07.13-.38.17-.38s.2,0,.27-.34a3.41,3.41,0,0,1,.78-1c0-.1.21-.55.24-.61s.3-.48.34-.55a3.14,3.14,0,0,1,.07-.64,8.56,8.56,0,0,0,.95-2.93,3.37,3.37,0,0,1,.27-.34c0-.07.51-2.24.51-2.45,0-.4-.24-.85-.61-.85a3,3,0,0,0-1.36.45c-.1.13-.65.78-.72.85s-.27.06-1,.85c0,0-.4.1-.4.17s-.21.17-.21.23a.69.69,0,0,1-.27.51,2.36,2.36,0,0,0-.51.58s-.2,0-.2.07a.38.38,0,0,1-.07.27,6,6,0,0,0-.61.72c-.07.1-.14.61-.21.71a4.17,4.17,0,0,0-.68,1.39s-.06.11-.13.14l-.14,0,.07.14c0,.07-.2.31-.24.37a17.71,17.71,0,0,0-.3,2.21c0,.14-.24,1.16-.24,1.23,0,.58,0,2.28.71,2.28a1.68,1.68,0,0,0,1.39-.79c.07,0,.31-.06.38-.17l0-.07A14.16,14.16,0,0,0,11,84.39Z" fill="#fff"/><path d="M11.39,110.5c.34,0,.71.41.85.65.1.06.24.17.24.23,0,.41,0,.58-.31.65s-2.69.27-3.2.41c-.2.06-.37.13-.37.41,0,.06.14.68.14.78a.75.75,0,0,1,.61.61c0,.2-.27,1-.27,1.19s0,.34,0,.44-.2,1-.2,1.22.1,1.16.1,1.33c0,.58.13,3.09.13,3.6v2.69c0,.2-.06,1.12-.06,1.29s.13.65.13.78-.13.28-.13.34c0,.72-.14,1.94-1,1.94-.3,0-.37-.07-1-.75-.1-.13-.72-.57-.78-.71a.86.86,0,0,1-.07-.34,5.07,5.07,0,0,1,.48-.88c.13-.41.34-4.29.34-5s0-1.22,0-2c0-.24.17-1.36.17-1.6s-.1-.47-.31-.47-.23.13-.37.68c0,.1-.51.88-.85,1a.28.28,0,0,0-.07.13c0,.14-.24.24-.27.27-.07.31-.17.55-.48.65.07.61-1,1.29-1.42,1.5-.14.06-.58.68-.68.74a4.47,4.47,0,0,0-1.23.75,1,1,0,0,1-.54.17c-.44,0-1.09-.1-1.09-.71a35.05,35.05,0,0,0,2.72-2.38,24.73,24.73,0,0,1,1.77-2c.13-.24,1.66-2.93,1.7-3.2.13-.75.17-.75,1.15-1.29a4,4,0,0,0,.31-.65c0-.17-.2-.27-.34-.27s-2.45.58-2.55.61a4.84,4.84,0,0,1-1.16.45c-.78,0-2.17-.51-2.17-1.47a.92.92,0,0,1,.78-.91c.2,0,1.33.34,1.56.34.38,0,2-.41,2.38-.41.68,0,1.33,0,1.33-.61,0-.17-.1-.89-.1-1.06,0-1.12,0-3.94-.1-4.86,0-.37-.65-2-.65-2.35s.61-.37,1-.37c.17,0,.68.54.81.61a6.18,6.18,0,0,1,.79.31,1.51,1.51,0,0,1,.51,1c0,.14-.31.75-.31.85s.07.61.07.78a4.91,4.91,0,0,0-.17.62c0,.37-.07,2-.07,2.38,0,.1-.17.85-.2,1s-.11.57-.31.64-.2.1-.2.24a.34.34,0,0,0,.3.34,4.61,4.61,0,0,0,.68-.07.42.42,0,0,0,.21,0l.1-.1s0,.1.07.13A3.54,3.54,0,0,1,11.39,110.5Zm-8.06-4a11.19,11.19,0,0,1,1.8,1.06,3.26,3.26,0,0,1,.85,2c0,.82-.2,1.26-.54,1.26s-.27-.07-.44-.41a6.82,6.82,0,0,0-1.16-.88,7.36,7.36,0,0,1-.71-2.65C3.09,106.76,3.09,106.52,3.33,106.52Zm8.3-.41c.23,0,.23-.64.23-.71,0-1,0-1.19.55-1.19a7.43,7.43,0,0,1,1.56.65,1.4,1.4,0,0,1,.24.81c0,.44-.17.58-.58.89-.1.06-1.56,1.8-1.87,2.1-.13.07-1.22.65-1.49.85a.41.41,0,0,1-.31.11.29.29,0,0,1-.3-.28,1.82,1.82,0,0,1,.47-1,3.74,3.74,0,0,0,1.43-2.31Zm-1.23,9.15a5.32,5.32,0,0,1,2.14.71c.85.68.85,1.6.85,2.65,0,.21-.1.31-.34.31-.67,0-1-.37-1.93-1.67a12.4,12.4,0,0,1-.92-1.73C10.2,115.39,10.23,115.26,10.4,115.26Zm11.46-11.49c0,.3.34.41.54.41a20.33,20.33,0,0,0,2-.38c.24-.24.62-.61.79-.61a2.17,2.17,0,0,1,.91.27,9.89,9.89,0,0,1,.41,1.16c0,.68-1.32.68-1.46.68a20,20,0,0,0-3.16.37c-.48.24-.48.65-.48,1.63a.35.35,0,0,0,.34.38c.14,0,2.52-.55,3-.55a1.3,1.3,0,0,1,1.09,1.26c0,.38-.34.58-1,.58-.11,0-.48-.24-.55-.24a4.18,4.18,0,0,0-1.49.27c-.17.07-.24.07-1.06.07-.34,0-.47.51-.78,1.8-.17.24-.85.51-1,.62s-.17.17-.17.27,0,.13.17.13a30.17,30.17,0,0,0,4.59-.78c.14-.07,3.37-.41,3.57-.61a1.07,1.07,0,0,1,.65-.34c.1,0,1.73.44,1.94.51s.61.27.61.68c0,1-1.05,1.26-1.77,1.26a4.26,4.26,0,0,1-.85-.21c-.07,0-1.9-.13-2-.13s-.91.17-1.05.17-.47,0-.71-.07-.61.13-.72.13a12.21,12.21,0,0,0-2,.17l-1.77,0c-.31,0-1.94.34-2.31.37a4.68,4.68,0,0,1-.72.24l-.71,0c-.41.06-2.14.68-2.52.68s-.68-.07-.81-.34-.82-.24-.85-.34a.66.66,0,0,1-.1-.34c0-.45.34-.48,2.92-.85.78-.11,2.38-.38,3.26-.55a8.57,8.57,0,0,0,.82-.58,1.88,1.88,0,0,0,.17-1.05c0-.07-.24-.61-.65-.61-.1,0-.57,0-1.12.1-.17,0-.81.27-.95.27-.61,0-1.22-.37-1.22-.81s.4-.48.95-.51,2.72-.41,2.79-.45a1.62,1.62,0,0,0,.37-1.15c0-.17,0-1-.58-1a10.27,10.27,0,0,0-1.49.44,2.59,2.59,0,0,1-.62.07,1.61,1.61,0,0,1-1.49-1.23.76.76,0,0,1,.61-.61c.14,0,.68.14.82.14s1.12-.21,1.22-.21a1.89,1.89,0,0,1,.31.1c.23,0,1.12-.34,1.12-1.08a7.53,7.53,0,0,0-.21-1.4,8,8,0,0,1-.4-1.09,1.13,1.13,0,0,1,1.08-.88,1.64,1.64,0,0,1,1.19.58c.34.34.41.34.55.37C21.93,101.52,21.86,103.39,21.86,103.77ZM15.4,119.13s.1-.4.1-.51c0-.68,0-2.65.75-2.65.51,0,.85.41.88,1,.11,1.5.11,1.67.55,1.67.61-.07,1.87-.24,2.58-.34a4,4,0,0,1,1.8-.44,1.29,1.29,0,0,1,1.3,1.12c0,.44-.85.51-1.74.54-.51,0-1.9.17-2.34.24-.17,0-.89.24-1,.24s-.68-.14-.95-.21a.91.91,0,0,0-.31.62c0,.13.07.85.07.95s0,.47,0,.54,0,.24.27.24c.81,0,4.25-1,5-1s1.22.89,1.22,1.23-.48.51-.68.51a12.24,12.24,0,0,0-2.55.24.41.41,0,0,0-.14,0c-.1,0-.37-.2-.44-.2s-1.05.44-1.26.44-1.19-.31-1.25-.31c-.24,0-.45.17-.45.24,0,.48.31,2.55.31,3,0,.2,0,1.46,0,1.56a4.63,4.63,0,0,0-.3.55c0,.06,0,.27,0,.27-.81,0-.88,0-1.22-.78,0-.11-.44-.41-.51-.51a1.5,1.5,0,0,1-.07-.51c0-.28.14-1.67.17-2,.1-1.09.14-2.21.14-3.3a4.88,4.88,0,0,1,.2-1.77C15.5,119.71,15.4,119.24,15.4,119.13ZM27,117.94a4.72,4.72,0,0,0,0,.62A2.54,2.54,0,0,0,27,119c0,.07.14,1,.14,1.23,0,.51,0,2.75,0,3.19,0,.21-.13,1.06-.13,1.23s.07,1.59.07,1.7a3,3,0,0,0,0,.61,5.69,5.69,0,0,1-.71,2.38,1.39,1.39,0,0,1-.78.2,5.17,5.17,0,0,1-2.79-1.46c-.1-.14-.72-.48-.78-.61a.8.8,0,0,1-.11-.41.26.26,0,0,1,.24-.27,5.49,5.49,0,0,1,.78.27c.17,0,.62.07.85.07.65,0,1.06-.34,1.09-.61,0-.62.17-2,.17-2.55v-3.44c0-.27-.1-1.66-.1-1.8s.07-1.19.07-1.36-.28-.58-.28-.68a3.78,3.78,0,0,0,0-.92,1.1,1.1,0,0,0-.95-.44,29.57,29.57,0,0,0-4.11.61,2.56,2.56,0,0,1-.55.28c-.41,0-1.09-.21-1.09-.79,0-.24.07-.24.75-.41a7,7,0,0,1,2.18-.3c.37,0,2-.48,2.31-.54a5.65,5.65,0,0,1,1.36-.17,2.73,2.73,0,0,1,1.9.57,4.74,4.74,0,0,1,.58.24.76.76,0,0,1,.27.54,1.45,1.45,0,0,1-.24.58,3.79,3.79,0,0,1-.2.34,3,3,0,0,1,.2.75C27.09,117.26,27,117.74,27,117.94Z" fill="#fff"/><path d="M1.56,152.9c.21-.11,1-1.23,1.26-1.36s.41-.17.44-.21.14-.27.17-.3a27.45,27.45,0,0,0,4.83-6,21.3,21.3,0,0,0,1.29-2.17.69.69,0,0,0-.61-.55c-.07,0-.14,0-.54.31,0,0-.75.24-.89.3l-.27-.06s-.1.17-.17.17a16.08,16.08,0,0,0-2.17.61c-1.09.47-1.19.54-1.43.54a2,2,0,0,1-1.74-1.56c0-.68.34-.68.72-.68s1.49-.14,1.77-.14h.23a2.86,2.86,0,0,0,.31-.1c.17.07.24.14.34.14l0-.17c.11-.14,3.4-.51,4.08-.61.31,0,1.77-.62,1.8-.62a3,3,0,0,1,2,1.47c0,.16-.06.3-.3.64-.07-.07-.07,0-.17.14a4.11,4.11,0,0,0-.51.34s-.07.23-.07.27-.51.54-.54.65c-.21.78-.21.84-.41,1a20.5,20.5,0,0,1-2.86,3.81c-.1.07-.47.31-.54.38.1.37.2.47,1,1.39a.5.5,0,0,1,.14.31c0,.1-.14.57-.14.68,0,.27-.1,1.53-.1,1.8v5.51c0,3-.13,3.29-.74,3.29s-.68-.13-1.13-.81c-.07-.11-.51-.31-.54-.38a.68.68,0,0,1-.07-.3c0-.31.24-1.53.24-1.77s0-.34,0-.51.17-1,.17-1.12.07-1.12.07-1.29c0-.75.14-3.47.21-4.32,0-.1.1-.58.1-.68a.3.3,0,0,0-.27-.31c-.48,0-3,2.79-3.16,2.86L2,154a5.54,5.54,0,0,1-.89.48c-.51,0-.51-1.16-.51-1.19A9.33,9.33,0,0,0,1.56,152.9Zm3.68-17.65c0-.17.61-.27.78-.27a19,19,0,0,1,2.75.75,1.11,1.11,0,0,1,.61,1.15c0,.21.07,1.13.07,1.3,0,.4-.24.74-.44.74-.41,0-.82-.44-1.33-.95-.06,0-.68-.3-.74-.34s-.45-.37-.55-.44a2,2,0,0,1-.27-.1A11,11,0,0,1,5.24,135.25Zm4.45,14.86a7.69,7.69,0,0,1,2,.88,2.73,2.73,0,0,1,.82,2.25c0,.23-.1.37-.27.37a8.16,8.16,0,0,1-2.11-1.05c-.1-.17-.37-1-.44-1.09a5.75,5.75,0,0,1-.51-1.06C9.18,150.18,9.45,150.11,9.69,150.11Zm4.32-.68c0-.1-.17-.75-.17-.89s.2-1.32.2-1.56-.24-1-.24-1.19.51-1.6.51-1.87v-.58c0-.1.68-.34.82-.34s.64.14.64.41,0,.44,0,.55.27,1.22.31,1.35-.24.38-.24.45.1.81.1,1-.07,1.84-.07,2c0,.85.17,3,.92,3,.27,0,1.43-.37,1.73-.41,1.4-.24,1.53-.24,1.81-.68a1.33,1.33,0,0,0,.2-.58v-.17c0-.06.17-.3.17-.34s-.14-.3-.14-.34c0-.3,0-1.19-.54-1.19l-.92,0c-.1,0-.71.31-.85.31s-1-.48-1-.92.23-.48,2.44-.92c.31-.07.68-.24.72-.48s.13-2.24.13-2.41c0-.44-.57-.51-.64-.51a12.8,12.8,0,0,0-1.26.44,7,7,0,0,1-1.09-.41,1.22,1.22,0,0,1-.1-.4c0-.38,0-.41.88-.65a7.84,7.84,0,0,0,1.64-.58,4.93,4.93,0,0,0,.37-.95s-.17-.48-.17-.58.1-1.15.1-1.32a9,9,0,0,0-.17-1.94s0-.14,0-.2c0-.34,0-.38-.1-.41a2.08,2.08,0,0,1-.55-1,1,1,0,0,1,.95-1.09c.11,0,.17,0,.79.51a6.81,6.81,0,0,0,1.08.41c.21.14.48.41.48.51s.07.65.07.75-.1.92-.1,1.09v.81c0,.24-.28,1.19-.28,1.4a4.05,4.05,0,0,0,.24,1.53,2.87,2.87,0,0,1,.38.13c0-.17.85-.13,1-.2a5.85,5.85,0,0,1,1.46-.21c.17,0,1.26-.17,1.36-.2H27c.1,0,.38.1.45.1s.2,0,.91.38c.92.47,1,.51,1,.92s-.34,1.42-.37,1.66c0,.07-.21,1.84-.21,2,0,1.16,0,1.5-.33,1.7a1.49,1.49,0,0,1,.2.58c0,1-.68,4.55-1.5,4.55-.17,0-.27,0-.95-.4a3.67,3.67,0,0,0-1.12-.14,16.41,16.41,0,0,0-2.48.37.38.38,0,0,0-.27.34c0,.38.2,2.08.2,2.42s-.2,1.7-.2,2,.1,1.16.1,1.19c0,.21.07,1.09.07,1.26s-.07,1-.07,1.22.07.31.07.38-.48.71-.55.85a6.8,6.8,0,0,1-.41.95.6.6,0,0,1-.4.2c-.41,0-1-.44-1-.78,0-.06.14-1.32.14-1.56,0-.61.1-3.33.1-3.88,0-.13,0-.81,0-1,0-.3.1-1.77.1-2,0-.1-.07-.47-.07-.58s0-.37,0-.44a1.86,1.86,0,0,0-.62-.24c-.3,0-1.66.34-1.93.34s-1-.1-1.09-.1-1.06.27-1.26.27c-.48,0-1.12-.85-1.33-1.25a8.63,8.63,0,0,1-.23-1.77Zm8-4.76c0,.1.06.61.06.71,0,.48,0,.72.34.72,0,0,1-.14,1.23-.14a1.55,1.55,0,0,1,1.15.71,1.4,1.4,0,0,1-.17.58,4.14,4.14,0,0,1-1.05.48c-.1,0-.51-.21-.58-.21-.27,0-.54.34-.61.62s-.31,1.87-.31,2.07c0,.37.11.71.55.71s1.77-.34,2.07-.34a.76.76,0,0,1,.44.11c.07,0,.48.3.51.3.28,0,.48-.37.51-.51s.44-3.7.44-4.21c0-.14-.06-.82,0-1a15.28,15.28,0,0,0,.17-2,4,4,0,0,0-.58-1c-.06-.06-.13-.1-.4-.1a9,9,0,0,0-2.79.48c-.14,0-.89.1-.95.2a.4.4,0,0,0-.14.31c0,.13.17.61.17.71S22,144.53,22,144.67Z" fill="#fff"/></g></g></svg>