<svg xmlns="http://www.w3.org/2000/svg" viewBox="0 0 29.95 259.15"><g id="Layer_2" data-name="Layer 2"><g id="design"><path d="M.48,25.19c.13-.13.51-.58.64-.68a2.78,2.78,0,0,0,.82.38c.24,0,.34-.07.61-.55a2.64,2.64,0,0,1,.85-.88c.44-.38,1.9-2.59,2.24-3,.07-.07.21-.54.31-.58s.24-.13.37-.51a14.22,14.22,0,0,1,1.4-1.73c.17,0,.2.24.24.41s.2.13.2.17.07.2.1.27c-.1.24-.58.88-.58,1.09s0,.57,0,.71c0,.82-.85,1.84-1.16,2.55-.07.2-.2.41-.41.44C6,23.53,5,25,4.93,25.16s-.17.1-.37.1c0,0-.11.1-.14.17a6.79,6.79,0,0,0-.75,1.22,1.88,1.88,0,0,1-1.43.72c-.61,0-.71-.21-1-.75-.13-.27-.71-.44-.71-.78A5.25,5.25,0,0,0,.48,25.19ZM.85,10.06c.24,0,1.19.31,1.36.34A4.18,4.18,0,0,1,5.1,11.56c.24.2.54.54.54,1.77a.87.87,0,0,1-.81.81c-.14,0-.38-.58-.48-.64s-1.87-.38-2.14-.58a2.78,2.78,0,0,1-.75-1c-.1-.17-.78-.78-.85-.95s0-.1,0-.17C.58,10.37.71,10.06.85,10.06ZM6.39,4.42a3.3,3.3,0,0,1-1.7-2.35c0-.44.07-.47.27-.47a12.59,12.59,0,0,1,2.62.58A5,5,0,0,1,9,4.25c0,.17-.14,1-.44,1A3.21,3.21,0,0,1,8,5.24C7.68,4.83,7.55,4.79,6.39,4.42Zm20.54,9.11c-.11,0-.51.1-.62.1s-.85-.2-.91-.2-1,.07-1.13.07-1.42.34-1.66.34-1.26-.28-1.5-.28-.64.28-.78.28c-.34,0-.85,0-.85.23,0,0,1.19.65,1.26.79a4.12,4.12,0,0,1,.41,1c0,.48-.07.58-.28.78v.07c0,.75,0,1.33-.06,2.08,0,.2-.11,1.08-.11,1.25s.17.41.17.48,0,.41,0,.48v.51c0,.2-.31,1.22-.31,1.42s.14.82.11.92-.11.07-.11.1a3.51,3.51,0,0,0,.28.38,1.53,1.53,0,0,0,1.12,1.12,13,13,0,0,0,2.21.27c3.06,0,3.13-.41,3.36-1.53a6,6,0,0,1,.21-.81c.1-1.13.13-1.5.44-1.5s.71.85.85,1.36a2.47,2.47,0,0,0,.41.82c.37.34.44.4.44.47s-.14.55-.14.65v.13a1.45,1.45,0,0,1,.24.85c0,1.16-.58,1.19-2.55,1.36-.3,0-1.56.28-1.8.28a9,9,0,0,1-5.78-1.91c-1.19-1.05-1.19-3.5-1.19-3.67,0-.34.14-1.87.14-2.18V18.83s-.07-.2-.07-.23a.24.24,0,0,0,.13-.17v-.11c0-.06-.1-.4-.1-.51s0-.2.1-.57V15.71c0-.17-.2-1-.2-1.09A2.06,2.06,0,0,1,19,14a7.4,7.4,0,0,0-1.12-.47c-.58,0-.65.06-1.23.71-.34.37-1.22.31-1.7.41s-3.74.88-3.84.88h-.71c-.17,0-.82.34-.95.34-.65,0-1-.37-1.67-.95,0,0-.34-.1-.37-.17s-.17-.75-.17-.85.54-.24.57-.24c.27,0,1.5.24,1.64.24a3.56,3.56,0,0,0,1-.2c.24-.07,1.43-.17,1.63-.21A26.48,26.48,0,0,1,15.23,13c1.29,0,2.21,0,2.21-.78,0,0,0-.68,0-.78s.06-.55.1-1c0-.13,0-.88,0-1.09V8.46a1.17,1.17,0,0,0-.27-.4,2.33,2.33,0,0,1-.31.13c-.27,0-1.39.31-1.63.31a1.35,1.35,0,0,1-.64-.21,6.63,6.63,0,0,0-1-.54c-.24,0-.68,1.22-.82,1.39s-.78,1.13-.81,1.26-.07.14-.07.27-.14,0-.17,0-.14.17-.17.2-.92.38-1.06.44-.47.48-.61.51a.57.57,0,0,1-.27,0c-.14,0-.37,0-.37-.21s.17-.54.3-.57c.34-.07,1.53-2.38,1.6-2.59a22.3,22.3,0,0,0,1.16-4.21c0-.17-.28-1.06-.28-1.12a.85.85,0,0,1,.68-.62,4.58,4.58,0,0,1,1.94,1,1.85,1.85,0,0,1,.07.58,7.42,7.42,0,0,1-.71,2.38,1,1,0,0,0-.11.41c0,.1.07.51.41.51S16.28,7,16.62,7s.92-.07.92-1.33c0,0-.07-.81-.07-.95s.07-1.6.07-1.87A1.66,1.66,0,0,0,17,1.53a.82.82,0,0,1-.06-.37C16.9.44,17,0,17.44,0s.75.17,1.39.68c.11.07.75.14.85.2a1.44,1.44,0,0,1,.48,1c0,.13-.24.71-.24.85,0,.54-.34,3.46-.34,3.5s.1.27.34.27c.55,0,2.89-.92,3.37-.92A1.7,1.7,0,0,1,24.75,7c0,.61-.92.61-1.22.61A12.14,12.14,0,0,0,20,8.06c-.44.17-.44.81-.47,1.8a3.41,3.41,0,0,1-.48,1.87c-.37.51-.41.58-.41.65a.29.29,0,0,0,.31.3,3,3,0,0,0,1.56-.37,13.43,13.43,0,0,0,3.34-.55c.34-.07,1.8-.27,2.07-.37a4.67,4.67,0,0,1,.78-.31c.21,0,1.77.72,1.77,1.06,0,.54-.31,1.39-.71,1.39Zm-10.37,4.9a.68.68,0,0,1-.14.4c-.65.89-.71,1-.71,1.26a4,4,0,0,1-.41,2.14c-.17.41-1.67,2.66-1.74,2.76s-.13,0-.23.24-1.57,1.52-1.7,1.66a6.27,6.27,0,0,1-1.09.54c-.27.14-.31.14-.34.24s-.2.11-.37.11c-.41.23-1.19.68-1.26.68s-.17-.14-.17-.34a1.65,1.65,0,0,0-.11-.72,22.56,22.56,0,0,1,1.88-1.56,13.54,13.54,0,0,0,1.53-2s.23-.27.27-.34a4.85,4.85,0,0,0,.3-.41,11,11,0,0,0,1.46-3,11.34,11.34,0,0,0,.52-1.4,4.89,4.89,0,0,0,0-.61c0-1,0-1.09.2-1.39.51-.75.72-1,1.33-1s.65.3.65.54,0,.85,0,.95Z" fill="#fff"/><path d="M6,43.89c.2-.4,1.36-2.1,1.53-2.48s.74-1.15.85-1.36a.83.83,0,0,1,0-.27,3.92,3.92,0,0,0,.41-1.67c0-.27.27-.81.61-.81a3.93,3.93,0,0,1,.65.13c.23.38.3.41,1,.92a2.31,2.31,0,0,1,.2.92c0,.41-.13.54-.61,1-.14.14-.47.88-.58,1-.23.31-1.63,2.28-2,2.65-.17.17-.92,1.09-1.09,1.22s-1.22,1.36-1.46,1.5c-.41.24-.82.48-.82,1A.37.37,0,0,0,5,48c.17,0,1.63-.48,1.94-.58s1.42-.31,1.66-.38a.87.87,0,0,0,.55-.74c0-.31-.92-1.4-.92-1.5a.28.28,0,0,1,.3-.27,7.11,7.11,0,0,1,2.55,1.12A4.07,4.07,0,0,1,11.59,47c0,.58-.23,1.46-.44,1.46s-1-1-1.29-1c-.07,0-.24.06-.27.17a.74.74,0,0,1-.85.61c-.07,0-.31,0-.31,0,0,.24,0,.24-.31.24s-1.56.17-1.56.34a.54.54,0,0,0,.07.34s.71.48.88.61a.22.22,0,0,1,.17.24c0,.14-.1.65-.1.75a3.92,3.92,0,0,1,0,.54s.1.34.1.41-.07.14-.07.17c0,.24-.07,1.33-.07,1.53s.14,1.6.14,1.87c0,.07-.1,1.73-.1,2.07V60c0,.07.13.24.13.27s-.2,1.26-.2,1.33-.17.37-.41.37A1.91,1.91,0,0,1,6,61.4c-.07-.1-.51-.2-.54-.27a1.27,1.27,0,0,1-.14-.55c0-.16.31-.84.31-1s-.11-1.29-.11-1.5.28-4.79.28-5.67c0-.31-.17-1.67-.17-1.94s.13-.68.13-.75c0-.24-.27-.58-.44-.58s-1.63.48-1.94.55-1.7.4-1.77.4a1.1,1.1,0,0,0-.2.31H.48c-.45,0-.48-.48-.48-.58,0-.51,0-1.66.78-1.66a3.87,3.87,0,0,0,.68,0A10.61,10.61,0,0,0,3,47.84c.34-.28,1.43-1.7,1.87-2.25a2.68,2.68,0,0,1,.51-.54C5.64,44.2,5.78,44.1,6,43.89ZM1.19,54.47a13.92,13.92,0,0,0,.24-1.91.26.26,0,0,1,.3-.3.94.94,0,0,1,.28.06c.06.07.2.51.27.58.41.72.47.78.47,1.19,0,.21,0,1.36-.06,1.57a3.75,3.75,0,0,0-.28.57.59.59,0,0,0,.31.51c.27.14.31.14.31.31s0,.07-.28.17c0,0-.06.17-.1.17-.2.07-.27.61-.27.65,0,.34-.14.91-.48.91a2.37,2.37,0,0,1-1.15-.34,3.26,3.26,0,0,1-.31-1.29A5.76,5.76,0,0,1,1.19,54.47Zm2-15.4A10.91,10.91,0,0,0,4,37.23C4,37,4,37,4.18,37s.48-.78.61-.89.24-.34.28-1.29c0-.37.13-.68.51-.68.57,0,1.73.68,1.73,1.33,0,.17,0,.24-.24.64a4.77,4.77,0,0,1-.47.62s.13.13.13.17c0,.37-.1.51-1.05,1.73-.07.1-.27.75-.34.85A5.84,5.84,0,0,1,3.88,40.7c-.07,0-1.13,1.15-1.13,1.42s.48.41.89.41c.24,0,1.19-.13,1.39-.13a.69.69,0,0,1,.72.78c0,.44-.55.65-1.06.65-.07,0-1.46-.21-1.6-.21S1.73,44,1.5,44,.88,43.45.88,43C.88,42.94,3.13,39.17,3.2,39.07ZM19,51.58c0-.24.07-.75.1-1a.32.32,0,0,0-.31-.31,7,7,0,0,0-1,.31,5.22,5.22,0,0,0-1.43.27,2,2,0,0,1-.54.17c-.31,0-1.6-.51-1.87-.55s-.31-.06-.38-.27c-.3-.13-.61-1-.71-1.32s-.54-2-.54-2a7.06,7.06,0,0,1,0-.92c0-.13.37-.64.37-.75a1.27,1.27,0,0,0,0-.34c0-.1-.17-.64-.17-.71a1,1,0,0,1,.75-.41.47.47,0,0,1,.51.38s-.07.17-.07.2.55.71.55.85-.1.68-.1.78.2,1,.2,1.19a2.28,2.28,0,0,0,0,.51c.06.65.23,2.21.57,2.21.17,0,2.79-.47,3.2-.51s.58-.1.75-.78a6.22,6.22,0,0,0,.1-.68c0-.48-.34-1-.68-1s-1.26.37-1.43.37c-.61,0-1.19-.54-1.19-.88s.1-.27.61-.37A4.56,4.56,0,0,1,17,45.7c1.43,0,1.57,0,2.11-.62a.62.62,0,0,1-.1-.37c0-.1.1-.61.1-.71s-.13-.79-.47-.79-1.43.48-1.7.48c-.07,0-1.09-.61-1.23-.68a.42.42,0,0,1-.1-.2s.1-.07.17-.07.07-.24.1-.24,2.55-.38,2.72-.51a3.26,3.26,0,0,0,.31-1.29c0-.07,0-.51,0-.62s-.41-.37-.44-.37a2.56,2.56,0,0,1-.27.07c-.38,0-2,.1-2.31.1s-.51-.07-1.5-.51c-.13-.07-.82-.2-.88-.3a.78.78,0,0,1,0-.28.45.45,0,0,1,.51-.44,18.06,18.06,0,0,0,4.42-.68c0-.1,0-.1.14-.13a2.17,2.17,0,0,0,.1-.68,1.3,1.3,0,0,0-.27-.82c.07-.14.13-.2.13-.31,0-.3,0-.34-.4-.57a1.07,1.07,0,0,1-.38-.89.74.74,0,0,1,.61-.81c.14,0,.65.4.75.44a7.61,7.61,0,0,1,1.6.58,1.26,1.26,0,0,1,.24.71c0,.2-.24,1.05-.24,1.22,0,.45.2.89.48.89a3.28,3.28,0,0,0,.57-.21,15,15,0,0,1,1.81-.37,7.28,7.28,0,0,1,.71-.31c.1,0,.75.14.75.28.37.34.58.57.58.91,0,.55-.17.58-1.81,1a15.17,15.17,0,0,1-2.34.44,3.37,3.37,0,0,0-.55,0c-.06,0-.06.1,0,.17-.34.1-.37.85-.37,1.06,0,.61,0,1.29.61,1.29.2,0,1.15-.21,1.36-.21s.47.11.51.11.51-.21.58-.21l1.73-.41a8.75,8.75,0,0,1,2.11.48c.13.07.13.1.13.37a7.14,7.14,0,0,1-.47,1c0,.07.07.45.07.51,0,.65-.45,4.69-.65,5.54-.1.45-.54,1.74-1.16,1.74-.4,0-.85-.61-1.22-.68-.1,0-.48-.17-.58-.17s-1.19.27-1.43.3c-1.08.11-1.36.14-1.49.38,0,0-.17.07-.17.1a.47.47,0,0,0,.17.34,4.53,4.53,0,0,0-.21,1.05c0,.31.14,1.67.14,1.94,0,.51.07,2.76.07,3.2,0,.17,0,1.15,0,1.22s.14.85.14,1,0,1.09,0,1.26-.31,1.56-.31,1.7,0,.1-.17.1c-.71,0-.88-.13-1.59-.75-.14-.1-.48-.37-.48-.47a2.93,2.93,0,0,1,.17-.61c0-.11.1-.58.14-.68a5.08,5.08,0,0,0,.27-.51c0-.07.1-.92.1-1s-.07-.61-.07-.68.17-3.29.17-3.33a.38.38,0,0,0-.34-.3c-.41,0-2.1,1.93-2.24,2s-.17.07-.21.24,0,0-.1,0c-.34,0-.71.61-1,.95s-1.22.92-1.39,1.12a1.24,1.24,0,0,1-.34.31c-.07.34-.65.58-1.6,1a7.12,7.12,0,0,1-.82.51h-.64a6.46,6.46,0,0,1-1,.27c-.44,0-1-.23-1-.51s.21-.3.69-.37a3,3,0,0,0,1.19-.68l.13-.1.2,0c.14,0,.82-.88.86-.88,1-.44,1.15-.61,2.85-2.31a3.15,3.15,0,0,1,.68-.58c.07,0,.07-.21.14-.21a2.45,2.45,0,0,0,.64-.71c0-.24,1-.82,1-1s0-.61,0-.65a3.57,3.57,0,0,1,1.06-.51l.81.17a4.06,4.06,0,0,0,.58-.17S19,51.61,19,51.58ZM8.91,51c3,0,3,1.53,3,2.21a7.81,7.81,0,0,1-.17,1.09.22.22,0,0,1-.2.1c-.61,0-1.09-1-1.53-1.29s-.37-.3-.68-1a2.53,2.53,0,0,0-.58-.85c0-.07-.07-.1,0-.17S8.81,51,8.91,51Zm12.81-5.88a1.16,1.16,0,0,1,1,.92c0,.17-1.33.51-1.5.54-.61.14-.92.21-.92.72,0,.1.07.64.07.75,0,.61,0,.78.61.78a7.16,7.16,0,0,0,1.16-.1c.64-.17.71-.21.75-.21s.88.27,1,.27c.34,0,.41-.17.75-1.7a7.47,7.47,0,0,1,0-.95c.07-.4.27-1.9.27-2.21,0-.1-.07-.47-.07-.54s.07-.44.07-.51c0-.31-.37-.58-.92-.58a13.8,13.8,0,0,0-3,.68c-.78.51-.78.58-.78,1.84,0,.23.34.47.58.47S21.59,45.08,21.72,45.08ZM30,58.61a.79.79,0,0,1-.71.85c-.14,0-.72-.2-.85-.2-.92,0-.92-.27-.95-1,0-.24-.21-.38-1.91-1.84-.13-.1-1.56-1.53-1.66-1.7s-.21-.1-.24-.44c0-.1-.31-.27-.34-.34s-.27-.51-.38-.51c-.3,0-.74-.31-.74-.65s.51-.54.78-.54.2.07.68.44c.1.1.92.34,1,.48l.27.2s.07.24.1.24c.51.07.58.13,1.36.68.21.17,1.12.75,1.29.92A5.86,5.86,0,0,1,29.14,57c.06.1.34.34.47.51A2.7,2.7,0,0,1,30,58.61Z" fill="#fff"/><path d="M8.12,75.78c.41,0,2.28-.2,2.66-.23s2.89-.21,3-.21a7.17,7.17,0,0,1,.71-.3c.38,0,.89-.14.89-.51a13.44,13.44,0,0,0-.75-1.77c-.07-.27-.68-1.23-.75-1.46a4.36,4.36,0,0,1-.44-2.38c0-.55.2-1.3,1-1.3a1.16,1.16,0,0,1,1.32.92c.07.27.1.31.31.38a.39.39,0,0,1,0,.27s-.1.17-.1.2.07.27.07.31-.14,1-.14,1.15c0,.72.75,3.17,1.6,3.17a7.38,7.38,0,0,0,1.94-1c0-.1-.14-.54-.14-.65a.37.37,0,0,1,.34-.34c.07,0,2.28.24,2.28,1a3,3,0,0,1-1.46,1.77c-1.57.61-1.74.68-1.74,1a7,7,0,0,0,1.46,2.68,5.44,5.44,0,0,1,1,2.28c.07.17.51.92.55,1.09a3,3,0,0,1,.13.78,12.93,12.93,0,0,1-.37,1.43c-.1.13-1.12,1.26-1.56,1.26a10.23,10.23,0,0,1-1.87-1.13,15,15,0,0,1-2.35-.64.43.43,0,0,1-.14-.24c0-.1.21-.61.34-.61s.11,0,.21.1a13.89,13.89,0,0,1,3-.1c.24,0,.27-.41.27-.51a9.21,9.21,0,0,0-1.29-3.57,10.91,10.91,0,0,0-1.43-2.35,5.31,5.31,0,0,0-.68-.1c-.37,0-1.83.58-2.14.61s-.85.17-1,.21a9.18,9.18,0,0,0-1,.44c-.47.07-4,.54-4.65.54a2,2,0,0,1-2-2.14c0-.64.34-.81,1.6-.81.07,0,.1.06.1.13s0,.14-.14.24A1.89,1.89,0,0,0,8.12,75.78ZM18.53,91.42c.24,0,.75.14.75.41,0,.75-1.33,1.73-1.77,1.73-.07,0-.07,0-.34-.34a2.51,2.51,0,0,0-1.4-.37,5,5,0,0,1-2.24-.34c-.14,0-.82-.14-.95-.2s-.78-.45-.88-.48A4.38,4.38,0,0,1,9.42,90.4c-.07-.07-.55-.34-.61-.41a13.41,13.41,0,0,1-1.09-1.56A6.55,6.55,0,0,0,7.17,87a.6.6,0,0,1-.1-.3c0-.11.07-.68.07-.78,0-.41,0-.52.14-.65a4.78,4.78,0,0,1,1.15-.41A2.33,2.33,0,0,1,9,85c.1,0,.2.23.2.27,0,.2-.07.61-.07.81s.34.38.34.48A5.63,5.63,0,0,0,10,87.92c.58.65,2.14,2.21,2.75,2.31a2.16,2.16,0,0,1,.44.1c.17.17.34.41.41.41h.07c.21.27.24.31.51.38,0-.11,0-.28.21-.28a14,14,0,0,0,1.93.48.52.52,0,0,0,.48.2Z" fill="#fff"/><path d="M3.54,110.36c.06,0,1.32-1,1.36-1.09a.9.9,0,0,1,.68-.27c.64,0,2.27.62,2.27,1.33s-.78,2-1.42,2a.18.18,0,0,1-.14-.06v-1c0-.1-.07-.24-.2-.24-.28,0-.65.34-.89.51a2.36,2.36,0,0,1-1.73.62,1.36,1.36,0,0,1-1.12-.58,3.46,3.46,0,0,1-.34-.82c0-.2.4-.44.44-.44Zm8.39-.2a3.56,3.56,0,0,0,.51-.27c.1-.07.44-.72.55-.79a3.17,3.17,0,0,1,1.39-.88,11.8,11.8,0,0,0,1.16-1,8.72,8.72,0,0,1,3.84-1.26,7.67,7.67,0,0,1,2.85.88,8.26,8.26,0,0,0,.75.72,6.22,6.22,0,0,1,.34,2c0,.14-.1.72-.1.85s0,.1.1.17-.13.1-.13.17.13.65.13.75-.13,1-.13,1.19l.06.2c-.06,0-.17,0-.17.07a1.31,1.31,0,0,1,0,.34,1,1,0,0,0-.07.41v.48c0,.1-.1.47-.1.54a8.86,8.86,0,0,1-.14,1.53c0,.17-.3,1.39-.34,1.5s.14.61.14.71-.24.85-.24,1,.48,1.53,1.5,1.53a6.94,6.94,0,0,0,4-2.21l.41,0c.07,0,.34-.24.41-.24a2.38,2.38,0,0,1,.51.31.62.62,0,0,1,.1.44c0,.92-.17.92-.92,1-.1,0-.71.54-.85.64s-.27.55-.34.65a17.87,17.87,0,0,1-1.59,1.22c-.07,0-.45.11-.48.14s-.58.44-.68.48-.68.06-.82.1a1,1,0,0,1-.3.07s-.17-.14-.24-.14-.24.27-.27.31A12,12,0,0,1,21,122.33c-.07-.14-.27-.71-.31-.82-.37-.57-.37-.71-.44-2.1,0-.07-.1-.45-.1-.51s.07-.82.07-1a29.64,29.64,0,0,1,.47-3.57c-.06-.13-.1-.34,0-.37l.21-.1a.76.76,0,0,1-.1-.31c0-.07,0-.37,0-.44s-.14-.31-.14-.37.17-.24.17-.31a6.44,6.44,0,0,0,.21-1.36c0-.1-.14-.54-.14-.65s.07-.5.24-.47a.58.58,0,0,1-.14-.34c0-.72,0-2.21-1.73-2.21a5.43,5.43,0,0,0-2.35.37,4.91,4.91,0,0,0-.5.17c-.07,0-.35.38-.41.38s-1.09.1-1.09.23a.76.76,0,0,1-.1.38c-.24,0-.24,0-.31.51s-.3.54-1.19,1.22a1.71,1.71,0,0,0-.61.82c-.14.2-.95.81-1.05,1-.79,1.13-.86,1.26-1.5,1.7,0,.11-.27.62-.27.65v1c0,.14.24.65.24.75s-.21.64-.21.75c0,.27.37,1.49.37,1.76s-.1,1.16-.1,1.36c0,.38.1,2,.1,2.35s-.16,1.29-.16,1.49,0,.92,0,1.2c0,.64-.14,1.35-.68,1.35-1.19,0-1.7-1.73-1.84-2.24,0-.14-.47-.61-.51-.75a.75.75,0,0,1-.06-.3c0-.17.68-.24,1-.27.07,0,.2-.07.2-.28,0-.37,0-2.1,0-2.48a8.52,8.52,0,0,1,.27-2.75c-.3-.27-.3-.27-.47-.27a.46.46,0,0,0-.27.06c-.07.07-.17.75-.24.75s-.17,0-.17.1a22.24,22.24,0,0,1-1.8,2.42c-.11,0-.21.24-.31.61,0,.1-.85,1.22-1.39,1.22-1.13,0-1.13-1.36-1.13-1.56,0-1.33.51-1.53,1.33-1.8.17-.07,1.56-1.84,1.73-1.94.58-.51.65-.54.85-1s.21-.51,1.13-1.53c.17-.2.5-1.46.61-1.49s.2,0,.2-.1,0-.72,0-.79.1-.47.1-.54a6.26,6.26,0,0,0-.27-.78,4.74,4.74,0,0,0,.2-.55,4.62,4.62,0,0,1,.07-1,.41.41,0,0,0,.17-.24,5.51,5.51,0,0,1-.34-.65,9.31,9.31,0,0,0-.07-1.39,2.72,2.72,0,0,1,0-.44c0-.41.13-2.65.13-2.69,0-.27-.06-.27-.54-.51a1.17,1.17,0,0,1-.68-1c0-.3.27-.47.61-.47.1,0,2.25.68,2.31.71a1.41,1.41,0,0,1,.68,1.16c0,.13-.1,1.26-.1,1.49,0,1.64,0,1.81-.14,1.84s-.23,0-.23.17.06.37.06.44v.71s-.1.24-.1.28-.1.88-.1,1-.24.14-.24.2.27,1.23.31,1.3a.29.29,0,0,0,.24.13c.3,0,.37-.24.44-.58a2.61,2.61,0,0,1,.31-.27Z" fill="#fff"/><path d="M10.13,135.42c.17,0,.85.48,1,.51.51.17.58.21.82.78,0,.11.44.55.44.68s-.14,1.74-.2,2-.28.95-.28,1.12.24.17.34.17a4.19,4.19,0,0,0,1.23-.85c.3-.65.34-.75.64-.75s.82.41.95.41a1.09,1.09,0,0,1,.89.95c0,.61-1.06,1-3,1.66a9.05,9.05,0,0,1-.85.41c-.88,0-1.33,0-1.33,1.26,0,.17,0,1.19-.06,1.26-.34.41-.34.48-.34,1.19a36.52,36.52,0,0,1-1.23,4.52c-.2.95-.23,1.05-.64,1.53,0,.14,0,.92-.07,1.09a.46.46,0,0,1-.21.27c0,.37.07.37.41.44.11,0,.11.1.11.14s-.17.2-.28.3c-.47,1.33-.54,1.47-.81,2.45,0,.14-.44.65-.48.78a5,5,0,0,1-.41,1.57c-.13,0-.13,0-.13.1s0,.14-.14.14H6.22a2.24,2.24,0,0,1-1.56-2,3.63,3.63,0,0,1,.81-2,1.59,1.59,0,0,0,.31-.91c0-.14.31-.58.34-.75a1.07,1.07,0,0,0,0-.31A2,2,0,0,0,7,151.77a3.72,3.72,0,0,1,.71-1.66.57.57,0,0,0,.07-.41s.17-.1.17-.17l-.1-.1c.1-.34.14-.44.24-.78L8,148.54a1.82,1.82,0,0,0,.24-.27c.06-.24.3-1.26.37-1.46a5.85,5.85,0,0,0,.58-2.18c0-.44-.68-.71-.85-.71s-2,.48-2.41.48c-2.45,0-2.72-.31-2.72-1.16,0-.1.13-.54.13-.65a.78.78,0,0,1,.85-.84c.07,0,.82.4,1,.44a3.6,3.6,0,0,0,.82.13c.44,0,3.16-.4,3.74-1.08a14.66,14.66,0,0,0,.68-2.11,2,2,0,0,0-.65-1.19c-.47-.48-.51-.48-.51-1.06a3.4,3.4,0,0,1,.31-1.36C9.62,135.52,10,135.42,10.13,135.42Zm11.56,23.15h-.14s-.64.24-.74.24-.79-.17-.92-.17a6.44,6.44,0,0,1-4.35-1.39,2.17,2.17,0,0,1-1-1.57,4.56,4.56,0,0,0-.5-.78.43.43,0,0,0,.1-.27c0-.48,0-2,.51-2s.61.28,1,1.5a3.42,3.42,0,0,0,1.74,2.07,5.36,5.36,0,0,0,1.59.41,3.33,3.33,0,0,1,1.16.24,2.42,2.42,0,0,0,.51-.14,2.77,2.77,0,0,1,.58,0,2.11,2.11,0,0,0,.92-.17c.23-.1,1.42-.34,1.66-.44a5.11,5.11,0,0,1,.92-.38l.75,0c.07,0,.24-.1.3-.07a3.18,3.18,0,0,1,1.23,1.7c0,.71-1.23,1.05-1.63,1.16s-1.74.4-1.87.4-.24-.23-.28-.27a.51.51,0,0,0-.51-.17Zm1.6-17.44c.17.14,1.19.45,1.32.55a1.2,1.2,0,0,1,.48.85c0,.17-1.29,1.19-1.5,1.43a4.25,4.25,0,0,1-1.05.84.3.3,0,0,0-.17.14c-.51.55-.54.58-.78.58s-1.06,0-1.06-.24,1.19-1.56,1.19-1.94-.88-.58-1-.58-.21,0-.21.24-1.29.21-1.39.34a4,4,0,0,1-.14.45c-.06.06-1.9.61-2,.61a.77.77,0,0,1-.82-.72c0-.74,1-1.09,1.43-1.22.2-.07,1.12-.51,1.33-.58s1.46-.58,1.73-.64,1.63-.51,1.9-.51S22.81,140.73,23.29,141.13Z" fill="#fff"/><path d="M12.17,175.71l-.13.82a.59.59,0,0,0,.61.51,8.25,8.25,0,0,0,1.29-.51c.27-.11,1.46-.48,1.7-.55a5.63,5.63,0,0,1,.82-.27l.57,0v-.14c0-.07.24-.07.24-.14v-.13A8.72,8.72,0,0,0,20,174a3.4,3.4,0,0,1,1.63-.47,15.73,15.73,0,0,1,3.67,1.12.59.59,0,0,1,.17.47c0,.58-.4.75-1.15,1-.17.07-.21.17-.44.95-.14.17-.92.88-1.06,1.09s-.2.24-.34.24c0,.27,0,.3-.24.4a2.85,2.85,0,0,0-.13.48c-.1.07-.61.51-.65.54s-.54.58-.64.72-1.33.58-1.43.81a.58.58,0,0,1-.51.41.61.61,0,0,1-.58-.61c0-.14.48-.61.51-.71a1.59,1.59,0,0,0,.41-.41,3.64,3.64,0,0,0,.41-.92s.61-.61.68-.75,1-1.9,1-2.14-.24-.41-.61-.41c-.14,0-2.79.51-3,.55s-.82.34-.82.61a4.08,4.08,0,0,0-1.87.78c-.3.2-2.11.61-2.34.85a3.74,3.74,0,0,0-.55,1.6c0,.07.17.37.17.44,0,.37-.17,1.87-.17,2.18a7.35,7.35,0,0,0,.31,2.34.86.86,0,0,1,.17.65,4.81,4.81,0,0,0,1.33,1.8,10.33,10.33,0,0,0,3.16,1c.47,0,2.89.14,3.12.14a9.08,9.08,0,0,0,1-.28,2.36,2.36,0,0,0,1.66-.37,1.66,1.66,0,0,1,.82-.34c.13.07,1.29.61,1.39.64.34.14.72.24.72.69a2.49,2.49,0,0,1-.58,1.25c-.07,0-.14-.07-.17-.07a4.31,4.31,0,0,0-.68.34c-.24.11-1.36.31-1.57.41a2,2,0,0,1-.57.24.19.19,0,0,1-.21-.2,5.55,5.55,0,0,0,.1-.75,6.55,6.55,0,0,0-1,.2c-.82,0-1.8.07-1.94.07s-1.19-.1-1.36-.1a4.72,4.72,0,0,1-1.46-.17c-.17,0-1-.24-1.19-.31a5.88,5.88,0,0,1-2-1l0-.17h-.17c-.14-.17-1.12-.92-1.15-1a17.28,17.28,0,0,0-1-1.87c-.38-.61-.38-.92-.41-2.75,0-.21-.17-1.09-.17-1.26s.07-1.19.07-1.39c0-.65-.31-.85-.71-.85-.21,0-.24,0-.45.2s-1.15.48-1.36.61-.91.61-1.25.85a2.9,2.9,0,0,0-.51.14.69.69,0,0,1-.62.3c-.23,0-1.25.31-1.46.31a.88.88,0,0,1-.61-.37c-.51-.62-.54-.62-1-.72-.23,0-.3-.81-.3-.92a.39.39,0,0,1,.37-.44c.17,0,.85.1,1,.1a8.22,8.22,0,0,0,2.14-.4c.14,0,.61-.21.71-.21l.21.07,0-.1.27-.17c.24,0,1.13-.38,1.33-.41,2.14-.37,2.14-1.22,2.14-2,0-.21.07-1.06.07-1.23-.07-.37,0-2-.07-2.38a3.84,3.84,0,0,0-.47-1.69c-.58-.24-.79-.34-.79-.89a.48.48,0,0,1,.48-.54,4.14,4.14,0,0,1,1.15.34,16.78,16.78,0,0,1,2,.3,1.71,1.71,0,0,1,.81,1.23,9.75,9.75,0,0,1-.54,1.39,19.69,19.69,0,0,0-.65,2.28Z" fill="#fff"/><path d="M10.64,209.3c-.17,0-.24-.07-.24-.2s.14-.82.14-.95c0-.45-.58-.51-1-.58a3,3,0,0,1-2.11-1.19c-.07-.1-.85-1.57-.85-1.63a.37.37,0,0,1,.31-.31l2.14.71a6.42,6.42,0,0,0,2,.41h1.12a2,2,0,0,0,1,.61A2.14,2.14,0,0,1,14.42,208c0,.28-.24.31-.82.41-.31,0-1.67.61-1.94.61-.54,0-.61,0-.61.17A1.25,1.25,0,0,1,10.64,209.3Zm-3,15c-.07,0-.27-.2-.34-.24s-.1,0-.17,0a4.34,4.34,0,0,1-.34-.44,1.29,1.29,0,0,1-.2-.68,1,1,0,0,1,.34-.82c.1-.07.47-.65.57-.65s.21.11.28.21.54.64,1,.64c.24,0,.38-.06,1.36-.54.17-.1.95-.27,1.09-.34a10.54,10.54,0,0,1,1.87-.88c.2-.07.88-.89,1.09-.89s.37,0,.68-.27,1.05-1,1.25-1.19,1.23-.71,1.4-.88,1.43-.92,1.49-1c.41-.44,2.28-2,2.62-2.41a1.64,1.64,0,0,1,.72-.65c.2-.2,1-1.05,1.19-1.22s.85-.75,2.82-2.82c.1-.11.44-.11.64-.11s.07.07.07.41a4.25,4.25,0,0,1-.85,1.63c-.13.14-.54.89-.64,1-.38.27-.48.41-1.43,1.73a2,2,0,0,1-.92.82c-.17.1-.54.85-.68.88s-.44.55-.51.61a3.41,3.41,0,0,0-.48.45,6,6,0,0,0-.54.3s-.27.55-.34.65A14.94,14.94,0,0,1,17,220.38c-.07.07-.24.51-.31.51s-.1,0-.17.14-.2.14-.24.14h-.47c-.14,0-.17.13-.58,1A3.56,3.56,0,0,0,13,223.34c-.07.1-.72.24-.82.34a4.2,4.2,0,0,1-.3.48c-.11.17-1.13.51-1.26.64a2,2,0,0,1-1.16.51c-.27,0-.37-.1-1-.88a.6.6,0,0,0-.31-.17Z" fill="#fff"/><path d="M6.49,258.09c-.44,0-.51.07-1.19.51a5.07,5.07,0,0,1-1.8.54,3.94,3.94,0,0,1-.24-1.08c0-.14.07-.14.68-.14a13.58,13.58,0,0,0,1.4-.68c.1-.14.92-.75.92-.78s0-.17.06-.17.28.07.31,0,.44-.51.51-.61.48-.24.54-.3.58-1,.68-1l.72-.54c.07,0,.17-.44.24-.51,1.63-1.94,1.83-2.24,3.77-4.86a28.61,28.61,0,0,0,2.31-3.74c.37-.85.44-.95.78-1.12.1,0,.1-.82.21-1,.4-.38.44-.48.68-1.47,0-.17.27-.81.27-1s-.27-.78-.75-.78c-.27,0-1.7.74-2,.78h-.64a6.14,6.14,0,0,0-.68.41,16.78,16.78,0,0,1-3.26.78,3,3,0,0,0-.58.2c-.34,0-1.36.1-1.67.1-.51,0-1.49-1.83-1.49-2.1s.44-.31.64-.31c0,0,.27.31.34.34a1.41,1.41,0,0,0,.78.24c.31,0,.34,0,.92-.34.17-.07,1.16-.07,1.36-.1a14.34,14.34,0,0,1,3.64-.41.17.17,0,0,1,.24-.1.46.46,0,0,1,.34-.14l2-.44a5.13,5.13,0,0,0,1.66-.68,1.46,1.46,0,0,1,.55-.14c.3,0,.4.07,1.25.65a8.27,8.27,0,0,1,1.06.64.78.78,0,0,1,.17.48,1,1,0,0,1-.48.85c-.47.14-.64.2-.64.34a.57.57,0,0,0,.06.24c-.13.1-.4.2-.51.27s-.34.58-.4.68a5,5,0,0,0-.82,1.5,21.22,21.22,0,0,1-1.36,2.89s-.14.37-.17.44a22.84,22.84,0,0,1-2.07,3.23s-.41.81-.61,1.22a9.13,9.13,0,0,1-1.67,2.11,4.35,4.35,0,0,0-.44.65c-.24.3-1.53,1.42-1.77,1.7-.1.1-.78.51-.88.61a2.52,2.52,0,0,1-.92.85A10.14,10.14,0,0,0,6.49,258Zm10.47-9a19.37,19.37,0,0,1,3.3,1.42A4.93,4.93,0,0,0,21,251c.27.41.58.85.75.85s.3,0,.34.24c.13,0,1.46,1.16,1.53,1.22a11.19,11.19,0,0,0,1.15,1.67,3.4,3.4,0,0,1,1,2.28.7.7,0,0,1-.74.71c-.34,0-.48-.07-1.74-.75-.13-.07-.71-.2-.75-.34a.13.13,0,0,1,0-.1.48.48,0,0,1,.1-.31,5.61,5.61,0,0,0,.51-.34c0-.13-.61-.44-.68-.54-.61-.58-1.6-1.46-2.17-2-.28-.27-1.4-1.67-1.67-1.9a11.87,11.87,0,0,0-1-.92c-1-.34-1.18-.37-1.18-1a.35.35,0,0,1,.27-.38C16.79,249.18,16.86,249.12,17,249.12Z" fill="#fff"/></g></g></svg>