<svg xmlns="http://www.w3.org/2000/svg" viewBox="0 0 185.24 32.51"><defs><style>.cls-1{isolation:isolate;}.cls-2{mix-blend-mode:multiply;}.cls-3{fill:#7f7f7f;}</style></defs><g class="cls-1"><g id="Layer_2" data-name="Layer 2"><g id="design"><g class="cls-2"><path class="cls-3" d="M0,30.94c1.72-.19,2.83-.63,3.32-1.3s.74-2.23.74-4.67V4.53l-.57-.75A4.92,4.92,0,0,0,1.93,2.3,5.47,5.47,0,0,0,0,2V1.11H7.12l16.12,22.2V7.89q0-3.81-1-4.95a4.78,4.78,0,0,0-3-1V1.11h9.81V2a4.59,4.59,0,0,0-3.18,1.29c-.53.68-.79,2.24-.79,4.67V32.35h-.72L5.89,6.91V25c0,2.53.33,4.19,1,5a4.74,4.74,0,0,0,2.92,1v.86H0Z"/><path class="cls-3" d="M33.52,13.67a8.21,8.21,0,0,1,6.64-3.11,8.63,8.63,0,0,1,6.69,2.94,11.31,11.31,0,0,1,2.65,7.84,12.49,12.49,0,0,1-2.57,7.84,8,8,0,0,1-6.65,3.33,8.36,8.36,0,0,1-6.62-3.2,12,12,0,0,1-2.72-8,11.56,11.56,0,0,1,2.58-7.62m3.26-.58q-2,2.07-2,7.12a17.39,17.39,0,0,0,1.64,7.52c1.1,2.32,2.62,3.49,4.57,3.49a3.84,3.84,0,0,0,3.52-2.34,13.08,13.08,0,0,0,1.23-6.11,17.63,17.63,0,0,0-1.57-7.39c-1.05-2.31-2.56-3.46-4.55-3.46a3.85,3.85,0,0,0-2.8,1.17"/><path class="cls-3" d="M51.62,31.06a4.6,4.6,0,0,0,2.48-.74A3.26,3.26,0,0,0,54.71,28V17.74a9.74,9.74,0,0,0-.37-3.21,1.37,1.37,0,0,0-1.38-1,3.36,3.36,0,0,0-.54.06,6.66,6.66,0,0,0-.7.14V13c.77-.31,1.56-.62,2.38-.93l1.68-.68c.68-.29,1.38-.62,2.1-1l.17.12a2.24,2.24,0,0,1,0,.47v3.72A16.46,16.46,0,0,1,60.6,11.6a3.68,3.68,0,0,1,2.53-1.13,2.22,2.22,0,0,1,1.69.69,2.39,2.39,0,0,1,.66,1.73,2.45,2.45,0,0,1-.5,1.56,1.54,1.54,0,0,1-1.25.64,2.24,2.24,0,0,1-1.56-.8c-.53-.53-.94-.79-1.24-.79-.47,0-1.06.43-1.75,1.28a4.16,4.16,0,0,0-1,2.64V27.64a3.57,3.57,0,0,0,.82,2.7,3.75,3.75,0,0,0,2.71.72v.74H51.62Z"/><path class="cls-3" d="M78.16,10.92v1.63H74L74,25.6a9.43,9.43,0,0,0,.27,2.6,1.92,1.92,0,0,0,1.91,1.57,2.13,2.13,0,0,0,1.28-.39,6.94,6.94,0,0,0,1.23-1.22l.53.5-.45.67a6.75,6.75,0,0,1-2.24,2.25,4.67,4.67,0,0,1-2.28.65A3.22,3.22,0,0,1,71,29.86a10.68,10.68,0,0,1-.47-3.58V12.55H68.25l-.15-.14,0-.18.09-.35c.06-.08.26-.27.58-.58a17.6,17.6,0,0,0,2-2.09c.42-.54,1.39-2,2.93-4.25A.58.58,0,0,1,74,5s.05.14.05.34v5.57Z"/><path class="cls-3" d="M81.07,31.17a3.4,3.4,0,0,0,2.19-.92,6.06,6.06,0,0,0,.52-3.16V5.35a4.38,4.38,0,0,0-.3-1.87c-.2-.4-.68-.6-1.43-.6l-.44,0L81.13,3V2.18l2.21-.72c.88-.28,1.48-.48,1.82-.6l2-.68,0,.16V14.25a13.79,13.79,0,0,1,2.29-2.4,6.24,6.24,0,0,1,3.87-1.36,4.45,4.45,0,0,1,4.5,3.08,11.58,11.58,0,0,1,.66,4.28v9.24a6.24,6.24,0,0,0,.5,3.13,2.88,2.88,0,0,0,2,1v.63H92.2v-.63a3.58,3.58,0,0,0,2.28-.93A6,6,0,0,0,95,27.09V17.92a8.2,8.2,0,0,0-.66-3.56A2.53,2.53,0,0,0,91.83,13a4.74,4.74,0,0,0-3.08,1.27c-1,.85-1.49,1.4-1.49,1.65V27.09c0,1.69.18,2.75.53,3.17a3.72,3.72,0,0,0,2.27.91v.63h-9Z"/><rect class="cls-3" x="103.94" y="19.89" width="10.32" height="2.9"/><path class="cls-3" d="M117.37,30.94c1.63-.19,2.65-.53,3.06-1s.61-1.71.61-3.71V6.14c0-1.66-.23-2.74-.68-3.24a4.69,4.69,0,0,0-3-.93V1.11H129V2a4.68,4.68,0,0,0-3,.93q-.69.75-.69,3.24v9H138v-9c0-1.66-.22-2.74-.67-3.24s-1.45-.81-3-.93V1.11h11.58V2a4.66,4.66,0,0,0-3,.93q-.69.75-.69,3.24V26.78c0,1.68.23,2.76.69,3.23a5,5,0,0,0,3,.93v.86H134.29v-.86c1.65-.18,2.67-.51,3.07-1s.6-1.72.6-3.72v-9H125.28v9.56q0,2.52.69,3.24a4.88,4.88,0,0,0,3,.92v.86H117.37Z"/><path class="cls-3" d="M149.2,31.17a4.82,4.82,0,0,0,2.75-.83c.38-.4.57-1.48.57-3.25V16.29a7.78,7.78,0,0,0-.18-2,1.24,1.24,0,0,0-1.29-.93l-.43,0c-.15,0-.56.15-1.24.36V13l.88-.32q3.57-1.29,5-2a2.48,2.48,0,0,1,.74-.27l0,.34V27.09c0,1.72.18,2.8.56,3.24a3.89,3.89,0,0,0,2.54.84v.63H149.2ZM152.44.88A1.92,1.92,0,0,1,154,.18a2,2,0,0,1,1.5.69,2.44,2.44,0,0,1,.62,1.68,2.36,2.36,0,0,1-.62,1.65,2,2,0,0,1-1.5.69,1.94,1.94,0,0,1-1.51-.69,2.36,2.36,0,0,1-.61-1.65,2.44,2.44,0,0,1,.61-1.67"/><path class="cls-3" d="M162.3,31.17a4.5,4.5,0,0,0,2.57-.85,3.52,3.52,0,0,0,.68-2.53V5.66a6.35,6.35,0,0,0-.23-2.06,1.61,1.61,0,0,0-1.65-1,2.81,2.81,0,0,0-.62.07c-.23,0-.51.11-.85.2V2.18C164,1.63,166.25.91,168.83,0l.17.14a3.45,3.45,0,0,1,0,.59V27.89a3.68,3.68,0,0,0,.61,2.54,4.44,4.44,0,0,0,2.53.74v.63H162.3Z"/><path class="cls-3" d="M175.37,31.17a4.52,4.52,0,0,0,2.57-.85,3.52,3.52,0,0,0,.67-2.53V5.66a6.43,6.43,0,0,0-.22-2.06,1.61,1.61,0,0,0-1.65-1,2.81,2.81,0,0,0-.62.07c-.23,0-.51.11-.85.2V2.18c1.83-.55,4-1.27,6.62-2.18l.18.14a3.45,3.45,0,0,1,0,.59V27.89a3.62,3.62,0,0,0,.61,2.54,4.41,4.41,0,0,0,2.53.74v.63h-9.87Z"/></g></g></g></g></svg>