<svg xmlns="http://www.w3.org/2000/svg" viewBox="0 0 276.29 78.4"><defs><style>.cls-1{isolation:isolate;}.cls-2{mix-blend-mode:multiply;}.cls-3{fill:#1d9bf0;}.cls-4{font-size:56.36px;fill:#7f7f7f;font-family:YuGo-Bold, YuGo Bold-90ms-RKSJ-H;font-weight:700;}</style></defs><g class="cls-1"><g id="Layer_2" data-name="Layer 2"><g id="design"><g class="cls-2"><path class="cls-3" d="M35.75,0A35.75,35.75,0,1,0,71.5,35.75,35.75,35.75,0,0,0,35.75,0Zm.81,31.1h0a7.14,7.14,0,0,1-.2-1.74A7.66,7.66,0,0,1,44,21.71a7.58,7.58,0,0,1,5.58,2.42,15,15,0,0,0,4-1.42c.28-.14.55-.27.81-.42A7.51,7.51,0,0,1,52,25.84a8.14,8.14,0,0,1-.9.64h0l0,0a15.33,15.33,0,0,0,3.59-.88c.26-.09.52-.18.78-.29a15.43,15.43,0,0,1-3.8,3.93c0,.33,0,.66,0,1C51.71,40.36,44,52,29.94,52a21.58,21.58,0,0,1-11.73-3.45A15.77,15.77,0,0,0,20,48.7a15.27,15.27,0,0,0,7.22-1.81l.14-.07.41-.24a17.3,17.3,0,0,0,1.73-1.15h0l0,0a7.64,7.64,0,0,1-6.69-4.2,7.05,7.05,0,0,1-.45-1.1,7.53,7.53,0,0,0,1.43.13,7.12,7.12,0,0,0,1.47-.16c.18,0,.37,0,.55-.09h0a7.65,7.65,0,0,1-6.14-7.51v-.08a7.56,7.56,0,0,0,2.67.87,6.82,6.82,0,0,0,.79.09l0,0h0A7.64,7.64,0,0,1,19.77,27a7.55,7.55,0,0,1,.8-3.35c.08-.16.15-.33.25-.49a21.66,21.66,0,0,0,15.52,8l.23,0Z"/></g><text class="cls-4" transform="translate(97.63 59.29)">Twitter</text></g></g></g></svg>