<svg xmlns="http://www.w3.org/2000/svg" viewBox="0 0 30.71 30.71"><defs><style>.cls-1{fill:#1d9bf0;}</style></defs><g id="Layer_2" data-name="Layer 2"><g id="design"><path class="cls-1" d="M15.35,0A15.36,15.36,0,1,0,30.71,15.35,15.35,15.35,0,0,0,15.35,0Zm.35,13.36h0a3.67,3.67,0,0,1-.08-.75,3.28,3.28,0,0,1,5.68-2.25,6.42,6.42,0,0,0,1.74-.61,2.91,2.91,0,0,0,.35-.18,3.24,3.24,0,0,1-1.06,1.53,3.28,3.28,0,0,1-.38.27h0A6.2,6.2,0,0,0,23.5,11l.33-.12a6.71,6.71,0,0,1-1.63,1.69c0,.14,0,.28,0,.42A9.34,9.34,0,0,1,7.82,20.87a6.84,6.84,0,0,0,.79.05,6.63,6.63,0,0,0,3.1-.78l.06,0,.17-.1a6.11,6.11,0,0,0,.75-.5h0a3.28,3.28,0,0,1-2.88-1.8,3.85,3.85,0,0,1-.19-.47,4.18,4.18,0,0,0,.61.05,3.39,3.39,0,0,0,.64-.06l.23,0h0a3.3,3.3,0,0,1-2.64-3.23v0a3.24,3.24,0,0,0,1.15.37l.34,0h0a3.26,3.26,0,0,1-1.47-2.73,3.32,3.32,0,0,1,.34-1.44l.11-.21a9.31,9.31,0,0,0,6.67,3.42Z"/></g></g></svg>