<svg xmlns="http://www.w3.org/2000/svg" viewBox="0 0 215.34 500.7"><g style="isolation:isolate"><g id="Layer_2" data-name="Layer 2"><g id="design"><path d="M178.48,55.71a20.53,20.53,0,0,0-.88-3.1,22.08,22.08,0,0,0-1.81-2.68A25.26,25.26,0,0,0,174.32,47a27.44,27.44,0,0,0-2.19-2.38,32.18,32.18,0,0,0-2.58-1.94c-.84-.69-1.59-1.49-2.46-2.09s-1.71-1.38-2.61-1.9-2-.87-3-1.33-2.09-.77-3-1.16c-1.11-.48-2.05-1.06-2.91-1.38a27.58,27.58,0,0,0-3.11-.78c-1.08-.39-2-.92-3-1.28s-2-.89-3-1.28-2.17-.54-3.1-1-1.73-1.39-2.64-1.91-2-.78-2.93-1.39-1.48-1.54-2.35-2.23-1.92-1-2.78-1.7-1.53-1.43-2.37-2.19-1.39-1.58-2.21-2.35-1.59-1.37-2.41-2.15-1.48-1.49-2.29-2.27-1.38-1.61-2.19-2.39-1.56-1.39-2.33-2-1.85-1-2.66-1.58S114.86,6.73,114,6.21s-2.1-.51-3-1-1.78-1.06-2.69-1.45-1.76-1.25-2.69-1.58-2-.58-3-.84-2.09-.34-3-.52-2-.52-3-.63c0,0,0,0,0,0-1.89-.4-1.48,0-3.88,0s-2-.28-3.85.12c0,0,0-.18-.05-.17-.95.11-1.9.56-3,.76s-2,.36-3,.64S81,2.32,80,2.67s-1.83.79-2.8,1.21-1.85.79-2.78,1.27S72.6,6,71.71,6.56s-1.6,1.22-2.45,1.84-1.73,1.06-2.54,1.73-1.41,1.43-2.17,2.16-1.65,1.46-2.4,2.17-1.89,1.21-2.63,1.91-1.3,1.84-2.05,2.54S55.73,20.29,55,21s-1.83,1.26-2.6,1.92S51,24.62,50.15,25.26,48.28,26.39,47.42,27s-1.84,1.09-2.77,1.62-1.84,1-2.84,1.48-1.69,1.35-2.73,1.79-1.94.79-3,1.19-2,.64-3.08,1c-1.53.47-1.2.23-3.07.91-.86.32-2,.35-3.13.83-.91.4-1.84,1-2.86,1.5S22.16,38.46,21.2,39s-1.78,1.14-2.69,1.76-1.92,1-2.76,1.69-1.37,1.67-2.13,2.43a26.86,26.86,0,0,0-2,2.48,24.14,24.14,0,0,0-2.08,2.44,22,22,0,0,0-1.48,2.85,21.47,21.47,0,0,0-1.3,3c-.26,1.06,0,2.2-.23,3.2S5.93,61,5.81,62s-.36,2.16-.39,3.18.06,2.18.13,3.19a26,26,0,0,0,.78,3.1,27.09,27.09,0,0,0,.46,3.15A23.6,23.6,0,0,0,8,77.51a23.41,23.41,0,0,0,1.29,2.95,20.37,20.37,0,0,0,2.23,2.31,20.43,20.43,0,0,0,2.33,2.16,22,22,0,0,0,2.67,1.69c.89.53,1.7,1.14,2.59,1.56a28.41,28.41,0,0,0,2.84,1,24.6,24.6,0,0,0,2.89.87,29,29,0,0,0,3,.3c1,.09,2,.5,3,.5s2-.52,3-.6,2,.26,3,.12,2-.37,3-.56,2-.29,3-.52,1.81-1,2.82-1.23,2,0,3-.28l3.11-.9c1.05-.32,2.1-.59,3.11-.9s2-.76,3.05-1.08,1.95-1,3-1.33,2.15-.34,3.18-.64,2.07-.58,3.12-.86,2.06-.53,3.12-.79,2.08-.47,3.15-.69,2-.67,3.13-.85,2.16.06,3.25-.09,2-.76,3.14-.87,2.13,0,3.24-.13,2.11-.33,3.22-.38,2.13,0,3.24,0,2.18.19,3.23.24,2.17.2,3.22.28,2.19,0,3.23.11,2.13.52,3.17.67,2.2.06,3.23.24,2.12.54,3.15.76,2.14.37,3.17.62,2.11.49,3.14.77,2,.69,3.07,1,2,.68,3.07,1,2.18.23,3.21.56,2,.81,3,1.13,2,.73,3.06,1,2.14.28,3.2.57,1.94.63,2.89.88,1.88.92,2.84,1.13,2,.27,3,.45,2,.43,3,.57,2,.2,3,.27,2.05.37,3,.37,2.05-.25,3-.34a26.1,26.1,0,0,0,3-.52A24,24,0,0,0,163.49,89a27.22,27.22,0,0,0,3-.69A28.78,28.78,0,0,0,169.21,87a23.54,23.54,0,0,0,2.42-2.12A22.25,22.25,0,0,0,174,82.74,20.38,20.38,0,0,0,176,80.31a20.74,20.74,0,0,0,1.49-2.81,21.8,21.8,0,0,0,1.43-2.86,24.3,24.3,0,0,0,.72-3.13,28.8,28.8,0,0,0,.26-3.19,31.82,31.82,0,0,0,.24-3.19c0-1-.22-2.08-.35-3.18s-.32-2.06-.52-3.15S178.75,56.78,178.48,55.71ZM12.7,65.1a2.45,2.45,0,0,1,1.5-2.41,6,6,0,0,1,3-.84,18.94,18.94,0,0,1,3,.88c1.23.25,2.32.54,3,.7,3.65.92,5.37-.09,3.82,1.12-1.29,1-1.34.43-3.1,1.11-.92.36-2,.54-3.12.87a23,23,0,0,1-3.1,1,8.26,8.26,0,0,1-3.26.17A2.42,2.42,0,0,1,12.7,65.1Zm7.74,17.12a2.46,2.46,0,0,1-.72-2.75,6,6,0,0,1,1.43-2.73,19.29,19.29,0,0,1,2.72-1.58c1-.72,2-1.32,2.57-1.69,3.18-2,3.63-4,3.44-2-.15,1.62-.61,1.26-1.32,3-.38.91-1,1.85-1.53,2.87a24,24,0,0,1-1.42,2.92,8.52,8.52,0,0,1-2.13,2.48A2.42,2.42,0,0,1,20.44,82.22ZM26.34,56c-.59-.38-1.48-1.07-2.52-1.79a19.7,19.7,0,0,1-2.67-1.64,5.93,5.93,0,0,1-1.36-2.75,2.26,2.26,0,0,1,.78-2.59c1-.94,1.91-1.17,2.89-.6a8.09,8.09,0,0,1,2.12,2.45A24.35,24.35,0,0,1,27,52c.52,1,1.19,1.94,1.56,2.86.71,1.74,1.19,1.39,1.35,3C30.14,59.78,29.52,58,26.34,56ZM86.55,26.39c0,1.71-.16,1.7-.18,3.41s.36,1.71.34,3.42-.49,1.7-.51,3.41,0,1.71,0,3.42.23,1.76.18,3.53-.25,1.75-.29,3.52-.26,1.76-.31,3.52.14,1.78.15,3.54.29,1.73.37,3.47-.07,1.74-.06,3.48c0,.49.16.49.13,1-.07,1.32-.22,1.32-.26,2.64s-.16,1.31-.2,2.63c0,1.14.3,1.94.22,2.5-.14.91-.84,1.16-1.61,1.9s-1.41,1.83-3.25,1.83c-.79,0-1.61-1-2.51-1.9a12.09,12.09,0,0,1-2.25-2.27,7,7,0,0,1-.92-3.11,31.15,31.15,0,0,1,.89-3.23,18,18,0,0,0,.21-2.19c0-.12,0-.2-.15-.17a22.48,22.48,0,0,0-2.55.73c-1.24.46-1.23.5-2.47,1s-1.11.81-2.34,1.29c-.73.29-.93-.18-1.65.14-1.55.71-1.27,1.31-2.82,2s-1.61.59-3.16,1.33c-.48.22-2.84.93-3.22,1.15a6.59,6.59,0,0,1-3.51,1.16,3.44,3.44,0,0,1-2.84-1,4.36,4.36,0,0,1-.87-3,9.58,9.58,0,0,1,.66-3.22,6.77,6.77,0,0,1,1.7-2.85,5.25,5.25,0,0,1,3.09-1.21c1.17-.11,2.25,0,3.24-.08s2.09-.62,3.14-.82,2-.38,3.15-.65c1-.24,1.92-.72,3.06-1,.94-.25,1.94-.65,3.07-1,.51-.13,1.53-.33,2.72-.61.85-.19,1.82-.29,2.74-.51.2,0,.33-.06.33-.29,0-1.34.23-1.33.28-2.67s-.1-1.34-.06-2.68c0-.63.13-1.68.16-2.76s.43-2.11.34-2.84c0-.09-.38.21-.48.19-.53-.1-.49-.32-1-.33-1.52,0-1.53-.25-3-.21s-1.51.44-3,.47-1.52-.19-3-.16-1.53,0-3,0a36,36,0,0,0-3.86.56A36.32,36.32,0,0,0,57.41,44a4,4,0,0,1-2.41-.8A3.61,3.61,0,0,1,53.85,41a12.35,12.35,0,0,1,1-2.69,7.64,7.64,0,0,1,1.82-2.08c1-.91,3-2.25,3.65-2.25a29.28,29.28,0,0,1,4.06.65,35.41,35.41,0,0,0,4,.4c1.54,0,1.54.31,3.08.31s1.55-.39,3.09-.39,1.54-.13,3.09-.17c.2,0,.25.4.36.23,0-.56.1-2,.09-3.6,0-1.17.23-2.48.12-3.64a6.15,6.15,0,0,0-1.27-3.34c-2.22-2.49-2.12-2.9-2.12-3.58a5.47,5.47,0,0,1,1.55-3.11A9.29,9.29,0,0,1,79,15.37,7.31,7.31,0,0,1,82.32,14a8.33,8.33,0,0,1,2.34,1,3.2,3.2,0,0,1,1.73,1.68,10.41,10.41,0,0,1,.15,3.77c-.06,1.49.25,1.5.16,3S86.6,24.9,86.55,26.39ZM130.3,70a9,9,0,0,1-1.59.77c-.19.08-3.81.91-4.2.91-1.93,0-1.93-.46-3.86-.46s-1.93,0-3.86,0a24.38,24.38,0,0,1-3.18.07,25.83,25.83,0,0,1-3.09-.79,26.15,26.15,0,0,1-2.94-1.14,30.38,30.38,0,0,1-3-1,15.44,15.44,0,0,1-2.8-1.56,13.59,13.59,0,0,1-1.43-2.55,13.73,13.73,0,0,1-1.23-2.67,22.93,22.93,0,0,1-.38-2.91c-.11-.89-.08-1.86-.12-2.92,0-.91-.4-1.88-.37-2.93,0-1.79.51-1.78.56-3.56s-.33-1.8-.29-3.58.47-1.78.5-3.57c0-1.56-.46-1.57-.46-3.13s.06-1.57.06-3.13.22-1.57.22-3.14-.08-1.56-.08-3.13c0-.23-.12-1.82-.36-3.4a19.18,19.18,0,0,0-.58-3.46C96.39,21,96.21,21,96.21,20.2A6.15,6.15,0,0,1,97,16.77a9,9,0,0,1,2.83-2.15c1-.68,2-1.68,3.16-1.68a5.27,5.27,0,0,1,3.57,1.7c.63.76.64,2,.64,3.75,0,.58,0,1.75-.09,3.61-.06,1,0,2.22-.07,3.63-.08,1.09-.34,2.28-.44,3.61-.15,1.73-.17,2.69-.19,3.67s.2,1.92.25,3.66c1.27.5,1.33-.3,2.65-.65s1.39-.09,2.71-.44,1.24-.65,2.56-1c1-.27,1.72-.47,2.32-.69a7.71,7.71,0,0,0,2-1.27,5.88,5.88,0,0,1,3.26-1.19,9.93,9.93,0,0,1,2.81.54,16,16,0,0,1,2.54,1.23A16.46,16.46,0,0,1,130,34.5a3.8,3.8,0,0,1,1.56,2.38c0,.75-.62,1.59-1.89,2.14a20.2,20.2,0,0,1-2.77.79c-.82.21-1.84,0-2.89.19-.86.17-1.71.78-2.72,1s-1.86.13-2.85.3c-1.5.24-1.54,0-3,.19s-1.43.64-2.93.88-1.54,0-3,.24a13.87,13.87,0,0,1-1.82-.09,7.59,7.59,0,0,0-1.39.45c-.36,1.18.44,1.32.36,2.54l-.14,2.45c-.07,1.22-.21,2.33-.22,3.35a30.67,30.67,0,0,0,0,3.35,12.48,12.48,0,0,0,.35,3.39,5.58,5.58,0,0,0,2.31,2.54,9.44,9.44,0,0,0,3.23.94,26.87,26.87,0,0,0,3.33.31c1,.05,2.13.37,3.35.37.68,0,2-.41,3.48-.5,1.09-.07,2.26-.34,3.43-.5,1.57-.22,1.61.06,3.18-.17s1.57-.2,3.14-.43c.58-.07,3.19-.46,3.77-.46s1.81-.05,1.81.78a8.7,8.7,0,0,1-1.31,2.7A22.89,22.89,0,0,1,134.53,66a18.76,18.76,0,0,1-1.92,2.23A9.36,9.36,0,0,1,130.3,70Zm34.29-22.92a2.41,2.41,0,0,1,.72,2.74,5.84,5.84,0,0,1-1.43,2.73,20.25,20.25,0,0,1-2.71,1.59c-1,.71-2,1.31-2.57,1.68-3.18,2-3.64,4-3.45,2,.16-1.62.62-1.26,1.33-3,.38-.91,1-1.85,1.52-2.87A25.36,25.36,0,0,1,159.42,49a8.44,8.44,0,0,1,2.13-2.49A2.41,2.41,0,0,1,164.59,47.08Zm0,35.14a2.16,2.16,0,0,1-2.89.26,7.25,7.25,0,0,1-2.53-2,23.4,23.4,0,0,1-1.25-3.05c-.52-1-1-2-1.36-2.94-.71-1.74-1.25-1.35-1.41-3-.19-2,.31-.09,3.49,1.93.59.37,1.44,1.12,2.48,1.84A19.87,19.87,0,0,1,163.66,77a6.65,6.65,0,0,1,1.94,2.43A2.77,2.77,0,0,1,164.59,82.22ZM158.1,64.48c-1.55-1.22.09-.18,3.75-1.09a28.4,28.4,0,0,1,2.92-1.12,20.36,20.36,0,0,1,3.12,0,5.89,5.89,0,0,1,2.93.42,2.48,2.48,0,0,1,1.61,2.37,2.27,2.27,0,0,1-1.88,2.32,7.75,7.75,0,0,1-3.16-.16,21.64,21.64,0,0,1-3.2-.5c-1.09-.33-2.23-.5-3.15-.86C159.28,65.22,159.39,65.48,158.1,64.48Z" transform="translate(-0.53)" fill="#425a37"/><path d="M165.54,115.18l-2.84-.76c-.88-.24-1.9-.26-2.9-.56s-1.86-.54-2.82-.84-1.87-.63-2.8-1-1.71-1.08-2.62-1.43-1.93-.53-2.8-.92-1.78-1-2.57-1.41-1.82-.6-2.62-1.06-1.4-1.32-2.19-1.78-1.82-.61-2.61-1.08-1.74-1.1-2.62-1.61-1.59-1.34-2.48-1.85-1.89-.82-2.78-1.32-1.73-1.1-2.64-1.57-1.93-.71-2.85-1.16-1.75-1.08-2.68-1.51-1.84-.88-2.8-1.28-1.84-.89-2.81-1.25-1.92-.72-2.9-1-2-.33-3-.6-1.93-.65-3-.88-2-.44-3-.64-2-.05-3.08-.2-2-.41-3-.53-2-.34-3-.42-2,.15-3.09.1c0,0,0,0-.09,0-1,.05-2.05.25-3.05.32s-2.08,0-3.08.06-2.09,0-3.08.13-2.06.26-3,.45-1.93.87-2.91,1.1-2,.57-2.94.84-2,.37-3,.68-2.07.3-3,.65S67,93.91,66,94.3s-2,.58-2.91,1-1.67,1.25-2.58,1.7-1.88.82-2.78,1.29-2,.63-2.88,1.13-1.57,1.36-2.46,1.87-2,.55-2.93,1.07-1.58,1.33-2.48,1.85-1.75.66-2.56,1.13-1.38,1.33-2.2,1.8-1.54,1-2.36,1.51c-1,.55-2.17.65-3.1,1.13S35,111.07,34,111.51s-2.11.74-3.07,1.14-2,1-3,1.38-2.23.29-3.23.54a28.68,28.68,0,0,1-3.14.82,20.25,20.25,0,0,1-3.24-.12A1.6,1.6,0,0,0,17,116.65a1.24,1.24,0,0,0,1.11,1.27,9.44,9.44,0,0,0,3,.15c.81-.06,1.76-.51,2.94-.68.87-.14,1.94.2,3,0,.9-.19,1.87-.44,2.93-.71.9-.22,1.79-.77,2.82-1.06s1.8-.75,2.81-1.07,2-.3,3-.64,1.81-.8,2.8-1.16c.74,0,1.53.28,2.26.23,1.12-.08,2.21-.59,3.33-.68s2.26.06,3.38,0c.17.19.44.52.79.48,1-.11,2-.39,3.06-.41s2.05.26,3.08.31,2,.15,3.06.26,2.1-.21,3.12-.06,2.05.21,3.07.37l3,.49c1,.15,2,.8,3,.94,1.28.17,2.59-.07,3.86,0s2.37.51,3.65.53c-1,.29-1.83.37-2.84.64s-2,.57-3,.82-2,.57-3,.81-2,.44-3.06.64-2.05.4-3.08.57-2.1,0-3.14.18-2,.56-3.06.67c-.44,0-.89,0-1.33.07-.73,0-1.47.08-2.2.11a1,1,0,0,0-.49.24c-.25,0-.54-.24-.78-.22-1.6.12-1.62,2.78,0,2.7.83,0,1.66-.14,2.49-.21s1.67,0,2.49-.12c1.23-.1,2.44-.38,3.66-.5,1,0,2.07-.15,3.1-.13s2.06.27,3.09.3,2,.41,3.08.45,2.06,0,3.09.06,2.07-.21,3.1-.16,2,.33,3.08.38,2.07-.23,3.1-.17,2,.29,3.08.34,2.07-.11,3.1-.07,2,.39,3.08.42,2.09-.05,3.13-.07,2.09,0,3.12-.1,2.06-.37,3.1-.48,2.09,0,3.12-.19,2.08-.23,3.1-.42,2.06-.36,3.08-.58,1.93-.86,3-1.11,2.14,0,3.15-.29,1.95-.78,2.95-1.07,2-.58,3-.89,2-.59,3-.91,1.91-.89,2.9-1.21c1.28-.41.87-2-.42-1.58-1,.32-2,.59-3,.91s-2.1.3-3.1.6-2,.6-3,.9-2,.48-3,.75-2,.58-3,.83-2,.87-3,1.09-2.15-.12-3.18.07-2,.36-3.08.51-2,.59-3.07.7-2.1-.1-3.14,0-2.07.19-3.12.2-2.08.18-3.13.14-2.2.22-3.29.17-2.17-.32-3.27-.38-2.18-.06-3.28-.12-2.17-.22-3.26-.27-2.4,0-3.49,0c1-.15,2.08-.75,3-.91s2-.06,2.9-.24,1.88-.47,2.83-.67,1.88-.43,2.83-.64,1.9-.34,2.84-.58,2.13-.44,3.18-.77,2-.93,3-1.31,2.18-.39,3.19-.8,1.9-1.1,2.91-1.53,1.92-1,2.92-1.46,2.11-.63,3.11-1,2.07-.72,3.07-1.12,1.94-1.07,3-1.44,2.22-.28,3.25-.61,2-1.07,3-1.34,2.17-.29,3.24-.48c.33,0,.57.12.9.07,1,.44,1.93.9,2.94,1.35s2.07.68,3.09,1.11,2,.79,3,1.21,2.07.65,3.1,1.06,1.87,1.19,2.91,1.57,2.23.2,3.28.56,1.92,1.08,3,1.42,2.18.28,3.24.59,2.08.58,3.15.86,2.09.55,3.17.8,2,1,3.08,1.25,2.16.29,3.25.49,2.11.57,3.2.75c.44.07.9-.25,1.26-.25.64,0,1.42,0,1.58-.77C169,116.06,168.11,115.87,165.54,115.18ZM63.32,103.45c.94-.45,1.88-.89,2.82-1.29s1.82-1,2.78-1.4,2-.73,2.93-1,2-.6,3-.87S77,98.76,78,98.54s2-.65,3-.83S83,97.49,84,97.36s2-.63,3-.71,2.1.28,3.12.24,2.06-.46,3.08-.45,2.08.1,3.1.15,2.05.49,3.06.58,2.09,0,3.09.15c-1,.19-2,.26-3,.47s-2,.69-3,.92-2,.26-3,.51-2,.43-3,.69-2,.38-3,.65-2,.5-3,.77-1.91.83-2.9,1.1-2,.44-3,.71l-3,.83c-1,.27-1.9.85-2.89,1.12s-2,.41-3,.68-2,.39-3,.64-1.93.78-2.93,1-2,.45-3,.67-2,.58-3,.79-2.06.18-3.07.36-2.07.09-3.08.25-1.73.46-2.75.59c1-.4,1.61-1,2.64-1.38s1.91-.93,2.93-1.38,2-.68,3-1.14,2.1-.56,3.1-1S62.33,103.94,63.32,103.45Zm6,8.43-3.06-.48c-1-.16-2.3-.51-3.33-.65,1.2-.16,2.61-.49,3.8-.67s2.38-.33,3.57-.54,2.45,0,3.64-.19,2.1-.67,3.17-.94,2.16-.45,3.21-.78,2-1,3-1.38,2.22-.3,3.26-.68,1.92-1.13,3-1.52,2.09-.71,3.12-1.1,2.19-.43,3.22-.8,2-.93,3-1.27,2.14-.54,3.19-.84,2.06-.83,3.13-1.08,2.19-.25,3.27-.41c.87.21,1.69.49,2.52.73s1.66.65,2.47.93,1.66.63,2.45,1,1.9.47,2.8.86,1.64.72,2.54,1.11c-1,.19-1.87.26-2.86.48s-1.91.74-2.89,1-2,.35-3,.61-2,.39-3,.66-1.87.82-2.84,1.1-2,.55-2.92.85-1.89.72-2.86,1-2,.4-3,.7-2,.36-3,.67-1.95.57-2.91.88-1.8,1.07-2.76,1.38c-1.11.19-2.24.43-3.34.53s-2.26,0-3.37,0-2.23-.36-3.35-.39-2.24.27-3.36.18-2.2-.46-3.31-.6S70.44,112.06,69.32,111.88Z" transform="translate(-0.53)" fill="#425a37"/><path d="M11.79,188.09a16.59,16.59,0,0,0,.93,2.52,17.07,17.07,0,0,0,5.1,6.28,23.18,23.18,0,0,0,3.77,2.25l-.2.4a2.48,2.48,0,0,0-2.1,1.16A16.78,16.78,0,0,1,15,197a17,17,0,0,1-2.69-4.77,20.66,20.66,0,0,1-1-3.57,16.07,16.07,0,0,1-3.07,7.44,14.47,14.47,0,0,1-7.33,4.82l-.18-.36A15,15,0,0,0,7,195.15a16.69,16.69,0,0,0,2.45-7.06H3.54l-2.23.11v-1.34l2.23.12H9.6a48.92,48.92,0,0,0,.27-6c2.49.31,2.83.49,2.83.78s-.18.49-.87.69a44.3,44.3,0,0,1-.27,4.57h5.62a18,18,0,0,1,1.56-1.79c2.29,2.05,2.45,2.28,2.45,2.48a.38.38,0,0,1-.36.42Z" transform="translate(-0.53)"/><path d="M3.39,215.49l-.07.06V233c0,.47-.56.8-1.32.8-.33,0-.46-.16-.46-.45,0-.69.13-2.78.13-16,0-1.43,0-2.45-.09-3.63.58.2,1.18.4,1.74.64H5.9c.29-.55.45-.64.63-.64s.51.06,1.2.64.65.67.65.92-.2.42-.81.6a53.33,53.33,0,0,1-2.78,5.21c2.27,1.43,3.1,2.76,3.1,4.72a3.06,3.06,0,0,1-3,3.35,1.71,1.71,0,0,0-1.38-1.59l0-.44a8.64,8.64,0,0,0,1.43.11c.71,0,1.18-.45,1.18-1.85a5.42,5.42,0,0,0-2-4.16,52.21,52.21,0,0,0,1.62-5.75Zm13.16,12.85a17.2,17.2,0,0,0,5.28,3.45l-.06.41a2.53,2.53,0,0,0-1.83,1,13.24,13.24,0,0,1-4.39-3.67l-.07-.09-.2.2a15.08,15.08,0,0,1-8.17,4l-.18-.36a14.73,14.73,0,0,0,7.35-4.79c.09-.11.2-.24.29-.37a17.85,17.85,0,0,1-2.12-7.4h-1c-.09,4.1-.53,5.79-1.43,7.51a10.63,10.63,0,0,1-4.56,4.47l-.27-.28a11.19,11.19,0,0,0,3.52-4.71c.76-1.84,1-3.92,1-8.24,0-2.94,0-4.28-.07-5.46.58.2,1.16.4,1.72.65h6.32a19.81,19.81,0,0,1,1.43-1.52c2.12,1.74,2.25,2,2.25,2.21s-.13.42-.36.42H11.52l-.07.07v3.77h6.17c.34-.54.47-.61.67-.61s.49.09,1.11.63.65.71.65.91-.18.42-.76.65a17.33,17.33,0,0,1-2.83,7Zm-3.41-7.55A15.32,15.32,0,0,0,15.42,227a19.14,19.14,0,0,0,2.07-6.17Z" transform="translate(-0.53)"/><path d="M2.18,263.29l17.67-17.67.57.57L2.75,263.85Z" transform="translate(-0.53)"/><path d="M12.61,287.74a19.86,19.86,0,0,0,9.18,4.82l-.09.4a2.48,2.48,0,0,0-1.81,1.4A16.38,16.38,0,0,1,12,287.79c0,5,.11,6.13.11,6.57s-.66.78-1.44.78c-.36,0-.52-.13-.52-.4,0-.67.05-2,.09-6.08a19.44,19.44,0,0,1-9.49,5.83l-.18-.35a22.42,22.42,0,0,0,8.25-6.4H5.55v.16c0,.51-.54.89-1.18.89-.4,0-.58-.15-.58-.42,0-.56.09-1.49.09-5.3,0-1.21,0-2.28-.09-3.43a11.87,11.87,0,0,1,1.8.69h4.66v-2h-7L1,278.45v-1.33l2.27.11h7c0-1.58-.05-2.3-.09-2.9,2.4.2,2.67.38,2.67.6s-.15.41-.89.7v1.6h5.7c.47-.58,1-1.2,1.54-1.74,2.21,2,2.32,2.18,2.32,2.45s-.11.4-.31.4H11.94v2H16.8c.26-.56.4-.65.58-.65s.44,0,1.07.58.8.76.8,1-.18.35-.8.64v1c0,2.43.09,4,.09,4.7,0,.45-.61.76-1.27.76a.43.43,0,0,1-.49-.45v-.09Zm-2.36-4.32v-2H5.64l-.09.11v1.87Zm0,3.21v-2.09H5.55v2.09Zm1.71-3.21h4.84v-2H11.94Zm0,1.12v2.09h4.82v-2.09Z" transform="translate(-0.53)"/><path d="M.6,326.08a20.07,20.07,0,0,0,6.15-5.77c1.85,1,2.05,1.2,2.05,1.52s-.22.37-.85.37H7.73a20.15,20.15,0,0,1-6.91,4.24Zm17-16.26a20.4,20.4,0,0,1,1.47-1.69c2.12,1.76,2.39,2.11,2.39,2.38s-.14.42-.34.42h-18L.89,311v-1.33l2.27.11h7.11v-.6c0-1,0-1.56-.07-2.32,2.23.2,2.72.4,2.72.65s-.15.4-.85.66v1.61ZM6.5,318.75V319c0,.49-.53.8-1.29.8-.31,0-.49-.13-.49-.4,0-.54.09-1.67.09-4.9,0-1,0-1.47-.06-2,.57.18,1.13.38,1.69.6h9.2c.24-.47.42-.6.6-.6s.47.11,1.05.56.71.62.71.82-.18.4-.65.67v.8c0,2.36,0,3.17,0,3.48,0,.53-.71.78-1.34.78a.38.38,0,0,1-.42-.43v-.4h-3.3a.94.94,0,0,1-.29.27v1.31c0,2.83.11,4.41.11,5.17,0,1.07-.87,1.92-2.8,2-.23-1-.63-1.41-2.3-1.81l.05-.4a19.78,19.78,0,0,0,2.29.13c.76,0,.94-.2.94-1v-5.64Zm9.14-4.56H6.55l0,0v3.41h9.14Zm-1.83,6.41a14,14,0,0,1,5.73,2.76,2.9,2.9,0,0,1,1.18,1.94c0,.69-.43,1.14-.87,1.14s-.76-.23-1.16-.87A13.35,13.35,0,0,0,13.61,321Z" transform="translate(-0.53)"/><path d="M2.18,357l17.67-17.67.57.57L2.75,357.52Z" transform="translate(-0.53)"/><path d="M5.77,372.27c.33-.51.47-.57.65-.57s.4.09,1,.57.73.72.73.9-.15.46-.91.73a21.82,21.82,0,0,1-2.12,3.77v1c1.88.23,2.79,1,2.79,1.85a.88.88,0,0,1-.85,1c-.44,0-.76-.24-1-.85a3,3,0,0,0-1-1.38v.38c0,5.84.09,7.6.09,8.18,0,.4-.69.69-1.33.69-.32,0-.49-.11-.49-.38,0-.76.13-2.5.13-8.4a22.71,22.71,0,0,1-2.7,2.67l-.26-.29a28.11,28.11,0,0,0,5-8.75H2.76l-2,.11v-1.34l2.05.11h.67v-1.8a19.19,19.19,0,0,0-.09-2.27c2.18.2,2.65.4,2.65.64s-.15.4-.84.67v2.76Zm12-2.91c.42-.49.87-1,1.33-1.43,1.81,1.49,2.12,1.89,2.12,2.12s-.13.42-.36.42H10.14l-2,.11v-1.34l2,.12ZM19,378.58c.27-.56.42-.69.62-.69s.43.07,1.05.56.76.73.76.91-.2.42-.78.71v1.14c0,3.47.11,5.41.11,6,0,.45-.65.74-1.32.74-.29,0-.46-.16-.46-.4v-.38H10.11v.47c0,.46-.53.8-1.22.8-.36,0-.51-.16-.51-.45,0-.64.11-2.27.11-7,0-1.43,0-2-.05-3,.54.18,1.05.36,1.56.58Zm-1.14-6.33c.22-.42.4-.55.56-.55s.47.06,1.07.53.71.65.71.82-.18.43-.69.69v.81c0,.95.07,1.85.07,2.23s-.63.71-1.29.71c-.29,0-.45-.16-.45-.4v-.43H11.36V377c0,.45-.53.78-1.27.78-.33,0-.47-.16-.47-.45s.09-1.15.09-3.52c0-1,0-1.49-.06-2.16.53.18,1.09.36,1.6.58Zm-7.71,7.53v2.36h3.55v-2.45H10.2Zm0,6.28h3.55v-2.8H10.11Zm7.69-12.69H11.43l-.07.06v2.12H17.8Zm1.14,6.32H15.57a.62.62,0,0,1-.31.31v2.14h3.68Zm0,3.57H15.26v2.8h3.68Z" transform="translate(-0.53)"/><path d="M4,402.77l-.09.09v17.6c0,.49-.61.8-1.32.8-.38,0-.53-.11-.53-.4,0-.67.11-3.36.11-15.91,0-1.78,0-2.85-.05-3.94.85.29,1.41.49,1.76.65H18.4c.34-.74.47-.83.69-.83s.51.07,1.14.58.78.8.78,1-.22.43-.85.72v1.76c0,11.16.11,13.23.11,14.16,0,1.23-1,2-2.74,2-.11-.85-.44-1.3-2.16-1.76l0-.41a13.67,13.67,0,0,0,2.19.18c.71,0,.84-.18.84-.91V402.77Zm8.26,6.35a.56.56,0,0,1-.33.27v6.17h2.51v-3.21a14.07,14.07,0,0,0-.09-2c2.34.24,2.54.38,2.54.62s-.15.4-.82.67v.65c0,3.63.11,4.5.11,4.92s-.56.76-1.29.76c-.31,0-.45-.11-.45-.38v-1H7.75v1.41c0,.42-.58.75-1.27.75-.33,0-.49-.13-.49-.44,0-.92.11-1.9.11-6.06,0-.74,0-1.25-.06-2.05,2.31.22,2.54.38,2.54.6s-.16.4-.83.67v4h2.48v-6.44H6.77l-2.09.11v-1.34l2.09.11h4.66a29.79,29.79,0,0,0,1.49-4.76c2.27.71,2.41.87,2.41,1.11s-.14.38-.89.51A24.25,24.25,0,0,1,12.23,408h2.3a16.08,16.08,0,0,1,1.26-1.4c1.9,1.65,2,1.89,2,2.12a.37.37,0,0,1-.36.4Zm-5.15-5.75c2.08.92,2.94,2.23,2.94,3.34a1,1,0,0,1-1,1.12A.83.83,0,0,1,8.2,407a5.05,5.05,0,0,0-1.38-3.3Z" transform="translate(-0.53)"/><path d="M180.46,193.65a12.67,12.67,0,0,1,1.77-.44s.11,0,.32.15v-.15c.18,0,1-.32,1.12-.32a.77.77,0,0,1,.36.14,12,12,0,0,0,2,.83c0,.4.07,1.26-.25,1.48a4.41,4.41,0,0,1-.54.39c-.26,0-1.26-.1-1.48-.1a2,2,0,0,0-1,.28,1.18,1.18,0,0,0-1.12-.61c-.18,0-3.89.69-4.61.69a6.13,6.13,0,0,0-1.91.1c-.46.22-.5.22-.61.22s-1-.58-1.15-.58a4,4,0,0,0-1.58.62c-.11.07-.61.21-.61.32s.18.4.18.47c0,.43-.33.79-1.12,1.62-.07.07-.32.54-.4.57s0,.08,0,.11a6,6,0,0,0-.83.43c-.11,0-.54.51-.65.58-.57.25-.61.29-.61.4,0,.28.07.35.86,1a3.57,3.57,0,0,1,.36.76c0,.54-.5,4.32-.5,4.53,0,1.91,0,3.39,6,3.39a15.47,15.47,0,0,0,3.45-.36c.4-.07,2.2-.25,2.56-.36.9-.29,1.91-.65,2.73-4.5.72,0,.9,0,.9.47L184,208a6.76,6.76,0,0,0,.65,1.05,4.58,4.58,0,0,1,.11,1,2,2,0,0,1-.58,1.4c-.14.07-.14.07-.18.25s0,0-.07,0c-.25,0-1.37.36-1.58.4a5.78,5.78,0,0,0-1.59.18l-1.44,0-1.19.25c-.5,0-2.62.18-3.09.18-.07,0-.47-.07-.58-.07a.2.2,0,0,0-.14.11c0-.07-.11-.18-.14-.18h-.26v.18l-.46-.11-1,0-.87-.25a2.7,2.7,0,0,1-1.9-.47c-.4-.21-1.12-.39-1.48-.64a7.46,7.46,0,0,1-1.19-1.62,8.17,8.17,0,0,1-.5-3c0-3.82,0-4-.58-4-.25,0-.68.29-.54.58a3.35,3.35,0,0,1-1.08.9c-.21.11-1,1-1.22,1.15a9.67,9.67,0,0,0-1.44.83,5.9,5.9,0,0,1-1.66.75s-.47.44-.57.47c-.33.11-2.52,1-2.56,1a.64.64,0,0,1-.65-.61,3.28,3.28,0,0,1,.15-.36c0-.07-.11-.65-.11-.69,0-.25,1.22-.54,1.33-.61a12.73,12.73,0,0,0,2.66-1.65c.26-.26,1.7-1.19,2-1.44.86-.76,2.34-1.8,3.13-2.59,0,0,.69-.44.83-.55a9,9,0,0,0,1.55-1.43s.83-1,1.22-1.05,1.3-.39,1.3-.79a.34.34,0,0,0-.33-.32l-.5.1a3.81,3.81,0,0,1-.65.15c-.14,0-.72.47-.86.47s-.43-.11-.51-.11a2.45,2.45,0,0,0-1.54.39c-.11,0-.76.18-.9.22a8.39,8.39,0,0,1-1.19.47c-.33.07-1.84.11-2.13.21-.1,0-.64.22-.72.26s-1.11.18-1.29.25-.87.25-1,.25c-.76,0-.83-.07-1.73-.94-.1-.07-.79-.25-.83-.28a1.09,1.09,0,0,1-.14-.51c0-.5.18-.57.83-.68.22,0,1.15.14,1.33.14a5.22,5.22,0,0,0,1.3-.36c.14,0,.86,0,1-.07l2.05-.22a22.14,22.14,0,0,0,2.77-.28c.25,0,1.58-.33,1.62-.33.21,0,1.19.07,1.37.07a1.54,1.54,0,0,0,.79-.21c.39-.36.43-.4.72-.4,1,0,1.58,0,2-.65,0,0,1.29-.75,1.33-.79a32.59,32.59,0,0,0,3.09-4.57,1.12,1.12,0,0,0,.22-.11,8.85,8.85,0,0,0,1.15-2.55c0-1.44,0-2.38.69-2.38a1.83,1.83,0,0,1,1.22.79,13,13,0,0,1,.65,2c0,.29,0,.47-.65,1.33a1.18,1.18,0,0,0-.32.9c0,.07-1.41,2.3-1.44,2.3s-.08.08-.51.44-1,1.4-1.73,1.51c0,0,0,.18,0,.21-.14.22-2.16,1.08-2.16,1.48,0,.14.25.25.47.25s3.63-.72,4-.79a3.39,3.39,0,0,1,1-.25ZM173,189.07s-2.34.44-2.34.8c0,.07.07.43.07.5s-.22.72-.22.83a1.33,1.33,0,0,1-.21.79c0,.11,0,.83-.07,1a3.48,3.48,0,0,1-1.59,1.8,3.66,3.66,0,0,1-1.08.15c-.14,0,.47-.72.54-.87s.29-2.09.29-2.41c0-.83,0-1.37-1-1.37a7.06,7.06,0,0,0-2.55.72,5.4,5.4,0,0,1-.8.07,10,10,0,0,1-1.62-.68l-.79-.83c0-.25,0-1,.72-1,.15,0,.69.22.83.22.83,0,3.24-.29,4.14-.4s1.08-.14,1.08-.79c0-.21,0-1.22,0-1.4s-.18-1.08-.18-1.19,0-.14-.18-.29a2.3,2.3,0,0,1-.51-1.29c0-.36,1.26-.43,1.33-.43s.26,0,.69.39c.14.07.79.22.9.29.39.36.47.65.47,1.58,0,.29-.11,1.51-.11,1.77s.5.43.83.43c.79,0,.86,0,1.07.32,0,.07.54.72.54.87a.54.54,0,0,1-.18.32C173.08,189,173.08,189.07,173,189.07Zm5.83,11.7a.58.58,0,0,0-.29.29c0,.07,0,.07-.18.11s-.11.25-.14.29a21.44,21.44,0,0,1-2.09,1.69c-.32.14-1.59.9-1.84,1-.5.14-2.77,1.08-3,1.08s-.11-.25-.15-.29a5.36,5.36,0,0,1-.72-.36c0-.07-.07-.11-.07-.18a.19.19,0,0,1,.14-.18c1.08-.39,1.23-.43,1.62-.9a7,7,0,0,0,1.73-1,7.64,7.64,0,0,0,2.56-2.6c.43-2,.5-2.41,1-2.41.29,0,.36.11,1.19,1.08a7.36,7.36,0,0,1,.9,1,2.24,2.24,0,0,1,0,.5C179.35,200,178.88,200.7,178.81,200.77Z" transform="translate(-0.53)"/><path d="M163.76,230.8a2.42,2.42,0,0,1-1,1.22,6.1,6.1,0,0,0-.36.58c-.11.11-.54.61-.61.72a1.84,1.84,0,0,1-1,1,1.19,1.19,0,0,0-.4.61,10.33,10.33,0,0,0-1,.87,7.48,7.48,0,0,1-1.65,1.8,7.34,7.34,0,0,1-1.19,1,14.39,14.39,0,0,1-1.69.62c-.18,0-1-.33-1-.65,0-.07.28-.15.35-.18s.65-.54.8-.58a1.8,1.8,0,0,0,.61-.57c.14-.22,1.12-.87,1.26-1.08.43-.54,2.73-3.06,2.81-3.57,0-.32.11-.39.5-.68a3.15,3.15,0,0,0,1-1.62c.11-.11.5-.29.5-.4s0-.54,0-.61.11-.07.18-.07a5.75,5.75,0,0,0,.36-1c0-.18-.25-1-.25-1.05a.8.8,0,0,1,.75-.68,14.89,14.89,0,0,1,1.8.68,1,1,0,0,1,.43.87c0,.46-.1.64-.5,1.26a.37.37,0,0,0-.07.39C164.41,229.86,163.83,230.62,163.76,230.8Zm1.55,6c1.3,0,2.27,0,2.27.94a5.64,5.64,0,0,1-.25.64c-.22,0-1.19.11-1.37.11-1.19,0-1.51,0-1.51.29s-.29,1.08-.33,1.26a5.52,5.52,0,0,0-.18,1.19.27.27,0,0,0,.29.29c.47,0,3.28-.76,3.49-.76s1.48.25,1.48.4c0,.32,0,.82-.25.86-.08,0-.26.18-.29.18a20.15,20.15,0,0,1-2.52.47,6.37,6.37,0,0,1-.69.25,7.32,7.32,0,0,1-1.29-.07,1,1,0,0,0-.58-.22c-.11,0-.39.22-.47.25s-.9.22-1,.29a6.11,6.11,0,0,1-2.16.61,8.33,8.33,0,0,0-2.12.36,2.08,2.08,0,0,1-.54.07,1.52,1.52,0,0,1-1.59-1.58c0-.14.11-.14.18-.14,1,0,1.08,0,1.62-.33.25-.14,3.6-.28,4.25-.5s.83-1.48.83-2.09A.51.51,0,0,0,162,239c-.25,0-1.37.18-1.58.18-.62,0-1.26-.43-1.26-.86s.43-.43.75-.43c.65,0,2.52,0,2.52-1,0-.36-.36-2-.36-2.23s.11-.33.5-.33c.15,0,.8-.14.9-.14a1.56,1.56,0,0,1,1.23,1.51c0,.22,0,.4-.11,1A2.1,2.1,0,0,0,165.31,236.81Zm2.23,9.83a22,22,0,0,1-1,5.32,1,1,0,0,1-.86.76c-.22,0-1-.43-1.22-.43a21.42,21.42,0,0,0-3.6.93,1.13,1.13,0,0,1-1,.51c-.29,0-.51,0-1.12-1.44a7.3,7.3,0,0,1-.54-3.39s.22-.82.22-1c0-.5,0-1.33.47-1.33.32,0,1.08,0,1.08.9,0,.14-.15.65-.15.76s.54,2.34.54,2.8a1.34,1.34,0,0,0,.43.69c.22,0,1.88-.51,2.24-.54,1.47-.22,2.08-.25,2.08-1.37,0-.47.22-2.52.22-3s-.11-.58-.5-.58-2.81.47-3.32.47a.77.77,0,0,1-.72-.83c0-.32.11-.36,1.26-.61.4-.07,2.16-.5,2.56-.54a11.1,11.1,0,0,1,1.69-.18,2,2,0,0,1,1.69.58C167.9,245.48,167.69,246.17,167.54,246.64Zm1.08-12.49a9.6,9.6,0,0,1-1.26-1.05c-.07-.21-.93-.75-1-.9s-.83-1.26-1-1.51-.22-.29-.22-.4.29-.54.51-.54a16.8,16.8,0,0,1,2.52,1.08c.43.29,1.37,1.08,1.37,1.7a12.7,12.7,0,0,1-.26,1.69c-.1.14-.5.11-.64.11Zm3.28,8.74c0,.22.07,1.15.07,1.33s-.11.4-.11.47c0,.25-.14,4.61-.14,4.65a1.59,1.59,0,0,0,.07.46,3.28,3.28,0,0,1,.32.54c0,.29-.32,1.55-.32,1.84,0,.94,0,1.12-.68,1.12-.33,0-.51-.11-.87-.62a7.47,7.47,0,0,1-.43-1.11c0-.22-.25-1.15-.25-1.33,0-.36.25-2,.25-2.27a4.92,4.92,0,0,1,.11-1.77,2.31,2.31,0,0,0,.11-.5c0-.11-.11-.65-.11-.76,0-1,.61-5.9.61-6.29s0-.9.79-.9,1,1.72,1,1.87a2.65,2.65,0,0,1-.43,1.37.66.66,0,0,0-.07.32c0,.11.07.32.1.5S171.9,242.53,171.9,242.89Zm10.69,2.49c0-.11.14-.65.14-.76s-.14-.94-.14-1.12.18-1.29.18-1.51-.11-1-.11-1.15.14-1.44.14-1.58-.54-2.09-.57-2.13a1.55,1.55,0,0,0-1-.36,12.25,12.25,0,0,0-2.12.51c-.11.07-.72.07-.83.14s-.47.36-.47.51v1.26c0,.14-.11.68-.11.82s.15.26.15.29-.15.22-.15.29a1.07,1.07,0,0,0,.51.32c.07,0,1.08-.21,1.26-.21a1.19,1.19,0,0,1,1,1.08,1.8,1.8,0,0,1-.11.39l.07.18a5.62,5.62,0,0,1-1.62.22h-.5s-.47.5-.47.61c0,.36,0,1.3,0,1.58s0,.44.32.44c.07,0,1.44-.08,1.73-.08s.9.76.9.87c0,.57-.29.65-1.41.79s-1.47.36-1.47,1c0,.11.14.58.14.69s-.21.54-.21.64.1.51.1.62c0,.28-.25,1.54-.25,1.8s0,.79,0,.93a1.24,1.24,0,0,1-.11.36c0,.07.11.29.11.36a.57.57,0,0,0,.11.43.42.42,0,0,0-.18.33c0,.07-1,1-1.12,1.26a.3.3,0,0,1-.25.14c-.29,0-.47-.72-.47-.86s.14-1.3.14-1.44-.14-.51-.14-.54.14-.4.14-.51-.14-.57-.14-.68.18-1.4.18-1.62a3.68,3.68,0,0,0-.11-.65l.15,0a.86.86,0,0,1-.15-.36c0-.15,0-.51.07-.8a.61.61,0,0,0-.57-.5c-.07,0-1.19.22-1.3.22-.5,0-1.58-.54-1.58-.9,0-.08.11-.22.14-.29s.18,0,.22-.11a1.91,1.91,0,0,1,.65-.29l.9,0c1.15,0,1.65-.69,1.65-.94v-1.8c0-.14-.36-.14-.47-.14-.28,0-1.51.18-1.76.18a1.13,1.13,0,0,1-1.08-1.08c0-.36.25-.36,1.76-.47.44,0,1.66-.11,1.66-.68a2.81,2.81,0,0,1,0-.58c0-.14.11-.65.11-.75s-.11-.76-.11-.83.14-.58.14-.65a.41.41,0,0,0-.46-.43c-.22,0-1.19.14-1.41.14-.5,0-.65-.18-1-.61-.11-.07-.18-.14-.18-.25s.4-.4.47-.4a12.87,12.87,0,0,0,1.94-.36.8.8,0,0,0,.43-.65v-1.36c0-.36.15-1.19-.39-1.19-.15,0-1.12.11-1.33.11s-1.19.28-1.44.28c-.65,0-1.69-.28-1.69-.86,0-.29.14-.83.61-.83a20,20,0,0,0,2.77-.25c1-.18,1.51-.29,1.51-.9a1,1,0,0,0-.07-.29.88.88,0,0,1-.15-.65,8.33,8.33,0,0,0,0-1c0-.18-.21-.9-.21-1.08s0-.54,0-.61a.58.58,0,0,1,.61-.65c.58,0,.87.32,1.3.79a5.46,5.46,0,0,0,.68.47,3.31,3.31,0,0,1,.29,1c0,.07,0,.14-.21.58,0,.21-.11.64-.11.72a1,1,0,0,0,.9,1c.36,0,2-.43,2.34-.43a1.33,1.33,0,0,1,1.33,1.33c0,.33-.18.44-.79.87a2.77,2.77,0,0,0-1.12-.33c-.25,0-1.44.33-1.65.33h-1c-.4.25-.58,1.94-.58,2.19a2.77,2.77,0,0,0,.33.8,1.12,1.12,0,0,0,.46.07c.11,0,.47-.15.54-.15.54-.07,3.28-.43,3.5-.43s.46.07,1.58.69,1.15.68,1.15,1.18c0,.11-.5,1.23-.5,1.3s.07.43.07.5-.07,1-.07,1.19c0,.54.14,1.73.14,2s-.07.61-.07.69.07.54.07.61c0,.5-.25,2.73-.25,3.2s.22,2.41.22,2.7a8.59,8.59,0,0,1-1.16,4.82,2.08,2.08,0,0,1-.36.65,1,1,0,0,1-.25.07c-.47,0-3.24-1.9-3.24-2.73,0-.29.18-.4.43-.4s1.19.15,1.37.15c.61,0,.65-.94.69-1.41a7.24,7.24,0,0,0,.14-1.44.53.53,0,0,1,.11-.68c0-.15,0-.58,0-.72v-.72s-.1-.22-.1-.25.14-.18.14-.22Zm1.58-15.84a7.72,7.72,0,0,1-.79.57.77.77,0,0,1-.68-.5c0-.07.1-.94.1-1.12s0-.57,0-.68c-.61-.72-.65-.75-.65-1.3,0-.32.18-.5.36-.5s2.74.83,2.74,2.27c0,.79-.72,1-1.05,1.15Z" transform="translate(-0.53)"/><path d="M158.76,293.65c-.07,0-.11.25-.14.25-.22.26-.62.69-.8.9-.07,0-.07.44-.11.51s-.54.25-.61.32c-.54.54-.79.76-1,.76s-.83-.65-.83-.72.07-.15.69-.76a6.84,6.84,0,0,0,.79-1.44c.07,0,.29-.14.36-.14a12.14,12.14,0,0,1,1-2.13l.1,0c0-.33,0-.36.18-.58a10.86,10.86,0,0,0,1-3.06c.07-.32.57-1.58.61-1.83s.25-1.59.25-1.87a7.7,7.7,0,0,0-.29-.76,8.1,8.1,0,0,1,.51-1.19.48.48,0,0,1,.36-.14c.32,0,1.51,1,1.65,1a6.81,6.81,0,0,1,.76.08s0-.18.07-.18a24.26,24.26,0,0,0,2.95-.94,1.74,1.74,0,0,1,1.51,1.12c0,.57-1.44.82-1.62.86-.36,0-1.8.29-2.08.29s-1.3-.54-1.55-.54a.34.34,0,0,0-.36.32,6.49,6.49,0,0,1-.15,2,9.14,9.14,0,0,1-.79,2.52,21.94,21.94,0,0,1-1,2.7,7.29,7.29,0,0,0-.68,1.37c0,.18-.54.9-.58,1.08s0,.25-.07.25Zm-1.87-14.76c-.36,0-.9-.07-.9-.54s.25-.5.72-.75a10.31,10.31,0,0,0,3-2.45c0-.07.83-.43.94-.54A5.65,5.65,0,0,1,162,273c.39-.36,2.19-2.45,2.19-3a5.76,5.76,0,0,1,0-.72,1.24,1.24,0,0,1,1.05-.69c.14,0,.21.07.93.76a7.6,7.6,0,0,0,.9.57.79.79,0,0,1,.18.51c0,.39-.21.54-.57.75s-.51.4-1.37,1.7c-.07.1-1.73,1.54-1.87,1.69a13.41,13.41,0,0,1-3.46,2.84c-.21.15-1,.9-1.26.9-.07,0-.29,0-.47,0s-.17,0-.17.22c0,0,0,0-.15.07a.28.28,0,0,0-.11.18A2.53,2.53,0,0,1,156.89,278.89Zm9.25-.86c-1.3-.83-1.37-.9-1.55-1.37a4.33,4.33,0,0,1-.36-1s0-.29,0-.33,0-.14.21-.14c.4,0,3.13.72,3.13,1.19,0,.11,0,.32,0,.36s.11.5.11.61-.15.36-.15.4.18.46.25.46a5.91,5.91,0,0,0,.8-.07c.18,0,1.15-.32,1.18-.32a3.21,3.21,0,0,1,.36.11c.15,0,.76-.15.87-.15s1.94.18,1.94.72c0,.11,0,.15-.29.61-.36.65-.39.72-.39,1.12a25.51,25.51,0,0,1-1.12,4.75,8.33,8.33,0,0,1-1,1.62,1.72,1.72,0,0,1-.5.07c-.22,0-.26,0-.69-.36a.14.14,0,0,0-.11,0,43.11,43.11,0,0,1-4.28,1.08c-.11,0-1-.44-1.15-.51s-.29-.14-.29-.32c0-.51.11-.61.29-.61a7.65,7.65,0,0,0,2.05-.11c.32-.07,1.8-.54,2.12-.54.08,0,1.23,0,1.26,0,.29-.18.58-1.33.62-1.62.1-.54.61-3.38.61-3.42a1,1,0,0,0-.72-.93c-.25,0-2.92.61-3.46.75-.29.07-1.76.26-2,.36a8.3,8.3,0,0,1-1.73.44,1.65,1.65,0,0,1-1.87-1.26c.29-.22.32-.26.54-.44l.11.11s.25-.11.29-.11c.9,0,4.86-.57,5-.61A1.84,1.84,0,0,0,166.14,278Zm-2.88,12.13a.64.64,0,0,1,.14.36c0,.07-.07.54-.07.65a4.73,4.73,0,0,1,.36.65v.43c0,.11.11.61.11.68,0,1,0,2.09.65,2.09a14.88,14.88,0,0,0,4.28-.65c.07,0,.29.15.32.15.94,0,1-1.55,1-2.16,0-.15-.07-.72-.07-.87s.14-.61.14-.72c0-.39-.18-.72-.61-.72s-2.09.47-2.45.51c-.18,0-1.26.14-1.33.18s-.75.21-.93.21-.87-.36-.87-.61.29-.72.47-.72a4.28,4.28,0,0,0,1.3-.11,25.85,25.85,0,0,1,5.4-1.15,3.31,3.31,0,0,1,1.8.79c0,.25-.58,1.19-.62,1.41-.57,5.39-.64,6-1.83,6a.64.64,0,0,1-.29,0s-.72-.68-.9-.82l-.11.11s-.39-.15-.47-.15c-.5,0-2.66.61-3.13.61a2.11,2.11,0,0,0-1.37.36,1.87,1.87,0,0,1-.64.11c-.33,0-.4-.11-1-1a3,3,0,0,1-.61-1.15s-.08-.68-.08-1c0-.14-.14-.64-.14-.75s.18-1.12.18-1.3-.32-.83-.32-1,.1-.83.1-1A5.42,5.42,0,0,1,163.26,290.16Zm4.86-19.26s1.47.51,1.69.58c1.87.57,2.66.83,2.66,2.19s-.25,1.3-.54,1.3-.47,0-.68-.43a20.34,20.34,0,0,0-1.94-1.05c-.15-.18-.62-.93-.76-1.08-.36-.28-.83-.72-.83-.93A.59.59,0,0,1,168.12,270.9Zm7.41,2a5.27,5.27,0,0,1,.79,0c.15,0,.47.79.51.79,1.11.9,1.22,1,1.22,1.65a2.87,2.87,0,0,1-.18,1.16c-.11.46-.25,2.7-.36,3.13a4.17,4.17,0,0,0-.18.57c0,.11.11.4.15.47s-.11,1.12-.11,1.19a7.2,7.2,0,0,0,.07,1.26c0,.11.43.54.61.72,0,.07-.18.21-.21.25s0,.36,0,.54a5.44,5.44,0,0,1-.54,2,1,1,0,0,1-.65.22,1.38,1.38,0,0,1-.61-.18c-.07-.15-.61-1.12-.61-1.19,0-.22.14-1.08.14-1.26s-.14-1.3-.14-1.51.14-.9.14-1.05-.18-.29-.18-.36c0-.57.15-3.2.15-3.74,0-.25,0-1.26,0-1.4s.1-.72.1-.87-.39-1.29-.43-1.51A1.68,1.68,0,0,1,175.53,272.88Zm6.41,11.77a7.54,7.54,0,0,1-.14-.93c0-.51.14-2.77.14-3.24a11.81,11.81,0,0,1,0-1.19c.07-.43.07-.61-.07-.65,0-.32,0-.75-.11-4.43,0-.07-.11-1-.11-1.18s.07-.44.07-.51c0-.25-.46-.79-.75-1.15a1.64,1.64,0,0,1-.18-.83c0-.72.18-1.08.83-1.08.28,0,.36.07.86.69.11.14.83.32.94.39a2.14,2.14,0,0,1,1,1.55c0,.47-.28,2.52-.28,3a11.35,11.35,0,0,1,0,1.87,5.28,5.28,0,0,0-.14.69c0,.43,0,.5-.15.61a.34.34,0,0,1,.22.32c0,.36-.15,1.77-.15,2.05a2.72,2.72,0,0,0,.29,1.41,3.65,3.65,0,0,0-.18,1c0,.22.15,1.22.15,1.41a.65.65,0,0,1-.15.43,1.21,1.21,0,0,1,.22.54c0,.25-.18,1.36-.18,1.62,0,.46.18,2.52.18,3,0,0-.11.93-.11,1.11s.07,1.16.07,1.23-.14,2.41-.21,2.52c-.15.29-1.19,2.19-1.26,2.27a1,1,0,0,1-.62.25,1.88,1.88,0,0,1-1.33-.62c0-.07.22-.21.25-.25a1.12,1.12,0,0,0-.21-.18s-.22.18-.29.18-.14-.07-.25-.32-.76-.4-.9-.47-.54-.65-.65-.76a5.25,5.25,0,0,1-.83-.71.48.48,0,0,1-.07-.22.37.37,0,0,1,.4-.32c.1,0,.14,0,.72.28a11.54,11.54,0,0,0,1.76.29c.4,0,.5-.18.5-.29s-.07-.18-.07-.21.43-.18.47-.25a2.57,2.57,0,0,0,.22-1.05c0-.32-.08-1.65-.08-1.94,0-.11.18-1.08.22-1.19s-.14-1.15-.14-1.37.14-2,.14-2.34a.81.81,0,0,0-.11-.36C181.8,285.12,181.94,284.76,181.94,284.65Z" transform="translate(-0.53)"/><path d="M162.68,332.53a2.73,2.73,0,0,0-1-1.76c-1.18-.79-1.44-1-1.44-2.23a2.71,2.71,0,0,1,.33-1.59.87.87,0,0,0,.18-.36v-.25c0-.07.32-.32.32-.39s.87-1.66.87-1.73a.82.82,0,0,0-.72-.4c-.29,0-.4.15-.58.36a9,9,0,0,1-1.37.51,11.58,11.58,0,0,1-1.55.64,2.18,2.18,0,0,1-2-1.54c0-.08.25-.33.25-.4.11-.32.25-.32.65-.32a7.71,7.71,0,0,0,1.94-.29h.22a8.47,8.47,0,0,0,3.06-.4,11.92,11.92,0,0,1,1.47-.47,3.16,3.16,0,0,1,1.91,1.55c0,.18,0,.36-.72.9a6.61,6.61,0,0,0-1,1.15,11.84,11.84,0,0,0-1.58,2.81c0,.43.18.58,1.73,2a2.89,2.89,0,0,1,.54,1.83c0,1.51-.22,1.62-.72,1.77a.78.78,0,0,0-.36.64c0,.33.43.54.54.54s1.15-.28,1.37-.32a2.12,2.12,0,0,1,.54,0c2,0,4.86,1.37,6.76,1.88a43.47,43.47,0,0,0,7.31.82c.83,0,4.72,0,4.93,0s1.08-.36,1.26-.36a1.89,1.89,0,0,1,1.62,1.65,3.6,3.6,0,0,1-.9,1.12c-.14,0-.75-.07-.9-.07-.32,0-.86.25-1.19.25s-1-.43-1.15-.43-1.37-.15-1.55-.15-1.51.33-1.76.33-1.3-.22-1.51-.22a36.77,36.77,0,0,1-5.51-.54,17.91,17.91,0,0,1-5.07-1.8c-.33-.14-2-.57-2.09-.61a11.73,11.73,0,0,0-1.23-.61c-.1,0-.21,0-.32,0a7.59,7.59,0,0,0-4.54,1.3c-.25.18-1.26,1.08-1.54,1.08-.07,0-.44-.11-.47-.11s-.65.25-.76.25c-.61,0-.75-.18-1.22-.9l-.14,0a7.64,7.64,0,0,1-.15-1c0-.36.18-.54.33-.54s1,.08,1.26.08a1.13,1.13,0,0,0,.89-.33c0-.11.08-.25.11-.25s.11.07.15.07a2.34,2.34,0,0,0,.57-.32c.11-.11.9-.43.94-.58A3.93,3.93,0,0,0,162.68,332.53ZM160,311.87c1.54.29,3.31.58,3.31,2,0,.39-.18,1.87-.83,1.87,0,0-.18,0-.22-.07s-.25-.33-.32-.47-.47-.58-.54-.65a14.33,14.33,0,0,0-1.4-.47,4.41,4.41,0,0,1-1.44-2.05c0-.32.68-.47.79-.47A3.54,3.54,0,0,1,160,311.87Zm8.17,4a.13.13,0,0,1,.14-.11c.15-.21.79-1.58.87-1.76a1.1,1.1,0,0,0,0-.36c0-.25-.11-1.37-.11-1.58s.18-.43.4-.43a2.5,2.5,0,0,1,1.84.54.81.81,0,0,1,.39.82,1.46,1.46,0,0,1-.11.69c-.57,1.11-.61,1.26-.61,1.54s0,.54.29.54c0,0,.58-.07.68-.07a6.68,6.68,0,0,0,2.56-.32c.39-.15.47-1,.47-1.3a14.23,14.23,0,0,0-.18-2.52c-.36-.29-.47-.36-.47-.64a4.81,4.81,0,0,1,.29-1.55c.11-.25.68-.25.86-.25s.25.07.94.5c.1.07.68.22.75.29a1.67,1.67,0,0,1,.4,1.08c0,.25-.25,3.16-.25,3.31a.51.51,0,0,0,.32.5h.61c.25,0,1.33-.32,1.55-.36s.43.08.4-.14a4.92,4.92,0,0,1,1.22-.29c.14,0,.11,0,.29.07,0,.18,0,.22.14.22s.43,0,.54.14a2.11,2.11,0,0,1,.29.83.64.64,0,0,1-.29.43,10.67,10.67,0,0,1-3.09.65c-.11,0-.69.22-.76.22s-.9-.08-1-.08-.32.22-.43.36,0,2,0,2.31c-.21,0-.25,0-.25.32V320a.52.52,0,0,0-.36.58c0,.21.15.46.29.46s1.66-.36,2-.36a22.18,22.18,0,0,0,3.38-.39c.22,0,1.23-.07,1.41-.15s1.26-.5,1.44-.5a3.75,3.75,0,0,1,2.19,1.55c0,.32-.29,1.29-.68,1.29-.11,0-.58-.18-.68-.18s-.94.15-1.08.15-.54-.54-.65-.54-2.85.29-3.39.32a3.13,3.13,0,0,1-.79.18c-.25,0-1.33-.18-1.55-.18s-1.26.22-1.47.22-.83-.36-1-.36c-.4,0-2.81.83-3.35.83h-1.15c-.15,0-.65.39-.76.43a25.92,25.92,0,0,1-3.13.36,11.81,11.81,0,0,1-1.44-.54.71.71,0,0,1-.4-.69c0-.57.18-.61,1.77-.61,0,0,.29.11.36.11a2.58,2.58,0,0,0,.75-.18.59.59,0,0,1,.36-.18c.22,0,1.19,0,1.41,0s.57.14.68.14c.36,0,2.2-.39,2.38-.39,1.62,0,1.72-1.12,1.72-1.19s-.07-1-.07-1.15.15-1.37.15-1.59a2.15,2.15,0,0,0-.26-.75,1.62,1.62,0,0,0-.57-.11c-.43.18-1.73.79-1.87.79s-1.55-.72-1.69-.72c-.47,0-.51,0-2.56,2.59a2.34,2.34,0,0,1-1.22.9c-.15.08-.65.51-.76.58a.83.83,0,0,1-.29,0,.88.88,0,0,1-.72-.58c0-.25.47-.65.76-.86s.21-.15.21-.33A7.34,7.34,0,0,0,168.12,315.9Zm8.13,10.69a5.79,5.79,0,0,1-2.08.44c-.69,0-2.2-.22-2.2-.83s1-.79,1.11-.79c.54,0,3-.54,3.46-.54.07,0,1,.07,1.19.07s1-.29,1.19-.29a6.17,6.17,0,0,0,.86,0,10.33,10.33,0,0,1,1.22-.22c.58.18,1.59.62,2.09.83a1.52,1.52,0,0,1,.18.51c0,.28-.5,1.51-.54,1.76a30.56,30.56,0,0,1-1.33,6.59,1.07,1.07,0,0,1-1,.64,1.25,1.25,0,0,1-1.26-.93c0-.25-.15-.36-.76-.36-.86,0-4.72.68-5.51.68-.25,0-1.47,0-1.51,0a5,5,0,0,1-.57.15.85.85,0,0,1-.72-.54c-.11-.54-.8-2.92-.9-3.42a7.47,7.47,0,0,1-.22-1.23c0-.25.25-1.37.29-1.58,0-.5.07-1.41.68-1.41.33,0,.33.08.61.54a2.31,2.31,0,0,1,.36.65c0,.11,0,.26,0,.26a1.91,1.91,0,0,1,.43.68c0,.11-.25.54-.25.65s.29,1.51.29,1.8-.11,1.08-.11,1.26a.69.69,0,0,0,.65.64l.29-.07a4.54,4.54,0,0,0,.53.07c.19,0,1.8-.28,2.13-.28s1.19-.22,1.4-.22a.68.68,0,0,1,.25.11c.22,0,1.16-.18,1.34-.18s1.22.36,1.4.36a.78.78,0,0,0,.68-.43c0-.11.36-1.8.36-2v-1.05c0-.29.18-1.65.18-1.94,0-.47-.72-.94-.79-.94s-1,.18-1.22.18a2,2,0,0,1-.4-.18Z" transform="translate(-0.53)"/><path d="M156.74,367.85a2.68,2.68,0,0,1-.32-.61,2.12,2.12,0,0,1,.18-.29,1.64,1.64,0,0,1,0-.18c.29,0,.94-1.26,1.19-1.3,0-.21.51-1.08.54-1.26.15,0,.18,0,.26-.32,0-.14,1.07-1.22,1.15-1.48a4.35,4.35,0,0,1,.61-1.72c.18,0,.21,0,.25-.33s.43-1,.5-1.15.18-1.12.18-1.12c.76-1.22.8-1.26.8-1.58s-.33-1-.33-1.15a1.16,1.16,0,0,1,1.12-1c1.08,0,1.69,1.8,1.69,2.12a13.9,13.9,0,0,1-.43,1.91c-.15.5-1.3,2.44-1.51,2.88a2,2,0,0,0,.46.14c.11,0,.83-.65,1-.65a1.76,1.76,0,0,0,.46,0s.15-.07.18-.07.18,0,.22,0,0-.18.07-.18,1.91-.83,1.95-.83c.1-.29.14-.29.54-.47l.18,0c.07,0,.68,0,1.51,1,.11,0,.61.5.61.75a4.76,4.76,0,0,1-.65,1.41c-.07.07-.43.43-.43.54a8.3,8.3,0,0,1-.11,1.87,5.23,5.23,0,0,0-.07.68c0,.07-.14.18-.22.22a.48.48,0,0,1,.18.32c0,.07-.28.22-.28.29a21,21,0,0,1-1.48,4.32,4.54,4.54,0,0,1-.83.86,3,3,0,0,1-.65,1.16,1.09,1.09,0,0,0-.18.5,7.84,7.84,0,0,0,2.31,2.52c.47.29,2.66,1.8,2.81,1.83.32.15,1.94.44,2.23.58a5.53,5.53,0,0,0,2.62.9c.69.14,3,.61,3.53.61.72,0,2.16,0,2.92-.07a7.23,7.23,0,0,1,.9-.07c.25,0,1.91.5,1.94.5v-.11a4.6,4.6,0,0,1,.76-.46c.79,0,1,.14,1.08.21a2.21,2.21,0,0,1,.57,1.26s-.18.4-.18.47c0,.29,0,.32-.18.32,0,0,0,.18,0,.22h-.54a2.43,2.43,0,0,0-1.12.29,2.48,2.48,0,0,1-.72.07,21.46,21.46,0,0,0-2.88-.32c-.07,0-.47.25-.57.25a12.13,12.13,0,0,1-1.77-.22c-.29,0-1.65,0-1.91-.11a14.51,14.51,0,0,1-4.86-1.65,6.09,6.09,0,0,1-.75-.43c-.22-.11-1.44-.47-1.58-.58a48.72,48.72,0,0,1-4.54-3.31,2,2,0,0,0-1-.69c-.43,0-.5,0-2.37,2.63a9,9,0,0,1-2,1.55s-.11.18-.15.18c-1.58,1-1.76,1.12-2.37,1.12s-.72-.44-.79-1.23a2,2,0,0,1-.18-.43s0-.07,0-.07l.51.11a4.47,4.47,0,0,0,1.26-.87,2.75,2.75,0,0,1,.32-.11c.11,0,.22-.61.32-.68s.4-.18.44-.25a15.59,15.59,0,0,0,2.37-2.59c.14-.18.18-.18.43-.25a6.31,6.31,0,0,0,.43-.83c0-.87-1.36-1.66-2.16-2.13-.14-.07-.21-.46-.21-.68s0-.54.65-.54a3.07,3.07,0,0,1,1.36.25l1,.54c0,.18,0,.18.21.18.43,0,.51,0,.65-.14a6.16,6.16,0,0,0,.65-1l-.07-.28s.1-.08.14-.08a23.59,23.59,0,0,0,1.8-4.28,7.25,7.25,0,0,0,.29-.86,8.7,8.7,0,0,1,.57-1.48v-.43c0-.51-.18-1.08-.5-1.08a11.79,11.79,0,0,0-1.51.75c-.22.11-1.8.62-1.87.62s-.9-.36-1.05-.36c-.75,0-.83.25-1.08,1.15a5.54,5.54,0,0,1-1.58,2.37c-.18.18-.79,1.12-1,1.19s-.61.15-.65.25,0,.15,0,.15A2.22,2.22,0,0,1,156.74,367.85Zm15.59-5.58c0-.18-.25-1-.25-1.19,0-1,.21-1.47,1.15-1.47,0,0,.47.75.57.86.65.94.69,1,.69,1.44,0,.22-.32,1.22-.32,1.44s.14.61.14.72c0,.32-.32,2.56-.36,3-.11.83-.76,3.39-1.55,4-.07.07-.54.44-.57.47-.08.18-.08.18-.26.25s-.18.43-.25.43-.54.72-.68.72-.79-.39-.79-.86c0-.25.07-.29.61-.83a17.91,17.91,0,0,0,1-3c0-.33.33-2,.33-2.06s.21-1.26.21-1.47.25-1.15.25-1.37a1.78,1.78,0,0,0-.1-.54A1.54,1.54,0,0,0,172.33,362.27Zm14.11,8.42a5.27,5.27,0,0,1-.07.58,2.35,2.35,0,0,1,.32,1.22c0,1.48-.32,1.55-1.19,1.73a6.44,6.44,0,0,1-1,.22c-1.29.1-1.58.1-1.76.1-2.74,0-3.42-1-4.07-2.05-.47-.72-.5-3.13-.5-4.17v-2.09c0-.11.07-.61.07-.65a4.53,4.53,0,0,1,.07-1,6.2,6.2,0,0,0,.07-1.22c0-.36-.07-1.84-.07-2.13s.07-1.83.07-1.94-.07-.72-.07-.87.07-.71.07-1a.71.71,0,0,0-.5-.62,7.48,7.48,0,0,0-1.62.69,2.61,2.61,0,0,1-.54.39,10.21,10.21,0,0,0-1.08,0s-.18.07-.22.07-.18-.21-.21-.21c-.18-.08-.47-.22-.47-.51,0,0,0-.5.11-.54.43-.14,2.59-1.08,2.73-1.08a.81.81,0,0,0,.51-.18,3.34,3.34,0,0,1,1.69-.5c.11,0,.54.14.61.14s.18,0,.22.18,0,.11,0,.11a5.13,5.13,0,0,1,1.62.86,2.87,2.87,0,0,1,0,.83c0,.22-.39,1.4-.5,1.69,0,.08.07.47.07.54,0,.36-.18,1.87-.22,2.16s-.32,1.51-.32,1.77a37.44,37.44,0,0,1-.14,4c0,.32-.08,1.8-.18,2.09a7.5,7.5,0,0,0-.22.75c0,.51.94,2.12,1.58,2.12.18,0,1,.19,1.16.19,1.62,0,1.69-.44,2-2.24,0-.14.21-.79.21-.86,0-.76,0-1.73.47-1.73s1.19,2.49,1.19,3.06Z" transform="translate(-0.53)"/><path d="M49.1,219.4a1.14,1.14,0,0,1,1.14-1.14c.62,0,3.53,1.14,4.15,1.14a23.58,23.58,0,0,0,2.39-1c.11-.63,2.29-1.56,3-1.87A35.92,35.92,0,0,0,63,214c4.37-2.9,4.89-3.22,5.72-4.15a7.39,7.39,0,0,1,1.45-1.35c.21-.1,2.6-.42,2.6-.83,0-.11-.32-.31-.21-.31,0-.21.21-.94.21-1a49,49,0,0,1,.41-7.79c.1-.73,0-4.67.21-5.4.1-.52.83-2.49.83-2.91s-.31-1.14-1.35-1.14c-.21,0-5.71,1.35-5.71,1.87,0,.73-4.78,1.76-5.61,2.18a4.15,4.15,0,0,1-2.08.73c-1.87,0-6-2.6-6-6.55a1.39,1.39,0,0,1,1.45-1.55c.63,0,3,.83,3.53.83,1.87,0,10.7-2.39,11.64-2.39.52,0,2.38,1.24,2.8,1.24s.83-2.28.83-2.49-.73-1.56-.73-1.87c0-.1,0-.41.11-2.9,0-.52-.42-3.33-.42-4a26.18,26.18,0,0,0-.21-4c-2-2.39-2.59-3-2.59-3.84,0-1.46,1.76-4.26,3.42-4.26.63,0,2.71,1.45,3.22,1.66a7.3,7.3,0,0,1,4.57,6.44c0,.83-1.24,4.88-1.24,5.19,0,1.25-.31,5.4-.31,6.44,0,.42.2,2.39.2,2.6A7.38,7.38,0,0,0,78.9,186c0,1.35.11,7.48,0,8.73-.1,1.76-.31,6-.41,7.58a16.54,16.54,0,0,0,.62,1.76c0,.32-.52,1.67-.52,1.87,0,1,.31,5.51.31,6.44,0,1.46-.41,7.58-.41,8.83,0,.41.31,2.39.31,2.49,0,.31-.62,4.16-.62,4.47V233c-.32,1.35-1.25,2.59-2.39,2.59-.31,0-5.71-3.84-5.71-5.71a5.3,5.3,0,0,1,.2-1.76,2.71,2.71,0,0,0,.83-.31c1.25-2.18,1.25-2.7,1.25-7.17,0-.42,1-6.33,1-7.58,0-.62-.11-1-.31-1a20.1,20.1,0,0,0-2.18,1.87l.1.83c-.1.21-1,.42-1.56.52-.1.31-5.81,7.06-9,8.1-.83.31-1.66,2.8-1.66,3a15.61,15.61,0,0,1-4.16,1.77c-2.49,0-5.4-5.09-5.4-7.48C49.2,220.44,49.1,219.61,49.1,219.4Zm66.25,7c.21,0,3.85-.83,4.26-.93.73-.11,3.74-.21,4.16-.63s3.11-1.24,3.32-1.55c2.18-2.91,2.29-8.42,2.39-12.15,0-.73.31-1.77,1.45-1.77s1.15.1,2,3c.1.42,1.24,2.18,1.35,2.6s.2,2.8.31,3.32a16.63,16.63,0,0,0,1.55,3c1,.42,1,2.18,1,2.7,0,3.53-.93,4.05-3.32,5.4-3,1.77-3.32,2-5,2-.63.1-4.05,1-4.16,1-1.35,0-14.43-.42-14.54-.42-1.35-.21-7.06-1.14-8.1-1.66s-4-1.66-4.46-2.29c-1.56-2-3.64-4.77-3.74-4.88-.83-3.32-.94-3.74-1.46-4.67.11-.83.31-4.78.31-5.4,0-.21-.51-7-.51-8.1a21.75,21.75,0,0,1,.1-2.6,10.94,10.94,0,0,0,.41-1.45c0-.21-.41-.83-.41-1,0-.93.31-8.2.31-9.76,0-1,.94-5.61.94-6.54,0-.63-.84-3.33-.84-3.85,0-.1.32-3.32.32-4a81.43,81.43,0,0,0-.21-8.31,14.54,14.54,0,0,0-1.66-2.9c-.31-.11-.31-.11-.31-.21,0-1,.2-4.67,1.55-4.67s1.87.2,5.51,2.18c.21.2,1.66.72,1.87.93a5.87,5.87,0,0,1,2.07,4.88,6.45,6.45,0,0,1-.52,2.81c0,.1-.72,1.45-.83,1.66a17.57,17.57,0,0,0,.21,2.28c0,1.14-2.18,7.27-2.18,7.48,0,.83,1,3.12,1,3.95a49.69,49.69,0,0,1-.31,5.81c-.11.63-1,3.12-1,3.74,0,.31.31,2,.31,2.29,0,.93-.93,12.77-.93,15.26V215c0,.42.52,2.81.62,3.22a34.58,34.58,0,0,0,2.8,5.19,2.39,2.39,0,0,0,1.25.52c.21,0,1.25-.2,1.25-.1.1.73.1.83.83.93a6.36,6.36,0,0,0,.93.42,9.65,9.65,0,0,0,4.68,1c1.34,0,3.11-.21,4.46-.31A2,2,0,0,0,115.35,226.36Zm-13.5-36.55c1.87-.32,2-.42,3.53-1.87.52-.42,2.81-2.08,3.22-2.5,3.33-3.11,5.09-4.67,6.13-6.54a39.1,39.1,0,0,0,2.7-4.26c.31-.83.21-5.19.94-5.71a8.47,8.47,0,0,1,.93-1.14,3.82,3.82,0,0,1,2.49-.93,2.51,2.51,0,0,1,2,.72c.31,1.14,2.18,6.65,2.18,7.17,0,2.18-2.49,5.81-3.33,6-.1,0-.1.31-.2.52-.31.31-1.35,1.77-1.67,2-.62.52-4,3-4,3.22v.42c.1.31-1,.21-1.15.31a3.5,3.5,0,0,1-.62.62l-.21.52a4.88,4.88,0,0,0-4.26,2.29c-.93,1.35-6.23,2.59-8.62,2.8a.72.72,0,0,1-.72-.52S101.13,190,101.85,189.81Z" transform="translate(-0.53)"/><path d="M75.48,320.87a.69.69,0,0,1,.72.62c0,.21-.31,1.35-.31,1.56,0,.41.52,2.18.52,2.49,0,1-1.14,1.56-2.18,1.56s-1.25-.21-2.91-2.18c-.21-.21-1.14-.52-1.24-.73a8.51,8.51,0,0,1-1.15-3.43c-.93-5.81-2-19.42-2-23.15v-3.33c0-.41-.42-2.08-.42-2.39S67,286.6,67,286s-.73-3.22-.73-3.84.94-3.84,1.25-3.94a.6.6,0,0,1,.42-.11c.2,0,.72.73.83.83A23.49,23.49,0,0,1,71,281.09a30.14,30.14,0,0,0,2.6,2.7,4,4,0,0,1,.52,2.18c0,.73-.94,3.64-.94,4.26,0,.31.52,1.56.52,1.87v3.95h.21c.41-1.14.41-1.46,10.9-2.29.83-.1,7.17-1.56,7.58-1.66a108.93,108.93,0,0,0,21.6-3.84c.63-.1,3.22-1.77,3.85-1.77.41,0,7.79,2,7.79,4.88,0,2.29-1.56,4.16-2.91,4.16-.31,0-5-1.14-6-1.14-.52,0-3.22.52-3.74.52-.21,0-.94-1-1-1a1.62,1.62,0,0,1-.83.41,3.05,3.05,0,0,1-1,.11c-.73,0-3.84,0-3.84,1.14a6.63,6.63,0,0,0,.62,1.87,7.62,7.62,0,0,1,.52,2.7,114.78,114.78,0,0,1-3,18c-.21.63-.63,3.53-.94,3.85-.72.83-1.56,2.07-1.87,2.49-1.35,0-4.67,1.45-4.67,2.49a.58.58,0,0,0,.52.62,42.8,42.8,0,0,1,4.26-1c2.59-.42,4.46-.63,20.87-2.5.73-.1,3.74-.62,4.36-.62,1.46,0,3.53,1.56,4.68,2.39.52.41,3.32,1.66,3.73,2.08a2,2,0,0,1,.63,1.45,3.22,3.22,0,0,1-2.18,3.12c-.32.2-1,1-1.25,1.14a1.84,1.84,0,0,1-.73.1c-1.24,0-6.12-1.87-7.06-2.18-.52-.21-2.59-.21-3-.41-.73-.63-.83-.73-1.14-.73-1,0-8.1.1-9.14.21-1.77.2-5.09.41-6.13.52a18.52,18.52,0,0,1-3.63-.42,5.85,5.85,0,0,0-1.66-.73c-.52,0-8.21.73-9.35.83-2.08.32-2.91.52-3.74.63-.31.1-2.7.62-2.8.62a21.18,21.18,0,0,0-3.64.21,120.82,120.82,0,0,1-12.88,2c-.41,0-2.39.21-2.8.21-.83.21-4.57,1.45-5.5,1.56s-2.91.41-3.74.41c-2.5,0-3.74-1.14-6-3.11-.31-.21-1.55-1.15-1.76-1.35a3.73,3.73,0,0,1-.63-2.08c0-1.35.94-1.56,1.15-1.56.41,0,3.32,1.35,3.94,1.35s2.6-.73,3-.73c3.94,0,4.36,0,6.33-.1.42,0,2.49.52,3,.52l2.91-.21a19.3,19.3,0,0,1,2.28-.62c.11,0,1.67.41,1.67.41.2,0,1.55-.31,1.86-.31,2.6,0,9.35-.93,11.32-1.24,7.48-1,8.42-1.25,9.77-2.18,3.22-2.18,3.84-7.07,4.15-10.18,0-.62,1-3.33,1-3.95,0-1.56.42-8.51.42-10a2.67,2.67,0,0,0-.73-2.28,23.71,23.71,0,0,1-.83-2.6c-.11-.21-.42-.21-.52-.21s-2.29.42-2.6.42-2,.83-2.28.83c-.11,0-1.46-.42-1.56-.42s-.62.84-.83.94c-1.46,1-2.18,1.14-5.09,1.35-.42,0-2.8,1.14-3.32,1.14a31.78,31.78,0,0,1-5.72-1.76c-1.86-.11-2.07-.11-2.18-.21s-.41-1.56-.62-1.56,0,1.56-.1,1.66A4.82,4.82,0,0,0,73.4,300a6,6,0,0,0,.73,3.22,1.15,1.15,0,0,1,.2.63c0,.2-.2,3.22-.2,3.84,0,1.14.31,6.13.31,7.06s-.21,5.5-.11,6.44A3.71,3.71,0,0,1,75.48,320.87Zm-2.6-44.66c2.28,0,9.45-3.22,10.59-3.74,1.46-.72,7.79-4.25,9.14-4.77a12.91,12.91,0,0,0,1.56-.73c.31-.21,1.56-1.56,2-1.66.94-.11,1-.11,1-.31v-.42c0-.21.83-.83.83-1,0-1.66,0-4.36.94-4.36.1,0,6.43,2.39,6.54,2.39.52.83,2.28,2.91,2.28,3.53,0,1.66-.72,2.08-3.42,4a25,25,0,0,1-2.81,1.77,26.89,26.89,0,0,1-3.11,1c-1,.32-5.3,2.6-6.23,2.91a66,66,0,0,1-15.27,3.43c-.62,0-4.05.83-4.36.83-.52,0-1.25-2.29-1.14-2.39C71.63,276.21,72.46,276.21,72.88,276.21Z" transform="translate(-0.53)"/><path d="M71.32,408.83c.94-1,3.53-3.53,4.47-4.88a11.32,11.32,0,0,0,1-1c1-1.45,6.12-7.69,6.75-9.24.1-.21,1.14-2,1.24-2.18,0-.63-.83-.83-1.24-.83-.83,0-4.16,1.86-4.88,1.86-2,0-5-2.9-5-3.84s.42-1,3.53-1.35c1.56-.21,8.72-1.14,10.49-2,1.56-.62,3.32-5.61,3.32-7v-2.8a2.33,2.33,0,0,1,1.77-.73c1.66,0,4,4.57,4,4.78,0,.62-1,3.74-1,3.94a1.52,1.52,0,0,0,1.56,1.15c.2,0,10-1.67,11.83-2.08a21.66,21.66,0,0,1,6.86-.94c3,0,4.26,3.33,4.26,4.26a2.38,2.38,0,0,1-2.39,2.18h-5c-.1,0-.31-.62-.41-.62s-1,.31-1.15.31c-1.34,0-7,.73-8.2.94-.41,0-2.6.52-3.11.52s-2.81-1-3.33-1c-.31,0-3.22,1.45-4,1.76-.2.31-.72,1.77-.83,2l-2,1.36c-.1.2-5.19,8.2-5.92,9.76a52.76,52.76,0,0,1-3.63,4.77c-.21.11-1.25,1.35-2,2.08-.1.11-1.14.73-1.14.94s2.6.1,2.91.31a5.39,5.39,0,0,1,1.35,2.91c0,.72-.1,3.73-.1,4.36,0,.21-.32,1-.32,1.24a1.54,1.54,0,0,1,.42.94c0,.41-.42,2.07-.42,2.39a7.32,7.32,0,0,0,.32,2.18c0,.1.31.52.31.62,0,.31-.52.62-.73.73a3.91,3.91,0,0,0,2.39,3.22c.41-.21.62-.42.83-.42,5.09-.73,5.4-.73,6-1.35.31-.31.52-3.43.52-3.63,0-1.25-.72-1.46-2.8-2-1.14-.31-2.91-1-2.6-2.39a11.26,11.26,0,0,1,3.84-1.24c1-.21,2-.31,2-2,0-2.81,0-3.64-2.18-3.64a10.85,10.85,0,0,1-2.7-.21,2.13,2.13,0,0,1-1.15-1.45c0-.94,1.46-1.35,3.12-1.66,2.28-.42,2.8-.52,2.8-3.33V404c0-.42.32-2.6.32-3,0-.63-1.25-3.12-1.25-3.74A1.83,1.83,0,0,1,92,395.64c.72,0,5.71,3.64,5.71,5.82,0,.72-.31,3.73-.31,4.36s.1,1.55,1.56,1.55a33.92,33.92,0,0,0,4.25-1.24c.84-.21,4.16-.73,4.26-.73a4.59,4.59,0,0,1,2,.42c.62.41,4.15.83,4.77,1,2.29.72,2.29.93,2.5,1.35a2.41,2.41,0,0,1,1.34,1.87c0,.51-2.38,10.59-2.49,12.66-.41,5.41-2.7,7.69-3.53,7.79-.21.63-.31.73-1.35,1-.21,0-.52.52-.72.52-.63,0-3.12-4.15-3.12-5.09a18.25,18.25,0,0,1,1.45-2.9c.42-1.15,2.39-8.62,2.39-11a3.18,3.18,0,0,0-3.53-3.22c-1.35,0-7.37,1-8.62,1.14-.1.1-2.39.93-2.49,1.25-.31.41-.52,3.94-.62,4.67,0,.1.31.52.51.52s3.95-.94,4.78-.94c2,0,3.33,1.35,3.33,2.08,0,1.56-4.05,2.18-4.89,2.29-2.9.31-4.46.52-4.46,2.8,0,.93.1,3.63,1.24,3.63.52,0,6.44-.93,7.59-.93a1.5,1.5,0,0,1,1.55,1.45c0,.32-.1.73-.31.83s-.83.42-.83.52c0,.32-1.24.63-1.66.73-.21,0-.94.52-1,.52-.73.21-3.94.83-4.46,1.14a2.24,2.24,0,0,0-1.25,2.08c0,3.22,1.14,6.23,13.5,6.23,11.42,0,18-2.28,18.8-4.88.41-1.25,1.66-7.06,2.18-8.2a1.24,1.24,0,0,1,1-.84c.72,0,.83.52,1.55,4.78,0,.42.52,3.64.94,3.95,1.76,1.35,2,1.45,2,2.59a6.42,6.42,0,0,1-3.22,5.3c-1.14.62-6.44,2.29-8.41,2.29-8.41,0-11.11-.21-15.27-.52-.72,0-3.84,0-4.46-.11-1.45-.31-8-1.56-10.8-5a9.68,9.68,0,0,1-2.18-4.47c0-.83,0-2.18-1.14-2.18a19.57,19.57,0,0,0-2.6,1,3.77,3.77,0,0,1-1.56.21,27.48,27.48,0,0,0-3,0c-.52.1-2.91,1.14-3.43,1.14-3.63,0-3.63-11.63-3.63-16.51a26.83,26.83,0,0,1,.41-4.78,6.66,6.66,0,0,0,.63-1.25c0-.2-.73-.41-.94-.52-.21.42-1.66,1-1.87,1.25-4,3.84-4.46,4.26-7.48,4.67A19.88,19.88,0,0,1,64.36,419a2.3,2.3,0,0,1-1.35-.52c-.31-.31-.93-2-1.24-2-.11,0-.11.63-.11,1.15,0,.1-.52.52-.52.62,0,1.56-2.07,6.13-2.38,6.75s-6.13,13.29-7.48,14.23a10.25,10.25,0,0,1-2.7,1.56l-.21.31c-.1.1-.83.52-.93.62l-.21.31c-.21,0-.94.21-1,.11a20.11,20.11,0,0,1-1.25-3.74c0-.42,1.56-1.25,1.67-1.56,1-1.56,4.67-9.76,5-10.28.1-.21.52-1.56.62-1.77s1.25-1.56,1.35-1.76a17.75,17.75,0,0,1,2.18-5.3c.11-.31.84-3.32,1.15-3.84.62-1.35.72-1.56.72-2.18,0-1.77.21-2.18,1.87-6.65,0-.31.11-1.25.11-1.56a8.15,8.15,0,0,1,.62-1.66c.21-1.25,1.56-7,1.66-8.2.11-1.67.11-3.43.11-4.57,0-.52-.32-2.7-.32-3.22,0-.31.83-1.77.83-2.08a6.44,6.44,0,0,0-.41-2c-.94-1.25-1.14-1.77-1.14-2.08a20.41,20.41,0,0,1,1.66-3.95,1.65,1.65,0,0,1,1.24-.41c.73,0,2.08.21,2.08,1.35s0,1.14.83,1.76c1.56,1,1.56,1.87,1.66,3.64,0,.83.84,5.4.84,5.71,0,1.25-3.33,16.62-4.89,20.15-1.14,2.59-1.14,2.91-1.55,6.44A6.14,6.14,0,0,0,62,416.1a.43.43,0,0,0,.41.41,17.1,17.1,0,0,0,3.12-1.76C66.13,414.23,70.91,409.35,71.32,408.83Zm16.41-39.67c.21,0,1,.21,1.14.1,1.25-.41,1.25-.62,1.66-2.39a24.7,24.7,0,0,0,.84-2.7,4.3,4.3,0,0,0-1.15-2.8c-1.45-1.25-1.55-1.35-1.55-2.6,0-.31.83-2.7,2.8-2.7,1.24,0,1.87.42,3.84,1.56a30.15,30.15,0,0,1,3.22,1.77l.83.62a7.75,7.75,0,0,1,.83,2.18c0,.21-.72,1-.83,1.25-.31.72-2.07,4.25-2.07,4.57a1.2,1.2,0,0,0,.93,1,22.93,22.93,0,0,0,2.91-.83c.83-.1,6.12-.72,6.64-.72,1.46,0,5.51,0,6.75-1.25,1.56-1.56,1.77-1.77,2.7-1.77,1.87,0,3,.73,5.09,2.19.21.1,1.25.51,1.35.72a3.74,3.74,0,0,1,.42,1.77,5.36,5.36,0,0,1-1.56,2.8c-.83,0-4.47.42-5.19.42-.21,0-1.77-.42-2.29-.52a29.41,29.41,0,0,1-2.9.52c-2.08.2-11.12,1.35-13,1.35a8.07,8.07,0,0,1-4.67-1.25,10.78,10.78,0,0,0-2.08-.41c-1.24,0-1.24.83-1.14,1.35a73.8,73.8,0,0,1-8.31.93,24.33,24.33,0,0,1-2.59.62c-.83,0-1,.11-3,1.46a1.18,1.18,0,0,1-.52.1c-.94,0-3.33-.31-4.16-1a4.11,4.11,0,0,0-2.7-1.24,4.68,4.68,0,0,1-.83-1.77,3.73,3.73,0,0,1,3.53-2.18c.31,0,1.87.73,2.18.73s4.68-.73,5.51-.73a20.34,20.34,0,0,0,5.19-1A14.47,14.47,0,0,0,87.73,369.16ZM128,412.88c-1,0-1.24-.31-2.9-3.32-.11-.11-4.05-1.35-4.78-1.87-.93-.52-4.78-3.64-5.61-4.26a42.54,42.54,0,0,1-6.65-5.09,1.88,1.88,0,0,0-1.66-.83h-1.24c0-.62-.11-.62-.63-.83-.2-.1-2.9-2.39-2.9-3,0-.94,2.07-1.46,3.42-1.46,2.81,0,3.85,1,5.61,2.81a25.19,25.19,0,0,1,2.6.72,45.46,45.46,0,0,1,4.67,1.87c.31.11,5,3.33,6.13,3.64.73.21,3.63,2.8,4,3.11,3.11,1.77,5.71,4.05,5.71,7.79,0,.63,0,1.56-1.45,1.56a4.23,4.23,0,0,1-2.18-1.14A16.34,16.34,0,0,1,128,412.88Z" transform="translate(-0.53)"/><path d="M191.9,429.89c.27.28.27.89,0,1.75a23.59,23.59,0,0,0-.39,4.17,1.93,1.93,0,0,1-.7,1.36,2,2,0,0,1-1.81.39c-.35,0-1.16-.1-2.44-.1s-2.4,0-3.48.1a9.94,9.94,0,0,0-1.86.25,5,5,0,0,0-.58,1.54,14.87,14.87,0,0,1-1.82,3.57,10.58,10.58,0,0,1-2.51,3,3.19,3.19,0,0,1-1.67.57,1.18,1.18,0,0,1-1.19-.64,2.28,2.28,0,0,1,.11-1.43A3.61,3.61,0,0,1,175,443a6,6,0,0,0,1.9-1.57,6.6,6.6,0,0,0,1.58-2.57,11.33,11.33,0,0,0,.74-3.36,25.64,25.64,0,0,0,.08-2.64,6.63,6.63,0,0,0-.31-2.07.89.89,0,0,1-.2-.82c.08-.29.39-.5.85-.64A13.19,13.19,0,0,1,183,429a46.36,46.36,0,0,1,6,.25C190.66,429.42,191.63,429.6,191.9,429.89Zm-16.71-.68a2.74,2.74,0,0,1-1.28-1,1.07,1.07,0,0,1-.12-1.39,2.48,2.48,0,0,1,1.86-.71,14.84,14.84,0,0,0,4.1-1.47,11.79,11.79,0,0,0,4.37-3.28c.39-.57.74-.82,1.09-.82a1.59,1.59,0,0,1,1.16.57,15,15,0,0,0,3.71,2.46,9.52,9.52,0,0,1,3,2c.38.57.46,1,.23,1.35a1,1,0,0,1-1.08.43,7.38,7.38,0,0,1-1.94-1.14,22.63,22.63,0,0,0-3.67-2.18,1.78,1.78,0,0,0-2.09.22,35,35,0,0,1-7.31,4.42A2.92,2.92,0,0,1,175.19,429.21Zm6.26,6.18a.43.43,0,0,0,.31.46c.24,0,.58,0,1.05,0,1.58-.11,3.21-.15,4.72-.11a1.73,1.73,0,0,0,1.66-.86,7.3,7.3,0,0,0,.19-.93c-.69,0-2,0-3.79,0a40.91,40.91,0,0,0-4.1.14Zm8.05-2.9-.12-1c-.07-.47-.85-.72-2.2-.79-1.7-.07-3.21-.07-4.45,0a1.23,1.23,0,0,0-1,.79,4,4,0,0,0-.16,1c.7,0,2.17.11,4.3.11C187.6,432.6,188.84,432.53,189.5,432.49Zm-5,14.07a2.52,2.52,0,0,1-1.89,0c-.43-.29-.7-1.18-.78-2.68,0-.89-.11-1.61-.11-2.18a2.83,2.83,0,0,1,.42-1.79,1.42,1.42,0,0,1,1.16-.42c.47,0,1,.1,1.36.1.89,0,2.78-.1,5.53-.14a4.85,4.85,0,0,1,2.47.43.94.94,0,0,1,.58,1.28,5.12,5.12,0,0,0-.23,1.43v.93a4.6,4.6,0,0,1-.31,1.61,2.64,2.64,0,0,1-1.2,1.18,3.2,3.2,0,0,1-1.89.21,17.6,17.6,0,0,0-3.06-.14A13.08,13.08,0,0,0,184.47,446.56ZM186,426.39c1.47,0,2.36,0,2.63,0a.77.77,0,0,1,.81.36,1.25,1.25,0,0,1-.08.93c-.15.28-.46.35-.92.32a16.89,16.89,0,0,0-2.63-.14c-1.4,0-2.33,0-2.67,0s-.74-.07-.85-.36a1.22,1.22,0,0,1,0-.92c.11-.29.42-.4.85-.33A19.19,19.19,0,0,0,186,426.39Zm3.94,17.71c.24-.11.31-.57.31-1.32a2.17,2.17,0,0,0-.27-1.36,8.7,8.7,0,0,0-2.7-.21,8.37,8.37,0,0,0-2.79.28c-.15.07-.19.54-.19,1.32a3.71,3.71,0,0,0,.15,1.36,3.55,3.55,0,0,0,1.78.11c1-.08,1.86-.11,2.52-.11A4.51,4.51,0,0,0,189.92,444.1Zm14.2-22.82a1.45,1.45,0,0,1,1.78.39,2.46,2.46,0,0,1,.5,2.33,25.1,25.1,0,0,0-.38,4.39c0,1.6.07,4.07.23,7.28a27.6,27.6,0,0,1-.12,6.18,7.44,7.44,0,0,1-2.28,3.82,7.34,7.34,0,0,1-4,1.68,4.11,4.11,0,0,1-2.44-.68c-.85-.54-1.28-1-1.24-1.5s.43-.75,1.12-.75,1.43-.07,2.17-.14a6.38,6.38,0,0,0,2.94-.93,3.36,3.36,0,0,0,1.47-2.22c.27-1.25.11-7.17-.62-17.78C203.27,422.28,203.54,421.57,204.12,421.28Zm-7.16,5a2.68,2.68,0,0,1,1.71.61.76.76,0,0,1,.27.82,8.6,8.6,0,0,0-.2,1.61c0,.67,0,1.71,0,3a26.07,26.07,0,0,0,.23,3.36c.11,1,.07,1.53-.16,1.71-.73.57-1.43.43-2.05-.43a1.39,1.39,0,0,1-.27-.85c0-.4,0-1.65,0-3.68s-.11-3.75-.19-4.93C196.23,426.74,196.46,426.35,197,426.28Z" transform="translate(-0.53)" fill="#c1272d"/><path d="M174.53,474.56c-.35-.47-.12-1.07.62-1.64a5.73,5.73,0,0,1,2.94-1l4.06-.11-.85-.79c-.62-.5-.93-1-.93-1.32a1,1,0,0,1,.58-.89,2.35,2.35,0,0,1,1.35-.18,1.58,1.58,0,0,1,1.13.54,1.74,1.74,0,0,1,.38.85,6.09,6.09,0,0,0,.51,1.75c.89,0,1.93,0,3,0a6.78,6.78,0,0,1,0-.9c0-.42-.07-.82-.07-1.1a5.23,5.23,0,0,0-.16-1.07c-.07-.82.2-1.32.82-1.47a1.43,1.43,0,0,1,1.54.61,2.52,2.52,0,0,1,.31,2,3,3,0,0,0-.11.79v1c0,.07,0,.15,0,.22h2.24v-.9c0-.46,0-.89,0-1.21a8.14,8.14,0,0,0-.15-1.21c0-.86.27-1.4.93-1.5a1.49,1.49,0,0,1,1.58.64,2.71,2.71,0,0,1,.27,2.11,8.37,8.37,0,0,0-.08.85c0,.43,0,.86,0,1.11a1.72,1.72,0,0,0,0,.18c.81,0,1.62,0,2.36,0a.51.51,0,0,1,.15-.21c1-1.75,1.74-2.89,2-3.21.39-.54.89-.61,1.55-.18a1.72,1.72,0,0,1,1,1.36,1.39,1.39,0,0,1-1,1.17,15.91,15.91,0,0,0-1.78,1c-.08,0-.15,0-.15.07l5.18.14c2,.07,3.37.07,4.18,0s1,.36.54,1a6.31,6.31,0,0,1-1.74,1.86,2.35,2.35,0,0,1-2.32.29,22.41,22.41,0,0,0-6.89-1.43,13.86,13.86,0,0,0-1.7-.11l.12.22a1.66,1.66,0,0,1-.31,2.32c-.43.25-1,.64-1.74,1.14h4.75a2.69,2.69,0,0,1,1.63.36.76.76,0,0,1,.12,1.1,1.94,1.94,0,0,1-1.82.47h-5.8a4.11,4.11,0,0,0-.31,1.6h4.87a4,4,0,0,1,2.4.36.76.76,0,0,1,.27.93c-.12.36-.62.57-1.51.57-2.24-.07-4.25-.14-6-.14v1.75h8.54c1.05,0,1.55.21,1.47.57s-.46.78-1.16,1.21a3.78,3.78,0,0,1-2.43.32,45.13,45.13,0,0,0-6.42-.17c.54.21,1.31.57,2.28,1a29.47,29.47,0,0,0,5.57,1.58,39.66,39.66,0,0,0,6.23.71c.46,0,.65.25.61.57s-.85.89-2.28,1.79-2.55,1.1-3.32.75c-1.36-.58-3.37-1.65-6-3l-3.13-1.75c0,.86,0,1.82.07,2.86a4.2,4.2,0,0,1-.42,2.18,1.19,1.19,0,0,1-1,.75c-.35,0-.73-.4-1-1.18a9.38,9.38,0,0,1-.31-3.64v-.54a22.68,22.68,0,0,1-4.49,2.68,19.37,19.37,0,0,1-4.84,1.6c-1.5.22-2.59.15-3.13-.25a.9.9,0,0,1-.46-1.24c.19-.43,1-.79,2.16-1a27.4,27.4,0,0,0,6.23-1.58,17.42,17.42,0,0,0,4-2.24,22.09,22.09,0,0,0-5.73.75c-1.51.39-2.44.39-2.78,0a1.21,1.21,0,0,1,0-1.43,3,3,0,0,1,1.93-1.11,10.59,10.59,0,0,1,2.75-.14c.38,0,1.89.07,4.48.07,0-.57,0-1.18,0-1.78a41.22,41.22,0,0,0-5.57.35c-1.12.22-1.89.08-2.13-.39a.89.89,0,0,1,.24-1.25,4.3,4.3,0,0,1,2.63-.5h4.83c0-.6-.15-1.14-.19-1.5-.23,0-.5,0-.7,0-2.51.07-4.41.18-5.61.28-.89.08-1.51-.1-1.66-.5a1.58,1.58,0,0,1,.58-1.46,2.44,2.44,0,0,1,2.17-.57c.42.07,1.16.14,2,.21a3.05,3.05,0,0,0-.58-.64,6.39,6.39,0,0,0-1-.79.74.74,0,0,1-.27-1.07c.23-.43.7-.57,1.47-.57a2,2,0,0,1,1.66.72c0,.1.16.32.28.6s.19.57.27.86a4.55,4.55,0,0,1,.38.93h3.06l.93-1.36a21,21,0,0,0,1.2-1.93l.31-.42c-1.9,0-4.11,0-6.5.1A67.2,67.2,0,0,0,176.89,475C175.69,475.2,174.92,475.06,174.53,474.56Z" transform="translate(-0.53)" fill="#c1272d"/><path d="M145.82,423.62c2.32-.06,5.24-.06,8.7,0l7.6.11c2,0,3.5.08,4.32,0s1,.28.54.88a6.75,6.75,0,0,1-1.79,1.61,2.64,2.64,0,0,1-2.35.24,21.88,21.88,0,0,0-5.57-1c-2-.11-4.71-.11-7.92,0a62,62,0,0,0-8.6.8c-1.28.22-2.1.08-2.46-.36s-.14-.94.68-1.41a6.16,6.16,0,0,1,3-.85C142.25,423.7,143.54,423.64,145.82,423.62Z" transform="translate(-0.53)" fill="#c1272d"/><path d="M153.6,448.3a3,3,0,0,1-.82-2.4,14,14,0,0,1,.6-3.48,6.53,6.53,0,0,0,.4-2.37c-.15-.14-1.47-.11-3.93.05a13.88,13.88,0,0,1-1.46,4.2,10.51,10.51,0,0,1-2.71,3,17.18,17.18,0,0,1-4.43,2.56,5.07,5.07,0,0,1-3,.5,1.14,1.14,0,0,1-1-1c0-.47.68-.94,2.14-1.27a14.74,14.74,0,0,0,2.89-1.19,11.06,11.06,0,0,0,3-2.26,8.71,8.71,0,0,0,1.81-3.37,9.36,9.36,0,0,0,.25-1,49.19,49.19,0,0,0-5,.74c-.93.19-1.5.11-1.75-.33s0-.86.64-1.3a4.19,4.19,0,0,1,2.36-.58c1,0,2.39,0,4.06-.13.08-.72.18-1.52.25-2.35a15.56,15.56,0,0,0-.32-2.62c-.14-.61.07-1,.61-1.14a1.89,1.89,0,0,1,1.64.34,1.28,1.28,0,0,1,.75,1.29,10.73,10.73,0,0,0-.14,1.49,26.54,26.54,0,0,1-.36,2.82,35.55,35.55,0,0,0,4.75-.58,2.46,2.46,0,0,1,1.89.41c.6.42,1,.78,1,1.08s-.22.58-.72.83a2.14,2.14,0,0,0-1.07,1.32,22.45,22.45,0,0,0-.78,3.78,1.77,1.77,0,0,0,.67,1.55,7.5,7.5,0,0,0,2.89,1.05,19,19,0,0,0,4.14.22,16,16,0,0,0,4.57-1c1.46-.52,2.1-.47,1.93.14a5.56,5.56,0,0,1-1.79,2.24,6.35,6.35,0,0,1-3.17,1.49,19.64,19.64,0,0,1-6-.86C155.81,449.52,154.17,448.88,153.6,448.3Z" transform="translate(-0.53)" fill="#c1272d"/><path d="M145.75,459a.8.8,0,0,1,.25-.77,1.46,1.46,0,0,1,1.14-.09,1.56,1.56,0,0,1,1.21.94,1.39,1.39,0,0,1,0,1.36,9.11,9.11,0,0,0-1,1.68,8.23,8.23,0,0,1-1.61,2.18A22.65,22.65,0,0,1,143,466.8a18,18,0,0,1-3.42,2.21,2.68,2.68,0,0,1-2.18.19c-.71-.22-1.07-.58-1.14-.94a.93.93,0,0,1,.64-.94,31.06,31.06,0,0,0,4.25-2.23,17.66,17.66,0,0,0,2.6-1.8,7.56,7.56,0,0,0,1.36-1.6,4.42,4.42,0,0,0,.6-1.49A5.49,5.49,0,0,0,145.75,459Zm6.85-.5c-.07-.63.14-1,.64-1.1a2.94,2.94,0,0,1,1.86.5,1.94,1.94,0,0,1,.92,2,3.05,3.05,0,0,0,.72,1.6,13.35,13.35,0,0,0,3,2.62,30.78,30.78,0,0,0,4.93,2.82,19.81,19.81,0,0,0,3.92,1.49c1,.19,1.18.55.5,1a8.46,8.46,0,0,1-3.82.83,5.46,5.46,0,0,1-4.46-1.74,73.24,73.24,0,0,1-7.49-8.2A4,4,0,0,1,152.6,458.46Z" transform="translate(-0.53)" fill="#c1272d"/><path d="M162.91,476.5c-.07.27-.43.6-1.07.93a4.17,4.17,0,0,1-2.25.25,33.32,33.32,0,0,0-3.57-.22l-.18.72a15.76,15.76,0,0,1-2.49,3.51c2,.05,3.32.13,4,.22l1.57.44a1.89,1.89,0,0,1,1,.58.91.91,0,0,1,.11,1,5.92,5.92,0,0,0-.39,1,7.35,7.35,0,0,0-.9,3.51l2.86.11,6,.22c.82,0,1.32.16,1.39.36s-.18.6-.82,1.13a4.37,4.37,0,0,1-1.82,1.1,4.64,4.64,0,0,1-2.29-.08,22.22,22.22,0,0,0-3.85-.91,75.49,75.49,0,0,0-7.53-.61c-1.89,0-4.1.14-6.45.3a32.14,32.14,0,0,0-6.07,1,5.52,5.52,0,0,1-2.71.3.87.87,0,0,1-.64-.82c0-.36.32-.83,1-1.27a4.29,4.29,0,0,1,2.28-.78c1.61-.05,3.54-.11,5.64-.11a2.39,2.39,0,0,1,.32-.49c1.39-1.83,2.64-3.43,3.71-4.67-1.32,0-2.49.06-3.32.11-1.6.08-2.56-.05-2.89-.36s0-.8.86-1.27a5.15,5.15,0,0,1,3.5-.33c.93.11,2,.25,3.14.31a23,23,0,0,0,1.82-2.43,4.94,4.94,0,0,0,.39-1.25,1.35,1.35,0,0,1,.11-.44c-.36,0-.68,0-1,0a33.79,33.79,0,0,0-6.67.63c-1.39.31-2.25.31-2.57,0a.84.84,0,0,1,0-1.11,2.79,2.79,0,0,1,1.79-.85,10.74,10.74,0,0,1,2.53-.11c.35,0,1.78.05,4.14,0h10.09C162.52,476.05,163,476.22,162.91,476.5Zm-5.78,7.2a3.2,3.2,0,0,0-1.36-.52c-1.07-.09-2.24-.11-3.53-.11a30.15,30.15,0,0,0-2.64,3.31,13.8,13.8,0,0,0-1.21,1.9h2.1l5.53.06c.4-1.13.9-2.35,1.43-3.59A.91.91,0,0,0,157.13,483.7Z" transform="translate(-0.53)" fill="#c1272d"/><line x1="128.67" y1="448.35" x2="128.67" y2="462.89" fill="none" stroke="#c1272d" stroke-linecap="round" stroke-miterlimit="10" stroke-width="2.33" style="mix-blend-mode:multiply"/><line x1="175.17" y1="414.03" x2="137.99" y2="414.03" fill="none" stroke="#c1272d" stroke-linecap="round" stroke-miterlimit="10" stroke-width="2.33" style="mix-blend-mode:multiply"/><path d="M214.71,471.66V423.35a9.35,9.35,0,0,0-9.32-9.32H184.71" transform="translate(-0.53)" fill="none" stroke="#c1272d" stroke-linecap="round" stroke-miterlimit="10" stroke-width="2.33" style="mix-blend-mode:multiply"/><path d="M129.21,490.21a9.34,9.34,0,0,0,9.32,9.32h66.86a9.35,9.35,0,0,0,9.32-9.32V479" transform="translate(-0.53)" fill="none" stroke="#c1272d" stroke-linecap="round" stroke-miterlimit="10" stroke-width="2.33" style="mix-blend-mode:multiply"/><path d="M42.87,484.56a2.63,2.63,0,0,0,1.81-.71,5.13,5.13,0,0,0,.4-2.54V470.19l-.31-.4a2.62,2.62,0,0,0-.85-.81,3.16,3.16,0,0,0-1.05-.18v-.46h3.87L55.5,480.4V472a4.39,4.39,0,0,0-.55-2.69,2.64,2.64,0,0,0-1.62-.53v-.46h5.33v.46a2.47,2.47,0,0,0-1.72.71A4.64,4.64,0,0,0,56.5,472v13.28h-.39l-10-13.83v9.82a4.39,4.39,0,0,0,.55,2.69,2.56,2.56,0,0,0,1.58.56V485H42.87Z" transform="translate(-0.53)" fill="#231815"/><path d="M61.1,475.16a4.47,4.47,0,0,1,3.6-1.69,4.67,4.67,0,0,1,3.64,1.6,6.14,6.14,0,0,1,1.44,4.26,6.75,6.75,0,0,1-1.4,4.26,4.34,4.34,0,0,1-3.61,1.81,4.53,4.53,0,0,1-3.6-1.73,6.47,6.47,0,0,1-1.48-4.36A6.27,6.27,0,0,1,61.1,475.16Zm1.77-.31a5.42,5.42,0,0,0-1.11,3.87,9.44,9.44,0,0,0,.89,4.09,2.74,2.74,0,0,0,2.48,1.89,2.09,2.09,0,0,0,1.92-1.27,7.17,7.17,0,0,0,.67-3.32,9.64,9.64,0,0,0-.86-4,2.69,2.69,0,0,0-2.47-1.88A2,2,0,0,0,62.87,474.85Z" transform="translate(-0.53)" fill="#231815"/><path d="M70.93,484.62a2.52,2.52,0,0,0,1.35-.4,1.73,1.73,0,0,0,.34-1.29v-5.55a5.16,5.16,0,0,0-.21-1.75.75.75,0,0,0-.75-.52l-.29,0-.38.08v-.41l1.29-.5.92-.37c.37-.16.74-.33,1.14-.53a.08.08,0,0,1,.09.06,1.26,1.26,0,0,1,0,.26v2A9,9,0,0,1,75.82,474a2,2,0,0,1,1.37-.62,1.2,1.2,0,0,1,.92.38,1.3,1.3,0,0,1,.36.94,1.33,1.33,0,0,1-.27.85.83.83,0,0,1-.68.34,1.21,1.21,0,0,1-.85-.43c-.29-.28-.51-.43-.67-.43s-.58.23-1,.7a2.27,2.27,0,0,0-.56,1.43v5.56a2,2,0,0,0,.44,1.47,2.13,2.13,0,0,0,1.48.39v.4H70.93Z" transform="translate(-0.53)" fill="#231815"/><path d="M85.37,473.67v.88H83.1l0,7.1a5,5,0,0,0,.15,1.41,1,1,0,0,0,1,.85,1.24,1.24,0,0,0,.69-.2,3.81,3.81,0,0,0,.67-.67l.29.27-.24.37a3.81,3.81,0,0,1-1.22,1.22,2.57,2.57,0,0,1-1.25.36,1.75,1.75,0,0,1-1.77-1.3,5.85,5.85,0,0,1-.25-1.94v-7.47H80s-.07,0-.08-.07a.15.15,0,0,1,0-.1.29.29,0,0,1,0-.19l.31-.31a11,11,0,0,0,1.11-1.14q.33-.44,1.59-2.31a.49.49,0,0,1,.17,0s0,.08,0,.19v3Z" transform="translate(-0.53)" fill="#231815"/><path d="M86.94,484.68a1.81,1.81,0,0,0,1.19-.5,3.24,3.24,0,0,0,.29-1.72V470.64a2.57,2.57,0,0,0-.16-1c-.11-.21-.37-.32-.78-.32h-.24l-.26.05v-.45l1.2-.38,1-.33,1.06-.37,0,.09v7.56a7.63,7.63,0,0,1,1.24-1.31,3.43,3.43,0,0,1,2.1-.74,2.42,2.42,0,0,1,2.45,1.68,6.3,6.3,0,0,1,.36,2.33v5a3.44,3.44,0,0,0,.27,1.7,1.57,1.57,0,0,0,1.11.52V485H93v-.34a2,2,0,0,0,1.24-.51,3.33,3.33,0,0,0,.27-1.71v-5a4.43,4.43,0,0,0-.36-1.93,1.37,1.37,0,0,0-1.35-.74,2.57,2.57,0,0,0-1.68.69q-.81.69-.81.9v6.07a3.21,3.21,0,0,0,.29,1.73,2,2,0,0,0,1.23.49V485H86.94Z" transform="translate(-0.53)" fill="#231815"/><path d="M99.38,478.55H105v1.57H99.38Z" transform="translate(-0.53)" fill="#231815"/><path d="M106.68,484.56a2.78,2.78,0,0,0,1.66-.55,3.6,3.6,0,0,0,.34-2V471.07a2.87,2.87,0,0,0-.37-1.76,2.6,2.6,0,0,0-1.63-.51v-.46H113v.46a2.58,2.58,0,0,0-1.62.51,2.79,2.79,0,0,0-.38,1.76V476h6.9v-4.91a2.87,2.87,0,0,0-.37-1.76,2.57,2.57,0,0,0-1.63-.51v-.46h6.3v.46a2.6,2.6,0,0,0-1.63.51,2.87,2.87,0,0,0-.37,1.76v11.22a2.83,2.83,0,0,0,.37,1.76,2.87,2.87,0,0,0,1.63.51V485h-6.3v-.46a2.76,2.76,0,0,0,1.67-.54,3.8,3.8,0,0,0,.33-2v-4.9H111v5.2a2.75,2.75,0,0,0,.38,1.76,2.72,2.72,0,0,0,1.62.51V485h-6.3Z" transform="translate(-0.53)" fill="#231815"/><path d="M124,484.68a2.58,2.58,0,0,0,1.49-.45,3,3,0,0,0,.31-1.77v-5.87a4,4,0,0,0-.1-1.11.67.67,0,0,0-.7-.51.85.85,0,0,0-.23,0,6.31,6.31,0,0,0-.68.2v-.39l.48-.17c1.29-.47,2.2-.82,2.71-1.06a1.34,1.34,0,0,1,.39-.15.58.58,0,0,1,0,.19v8.84a3.19,3.19,0,0,0,.3,1.76,2.15,2.15,0,0,0,1.38.46V485H124Zm1.76-16.47a1,1,0,0,1,.82-.38,1.07,1.07,0,0,1,.81.37,1.31,1.31,0,0,1,.34.92,1.28,1.28,0,0,1-.34.9,1.08,1.08,0,0,1-1.63,0,1.32,1.32,0,0,1-.34-.9A1.35,1.35,0,0,1,125.75,468.21Z" transform="translate(-0.53)" fill="#231815"/><path d="M131.11,484.68a2.55,2.55,0,0,0,1.4-.46,2,2,0,0,0,.36-1.38v-12a3.54,3.54,0,0,0-.12-1.12.89.89,0,0,0-.9-.52,2.11,2.11,0,0,0-.33,0,4.22,4.22,0,0,0-.46.11v-.41c1-.29,2.19-.69,3.6-1.18a.09.09,0,0,1,.09.08,1.73,1.73,0,0,1,0,.32v14.76a2,2,0,0,0,.33,1.39,2.42,2.42,0,0,0,1.38.4V485h-5.37Z" transform="translate(-0.53)" fill="#231815"/><path d="M138.21,484.68a2.52,2.52,0,0,0,1.4-.46,1.92,1.92,0,0,0,.37-1.38v-12a3.54,3.54,0,0,0-.12-1.12.89.89,0,0,0-.9-.52,2.09,2.09,0,0,0-.34,0l-.46.11v-.41c1-.29,2.2-.69,3.6-1.18a.11.11,0,0,1,.1.08,2.21,2.21,0,0,1,0,.32v14.76a2,2,0,0,0,.34,1.39,2.38,2.38,0,0,0,1.37.4V485h-5.37Z" transform="translate(-0.53)" fill="#231815"/></g></g></g></svg>