<svg xmlns="http://www.w3.org/2000/svg" viewBox="0 0 322.34 63.02"><g id="Layer_2" data-name="Layer 2"><g id="design"><path d="M195.11,10.72H320.89a1.46,1.46,0,0,1,0,2.91H195.11a1.46,1.46,0,1,1,0-2.91Z" fill="#aa2025"/><path d="M1.45,10.72H155.74a1.46,1.46,0,0,1,0,2.91H1.45a1.46,1.46,0,0,1,0-2.91Z" fill="#aa2025"/><path d="M179.06,10.72h9.17a1.46,1.46,0,0,1,0,2.91h-8.92c-1.07.66-4.63,4.35-7.46,7.56a1.45,1.45,0,1,1-2.18-1.92C177.2,10.72,178.41,10.72,179.06,10.72Z" fill="#aa2025"/><path d="M179.92.54c8.39,0,11.66,5.15,12.77,7.75,2.56,6,.81,14-3.69,16.77a1.45,1.45,0,0,1-1.54-2.46c3-1.87,4.76-8,2.56-13.17C187.71,4,182,2.22,174,4.28a1.46,1.46,0,1,1-.72-2.82A27.33,27.33,0,0,1,179.92.54Z" fill="#aa2025"/><path d="M161.81,16.16a1.43,1.43,0,0,1,1.12.52c4.15,4.94,12.31,12.27,16.56,10.9a1.45,1.45,0,0,1,1.83.94,1.47,1.47,0,0,1-.94,1.83c-7.5,2.42-18.45-10.35-19.68-11.81a1.45,1.45,0,0,1,1.11-2.38Z" fill="#aa2025"/><path d="M179.06,20.09a1.42,1.42,0,0,1,1.11.51c3.56,4.23,21.44,19.93,30.89,40.35a1.47,1.47,0,0,1-.71,1.93,1.45,1.45,0,0,1-1.93-.71c-9.36-20.21-27-35.54-30.47-39.7a1.44,1.44,0,0,1,.17-2A1.47,1.47,0,0,1,179.06,20.09Z" fill="#aa2025"/><path d="M155.74,20.09a1.47,1.47,0,0,1,.94.34,1.44,1.44,0,0,1,.17,2c-3.5,4.16-21.11,19.49-30.47,39.7a1.45,1.45,0,0,1-1.93.71,1.47,1.47,0,0,1-.71-1.93c9.45-20.42,27.33-36.12,30.89-40.35A1.44,1.44,0,0,1,155.74,20.09Z" fill="#aa2025"/><path d="M156,0c9.35,0,14.23,6.73,18.81,14.23a1.45,1.45,0,1,1-2.48,1.52C167.27,7.42,163.16,2.91,156,2.91c-7.6,0-12.3,4.81-12.3,9.26a1.46,1.46,0,1,1-2.91,0C140.82,6.19,146.51,0,156,0Z" fill="#aa2025"/><path d="M142.27,17.25a1.45,1.45,0,0,1,1.46,1.45c0,2.09,2.8,6.38,7.37,8.62A11.59,11.59,0,0,0,164,25.85a1.45,1.45,0,0,1,1.78,2.3,14.51,14.51,0,0,1-15.94,1.78c-5-2.44-9-7.47-9-11.23A1.45,1.45,0,0,1,142.27,17.25Z" fill="#aa2025"/><path d="M167.88,5.53A1.45,1.45,0,0,1,169,7.91l-17.3,21a1.47,1.47,0,0,1-2.05.19,1.45,1.45,0,0,1-.19-2l17.3-21A1.45,1.45,0,0,1,167.88,5.53Z" fill="#aa2025"/></g></g></svg>