<?xml version="1.0" encoding="utf-8"?>
<!-- Generator: Adobe Illustrator 25.2.1, SVG Export Plug-In . SVG Version: 6.00 Build 0)  -->
<svg version="1.1" id="Layer_1" xmlns="http://www.w3.org/2000/svg" xmlns:xlink="http://www.w3.org/1999/xlink" x="0px" y="0px"
	 viewBox="0 0 140.26 99.06" style="enable-background:new 0 0 140.26 99.06;" xml:space="preserve">
<style type="text/css">
	.st0{fill:#445B38;}
</style>
<g>
	<g>
		<path class="st0" d="M138.91,44.71c-0.08-0.31-0.19-0.59-0.28-0.89c-0.09-0.3,0.01-0.67-0.1-0.96c-0.11-0.3-0.15-0.62-0.28-0.91
			c-0.13-0.29-0.44-0.49-0.58-0.77c-0.14-0.28-0.38-0.51-0.53-0.78c-0.16-0.27-0.24-0.58-0.41-0.85c-0.17-0.27-0.19-0.64-0.37-0.89
			c-0.18-0.26-0.28-0.59-0.48-0.83c-0.2-0.25-0.54-0.38-0.74-0.62c-0.21-0.24-0.61-0.3-0.83-0.53c-0.22-0.23-0.34-0.55-0.56-0.77
			c-0.22-0.22-0.43-0.46-0.66-0.67c-0.23-0.21-0.5-0.39-0.74-0.59c-0.24-0.21-0.37-0.55-0.61-0.75c-0.25-0.2-0.43-0.49-0.68-0.68
			c-0.25-0.19-0.76-0.02-1.02-0.21c-0.26-0.18-0.5-0.38-0.77-0.55c-0.27-0.18-0.41-0.52-0.68-0.69c-0.27-0.17-0.65-0.15-0.92-0.31
			c-0.28-0.16-0.44-0.5-0.71-0.66c-0.28-0.16-0.53-0.37-0.8-0.51c-0.29-0.15-0.72,0.01-1-0.13c-0.29-0.14-0.42-0.59-0.7-0.72
			c-0.29-0.14-0.71,0-0.99-0.12c-0.3-0.13-0.54-0.36-0.82-0.48c-0.3-0.13-0.55-0.36-0.83-0.47c-0.31-0.12-0.53-0.45-0.81-0.55
			c-0.32-0.12-0.71,0.01-0.98-0.09c-0.34-0.12-0.65-0.2-0.9-0.28c-0.57-0.18-0.47-0.08-0.92-0.22c-0.3-0.11-0.66-0.05-0.95-0.16
			c-0.3-0.11-0.57-0.29-0.86-0.39c-0.3-0.11-0.51-0.46-0.79-0.57c-0.3-0.11-0.6-0.21-0.88-0.33c-0.3-0.12-0.66-0.06-0.95-0.18
			c-0.3-0.12-0.55-0.33-0.84-0.45c-0.29-0.13-0.47-0.5-0.76-0.62c-0.29-0.13-0.74,0.1-1.03-0.03c-0.29-0.14-0.52-0.4-0.79-0.54
			c-0.29-0.14-0.66-0.12-0.93-0.26c-0.28-0.15-0.51-0.4-0.78-0.55c-0.27-0.16-0.4-0.56-0.67-0.73c-0.27-0.16-0.7-0.07-0.96-0.24
			c-0.26-0.17-0.49-0.4-0.75-0.58c-0.26-0.18-0.36-0.57-0.62-0.75c-0.25-0.18-0.64-0.18-0.89-0.38c-0.25-0.19-0.5-0.38-0.75-0.58
			c-0.24-0.19-0.54-0.33-0.78-0.53c-0.24-0.2-0.42-0.47-0.66-0.68c-0.23-0.2-0.36-0.53-0.6-0.74c-0.23-0.2-0.42-0.46-0.66-0.67
			c-0.23-0.2-0.49-0.39-0.72-0.6c-0.23-0.21-0.47-0.4-0.71-0.62c-0.23-0.21-0.56-0.32-0.79-0.53c-0.23-0.21-0.3-0.59-0.54-0.81
			c-0.22-0.21-0.71-0.16-0.94-0.38c-0.22-0.21-0.27-0.62-0.5-0.84c-0.22-0.21-0.37-0.52-0.6-0.74c-0.22-0.21-0.49-0.39-0.72-0.61
			c-0.22-0.21-0.39-0.5-0.62-0.72c-0.22-0.21-0.64-0.23-0.88-0.45c-0.22-0.21-0.57-0.31-0.81-0.53c-0.22-0.21-0.15-0.75-0.38-0.97
			c-0.23-0.22-0.65-0.26-0.89-0.47c-0.24-0.22-0.47-0.45-0.71-0.66c-0.25-0.21-0.36-0.59-0.6-0.79c-0.25-0.21-0.62-0.27-0.87-0.47
			c-0.26-0.2-0.49-0.43-0.75-0.62c-0.26-0.19-0.64-0.22-0.9-0.4c-0.27-0.18-0.48-0.45-0.75-0.62c-0.27-0.18-0.45-0.52-0.72-0.68
			c-0.28-0.17-0.57-0.32-0.85-0.48c-0.28-0.16-0.76,0.04-1.04-0.11c-0.29-0.15-0.52-0.39-0.81-0.53c-0.29-0.14-0.44-0.6-0.73-0.73
			c-0.3-0.14-0.64-0.17-0.93-0.29c-0.3-0.13-0.73,0.08-1.03-0.04c-0.3-0.12-0.55-0.38-0.85-0.48C80.4,1.96,80.1,1.84,79.8,1.74
			c-0.31-0.1-0.52-0.51-0.83-0.6c-0.31-0.09-0.69,0.05-1-0.03C77.65,1.03,77.3,1.11,77,1.03c-0.32-0.07-0.6-0.3-0.91-0.37
			c-0.32-0.07-0.64-0.12-0.95-0.17c-0.33-0.06-0.62-0.27-0.93-0.32c-0.33-0.05-0.61-0.08-0.92-0.12c-0.04-0.01-0.01,0.07-0.05,0.06
			c-0.48-0.17-0.38,0.09-1.05,0.05c-0.29-0.02-0.62-0.2-1.02-0.21C70.86-0.04,70.52-0.01,70.14,0c-0.38-0.01-0.72,0-1.03,0.01
			c-0.4,0.01-0.75-0.06-1.04-0.04C67.42,0,67.62,0.21,67.14,0.39C67.1,0.4,67.05,0.1,67.01,0.11c-0.31,0.04-0.62-0.02-0.94,0.03
			c-0.31,0.04-0.58,0.4-0.91,0.46c-0.31,0.05-0.64,0.03-0.96,0.1c-0.31,0.06-0.67-0.07-0.99,0.01c-0.31,0.07-0.6,0.25-0.92,0.33
			c-0.31,0.08-0.52,0.51-0.83,0.6c-0.3,0.09-0.75-0.26-1.06-0.16c-0.3,0.1-0.61,0.21-0.92,0.31c-0.3,0.11-0.62,0.18-0.93,0.3
			c-0.3,0.12-0.53,0.42-0.83,0.55c-0.29,0.12-0.56,0.32-0.85,0.46c-0.29,0.13-0.59,0.25-0.88,0.39c-0.29,0.14-0.65,0.15-0.94,0.3
			c-0.28,0.15-0.35,0.69-0.63,0.85c-0.28,0.16-0.6,0.24-0.87,0.41c-0.27,0.17-0.53,0.36-0.8,0.53c-0.27,0.17-0.53,0.36-0.8,0.54
			C51.68,6.3,51.27,6.26,51,6.46c-0.26,0.19-0.45,0.46-0.71,0.66c-0.25,0.19-0.53,0.37-0.78,0.58c-0.25,0.2-0.6,0.28-0.85,0.49
			c-0.24,0.21-0.41,0.51-0.65,0.73c-0.24,0.21-0.43,0.48-0.67,0.7c-0.23,0.22-0.46,0.44-0.68,0.66c-0.23,0.22-0.62,0.26-0.85,0.48
			c-0.23,0.22-0.23,0.68-0.45,0.9c-0.23,0.22-0.38,0.52-0.61,0.73c-0.23,0.22-0.73,0.16-0.95,0.37c-0.23,0.22-0.31,0.6-0.53,0.81
			c-0.23,0.22-0.41,0.49-0.63,0.7c-0.23,0.22-0.59,0.3-0.81,0.51c-0.23,0.22-0.55,0.34-0.77,0.55c-0.23,0.22-0.43,0.47-0.66,0.68
			c-0.24,0.22-0.54,0.35-0.77,0.56c-0.24,0.22-0.28,0.64-0.51,0.84c-0.24,0.21-0.53,0.36-0.77,0.56c-0.24,0.21-0.39,0.52-0.62,0.72
			c-0.25,0.21-0.63,0.24-0.86,0.44c-0.25,0.21-0.5,0.39-0.74,0.59c-0.25,0.2-0.26,0.69-0.51,0.88c-0.25,0.19-0.77,0.03-1.02,0.22
			c-0.26,0.19-0.39,0.54-0.64,0.72c-0.26,0.18-0.59,0.25-0.85,0.42c-0.26,0.17-0.61,0.21-0.88,0.37c-0.27,0.16-0.49,0.39-0.76,0.55
			c-0.27,0.16-0.53,0.33-0.8,0.48c-0.27,0.15-0.5,0.38-0.78,0.53c-0.28,0.14-0.46,0.49-0.74,0.63c-0.28,0.13-0.69-0.01-0.98,0.12
			c-0.28,0.13-0.6,0.17-0.9,0.29c-0.28,0.12-0.49,0.43-0.79,0.55c-0.29,0.12-0.67,0-0.97,0.11c-0.29,0.11-0.46,0.54-0.76,0.65
			c-0.29,0.11-0.62,0.12-0.92,0.23c-0.29,0.11-0.51,0.43-0.81,0.54c-0.29,0.1-0.62,0.15-0.92,0.26c-0.45,0.14-0.43-0.22-1-0.04
			c-0.25,0.08-0.48,0.4-0.83,0.52c-0.27,0.09-0.6,0.13-0.92,0.25c-0.28,0.1-0.5,0.41-0.81,0.53c-0.28,0.11-0.72-0.12-1.02,0
			c-0.28,0.12-0.42,0.59-0.72,0.72c-0.28,0.12-0.64,0.09-0.94,0.23c-0.28,0.13-0.58,0.23-0.87,0.37c-0.28,0.14-0.64,0.14-0.92,0.29
			c-0.28,0.14-0.51,0.38-0.79,0.53c-0.27,0.15-0.48,0.42-0.76,0.59c-0.27,0.16-0.44,0.47-0.71,0.64c-0.27,0.17-0.61,0.21-0.87,0.39
			c-0.26,0.17-0.68,0.12-0.94,0.31c-0.26,0.18-0.51,0.38-0.76,0.57c-0.25,0.19-0.27,0.68-0.52,0.88c-0.25,0.2-0.55,0.32-0.79,0.53
			c-0.24,0.2-0.65,0.22-0.89,0.43c-0.23,0.21-0.35,0.56-0.57,0.78c-0.22,0.22-0.34,0.55-0.56,0.78c-0.22,0.23-0.38,0.5-0.58,0.74
			c-0.21,0.24-0.59,0.33-0.79,0.58c-0.2,0.25-0.47,0.45-0.65,0.7c-0.18,0.26-0.25,0.6-0.43,0.86c-0.17,0.26-0.17,0.63-0.33,0.9
			c-0.16,0.27-0.26,0.57-0.4,0.85c-0.14,0.28-0.68,0.38-0.81,0.67c-0.13,0.29-0.1,0.65-0.21,0.95c-0.11,0.29-0.14,0.62-0.24,0.92
			c-0.09,0.3-0.02,0.64-0.1,0.95c-0.08,0.32-0.31,0.59-0.38,0.91c-0.07,0.32-0.38,0.59-0.44,0.9c-0.06,0.32,0.22,0.71,0.17,1.02
			c-0.06,0.32-0.23,0.62-0.27,0.94c-0.05,0.33,0.03,0.66-0.01,0.98c-0.04,0.33-0.19,0.63-0.22,0.95c-0.03,0.33,0.18,0.66,0.16,0.98
			c-0.02,0.33-0.09,0.64-0.1,0.96c-0.01,0.33-0.21,0.65-0.21,0.96c0,0.33,0.17,0.65,0.19,0.96c0.01,0.33,0.13,0.64,0.16,0.96
			c0.03,0.33-0.41,0.7-0.37,1.02c0.04,0.33,0.14,0.65,0.19,0.96c0.05,0.32,0.42,0.58,0.49,0.9c0.07,0.32-0.04,0.68,0.05,0.98
			c0.08,0.32,0.46,0.54,0.55,0.84c0.1,0.31-0.18,0.75-0.07,1.05c0.12,0.31,0.31,0.58,0.44,0.88c0.13,0.3,0.35,0.56,0.49,0.84
			c0.15,0.29,0.5,0.46,0.66,0.74c0.17,0.28,0.07,0.72,0.24,0.99c0.18,0.27,0.45,0.48,0.64,0.74c0.2,0.26,0.36,0.55,0.56,0.8
			c0.21,0.25,0.57,0.36,0.79,0.59c0.23,0.24,0.31,0.61,0.54,0.83c0.24,0.22,0.55,0.36,0.8,0.57c0.25,0.21,0.43,0.5,0.69,0.69
			c0.26,0.2,0.65,0.21,0.91,0.39c0.27,0.18,0.42,0.55,0.7,0.71c0.28,0.16,0.55,0.34,0.82,0.49c0.28,0.15,0.74-0.04,1.02,0.1
			c0.29,0.14,0.48,0.47,0.77,0.59c0.29,0.13,0.54,0.36,0.84,0.47c0.3,0.12,0.66,0.06,0.96,0.16c0.3,0.1,0.62,0.15,0.92,0.24
			c0.3,0.09,0.62,0.13,0.93,0.2c0.31,0.07,0.6,0.21,0.91,0.27c0.31,0.06,0.63,0.02,0.95,0.06c0.31,0.04,0.6,0.29,0.92,0.33
			c0.31,0.03,0.65-0.18,0.97-0.16c0.31,0.02,0.62,0.33,0.94,0.34c0.31,0.01,0.63,0.1,0.96,0.1c0.31,0,0.63-0.03,0.96-0.04
			c0.31-0.01,0.62-0.24,0.94-0.26c0.31-0.02,0.63-0.07,0.95-0.1c0.31-0.03,0.66,0.25,0.98,0.21c0.31-0.04,0.63-0.06,0.95-0.11
			c0.31-0.04,0.6-0.3,0.91-0.35c0.31-0.05,0.59-0.32,0.9-0.37c0.31-0.06,0.67,0.15,0.99,0.09c0.31-0.06,0.58-0.3,0.9-0.37
			c0.31-0.07,0.58-0.29,0.9-0.36c0.31-0.07,0.69,0.16,1,0.08c0.31-0.07,0.57-0.34,0.88-0.42c0.3-0.08,0.67,0.04,0.98-0.04
			c0.3-0.08,0.62-0.13,0.93-0.22c0.3-0.08,0.56-0.37,0.87-0.46c0.31-0.09,0.71,0.14,1.01,0.06c0.31-0.09,0.52-0.5,0.83-0.59
			c0.31-0.09,0.58-0.29,0.88-0.38c0.31-0.09,0.69,0.06,0.99-0.03c0.31-0.09,0.53-0.44,0.83-0.54c0.31-0.09,0.65-0.05,0.96-0.14
			c0.31-0.1,0.62-0.18,0.92-0.27c0.31-0.1,0.69,0.07,1-0.02c0.31-0.1,0.62-0.17,0.92-0.27c0.31-0.1,0.57-0.33,0.87-0.43
			c0.3-0.09,0.59-0.26,0.89-0.36c0.3-0.09,0.59-0.25,0.9-0.34c0.3-0.09,0.65-0.05,0.96-0.14c0.3-0.09,0.55-0.37,0.86-0.46
			c0.31-0.09,0.69,0.09,0.99,0c0.31-0.09,0.63-0.1,0.94-0.18c0.31-0.08,0.5-0.57,0.81-0.65c0.31-0.08,0.67,0.06,0.99-0.01
			c0.31-0.08,0.59-0.26,0.9-0.33c0.31-0.07,0.63-0.12,0.94-0.19c0.31-0.07,0.62-0.15,0.93-0.22c0.31-0.07,0.68,0.13,0.99,0.07
			c0.31-0.06,0.62-0.1,0.94-0.16c0.31-0.06,0.59-0.26,0.91-0.32c0.31-0.06,0.66,0.07,0.97,0.02c0.31-0.05,0.59-0.32,0.91-0.37
			c0.31-0.05,0.65,0.1,0.97,0.06c0.31-0.04,0.58-0.47,0.9-0.51c0.31-0.04,0.62-0.17,0.94-0.21c0.31-0.04,0.67,0.29,0.99,0.26
			c0.31-0.03,0.63-0.1,0.95-0.13c0.31-0.03,0.64,0.03,0.96,0c0.32-0.03,0.62-0.2,0.94-0.22c0.31-0.02,0.64,0.15,0.96,0.13
			c0.32-0.02,0.62-0.24,0.95-0.26c0.31-0.02,0.64,0.08,0.96,0.06c0.32-0.01,0.63-0.21,0.95-0.22c0.32-0.01,0.64,0.28,0.96,0.28
			c0.32,0.01,0.63-0.01,0.95,0c0.32,0.01,0.65-0.2,0.97-0.19c0.32,0.01,0.65-0.23,0.97-0.21c0.32,0.02,0.63,0.18,0.95,0.2
			c0.32,0.02,0.65-0.06,0.96-0.04c0.32,0.02,0.61,0.44,0.92,0.47c0.32,0.03,0.63,0.09,0.95,0.12c0.32,0.03,0.65-0.06,0.96-0.03
			c0.32,0.03,0.67-0.19,0.98-0.15c0.32,0.04,0.6,0.35,0.92,0.39c0.32,0.04,0.62,0.16,0.94,0.21c0.32,0.04,0.63,0.1,0.94,0.15
			c0.32,0.05,0.64,0.08,0.95,0.13c0.32,0.05,0.68-0.17,0.99-0.11c0.32,0.06,0.63,0.1,0.94,0.16c0.32,0.06,0.62,0.17,0.93,0.24
			c0.32,0.06,0.58,0.35,0.89,0.42c0.31,0.07,0.67-0.08,0.98-0.01c0.31,0.07,0.61,0.2,0.92,0.27c0.31,0.08,0.66-0.01,0.97,0.07
			c0.31,0.08,0.52,0.53,0.83,0.61c0.31,0.08,0.68-0.08,0.99,0c0.31,0.08,0.65,0.05,0.96,0.13c0.31,0.09,0.6,0.23,0.91,0.31
			c0.31,0.09,0.6,0.22,0.91,0.31c0.3,0.09,0.53,0.44,0.84,0.53c0.31,0.09,0.73-0.2,1.04-0.11c0.3,0.09,0.52,0.46,0.83,0.55
			c0.3,0.09,0.63,0.12,0.93,0.21c0.3,0.09,0.62,0.15,0.93,0.25c0.3,0.09,0.65,0.06,0.95,0.16c0.3,0.1,0.6,0.22,0.9,0.31
			c0.3,0.09,0.59,0.25,0.89,0.35c0.3,0.09,0.63,0.12,0.94,0.21c0.3,0.09,0.51,0.51,0.82,0.6c0.3,0.09,0.73-0.21,1.04-0.12
			c0.3,0.09,0.58,0.29,0.88,0.38c0.3,0.09,0.53,0.48,0.84,0.56c0.31,0.09,0.71-0.16,1.01-0.08c0.31,0.08,0.55,0.42,0.85,0.5
			c0.31,0.08,0.66,0,0.97,0.07c0.31,0.08,0.59,0.27,0.9,0.34c0.31,0.08,0.63,0.12,0.94,0.19c0.31,0.07,0.66-0.04,0.97,0.03
			c0.32,0.07,0.61,0.21,0.92,0.28c0.32,0.06,0.57,0.44,0.88,0.5c0.32,0.06,0.67-0.08,0.98-0.03c0.32,0.05,0.62,0.22,0.93,0.27
			c0.32,0.05,0.63,0.12,0.95,0.16c0.32,0.04,0.66-0.09,0.97-0.06c0.32,0.03,0.63,0.13,0.95,0.16c0.32,0.02,0.64,0.14,0.95,0.15
			c0.32,0.01,0.65-0.26,0.96-0.25c0.32,0,0.64,0.11,0.96,0.11c0.32-0.01,0.65,0.17,0.97,0.15c0.32-0.02,0.64-0.13,0.95-0.16
			c0.32-0.03,0.64-0.09,0.95-0.14c0.32-0.05,0.66,0,0.97-0.06c0.31-0.06,0.63-0.16,0.94-0.23c0.31-0.07,0.54-0.47,0.84-0.56
			s0.59-0.21,0.89-0.31c0.3-0.1,0.61-0.16,0.91-0.27c0.29-0.12,0.72,0.07,1.01-0.06c0.29-0.13,0.52-0.4,0.81-0.54
			c0.28-0.14,0.62-0.2,0.9-0.36c0.28-0.15,0.55-0.32,0.83-0.49c0.28-0.16,0.44-0.52,0.71-0.7c0.27-0.18,0.63-0.22,0.89-0.42
			c0.26-0.19,0.57-0.33,0.82-0.54c0.24-0.21,0.28-0.66,0.52-0.88c0.23-0.22,0.42-0.48,0.64-0.72c0.22-0.23,0.67-0.26,0.88-0.51
			c0.21-0.24,0.32-0.57,0.52-0.83c0.19-0.26,0.31-0.57,0.49-0.84c0.18-0.26,0.43-0.49,0.59-0.77c0.16-0.28,0.02-0.71,0.17-1.01
			c0.14-0.28,0.34-0.54,0.47-0.84c0.13-0.29,0.24-0.58,0.36-0.89c0.12-0.3,0.52-0.5,0.62-0.81c0.1-0.3-0.08-0.69,0.01-1.01
			c0.08-0.31,0.08-0.63,0.15-0.95c0.07-0.31,0.51-0.55,0.57-0.88c0.05-0.31-0.18-0.67-0.14-1c0.04-0.31,0.28-0.61,0.3-0.94
			c0.03-0.32,0.06-0.64,0.08-0.97c0.01-0.32-0.28-0.65-0.28-0.97c0-0.32,0.1-0.64,0.09-0.97c-0.01-0.32,0.12-0.65,0.1-0.97
			c-0.02-0.32-0.23-0.62-0.26-0.95c-0.03-0.32-0.1-0.63-0.13-0.96c-0.04-0.32,0.05-0.65,0-0.98c-0.05-0.32,0.17-0.68,0.12-1
			c-0.05-0.31-0.18-0.62-0.25-0.94c-0.06-0.31-0.47-0.56-0.54-0.88C139.04,45.34,138.99,45.02,138.91,44.71z M5.59,52.21
			c0-0.38,0.04-0.77,0.14-1.05c0.13-0.33,0.52-0.52,0.77-0.72c0.25-0.2,0.57-0.27,0.9-0.38C7.7,49.97,8,49.73,8.35,49.7
			c0.32-0.03,0.67-0.13,1.01-0.12c0.33,0.01,0.66,0.14,1,0.18c0.33,0.04,0.63,0.29,0.95,0.35c0.34,0.06,0.63,0.25,0.95,0.32
			c0.35,0.08,0.71-0.01,1,0.07c0.38,0.1,0.77-0.07,1.03-0.01c0.39,0.1,0.7,0.32,0.99,0.4c0.42,0.12,0.75,0.25,1.01,0.33
			c0.93,0.31,1.4,0.22,1.01,0.57c-0.34,0.32-0.43,0-0.96,0.23c-0.25,0.11-0.58,0.12-0.91,0.25c-0.27,0.11-0.4,0.63-0.71,0.75
			c-0.28,0.11-0.59,0.2-0.89,0.3c-0.29,0.1-0.65,0-0.96,0.1c-0.29,0.1-0.54,0.39-0.84,0.47c-0.3,0.09-0.66-0.04-0.97,0.03
			c-0.31,0.07-0.62,0.07-0.93,0.13c-0.32,0.06-0.59,0.44-0.89,0.47c-0.32,0.03-0.66-0.3-0.96-0.3c-0.33-0.01-0.7,0.25-0.98,0.19
			c-0.33-0.08-0.63-0.32-0.87-0.49c-0.25-0.18-0.38-0.51-0.5-0.81C5.83,52.87,5.59,52.57,5.59,52.21z M11.87,66.11
			c-0.27-0.26-0.53-0.56-0.66-0.83c-0.15-0.32-0.02-0.73,0.01-1.05c0.02-0.32,0.19-0.6,0.35-0.91c0.14-0.28,0.16-0.66,0.38-0.94
			c0.2-0.25,0.37-0.58,0.61-0.81c0.23-0.23,0.56-0.39,0.82-0.6c0.26-0.21,0.65-0.26,0.91-0.45c0.28-0.2,0.62-0.29,0.88-0.47
			c0.29-0.2,0.48-0.52,0.74-0.68c0.33-0.21,0.48-0.61,0.7-0.75c0.34-0.22,0.71-0.29,0.97-0.44c0.38-0.23,0.69-0.37,0.94-0.5
			c0.86-0.46,1.12-0.86,1.11-0.34c-0.01,0.47-0.29,0.31-0.49,0.86c-0.09,0.25-0.31,0.5-0.44,0.83c-0.11,0.27,0.18,0.72,0.05,1.03
			c-0.12,0.28-0.26,0.56-0.39,0.86c-0.12,0.28-0.45,0.48-0.59,0.76c-0.13,0.28-0.09,0.66-0.23,0.93c-0.15,0.28-0.49,0.45-0.64,0.72
			c-0.16,0.28-0.38,0.51-0.54,0.76c-0.18,0.27-0.09,0.73-0.27,0.97c-0.2,0.26-0.67,0.28-0.88,0.49c-0.23,0.24-0.29,0.68-0.54,0.84
			c-0.28,0.19-0.67,0.24-0.95,0.29c-0.3,0.06-0.63-0.08-0.94-0.19C12.51,66.38,12.13,66.35,11.87,66.11z M16.64,45.03
			c-0.22-0.14-0.53-0.29-0.86-0.5c-0.26-0.16-0.43-0.52-0.72-0.72c-0.27-0.18-0.49-0.43-0.77-0.63c-0.27-0.19-0.65-0.24-0.91-0.45
			c-0.26-0.21-0.59-0.37-0.82-0.59c-0.25-0.24-0.42-0.56-0.62-0.81c-0.22-0.27-0.24-0.66-0.38-0.94c-0.16-0.31-0.13-0.61-0.15-0.93
			c-0.02-0.32-0.14-0.62,0.01-0.94c0.13-0.27,0.13-0.71,0.41-0.97c0.26-0.25,0.64-0.33,0.9-0.43c0.31-0.12,0.66-0.11,0.97-0.05
			c0.29,0.06,0.62,0.16,0.9,0.35c0.24,0.16,0.36,0.51,0.6,0.75c0.21,0.21,0.31,0.52,0.51,0.77c0.19,0.24,0.72,0.24,0.89,0.51
			c0.17,0.26,0.32,0.55,0.48,0.82c0.15,0.27,0.12,0.65,0.27,0.93c0.14,0.28,0.47,0.47,0.61,0.75c0.14,0.29,0.07,0.66,0.2,0.94
			c0.13,0.3,0.19,0.61,0.31,0.89c0.13,0.31,0.56,0.48,0.66,0.75c0.13,0.33-0.08,0.75,0.01,1c0.2,0.55,0.59,0.39,0.6,0.85
			c0.01,0.53-0.38,0.17-1.24-0.3c-0.24-0.13-0.48-0.41-0.86-0.63C17.38,45.27,16.98,45.25,16.64,45.03z M65.34,21.09
			c-0.02,0.5,0.02,0.5,0.02,1c-0.01,0.5-0.22,0.5-0.22,0.99c-0.01,0.5-0.09,0.5-0.1,1c-0.01,0.5,0.19,0.5,0.18,1
			c-0.01,0.5,0.09,0.5,0.08,1c-0.01,0.5-0.1,0.5-0.11,1c-0.01,0.5-0.21,0.5-0.21,1c-0.01,0.5-0.13,0.5-0.13,1
			c-0.01,0.5,0.17,0.5,0.16,1c-0.01,0.5,0.25,0.5,0.25,1c-0.01,0.5-0.14,0.5-0.15,1c-0.01,0.47-0.04,0.47-0.05,0.94
			c-0.01,0.47,0.03,0.47,0.02,0.95c-0.01,0.47-0.2,0.47-0.22,0.94c-0.01,0.47-0.13,0.47-0.15,0.94c-0.01,0.47,0.42,0.48,0.41,0.96
			c-0.01,0.47-0.04,0.47-0.05,0.94c-0.01,0.47-0.23,0.47-0.24,0.94c-0.01,0.47,0.2,0.48,0.18,0.95c-0.01,0.47-0.23,0.47-0.24,0.94
			c-0.01,0.47-0.08,0.47-0.09,0.94c-0.01,0.47,0.33,0.48,0.31,0.96c-0.01,0.47-0.37,0.47-0.37,0.94c0,0.46,0.32,0.46,0.34,0.92
			c0.02,0.47-0.09,0.47-0.07,0.94c0.02,0.46-0.1,0.47-0.08,0.93c0.02,0.47-0.21,0.47-0.19,0.94c0.02,0.47,0.27,0.46,0.29,0.92
			c0.02,0.47,0.07,0.47,0.06,0.93c-0.01,0.4,0,0.4-0.03,0.79c-0.03,0.53,0.16,0.54,0.13,1.07c-0.02,0.53-0.09,0.53-0.11,1.06
			c-0.02,0.53-0.27,0.52-0.29,1.05c-0.02,0.53-0.01,0.53-0.03,1.06c-0.01,0.38,0.16,0.71,0.15,1c-0.02,0.4-0.13,0.72-0.17,0.99
			c-0.06,0.38-0.38,0.53-0.55,0.8c-0.15,0.24-0.04,0.7-0.33,0.99c-0.22,0.22-0.56,0.37-0.87,0.58c-0.26,0.17-0.52,0.52-0.89,0.62
			c-0.29,0.08-0.69,0.03-1.08,0.03c-0.28,0-0.51-0.37-0.83-0.54c-0.25-0.14-0.69-0.07-0.95-0.29c-0.23-0.2-0.43-0.48-0.65-0.72
			c-0.21-0.23-0.21-0.64-0.4-0.9c-0.19-0.26-0.56-0.39-0.72-0.66c-0.17-0.28-0.33-0.57-0.46-0.85c-0.14-0.3-0.33-0.59-0.42-0.88
			c-0.09-0.33-0.07-0.7-0.07-0.98c0-0.15,0.21-0.46,0.29-0.86c0.05-0.27,0.18-0.56,0.25-0.85c0.07-0.31,0.11-0.6,0.18-0.85
			c0.08-0.12,0.1-0.53,0.13-0.91c0.03-0.38-0.09-0.75-0.05-0.87c-0.04-0.09-0.05-0.34-0.15-0.32c-0.45,0.09-0.32,0.52-0.75,0.67
			c-0.43,0.16-0.52-0.09-0.95,0.07c-0.43,0.16-0.47,0.05-0.9,0.21c-0.43,0.16-0.41,0.21-0.84,0.37c-0.43,0.16-0.46,0.07-0.89,0.23
			c-0.43,0.16-0.33,0.42-0.76,0.58c-0.43,0.16-0.36,0.31-0.79,0.48c-0.59,0.23-0.76-0.17-1.33,0.09c-0.42,0.18-0.31,0.43-0.72,0.63
			c-0.42,0.2-0.42,0.18-0.84,0.37c-0.41,0.2-0.51,0-0.92,0.19c-0.41,0.2-0.34,0.35-0.76,0.55c-0.41,0.2-0.44,0.15-0.85,0.35
			c-0.42,0.2-0.33,0.37-0.75,0.57c-0.14,0.07-0.5,0.13-0.85,0.32c-0.26,0.14-0.64,0.11-0.9,0.25c-0.37,0.2-0.68,0.38-0.79,0.45
			c-0.31,0.18-0.44,0.7-0.75,0.83c-0.32,0.14-0.71,0.16-1.05,0.23c-0.33,0.07-0.7-0.23-1.06-0.23c-0.39,0-0.7,0.06-1-0.03
			c-0.36-0.11-0.85,0.02-1.11-0.18c-0.28-0.23-0.43-0.64-0.61-0.93c-0.19-0.31-0.31-0.67-0.4-0.99c-0.1-0.38,0.18-0.76,0.18-1.05
			c0-0.06-0.22-0.4-0.13-0.89c0.04-0.26-0.05-0.6,0.04-0.92c0.07-0.27,0.33-0.52,0.44-0.81c0.11-0.27,0.23-0.55,0.38-0.82
			c0.15-0.26,0.44-0.41,0.63-0.65c0.18-0.23,0.37-0.43,0.6-0.63c0.22-0.19,0.37-0.47,0.65-0.62c0.26-0.14,0.49-0.39,0.79-0.48
			c0.28-0.08,0.61,0.03,0.93,0c0.32-0.03,0.62-0.09,0.92-0.12c0.32-0.03,0.62-0.08,0.92-0.11c0.31-0.04,0.63,0.01,0.93-0.03
			c0.31-0.04,0.56-0.43,0.86-0.48c0.31-0.05,0.67,0.27,0.97,0.22c0.3-0.06,0.62-0.03,0.93-0.09c0.3-0.06,0.53-0.43,0.84-0.49
			c0.29-0.07,0.61-0.05,0.92-0.13c0.29-0.07,0.64,0.05,0.95-0.02c0.29-0.07,0.56-0.25,0.87-0.33c0.29-0.08,0.49-0.5,0.8-0.58
			c0.29-0.08,0.71,0.29,1.02,0.21c0.29-0.08,0.58-0.16,0.89-0.25c0.29-0.08,0.59-0.12,0.9-0.21c0.2-0.05,0.45-0.31,0.81-0.4
			c0.26-0.06,0.54-0.2,0.85-0.27c0.28-0.06,0.57-0.11,0.88-0.18c0.28-0.07,0.61,0.02,0.91-0.05c0.29-0.07,0.5-0.57,0.79-0.64
			c0.16,0,0.33,0.13,0.33-0.05c0.01-0.43-0.01-0.43,0-0.86c0.02-0.43,0.01-0.43,0.02-0.86c0.02-0.43,0.28-0.42,0.3-0.85
			c0.01-0.43-0.09-0.43-0.07-0.87c0.02-0.43,0.05-0.43,0.06-0.86c0-0.23,0.17-0.53,0.18-0.88c0.01-0.28-0.1-0.58-0.09-0.89
			c0.01-0.29-0.04-0.59-0.04-0.89c0-0.3,0-0.6-0.01-0.89c-0.01-0.33,0.18-0.74,0.15-0.99c-0.04-0.07-0.28,0.18-0.36,0.17
			c-0.42-0.08-0.41,0.02-0.84-0.01c-0.49-0.03-0.48-0.38-0.97-0.37c-0.49,0.01-0.48,0.24-0.97,0.25c-0.49,0.01-0.49,0.08-0.98,0.1
			c-0.49,0.01-0.49-0.17-0.98-0.16c-0.49,0.01-0.49-0.11-0.98-0.1c-0.49,0.01-0.49,0.07-0.98,0.08c-0.49,0.01-0.49-0.1-0.98-0.09
			c-0.49,0.01-0.48,0.29-0.97,0.31c-0.49,0.01-0.49-0.07-0.98-0.06c-0.49,0.01-0.49,0.15-0.98,0.16c-0.18,0-0.51-0.18-0.9-0.13
			c-0.26,0.04-0.56,0.07-0.88,0.13c-0.28,0.05-0.51,0.47-0.81,0.53c-0.29,0.05-0.66-0.33-0.95-0.27c-0.3,0.05-0.56,0.32-0.84,0.37
			c-0.32,0.06-0.64-0.01-0.9,0.03c-0.45,0.08-0.76-0.03-0.86-0.03c-0.36,0-0.63,0.04-0.91-0.05c-0.34-0.11-0.58-0.22-0.81-0.41
			c-0.27-0.23-0.53-0.4-0.68-0.65c-0.23-0.4-0.54-0.75-0.54-0.89c0-0.12,0.37-0.41,0.52-0.84c0.08-0.25,0.27-0.5,0.4-0.8
			c0.11-0.27,0.05-0.62,0.2-0.89c0.14-0.27,0.51-0.39,0.67-0.64c0.18-0.26,0.1-0.7,0.3-0.9c0.19-0.17,0.5-0.29,0.78-0.49
			c0.24-0.17,0.38-0.53,0.64-0.69c0.27-0.16,0.59-0.26,0.84-0.38c0.36-0.17,0.74,0.03,0.92,0.03c0.21,0,0.61-0.16,1.11-0.05
			c0.32,0.07,0.68,0.23,1.07,0.32c0.35,0.08,0.76-0.03,1.13,0.05c0.2,0.04,0.53,0.48,0.99,0.54c0.34,0.04,0.76-0.28,1.11-0.25
			c0.46,0.05,0.85,0.26,1.04,0.26c0.46,0,0.46,0.04,0.93,0.04c0.46,0,0.46,0.16,0.93,0.16c0.47,0,0.47-0.09,0.93-0.09
			c0.47,0,0.47-0.13,0.93-0.13c0.47,0,0.47-0.18,0.93-0.18c0.47,0,0.47,0.15,0.93,0.15c0.47,0,0.47,0.28,0.93,0.28
			c0.47,0,0.48,0.01,0.94-0.01c0.16-0.01,0.07-0.31,0.2-0.4c0.01-0.2,0.06-0.41,0.07-0.84c0.01-0.29,0.28-0.61,0.28-0.97
			c0-0.31-0.17-0.63-0.17-0.97c0-0.32-0.15-0.64-0.16-0.97c-0.01-0.32-0.09-0.64-0.11-0.97c-0.02-0.33,0.2-0.67,0.17-0.98
			c-0.03-0.34,0.03-0.68-0.02-0.98c-0.05-0.35-0.25-0.66-0.32-0.93c-0.11-0.39-0.38-0.58-0.54-0.76c-0.21-0.24-0.44-0.42-0.6-0.61
			c-0.22-0.25-0.06-0.76-0.21-0.94c-0.24-0.29-0.52-0.4-0.63-0.58c-0.22-0.35-0.3-0.51-0.3-0.77c0-0.3-0.09-0.67,0.03-1.01
			c0.1-0.29,0.4-0.53,0.57-0.82c0.16-0.27,0.54-0.38,0.75-0.64c0.2-0.24,0.16-0.72,0.4-0.94c0.23-0.22,0.56-0.35,0.82-0.54
			c0.26-0.19,0.47-0.48,0.75-0.64c0.28-0.16,0.64-0.19,0.94-0.31c0.3-0.12,0.57-0.44,0.88-0.5c0.32-0.06,0.69-0.05,1.01-0.05
			c0.2,0,0.56,0.25,0.97,0.38c0.3,0.09,0.69,0.07,0.99,0.23c0.3,0.15,0.68,0.29,0.92,0.52c0.24,0.23,0.05,0.75,0.15,1.07
			c0.1,0.34,0.22,0.64,0.28,0.96c0.06,0.37,0.41,0.67,0.43,0.98c0.03,0.42-0.16,0.77-0.16,1.03c-0.02,0.48,0.27,0.49,0.25,0.97
			c-0.02,0.48-0.44,0.46-0.46,0.94c-0.02,0.48,0.05,0.48,0.03,0.96c-0.02,0.48,0,0.49,0.03,0.97
			C65.22,20.61,65.36,20.61,65.34,21.09z M100.42,56.31c-0.08,0.06-0.31,0.26-0.58,0.42c-0.26,0.16-0.63,0.12-0.74,0.15
			c-0.05,0.02-0.41-0.01-0.86,0.05c-0.26,0.04-0.53,0.26-0.83,0.3c-0.3,0.04-0.58,0.17-0.85,0.2c-0.43,0.05-0.79-0.01-0.88-0.01
			c-0.52,0-0.52-0.2-1.03-0.2c-0.52,0-0.52-0.12-1.04-0.12c-0.52,0-0.52,0.17-1.03,0.17c-0.52,0-0.52,0.26-1.04,0.26
			c-0.52,0-0.52-0.14-1.04-0.14c-0.52,0-0.52-0.03-1.04-0.03c-0.33,0-0.66,0.04-0.99,0.02c-0.33-0.02-0.64-0.23-0.97-0.26
			c-0.33-0.03-0.63-0.19-0.95-0.24c-0.33-0.05-0.73,0.32-1.04,0.26c-0.33-0.06-0.65-0.16-0.96-0.24c-0.32-0.08-0.59-0.37-0.9-0.46
			c-0.32-0.09-0.7,0.01-1-0.09c-0.32-0.11-0.56-0.42-0.86-0.54c-0.32-0.12-0.6-0.31-0.88-0.43c-0.32-0.14-0.76,0.03-1.04-0.11
			c-0.32-0.16-0.45-0.62-0.72-0.76c-0.32-0.18-0.77-0.1-1-0.25c-0.41-0.27-0.64-0.6-0.73-0.72c-0.21-0.25-0.31-0.58-0.49-0.86
			c-0.18-0.26-0.15-0.65-0.31-0.94c-0.15-0.28-0.51-0.45-0.65-0.76c-0.12-0.29-0.26-0.59-0.36-0.91c-0.1-0.3-0.24-0.6-0.33-0.93
			c-0.08-0.3-0.32-0.6-0.38-0.93c-0.06-0.31-0.04-0.65-0.08-0.99c-0.04-0.31,0.18-0.67,0.14-1c-0.03-0.31-0.06-0.64-0.08-0.97
			c-0.02-0.32-0.21-0.64-0.22-0.97c-0.01-0.32,0.08-0.65,0.08-0.98c0-0.32,0.27-0.64,0.28-0.97c0.01-0.48-0.39-0.49-0.38-0.97
			c0.01-0.48,0.14-0.48,0.16-0.95c0.01-0.48-0.18-0.48-0.17-0.96c0.01-0.48,0.12-0.47,0.13-0.95c0.01-0.48,0.3-0.47,0.31-0.95
			c0.01-0.48-0.3-0.49-0.29-0.97c0.01-0.48,0.07-0.48,0.09-0.96c0.01-0.48,0.27-0.47,0.28-0.95c0.01-0.48-0.22-0.49-0.21-0.96
			c0.01-0.46-0.01-0.46-0.01-0.92c0-0.46-0.08-0.46-0.08-0.92c0-0.46,0.09-0.46,0.09-0.91c0-0.46,0.16-0.46,0.16-0.92
			c0-0.46,0.06-0.46,0.06-0.91c0-0.46-0.04-0.46-0.04-0.92c0-0.46-0.02-0.46-0.02-0.92s-0.15-0.46-0.15-0.92
			c0-0.46,0.23-0.46,0.23-0.92c0-0.46-0.37-0.46-0.37-0.92c0-0.46,0.27-0.46,0.27-0.92c0-0.09,0.09-0.46,0.03-0.93
			c-0.03-0.27-0.12-0.58-0.17-0.91c-0.04-0.29,0.01-0.62-0.04-0.92c-0.04-0.31-0.37-0.57-0.42-0.86c-0.06-0.33-0.29-0.59-0.35-0.86
			c-0.09-0.43,0.19-0.93,0.11-1.05c-0.22-0.26-0.61-0.3-0.76-0.48c-0.25-0.29-0.4-0.51-0.52-0.68c-0.18-0.28,0-0.49,0-0.82
			c0-0.31-0.13-0.62-0.05-0.94c0.08-0.3,0.23-0.57,0.36-0.87c0.13-0.28,0.12-0.66,0.3-0.93c0.17-0.26,0.45-0.46,0.66-0.71
			c0.21-0.24,0.56-0.32,0.8-0.53c0.24-0.21,0.46-0.4,0.73-0.58c0.27-0.18,0.36-0.69,0.64-0.82c0.29-0.13,0.66-0.15,0.97-0.22
			c0.31-0.07,0.66,0.23,0.97,0.23c0.11,0,0.43-0.11,0.86-0.02c0.26,0.06,0.68-0.18,0.97-0.04c0.25,0.12,0.46,0.44,0.69,0.65
			c0.21,0.19,0.4,0.44,0.57,0.71c0.14,0.23-0.03,0.62,0.07,0.92c0.08,0.26,0.37,0.47,0.42,0.79c0.04,0.27,0.21,0.57,0.21,0.89
			c0,0.22-0.17,0.54-0.19,0.97c-0.01,0.28-0.02,0.6-0.04,0.97c-0.02,0.29-0.2,0.61-0.22,0.96c-0.02,0.3-0.04,0.62-0.06,0.97
			c-0.02,0.3,0.1,0.64,0.08,0.98c-0.02,0.31,0.11,0.64,0.08,0.98c-0.02,0.31-0.21,0.62-0.24,0.96c-0.02,0.31-0.01,0.64-0.04,0.97
			c-0.02,0.31-0.04,0.64-0.06,0.97c-0.03,0.37-0.14,0.68-0.17,0.97c-0.03,0.37,0.29,0.71,0.28,1c-0.02,0.35-0.41,0.64-0.42,0.96
			c-0.01,0.31-0.1,0.63-0.1,0.99c0,0.29,0.32,0.61,0.33,0.98c0.01,0.29-0.07,0.62-0.06,0.99c0.46,0.06,0.51,0.08,0.96-0.04
			c0.46-0.12,0.43-0.22,0.88-0.34c0.46-0.12,0.36-0.47,0.82-0.59c0.45-0.12,0.58,0.33,1.03,0.21c0.46-0.12,0.46-0.12,0.91-0.24
			c0.46-0.12,0.47-0.08,0.92-0.2c0.46-0.12,0.41-0.31,0.86-0.43c0.34-0.09,0.63-0.25,0.91-0.34c0.35-0.11,0.66-0.19,0.93-0.29
			c0.36-0.13,0.72-0.12,0.96-0.24c0.34-0.17,0.38-0.71,0.62-0.87c0.29-0.17,0.61-0.25,0.86-0.38c0.27-0.13,0.57-0.28,0.89-0.35
			c0.26-0.06,0.6-0.11,0.95-0.11c0.32,0,0.64,0.3,0.98,0.36c0.32,0.05,0.67,0.03,0.99,0.13c0.31,0.09,0.62,0.23,0.93,0.36
			c0.31,0.12,0.54,0.41,0.84,0.55c0.3,0.15,0.64,0.2,0.93,0.37c0.3,0.17,0.61,0.3,0.87,0.49c0.29,0.2,0.56,0.4,0.8,0.61
			c0.28,0.24,0.34,0.63,0.52,0.86c0.27,0.33,0.71,0.5,0.71,0.75c0,0.31-0.09,0.76-0.35,1.01c-0.19,0.19-0.69,0.06-1.03,0.23
			c-0.25,0.13-0.45,0.45-0.79,0.57c-0.28,0.1-0.56,0.27-0.9,0.36c-0.29,0.08-0.64-0.01-0.97,0.07c-0.29,0.07-0.63,0.02-0.96,0.09
			c-0.3,0.07-0.6,0.18-0.92,0.25c-0.3,0.06-0.63,0.01-0.96,0.07c-0.3,0.06-0.57,0.39-0.89,0.45c-0.3,0.05-0.63,0.02-0.96,0.08
			c-0.31,0.05-0.6,0.24-0.92,0.29c-0.31,0.05-0.66-0.11-0.98-0.06c-0.45,0.07-0.45,0.06-0.9,0.13c-0.45,0.07-0.39,0.45-0.84,0.52
			c-0.45,0.07-0.52-0.36-0.97-0.29c-0.45,0.07-0.42,0.28-0.87,0.35c-0.45,0.07-0.47-0.05-0.92,0.02c-0.45,0.07-0.48-0.08-0.93-0.01
			c-0.45,0.07-0.44,0.15-0.89,0.22c-0.45,0.07-0.45,0.09-0.9,0.17c-0.12,0.03-0.4,0.13-0.71,0.13c-0.31-0.01-0.62,0.21-0.74,0.21
			c-0.23,0-0.46-0.19-1.01-0.01c-0.23,0.44-0.13,0.52-0.16,1.01c-0.03,0.49,0.17,0.5,0.14,1c-0.03,0.49-0.29,0.48-0.32,0.97
			c-0.03,0.49,0.31,0.51,0.28,1.01c-0.02,0.32-0.14,0.63-0.15,0.94c-0.02,0.33,0.2,0.65,0.19,0.95c-0.01,0.33-0.09,0.64-0.09,0.94
			c0,0.33-0.33,0.64-0.32,0.95c0.01,0.33,0.25,0.64,0.27,0.94c0.02,0.33-0.03,0.65,0,0.95c0.04,0.33,0.28,0.6,0.34,0.9
			c0.06,0.33-0.23,0.73-0.14,1.01c0.1,0.32,0.56,0.47,0.7,0.73c0.15,0.29,0.16,0.64,0.35,0.87c0.2,0.24,0.4,0.49,0.66,0.68
			c0.24,0.18,0.45,0.49,0.75,0.64c0.27,0.13,0.62,0.17,0.93,0.27c0.29,0.09,0.63,0.04,0.95,0.11c0.29,0.06,0.62-0.07,0.95-0.02
			c0.3,0.04,0.59,0.22,0.92,0.25c0.3,0.03,0.6,0.33,0.92,0.34c0.3,0.02,0.62,0.02,0.95,0.03c0.3,0.01,0.63-0.37,0.95-0.36
			c0.31,0,0.62,0.1,0.95,0.1c0.23,0,0.55,0.26,0.94,0.25c0.28-0.01,0.59-0.19,0.93-0.21c0.29-0.01,0.6-0.17,0.92-0.19
			c0.3-0.02,0.61-0.11,0.92-0.13c0.31-0.02,0.64,0.18,0.95,0.15c0.31-0.03,0.64,0.03,0.95-0.02c0.5-0.07,0.49-0.21,0.99-0.28
			c0.5-0.07,0.48-0.26,0.98-0.33c0.51-0.07,0.5-0.12,1-0.19c0.51-0.07,0.57,0.37,1.08,0.3c0.5-0.07,0.48-0.23,0.99-0.31
			c0.17-0.02,0.55-0.18,1-0.29c0.32-0.07,0.65-0.31,0.97-0.38c0.45-0.1,0.88-0.01,1.05-0.01c0.24,0,0.47,0.27,0.74,0.4
			c0.27,0.13,0.7,0.13,0.7,0.46c0,0.22-0.2,0.54-0.35,0.92c-0.1,0.26-0.13,0.61-0.29,0.92c-0.14,0.26-0.41,0.49-0.58,0.77
			c-0.16,0.26-0.14,0.66-0.33,0.93c-0.18,0.26-0.42,0.49-0.62,0.75c-0.2,0.25-0.55,0.38-0.77,0.62c-0.21,0.24-0.31,0.59-0.54,0.81
			c-0.23,0.23-0.41,0.53-0.64,0.74c-0.25,0.21-0.79,0.03-1.05,0.2C100.76,55.67,100.7,56.19,100.42,56.31z M128.05,37.58
			c0.27,0.26,0.54,0.56,0.66,0.83c0.15,0.32,0.02,0.73-0.01,1.05c-0.02,0.32-0.19,0.6-0.35,0.91c-0.14,0.28-0.16,0.66-0.38,0.94
			c-0.2,0.25-0.37,0.58-0.61,0.81c-0.23,0.23-0.56,0.39-0.82,0.6c-0.26,0.21-0.65,0.26-0.91,0.45c-0.28,0.2-0.62,0.29-0.88,0.47
			c-0.3,0.2-0.48,0.52-0.74,0.68c-0.33,0.21-0.48,0.61-0.7,0.75c-0.34,0.22-0.71,0.29-0.97,0.45c-0.38,0.23-0.7,0.37-0.94,0.5
			c-0.86,0.46-1.12,0.86-1.11,0.34c0.01-0.47,0.29-0.31,0.49-0.86c0.09-0.25,0.31-0.5,0.44-0.83c0.11-0.27-0.18-0.72-0.05-1.03
			c0.11-0.28,0.26-0.56,0.39-0.85c0.12-0.28,0.45-0.48,0.59-0.76c0.13-0.28,0.09-0.66,0.23-0.93c0.14-0.28,0.48-0.45,0.64-0.72
			c0.16-0.27,0.38-0.5,0.54-0.76c0.18-0.27,0.09-0.73,0.27-0.97c0.2-0.26,0.67-0.28,0.88-0.49c0.23-0.24,0.29-0.68,0.54-0.84
			c0.28-0.19,0.67-0.23,0.95-0.29c0.3-0.06,0.63,0.08,0.94,0.19C127.4,37.31,127.79,37.34,128.05,37.58z M128.05,66.11
			c-0.26,0.25-0.57,0.48-0.83,0.58c-0.31,0.12-0.69-0.06-0.99-0.12c-0.29-0.06-0.53-0.25-0.81-0.44c-0.24-0.16-0.6-0.22-0.84-0.45
			c-0.21-0.21-0.5-0.4-0.7-0.66c-0.19-0.24-0.3-0.56-0.47-0.83c-0.17-0.26-0.16-0.63-0.32-0.9c-0.16-0.27-0.2-0.59-0.35-0.87
			c-0.14-0.28-0.44-0.48-0.57-0.76c-0.14-0.29-0.51-0.46-0.63-0.74c-0.13-0.29-0.13-0.64-0.25-0.92c-0.13-0.31-0.22-0.61-0.32-0.88
			c-0.13-0.33-0.28-0.61-0.37-0.86c-0.2-0.55-0.12-0.46-0.12-0.92c-0.01-0.53-0.07,0.11,0.8,0.57c0.24,0.13,0.76-0.08,1.13,0.15
			c0.26,0.16,0.55,0.37,0.89,0.58c0.22,0.14,0.4,0.5,0.73,0.71c0.26,0.16,0.66,0.17,0.95,0.37c0.26,0.18,0.42,0.55,0.7,0.75
			c0.27,0.19,0.49,0.45,0.75,0.66c0.26,0.21,0.74,0.19,0.98,0.41c0.25,0.24,0.23,0.72,0.43,0.97c0.22,0.27,0.66,0.4,0.8,0.68
			c0.15,0.31,0.16,0.72,0.18,1.04c0.02,0.32-0.15,0.65-0.3,0.97C128.38,65.45,128.32,65.85,128.05,66.11z M122.57,51.84
			c-0.39-0.36,0.08-0.44,1.01-0.75c0.26-0.09,0.66,0.01,1.08-0.1c0.29-0.08,0.65-0.09,1.04-0.19c0.26-0.06,0.54-0.34,0.92-0.44
			c0.29-0.08,0.6-0.25,0.95-0.33c0.31-0.07,0.66-0.05,1-0.12c0.32-0.06,0.68,0.08,1.01,0.04c0.33-0.04,0.67,0.05,0.99,0.03
			c0.34-0.01,0.67-0.19,0.98-0.16c0.35,0.03,0.75-0.17,1.05-0.07c0.33,0.1,0.62,0.4,0.87,0.6c0.25,0.21,0.45,0.52,0.57,0.85
			c0.11,0.28,0.21,0.62,0.21,1c0,0.36-0.24,0.63-0.35,0.89c-0.13,0.3-0.37,0.41-0.62,0.59c-0.24,0.17-0.36,0.68-0.69,0.75
			c-0.28,0.07-0.64,0.08-0.98,0.09c-0.3,0.01-0.61-0.22-0.94-0.25c-0.3-0.03-0.65,0.13-0.96,0.07c-0.3-0.05-0.57-0.33-0.88-0.4
			c-0.3-0.07-0.58-0.22-0.89-0.3c-0.3-0.08-0.7,0.15-1,0.05c-0.3-0.1-0.49-0.53-0.78-0.63c-0.3-0.11-0.71,0.06-0.98-0.04
			c-0.31-0.12-0.56-0.34-0.83-0.45c-0.33-0.13-0.57-0.37-0.81-0.48C123.02,51.86,122.92,52.16,122.57,51.84z"/>
	</g>
	<path class="st0" d="M128.68,92.48c-0.29-0.08-0.6-0.16-0.94-0.25c-0.29-0.08-0.66,0.04-0.99-0.06c-0.3-0.08-0.62-0.16-0.94-0.25
		c-0.3-0.08-0.61-0.2-0.93-0.29c-0.3-0.09-0.51-0.53-0.83-0.62c-0.3-0.09-0.66-0.02-0.98-0.11c-0.31-0.09-0.59-0.29-0.9-0.38
		c-0.31-0.09-0.71,0.1-1.02,0c-0.31-0.1-0.51-0.54-0.81-0.64c-0.31-0.1-0.72,0.09-1.03-0.02c-0.31-0.11-0.6-0.27-0.9-0.38
		c-0.31-0.11-0.51-0.5-0.81-0.61c-0.3-0.12-0.67-0.07-0.97-0.19c-0.31-0.12-0.56-0.35-0.86-0.47c-0.3-0.13-0.69-0.07-0.98-0.2
		c-0.3-0.14-0.52-0.43-0.8-0.57c-0.3-0.15-0.56-0.34-0.84-0.5c-0.28-0.16-0.5-0.42-0.78-0.57c-0.28-0.16-0.55-0.34-0.83-0.5
		c-0.28-0.16-0.67-0.12-0.95-0.28c-0.28-0.16-0.51-0.41-0.78-0.57c-0.28-0.16-0.55-0.33-0.83-0.49c-0.28-0.16-0.68-0.11-0.96-0.27
		c-0.28-0.16-0.5-0.42-0.78-0.58c-0.28-0.16-0.5-0.42-0.78-0.58c-0.28-0.16-0.67-0.13-0.95-0.29c-0.28-0.16-0.54-0.34-0.82-0.5
		c-0.28-0.16-0.61-0.23-0.89-0.39c-0.28-0.16-0.46-0.48-0.74-0.64c-0.28-0.16-0.45-0.51-0.73-0.67c-0.28-0.16-0.54-0.36-0.82-0.52
		c-0.28-0.16-0.75,0.02-1.03-0.13c-0.28-0.16-0.6-0.25-0.88-0.4c-0.28-0.15-0.48-0.45-0.77-0.6c-0.28-0.15-0.43-0.57-0.71-0.71
		c-0.29-0.15-0.71-0.02-1-0.17c-0.29-0.14-0.49-0.46-0.78-0.6c-0.29-0.14-0.73,0.03-1.02-0.11c-0.29-0.14-0.54-0.35-0.83-0.49
		c-0.29-0.13-0.46-0.55-0.75-0.68c-0.29-0.13-0.72,0.06-1.02-0.07c-0.29-0.13-0.42-0.65-0.72-0.78c-0.3-0.12-0.7,0.02-1-0.1
		c-0.3-0.12-0.51-0.47-0.81-0.58c-0.3-0.11-0.73,0.12-1.03,0.01c-0.3-0.11-0.64-0.1-0.94-0.21c-0.3-0.1-0.48-0.57-0.79-0.67
		c-0.3-0.1-0.68,0.03-0.99-0.07c-0.3-0.09-0.56-0.36-0.87-0.45c-0.31-0.09-0.67,0.01-0.98-0.08c-0.31-0.08-0.54-0.47-0.85-0.55
		c-0.31-0.08-0.67,0.04-0.98-0.04c-0.31-0.07-0.58-0.35-0.9-0.42c-0.31-0.07-0.66,0.03-0.98-0.03c-0.31-0.06-0.65-0.01-0.97-0.07
		c-0.31-0.06-0.61-0.22-0.93-0.28c-0.31-0.05-0.68,0.17-0.99,0.12c-0.32-0.05-0.57-0.51-0.89-0.55c-0.31-0.04-0.64-0.06-0.96-0.1
		c-0.32-0.04-0.66,0.17-0.98,0.13c-0.32-0.03-0.65,0.11-0.97,0.08c-0.32-0.03-0.61-0.31-0.94-0.33c-0.32-0.03-0.65,0.08-0.97,0.06
		c-0.32-0.02-0.62-0.34-0.94-0.36c-0.32-0.02-0.66,0.32-0.98,0.3c-0.03,0-0.05-0.18-0.08-0.18c-0.32,0.01-0.66-0.14-0.97-0.12
		c-0.32,0.02-0.63,0.21-0.95,0.23c-0.32,0.02-0.66-0.16-0.98-0.13c-0.32,0.03-0.64,0.06-0.96,0.09c-0.32,0.03-0.6,0.43-0.92,0.46
		c-0.32,0.04-0.63,0.15-0.95,0.19c-0.32,0.04-0.63,0.08-0.95,0.13c-0.32,0.04-0.7-0.3-1.01-0.26c-0.32,0.05-0.59,0.4-0.9,0.45
		c-0.32,0.05-0.7-0.23-1.01-0.18c-0.32,0.06-0.6,0.28-0.92,0.35c-0.32,0.06-0.63,0.15-0.94,0.22c-0.32,0.07-0.61,0.2-0.92,0.28
		c-0.31,0.07-0.63,0.14-0.94,0.22C56.62,73,56.31,73.08,56,73.16c-0.31,0.08-0.69-0.07-1,0.02c-0.31,0.09-0.55,0.4-0.86,0.49
		c-0.31,0.09-0.62,0.16-0.93,0.26c-0.31,0.1-0.6,0.25-0.9,0.35c-0.3,0.1-0.58,0.28-0.88,0.38c-0.3,0.11-0.68,0.01-0.98,0.12
		c-0.3,0.11-0.57,0.3-0.87,0.42c-0.3,0.12-0.58,0.27-0.88,0.4c-0.3,0.12-0.63,0.16-0.92,0.29c-0.3,0.13-0.54,0.38-0.83,0.51
		c-0.29,0.13-0.52,0.39-0.82,0.53c-0.29,0.13-0.66,0.11-0.94,0.25c-0.29,0.14-0.7,0.04-0.99,0.18c-0.29,0.14-0.55,0.34-0.84,0.49
		c-0.29,0.14-0.46,0.51-0.74,0.66c-0.28,0.15-0.65,0.14-0.93,0.29c-0.28,0.15-0.44,0.54-0.72,0.7c-0.28,0.15-0.64,0.17-0.92,0.32
		c-0.28,0.15-0.48,0.45-0.76,0.61c-0.28,0.16-0.68,0.1-0.96,0.26c-0.28,0.16-0.52,0.38-0.8,0.53c-0.28,0.16-0.57,0.29-0.85,0.45
		c-0.28,0.16-0.47,0.46-0.75,0.62c-0.28,0.16-0.64,0.17-0.92,0.33c-0.28,0.16-0.59,0.25-0.87,0.41c-0.28,0.16-0.58,0.29-0.86,0.45
		c-0.28,0.16-0.38,0.61-0.66,0.77c-0.28,0.16-0.76-0.03-1.04,0.13c-0.28,0.16-0.46,0.48-0.74,0.64c-0.28,0.16-0.56,0.32-0.84,0.48
		c-0.28,0.16-0.56,0.3-0.84,0.46c-0.28,0.16-0.45,0.51-0.73,0.67c-0.28,0.16-0.5,0.42-0.78,0.58c-0.29,0.16-0.59,0.29-0.87,0.44
		c-0.29,0.16-0.7,0.07-0.98,0.22c-0.29,0.16-0.57,0.31-0.86,0.45c-0.29,0.15-0.61,0.23-0.89,0.37c-0.29,0.15-0.56,0.33-0.85,0.47
		c-0.29,0.14-0.45,0.57-0.74,0.7c-0.3,0.14-0.78-0.14-1.07-0.01c-0.3,0.13-0.59,0.27-0.88,0.39c-0.3,0.13-0.5,0.48-0.8,0.59
		c-0.31,0.12-0.69,0.01-0.99,0.12c-0.31,0.11-0.58,0.28-0.88,0.38c-0.31,0.1-0.57,0.34-0.88,0.43c-0.31,0.09-0.56,0.43-0.86,0.51
		c-0.32,0.08-0.68-0.01-0.99,0.06c-0.32,0.07-0.63,0.18-0.94,0.24c-0.32,0.06-0.66,0.03-0.97,0.07c-0.32,0.04-0.63,0.27-0.94,0.29
		c-0.33,0.03-0.66,0.07-0.97,0.08c-0.33,0.01-0.65-0.22-0.97-0.23c-0.25,0-0.43,0.15-0.61,0.31c-0.18,0.16-0.25,0.31-0.28,0.57
		c-0.03,0.26-0.04,0.47,0.11,0.66c0.15,0.19,0.32,0.42,0.58,0.46c0.06,0.01,0.38-0.15,0.97-0.15c0.26,0,0.59,0.32,0.97,0.3
		c0.29-0.01,0.59-0.29,0.94-0.32c0.3-0.03,0.59-0.22,0.94-0.27c0.3-0.04,0.64,0.12,0.98,0.07c0.3-0.05,0.64,0.01,0.97-0.05
		c0.3-0.05,0.58-0.33,0.91-0.4c0.3-0.06,0.7,0.25,1.02,0.18c0.3-0.07,0.54-0.49,0.86-0.56c0.3-0.07,0.66,0.03,0.98-0.05
		c0.3-0.08,0.66,0.02,0.98-0.07c0.3-0.08,0.63-0.13,0.94-0.22c0.3-0.08,0.57-0.33,0.89-0.43c0.3-0.09,0.6-0.23,0.91-0.33
		c0.3-0.09,0.56-0.32,0.88-0.42c0.3-0.09,0.71,0.14,1.03,0.04c0.3-0.1,0.46-0.64,0.77-0.75c0.3-0.1,0.71,0.1,1.02,0
		c0.3-0.1,0.5-0.5,0.81-0.61c0.3-0.11,0.63-0.24,0.94-0.35c0.3-0.02,0.63-0.04,0.92-0.06c0.3-0.02,0.62,0.39,0.92,0.37
		c0.3-0.02,0.59-0.16,0.89-0.18c0.3-0.02,0.61,0.11,0.91,0.09c0.3-0.02,0.58-0.36,0.88-0.38c0.3-0.02,0.63,0.3,0.93,0.28
		c0.3-0.02,0.58-0.28,0.88-0.31c0.3-0.02,0.56,0.06,0.87,0.03c0.13,0.16,0.35-0.06,0.64-0.09c0.32-0.04,0.67,0.3,1,0.28
		c0.32-0.02,0.64-0.06,0.96-0.07c0.32-0.01,0.64-0.25,0.96-0.25c0.32,0,0.64,0.16,0.96,0.17c0.32,0.01,0.63,0.18,0.95,0.2
		c0.32,0.02,0.65-0.16,0.97-0.13c0.32,0.02,0.66-0.12,0.98-0.09c0.32,0.03,0.63,0.22,0.94,0.26c0.32,0.04,0.66-0.1,0.98-0.06
		c0.32,0.04,0.62,0.22,0.94,0.26c0.32,0.04,0.62,0.17,0.94,0.22c0.32,0.05,0.68-0.2,1-0.15c0.32,0.05,0.58,0.47,0.89,0.52
		c0.32,0.05,0.68-0.2,1-0.15c0.32,0.05,0.58,0.42,0.9,0.47c0.32,0.05,0.69-0.27,1.01-0.22c0.32,0.05,0.63,0.15,0.94,0.19
		c0.32,0.05,0.61,0.27,0.93,0.31c0.34,0.04,0.69,0.02,1.03,0.06c0.34,0.04,0.68,0.12,1.02,0.16c0.34,0.03,0.67,0.24,1.01,0.26
		c0.34,0.03,0.69,0.02,1.04,0.04c0.34,0.02,0.7-0.27,1.05-0.26c0.34,0.01,0.44,0.25,0.79,0.26c-0.31,0.09-0.32,0.36-0.63,0.45
		c-0.31,0.09-0.66,0.05-0.98,0.14c-0.31,0.09-0.73-0.21-1.05-0.12c-0.32,0.08-0.61,0.22-0.93,0.3c-0.32,0.08-0.6,0.29-0.91,0.37
		c-0.31,0.08-0.66,0.03-0.98,0.1c-0.32,0.08-0.62,0.2-0.94,0.27c-0.32,0.07-0.6,0.31-0.92,0.38c-0.32,0.07-0.64,0.1-0.96,0.17
		c-0.32,0.07-0.68-0.08-1-0.01c-0.32,0.07-0.59,0.37-0.91,0.43c-0.32,0.06-0.65,0.08-0.97,0.14c-0.32,0.06-0.61,0.29-0.93,0.34
		c-0.32,0.05-0.63,0.2-0.95,0.25c-0.32,0.05-0.65,0.07-0.97,0.11c-0.32,0.05-0.66-0.01-0.98,0.04c-0.32,0.04-0.63,0.22-0.96,0.26
		c-0.33,0.04-0.67-0.07-0.99-0.04c-0.35,0.03-0.71,0.19-1.06,0.21c-0.3,0.01-0.6-0.05-0.9-0.05s-0.6-0.34-0.9-0.32
		c-0.17,0.01-0.26,0.4-0.38,0.48c-0.2,0.01-0.43-0.11-0.63-0.1c-0.41,0.03-0.9,0.15-1.05,0.44c-0.17,0.32,0.11,0.78,0.26,1.08
		c0.14,0.29,0.36,0.63,0.79,0.61c0.33-0.02,0.68,0.04,1.01,0.02c0.33-0.02,0.67-0.03,1-0.06c0.33-0.03,0.63-0.47,0.96-0.5
		c0.33-0.03,0.67-0.07,1-0.1c0.33-0.03,0.67,0.02,0.99-0.01c0.33-0.03,0.66,0.01,0.99-0.02c0.33-0.03,0.67,0.25,1,0.22
		c0.32,0,0.63-0.11,0.94-0.11c0.32,0,0.64-0.13,0.96-0.13c0.32,0,0.64-0.03,0.96-0.02c0.32,0.01,0.63,0.26,0.95,0.27
		c0.32,0.01,0.65-0.29,0.96-0.28c0.32,0.01,0.64-0.12,0.96-0.1c0.32,0.01,0.63,0.25,0.95,0.27c0.32,0.01,0.64,0.04,0.96,0.06
		c0.32,0.01,0.63,0.26,0.95,0.28c0.32,0.01,0.65-0.33,0.97-0.31c0.32,0.01,0.63,0.22,0.95,0.24c0.32,0.02,0.63,0.16,0.95,0.18
		c0.32,0.02,0.64-0.03,0.96-0.01c0.32,0.02,0.65-0.3,0.97-0.28c0.32,0.02,0.62,0.27,0.94,0.29c0.32,0.02,0.64-0.02,0.96,0
		c0.32,0.02,0.62,0.3,0.94,0.32c0.32,0.02,0.65-0.22,0.97-0.2c0.32,0.02,0.64,0.02,0.96,0.04c0.32,0.02,0.64-0.07,0.96-0.06
		c0.32,0.02,0.63,0.16,0.95,0.17c0.32,0.02,0.64-0.06,0.96-0.04c0.32,0.01,0.63,0.1,0.95,0.11c0.32,0.01,0.64-0.09,0.96-0.08
		c0.32,0.01,0.63,0.31,0.95,0.32c0.32,0.01,0.65-0.36,0.97-0.35c0.31,0.01,0.62,0.38,0.93,0.39c0.31,0,0.63-0.05,0.94-0.05
		c0.32,0,0.63,0.08,0.95,0.07c0.31-0.01,0.61-0.45,0.93-0.46c0.31-0.01,0.65,0.39,0.96,0.37c0.31-0.02,0.63-0.04,0.94-0.07
		s0.63-0.02,0.94-0.05c0.31-0.03,0.62-0.16,0.93-0.19c0.31-0.04,0.59-0.38,0.9-0.42c0.31-0.04,0.66,0.16,0.97,0.12
		c0.31-0.04,0.62-0.08,0.94-0.12c0.31-0.05,0.62-0.09,0.93-0.14c0.31-0.05,0.62-0.1,0.93-0.15c0.31-0.06,0.58-0.31,0.89-0.38
		c0.31-0.06,0.68,0.21,0.99,0.14c0.31-0.06,0.53-0.51,0.84-0.58c0.31-0.07,0.64,0,0.95-0.07c0.31-0.07,0.58-0.29,0.88-0.36
		c0.3-0.07,0.64-0.04,0.94-0.11c0.3-0.08,0.63-0.05,0.94-0.13c0.3-0.08,0.62-0.1,0.93-0.18c0.3-0.08,0.57-0.31,0.87-0.39
		c0.3-0.08,0.66,0.04,0.97-0.04c0.3-0.08,0.54-0.38,0.85-0.46c0.3-0.09,0.64-0.05,0.94-0.14c0.3-0.09,0.58-0.25,0.88-0.34
		c0.3-0.09,0.6-0.2,0.9-0.3c0.3-0.09,0.63-0.09,0.93-0.19c0.3-0.09,0.62-0.14,0.92-0.23c0.3-0.09,0.49-0.52,0.79-0.61
		c0.3-0.09,0.64-0.05,0.94-0.14c0.3-0.1,0.62-0.11,0.92-0.21c0.33-0.11,0.27-0.43,0.32-0.7c0.06-0.29,0.09-0.45-0.1-0.66
		c-0.18-0.2-0.39-0.59-0.74-0.48c-0.3,0.1-0.56,0.33-0.86,0.43c-0.3,0.1-0.62,0.13-0.92,0.23c-0.3,0.1-0.59,0.24-0.88,0.33
		c-0.3,0.09-0.66,0-0.96,0.1c-0.3,0.09-0.55,0.34-0.85,0.44c-0.3,0.09-0.59,0.23-0.89,0.32c-0.3,0.09-0.54,0.41-0.84,0.5
		c-0.3,0.09-0.71-0.18-1.01-0.09c-0.3,0.09-0.63,0.08-0.94,0.16c-0.3,0.08-0.52,0.46-0.83,0.54c-0.3,0.08-0.61,0.16-0.91,0.24
		c-0.3,0.08-0.63,0.08-0.94,0.15c-0.3,0.08-0.59,0.23-0.9,0.31c-0.31,0.08-0.67-0.08-0.97-0.01c-0.31,0.07-0.61,0.18-0.91,0.25
		c-0.3,0.07-0.59,0.23-0.9,0.3c-0.31,0.07-0.65-0.01-0.96,0.05c-0.31,0.06-0.6,0.21-0.91,0.27c-0.31,0.06-0.61,0.16-0.92,0.22
		c-0.31,0.05-0.63,0.06-0.94,0.11c-0.31,0.05-0.56,0.51-0.87,0.55c-0.31,0.05-0.68-0.3-0.99-0.26c-0.31,0.04-0.6,0.25-0.92,0.28
		c-0.31,0.04-0.62,0.13-0.93,0.16c-0.31,0.03-0.64-0.11-0.96-0.08c-0.31,0.03-0.61,0.25-0.93,0.28c-0.31,0.02-0.64-0.16-0.96-0.14
		c-0.31,0.02-0.62,0.26-0.93,0.27c-0.31,0.01-0.63,0.11-0.95,0.12c-0.31,0.01-0.63-0.2-0.95-0.2c-0.31,0-0.63,0.1-0.95,0.09
		c-0.32-0.01-0.63-0.17-0.94-0.18c-0.31-0.01-0.62-0.06-0.94-0.07c-0.31-0.01-0.63-0.05-0.94-0.07c-0.31-0.01-0.62-0.08-0.94-0.09
		c-0.31-0.01-0.64,0.18-0.95,0.16c-0.31-0.01-0.62-0.11-0.94-0.13c-0.31-0.02-0.64,0.2-0.95,0.18c-0.32-0.02-0.61-0.36-0.92-0.38
		c-0.31-0.02-0.64,0.14-0.95,0.12c-0.31-0.02-0.63,0.05-0.94,0.03c-0.31-0.02-0.62-0.19-0.93-0.21c-0.31-0.02-0.64,0.22-0.95,0.2
		s-0.6-0.49-0.91-0.51c-0.31-0.02-0.64,0.15-0.95,0.13c-0.31-0.02-0.43,0.06-0.74,0.04c0.32-0.05,0.46-0.01,0.78-0.06
		c0.32-0.05,0.58-0.44,0.9-0.5c0.32-0.05,0.68,0.14,1,0.09c0.32-0.06,0.63-0.18,0.95-0.23c0.32-0.06,0.67,0.05,0.99-0.01
		c0.32-0.06,0.56-0.5,0.88-0.57c0.32-0.06,0.72,0.27,1.03,0.21c0.32-0.07,0.64-0.13,0.95-0.2c0.32-0.07,0.55-0.52,0.87-0.59
		c0.32-0.07,0.64-0.08,0.96-0.15c0.32-0.07,0.68,0.07,1-0.01c0.31-0.08,0.58-0.34,0.9-0.42c0.31-0.08,0.65-0.04,0.96-0.13
		c0.31-0.09,0.62-0.15,0.93-0.25c0.31-0.09,0.69,0.04,0.99-0.06c0.3-0.1,0.46-0.66,0.76-0.76c0.3-0.1,0.59-0.24,0.89-0.35
		c0.3-0.11,0.7,0.05,1-0.06c0.3-0.11,0.53-0.42,0.83-0.53c0.3-0.12,0.63-0.14,0.93-0.25c0.3-0.12,0.69-0.01,0.98-0.13
		c0.3-0.12,0.46-0.58,0.75-0.71c0.3-0.12,0.62-0.17,0.92-0.29c0.29-0.12,0.63-0.16,0.93-0.28c0.3-0.12,0.53-0.39,0.83-0.51
		c0.29-0.12,0.55-0.34,0.85-0.47c0.3-0.13,0.74,0.09,1.03-0.04c0.3-0.13,0.56-0.32,0.86-0.44c0.3-0.12,0.51-0.46,0.8-0.58
		s0.63-0.16,0.93-0.28c0.3-0.12,0.68-0.04,0.97-0.16c0.3-0.12,0.53-0.42,0.83-0.53c0.3-0.12,0.69,0,0.99-0.11
		c0.3-0.11,0.62-0.18,0.92-0.29c0.3-0.11,0.56-0.33,0.86-0.44c0.3-0.11,0.63-0.12,0.94-0.22c0.31-0.1,0.59-0.25,0.9-0.34
		c0.31-0.1,0.51-0.55,0.82-0.63c0.31-0.09,0.72,0.21,1.03,0.12c0.31-0.08,0.63-0.1,0.95-0.17c0.31-0.07,0.59-0.3,0.9-0.37
		c0.32-0.07,0.65,0.03,0.97-0.03c0.26-0.04,0.48-0.22,0.75-0.26c0.29,0.13,0.62,0.12,0.91,0.25c0.29,0.13,0.5,0.44,0.79,0.57
		c0.29,0.13,0.59,0.23,0.88,0.36c0.29,0.13,0.73-0.09,1.02,0.04c0.29,0.13,0.41,0.65,0.7,0.77c0.29,0.12,0.65,0.08,0.95,0.2
		c0.29,0.12,0.48,0.48,0.78,0.61c0.29,0.12,0.6,0.21,0.89,0.33c0.29,0.12,0.63,0.12,0.93,0.24c0.29,0.12,0.58,0.25,0.88,0.37
		c0.29,0.12,0.66,0.06,0.95,0.18c0.29,0.12,0.63,0.11,0.93,0.23c0.29,0.11,0.55,0.32,0.85,0.44c0.29,0.11,0.59,0.23,0.88,0.34
		c0.29,0.11,0.48,0.52,0.78,0.63c0.3,0.11,0.68-0.01,0.98,0.09c0.3,0.1,0.6,0.21,0.9,0.32c0.3,0.1,0.64,0.07,0.95,0.17
		c0.3,0.1,0.57,0.28,0.88,0.38c0.3,0.1,0.61,0.17,0.91,0.26c0.3,0.09,0.58,0.28,0.88,0.37c0.3,0.09,0.6,0.21,0.9,0.3
		c0.3,0.09,0.62,0.13,0.93,0.22c0.3,0.09,0.57,0.31,0.88,0.4c0.3,0.08,0.58,0.28,0.89,0.36c0.3,0.08,0.65,0.03,0.96,0.1
		c0.3,0.08,0.6,0.23,0.91,0.3c0.31,0.08,0.64,0.03,0.96,0.11c0.31,0.07,0.64,0.04,0.95,0.11c0.31,0.07,0.6,0.24,0.91,0.31
		c0.31,0.07,0.65,0,0.96,0.06c0.31,0.06,0.55,0.45,0.87,0.52c0.31,0.06,0.72-0.37,1.03-0.31c0.31,0.06,0.58,0.36,0.89,0.41
		c0.31,0.06,0.61,0.2,0.92,0.26c0.31,0.05,0.64-0.01,0.96,0.04c0.35,0.06,0.68,0.35,0.97,0.35c0.51,0,0.68-0.42,0.8-1.02
		c0.1-0.47,0.37-0.87,0.03-1.09c-0.22-0.14-0.64-0.12-1.11-0.26C129.45,92.61,129.08,92.59,128.68,92.48z M46.48,83.05
		c0.29-0.14,0.57-0.28,0.86-0.41c0.29-0.13,0.49-0.45,0.78-0.58c0.29-0.13,0.58-0.26,0.87-0.39c0.29-0.12,0.6-0.22,0.89-0.34
		c0.3-0.12,0.73,0.11,1.02-0.01c0.3-0.11,0.54-0.38,0.83-0.49c0.3-0.11,0.63-0.12,0.93-0.22c0.3-0.1,0.51-0.49,0.81-0.59
		c0.3-0.1,0.71,0.15,1.02,0.06c0.3-0.09,0.52-0.48,0.82-0.57c0.31-0.09,0.63-0.12,0.94-0.2c0.31-0.08,0.69,0.12,0.99,0.05
		c0.31-0.08,0.58-0.32,0.88-0.39c0.31-0.07,0.64-0.03,0.95-0.1c0.31-0.07,0.58-0.34,0.89-0.4c0.31-0.06,0.66,0.05,0.97-0.01
		c0.31-0.05,0.63-0.06,0.94-0.11c0.32-0.05,0.64,0.02,0.96-0.02c0.32-0.04,0.63-0.06,0.94-0.1c0.32-0.04,0.6-0.3,0.92-0.34
		c0.32-0.03,0.64,0.04,0.96,0.01c0.32-0.03,0.63-0.05,0.95-0.07c0.32-0.02,0.62-0.29,0.94-0.31c0.32-0.02,0.64,0.08,0.96,0.07
		c0.32-0.01,0.64,0.09,0.95,0.08c0.32-0.01,0.63-0.24,0.95-0.24c0.32,0,0.64,0.03,0.95,0.03c0.32,0,0.64-0.1,0.96-0.09
		c0.32,0.01,0.63,0.21,0.95,0.22c0.32,0.02,0.62,0.26,0.94,0.28c0.32,0.02,0.63,0.1,0.94,0.12c0.32,0.03,0.67-0.32,0.98-0.29
		c0.32,0.03,0.64,0,0.95,0.04c0.32,0.04,0.67,0.31,0.98,0.35c-0.31,0.06-0.73-0.12-1.04-0.06c-0.31,0.06-0.56,0.43-0.87,0.49
		c-0.31,0.06-0.66-0.06-0.97,0c-0.31,0.07-0.54,0.47-0.85,0.54c-0.31,0.07-0.63,0.05-0.95,0.12c-0.31,0.07-0.69-0.16-0.99-0.09
		c-0.31,0.07-0.54,0.48-0.84,0.55c-0.31,0.07-0.72-0.28-1.03-0.2c-0.31,0.07-0.55,0.42-0.85,0.5c-0.31,0.08-0.68-0.09-0.98-0.01
		c-0.31,0.08-0.52,0.51-0.83,0.59c-0.31,0.08-0.58,0.27-0.89,0.35c-0.31,0.08-0.71-0.21-1.02-0.13c-0.31,0.08-0.55,0.39-0.86,0.47
		c-0.3,0.08-0.66-0.01-0.96,0.07c-0.31,0.08-0.56,0.35-0.87,0.43s-0.69-0.14-1-0.05c-0.31,0.08-0.56,0.36-0.86,0.45
		c-0.3,0.08-0.66-0.03-0.97,0.05c-0.3,0.08-0.56,0.34-0.87,0.42c-0.3,0.09-0.58,0.28-0.88,0.36c-0.3,0.09-0.64,0.06-0.94,0.15
		c-0.31,0.08-0.54,0.44-0.84,0.53c-0.3,0.09-0.72-0.23-1.03-0.15c-0.3,0.08-0.6,0.19-0.91,0.28c-0.3,0.08-0.54,0.4-0.85,0.49
		c-0.3,0.08-0.56,0.33-0.87,0.42c-0.3,0.08-0.68-0.08-0.98,0.01c-0.31,0.08-0.58,0.29-0.88,0.38c-0.31,0.08-0.69-0.13-0.99-0.05
		c-0.31,0.08-0.52,0.5-0.83,0.58c-0.31,0.08-0.66-0.02-0.97,0.06c-0.31,0.08-0.66-0.01-0.96,0.06c-0.31,0.08-0.57,0.32-0.88,0.39
		c-0.31,0.07-0.66-0.05-0.97,0.02c-0.31,0.07-0.62,0.14-0.92,0.21c-0.31,0.07-0.54,0.5-0.85,0.57c-0.31,0.07-0.6,0.21-0.91,0.28
		c-0.31,0.07-0.62,0.13-0.93,0.2c-0.31,0.06-0.7-0.27-1.01-0.21c-0.31,0.06-0.56,0.42-0.88,0.48c-0.31,0.06-0.69-0.23-1-0.17
		c-0.31,0.06-0.59,0.27-0.91,0.33c-0.31,0.05-0.62,0.13-0.93,0.18c-0.31,0.05-0.62,0.16-0.93,0.21c-0.31,0.05-0.63,0.08-0.94,0.13
		c-0.31,0.04-0.67,0.06-0.98,0.1c0.28-0.12,0.69-0.06,0.98-0.18c0.28-0.12,0.48-0.45,0.77-0.57c0.28-0.12,0.58-0.22,0.87-0.34
		c0.28-0.12,0.55-0.29,0.83-0.41c0.28-0.12,0.54-0.31,0.82-0.44c0.28-0.12,0.66-0.04,0.94-0.17c0.28-0.13,0.53-0.32,0.82-0.45
		c0.28-0.13,0.55-0.29,0.83-0.42c0.28-0.13,0.6-0.17,0.88-0.31c0.28-0.13,0.5-0.39,0.79-0.52c0.28-0.13,0.5-0.39,0.78-0.53
		c0.28-0.13,0.63-0.1,0.92-0.24c0.28-0.13,0.68-0.03,0.96-0.16C46.04,83.58,46.2,83.19,46.48,83.05z M51.3,89.83
		c-0.33-0.05-0.66-0.1-0.99-0.15c-0.33-0.05-0.69,0.1-1.02,0.05c-0.33-0.05-0.66-0.09-0.99-0.15c-0.33-0.05-0.65-0.13-0.98-0.18
		c-0.33-0.05-0.48-0.33-0.81-0.38c0.32-0.04,0.49-0.1,0.81-0.14c0.32-0.04,0.65,0.01,0.97-0.03c0.32-0.05,0.59-0.39,0.91-0.44
		c0.32-0.05,0.69,0.26,1.01,0.21c0.32-0.05,0.59-0.41,0.91-0.46c0.32-0.05,0.65-0.05,0.96-0.1c0.32-0.05,0.69,0.18,1,0.12
		c0.32-0.06,0.61-0.28,0.92-0.34c0.32-0.06,0.66-0.01,0.97-0.07c0.31-0.06,0.57-0.33,0.88-0.4c0.31-0.07,0.65,0.03,0.95-0.05
		c0.31-0.07,0.62-0.1,0.93-0.18c0.3-0.08,0.64-0.05,0.94-0.14c0.3-0.08,0.61-0.15,0.92-0.24c0.3-0.09,0.54-0.4,0.83-0.5
		c0.3-0.09,0.63-0.09,0.93-0.19c0.3-0.1,0.6-0.19,0.9-0.29c0.3-0.1,0.51-0.44,0.81-0.54c0.3-0.1,0.63-0.11,0.92-0.21
		c0.3-0.11,0.63-0.11,0.92-0.22c0.29-0.11,0.51-0.43,0.8-0.54c0.29-0.11,0.6-0.2,0.89-0.31c0.29-0.11,0.55-0.32,0.84-0.44
		c0.29-0.11,0.65-0.05,0.94-0.16c0.29-0.11,0.67-0.02,0.96-0.13c0.29-0.11,0.6-0.17,0.9-0.28c0.29-0.11,0.46-0.58,0.75-0.69
		c0.3-0.11,0.57-0.28,0.86-0.39c0.3-0.11,0.65-0.06,0.95-0.16c0.29-0.1,0.69,0.08,0.99-0.03c0.3-0.1,0.49-0.5,0.79-0.6
		c0.3-0.1,0.66-0.01,0.95-0.11c0.3-0.1,0.5-0.52,0.8-0.61c0.3-0.09,0.63-0.1,0.93-0.19c0.3-0.09,0.69,0.12,0.99,0.04
		c0.3-0.08,0.52-0.5,0.82-0.57c0.3-0.08,0.71,0.27,1.02,0.2c0.31-0.07,0.55-0.41,0.86-0.48c0.31-0.06,0.66,0.12,0.97,0.07
		c0.31-0.06,0.58-0.47,0.89-0.52c0.3,0.07,0.65,0.04,0.94,0.11c0.3,0.08,0.49,0.53,0.78,0.62c0.29,0.08,0.65-0.05,0.94,0.03
		c0.29,0.09,0.53,0.35,0.81,0.45c0.29,0.09,0.64,0.02,0.93,0.12c0.29,0.1,0.46,0.5,0.75,0.61c0.29,0.11,0.64,0.03,0.92,0.15
		c0.29,0.12,0.5,0.43,0.79,0.55c0.29,0.12,0.64,0.08,0.93,0.2c0.29,0.12,0.62,0.14,0.91,0.26c0.29,0.12,0.53,0.35,0.82,0.47
		c0.29,0.12,0.82,0.23,1.11,0.36c-0.31,0.06-0.89-0.1-1.2-0.04c-0.31,0.06-0.62,0.15-0.94,0.22c-0.31,0.07-0.58,0.37-0.89,0.44
		c-0.31,0.07-0.58,0.31-0.9,0.38c-0.31,0.07-0.68-0.1-0.99-0.03c-0.31,0.07-0.59,0.28-0.9,0.36c-0.31,0.08-0.69-0.13-1-0.06
		c-0.31,0.08-0.53,0.5-0.84,0.58c-0.31,0.08-0.66-0.01-0.97,0.07c-0.31,0.08-0.66,0-0.97,0.09c-0.31,0.09-0.57,0.33-0.88,0.42
		c-0.31,0.09-0.67-0.02-0.98,0.07c-0.31,0.09-0.62,0.18-0.92,0.27c-0.31,0.09-0.51,0.53-0.81,0.62c-0.31,0.09-0.59,0.26-0.89,0.35
		c-0.31,0.09-0.61,0.19-0.92,0.28c-0.3,0.09-0.73-0.19-1.03-0.1c-0.31,0.09-0.52,0.48-0.83,0.57c-0.3,0.1-0.71-0.14-1.02-0.04
		c-0.3,0.1-0.56,0.35-0.87,0.45c-0.3,0.1-0.6,0.21-0.91,0.31c-0.3,0.1-0.59,0.26-0.89,0.35c-0.3,0.1-0.61,0.19-0.92,0.28
		c-0.3,0.1-0.61,0.19-0.92,0.29c-0.3,0.1-0.69-0.04-0.99,0.06c-0.3,0.1-0.54,0.41-0.84,0.51c-0.3,0.1-0.62,0.17-0.92,0.27
		c-0.3,0.1-0.6,0.24-0.9,0.34c-0.31,0.05-0.62,0.17-0.93,0.22c-0.31,0.04-0.66-0.14-0.97-0.1c-0.32,0.04-0.62,0.15-0.94,0.17
		c-0.32,0.03-0.63,0.09-0.94,0.11c-0.32,0.02-0.64-0.05-0.96-0.04c-0.32,0.01-0.63,0.16-0.95,0.17c-0.32,0.01-0.64,0.15-0.95,0.15
		c-0.32,0-0.63-0.18-0.95-0.19c-0.32-0.01-0.62-0.29-0.94-0.3c-0.32-0.01-0.63,0.03-0.95,0.01c-0.32-0.02-0.65,0.21-0.97,0.18
		c-0.32-0.02-0.62-0.23-0.93-0.26c-0.32-0.03-0.66,0.21-0.97,0.17c-0.32-0.03-0.61-0.23-0.93-0.26c-0.31-0.04-0.65,0.08-0.97,0.04
		c-0.31-0.04-0.59-0.33-0.91-0.38C51.95,89.83,51.62,89.88,51.3,89.83z"/>
</g>
</svg>
