<svg xmlns="http://www.w3.org/2000/svg" viewBox="0 0 436.12 307.93"><g id="Layer_2" data-name="Layer 2"><g id="design"><path d="M61.73,169.19c-14-.07-27.31,11.1-29.62,25-.86,5.18-.12,11,3.61,14.72A16.88,16.88,0,0,0,44,213c13.61,3.06,28.86-4.1,35.21-16.54,4.94-9.67,3.08-23.91-6.9-28.2" fill="#fff"/><path d="M373.08,172.88c-10.76,9.9-9.29,29.85,2.81,38.07s31.18,2.24,36.43-11.41a15.08,15.08,0,0,0,.75-9.7,17.66,17.66,0,0,0-4.41-6.77,50.21,50.21,0,0,0-30.06-15.19" fill="#fff"/><path d="M431.59,139.4c-.21-.82-.5-1.59-.75-2.39s0-1.77-.24-2.56-.38-1.66-.7-2.44-1.13-1.34-1.49-2.1-1-1.38-1.35-2.13-.58-1.58-1-2.3-.42-1.72-.87-2.43-.68-1.59-1.16-2.28-1.37-1.1-1.88-1.77-1.58-.88-2.12-1.52-.8-1.51-1.36-2.14-1.07-1.29-1.66-1.89-1.25-1.12-1.85-1.7-.87-1.53-1.49-2.1-1.05-1.38-1.68-1.92-2-.21-2.68-.74-1.26-1.09-1.93-1.6-1-1.47-1.67-2-1.69-.53-2.38-1-1.07-1.42-1.77-1.87-1.33-1.07-2-1.51-1.9-.12-2.62-.55-1-1.64-1.72-2-1.86-.12-2.59-.52-1.35-1.06-2.09-1.44-1.36-1.06-2.1-1.42-1.27-1.29-2-1.64-1.82-.12-2.57-.45-1.58-.65-2.34-1-1.62-.53-2.38-.83-1.76-.21-2.51-.49-1.54-.8-2.29-1.07-1.42-1.22-2.15-1.47c-.91-.31-1.73-.54-2.4-.75-1.54-.49-1.36.13-2.56-.24-.81-.29-1.55-.81-2.33-1.09s-1.37-1.26-2.15-1.55-2,.41-2.76.11-1.48-.93-2.25-1.24-1.79-.13-2.57-.44-1.48-.9-2.25-1.22-1.29-1.36-2.05-1.69-1.9.08-2.67-.27-1.49-.85-2.25-1.21-1.24-1.34-2-1.72-1.8-.2-2.54-.59-1.52-.78-2.26-1.19-1.59-.65-2.32-1.08-1.35-1.07-2.07-1.52-1.2-1.26-1.91-1.73-1.31-1.07-2-1.55-1.43-.89-2.12-1.39-1.39-1-2.07-1.46-1.58-.72-2.25-1.25-.94-1.51-1.61-2.06-1.93-.3-2.59-.85-.82-1.62-1.47-2.19-1.06-1.33-1.7-1.9-1.35-1-2-1.58-1.08-1.3-1.72-1.88-1.74-.58-2.38-1.16-1.55-.8-2.18-1.38-.44-2-1.07-2.58-1.7-.65-2.33-1.24-1.19-1.2-1.81-1.79-.82-1.58-1.44-2.18-1.53-.82-2.16-1.42-1.12-1.25-1.75-1.85-1.57-.79-2.19-1.38-1-1.36-1.66-2-.85-1.54-1.47-2.14-1.25-1.14-1.87-1.74-2-.39-2.59-1-1-1.37-1.67-1.94S286,27,285.4,26.47s-1.49-.9-2.14-1.44-1.92-.36-2.58-.89-1.09-1.37-1.76-1.89-1.34-1.05-2-1.55-.9-1.71-1.6-2.18-1.77-.45-2.48-.91-1.67-.57-2.39-1-1.23-1.27-2-1.7-1.5-.83-2.24-1.24-1.3-1.21-2.05-1.6-1.54-.79-2.3-1.16-1.71-.4-2.47-.76-1.73-.34-2.5-.67-1.4-1.09-2.19-1.4-1.63-.55-2.42-.85-1.62-.57-2.41-.85-1.56-.77-2.36-1-1.91.37-2.71.13S243.43,4,242.62,3.82,241,3.15,240.19,3s-1.86.4-2.68.22-1.64-.57-2.46-.72-1.6-.85-2.43-1-1.74,0-2.57-.13-2,.67-2.82.58c-.12,0,.6-1.35.49-1.4-1.1-.48-1-.16-2.58-.27-.67,0-1.48-.21-2.41-.25-.72,0-1.55.47-2.42.46s-1.55.19-2.4.21-1.65-.09-2.4-.09-1.7-.4-2.42-.37c-.93,0-1.66,1.25-2.33,1.3-1.54.12-1.15-.52-2.24,0-.12.05.13.27,0,.32-.83.1-1.8.27-2.66.39s-1.77-.46-2.63-.32-1.61.56-2.46.73-1.68.24-2.52.42-1.76-.06-2.6.14-1.57.71-2.4.93-1.6.6-2.43.84-1.62.49-2.44.76-1.82-.08-2.63.2-1.3,1.41-2.11,1.72-1.46.88-2.26,1.2-2-.31-2.76,0-1.31,1.22-2.09,1.58-1.45.9-2.22,1.27-1.73.33-2.5.72-1.66.5-2.41.92-1.42,1-2.17,1.39-1.62.62-2.35,1.07-1,1.54-1.76,2-1.55.75-2.25,1.23-1.19,1.27-1.88,1.77-1.72.54-2.41,1.05-1.37,1-2,1.56-.68,1.85-1.34,2.4-2.05.21-2.7.77-.9,1.55-1.54,2.13-1.48.91-2.11,1.51-1.51.88-2.12,1.46-1.09,1.34-1.69,1.91-1.19,1.24-1.79,1.82-1.05,1.38-1.65,2-.8,1.64-1.41,2.22-1.79.6-2.4,1.18-1.41,1-2,1.57-.88,1.57-1.48,2.14-1.72.68-2.33,1.25-.63,1.83-1.24,2.4-1.44,1-2,1.53-.85,1.61-1.46,2.17-1.39,1-2,1.58-1.84.51-2.46,1.07-.87,1.6-1.49,2.15-1.43,1-2.06,1.52-1,1.52-1.6,2.06-2,.31-2.61.83-.71,1.85-1.37,2.37-1.65.66-2.32,1.16-1.43.93-2.11,1.42-1.63.63-2.32,1.11-1.27,1.14-2,1.61-1.23,1.21-2,1.66S99.76,71.65,99,72.08s-1.66.51-2.4.92-1.83.16-2.58.55-1.47.8-2.24,1.18-1.07,1.66-1.84,2-1.64.49-2.42.84-1.82,0-2.61.37S83.58,79,82.78,79.37s-1.41,1-2.21,1.31-1.5.78-2.3,1.09-1.8,0-2.61.31-1.66.35-2.47.65-1.45.91-2.27,1.21-1.43,1-2.25,1.33c-1.2.37-.83.36-2.37.85-.68.21-1.85-.67-2.77-.35-.73.24-1.38.93-2.24,1.24s-1.47.75-2.3,1.07-1.37,1-2.18,1.32-1.7.23-2.49.57-1.79.06-2.58.41-1.12,1.53-1.9,1.9-1.64.42-2.4.8-1.35,1-2.1,1.43-1.63.48-2.38.88-1.17,1.34-1.91,1.76-1.51.7-2.24,1.13-1.71.41-2.43.85-1.19,1.26-1.89,1.72-1.24,1.14-1.94,1.62-2.11-.07-2.79.43-1.29,1.11-2,1.63-.82,1.67-1.47,2.21-1.62.68-2.26,1.24-.74,1.68-1.36,2.25-2,.35-2.59.93-1.07,1.33-1.65,1.94-1,1.37-1.57,2-.65,1.65-1.19,2.3-1.73.77-2.24,1.44-.81,1.5-1.3,2.18-1.09,1.31-1.54,2-.45,1.69-.88,2.42-1.31,1.2-1.7,1.94-.53,1.63-.88,2.39-1,1.42-1.3,2.2-.09,1.76-.37,2.56-1.13,1.4-1.38,2.21-.52,1.61-.72,2.44.58,1.9.39,2.73-.92,1.56-1.1,2.39-.64,1.63-.79,2.47.16,1.78,0,2.61-.15,1.72-.27,2.56-.13,1.71-.22,2.55S1.05,156.2,1,157s.11,1.73.06,2.57-.66,1.69-.7,2.53.59,1.73.58,2.58-.78,1.72-.77,2.56S0,169,0,169.87s.15,1.73.23,2.57.72,1.66.82,2.5.28,1.7.42,2.53-.54,1.86-.38,2.69.32,1.72.52,2.54,1,1.55,1.2,2.36,1,1.48,1.3,2.28S4,189.21,4.3,190s1.07,1.43,1.41,2.2,1.09,1.37,1.46,2.13.06,1.9.47,2.64S9,198.18,9.4,198.9s.47,1.74.95,2.44.94,1.46,1.46,2.13,1.5,1,2,1.64.48,1.89,1.06,2.51,1.83.61,2.44,1.2,1.44.94,2.08,1.5.85,1.64,1.51,2.17,1.78.47,2.47,1,1.17,1.29,1.87,1.76,1.42.95,2.15,1.39,1.09,1.49,1.82,1.89,1.47.86,2.21,1.23,1.7.4,2.45.75,1.62.51,2.39.83,1.61.49,2.39.79,1.46.92,2.25,1.18,1.76,0,2.56.24,1.42,1.15,2.24,1.35,1.6.59,2.42.76,1.85-.77,2.68-.63,1.55.87,2.39,1,1.69-.07,2.53,0,1.65.22,2.49.27,1.67.06,2.51.08,1.66.76,2.51.76,1.69.05,2.53,0,1.66-.45,2.51-.49,1.71.38,2.55.32,1.62-.72,2.46-.81,1.73.35,2.57.25,1.52-1.22,2.36-1.34,1.61-.47,2.44-.6,1.81.69,2.64.54,1.63-.38,2.47-.54,1.68-.1,2.51-.27,1.56-.73,2.39-.9,1.74.13,2.57-.06,1.5-.91,2.33-1.1,1.69-.12,2.51-.32,1.51-.88,2.33-1.09,1.82.36,2.64.14,1.6-.51,2.42-.73,1.46-1,2.27-1.25,1.47-1.13,2.28-1.37,1.76-.1,2.58-.34,1.57-.75,2.39-1,1.94.52,2.76.27,1.67-.42,2.48-.67,1.55-.82,2.36-1.07,1.44-1.17,2.25-1.42,1.86.2,2.67-.06,1.7-.31,2.52-.57l2.47-.73c.81-.26,1.61-.57,2.43-.83s1.41-1.22,2.23-1.47,1.63-.53,2.45-.78,1.67-.37,2.49-.62,1.81.1,2.63-.15,1.47-1.05,2.3-1.29,1.68-.34,2.5-.58,1.53-.88,2.35-1.1,1.91.52,2.74.3,1.47-1.1,2.3-1.32,1.58-.75,2.41-1,1.69-.27,2.53-.47,1.69-.28,2.52-.47,1.82.3,2.66.12,1.44-1.42,2.28-1.6,1.83.39,2.67.22,1.64-.51,2.48-.67,1.66-.42,2.51-.57,1.62-.64,2.47-.78,1.7-.2,2.55-.33,1.72-.08,2.57-.21,1.66-.43,2.52-.54,1.8.67,2.66.57,1.56-1.3,2.42-1.4,1.73.13,2.59.05,1.78.65,2.64.57,1.61-1.06,2.48-1.13,1.75.56,2.61.5,1.67-.57,2.53-.63,1.72.2,2.58.15,1.7-.18,2.56-.22,1.69-.56,2.55-.59,1.72.15,2.58.13,1.71.81,2.58.8,1.71-.49,2.56-.46,1.71.38,2.56.41,1.71.16,2.56.2,1.73-.35,2.58-.3,1.71.3,2.55.35,1.7.37,2.55.44,1.77-.61,2.61-.54,1.69.45,2.54.52,1.66.67,2.5.76,1.73,0,2.57.06,1.71.15,2.56.25,1.66.48,2.5.59,1.71.16,2.55.29,1.83-.62,2.67-.49,1.71.18,2.55.32,1.67.44,2.51.59,1.53,1.17,2.36,1.33,1.76-.06,2.59.11,1.63.59,2.46.77,1.68.32,2.52.5,1.79-.19,2.62,0,1.57.84,2.39,1,1.61.64,2.44.84,1.87-.39,2.7-.18,1.7.29,2.52.52,1.43,1.26,2.25,1.48,1.73.17,2.55.41,1.71.24,2.53.48,1.58.72,2.4,1,1.89-.36,2.71-.11,1.59.66,2.41.91l2.46.74c.81.25,1.38,1.31,2.2,1.56s1.85-.19,2.66.06,1.7.31,2.51.57,1.32,1.5,2.14,1.76,1.86-.22,2.68,0,1.47,1,2.29,1.27,1.61.54,2.43.79,1.87-.27,2.69,0,1.56.74,2.38,1,1.53.85,2.35,1.09,1.78,0,2.61.23,1.66.38,2.49.62,1.53.79,2.33,1,1.44,1.15,2.25,1.36,1.68.25,2.48.46,1.86-.47,2.67-.27,1.39,1.43,2.2,1.62,1.73,0,2.54.19,1.55.85,2.36,1,1.76-.14,2.57,0,1.61.58,2.42.73,1.79-.4,2.61-.26,1.59.73,2.41.86,1.6.7,2.43.82,1.67.31,2.49.41,1.7.15,2.52.23,1.78-.94,2.61-.88,1.66.34,2.49.39,1.67.15,2.5.17,1.68.54,2.51.54,1.7.25,2.53.22,1.64-1.09,2.47-1.15,1.68.11,2.51,0,1.76.56,2.58.45,1.53-1.14,2.35-1.28,1.78.39,2.6.22,1.54-.81,2.35-1,1.51-.76,2.31-1,1.75,0,2.54-.26,1.76-.08,2.54-.38,1.27-1.34,2-1.67,1.43-.86,2.19-1.22,2,.33,2.77-.05,1.19-1.33,1.93-1.74,1.58-.62,2.3-1,1.2-1.28,1.93-1.76,1.66-.58,2.36-1.09,1.68-.63,2.36-1.17.62-1.91,1.27-2.48,1.52-.85,2.14-1.45,1.69-.74,2.28-1.37.88-1.53,1.44-2.19.89-1.47,1.42-2.16.68-1.59,1.17-2.3.93-1.4,1.39-2.13,1.58-1,2-1.8.63-1.6,1-2.38.27-1.74.61-2.54.64-1.56,1-2.37.66-1.55.94-2.37,1.07-1.45,1.31-2.28.31-1.69.51-2.53.82-1.57,1-2.43-.78-1.86-.65-2.72.58-1.62.69-2.48.45-1.66.52-2.52-.27-1.72-.22-2.58-.08-1.69-.07-2.56,0-1.68,0-2.55,1.2-1.73,1.16-2.6-1.34-1.64-1.4-2.5.27-1.72.19-2.59-.26-1.68-.36-2.54,0-1.71-.11-2.57-.48-1.64-.62-2.5-.3-1.67-.46-2.53.15-1.76,0-2.61-.77-1.58-1-2.42S431.79,140.24,431.59,139.4ZM17.47,162.74a9.87,9.87,0,0,1,.28-2.7c.26-.89,1.21-1.46,1.75-2.09a6.36,6.36,0,0,1,2.12-1.35c.73-.37,1.39-1.13,2.27-1.32a17.06,17.06,0,0,1,2.58-.61c.83,0,1.74.2,2.62.24s1.67.64,2.53.73,1.65.54,2.49.68,1.79-.15,2.61,0,1.88-.3,2.68-.11,1.66.78,2.42,1c1,.25,1.79.55,2.46.72.88.22,1.7.3,2.42.5.9.24,1.55.95,2.24,1.15a23.13,23.13,0,0,1,2.22,1c2.13.76,3.7.22,2.78,1s-1,.46-2.5,1.1c-.67.29-1.68.12-2.57.48-.72.31-1.31,1.14-2.15,1.48s-1.76.07-2.58.37-1.63.41-2.45.69-1.33,1.4-2.15,1.65-1.88-.38-2.7-.15-1.46,1.23-2.28,1.42-1.75.09-2.57.25-1.75,0-2.57.08-1.74-.43-2.56-.4-1.73.66-2.52.57a10.53,10.53,0,0,1-2.51-.5,6.56,6.56,0,0,1-2.29-1.19c-.6-.56-1.56-1.19-1.86-2A9.35,9.35,0,0,1,17.47,162.74ZM37,205.84a9.64,9.64,0,0,1-1.77-2.06c-.46-.8-.23-1.89-.31-2.71a6.29,6.29,0,0,1,.48-2.48A9.83,9.83,0,0,1,36,196a16.74,16.74,0,0,1,1.34-2.28c.54-.64,1.34-1.13,2-1.74s1.61-.77,2.28-1.33,1.52-.83,2.2-1.34,1.12-1.4,1.81-1.88,1.08-1.57,1.77-2,1.7-.67,2.37-1.08c.85-.53,1.63-.92,2.22-1.3.76-.48,1.39-1,2-1.41s1.75-.47,2.37-.82a21.47,21.47,0,0,1,2.3-.89c2-1,2.7-2.54,2.66-1.31s-.39,1.08-.93,2.57c-.24.69-1.07,1.3-1.42,2.2-.27.73-.07,1.73-.41,2.57s-1.16,1.32-1.5,2.13-.83,1.46-1.19,2.25.1,1.92-.28,2.69-1.57,1.11-2,1.87-.11,1.89-.53,2.62-1.14,1.34-1.6,2-1.22,1.25-1.71,1.92-1.51,1-2.05,1.58-.7,1.7-1.32,2.22a10.94,10.94,0,0,1-2.08,1.48,6.68,6.68,0,0,1-2.45.84,5.86,5.86,0,0,1-2.76-.06A9.16,9.16,0,0,1,37,205.84Zm14.81-65.48c-.59-.37-1.38-.75-2.23-1.28-.66-.42-1.1-1.36-1.87-1.86s-1.29-1.11-2-1.62S44,135,43.26,134.51s-1.54-.85-2.2-1.4-1.17-1.33-1.78-1.92-.85-1.61-1.39-2.24a16.79,16.79,0,0,1-1.22-2.22c-.47-.77-1.22-1.3-1.46-2.08s-1.05-1.74-1-2.59a7.37,7.37,0,0,1,1.19-2.49,9.63,9.63,0,0,1,1.71-2A8.48,8.48,0,0,1,39.23,116a5.4,5.4,0,0,1,2.59,0,6,6,0,0,1,2.2,1c.71.36,2-.1,2.74.48a19.59,19.59,0,0,1,1.83,1.9c.54.6.65,1.64,1.17,2.35s1.44,1.06,1.91,1.79.41,1.74.84,2.48.68,1.56,1.08,2.31,1.59,1.11,2,1.87-.09,1.94.26,2.7,1.44,1.25,1.77,2,.4,1.72.7,2.48.35,1.75.63,2.49.07,1.9.31,2.58c.54,1.5,1.42.92,1.45,2.19s-.31.23-2.32-.8c-.57-.29-1.35-.55-2.24-1.06-.61-.36-1.56-.38-2.35-.87S52.53,140.85,51.77,140.36Zm151.16-74.3c0,1.31.06,1.3,0,2.61s-.58,1.31-.6,2.62-.24,1.3-.26,2.62.5,1.32.48,2.63.24,1.31.22,2.62-.26,1.31-.28,2.62S202,83.09,202,84.4s-.34,1.3-.36,2.61.45,1.32.43,2.64.68,1.32.66,2.63-.38,1.31-.4,2.62-.09,1.32-.11,2.63.11,1.32.08,2.64-.54,1.24-.57,2.5-.36,1.25-.4,2.51,1.12,1.29,1.09,2.54-.1,1.26-.14,2.52-.6,1.24-.63,2.5.52,1.27.49,2.53-.61,1.25-.64,2.51-.21,1.25-.25,2.5.87,1.29.83,2.54-.95,1.24-1,2.5.77,1.28.73,2.54-.33,1.25-.37,2.51-.36,1.25-.39,2.52-.68,1.26-.67,2.53.71,1.23.76,2.46.1,1.24.15,2.47.19,1.24.24,2.48.52,1.22.57,2.45-.14,1.25-.09,2.49-.63,1.27-.58,2.51a20.45,20.45,0,0,1,.14,2.47c0,1.23.34,1.25.26,2.48s-.29,1.3-.34,2.62-.76,1.29-.81,2.61,1,1.35,1,2.67-.4,1.31-.44,2.63.47,1.34.42,2.66c0,.91-.34,1.72-.36,2.45,0,.94-.84,1.7-.9,2.4-.09,1,.6,1.9.41,2.57a6.88,6.88,0,0,1-1.28,2.22c-.42.56-1.47.67-2.17,1.34-.52.52-.67,1.54-1.34,2.07a14.85,14.85,0,0,1-4.34,2.22,15.54,15.54,0,0,1-2.45,0c-.79,0-1.53-.65-2.41-1.09a12.9,12.9,0,0,1-2.06-1.55,19.72,19.72,0,0,1-2-1.67c-.59-.61-1.2-1.22-1.76-1.92s-1.38-1.16-1.87-1.89-.44-1.79-.86-2.55-1.71-1.16-2-1.94,0-1.94-.2-2.74a9.21,9.21,0,0,1,0-2.56,13.15,13.15,0,0,1,.27-2.65c.17-.84.62-1.71.84-2.63s-.26-2.08,0-2.86c.23-.38-.12-1.55,0-2.72s1.25-2.58,1.37-3c-.13-.28-.68-.07-1,0a9.27,9.27,0,0,0-2.32.81c-1.16.44-1.37-.12-2.52.32s-1,.86-2.16,1.29-1.21.31-2.37.75-1,.91-2.14,1.35-1.26.18-2.42.62-1.35-.06-2.51.38-1.17.45-2.32.91c-.92.36-.51,1.36-1.41,1.74s-1,.09-1.91.49c-1.11.5-1.49-.3-2.59.22s-1,.79-2.07,1.32-.7,1.37-1.8,1.9-1.28.15-2.38.68-1.12.48-2.23,1-1.47-.26-2.58.27-.83,1.09-1.94,1.62c-.43.2-1.21,1.07-2.31,1.65-.81.43-1.9.51-2.7.94-1.14.61-2.1,1.16-2.46,1.38-.71.41-1.61.4-2.33.74a18.54,18.54,0,0,1-2.19.88,15.88,15.88,0,0,1-2.22.94,15,15,0,0,1-2.4.6,10.39,10.39,0,0,1-2.65-.75,9.07,9.07,0,0,1-2.51-.91,8.46,8.46,0,0,1-2.06-1.71,9.55,9.55,0,0,1-1.25-2.36c-.4-.85-1.57-1.46-1.75-2.3s.68-2,.68-2.82c0-.17.28-1,.5-2.43.12-.72-.52-1.72-.29-2.63s.65-1.53.95-2.37,1.09-1.32,1.47-2.11a18.27,18.27,0,0,1,1-2.28c.46-.7.25-2,.83-2.62s2-.27,2.72-.79a11.5,11.5,0,0,1,2.07-1.25,12,12,0,0,1,2.31-.73c.78-.2,1.45-.84,2.34-.92s1.68-.35,2.49-.43,1.69-.11,2.5-.2,1.74.23,2.56.12,1.51-1.39,2.33-1.51,1.69,0,2.51-.15,1.62-.36,2.45-.51,1.62-.34,2.45-.51,1.77.36,2.6.17,1.55-.64,2.38-.84,1.63-.3,2.46-.51,1.71,0,2.54-.2,1.52-.71,2.35-.94,1.56-.57,2.39-.8l2.42-.67c.79-.22,1.77.17,2.6-.06s1.35-1.31,2.18-1.54c.63-.17,1.5-.69,2.64-1,.8-.2,2,.6,2.93.37s1.63-1,2.57-1.21,1.74-.61,2.66-.83,1.91.05,2.81-.16c.48,0,1.86-.46,1.86-1,0-1.34-.09-1.34,0-2.67s.34-1.33.39-2.67-.71-1.36-.66-2.7.28-1.33.33-2.67-.31-1.35-.27-2.69c0-.73.61-1.66.65-2.74,0-.85.09-1.79.11-2.75s-1-1.85-.95-2.77,1.16-1.89,1.14-2.77a20.24,20.24,0,0,0-.74-2.67c-.13-.22-.09-.42-.35-.47-1.32-.24-1.32-.71-2.65-.79s-1.32.25-2.58.28-1.27.1-2.53.14-1.26.31-2.52.34-1.25.67-2.52.7-1.29-.77-2.55-.74-1.27-.22-2.53-.18-1.26.56-2.52.59-1.29-.65-2.55-.62-1.25.93-2.51,1-1.28-.25-2.54-.21-1.26.64-2.53.67-1.27-.15-2.54-.12c-.5,0-1.4-.77-2.46-.62-.71.1-1.43.84-2.3,1s-1.59.06-2.41.2-1.49.8-2.29.94-1.78-.71-2.55-.57-1.46,1.27-2.2,1.4-1.78-.19-2.47-.07a13.94,13.94,0,0,1-2.38.22,8.72,8.72,0,0,1-2.25-.69,7.84,7.84,0,0,1-2.19-.63,8.11,8.11,0,0,1-2-1.23c-.59-.66-1.45-1.15-1.76-1.8a5.2,5.2,0,0,1-.34-2.51c0-.35,1-1.18,1.39-2.51.26-.78.54-1.65.93-2.59s-.18-2.11.26-3A27.69,27.69,0,0,1,125.29,92c.55-.81,1.66-1.07,2.28-1.69a16.08,16.08,0,0,1,1.86-2.06c.75-.53,1.36-1.37,2.16-1.85s1.65-1.14,2.42-1.5a5.66,5.66,0,0,1,2.85-.29c.52,0,1.34.4,2.48.63.75.15,1.67,0,2.6.2s1.75-.1,2.63.1,1.7.25,2.55.43c.49.11,1.18,1.43,2.24,1.57.77.11,1.68-.22,2.54-.12s1.73,0,2.5.06a11.8,11.8,0,0,0,2.48-.26c1.28,0,1.28.44,2.57.44s1.29.65,2.57.65,1.28-.94,2.57-.94,1.28.32,2.57.32,1.28-.33,2.57-.33,1.29.32,2.57.32,1.29-.61,2.58-.61,1.29.15,2.57.15,1.3.6,2.59.53c.49,0,.35-.26.75-.55a18.45,18.45,0,0,1-.31-2.19c0-.73,1.3-1.53,1.32-2.44s-.12-1.61-.12-2.47-.82-1.62-.84-2.46.47-1.65.44-2.48-.84-1.61-.89-2.43,1-1.73.93-2.54-.34-1.66-.44-2.45-.43-1.67-.57-2.43-.93-1.53-1.15-2.23c-.29-1,.1-2.1-.32-2.58-.66-.74-1.43-1.23-2-1.83-.68-.78-1.13-1.54-1.6-2.12-.74-.91-1.67-1.29-2-1.84-.67-1.09-.23-1.84-.23-2.66a7.77,7.77,0,0,1,.12-2.43,14.11,14.11,0,0,1,1.2-2.14c.36-.71.3-1.7.79-2.4s1.45-.93,2-1.56,1.12-1.14,1.73-1.71.58-1.87,1.24-2.37,1.68-.52,2.38-.95a18.9,18.9,0,0,1,2.3-.9c.75-.36,1.34-1.1,2.12-1.35a17.54,17.54,0,0,1,2.41-.73,16.39,16.39,0,0,1,2.51-.31,15,15,0,0,1,2.5.6,16.75,16.75,0,0,1,2.48.56c.75.31,1.28,1.2,2,1.66s1.83.54,2.37,1.15.37,1.78.64,2.57a22.38,22.38,0,0,1,.34,2.34c.17.82.34,1.57.43,2.32s.72,1.61.75,2.33c0,.94.1,1.77.1,2.39-.05,1.24-.9,1.2-1,2.44s-.11,1.24-.17,2.48.5,1.26.44,2.51.51,1.26.45,2.5-.93,1.24-.85,2.48S203,64.81,202.93,66.06Zm109,109.35a21.24,21.24,0,0,1-1.82,1.29,6.47,6.47,0,0,1-2.27.55c-.15.06-1.25,0-2.66.19-.81.11-1.67.74-2.59.85s-1.82.49-2.63.58a15.66,15.66,0,0,1-2.73,0c-1.2,0-1.2-.53-2.41-.53s-1.2-.31-2.4-.31-1.21.46-2.41.46-1.21.7-2.41.7-1.21-.36-2.41-.36-1.21-.08-2.42-.08-1.2.12-2.41.12-1.21-.5-2.42-.5c-.83,0-1.64-.34-2.46-.38s-1.73,1.06-2.55,1-1.67-.22-2.48-.32-1.58-.78-2.39-.91-1.75.26-2.55.1-1.51-.9-2.31-1.08-1.57-.57-2.35-.79-1.87.4-2.64.16-1.31-1.38-2.07-1.65-1.86.18-2.61-.11-1.46-.91-2.2-1.23-1.41-1-2.12-1.32-1.25-1.28-1.94-1.64-1.82-.23-2.48-.62c-.81-.47-1.54-.88-2.12-1.28a12.78,12.78,0,0,1-2-1.48c-.55-.66-1.46-1.1-2-1.82s-.82-1.57-1.27-2.33-.24-1.83-.63-2.63-.74-1.53-1.06-2.37-1.06-1.44-1.32-2.3-.25-1.72-.46-2.59.32-1.8.15-2.68-1.34-1.51-1.47-2.4.13-1.75,0-2.64-.68-1.67-.74-2.57.18-1.74.15-2.63.7-1.74.69-2.63-.84-1.72-.84-2.61.18-1.72.2-2.62c0-1.21.72-1.19.75-2.41s-.59-1.23-.56-2.45,0-1.22.05-2.43-.18-1.22-.15-2.44.27-1.21.3-2.42.46-1.21.5-2.42.2-1.21.23-2.43-.07-1.22,0-2.44,0-1.22,0-2.43-.36-1.23-.32-2.45.65-1.21.67-2.43-1-1.31-1-2.61.7-1.31.7-2.61.33-1.3.33-2.6-.14-1.31-.14-2.61.26-1.31.26-2.61-.75-1.3-.75-2.6-.47-1.3-.47-2.61,1.16-1.3,1.16-2.6S233,83.1,233,81.8s.06-1.31.06-2.61.59-1.31.59-2.62-.45-1.3-.45-2.61a18.41,18.41,0,0,0-.1-2.45c-.08-.71-.69-1.47-.81-2.36s.06-1.62-.06-2.45.28-1.7.16-2.5-.31-1.64-.45-2.41-1.37-1.47-1.53-2.17a12.27,12.27,0,0,0-.44-2.24c-.69-.79-.57-2-1-2.6-.78-.9-1.5-1.31-1.86-1.85-.57-.87-1.58-1.31-1.58-2.34a14.11,14.11,0,0,1,.73-2.7,16.06,16.06,0,0,1,.88-2.55c.34-.8,1.5-1.18,2-2s.41-1.81,1-2.52a24.68,24.68,0,0,1,1.46-2.29,23.5,23.5,0,0,1,2.29-1.47,21.85,21.85,0,0,1,2.17-1.54,18.67,18.67,0,0,1,2.54-.79,15,15,0,0,1,2.47-.77,13,13,0,0,1,2.54-.65,6.59,6.59,0,0,1,2.46-.17,15.21,15.21,0,0,1,2.21,1.11,10.18,10.18,0,0,1,2.13,1.08A9.52,9.52,0,0,1,252,37a10.8,10.8,0,0,1,1.1,2.12c.33.68,1.49,1.14,1.72,2s-.63,1.73-.53,2.59-.12,1.52-.12,2.38c0,.58.8,1.4.76,2.48,0,.71-.29,1.52-.33,2.46,0,.75-.63,1.54-.68,2.43s.17,1.6.11,2.48.85,1.66.79,2.53-1.35,1.52-1.41,2.38-.1,1.61-.16,2.47-.23,1.61-.29,2.46.39,1.65.33,2.5.07,1.64,0,2.49-.2,1.62-.26,2.46-.59,1.79-.65,2.58c-.08,1,1,1.91,1,2.69-.06,1-.34,1.77-.38,2.58s0,1.71,0,2.6,0,1.64,0,2.6c0,.79-.68,1.66-.65,2.63,0,.79.2,1.52.22,2.48,1.27.15,1.21-.25,2.45-.58s1.34.1,2.57-.23,1.16-.63,2.39-1,1.2-.47,2.44-.8l2.47-.67c1.23-.33,1.4.29,2.64,0s1-1.2,2.24-1.53,1.16-.62,2.4-1c.83-.23,1.88.54,2.59.32s1.43-1.07,2.11-1.31c.86-.29,1.51-.75,2.17-1,.86-.35,1.76-.25,2.38-.57.81-.43,1.64-.55,2.24-1,.9-.52,1.59-1.09,2.38-1.49a11.06,11.06,0,0,1,2.65-.66c.82-.19,1.61-1,2.7-1a19.92,19.92,0,0,1,2.51.42,25.09,25.09,0,0,1,2.57.15c.8.2,1.44,1,2.26,1.29s1.55.59,2.33.93,2-.24,2.74.14,1,1.81,1.69,2.22,1.76.39,2.45.84,1.22,1.25,1.86,1.75,1.06,1.38,1.63,1.92a14.23,14.23,0,0,1,1.8,1.66,3.58,3.58,0,0,1,1,2,3,3,0,0,1-.63,2.27c-.48.55-.81,1.6-1.66,2.1-.66.37-1.79,0-2.67.39-.72.29-1.58.33-2.45.61s-1.41,1-2.28,1.23-1.76-.24-2.63,0-1.41,1.24-2.28,1.43-1.68.08-2.55.25-1.52.93-2.38,1.1-1.69.13-2.55.28-1.8-.55-2.66-.4-1.54.91-2.4,1-1.7.08-2.55.22-1.58.81-2.44,1c-1.24.2-1.4-.81-2.65-.61s-1.09,1.18-2.33,1.38-1.32-.29-2.57-.09-1.26.08-2.5.28-1.32-.23-2.57,0-1.2.43-2.45.63-1.19.55-2.44.75-1.17.67-2.42.87-1.31-.2-2.56,0c-.36.1-1.33-.64-2.3-.66l-2.3,0c-.72,0-.83,1-2.52,1.55-.63,1.05-.25,1-.33,2.23s-.77,1.19-.84,2.41.38,1.25.31,2.48.3,1.25.23,2.47.1,1.24,0,2.47c0,.87-.73,1.68-.77,2.51s-.33,1.72-.36,2.54.3,1.74.29,2.57.47,1.73.47,2.56.14,1.71.17,2.53-1.13,1.79-1.08,2.61.57,1.71.66,2.52.42,1.7.57,2.5a23.43,23.43,0,0,0,1,2.37,22.72,22.72,0,0,0,.44,2.52c.36.8.23,1.91.69,2.59s1.75.8,2.36,1.39a12.68,12.68,0,0,0,1.77,1.82,16.46,16.46,0,0,0,2.37.91,22.76,22.76,0,0,0,2.26,1.18c.77.23,1.72-.16,2.59,0s1.57.46,2.45.59,1.58.75,2.46.84,1.69-.26,2.57-.2,1.67-.16,2.55-.13,1.63,1.34,2.51,1.36,1.69-.1,2.56-.09,1.69-.8,2.57-.8a23.33,23.33,0,0,0,2.49.46c.74,0,1.55-.83,2.45-.87s1.67,1,2.54,1,1.62-.29,2.47-.35,1.63-.33,2.47-.41,1.58-.75,2.41-.84,1.76.65,2.58.54c1.3-.18,1.27-.44,2.57-.63s1.33,0,2.63-.22,1.23-.71,2.54-.9,1.38.35,2.69.16,1.27-.46,2.58-.64,1.35.1,2.66-.08a19.18,19.18,0,0,1,2.24-1c.73-.16,1.67.26,2.48.07s1.63-.3,2.36-.45c1.06-.22,1.85-1.37,2.28-1.37a8.31,8.31,0,0,1,2.65,1.13,2.13,2.13,0,0,1,1.2,2.13,6,6,0,0,1-.08,2.47,22.08,22.08,0,0,1-.88,2.35c-.33.7-.65,1.5-1.08,2.26s-1,1.31-1.46,2-.69,1.53-1.17,2.22-1.42,1-1.93,1.67-.54,1.71-1.07,2.34-1.69.73-2.25,1.33-1.32,1-1.92,1.56-1.18,1.14-1.81,1.64-1,1.47-1.68,1.9A18.31,18.31,0,0,1,311.94,175.41Zm85.77-58.06a10.28,10.28,0,0,1,1.77,2.07c.46.8.22,1.89.31,2.71a6.57,6.57,0,0,1-.48,2.47,10.08,10.08,0,0,1-.61,2.55,15.34,15.34,0,0,1-1.34,2.29c-.54.64-1.34,1.13-2,1.74s-1.61.77-2.27,1.33-1.52.83-2.21,1.34-1.12,1.4-1.81,1.88-1.07,1.57-1.76,2-1.71.66-2.38,1.08c-.84.53-1.63.92-2.22,1.29-.76.49-1.39,1-2,1.41-.8.49-1.76.48-2.38.83a21.47,21.47,0,0,1-2.3.89c-2,1-2.69,2.54-2.65,1.31s.39-1.08.92-2.58c.25-.68,1.08-1.29,1.42-2.19.28-.73.07-1.73.41-2.57s1.16-1.32,1.51-2.13.83-1.47,1.19-2.25-.11-1.93.27-2.7,1.58-1.11,2-1.86.11-1.89.54-2.62,1.14-1.34,1.59-2,1.22-1.26,1.71-1.92,1.51-1,2.05-1.58.71-1.71,1.32-2.23a11.39,11.39,0,0,1,2.09-1.47,6.64,6.64,0,0,1,2.44-.84,5.86,5.86,0,0,1,2.76.06A9.19,9.19,0,0,1,397.71,117.35Zm0,88.49a8.54,8.54,0,0,1-2.18,1.61c-.82.38-1.88,0-2.7,0a6.28,6.28,0,0,1-2.32-.89,10.25,10.25,0,0,1-2.39-1,18.58,18.58,0,0,1-2-1.63c-.55-.61-.91-1.46-1.44-2.16s-.53-1.67-1-2.4-.62-1.58-1-2.32-1.23-1.24-1.63-2-1.41-1.2-1.78-2-.42-1.71-.76-2.47-.64-1.6-1-2.36-.79-1.56-1.1-2.31-.18-1.83-.46-2.56c-.34-.9-.33-1.8-.57-2.49-.54-1.49-1.92-.93-1.95-2.2s1.13-.69,3.15.34c.57.29,1,1.18,1.9,1.69.62.35,1.61.29,2.4.78s1,1.31,1.8,1.79c.59.38,1.24,1,2.08,1.51.67.42,1.89.13,2.67.63s.9,1.69,1.63,2.2,1.87.33,2.57.86,1.19,1.3,1.85,1.85,1.1,1.38,1.71,2,.76,1.63,1.3,2.27,1.6.95,2,1.66a10.3,10.3,0,0,1,1.11,2.33,6.64,6.64,0,0,1,.41,2.58,6.91,6.91,0,0,1-.42,2.75A10.42,10.42,0,0,1,397.71,205.84Zm-16.88-44.3c-.92-.82.18-1.17,2.31-1.92.6-.22,1.56.06,2.53-.23.68-.2,1.52-.21,2.43-.45.71-.19,1.38-.89,2.26-1.11.67-.17,1.45-.65,2.42-.91.77-.19,1.67-.17,2.57-.39s1.76.14,2.63,0,1.71,0,2.57-.17,1.62-.72,2.47-.82,1.69-.87,2.54-.91a24.66,24.66,0,0,1,2.62.37,15.85,15.85,0,0,1,2.57.42,10.81,10.81,0,0,1,2.53.74c.79.4,1.18,1.32,1.74,2a5.69,5.69,0,0,1,.86,2.27c.23.74,1.48,1.44,1.48,2.39a8.66,8.66,0,0,1-.48,2.69c-.3.86-1.3,1.37-1.9,1.93s-1.15,1.5-2,1.8-1.77-.09-2.67,0a18.31,18.31,0,0,1-2.53-.09c-.81,0-1.75.8-2.62.69s-1.54-1.14-2.39-1.3-1.83.45-2.66.25-1.59-.71-2.41-.94-1.55-.78-2.35-1-1.44-1.09-2.23-1.37-1.84.06-2.61-.23-1.64-.57-2.4-.86-1.69-.53-2.41-.83c-.89-.37-1.87-.29-2.53-.58A5.69,5.69,0,0,1,380.83,161.54Z" fill="#e7ede8"/><path d="M399.73,287.82l-2.49-.66c-.78-.21-1.75.1-2.62-.14l-2.49-.65c-.8-.22-1.61-.52-2.46-.76s-1.36-1.4-2.21-1.64-1.75,0-2.59-.28-1.55-.74-2.38-1-1.87.27-2.7,0-1.35-1.42-2.17-1.68-1.88.27-2.7,0-1.58-.69-2.4-1-1.37-1.28-2.18-1.57-1.77-.14-2.57-.43-1.52-.86-2.32-1.16-1.81-.09-2.6-.4-1.44-1-2.23-1.38-1.53-.79-2.31-1.13-1.44-1-2.2-1.34-1.52-.8-2.26-1.18-1.82-.26-2.54-.67-1.4-1.08-2.15-1.51L346.89,268c-.76-.43-1.86-.29-2.61-.72s-1.37-1.12-2.13-1.56-1.36-1.12-2.11-1.56-1.82-.36-2.58-.8-1.47-.93-2.22-1.37-1.66-.62-2.41-1.06-1.22-1.28-2-1.71-1.18-1.37-1.91-1.8-1.41-1-2.15-1.41-2,0-2.72-.39-1.57-.7-2.31-1.12-1.25-1.24-2-1.66-1.09-1.55-1.83-2-1.89-.12-2.63-.53-1.24-1.28-2-1.7-1.94,0-2.69-.42-1.38-1-2.13-1.42-1.12-1.52-1.88-1.92-1.93,0-2.69-.36-1-1.82-1.75-2.2-1.86-.09-2.62-.47-1.24-1.35-2-1.72-1.95.14-2.72-.23-1.67-.43-2.45-.78-1.12-1.65-1.9-2-1.81-.12-2.59-.45-1.38-1.11-2.17-1.44-1.76-.18-2.56-.49-1.27-1.41-2.07-1.72-1.78-.11-2.58-.4-1.41-1.11-2.21-1.39-1.76-.13-2.57-.41-1.71-.25-2.52-.51-1.53-.8-2.35-1-1.84.22-2.66,0-1.33-1.54-2.15-1.76-1.67-.39-2.5-.6-1.8.2-2.64,0-1.75.05-2.58-.14-1.51-1-2.35-1.21-1.73,0-2.57-.18-1.51-1.11-2.35-1.27-1.84.61-2.68.47-1.59-.77-2.44-.91-1.61-.72-2.46-.85-1.74.21-2.59.09-1.62-.77-2.47-.87l-2.55-.3c-.84-.09-1.79.79-2.64.7s-1.71.05-2.56,0-1.69-.14-2.54-.21-1.62-1.18-2.48-1.24-1.74.69-2.6.65-1.66-1-2.51-1.06c-.09,0-.21.44-.3.44-.86,0-1.71.14-2.56.18s-1.69.27-2.54.33l-2.55.15-2.55.2c-.85.08-1.77-.5-2.61-.42s-1.64.78-2.48.87-1.71.13-2.55.23-1.68.34-2.52.46-1.66.42-2.5.54-1.78-.33-2.62-.19-1.66.48-2.49.63-1.67.4-2.5.56-1.73.09-2.56.25-1.6.71-2.43.89-1.58.74-2.4.93-1.77-.06-2.6.14-1.83-.27-2.65-.06-1.62.6-2.44.83-1.46,1.1-2.27,1.34-1.77,0-2.59.29-1.41,1.2-2.21,1.46-1.75.14-2.56.41-1.47,1-2.27,1.25-1.82,0-2.62.25-1.54.76-2.33,1.07-1.62.54-2.41.86-1.42,1-2.2,1.37-1.76.22-2.54.56-1.66.47-2.44.81-1.6.6-2.38,1-1.18,1.51-2,1.87-2-.26-2.78.11-1.32,1.19-2.08,1.56l-2.29,1.14c-.76.38-1.54.73-2.3,1.12s-1.24,1.29-2,1.69-1.35,1.07-2.1,1.47-1.55.71-2.3,1.12-1.84.17-2.59.58L121.28,250c-.74.42-1.58.66-2.33,1.08s-1.42.94-2.16,1.36-1.05,1.58-1.79,2-2.08-.19-2.82.24L110,256c-.73.43-1.14,1.42-1.87,1.85s-1.8.31-2.53.74-1.39,1-2.13,1.45-1.31,1.2-2.07,1.64-1.15,1.47-1.91,1.91-1.74.47-2.5.91-1.44,1-2.2,1.41-1.62.69-2.38,1.12-1.25,1.32-2,1.75-1.48.94-2.25,1.37-1.81.35-2.57.78-1.41,1-2.16,1.45-1.5.89-2.26,1.29-1.64.63-2.4,1-1.67.55-2.43.94-1.3,1.29-2.07,1.67-1.93,0-2.7.39-1.28,1.35-2.06,1.71-1.4,1.13-2.18,1.48-1.81.21-2.6.54-1.71.42-2.5.74-1.4,1.21-2.19,1.51-2-.35-2.79-.07-1.33,1.49-2.14,1.76-1.8.08-2.62.33-1.79,0-2.61.24-1.69.35-2.51.55-1.59.81-2.43,1-1.68.46-2.52.59-1.67.64-2.52.73-1.8-.75-2.65-.7-1.68,1.33-2.54,1.35-1.73-.86-2.59-.89-1.16,1-1.73,1.46a2.46,2.46,0,0,0-.31,3.31c.46.6.55,1.92,1.35,2.05a22.41,22.41,0,0,1,2.57-.14,25.06,25.06,0,0,0,2.52.38c.74,0,1.53-.91,2.45-1s1.68.79,2.58.7,1.53-.8,2.41-.92,1.65.08,2.52,0,1.47-1.07,2.33-1.22,1.78.69,2.63.53,1.61-.37,2.45-.54,1.48-.94,2.32-1.12,1.69.06,2.52-.14,1.71.05,2.54-.16,1.47-.91,2.29-1.12,1.47-.88,2.29-1.1,1.71,0,2.53-.27,1.45-.91,2.27-1.15,1.68-.12,2.49-.37,1.65-.28,2.46-.53,1.33-1.25,2.14-1.51,1.88.44,2.68.17,1.32-1.3,2.12-1.57,1.84.27,2.64,0,1.24-1.48,2-1.76,1.67-.45,2.47-.74c.92-.05,1.92.36,2.84.3s1.83-.31,2.75-.38,1.61,0,2.41,0,1.63.36,2.43.3,1.6-.2,2.39-.25,1.54-.94,2.34-1,1.68,1,2.48.9,1.49-1.48,2.29-1.54,1.77.22,2.57.15c.42.49,1,1.8,1.9,1.7s1.67-.32,2.52-.39,1.68-.48,2.53-.52,1.72.29,2.57.27,1.71-.14,2.56-.13,1.72-.41,2.58-.39,1.7.18,2.56.23,1.66.67,2.52.74,1.75-.52,2.61-.44,1.69.27,2.54.36,1.76-.27,2.61-.16,1.74,0,2.59.08,1.69.33,2.54.45,1.66.51,2.5.64,1.75-.09,2.6,0,1.63.66,2.48.79,1.75-.07,2.59.07,1.66.45,2.51.59,1.55,1.18,2.39,1.32,1.84-.67,2.69-.54,1.64.63,2.48.75,1.62.85,2.47,1,1.7-.65,2.49-.55,1.54.68,2.34.77,1.58.36,2.38.44,1.6.18,2.4.24,1.67-1,2.47-.94l2.39.13c.8,0,1.59.27,2.39.29s1.79.47,2.59.48c-.83.24-2-.16-2.88.08s-1.58.76-2.42,1-1.58.83-2.41,1.06-1.65.55-2.49.77-1.85-.18-2.69,0-1.47,1.23-2.32,1.44-1.6.78-2.44,1-1.84-.19-2.68,0-1.7.35-2.55.54-1.83-.23-2.68,0-1.49,1.3-2.34,1.48-1.81-.15-2.66,0-1.76,0-2.62.16-1.67.48-2.52.64-1.56,1.18-2.41,1.32-1.82-.33-2.68-.2-1.69.42-2.55.55-1.82-.46-2.68-.34-1.63.9-2.49,1-1.72.24-2.58.34-1.7.48-2.56.57c-1.11.09-2.24-.17-3.34-.08-.92,0-1.83.27-2.75.29s-1.84-.16-2.76-.12c-.52,0-.86.48-1.22.7-.61.05-1.34-.66-2-.61-.94.06-1.2,1.29-1.71,1.85s-1.68,1-1.7,1.84a3.81,3.81,0,0,0,1,2.44,3.47,3.47,0,0,0,2.44,1.12c.84,0,1.6-1.23,2.43-1.28s1.74,1,2.56,1l2.5-.2c.82-.07,1.67-.06,2.49-.14s1.63-.42,2.46-.51,1.45-.95,2.22-1,1.58.52,2.35.45,1.53-.1,2.29-.17l2.29-.19,2.56,0c.86,0,1.73-.52,2.59-.51s1.7.93,2.56.95,1.74-1,2.59-1,1.71.41,2.57.44,1.73-.34,2.59-.31,1.7.36,2.56.39,1.71.35,2.57.38,1.7.23,2.56.26,1.73-.32,2.59-.28,1.69.66,2.55.7,1.74-.48,2.6-.44,1.69.42,2.55.47,1.73-.11,2.58-.07,1.72,0,2.58.07,1.7.35,2.55.4,1.71.22,2.57.27,1.76-.82,2.62-.78,1.69.49,2.55.54,1.7.31,2.56.35,1.75-.64,2.6-.6,1.71.29,2.57.33,1.66,1,2.52,1,1.73-.3,2.59-.26,1.71.25,2.57.29,1.72-.05,2.58,0,1.69.6,2.55.63,1.73-.37,2.59-.34,1.72-.07,2.58,0,1.74-.59,2.6-.56,1.66,1,2.5,1,1.7.29,2.54.29,1.69-.82,2.53-.83,1.69,0,2.53-.05,1.7.17,2.54.13,1.67-.3,2.51-.36,1.74.52,2.58.45,1.68-.23,2.52-.31,1.66-.41,2.5-.5,1.73.21,2.56.11,1.65-.45,2.49-.56,1.66-.35,2.49-.48,1.7-.12,2.53-.25,1.48-1.35,2.32-1.5,1.84.77,2.67.62,1.58-.74,2.41-.9,1.63-.47,2.45-.64,1.75.12,2.58-.05,1.53-.89,2.35-1.07,1.77.16,2.59,0,1.5-1,2.32-1.17,1.58-.63,2.4-.84,1.77.14,2.59-.07,1.57-.68,2.38-.9,1.74,0,2.55-.26,1.65-.36,2.47-.59,1.64-.38,2.45-.61,1.66-.34,2.47-.58,1.47-1,2.27-1.25,1.69-.27,2.49-.51,1.44-1.08,2.24-1.33,1.87.34,2.68.09,1.47-.94,2.28-1.2,1.54-.71,2.35-1,1.74-.11,2.54-.37,1.4-1.16,2.2-1.42,2,.65,2.78.4c1-.34,1.56-1.68,1.74-2.51a3.78,3.78,0,0,0-.44-2.95,3.1,3.1,0,0,0-3-.53c-.81.26-1.33,1.38-2.14,1.64s-1.82-.12-2.62.14-1.56.67-2.37.93-1.75.08-2.56.33-1.31,1.49-2.11,1.74-1.94-.54-2.75-.29-1.63.47-2.44.72-1.32,1.48-2.13,1.72-1.68.32-2.49.55-1.79-.1-2.61.13-1.49.95-2.31,1.17-1.71.14-2.53.36-1.65.39-2.47.6-1.8-.18-2.62,0-1.32,1.66-2.14,1.87-1.63.49-2.45.68-1.83-.35-2.65-.16-1.54.91-2.36,1.09-1.72.1-2.55.27-1.78-.29-2.61-.12-1.48,1.28-2.31,1.44-1.71.09-2.54.24-1.72,0-2.55.16-1.61.67-2.45.8-1.64.51-2.48.63-1.81-.73-2.65-.62-1.65.39-2.49.49-1.62.79-2.46.87-1.72-.08-2.56,0-1.73-.43-2.58-.37-1.65.63-2.5.68-1.72-.58-2.56-.54-1.69-.06-2.54,0-1.68.36-2.52.37-1.69-.23-2.54-.23-1.68.13-2.53.11-1.72,1-2.57.92-1.66-1.12-2.52-1.16-1.69-.23-2.55-.26-1.72.36-2.57.32-1.69-.51-2.54-.55-1.72.31-2.57.26-1.73.31-2.58.26-1.68-.63-2.53-.67-1.71,0-2.56-.07-1.76.91-2.61.86-1.64-1.24-2.49-1.28-1.73.4-2.58.36-1.67-.77-2.52-.82-1.71,0-2.56,0-1.72.25-2.57.21-1.7-.13-2.55-.17-2,.14-2.84.1c.86-.13,1.88-.85,2.74-1s1.74,0,2.6-.14,1.7-.25,2.55-.39,1.86.55,2.71.4,1.58-.93,2.43-1.09l2.55-.46c.85-.17,1.62-.7,2.47-.87s1.74-.12,2.58-.29,1.68-.42,2.52-.6,1.74-.12,2.59-.3,1.7-.29,2.54-.49,1.66-.5,2.5-.7,1.77,0,2.61-.22,1.75-.12,2.59-.33,1.57-.79,2.39-1,1.71-.28,2.53-.52,1.55-.8,2.36-1,1.54-.8,2.35-1.07,1.71-.28,2.52-.57,1.49-.91,2.3-1.2,1.91.25,2.71-.05,1.12-1.85,1.92-2.16,1.83,0,2.63-.32,1.68-.39,2.47-.71,1.47-.94,2.26-1.26,1.83-.05,2.62-.38,1.13-1.71,1.92-2,2,.41,2.82.07,1.4-1.08,2.18-1.41,1.35-1.21,2.13-1.55,1.54-.75,2.33-1.09,1.79-.15,2.58-.48,1.66-.47,2.45-.8,1.38-1.14,2.17-1.47,1.48-.9,2.27-1.22,1.68-.42,2.47-.74,1.79-.15,2.58-.46,1.71-.33,2.5-.64,1.44-1,2.24-1.34,1.37-1.25,2.17-1.54,1.74-.23,2.54-.51,1.65-.48,2.46-.75,1.59-.65,2.41-.9,1.78,0,2.6-.26,1.73-.17,2.55-.39,1.36-1.56,2.19-1.77,1.69-.35,2.52-.54,1.79.18,2.63,0,1.58-.88,2.42-1,1.74.32,2.56.2c.77.34,1.47.85,2.24,1.19s1.9-.14,2.68.2,1.17,1.52,1.95,1.86,1.86-.06,2.64.28,1.42.95,2.2,1.29,1.41,1,2.19,1.3,1.31,1.23,2.09,1.56,1.81,0,2.59.38,1.57.61,2.36.94,1.6.51,2.39.83,1.73.21,2.51.53,1.49.81,2.28,1.13,1.31,1.25,2.1,1.56,1.58.58,2.37.89,1.75.14,2.54.44,1.49.82,2.29,1.11,1.33,1.26,2.12,1.55,1.95-.43,2.75-.15,1.46.9,2.26,1.18,1.76.05,2.56.33,1.5.8,2.31,1.07,1.36,1.26,2.16,1.52,1.86-.27,2.67,0,1.55.65,2.36.9,1.42,1.15,2.23,1.39,1.79-.11,2.61.13,1.62.44,2.44.68,1.67.25,2.49.47,1.56.67,2.38.89,1.52.85,2.34,1.06,1.59.58,2.41.79,1.66.31,2.49.51,1.65.34,2.48.54,1.73,0,2.55.18,1.52,1,2.35,1.14,1.85-.61,2.69-.44,1.5,1,2.34,1.21,1.59.64,2.42.81,1.69.18,2.52.33,1.62.56,2.46.7,1.79-.44,2.63-.3,1.73-.18,2.57-.05c1.1.18,2,1.5,2.95,1.5s1.48-.81,2-1.2a2.67,2.67,0,0,0,1.1-1.78c.24-1.08.64-2.16.16-2.74s-1.49-.61-2.55-1c-.65-.24-1.42-.61-2.38-.88C401.53,288,400.64,288.06,399.73,287.82ZM144.41,258.55l2.33-1.12c.78-.36,1.34-1.22,2.12-1.57s1.57-.73,2.35-1.07,1.62-.61,2.41-.94,2,.25,2.76-.06,1.44-1,2.24-1.35,1.7-.35,2.51-.64,1.36-1.34,2.17-1.62,1.93.35,2.74.09,1.39-1.32,2.21-1.58,1.69-.35,2.52-.59,1.86.27,2.69,0,1.53-.89,2.36-1.1,1.74-.15,2.57-.35,1.54-1,2.38-1.15,1.77.06,2.61-.11,1.71-.23,2.55-.39,1.74,0,2.58-.18,1.7-.23,2.54-.36,1.6-.88,2.45-1,1.74,0,2.58-.1l2.56-.31c.85-.1,1.63-.86,2.49-1s1.74.12,2.59,0,1.74.15,2.59.08,1.68-.72,2.53-.77,1.73,0,2.58-.07,1.72-.36,2.58-.39,1.73.45,2.59.44,1.72.57,2.57.58,1.71.14,2.57.16,1.74-1,2.6-1,1.73-.12,2.59-.08,1.7.54,2.55.59,1.66.92,2.51,1,1.78-.67,2.63-.59,1.66.68,2.51.77,1.82-.72,2.67-.61,2,.8,2.83.92c-.85.15-2.13-.13-3,0s-1.5,1.23-2.33,1.4-1.92-.8-2.75-.62-1.52,1.09-2.36,1.27-1.82-.29-2.65-.11-1.46,1.32-2.29,1.51-1.6.69-2.43.88-1.9-.61-2.74-.41-1.51,1-2.35,1.2-1.77-.06-2.6.15-1.54.9-2.37,1.11-1.87-.4-2.7-.19-1.52.94-2.35,1.16-1.79-.1-2.62.12-1.54.88-2.36,1.1-1.58.73-2.41,1-1.72.17-2.55.39-1.45,1.18-2.28,1.4-1.94-.61-2.77-.39-1.63.53-2.45.75-1.47,1.09-2.3,1.32-1.52.91-2.34,1.14-1.83-.18-2.66.05-1.55.81-2.37,1-1.86-.3-2.69-.07-1.39,1.36-2.22,1.59-1.77,0-2.6.22-1.77,0-2.59.25-1.53.89-2.36,1.12-1.79-.08-2.62.15l-2.47.68c-.83.22-1.4,1.38-2.23,1.61s-1.6.65-2.42.87l-2.49.66c-.82.21-1.92-.6-2.75-.39s-1.46,1.21-2.29,1.42-1.88-.48-2.71-.27-1.55.84-2.39,1-1.64.47-2.48.67-1.62.56-2.45.76l-2.51.55c-.83.2-1.67.37-2.5.56s-1.82-.27-2.65-.09-1.55,1-2.38,1.13-1.69.28-2.53.45-1.65.47-2.49.64-1.64.51-2.48.67-1.8-.27-2.64-.12-1.64.51-2.49.66-1.66.39-2.51.53-1.72,0-2.57.17-1.63.62-2.48.75-1.64.62-2.49.74-1.81-.26-2.66-.16c.78-.31,1.86,0,2.64-.36s1.49-.8,2.27-1.13,1.29-1.27,2.07-1.61,1.73-.23,2.51-.57,1.25-1.33,2-1.67,1.71-.3,2.48-.64,1.36-1.08,2.14-1.43,1.8-.09,2.57-.44,1.46-.86,2.23-1.21,1.57-.63,2.34-1,1.34-1.11,2.11-1.47,1.72-.28,2.49-.64,1.62-.52,2.39-.89,1.57-.62,2.33-1,1.14-1.52,1.91-1.89S143.65,258.92,144.41,258.55Zm15,21-2.56-.4c-.85-.13-1.79.27-2.64.14s-1.7-.25-2.56-.38-1.69-.34-2.54-.47-1.56-1.23-2.41-1.35-1.83.14-2.68,0c.81-.11,1.72,0,2.54-.15s1.51-1,2.32-1.13,1.77.7,2.58.59,1.5-1.07,2.31-1.19,1.65-.1,2.46-.22,1.75.51,2.56.38,1.54-.72,2.35-.86,1.67,0,2.48-.13,1.52-.84,2.33-1,1.7.15,2.5,0,1.64-.17,2.45-.33,1.71,0,2.54-.21,1.66-.29,2.48-.48,1.49-1,2.31-1.2,1.69-.16,2.5-.38,1.63-.43,2.44-.66,1.42-1.11,2.23-1.35,1.69-.21,2.49-.46,1.69-.23,2.49-.49,1.4-1.1,2.2-1.37,1.6-.48,2.4-.75,1.48-.83,2.27-1.11,1.75-.1,2.54-.39,1.78,0,2.57-.31,1.62-.45,2.41-.75,1.21-1.54,2-1.83,1.51-.77,2.29-1.06,1.73-.17,2.52-.47,1.85.16,2.64-.14,1.28-1.36,2.07-1.66,1.75-.1,2.54-.4,1.25-1.45,2-1.74,1.66-.36,2.45-.64,1.86.19,2.65-.09,1.28-1.43,2.07-1.71,2,.55,2.76.28,1.35-1.25,2.14-1.51,1.8.11,2.6-.15,1.32-1.42,2.12-1.67,1.52-.79,2.33-1,1.89.53,2.7.31,1.46-1,2.27-1.25,1.75.05,2.56-.14,1.53-.87,2.34-1.06,1.82.47,2.64.31,1.54-.84,2.37-1,1.61.27,2.44.14c.81.2,1.6-.06,2.39.14s1.69.14,2.48.36,1.51.73,2.3,1,1.81-.23,2.6,0,1.23,1.57,2,1.83,1.58.47,2.35.75,1.79-.05,2.55.24,1.73.17,2.48.48,1.25,1.22,2,1.53,1.63.29,2.38.61,1.18,1.36,1.93,1.67,1.85-.22,2.6.1,1.28,1.08,2,1.41,1.05.6,1.8.93c-.83.15-1.23.4-2.05.57s-1.77-.21-2.59,0l-2.48.52c-.82.18-1.44,1.31-2.26,1.49s-1.59.58-2.41.77l-2.46.58c-.82.2-1.89-.64-2.71-.43s-1.44,1.18-2.25,1.38-1.87-.48-2.68-.27-1.52.85-2.34,1.07-1.61.49-2.43.71-1.58.61-2.39.84-1.63.42-2.44.65l-2.43.69c-.81.23-1.8-.17-2.61.07s-1.45,1.05-2.26,1.29-1.63.42-2.44.66-1.57.61-2.38.86-1.56.67-2.36.92-1.79-.08-2.59.17-1.55.7-2.35.95-1.58.61-2.38.86-1.68.28-2.49.54-1.49.86-2.29,1.12-1.49.87-2.29,1.13-1.75.07-2.55.32-1.83-.16-2.63.1-1.55.68-2.35.94-1.4,1.15-2.2,1.41-1.75.07-2.55.33-1.38,1.21-2.19,1.47-1.73.12-2.53.38-1.5.94-2.3,1.2-1.8-.37-2.62-.25-1.64.41-2.47.52-1.67.11-2.5.2-1.63.6-2.47.67-1.7-.35-2.54-.3-1.68-.13-2.51-.1-1.67,0-2.51,0-1.67.9-2.5.9-1.67-1.1-2.51-1.12-1.68.46-2.51.43l-2.51-.11c-.84,0-1.67-.14-2.5-.2s-1.72.46-2.55.39-1.7.17-2.54.09-1.66-.26-2.49-.35-1.59-.92-2.42-1-1.66-.2-2.49-.3-1.63-.42-2.46-.54-1.67-.12-2.5-.24S160.23,279.71,159.4,279.58Z" fill="#e7ede8"/></g></g></svg>