<svg xmlns="http://www.w3.org/2000/svg" viewBox="0 0 338.35 337.59"><g id="Layer_2" data-name="Layer 2"><g id="design"><path d="M14.11,323c0-.11-.21-.24-.3-.38s-.15-.43-.36-.59-.27-.39-.44-.42-.36-.31-.56-.38c-.41-.15-.79-.59-1.27-.13-.08.07-.27,0-.4,0a.17.17,0,0,0-.15.22c.09.33-.32.51-.24.85,0,.08-.17.2-.19.32a.5.5,0,0,1-.45.46c-.19,0-.28.19-.39.31a1.56,1.56,0,0,1-1.25.49c-.19,0-.22.1-.23.25s-.07.11-.11.16l-.07-.07c0-.42-.27-.59-.68-.57a2.15,2.15,0,0,1-.62,0,1.28,1.28,0,0,0-.84.21,1.18,1.18,0,0,0-.6.64,2.25,2.25,0,0,1-.42.51c0,.63,0,1.32,0,2a.62.62,0,0,1-.21.44.2.2,0,0,0,.13.3c.25,0,.32.21.45.35-.23.14-.32.43-.62.5s-.46.39-.71.57c0,0-.14,0-.19,0a.73.73,0,0,1-.64.2c-.2.26-.48.19-.75.19a3,3,0,0,0-.52,0c-.12,0-.17.18-.33.21s-.29.2-.15.33.1.38.27.52,0,.39.07.59a1,1,0,0,0,.07.18.77.77,0,0,1,0,.92,5.8,5.8,0,0,0-.45.64,1.77,1.77,0,0,1-.47.63c.17.2.18.2.12.3s-.24.38-.34.58A1.61,1.61,0,0,0,.18,336c.06.19-.06.4.13.58s0,.45.08.7l.32.31,1.19,0s.06,0,.08,0l.32-.3c.21-.12.4,0,.54-.12.1-.32.1-.32.37-.34s.26,0,.3-.28c0-.09,0-.23.06-.28.26-.18.33-.49.53-.71s.46-.37.1-.65c0-.2,0-.41,0-.61s.3-.35.44-.35h.9c.22-.14.3-.42.6-.41.1,0,.17-.09.15-.21s.08-.37.19-.53c-.21-.1-.13-.36-.28-.5s-.06-.39-.09-.58a1.05,1.05,0,0,0,0-.19l-.36-.37a.67.67,0,0,1,.34-.73,3.88,3.88,0,0,1,.58,0,1.29,1.29,0,0,0,.75-.19,1,1,0,0,0,.25-.14c.19-.15.18.14.3.14h.6c.35-.26.36-.75.75-.91,0-.45,0-.87,0-1.27.16-.14.42-.08.52-.29L10,328a.45.45,0,0,1,.45-.2,5.77,5.77,0,0,0,.72,0c.2,0,.43.11.58-.09s.49,0,.64-.2,0-.69,0-1l.75-.77a.44.44,0,0,0,.5-.39c.06-.3.41-.35.45-.65s.19-.39.23-.63C14.4,323.67,14.07,323.39,14.11,323Z" fill="#e3dacc" fill-rule="evenodd"/><path d="M21.42,308.81c0-.06-.14-.21-.23-.31s-.22-.3-.36-.36-.47-.36-.79-.35-.68,0-1,0c-.12.19-.06.5-.38.4s-.35.15-.54.22c-.48.15-.9.47-1.4.61-.35.43-.89.52-1.34.78-.22.13-.47.2-.69.35a4.86,4.86,0,0,1-.61.26,6.48,6.48,0,0,0-.67.39c-.27-.12-.37.32-.64.2-.14.35-.49.13-.72.27-.51.34-1.16.44-1.58.94-.29,0-.43.15-.53.38s-.3.43-.23.74-.21.89.2,1.26c0,.24,0,.48,0,.72s.07.56-.22.74c0,.35,0,.69,0,1s.46.29.64.48.16.38.3.47.42-.05.55.18a4.6,4.6,0,0,1,.82.26,1.27,1.27,0,0,1,.45.19.44.44,0,0,0,.47,0c.44-.29,1-.4,1.32-.85a1.07,1.07,0,0,0,.24-.43c0-.14.26-.22.34-.37a1.41,1.41,0,0,0,.1-.48,3.76,3.76,0,0,1,1-.8c.2-.09.36-.27.58-.35s.11-.22.16-.34c.24.09.33-.22.54-.21s.19-.13.2-.27,0-.24.06-.28c.33-.21.37-.63.66-.87s.37-.22.35-.47c.32-.32.52-.83,1.11-.76a1.29,1.29,0,0,1,.63-.22c.21-.05.37-.3.54-.46l.87-.84c0-.38,0-.72,0-1.07S21.3,309.13,21.42,308.81Z" fill="#e3dacc" fill-rule="evenodd"/><path d="M40.66,291.89c-.19-.13-.11-.37-.28-.51s-.34-.25-.29-.5c-.13-.1-.2-.25-.38-.32a2.12,2.12,0,0,1-.9-.58c-.11-.13-.25-.06-.35.15s-.14.29-.22.43a2,2,0,0,1-.16.24,2.94,2.94,0,0,0-.55.7c-.12.27-.42.45-.65.66a.41.41,0,0,0-.13.26,3.75,3.75,0,0,1-.56,1.22c-.13.29-.29.57-.44.85a2.62,2.62,0,0,0-.09,1c0,.17,0,.34,0,.5-.21.21-.42.39-.6.6s0,.26-.16.34,0,.33-.22.43-.08.25-.08.38-.25.22-.23.43a3,3,0,0,1,0,.52,1.86,1.86,0,0,1,0,.41,1.52,1.52,0,0,0,.19,1c-.11.27.2.4.22.64a.49.49,0,0,0,.32.35,1.74,1.74,0,0,1,.64.22.41.41,0,0,0,.47-.08,1.25,1.25,0,0,1,.49-.33.85.85,0,0,0,.55-.56.54.54,0,0,1,.48-.44.37.37,0,0,0,.24-.17,6.56,6.56,0,0,1,.78-1.23.5.5,0,0,1,.21-.54c-.11-.28.33-.35.23-.63.14-.22.29-.43.41-.66s.13-.46.28-.6.11-.48.37-.58c0-.24,0-.48,0-.72s-.1-.45.08-.59,0-.49.23-.63,0-.58.3-.71C40.94,292.47,41,292.13,40.66,291.89Z" fill="#e3dacc" fill-rule="evenodd"/><path d="M31.05,298.2c-.17-.19-.43-.33-.44-.65,0-.08-.12-.18-.21-.21a3.8,3.8,0,0,1-.64-.44,1.75,1.75,0,0,0-.7-.08c-.06,0-.16,0-.19,0-.24-.29-.55-.17-.83-.17a5.3,5.3,0,0,0-.67.67c-.2.26-.59.23-.73.49s-.49.18-.8.31c.1.25-.15.56.17.81a4.21,4.21,0,0,1,0,.71c0,.25.29.35.22.64a2.65,2.65,0,0,0,0,.66L28.27,303H29c.16-.16.29-.38.41-.38.29,0,.5-.16.75-.21a.77.77,0,0,0,.53-.22,1.3,1.3,0,0,1,.46-.39.65.65,0,0,0,.48-.44c.18-.42.21-.41.21-.64,0-.58,0-1.16,0-1.72Z" fill="#e3dacc" fill-rule="evenodd"/><path d="M59.79,253.67a2.12,2.12,0,0,1-.73-.45.25.25,0,0,1-.27-.22h0c-.08-.05-.15-.11-.14-.13s.14,0,.19,0a.1.1,0,0,1,0,.09h0c.19,0,.25.07.25.22.43,0,.67-.15.64-.51s.34-.27.47-.46.09-.48,0-.63-.14-.4-.28-.54,0-.21,0-.32a.36.36,0,0,0,0-.29.19.19,0,0,0-.28-.07c-.28.26-.55.31-.83,0-.5-.11-.7-.57-1-.83,0-.19,0-.39.07-.46s.34-.5.67-.5a.63.63,0,0,0,.47-.18,2.17,2.17,0,0,1,.39-.29,3.54,3.54,0,0,0-1.19-1.72h-.47c-.1-.28-.48-.37-.52-.75,0-.19-.24-.21-.41-.05s-.26.24-.35.33a2.06,2.06,0,0,0-.5,0c-.2,0-.24-.24-.42-.19s0,.46-.18.61l-2.94,0c-.21,0-.21,0-.17-.44.2,0,.41,0,.62,0a.7.7,0,0,0,.57-.2.23.23,0,0,1,.28.09.31.31,0,0,0,.35.12,7.94,7.94,0,0,1,.58-.55c.15-.13.14-.31.24-.45a1.23,1.23,0,0,1,.47-.44c.2-.07.36-.26.55-.25.35,0,.18-.4.36-.42a.65.65,0,0,0,.56-.41c.23-.48.47-1,0-1.46,0-.25,0-.51-.21-.67v-.66a1.16,1.16,0,0,0,0-.13c0-.19-.32-.22-.12-.39a.4.4,0,0,0,.12-.49c-.29-.35-.18-.74-.19-1.13a.94.94,0,0,0-.1-.39,1.79,1.79,0,0,0-.9-.94c-.46-.21-.91-.45-1.35-.7a.84.84,0,0,0-.27-.13,8.08,8.08,0,0,0-1.1,0c-.19,0-.32.22-.57.22a.93.93,0,0,0-.64.25c-.38.44-.94.62-1.32,1l-.79,0a1.43,1.43,0,0,1-.78-.23,1.39,1.39,0,0,0-.78-.25,5.67,5.67,0,0,1-1.09,0c-.1,0-.24,0-.29-.07-.17-.22-.4-.12-.46-.14l-.88-.81c0-.46-.53-.56-.64-1,0-.24.28-.37.24-.67s.32-.34.41-.55a1.46,1.46,0,0,1-.15-.24c.26-.21.25-.41,0-.61.07-.25-.18-.36-.24-.56s-.75-.77-.82-1.07l-.31-.32h-.54l-.3-.44c-.5,0-.93-.43-1.37-.44-.11,0-.25,0-.32,0-.57.38-.77-.28-1.37-.23-.23-.2-.46.43-.69,0-.13.19-.39.15-.53.28s-.44.19-.64.32-.42,0-.61,0-.19.18-.26.26-.29.2-.54,0a.66.66,0,0,0-1,.19c-.11.32-.24.36-.52.34s-.32.19-.4.32-.06.26-.17.37c-.33.29-.63.6-1,.9l-.86.84c-.32.3-.65.59-.94.91s-.77.35-1,.75c-.09-.19-.32-.24-.31-.46s-.21-.27-.3-.42c-.26.07-.34-.25-.56-.25a.56.56,0,0,0-.18.07c-.09.06-.14.16-.28.15s-.42-.08-.53,0a1,1,0,0,1-.58.2.65.65,0,0,0-.4.31.89.89,0,0,1-.17.37,2.15,2.15,0,0,0-.5.55c-.11.24-.37.45-.25.77l-.31.34-.93,0c-.16-.61-.71-.88-1-1.31a2.3,2.3,0,0,0-1.52.38c-.11.06-.3,0-.35.16-.13.5-.62.67-.9,1.09V238c0,.15,0,.29,0,.44s0,.5.2.68c0,0,0,.15,0,.21-.18.34-.47.37-.76.09a4.48,4.48,0,0,0-.61-.62,5.43,5.43,0,0,0-.73-.34c-.09,0-.17-.14-.26-.15a6.54,6.54,0,0,0-.77,0,3.87,3.87,0,0,1-.76,0c-.29-.07-.44.18-.68.22-.48.08-.49.1-.94.59-.27.29-.57.55-.81.78a2.56,2.56,0,0,1-.09.92c-.13.27-.29.53-.41.8.16.18.39.32.43.51a1.12,1.12,0,0,0,.67.75,1.6,1.6,0,0,0,1,.26l1.37,1.42a4.73,4.73,0,0,1,0,.53c0,.21.06.44-.1.68a.67.67,0,0,0-.73.25.71.71,0,0,1-.15.15c-.32.22-.57.52-.57.72a8.06,8.06,0,0,0,0,1c0,.32-.11.64.1.94s0,.63.09.94c0,.06.09.11.12.17.16.34.36.66.49,1s.53.66.8,1c.08.1,0,.22.08.29a1,1,0,0,0,.39.33c.16.06.26.09.25.27a2,2,0,0,1,0,.43c-.08.23-.25.4-.24.68,0,.13-.23.25-.33.4s-.15.52-.4.58-.58.38-.83.63a1.8,1.8,0,0,0,.06.63,1,1,0,0,1,.16.49c0,.56.17.69.68.7l1.2,0a.31.31,0,0,0,.29-.11.64.64,0,0,1,.42-.76,8.88,8.88,0,0,0,1.28-.62c.07,0,.28,0,.27-.1-.05-.26.26-.33.25-.56s0-.36,0-.45l1.32-1.27c.28,0,.61,0,.94,0a3.28,3.28,0,0,1,1,.07c0,.42,0,.78,0,1.14,0,.06-.11.1-.15.16a.32.32,0,0,0-.07.19c0,.4,0,.79,0,1.17.2.35.61.37.84.65s.5.53.77.81a1.5,1.5,0,0,0,.3,0c.22,0,.25.25.46.24a.55.55,0,0,1,.49.14.45.45,0,0,0,.58,0,4.91,4.91,0,0,1,.46-.22c0-.22,0-.44,0-.65.35-.23.2-.59.23-.83.23-.4.78-.53.69-1.09,0-.07.11-.19.2-.24.25-.12.19-.44.39-.6s0-.5.23-.68c.08-.05.07-.26.08-.4,0-.47,0-.94,0-1.4-.31-.17-.62-.31-.91-.48a1.25,1.25,0,0,0-.64-.28,2.08,2.08,0,0,1-1-.38,7.49,7.49,0,0,0,.7-.68,1.44,1.44,0,0,0,.41-.92c0-.22,0-.44,0-.66s-.27-.31-.23-.57c0-.09-.17-.08-.27-.1a.24.24,0,0,1-.11-.35c.36-.36.73-.71,1.1-1.06.18-.18.27-.13.42.16a2.36,2.36,0,0,0,.61.92c.16.53-.24,1.11.22,1.57.05.27-.07.54.12.83s.14.58.28.86c0,.05,0,.14,0,.21s.07.18.09.17c.4-.06.45.43.79.48s.42.37.62.57c-.16.35.25.56.21.89s0,.58,0,.84a3.79,3.79,0,0,0-.57.56c-.19.3-.54.08-.76.29a3.77,3.77,0,0,1-.45.23c-.15.08-.21.31-.42.3s-.28.21-.45.3l0,1.85a.56.56,0,0,0,.48.47.54.54,0,0,0,.22,0c.31-.06.43.17.57.35-.07.09-.19.18-.19.25,0,.39-.23.64-.37.95a3.13,3.13,0,0,1-.48.88,3.82,3.82,0,0,0-.5.78c-.17.29-.32.6-.46.9a.76.76,0,0,0,0,.3l-2.39,2.31h-.39c0,.06-.1.12-.1.18s0,.19-.16.24c0-.13-.08-.36-.13-.36-.48,0-.87-.49-1.39-.27a3.42,3.42,0,0,0-.47.46c-.09.14-.13.31-.23.45s0,.51-.26.66a2.44,2.44,0,0,0,0,.54c.07.48-.26,1,.18,1.44-.08.11-.25.17-.22.34s-.17.66.15.92l.06,1a.2.2,0,0,0,.08.08c.22.22.08.37-.09.53s-.28.16-.24.33-.17.45-.25.67-.27.47-.23.78a.92.92,0,0,1-.22.89.21.21,0,0,0,0,.2c.22.15.2.37.17.59a.44.44,0,0,0,.2.46c.26.16.19.52.43.71.07,0,0,.28,0,.42l1.21,1.26a.18.18,0,0,1,.07.08.4.4,0,0,1,0,.11,5.74,5.74,0,0,1-.5,1,6.75,6.75,0,0,1-.93.92l-.47.46c-.41-.17-.7.34-1.11.22,0,0-.15.11-.22.17l-.42-.43a2.17,2.17,0,0,0-.51,0,6,6,0,0,0-.65.27c-.13.38-.48.76-.22,1.17a1,1,0,0,1,.15.59.55.55,0,0,0,.59.58c.11,0,.22,0,.33,0s.12.13.17.23c.14.34.52.57.44,1,0,0,.05.06.08.08.27.15.28.47.45.68s.4.43.61.64c.25,0,.5,0,.66.24.06.08.16.21.24.2a1.09,1.09,0,0,1,.67.23.4.4,0,0,0,.41,0,.89.89,0,0,1,.92-.14,1.47,1.47,0,0,1,.87.5,2.61,2.61,0,0,0,.23.24c-.37.39-.13.88-.23,1.29.13.24.41.33.44.62s.46.15.53.42c.21-.13.3-.42.67-.43l.33.35c.11.12.26.17.36.05s.39-.14.58-.15c.53-.52.64-1,1.14-1.5.15,0,.22,0,.33,0a.7.7,0,0,1,0-.25c0-.09.06-.21.18-.17-.06-.29.18-.57,0-.81s-.1-.47-.13-.71-.29-.31-.23-.56c-.37-.25,0-.74-.33-1-.09-.07-.09-.25-.16-.36a2.27,2.27,0,0,0-.3-.32c-.17-.27.12-.64-.2-.91-.1-.08-.05-.34,0-.51s-.06-.36.11-.5.12-.41.11-.61.25-.26.24-.45.2-.28.3-.42.32-.25.38-.49a.53.53,0,0,1,.66-.4c.2,0,.24-.25.46-.22s.29.07.39-.08.25-.12.39-.12.24,0,.28.12a.35.35,0,0,1-.06.29,2.65,2.65,0,0,1-.36.44c-.15.18-.28.44-.57.45-.13,0-.21.06-.2.19s-.32.3-.23.56c-.13.12-.27.24-.24.45-.23.16-.24.46-.4.67.3.21.06.57.18.79a5.81,5.81,0,0,0,.56,1.08c.35.42.75.79,1.13,1.18,0,.31.1.65-.22.9-.07.06,0,.29,0,.43s-.34.38-.26.66c-.13.1-.22.28-.42.31a.88.88,0,0,1,0,.28c0,.1-.21.17-.33.14,0,.18-.24.37-.25.55-.18.21-.45.34-.49.67,0,.06-.34.1-.34.15,0,.33-.29.58-.27.87s-.33.39-.25.67-.23.34-.23.56-.47.12-.53.41c0,0-.07,0-.08.07s-.06.21,0,.3.15.15.21.24.17.43.32.49.39-.25.6-.37.25-.06.38-.14.28-.16.66,0,.47.18.66-.05.66-.27.86-.6a.36.36,0,0,1,.28-.11c.43,0,.77,0,.85-.55,0-.12.19-.21.29-.31.09.08.21.22.24.2.58-.34,1.2-.6,1.82-.89a1.89,1.89,0,0,0,.4-.36c.41.14.7-.35,1.11-.2.1,0,.28,0,.28-.09,0-.36.41-.43.44-.69s.37-.37.42-.59a1.4,1.4,0,0,1,.41-.59c.12-.13.12-.19,0-.37s-.16-.14-.15-.27,0-.51,0-.76L38.63,284c0-.21,0-.43,0-.68l.54-.5c.29.11.38-.29.68-.24a1.48,1.48,0,0,1,.45.24c.08.05.22,0,.28.1,0,1.25,0,1.25-.22,1.55.18.16.31.44.61.33s.48.28.78.24a.68.68,0,0,0,.67.23c.24,0,.52.11.72-.07s.2-.06.33,0c.35.23.59,0,.81-.25-.07-.08-.17-.15-.2-.24a.25.25,0,0,1,.09-.29,4.1,4.1,0,0,0,1-1.53,4.55,4.55,0,0,1,.89-1.43c0-.23,0-.41,0-.65l.44-.34c0-.29-.07-.56,0-.71a1,1,0,0,0,.22-.57c0-.21-.08-.44.08-.62l.36-.07a8,8,0,0,0,0-.85c0-.34.17-.59.23-.89a4,4,0,0,0,0-1c0-.38.33-.62.24-1a.45.45,0,0,1,.21-.46c-.08-.25.29-.34.24-.55s.22-.43.23-.67,0-.44,0-.65.3-.31.23-.57.06-.26.18-.36.32-.28.27-.54.11-.25.21-.35.29-.22.24-.44c.21-.11.2-.35.31-.52a2.73,2.73,0,0,0,.35-.62,2.43,2.43,0,0,1,.2-.36c.06-.11,0-.28.05-.41s.27-.24.23-.46a2.06,2.06,0,0,1,0-.43.4.4,0,0,1,.14-.38c.18-.14,0-.36.1-.5s.26-.24.23-.46a.64.64,0,0,1,.22-.67c-.12-.32.17-.51.24-.78,0-.06.07-.16.1-.16.41,0,.5-.38.78-.53v-.48A5.92,5.92,0,0,0,53,263c.14-.14.33-.24.39-.45-.06-.06-.15-.11-.15-.16,0-.33,0-.65,0-1a1.67,1.67,0,0,1,.5-.68,1.21,1.21,0,0,0,.59-.59c.06-.17.26-.28.24-.44,0-.36.41-.19.42-.35,0-.39.26-.38.51-.33s.47-.14.62-.33a1.23,1.23,0,0,1,.76-.53c.25,0,.5.07.74,0a.85.85,0,0,1,.5-.61c1.11-.54,1-.54,1.56-1.54.09-.18.28-.32.22-.57a6.94,6.94,0,0,1,.38-.71l.52-.51A3.14,3.14,0,0,0,59.79,253.67Z" fill="#e3dacc"/><path d="M110,239.31c0-.26-.39-.27-.58-.41-.36-.28-.57-.73-1-.87a.49.49,0,0,1-.26-.32c0-.31-.29-.4-.44-.62a1.3,1.3,0,0,0,0-.62c-.1-.18-.16-.37-.26-.55s-.14-.1-.14-.16a9.62,9.62,0,0,1,0-1.2,2.21,2.21,0,0,1,.32-.63c0-.05.11-.1.12-.16.06-.52-.11-1.06.23-1.56.13-.18-.28-.31-.19-.56-.24-.13-.19-.43-.36-.62s-.38-.14-.54-.3-.6-.13-1-.11-.51,0-.77,0c-.35-.32-.8-.22-1.21-.24s-.65.06-.89-.24c-.35.07-.58-.19-.86-.31a2.07,2.07,0,0,1-.84-.61,11.28,11.28,0,0,0-.83-.87h-.53l-.32-.47h-.91c-.2-.32-.52-.2-.79-.21l-2.29,0c-.14,0-.35,0-.41,0-.21.24-.47.18-.71.15-.6-.08-1,.33-1.54.49a2.38,2.38,0,0,1-1.07.6c-.18.34-.66,0-.83.37h-.54l-1.86,0c-.08.06-.15.15-.24.21-.26.15-.31.45-.48.67s0,.42-.09.62a.53.53,0,0,0,.21.57c0,.17.08.36-.09.51a.31.31,0,0,0-.14.27,2.81,2.81,0,0,1,0,.65c-.06.23-.28.4-.23.68,0,.1-.08.19-.21.16s-.22.2-.35.21a.59.59,0,0,0-.38.16c-.06.05-.25.06-.28,0-.15-.21-.37-.19-.58-.2-.55,0-1.1,0-1.64,0a1.33,1.33,0,0,0-.68.21,2.66,2.66,0,0,0-.64.29c-.27.23-.59,0-.81.14a.77.77,0,0,1-.58.19c-.21,0-.44.08-.64-.12,0-.22,0-.48-.2-.65a.71.71,0,0,1-.24-.45c0-.15-.27-.25-.35-.4a1.41,1.41,0,0,1-.25-.66.63.63,0,0,0-.37-.59c-.26-.15-.55-.25-.82-.41s-.56-.05-.85-.06H77a.91.91,0,0,0-.21,0l-.38.37a1.25,1.25,0,0,0-.61.13,3.17,3.17,0,0,0-.68.47c-.4,0-.58.38-.84.61s-.57.55-.86.83c0,.39-.4.48-.55.75a4.45,4.45,0,0,0-.42.81c0,.07-.09.12-.15.16-.26.15-.23.42-.24.64-.31.4-.76.65-1,1.14s-.62.55-.83,1a4.56,4.56,0,0,1-.88.94c-.26.28-.63.47-.72.9a.34.34,0,0,1-.23.22c-.28,0-.43.22-.61.38s-.46.47-.71.68-.52.35-.76.54a4.82,4.82,0,0,0-.79.51c-.11.13-.37.13-.53.28-.5-.12-.94.33-1.44.19s-.71.31-1.11.2a2.93,2.93,0,0,1-.34.5c-.32.34-.67.66-1,1-.27,0-.3.16-.41.35a1.16,1.16,0,0,0-.18.59c0,.17,0,.35,0,.48s-.37.28-.42.55c.18,0,.37.07.45,0,.35-.28.74-.18,1.12-.19s.55.06.73-.05.4-.11.56-.27.38-.13.54-.29.36.08.5-.09.4-.08.59-.14l.65-.63,1.07,0s0,0,.13.1,0,.28,0,.37-.15.55-.28.76a2,2,0,0,0-.14,1.33c.29.22.12.54.16.81.33.24.18.59.2.9a2.91,2.91,0,0,1,0,.42c.08.09.2.17.21.25,0,.38-.13.79.2,1.12a.21.21,0,0,1,0,.2c-.22.14-.19.36-.2.58s0,.41-.06.51-.22.51-.45.7a.45.45,0,0,0,0,.73.73.73,0,0,1,.26.66c0,.36.3.62.24,1a3.36,3.36,0,0,1,.52.55c.14.2.15.47.42.63.19,0,.4,0,.62,0s.44-.08.59.14.45,0,.59.17.42.1.53.31c0,.05.12.05.19.07.5.13.51.16.17.55-.13.13-.16.31-.25.43-.35.48-.49,1.06-.88,1.55.09.08.19.25.31.26a5,5,0,0,1,.77.25,8,8,0,0,0,1.3,0c.13,0,.19-.09.28-.13a.89.89,0,0,1,.88.09c.16.08.16.08.37,0,.38-.19.55-.22.73.07s.52.19.79.33c.24.36.7.58.88,1a2,2,0,0,1,.08.23c.24,0,.49,0,.74,0a.5.5,0,0,0,.28-.11,2.72,2.72,0,0,0,.64-1.25,2.85,2.85,0,0,1,.41-1.05c.09-.19.11-.19,0-.37s-.16-.14-.15-.27c0-.28,0-.58.24-.78l0-.86c.33-.24.21-.6.2-.9s.34-.63.25-1a4.35,4.35,0,0,1,.38-.36c.07-.06.22,0,.27-.11.39-.45,1-.73,1.19-1.35a1.69,1.69,0,0,0,.48-.67.48.48,0,0,1,.56-.24s.12,0,.23-.07c0-.23,0-.48,0-.69l.66-.64c0-.22.1-.34.25-.44s.28-.07.36-.16.1-.31.24-.45.08-.34.25-.43.2-.36.32-.52.33-.3.46-.47a2.09,2.09,0,0,0,.25-.44c.27.07.38-.16.53-.3a.93.93,0,0,1,.74-.36.92.92,0,0,0,.61-.32c.19-.18.46-.22.61-.38s.61,0,.77-.28a2.18,2.18,0,0,1,1.24.07,1.08,1.08,0,0,0,1.1,0,.72.72,0,0,1,.4-.08c.4,0,.8,0,1.2,0,.18,0,.42,0,.51.07s.5.12.62.38.37.18.52.32.32.46.54.53c.53.17.74.66,1.11,1,.15.13.09.42.31.53a1.33,1.33,0,0,1,.36.17c.12.12.12.3.21.46s.14.39.32.51.12.5.38.62.16.38.3.53a5.7,5.7,0,0,0,.69.7c.28.24.29.65.6.86l.15-.12c.17-.11.4-.09.54-.29s.09-.42.31-.53c-.06-.3.22-.53.22-.77s.28-.48.27-.78.32-.54.25-.88c.29-.21.22-.79.77-.74.13-.16.38-.25.32-.53,0-.06,0-.18,0-.21.31-.2.38-.58.62-.83l.48-.45c-.11-.29.35-.38.24-.67.22-.13.19-.35.24-.56a1.39,1.39,0,0,1,.33-.62,8.94,8.94,0,0,1,1.26-1.2c.35-.26.83-.33,1.13-.69.23,0,.37-.18.55-.25s.45-.17.66-.28c.69-.34.69-.37,1.27-.34a1.4,1.4,0,0,0,1-.4,1.73,1.73,0,0,1,.67-.26c.22-.07.42-.23.7-.17l.78-.79c0-.25,0-.55,0-.84C110.27,239.77,110,239.63,110,239.31Z" fill="#e3dacc" fill-rule="evenodd"/><path d="M115.13,224.92c0-.25-.18-.4-.23-.62a.42.42,0,0,0-.58-.21,2.08,2.08,0,0,1-.39.15,8.55,8.55,0,0,0-1.27.58c-.19.11-.37.24-.56.37a4.89,4.89,0,0,0-.58.54,2,2,0,0,0-.52.76,2.06,2.06,0,0,1-.57.83c-.12.08-.29,0-.38.17a1.88,1.88,0,0,1-.32.31.67.67,0,0,1-.14.09c-.19,0-.4-.1-.55.06.25.29.1.62.14.93-.33.19-.36.6-.66.8-.07.06-.06.23-.14.29s-.1.32-.12.49.17.17.25.25c.38,0,.76,0,1.09,0,.1.1.22.16.21.22,0,.33.32.27.44.44s.21.06.23,0c.2-.28.5-.08.77-.19l.65-.65c.19,0,.42-.06.54,0s.32.25.5,0a.82.82,0,0,0,.69-.85.89.89,0,0,0,0-1.11,1,1,0,0,1-.11-.91,3,3,0,0,1,.26-.22.51.51,0,0,0,.24-.52c.21-.23.19-.66.64-.7.16,0,.43-.6.45-.78s-.06-.2-.12-.3S115.13,225.08,115.13,224.92Z" fill="#e3dacc" fill-rule="evenodd"/><path d="M238.55,121.13c.16-.32-.25-.51-.19-.78s-.22-.65-.28-1c-.22-.11-.1-.4-.29-.54a.38.38,0,0,1,0-.5c.21-.23.29-.4,0-.62.06-.27-.3-.39-.25-.66-.23-.18-.16-.54-.42-.7.1-.25-.24-.34-.21-.57a3.25,3.25,0,0,0,0-.54c0-.1-.29-.14-.09-.31s-.15-.25-.1-.41-.23-.26-.21-.46a.37.37,0,0,0-.07-.19,1.9,1.9,0,0,1-.33-.73,2.7,2.7,0,0,0-.22-.9.74.74,0,0,1,0-.21v-.7c0-.13-.18-.18-.22-.35-.17-.76-.18-.76-.58-1.17a4.39,4.39,0,0,1-1.11-1.74c-.1-.22-.28-.41-.2-.68s-.22-.49-.28-.76-.31-.24-.49-.34-.49-.24-.71-.4c-.34.1-.54-.28-.89-.26a1.3,1.3,0,0,1-.63-.3.41.41,0,0,1-.24-.44c-.24-.17-.23-.42-.2-.68-.27-.16-.22-.43-.21-.67l0-2c0-.15.06-.36,0-.42a.67.67,0,0,1-.18-.7c0-.27-.35-.39-.21-.67a1.91,1.91,0,0,1-.2-1.12.57.57,0,0,0-.19-.58.22.22,0,0,1,0-.29.38.38,0,0,0,.16-.37c0-.51,0-1,0-1.53.42-.34.19-.81.23-1.22,0-.57,0-1.16,0-1.74,0-.35-.09-.73.23-1-.1-.51.31-.93.26-1.44,0-.14.31-.3,0-.48,0,0,0-.17,0-.2.25-.27.52-.52.78-.77.43.07.54-.63,1-.43.05,0,.17-.1.25-.17s.2-.21.07-.45a1.83,1.83,0,0,0-.45-.69,6.08,6.08,0,0,1-.61-.63c-.28-.32-.71-.4-1-.63s-.49-.06-.73-.08c-.08.07-.2.13-.23.23a1.62,1.62,0,0,1-.49.67,6.68,6.68,0,0,1-.81.39,3.9,3.9,0,0,0-1.48,1c-.13.18-.33.05-.43.07-.47-.2-.56-.66-.85-1a.75.75,0,0,1-.21-.62c-.27-.3-.47-.66-.77-.82a8.37,8.37,0,0,0-1-.48,3.79,3.79,0,0,1-.62-.35c-.18-.12-.44-.12-.46-.46,0-.17-.75-.53-1-.53s-.58,0-.87,0-.25-.12-.37-.19-.33,0-.36.29c0,.1,0,.28-.09.28-.46,0-.51.41-.7.68s-.1.28,0,.46a1,1,0,0,1,0,1,.77.77,0,0,0-.14.6c.08.3.08.36.16.67a.53.53,0,0,1-.15.59c-.19.16.06.52-.25.66-.13.35-.38.68-.29,1.09a.54.54,0,0,1,0,.22c-.07.55.15,1.15-.24,1.65,0,.28-.11.59.2.79-.08.41.51.49.45.91,0,0,.1.1.15.15s.13.17.26.16c.28,0,.58.06.79-.21.56-.14.61-.52,1.16-.69.15-.22.39-.13.59-.14.26.26.51.51.76.78,0,0,0,.15,0,.21a.27.27,0,0,0,.16.11.2.2,0,0,0,.26-.12,2.82,2.82,0,0,1,.81-1.2c.32-.35.81-.44,1.08-.83a5.1,5.1,0,0,1,.68.72c.21.35.47.79.23,1.17s-.28.78-.61,1.06c-.1.09-.22.16-.25.33a1.7,1.7,0,0,1-.22.45,2.32,2.32,0,0,1-.81,1.07,1.49,1.49,0,0,1-.9-.22,1.24,1.24,0,0,0-1-.26s-.11-.08-.16-.13v-.42l-.31-.33-1.52,0s-.76.28-.75.29c.05.36-.31.29-.47.45,0,.13,0,.28,0,.43l.43.47c-.05.24.1.53-.11.73s0,.55-.1.66l-.58.66c-.29,0-.56.09-.78-.12a2.44,2.44,0,0,0,0-.54c0-.16-.16-.3-.19-.46s.06-.47-.14-.71,0-.56-.07-.84c0-.09-.54-.17-.57-.26-.08-.25-.13-.53.15-.66s.1-.72.47-.9c0,0,0-.07,0-.1a.36.36,0,0,0-.06-.19c-.18-.22-.17-.55-.45-.7a.23.23,0,0,1-.12-.17,2.67,2.67,0,0,1,.07-.85c0-.15.18-.28.17-.47s0-.43,0-.67l-.56-.06c-.11-.27-.43-.18-.61-.38s0,0-.25-.24-.49,0-.66-.25a.21.21,0,0,0-.29,0,.4.4,0,0,1-.37.15c-.25,0-.51-.09-.74.06a1.52,1.52,0,0,1,0,.21c0,.11-.14.2-.24.14-.46-.29-1-.42-1.38-.89H211c-.16-.26-.47-.15-.65-.26a.87.87,0,0,0-.58-.2c-.21,0-.43-.1-.62.08.11.25.49.34.41.7s.38.45.21.79a.37.37,0,0,0,0,.31c.29.29.25.53,0,.84-.11.13,0,.46-.07.62a1.2,1.2,0,0,0-.22.68c0,.58,0,1.17,0,1.75a.89.89,0,0,0,.19.69c.12.12,0,.39.15.59s0,.48.06.73,0,.43,0,.63.17.14.16.17c-.09.29-.17.62-.45.74a1.56,1.56,0,0,0-.6.39.33.33,0,0,1-.29.11c-.25,0-.52-.09-.69.19a1.15,1.15,0,0,0-.78.22c-.25.11-.48.3-.78.2l-.75.31a7.62,7.62,0,0,0-.7.69c-.24.28-.64.28-.87.59a5.06,5.06,0,0,0-.79,1c-.09.21-.33.32-.34.63s-.3.46-.22.78c0,.13.06.36,0,.42-.38.33-.17.75-.23,1.12a.32.32,0,0,0,.08.3c.26.22,0,.54.17.88l1,1c0,.21,0,.43,0,.64.28.17.2.44.2.69s0,.8,0,1.2c0,.14,0,.29-.11.39s-.1.42-.32.52c.06.28-.33.39-.25.66s-.22.34-.24.56-.28.39-.24.68-.27.3-.26.54c0,0-.25.08-.35.16a.72.72,0,0,1-.88,0,1.43,1.43,0,0,0-.5-.13c-.35-.09-.55.36-.9.22-.06,0-.18.1-.25.17s-.41.31-.4.6c-.3.14-.08.51-.25.65s-.12.51-.39.61c0,.17-.1.37.06.51s.12.48.35.63c-.14.35.13.62.26.87s.19.62.5.78c.13.07.09.19.08.29a.45.45,0,0,0,.14.39,1.1,1.1,0,0,1,.3.42,2.37,2.37,0,0,0,.78.86c.24-.06.31.28.56.24s.72.14,1-.11.59,0,.76-.29c0,0,.14,0,.21,0a1.58,1.58,0,0,1,.8.12c-.29.34.19.52.18.84s0,.66,0,1c0,.59.17,1.23-.24,1.77a7.93,7.93,0,0,0,0,1.09c.05.38-.37.6-.26,1a.57.57,0,0,1-.14.6c-.19.18,0,.48-.1.72,0,.06-.13.09-.15.15s0,.4-.11.5a.77.77,0,0,0-.19.59c0,.1,0,.24-.05.3s-.24.49-.39.71-.17.48-.33.62,0,.61-.31.76c0,.27-.23.42-.39.6s-.17.46-.41.59-.38.5-.53.76a1.4,1.4,0,0,0-.31,1,.35.35,0,0,1-.12.27c-.2.21,0,.61-.32.75a3.71,3.71,0,0,1,0,.75c-.07.27-.26.47-.24.79a.93.93,0,0,1-.14.81c-.2.23,0,.56-.09.84a.16.16,0,0,1,0,.1A14.36,14.36,0,0,0,199,140c-.13.25-.49.39-.57.64s-.41.48-.6.73-.3.2-.3.3c0,.35-.3.48-.5.67s-.23.59-.54.76-.33.62-.64.82-.16.37-.3.54-.19.35-.33.51-.28.64-.5.87,0,.61-.31.76c0,.17,0,.35-.05.52a1,1,0,0,1-.18.6c-.13.16-.08.47-.11.71-.28.17-.17.45-.18.69,0,.51,0,1,0,1.53,0,.23-.29.3-.24.56a3.64,3.64,0,0,1,0,.66,5.06,5.06,0,0,0,0,.87c.05.31-.21.53-.22.78s-.29.48-.27.77c-.26.2-.26.57-.55.76s-.46.46-.71.67-.64.3-.85.61a1.28,1.28,0,0,1-.4.37,3,3,0,0,1-.45.21c-.26.09-.49.23-.74.33a3.77,3.77,0,0,0-.73.35,1.28,1.28,0,0,1-.78.23,5.21,5.21,0,0,1-1.18.59,3.92,3.92,0,0,0-.5.39c-.14.09-.33,0-.46.21a.58.58,0,0,1-.43.28c-.28,0-.34.47-.7.42-.07,0-.16.14-.24.21-.32.31-.61.63-1,.91s-.28.65-.63.83c-.12.06,0,.22-.1.28a6.64,6.64,0,0,0-.6,1.07,4.21,4.21,0,0,0-.52,1.09c-.35.17-.15.58-.36.84s-.27.62-.5.88c0,.42-.48.56-.58,1a1.35,1.35,0,0,1-.53.76c-.13.1-.29.2-.29.42s-.37.07-.39.25c-.06.36-.36.52-.57.74s-.58.56-.86.84l-.79.76c0,.42-.49.56-.58,1,0,.18-.64,0-.82.08s-.29.38-.38.35-1,0-1.23.22c0,0-.06,0-.09,0-.28-.08-.46.13-.68.22a5.3,5.3,0,0,0-.65.28,5.52,5.52,0,0,0-1.91,1.2c-.25-.1-.34.21-.57.22s-.31.33-.5.36-.35.23-.55.26a.32.32,0,0,0-.27.14c-.15.22-.4.26-.62.37a3.78,3.78,0,0,1-.63.33c-.22.08-.5-.11-.71.11s-.49.07-.73.09a4.82,4.82,0,0,1-.76,0c-.18,0-.25.16-.36.18s-.21-.16-.34-.18-.36-.06-.48.13a.22.22,0,0,1-.29.05c-.25-.33-.58-.19-.89-.2-.21.31-.52.16-.8.18s-.42,0-.52.05-.39.13-.59.16-.23.19-.35.2c-.35,0-.42.52-.81.45,0,0-.1.09-.16.14l-1,1c0,.52-.72.59-.71,1.12-.27.16-.37.57-.77.53-.11.22-.39.15-.53.3s-.48.06-.72.12-.16.12-.26.17-.17.05-.19,0c-.25-.29-.59-.21-.9-.24-.12,0-.35-.35-.35-.49,0-.47,0-.94,0-1.42s-.1-.93.24-1.32v-.77c-.3-.18-.11-.55-.28-.75s-.19-.35,0-.54a.23.23,0,0,0,0-.37c-.1-.09-.15-.24-.33-.25s-.23.15-.35.21l-.32-.33a1.9,1.9,0,0,1,0-.63.68.68,0,0,1,.58-.39.29.29,0,0,0,.16-.15c.13-.26.43-.2.62-.36s.48-.05.81-.07l.29.43h.82l.88-.85c0-.16,0-.38,0-.6s0-.35.05-.4.12-.41.31-.54.42-.6.84-.62l.8-.74c.13-.12.27-.24.23-.45.42-.29.51-.86,1-1.12.22-.13.16-.37.3-.54s.1-.53-.14-.74c-.09-.09-.21,0-.29-.1s-.24-.27-.45-.22c-.08-.15-.15-.3-.22-.45a3.45,3.45,0,0,1-.3-.65c-.12-.45-.54-.53-.87-.64a3,3,0,0,0-1.08,0c-.24,0-.39.25-.68.22s-.42.19-.64.28c-.53.22-1,.66-1.63.53a.55.55,0,0,1-.57.21c-.29-.1-.44.2-.68.21s-.58-.07-.79.2c-.35-.13-.57.23-.88.24-.15.31-.5.06-.66.23a5.65,5.65,0,0,1-.78.53,6.76,6.76,0,0,0-.55.52l-.63.61c-.43-.14-.26.33-.46.45s-.31.35-.49.39-.2.21-.3.33a9.16,9.16,0,0,0-.43.82,3.39,3.39,0,0,0-.43.79,6.38,6.38,0,0,0,0,1c0,.09-.18.15-.2.24-.07.24.08.53-.11.72s-.12.47-.15.71.07.71-.22,1c-.07.07,0,.29,0,.41s.19.19.18.37a8,8,0,0,1,0,1,2.64,2.64,0,0,0,.21,1,1.64,1.64,0,0,1,0,.54c0,.22.23.27.21.46s0,.44.21.57c0,.29,0,.58,0,.87s-.12.65.19.9c-.15.23-.3.45-.43.69,0,.05,0,.14,0,.22,0,.26-.34.37-.24.67s-.16.44-.22.67a3.24,3.24,0,0,1-.87,1.6l-.7.69c.17.45-.62.22-.47.66-.11.15-.33.05-.46.21a7.25,7.25,0,0,1-.62.62c-.21.2-.41.41-.63.6a2.91,2.91,0,0,1-.74.6,1.48,1.48,0,0,0-.64.55c-.19.26-.51.24-.71.44a3.18,3.18,0,0,1-.63.59,3.61,3.61,0,0,0-.69.46c-.09.09-.27.08-.37.16s-.43.37-.65.56c-.37-.05-.42.52-.81.42-.18.22-.49.33-.56.63s-.38.42-.55.65c-.28-.1-.38.32-.67.22a1.58,1.58,0,0,1-.47.67,1.67,1.67,0,0,1-.69.47c-.15,0-.27.23-.4.36s-.16.46-.39.61a1.15,1.15,0,0,0-.48.66c-.53.37-.53,1-.8,1.53-.09.17,0,.41-.23.56,0,0,0,.2.05.3s.22.1.06.22a.35.35,0,0,0-.14.27c0,.84,0,1.67,0,2.47.14.29.4.32.62.44,0,.31,0,.63,0,1-.11,0-.24,0-.31.05-.22.19-.39.5-.64.58a1.62,1.62,0,0,0-.68.48c-.14.13-.33.15-.45.24s-.59.21-.79.5-.41.09-.52.31-.35.2-.54.29a4.49,4.49,0,0,1-1,.4,1.72,1.72,0,0,1-1.48-.06c-.35.1-.57-.31-.88-.25s-.23-.37-.45-.45a3.17,3.17,0,0,0-.87,0c-.37.1-.56-.3-.89-.25s-.35-.21-.51-.34a7.12,7.12,0,0,1,0-1.31c.08-.4-.29-.63-.23-1,0-.22-.25-.33-.39-.49s-.32-.46-.53-.53a1.9,1.9,0,0,1-.67-.5c-.29.1-.37-.35-.66-.24a.53.53,0,0,0-.46-.24,8.38,8.38,0,0,1-.87,0c-.2.31-.52.15-.79.2-.09,0-.16.12-.26.16s-.21,0-.29.08-.2.19-.37.17a.61.61,0,0,0-.3,0,.87.87,0,0,0-.24.23c-.1.12-.29.09-.36.16a.75.75,0,0,1-.58.2c-.21,0-.32.28-.57.2s-.38.27-.68.22a8.42,8.42,0,0,0-1.42,0,.87.87,0,0,1-.47-.2c-.2-.11-.46,0-.67-.24s-.55.08-.8-.18-.48-.07-.73-.09-.58,0-.87,0a5,5,0,0,1-.87,0c-.32-.07-.53.19-.8.2a16.83,16.83,0,0,1-1.74,0,1.88,1.88,0,0,0-1.29.31.62.62,0,0,1-.5.09c-.33,0-.54.36-.91.23-.06,0-.21.17-.31.26a.81.81,0,0,1-.27.16c-.48.16-.91.44-1.38.63a1.46,1.46,0,0,1-.68.2l-7.1-.13c-.11,0-.26,0-.32,0-.44-.4-1-.17-1.45-.23a5.85,5.85,0,0,0-.87,0l-.55.61c-.49,0-.93,0-1.36,0,0,0-.08-.19,0-.28s.17-.09.27-.11.22-.27.14-.33-.33-.47-.64-.55a.49.49,0,0,1-.42-.54c-.24-.13-.19-.43-.36-.62s-.49-.13-.6-.39c-.33,0-.53-.38-.89-.24-.06,0-.18,0-.21,0-.2-.31-.52-.19-.79-.21s-.65,0-1,0c-.33.37-.75.11-1.13.17-.21,0-.49-.06-.62,0a.68.68,0,0,1-.6.14c-.26-.06-.36.19-.57.22s-.49-.1-.71.12-.6-.07-.76.29a1.12,1.12,0,0,0-.68.19,1.4,1.4,0,0,1-.76,0c-.32-.08-.47.33-.79.22s-.45.13-.68.2a1.58,1.58,0,0,0-.9,1.07,2.12,2.12,0,0,0,0,.76,2,2,0,0,1,0,.65c-.11.31.37.39.27.58a4.37,4.37,0,0,1-.85.83,4.71,4.71,0,0,1-.82.38,2.27,2.27,0,0,0-.61.39c-.19.15-.45.16-.61.38a1.84,1.84,0,0,1-.68.47,3.32,3.32,0,0,0-.56.51c-.35,0-.47.29-.68.46a1.36,1.36,0,0,1-.35.21c-.22.08-.39.34-.61.4s-.37.4-.58.42-.42.25-.61.4-.22.19-.34.26-.61.16-.8.41-.63.2-.78.53c-.51.18-.86.68-1.44.76-.16.25-.48.24-.71.4a3.86,3.86,0,0,1-.82.39c-.28.11-.44.38-.69.45s-.48.25-.74.33a4.32,4.32,0,0,0-.73.33.54.54,0,0,0-.18.11,7.49,7.49,0,0,0-.7.68c-.24.29-.67.27-.85.6s-.45.32-.7.45-.73.33-1.1.5-.4.26-.68.22-.45,0-.65,0c-.42-.11-.71.27-1.12.22-.22,0-.1.29-.24.41s-.53.5-.8.75a2.54,2.54,0,0,1-.84.63c-.21.08-.35.36-.56.5a4.67,4.67,0,0,1-.65.27.6.6,0,0,0-.25.19c-.16.27-.54.18-.69.44-.3-.06-.47.36-.79.21-.4.26-.9.28-1.31.52-.56.32-1.18.52-1.73.85-.25.15-.6,0-.76.28,0,0-.06,0-.1,0s-.15,0-.19,0a.46.46,0,0,0-.37-.18l-1.42,0c-.13,0-.34,0-.4.06s-.4.1-.55.28-.58.48-.76.78-.34.44-.48.67-.25.56-.42.8.06.62-.31.75c.15.39-.34.63-.24,1-.28.28-.16.74-.45,1,.07.28-.17.45-.22.68a4.74,4.74,0,0,0,0,.76c0,.36,0-.1,0,.26a1.63,1.63,0,0,0,.2.79c.07.23.28.39.23.68s.25.32.37.5,0,.37.26.38.34.4.58.43.38.3.61.46a2.61,2.61,0,0,1,.62,0c.25.06.36-.22.57-.22s1.2.66,1.39.48a.64.64,0,0,1,.4-.05c.21,0,.15.17.2.3s.17.29.28.31c.32.05.47.3.67.49a7.6,7.6,0,0,1,.68.71c.14.19.39.14.53.31s.33.07.5.11.24,0,.3.07.17.08.32,0c.36-.12.56-.41.85-.61a8.44,8.44,0,0,1,.9-.46.18.18,0,0,0,.08-.07c.25-.36.73-.42,1-.75a.25.25,0,0,1,.17-.1,1.62,1.62,0,0,1,.44,0c.21,0,.26-.21.46-.23s.61.15.84,0,.62-.09.93-.12a6.32,6.32,0,0,1,.87,0h.11l.53.55a.78.78,0,0,0,.29.75l.94,0a.8.8,0,0,0,.08-.12c.11-.36.2-.42.39-.22s.4.32.47.55-.13.49.26.49c.11,0,.17.08.18.22a.47.47,0,0,0,.39.43c.17,0,.25.09.25.27s.06.17.09.17c.34,0,.46.24.56.53s.22.35.35.36c.32,0,.39.31.59.45.45-.29.72-.27,1,.12.07.11,0,.29.17.35a2.69,2.69,0,0,0,.75,0c.3-.06.42.26.68.25a.55.55,0,0,0,.39-.1c.25-.23.29-.36.13-.75a.83.83,0,0,0-.09-.16c.3-.14.1-.48.25-.66s.24-.6.55-.76a.19.19,0,0,0,.06-.28c-.09-.14-.26-.23,0-.4s.09-.49.07-.78a.57.57,0,0,1,.13-.49c.14-.14.13-.35.11-.87,0-.18,0-.43,0-.52a1,1,0,0,0,.21-.58c.05-.19.2-.35.27-.54s.21-.21.17-.37.2-.54.21-.78.3-.48.26-.78c.27-.15.21-.43.24-.66.24-.23.49-.45.71-.69a.73.73,0,0,1,.66-.26c.08,0,.17-.11.27-.18.22.08.27.39.55.43s.37.32.56.47l.51.43a3.73,3.73,0,0,0,0,.89,4.12,4.12,0,0,0,.3.64c.13.36.17.75.52,1,.07,0,0,.28,0,.42l.55.57c.15-.08.37.1.49-.08s.34-.08.47-.22l.35-.35c.31,0,.56,0,.82,0a.55.55,0,0,0,.48-.18s.21,0,.28,0a.5.5,0,0,0,.37.17c.36,0,.73,0,1.11,0,.22-.39.68-.45,1-.73a3.7,3.7,0,0,1,1.09-.54c.22-.07.38-.31.67-.22s.31-.27.57-.21.51,0,.76,0c.09,0,.17.11.26.16a.26.26,0,0,0,.37,0c.11-.13.25-.17.37-.07s.2.21.37.18.66.16.9-.19a5.35,5.35,0,0,1,1,0c.34.06.55-.31.9-.22a2,2,0,0,0,.54,0c.21,0,.42.08.6-.14s.35,0,.45-.23a.1.1,0,0,1,.09,0c.48.13.78-.2,1.14-.41s.47-.32.78-.22a1.61,1.61,0,0,0,.44,0l.47-.43h.56c.19,0,.24-.25.46-.21a3.25,3.25,0,0,0,.54,0l1.27,0c.23.25.44.45.64.66l.23-.2c.31.5.94,0,1.26.41l1.12.07,1.23-1.18c0-.16-.06-.36.1-.53s.42.1.57-.13,0-.29,0-.43l.79-.76c.1-.09.18-.22.36-.21s.09-.35.26-.37.52-.35.88-.27a2.32,2.32,0,0,0,.74,0c.23-.28.54-.11.81-.15.2-.3.51-.2.79-.2h.75c.09-.07.17-.2.25-.2a8.42,8.42,0,0,1,.87,0c.24-.34.6-.17.9-.19s.66,0,1,0a6.32,6.32,0,0,0,.87,0c.34,0,.59.18.89.24a2,2,0,0,0,.76,0c.34-.1.5.28.78.23s.54.2.78.22.49.3.78.26c.19.37.71.09.91.45.24,0,.5.12.72-.1,0,0,.11-.1.17-.1a8,8,0,0,1,1.2,0,2.28,2.28,0,0,1,.62.35c.06,0,.12.09.18.08a1.2,1.2,0,0,1,.84.34.56.56,0,0,0,.59.09.64.64,0,0,1,.59-.16c.32.1.47-.34.79-.22.07,0,.18-.07.27-.11a1.87,1.87,0,0,1,1.19-.3,4.8,4.8,0,0,0,.66,0c.24-.33.58-.19.93-.2.11.46.73.36.91.79-.28.1-.13.49-.4.6s-.21.43-.4.6-.36.36-.55.52-.25.38-.53.31a5.11,5.11,0,0,0-.62.61c-.19.24-.54.19-.7.45s-.58.37-.84.6-.54.5-.79.76-.26.1-.37.16a2.82,2.82,0,0,1-.46.23c-.15,0-.26.23-.4.36-.44.43-.87.88-1.34,1.28a2.55,2.55,0,0,0-.57.93l.63.65c0,.25,0,.4,0,.56.42.43.86.87,1.28,1.31,0,.16,0,.3,0,.62l-.43.21c.07.15.24.21.16.3s-.26.33,0,.53.35.36.52.53c-.16.14-.34.3-.18.46s.1.4.17.59a3,3,0,0,0,.41.49s0,.14,0,.21,0,.2.06.3a.52.52,0,0,1-.11.82.94.94,0,0,0-.16.23.55.55,0,0,1,.15.69c-.11.35.22.5.25.79s.21.33.46.38.26.23.4.34c.39.3.12.6,0,.89a2.3,2.3,0,0,1,.6,1c0,.06.06.18.09.18.28,0,.35.14.37.38,0,0,.12.06.18.09a2.29,2.29,0,0,1,.7.61l1.75,1.81c.27.08.54-.1.58.28,0,.21.19.34.41.43a4.21,4.21,0,0,1,.9.45,6.05,6.05,0,0,1,.79.73.87.87,0,0,0,.36.18c.09,0,.11.23.16.35s.06.07.08.06c.32-.11.56.11.77.25a2.37,2.37,0,0,0,1.68.45.75.75,0,0,0,.15,0c.51-.34.77-.9,1.36-1.09.19-.06.3-.31.48-.44s.29-.65.63-.83a.12.12,0,0,0,.07-.07s0-.08,0-.11c0-.23.1-.38.21-.57s0-.42,0-.63c.27-.26.55-.51.79-.78.09-.09.09-.32.17-.35.66-.21,1-.83,1.47-1.23.2-.15.37-.35.56-.52.45,0,.52-.39.69-.67a13.25,13.25,0,0,1,.72-1.34c.14-.18,0-.43.16-.59s.37-.35.55-.53.29-.23.26-.45c0,0,.1-.09.16-.1s.36.07.49-.12a1.52,1.52,0,0,1,.5-1.32c.15-.17.13-.4.31-.53s.08-.26.1-.4.37-.7.38-.71c.22-.23.6-.23.78-.53,0,0,.12,0,.18-.07.22-.1.42-.21.64-.3s.48-.35.74-.31.41-.3.68-.22a.65.65,0,0,1,.68-.21c.2-.31.51-.21.79-.2l1.42,0c.31,0,.64.08.89-.2.17,0,.34,0,.51.09a2.32,2.32,0,0,1,.67.49c.13.18.34.09.51.09s.13-.13.14-.25.07-.17.21-.18.29.08.41-.06a1.78,1.78,0,0,1,.68-.46.42.42,0,0,0,.25-.44c0-.2-.06-.42.15-.59s-.06-.52.26-.66a2.36,2.36,0,0,0,.29-1.09,5.75,5.75,0,0,1,0-1.31c0-.31-.31-.47-.22-.79s-.18-.29-.28-.43-.14-.11-.13-.16c0-.36-.31-.46-.48-.68a2.25,2.25,0,0,0-.61-.62c-.22-.13-.48-.25-.71-.37-.41-.24-.85-.42-1.25-.67a6.31,6.31,0,0,1-1.09-1c-.21-.2-.41-.41-.61-.62.08-.08.21-.16.21-.24a1.21,1.21,0,0,1,.23-.68c.09-.16,0-.43.21-.57,0-.29.25-.4.39-.6a1.47,1.47,0,0,0,.3-.63.74.74,0,0,1,.26-.55c.11-.09.24-.17.21-.35a.46.46,0,0,1,.19-.47,1.87,1.87,0,0,0,.63-.82c.11-.22.17-.48.41-.6s0-.43.34-.52v0s.08-.07.06,0,.13,0,.13,0a.58.58,0,0,1-.1.12,0,0,0,0,1-.05,0,3.25,3.25,0,0,0-.06.56v1.09a1.85,1.85,0,0,1,.4.82c0,.12.26.17.16.31a2.53,2.53,0,0,0-.18.37,2.27,2.27,0,0,1-.42.46q0,.78,0,1.53a9.5,9.5,0,0,1,.76.8c.15.19.39.14.53.31s.33.1.5.11c.36,0,.73,0,1.09,0,.09,0,.17.13.27.21.1-.12.29-.24.3-.38s.15-.51-.09-.72-.16-.27,0-.36.1-.34.23-.45a.91.91,0,0,1,.34-.25c.16,0,.34,0,.49-.12s.41-.08.62-.08.24-.14.35-.22c.07.08.18.15.22.24.15.31.24.65.68.7.08,0,.15.15.22.23s.07.36,0,.36c-.3,0-.48.33-.79.23-.13,0-.17.1-.26.15-.58.3-.58.31-1.1,1-.11.16-.25.37-.53.3s-.36.18-.54.32c0,.2.07.47,0,.62a3.94,3.94,0,0,1-.29.54.51.51,0,0,0-.15.38c0,.14,0,.31.19.31s.19.08.27.14a.52.52,0,0,0,.74-.1l.24.18c.12-.26.49-.12.61-.37a6.26,6.26,0,0,1,.75,0c.18,0,.24-.17.36-.19a1.4,1.4,0,0,0,.46-.22c.17-.1.42.07.59-.16s.36,0,.45-.23a.16.16,0,0,1,.09-.05c.29,0,.58,0,.87,0s.46-.32.79-.22.59,0,.87,0a1.49,1.49,0,0,0,.89-.23,1.08,1.08,0,0,1,.69-.19.69.69,0,0,0,.39-.12,1.19,1.19,0,0,1,1.09.08c.07,0,.09.06.16,0a.26.26,0,0,1,.45,0,.52.52,0,0,0,.59.08,1.59,1.59,0,0,1,1.48,0c.23.07.51,0,.66.25h.55l1.84,0c.26.2.4.51.81.47a1,1,0,0,1,.61.34c.2.2.49,0,.69.22s.44.18.59.41.47.14.6.39a.43.43,0,0,0,.46.21c.14,0,.34,0,.4,0,.24.29.54.14.81.18.34-.18.48-.63.94-.66.12,0,.11-.18.09-.28s-.1-.11-.13-.17c-.13-.21-.1-.3.1-.4,0,0,.08,0,.11,0a1.77,1.77,0,0,0,.84-1.48c0-.21,0-.49.08-.61s.16-.38.28-.55a6.9,6.9,0,0,0,.48-.89,1.55,1.55,0,0,0,.31-1.08,1.08,1.08,0,0,1,0-.31,5.09,5.09,0,0,0,.57-.26,1.76,1.76,0,0,1,.65,0l.84,0a3.15,3.15,0,0,0,.56-1c0-.1,0-.21.1-.29s.31-.31.48-.45,0-.51.23-.67,0-.17-.06-.23a.28.28,0,0,1,0-.3s.09-.1.15-.15l.39-.38.48-.43c.4.1.7-.32,1.12-.2a.47.47,0,0,0,.57-.18l.26.19.82,0a2.15,2.15,0,0,1,.75,1l-.53.5c-.15.05-.34-.07-.54.1,0,.14,0,.32,0,.5a3.86,3.86,0,0,0,0,.76c.06.32-.33.46-.25.78s-.27.38-.25.67-.17.43-.28.64-.14.1-.14.16c0,.58,0,1.16,0,1.74.34.28.16.67.18,1s0,.65,0,.95a1.77,1.77,0,0,1,.64,1.19.29.29,0,0,0,.06.19,1.76,1.76,0,0,1,.45.69c.12.3.52.21.68.47,0,0,.18,0,.2,0,.24-.34.61-.12.92-.21.43-.5,1-.86,1.33-1.51.05-.12.19-.17.35-.2s.28-.5.23-.7-.05-.25,0-.29c.24-.21.26-.57.54-.77a3.91,3.91,0,0,0,.75-.77c.08-.1,0-.29.24-.27s.23-.22.35-.2a.75.75,0,0,0,.75-.32c.12-.14.33-.23.37-.39s.4-.44.47-.67.34-.38.28-.65a.75.75,0,0,0,.09-1,.46.46,0,0,1-.06-.3.77.77,0,0,0-.21-.68c.1-.34-.17-.51-.31-.75-.26-.43-.58-.89-.11-1.42.12-.13,0-.4.17-.59s.07-.48.09-.73,0-.57,0-.79l.56-.6,1.62,0,.32-.43a4,4,0,0,0,.85,0c.19,0,.33-.26.57-.19s.28-.18.46-.22.47-.28.79-.21a1.43,1.43,0,0,0,.65,0c.3-.07.38.36.67.26.09.14.24.23.32.41a1.16,1.16,0,0,1,0,1.16,1.53,1.53,0,0,0-.07.41c0,.66,0,1.32,0,2,0,.14-.06.29.1.41h.42c.19,0,.32,0,.36-.26s.21-.35.34-.36.3-.21.46-.22.26-.12.31-.33a.58.58,0,0,1,.4-.31.54.54,0,0,0,.41-.3c.2-.51.64-.93.53-1.54a2.25,2.25,0,0,1,0-.45c-.38-.22-.39-.73-.74-1-.14-.11-.11-.25-.11-.4a.7.7,0,0,0-.17-.59c-.09-.1,0-.41-.09-.49-.33-.25.13-.32.08-.51a.49.49,0,0,1,.23-.55.43.43,0,0,0,.22-.35c0-.08.12-.17.18-.25s.25-.22.25-.32.25-.26.24-.46.33-.16.45-.33.25-.25.22-.46,0-.27.09-.28c.39,0,.54-.27.63-.6,0,0,.12-.05.18-.06s.3.06.4-.09.38-.11.55-.28.51.06.66-.23c0,0,.12.06.13.11s0,.21.12.3h.73c.15,0,.45.26.45.4s0,.49-.07.62a.91.91,0,0,0-.17.6.5.5,0,0,1-.5.55,2.31,2.31,0,0,0-.47.18,1.29,1.29,0,0,0-.61.39c-.19.19-.51-.06-.68.22,0,.06-.22,0-.28.08-.48.47-1.06.86-1.22,1.56-.27.27-.3.72-.69.89.25.26.49.49.71.73s.27.65.58.83c0,1.19,0,2.35-.06,3.51l-.33.31c-.14,0-.35-.06-.41,0-.36.39-1,.47-1.23,1a.52.52,0,0,1,.1.76c-.21.32-.18.35,0,.66s.13.48.37.61.31.54.52.77a2,2,0,0,1,.55.76.43.43,0,0,0,.52.29c.07,0,.16,0,.22,0a1.69,1.69,0,0,1,1-.2s.06,0,.09-.05c.34-.28.83-.31,1.14-.67.12-.13.26-.3.41-.33.35-.06.43-.28.54-.56s.22-.28.18-.47.27-.3.22-.45c-.13-.35.28-.49.24-.79a6.74,6.74,0,0,1,.72-.34c.07,0,.12-.08.18-.11.3-.15.63-.24.71-.67a.42.42,0,0,1,.52-.28c.35.09.27-.24.37-.39a.85.85,0,0,1,.72,0,.84.84,0,0,0,.59.18h.7l.75-.73a7,7,0,0,0,.78-.76c.21-.27.64-.18.8-.59a3.17,3.17,0,0,0,0-.69c0-.28.21-.44.24-.67s0-.58,0-.87,0-.51,0-.77c.31-.19.22-.5.23-.78s0-.58,0-.87c0-.11,0-.22,0-.34.39-.17.41-.64.71-.89s.59-.53.84-.77c0-.18,0-.31,0-.39a2.39,2.39,0,0,1,.41-.71c.3-.25.35-.69.7-.9-.05-.28.19-.37.33-.52s.32-.29.48-.44c.27.08.38-.29.68-.22a3.87,3.87,0,0,0,.83,0,4.4,4.4,0,0,1,.48.5c.19.33.68,0,.82.39.31-.39.75-.11,1.11-.22,0,0,.05,0,.08-.07.29-.16.69-.21.69-.67.19-.17.36-.36.56-.52s.53-.51.54-.74,0-.59,0-.88c0,0,0,0,0,0a.25.25,0,0,0-.31,0c-.09.05-.16.14-.26.17a.86.86,0,0,1-.32,0l-.31,0c-.32-.45-.8-.71-1-1.26-.12-.31-.56-.44-.59-.85-.28-.29-.54-.6-.84-.86s-.15-.38-.29-.54-.36-.36-.53-.55c0,0,0-.07,0-.1,0-.23-.31-.32-.21-.57-.13-.13-.27-.25-.21-.46s-.26-.34-.21-.57-.13-.38-.2-.57.1-.49-.1-.72-.07-.55-.09-.83a.41.41,0,0,0-.13-.28c-.18-.19.11-.19.13-.39s0-.49,0-.79,0-.58,0-.87,0-.58,0-.87a5.17,5.17,0,0,0,0-.88c0-.31.16-.52.24-.78a1.43,1.43,0,0,0,0-.65c-.07-.3.27-.43.23-.67a1.76,1.76,0,0,1,.29-1c.05-.12.19-.2.18-.36s-.06-.52.22-.68c0-.25,0-.51,0-.76s.09-.18.14-.27a2.91,2.91,0,0,0,.31-.64c.07-.22-.09-.51.18-.69a6,6,0,0,0,.06-.74c0-.17.17-.26.18-.36,0-.45.41-.82.3-1.31a2.46,2.46,0,0,1,0-.67c.18-.24.42-.32.44-.56s.21-.28.33-.41a4.5,4.5,0,0,1,.41-.44c.63,0,.65,0,.83-.64a2.63,2.63,0,0,1,.31-.63c0-.09.13-.14.14-.27s-.09-.45.1-.61.17-.37.29-.54.16-.4.35-.5,0-.51.24-.67,0-.46.18-.58a.76.76,0,0,0,.2-.69c0-.27.31-.37.25-.67a5.35,5.35,0,0,1,0-1,5.07,5.07,0,0,0,0-.87c0-.35.19-.59.24-.89.07-.48-.12-1,.25-1.44a4.82,4.82,0,0,0,0-.76c-.05-.31.17-.53.23-.79a5.3,5.3,0,0,0,0-1c-.43-.39-.15-.88-.19-1.33s0-.8,0-1.2c0-.12-.17-.23-.2-.35a5,5,0,0,1,0-.55c0-.35.13-.72-.08-1.05s0-.77-.1-1.16a.36.36,0,0,0-.11-.17c-.21-.21,0-.59-.29-.76,0,0,0-.14,0-.2.09-.31-.1-.54-.21-.79a1.51,1.51,0,0,1-.22-.79,11.37,11.37,0,0,0,0-1.75,1.59,1.59,0,0,1,.36-1.16c.16-.2,0-.43.16-.59a4.59,4.59,0,0,1,.54-.54c.11-.09,0-.25.09-.28.26-.17.21-.44.24-.68.28-.16.2-.43.21-.67s0-.43,0-.65c.36-.22.11-.6.32-.81l.8-.78h.7c.35.36.8.2,1.22.24a4.71,4.71,0,0,1,.65,0c.29.07.44-.18.68-.21s.39.05.54,0,.25-.25.47-.2.36-.06.53.12a2.74,2.74,0,0,0,0,.41s.09.08.13.12c.22-.4.37.1.6,0a2.83,2.83,0,0,1,.87,0c.08,0,.16.12.25.19a2.33,2.33,0,0,0,.56-.57c0-.3.11-.62-.2-.82,0-.17-.08-.36.07-.51s.15-.11.14-.15c-.06-.52.23-1.08-.18-1.56,0-.17-.07-.36.11-.5s.12-.14,0-.24a.43.43,0,0,1,0-.58.62.62,0,0,0,.17-.48c0-.18-.07-.42,0-.53.28-.33.33-.61,0-.93,0,0,0-.19,0-.2.34-.16.1-.55.32-.75s.12-.15,0-.23-.06-.34-.1-.51.13-.4.3-.53a1.18,1.18,0,0,1,.36-.12c.08-.3-.06-.58.17-.85s0-.62.11-.94c0,0,.05,0,.07-.07a3.85,3.85,0,0,1,1.11-1.5.6.6,0,0,0,.6-.72.22.22,0,0,1,.1-.17c.32-.15.32-.53.54-.76.07-.08,0-.26.17-.36.53-.5,1-1,1.52-1.47.51,0,.53,0,.55-.34s.09-.3.32-.31.17-.18.1-.35-.11-.3,0-.38.31-.15.46-.23c0-.43,0-.87,0-1.41l.6-.48c.15-.38-.06-.71.27-.91,0,0,0-.06,0-.1,0-.29,0-.58,0-.87l0-.76c.26-.21.22-.5.23-.78a3.37,3.37,0,0,0,0-.55c0-.27.16-.39.31-.53s.39,0,.37-.26.25-.24.23-.45a1.37,1.37,0,0,1,.2-.8,1.88,1.88,0,0,0,0-.86c0-.17.1-.25.19-.36s.06-.17,0-.19c-.28-.26-.18-.59-.2-.9,0-.09-.13-.17-.21-.26s0-.42,0-.64a2.43,2.43,0,0,0,0-.66c0-.26.23-.33.25-.56,0-.41-.14-.87.23-1.21,0-.3,0-.59,0-.88S238.84,121.38,238.55,121.13Z" fill="#e3dacc" fill-rule="evenodd"/><path d="M145.71,218.18s0,.06,0,.07h0a.36.36,0,0,1,0-.1Z" fill="#e3dacc" fill-rule="evenodd"/><path d="M183,156.78c0-.16-.25-.3-.18-.53s-.1-.24-.17-.35-.36-.13-.51-.29-.08-.38-.27-.52a4.08,4.08,0,0,1-.8-.58c-.06-.07-.3,0-.4,0s-.2-.25-.38,0-.23.09-.35.15c-.3.13-.35.13-.81,0,.07-.08.18-.15.19-.23,0-.3-.05-.62.23-.84-.07-.26.15-.43.2-.64s0-.42.22-.54c-.1-.27.34-.35.23-.63a.51.51,0,0,0,.22-.53c0-.13.07-.19.19-.19s.21,0,.22-.14c0-.29,0-.6.22-.85a.29.29,0,0,0,0-.3c-.25-.34-.3-.79-.6-1.1-.15-.15-.37-.16-.4,0-.06.35-.36.46-.55.69a.44.44,0,0,0-.62-.17c-.17.11-.38.11-.52.26s-.4.08-.51.29-.37.15-.5.29-.39.05-.56.13-.28.4-.57.4c-.06,0-.13.05-.17.1a9.17,9.17,0,0,0-1.58,1.71c-.1.2-.27.37-.39.56s-.1.48-.35.58c.11.28-.34.35-.23.64s-.32.35-.22.64-.24.3-.22.53a5.93,5.93,0,0,1,0,.73.34.34,0,0,1,0,.1.44.44,0,0,0,.18.45c-.05.23.21.33.22.53s.36.34.39.56a.66.66,0,0,0,.24.42c.15.14.24.34.5.32.09,0,.14.2.08.25s-.17.5-.41.67a5,5,0,0,0-.53.5h-.64a3.39,3.39,0,0,0-.49.51,2.3,2.3,0,0,0-.15.35,1.62,1.62,0,0,0-.32.69c-.35.21-.07.63-.25.83s-.13.51-.18.76.14.42.32.56c.27-.31.74-.26,1-.57l.11.07c0,.14,0,.31,0,.47a.4.4,0,0,0,0,.11,2.35,2.35,0,0,0,.33.37.2.2,0,0,0,.27-.07.34.34,0,0,1,.36-.12,2,2,0,0,0,1.5-.39c.2.06.25-.21.44-.2a.49.49,0,0,0,.54-.19c.26.07.34-.18.5-.29a1.53,1.53,0,0,1,1.18-.29l.73-.79c0-.5.59-.38.78-.69.07-.11.22-.19.27-.3a2,2,0,0,1,.41-.77c-.05-.39.5-.45.45-.84.21-.11.18-.35.31-.5s.37-.29.38-.57c0,0,.11-.07.17-.06s.21-.17.33-.21.28.17.43.21a.81.81,0,0,0,.31,0c.06,0,.15,0,.16-.1s-.07-.36.09-.48C183.4,157.05,183,157,183,156.78Z" fill="#e3dacc" fill-rule="evenodd"/><path d="M297.73,49.21a.51.51,0,0,1-.16-.59c.09-.3-.28-.41-.22-.68s-.17-.72-.35-1a3.42,3.42,0,0,0-1.34-1.42c-.24-.15-.6,0-.75-.31a.14.14,0,0,0-.1,0c-.23,0-.5-.13-.71.11a.31.31,0,0,1-.18.09,2.9,2.9,0,0,1-.66,0c-.29-.07-.44.2-.68.21s-.57-.08-.78.2c-.1-.27-.45-.16-.61-.39s-.27,0-.41-.06a.19.19,0,0,1-.16-.23c0-.09,0-.26-.14-.14s-.49.12-.63.36-.41.24-.67.19l-.3-.32a2.83,2.83,0,0,1,0-.65c.06-.26-.28-.35-.21-.57s-.23-.43-.21-.68a.58.58,0,0,0-.44-.63c-.25-.1-.47-.29-.77-.25-.15-.33-.55-.09-.74-.31a2.07,2.07,0,0,0,0-.66c0-.15-.23-.25-.2-.46-.27-.11-.13-.48-.38-.61s-.19-.45-.38-.61,0-.48-.21-.68-.11-.18,0-.36.14-.14.14-.27,0-.58.23-.78A.82.82,0,0,1,286,37c-.1-.54.28-.91.45-1.35,0-.1.06-.22.17-.22.26,0,.32-.12.29-.33s.16-.4.33-.51.36,0,.34-.28c.25-.28.42-.64.67-.91s.27-.56.53-.78.3-.6.5-.87,0-.59.31-.76c.06,0,0-.27,0-.42s0-.29,0-.46c.33-.16.41-.53.62-.81.08-.1-.09-.15-.14-.25l.65-.54c0-.27,0-.45,0-.55a.85.85,0,0,0,.21-.46,1.86,1.86,0,0,0-.39-1.48c.05-.24-.17-.37-.24-.56s-.13-.28-.48-.47-.4-.25-.59-.37c0-.37-.36-.5-.56-.76l-1.3,0a.59.59,0,0,0-.64-.19l-1.06.72c.35.14.22.43.4.58s0,.37-.13.51.29.12.12.32-.13.36-.25.44c-.32.2-.34.6-.62.84a2.55,2.55,0,0,0-.63.71,3.35,3.35,0,0,1-.72.79c-.72.71-1.45,1.41-2.12,2a1.67,1.67,0,0,1-.09.51c-.18.29-.63.39-.63.83l-.72.74c-.28,0-.47,0-.67.14s-.42,0-.62.07-.41.24-.68.2a8,8,0,0,0-1,0c-.22,0-.43,0-.58-.2a.29.29,0,0,0-.28,0c-.24.26-.55.11-.82.14-.3-.4-.73-.17-1.1-.24-.31-.39-.74-.17-1.11-.24l-.21,0c-.42-.41-.42-.4-.59-.43a.44.44,0,0,0-.46.19l-.08,0-.36-.39h-.57c-.22,0-.3-.32-.55-.25-.15-.28-.51-.1-.65-.26s-.5-.11-.62-.37c0,0-.14-.05-.2,0-.36.13-.58-.24-.89-.24-.13-.24-.44-.19-.61-.38s-.31-.09-.45-.23-.51.05-.66-.26c0,0-.06,0-.09,0a.21.21,0,0,0-.11,0c-.3,0-.53-.13-.79-.21s-.24-.28-.44-.25a.53.53,0,0,1-.56-.23.7.7,0,0,1-.67-.23c-.25.07-.33-.3-.56-.22s-.41-.29-.67-.24a4.83,4.83,0,0,0-.8-.45A6.59,6.59,0,0,1,260,26.84c-.41,0-.53-.47-.83-.61a1.68,1.68,0,0,1-.66-.5c-.17-.26-.5-.22-.69-.47-.41-.53-1-.9-1.29-1.55a.34.34,0,0,0-.33-.24c-.06,0-.17,0-.17-.09,0-.39-.34-.52-.54-.76s-.5-.53-.76-.79c.05-.35-.37-.45-.42-.7s-.4-.49-.55-.76a1.57,1.57,0,0,1-.31-1c0-.25.06-.51-.21-.68.07-.22-.16-.31-.19-.46a.72.72,0,0,0-.18-.37c-.11-.13-.26-.22-.27-.44a.57.57,0,0,0-.26-.32c-.18-.12-.11-.33-.22-.46s-.47-.4-.56-.65a1.79,1.79,0,0,0-.5-.67,3.87,3.87,0,0,1-.46-.68A2.56,2.56,0,0,0,250,14c-.29-.2-.28-.56-.52-.78s-.71-.73-1.05-1.09c-.06-.18.09-.4-.09-.52s-.07-.44-.21-.44c-.37,0-.34-.3-.44-.48a2.27,2.27,0,0,0-1-1.12,1.29,1.29,0,0,1-.57-.61.88.88,0,0,0-.28-.43c-.4-.35-.67-.81-1.19-1s-.56-.75-1.07-.85l-1.06-1.1a3.51,3.51,0,0,1-.37-.4,2.12,2.12,0,0,1-.23-.45c-.47,0-.81-2.56-.82-2.66a1.76,1.76,0,0,0-.79-1.3c-.37.08-.49-.25-.7-.43s-.66.12-.88-.24l-.89,0-1,1c.11.31-.12.53-.24.77s-.33.59-.44.91-.5.32-.46.69c0,0-.09.1-.15.15l-.31.3c-.12.11-.25.16-.36,0s-.6,0-.76-.31c0,0-.12-.06-.19-.06a1,1,0,0,1-.79-.22c-.07-.08-.29,0-.41-.06s0-.34-.22-.46-.08-.32-.16-.35a.75.75,0,0,1-.44-.25c-.38.14-.62-.33-1-.26-.07,0-.16-.11-.25-.15s-.27-.07-.29,0c-.17.32-.55.07-.76.29,0,.4,0,.8,0,1.2v.11c-.08.11-.23.17-.23.35,0,.4,0,.8,0,1.2,0,.2-.15.29-.21.43a2.61,2.61,0,0,0,.47.47c.17.11.4.13.51.33a4.55,4.55,0,0,1,.26.55,1.53,1.53,0,0,0,.27.44c.06.08.19.19.17.24-.13.36.21.58.25.9s.23.65.17,1c0,.1,0,.24.07.29a.54.54,0,0,1,.12.6c-.07.3.33.39.22.69s.08.45.19.68,0,.38.16.59.05.49.05.74a.83.83,0,0,0,.17.59c.12.17,0,.5.24.66a4.87,4.87,0,0,1,0,.54.88.88,0,0,0,.19.58c.1.16,0,.42,0,.64,0,.06.13.1.14.16s0,.4.09.5A.72.72,0,0,1,233,17a4.7,4.7,0,0,0,0,.53c.33.16.05.55.29.76s0,.59.3.75c0,.29,0,.58,0,.87.3.2.2.51.2.78s0,.59,0,.88-.07.58.21.78c0,.66,0,1.32,0,2,0,.22-.24.3-.22.45.05.55-.39,1-.26,1.55a.24.24,0,0,1-.05.19c-.35.23,0,.66-.25.88s-.11.62-.17.92a2.53,2.53,0,0,0,0,.55c0,.16-.1.25-.14.38a1.31,1.31,0,0,0,0,1.11c.15.3.14.68.47.9,0,0,0,.14,0,.2-.08.25.19.37.2.57a6.6,6.6,0,0,1,0,.77,3.09,3.09,0,0,1,0,.43c0,.06-.11.1-.13.16-.08.26-.25.48-.35.74s-.39.33-.51.54a2.32,2.32,0,0,1-.49.67,9.83,9.83,0,0,1-1.86,1.6c-.22.1-.36.37-.56.51s-.27.51-.48.68a5,5,0,0,0-.87,1.27c-.17.23,0,.58-.31.76-.06,0,0,.27,0,.42,0,.36,0,.73,0,1.09,0,.1,0,.26.06.29s.07.36.22.46,0,.49.16.58c.29.22.12.53.27.78a2.12,2.12,0,0,1,.34.73c0,.09.15.16.19.25a.34.34,0,0,1,0,.3c-.21.31-.2.32,0,.52a2.5,2.5,0,0,0,.46.46c.23.16.21.44.36.63a.47.47,0,0,1-.06.67c-.13.14-.11.19,0,.36s.16.15.12.31c-.34.63-1.12.8-1.57,1.35a.28.28,0,0,1-.18.09c-.32,0-.43.36-.66.52,0,.46-.45.33-.63.55-.31,0-.63.06-.94-.12s-.72-.37-.83-.75-.32-.4-.58-.53c-.79-.38-.78-.4-1.36-.41l-.87,0a1,1,0,0,0-.59.18c-.18.11-.47,0-.67.23-.07.07-.28,0-.43,0-.3,0-.45-.37-.78-.24,0,0-.13,0-.17-.09-.28-.39-.77-.44-1.12-.72s-.6.06-.76-.31c0,0-.21,0-.31,0H217c-.09-.15-.28-.21-.31-.42s-.27-.47-.61-.47a.46.46,0,0,1-.27-.13c-.19-.18-.2.1-.4.12a4.22,4.22,0,0,1-.78,0c-.32-.06-.53.14-.79.2a3.76,3.76,0,0,1-.75,0,3.13,3.13,0,0,1-.33.31c-.14.09-.31.13-.45.23a3.34,3.34,0,0,0-.47.45c-.15.19-.4.28-.44.59s-.36.29-.4.47-.22.3-.24.45a2.36,2.36,0,0,0,.28,1.62,4.71,4.71,0,0,1,.33.63,3,3,0,0,0,.57,1c.75.74,1.48,1.51,2.21,2.27,0,.21,0,.42-.15.6s-.12.41-.33.51-.15.39-.32.53-.31.3-.47.45a3.33,3.33,0,0,1-1.5.59c-.33,0-.54.37-.89.22-.28.38-.8.45-1.1.85h-.52a.55.55,0,0,0-.58.2h-.88a9.45,9.45,0,0,1-1.26,1.19,2.35,2.35,0,0,0-.94.91c-.11.23-.36.41-.45.68s-.35.46-.34.73-.35.46-.25.78-.25.25-.22.45c.08.61-.38,1-.57,1.52-.24.16-.29.5-.48.65s-.23.6-.41.83-.09.4-.3.54c-.39.26-.38.8-.71,1.11,0,.25,0,.51,0,.76s0,.36,0,.6a12.55,12.55,0,0,1,.88.9,1.32,1.32,0,0,1,.4,1c.17.31.5.48.65.83a3.05,3.05,0,0,0,.62.74c.24.26.5.52.75.78s.49.54.77.78.35.58.74.57l.76.78c0,.11,0,.22,0,.33s0,.73-.05.78-.13.35-.24.44-.09.45-.19.58-.17.46-.36.62-.29.2-.31.42-.35.3-.39.48-.26.35-.27.55c0,.47,0,.94,0,1.42a.51.51,0,0,1,.2.57c-.09.28.21.43.21.67s0,.36.16.49.28.25.25.32c-.11.33.23.51.22.79s0,.51,0,.77a1.77,1.77,0,0,0,0,.2l.38.39c0,.2-.07.43.15.59a.64.64,0,0,1,.28.65c0,.06.06.17.09.17.47,0,.57.52.91.69.22,0,.44,0,.66,0a.54.54,0,0,1,.28.11c.18.19.39.11.59.08a8.9,8.9,0,0,1,.95-.9,6.13,6.13,0,0,1,1-.52c.34.22.28.68.62.82.09,0,.22-.16.25-.14s.2.23.36.17.29-.16.32-.27c.06-.3.38-.5.3-.86s.37-.54.23-.89l.44-.48c0-.79,0-1.59,0-2.39a1.41,1.41,0,0,1,.31-.29c.21-.1,0-.48.35-.46s.32-.3.56-.22c.27-.3.7-.28,1-.52a.36.36,0,0,1,.18-.1c.33,0,.66,0,1,0,.16,0,.23.25.45.23s.13.12,0,.21-.08.13-.06.15a1.22,1.22,0,0,1,.18.36,2.85,2.85,0,0,0,.47.56c.38.14.82-.13,1.13.25,0,.06.2.06.29,0s.2-.21.31-.3a.24.24,0,0,1,.37,0c.07.08.12.14.24,0s.26-.09.37-.16.26-.25.41-.39l3.15,0c.13,0,.3.08.41,0s.39-.13.59-.15l.56-.53c0-.22,0-.43,0-.72l-.33-.27c-.19-.41.05-.72-.25-1-.08-.06,0-.27,0-.41s-.33-.08-.4-.25,0-.27-.15-.38c-.36-.36-.7-.75-1.07-1.1a4,4,0,0,0-1.11-1c-.38-.17-.55-.62-1-.84a5.55,5.55,0,0,1-1-.93c0-.27,0-.53-.22-.71a.61.61,0,0,1-.24-.33,3.18,3.18,0,0,0-.73-1.13,6,6,0,0,0-1.21-.79c-.27-.18-.56-.06-.84-.09s-.58,0-.87,0-.48.08-.71-.14-.56,0-.83-.1a.64.64,0,0,1-.19-.08c-.41-.22-.84-.42-1.25-.65a3.27,3.27,0,0,1-.69-.7,1.14,1.14,0,0,0-.16-.15.26.26,0,0,1-.08-.29,1.23,1.23,0,0,1,.22-.25,4.12,4.12,0,0,0,0-.86c-.09-.37.21-.58.27-.88a3.42,3.42,0,0,1,.42-.7c.15-.26.19-.59.44-.79s.32-.62.63-.84a3.29,3.29,0,0,0,.55-.58h.64c.18,0,.23.26.45.23a3.25,3.25,0,0,1,.54,0,.49.49,0,0,1,.21,0,10,10,0,0,0,1.61.86c.21.1.31.28.48.42s.14.16.23.23c1.22,1,1.22,1,1.56,1.62a1.51,1.51,0,0,0,.37.62c.15.11.24.3.39.38s.06.43.31.52.22,0,.32,0a1.83,1.83,0,0,0,1.29-.31c.08,0,.12-.11.16,0,.21.3.54.1.8.19s.39-.34.68-.21c.21-.21.38-.49.63-.59a2,2,0,0,0,.69-.47c.39-.38.76-.79,1.18-1.13s.49-.78.86-1.06c.15-.12.11-.31.23-.46s.2-.61.63-.6c0,0,.11-.1.11-.15,0-.26.14-.3.35-.27s.25-.1.38-.14c.51-.16.93-.62,1.54-.49.05,0,.13-.06.17-.11s.16,0,.24,0,.21.13.36,0,.29-.23.45,0a.51.51,0,0,0,.39.14c.17,0,.36-.07.5.1s.43.19.61.39c.56.62,1.16,1.21,1.73,1.82a2.84,2.84,0,0,0,.67.48c.17.11.43.08.53.31s.45.19.6.39.43,0,.59.17a.27.27,0,0,0,.07.08,3.36,3.36,0,0,0,.65.28,1,1,0,0,1,.47.19c.12.1.32.09.44.25a2.39,2.39,0,0,0,.78.47,2.62,2.62,0,0,1,.62.34c.22.23.61,0,.75.31.28,0,.4.24.65.29a2.88,2.88,0,0,1,.56.23,3.93,3.93,0,0,1,1.17.6c.13.12.24.27.38.39s.24.34.51.35.26.18.45.23.3.37.48.4.37.38.58.43a.92.92,0,0,1,.52.34c.16.21.44.17.61.38a3,3,0,0,0,.68.45c.35-.1.52.16.72.36a3,3,0,0,0,1.06.87,1.09,1.09,0,0,1,.36.17c.08.09.08.26.16.36a2.77,2.77,0,0,0,.53.55c.24.16.17.46.37.62s.23.34.38.38c.58.16.79.71,1.2,1-.05.36.27.52.47.67a4.79,4.79,0,0,0,.67.47,7.93,7.93,0,0,0,.86.3.42.42,0,0,0,.39-.1c.25-.18.36-.57.77-.54a.21.21,0,0,0,.1-.16c-.08-.4.24-.57.46-.8,0-.22,0-.43,0-.65a.48.48,0,0,1,.07-.3,1.66,1.66,0,0,0,.37-.72,2,2,0,0,1,.38-.83c.14-.24,0-.6.3-.75,0,0,0-.06,0-.1,0-.29,0-.58,0-.87s0-.66,0-1c.29-.19.22-.5.23-.77s0-.37,0-.55c.27-.15.23-.42.24-.67.37-.15.15-.57.38-.83a4.79,4.79,0,0,0,.52-1,2.67,2.67,0,0,1,.61-.95c.07,0,0-.19.07-.29s0-.17,0-.21a1.85,1.85,0,0,0,.55-.75c.59-.43.73-1.17,1.2-1.68a2.71,2.71,0,0,0,.31-.64c.11-.17.35-.24.38-.49s.39-.19.56-.39c.38-.45.85-.81,1.24-1.24.25-.27.65-.27.86-.59.06-.09.26-.08.36-.16.26-.18.57-.24.82-.39a4.59,4.59,0,0,0,.8-.73l.56-.54h.47a4.19,4.19,0,0,1,.6-.59c.21-.15.52-.17.73-.32s.34-.1.46-.22,0-.47.38-.37l.48-.44a1.93,1.93,0,0,1,.39-.37c.16-.08.35-.07.45-.24.34,0,.47-.28.7-.44h.63l.25-.2c.17.28.44.21.68.21l3.23.06.41.42,3.11,0a1.69,1.69,0,0,1,.35-.32c.21-.1.41-.16.46-.45,0-.11.21-.2.3-.31a.25.25,0,0,0,.08-.18c0-.3.08-.46.39-.48,0,0,.06-.12.06-.18a1.74,1.74,0,0,0,0-.32,10.4,10.4,0,0,0,1-.92c.28-.35.74-.42,1-.76.13-.17.34-.08.47-.21a3.41,3.41,0,0,1,.47-.46c.13-.1.32-.13.45-.23s.2.11.39.14h.24l.88,0c.18,0,.43.08.53,0s.39-.15.54-.28.31-.2.46,0a.34.34,0,0,0,.38.11,3.74,3.74,0,0,0,.66-.25s.05-.12.07-.19,0-.28.09-.4a4.54,4.54,0,0,0,.9-1.52l4.45.07c.06,0,.16,0,.19.05.26.3.59.17.88.15.17-.2,0-.53.25-.68A.31.31,0,0,0,297.73,49.21Z" fill="#e3dacc"/><path d="M307.5,26.69c-.39-.21-.82-.38-.78-1,0,0-.05-.12-.09-.15-.3-.18-.27-.48-.33-.79-.76,0-1.51,0-2.25-.05-.23,0-.3.23-.52.2s-.46,0-.69,0a2.56,2.56,0,0,1-.68,0,2.82,2.82,0,0,1-.56-.31c-.05,0-.11-.08-.16-.08-.25,0-.53.07-.7-.22a3.45,3.45,0,0,1-.79,0c-.27-.06-.35.31-.61.21l-.49.48c-.07.06-.18.13-.19.21,0,.26-.23.43-.33.65a1.78,1.78,0,0,0-.1.36c-.08.33-.33.58-.41.91,0,.13-.19.23-.22.41s-.22.22-.33.34-.25.19-.26.39-.26.09-.37.21a5.32,5.32,0,0,0-.8.85c-.21.39-.58.6-.83.93.08.36-.37.39-.42.71s-.31.47-.38.72-.3.28-.22.5a5.4,5.4,0,0,0-.41.42c-.2.27-.55.3-.78.54s-.39.52-.75.55a.87.87,0,0,1-.29.47.4.4,0,0,0-.18.32c0,.14-.17.24-.22.4-.11.32-.58.41-.6.82,0,0-.05.07-.07.07-.26,0-.25.18-.36.32s-.23.61-.56.73v.61a3.79,3.79,0,0,1,0,.59c-.06.24.2.32.2.52s0,.59,0,.89c.24.14.21.38.18.6a1.39,1.39,0,0,0,.35.94,2.88,2.88,0,0,0,.27.34c.31,0,.54,0,.77,0s.63,0,.7,0,.29-.11.41-.2a1.82,1.82,0,0,0,.29-.27c.11-.11.31,0,.41-.2s.35-.21.35-.44a.79.79,0,0,1,.2-.51c.08-.11,0-.32,0-.49a2.24,2.24,0,0,1,0-.58c.07-.27-.19-.39-.2-.62s.3-.55.25-.88c.14-.14.37,0,.45-.08s.41-.14.57-.32c.28-.34.69-.57.85-1,.3.06.29-.14.3-.35a.35.35,0,0,1,.12-.24c.08-.08,0-.2.09-.26.18-.22.4-.42.6-.63a.75.75,0,0,1,0-.3,2.25,2.25,0,0,0,.22-.6c0-.2.22-.36.19-.61,0-.09.1-.14.21-.14a2.23,2.23,0,0,1,.72,0c.32.12.51-.27.81-.19a.23.23,0,0,0,.25-.11c.06-.07.18-.15.18-.21a.83.83,0,0,1,.21-.61c-.13-.29.16-.46.23-.69a1.07,1.07,0,0,1,.53-.52c.18,0,.41.07.5,0a1.15,1.15,0,0,1,.82-.17,1.63,1.63,0,0,0,.66,0c.19-.11.27-.39.56-.34a.65.65,0,0,1,.4-.21c.11,0,.19-.19.29-.26s.29-.12.41-.21a2.24,2.24,0,0,0,.35-.34l.5-.47c.09-.09.19-.21.3-.22s.22-.14.33-.18.25,0,.38,0,.16-.22.31-.19a.29.29,0,0,1,.17.07c.11.15.18.1.29,0s.39.07.53-.13S307.18,26.89,307.5,26.69Z" fill="#e3dacc" fill-rule="evenodd"/><path d="M338.25,4.26a.46.46,0,0,1-.1-.25c0-.22,0-.45,0-.65-.48-.5-.95-1-1.39-1.45a.68.68,0,0,0-.59-.27c-.07,0-.14-.12-.22-.15a.45.45,0,0,0-.46,0,2,2,0,0,1-.66.32c-.27.07-.33.4-.62.4a.27.27,0,0,0-.17.08c-.13.17-.36.26-.42.51s-.61.48-.65.91c-.2.08-.4.15-.59.24a.9.9,0,0,0-.37.4,1.39,1.39,0,0,1-.91.78c-.1.2-.35.13-.48.27s-.28.28-.43.41-.31.4-.5.44-.3.21-.51.23-.31.19-.5.21c-.17.29-.6,0-.75.34h-1l-.67-.28a1.92,1.92,0,0,1-.39-.73.3.3,0,0,1,.06-.36c.21-.16.17-.33,0-.47a.6.6,0,0,1-.23-.6s-.07-.09-.1-.14c-.3.22-.49.25-.68.09s-.13-.15-.21-.21a.54.54,0,0,0-.53-.06c-.17.12-.27.38-.55.34l-.5.49c0,.45,0,.91,0,1.36,0,.23,0,.46.19.62,0,0,0,.17,0,.18-.27.16-.06.29,0,.44a.43.43,0,0,1,0,.37c-.18.19-.2.47-.42.63a2.82,2.82,0,0,0-.36.33c-.14.13-.34.11-.49.27-.3.34-.65.64-1,1h-.27c-.21,0-.28.23-.52.21s-.21.22-.41.17a5.83,5.83,0,0,0-.56.55,4.69,4.69,0,0,1-.49.68c-.1.1-.11.28-.22.41s0,.31-.1.44-.38.27-.35.55c-.47.46-.94.92-1.42,1.37-.13.12-.22.34-.47.27l-.57.55c-.33,0-.44.36-.72.41s-.4.31-.59.48-.38.07-.49.26a1.94,1.94,0,0,1-.49.68s0,.12-.05.18a3.44,3.44,0,0,1-.69,1.28c-.13.13-.08.31-.21.41a4.17,4.17,0,0,1-.43.41,1.24,1.24,0,0,0-.41.62c-.1.22-.24.42-.32.65s-.37.33-.42.62a.41.41,0,0,1-.28.25c-.34,0-.46.33-.68.5,0,.1,0,.2,0,.3s-.24.21-.21.41,0,.32,0,.49-.09.22-.17.33a.5.5,0,0,0,0,.46c.21.53.2.53,0,1.14a.86.86,0,0,0,0,.28c0,.06,0,.16.05.17s.2.06.26,0,.29-.29.45-.33a1.07,1.07,0,0,0,.53-.19c.09-.08.31,0,.48,0l1.08,0,.42-.39a.82.82,0,0,0,.56-.13c.25-.22.31-.55.55-.76.09-.08.23-.11.26-.06.22.29.53.18.81.2.21-.21.44-.4.64-.62a1.84,1.84,0,0,1,.7-.47c.19-.09.39-.15.41-.41.29-.15,0-.6.36-.74,0,0,0-.06,0-.09a.54.54,0,0,1,.14-.44c.12-.13.13-.33.29-.47a1.73,1.73,0,0,0,.65-.81c0-.08.13-.15.21-.2.87-.58.91-.61,1.26-1.23a1.73,1.73,0,0,1,.35-.54,5.36,5.36,0,0,0,.54-.56c.27,0,.45.05.57-.11-.1-.26.28-.33.23-.61a5.36,5.36,0,0,1,0-1c.27-.23.29-.61.5-.87.34.41.8.12,1.2.24.26-.48.79-.5,1.18-.76.21-.14.58.09.8-.21a.19.19,0,0,1,.18,0c.15.23.44.21.62.38l1.49-1.44a1.93,1.93,0,0,0,.35-.35,2.14,2.14,0,0,0,.2-.4A1.38,1.38,0,0,1,328,12a6.15,6.15,0,0,0,.63-.62c.17-.22.48-.16.63-.39s.54-.2.7-.48a.17.17,0,0,1,.15-.08c.32.08.47-.16.66-.33a.28.28,0,0,1,.17,0,.53.53,0,0,0,.51-.21,2.22,2.22,0,0,1,.44-.37c.23-.15.54-.16.73-.38.3,0,.49-.33.81-.2a.42.42,0,0,1,.51-.17c.27.08.38-.22.62-.19s.45-.06.62.17c0,.05.18,0,.28,0s.35-.29.61-.19.16-.07.24-.11c.24-.14.6-.12.58-.54.14-.16.26-.36.54-.31a.41.41,0,0,0,.44-.31c0-.2.12-.46-.06-.65s-.12-.13,0-.22.14-.27,0-.4a.23.23,0,0,1,0-.34c.05-.07.14-.15.14-.23a.54.54,0,0,1,.22-.51A.44.44,0,0,0,338.25,4.26Z" fill="#e3dacc"/><path d="M203,179.47a8.9,8.9,0,0,0-8,12.07v0a7.67,7.67,0,0,0,.74,1.49L204,205.64l7.53-13.87c.07-.16.13-.33.19-.49l.09-.25h0A8.92,8.92,0,0,0,203,179.46Z" fill="#97b354"/><path d="M206.92,183l-7.78,9.76,8.51,6.15,3.89-7.18c.07-.16.13-.33.19-.49l.09-.25h0a8.89,8.89,0,0,0,.4-3,8.45,8.45,0,0,0-.14-1.34L206.92,183Z" fill="#728d30" fill-rule="evenodd"/><path d="M209.53,187.89a6.25,6.25,0,1,1-6.48-6,6.26,6.26,0,0,1,6.48,6Z" fill="#fff"/><path d="M127,194.47a8.9,8.9,0,0,0-8,12.07v0a7.67,7.67,0,0,0,.74,1.49L128,220.64l7.53-13.87c.07-.16.13-.33.19-.49l.09-.25h0A8.92,8.92,0,0,0,127,194.46Z" fill="#97b354"/><path d="M130.92,198l-7.78,9.76,8.51,6.15,3.89-7.18c.07-.16.13-.33.19-.49l.09-.25h0a8.89,8.89,0,0,0,.4-3,8.45,8.45,0,0,0-.14-1.34L130.92,198Z" fill="#728d30" fill-rule="evenodd"/><path d="M133.53,202.89a6.25,6.25,0,1,1-6.48-6,6.26,6.26,0,0,1,6.48,6Z" fill="#fff"/><path d="M38,215.47a8.9,8.9,0,0,0-8,12.07v0a7.67,7.67,0,0,0,.74,1.49L39,241.64l7.53-13.87c.07-.16.13-.33.19-.49l.09-.25h0A8.92,8.92,0,0,0,38,215.46Z" fill="#97b354"/><path d="M41.92,219l-7.78,9.76L42.65,235l3.89-7.18c.07-.16.13-.33.19-.49l.09-.25h0a8.89,8.89,0,0,0,.4-3,8.45,8.45,0,0,0-.14-1.34L41.92,219Z" fill="#728d30" fill-rule="evenodd"/><path d="M44.53,223.89a6.25,6.25,0,1,1-6.48-6,6.26,6.26,0,0,1,6.48,6Z" fill="#fff"/></g></g></svg>